<svg width="96" height="96" viewBox="0 0 96 96" fill="none" xmlns="http://www.w3.org/2000/svg">
<path d="M79.3837 48.1408C79.573 30.7063 65.649 16.4065 48.2836 16.2011C31.6681 15.9957 16.6871 29.9626 16.4977 47.397C16.3083 64.8315 30.2323 79.1313 47.5978 79.3367C64.9632 79.5421 79.1943 65.5752 79.3837 48.1408Z" fill="#84BBA8"/>
<path d="M79.0304 49.4994C79.0297 30.1236 62.2505 20.5553 50.3755 21.2517C31.5005 22.3586 20.5782 35.1057 20.4115 50.4457C20.2449 65.7858 33.3113 79.0048 49.526 79.1966C65.7407 79.3884 78.8637 64.8394 79.0304 49.4994Z" fill="#589D88"/>
<path d="M35.6914 35.2446C34.7623 36.8742 36.8705 38.1223 38.5787 37.2486C45.2354 33.844 51.7818 35.5451 56.0838 42.7448C56.4934 43.4367 56.1831 44.2441 55.4528 44.5086L53.1028 45.3468C51.5249 45.9097 51.2624 47.9436 52.6615 48.8132C56.3508 51.1064 62.1377 54.6762 65.1481 56.3922C66.1163 56.9441 67.2681 56.51 67.6579 55.4851C68.8735 52.2892 71.2389 45.9207 72.7488 41.8461C73.3167 40.3135 71.8152 38.8489 70.2065 39.3604L68.9578 39.7574C68.2669 40.0051 67.4315 39.6593 67.0559 38.9915C59.8089 26.0351 41.8239 24.4898 35.6914 35.2446Z" fill="#F8FCF9"/>
<path d="M31.373 42.6216C31.9351 41.1921 33.5882 40.5603 34.9602 41.3892C37.8899 43.1593 43.4853 46.8164 47.0495 49.1636C48.9368 50.4065 48.5531 53.2178 46.4194 53.9739L44.0629 54.8088C43.7868 54.9083 43.6403 55.2155 43.8129 55.53C45.7698 59.0512 48.2455 61.1809 50.9462 62.0696C53.6422 62.9567 56.6745 62.6441 59.8276 61.0688C60.9326 60.5168 62.1813 60.6519 63.0251 61.239C63.4524 61.5364 63.7988 61.9678 63.9357 62.5068C64.0751 63.0559 63.9778 63.6415 63.6508 64.1958C60.3134 69.8531 54.0089 72.1567 47.7324 71.366C41.455 70.5751 35.1385 66.6935 31.6191 59.9114C31.4124 59.5168 30.9736 59.3799 30.6992 59.4775L30.6857 59.4824L30.6721 59.4866L29.5175 59.8503C27.3139 60.5445 25.2647 58.4521 26.0837 56.3167C27.6607 52.2051 30.1162 45.8177 31.373 42.6216Z" fill="#11604D"/>
<path fill-rule="evenodd" clip-rule="evenodd" d="M48.27 15.9153L48.3007 15.9163C66.437 16.8745 80.1845 30.6865 79.9892 48.665C79.8663 59.9774 73.8847 69.8477 64.9641 75.4233C64.9429 75.4365 64.921 75.4487 64.8986 75.4597L61.5937 77.0918L61.5742 77.1001C57.3684 78.8876 52.6617 79.9046 47.7014 79.8459C30.3475 79.6407 15.9057 65.7335 16.0981 48.0137C16.2905 30.3024 30.3874 15.9326 47.8566 15.9131L48.27 15.9153ZM48.2368 17.415C31.4467 17.225 17.7831 30.9792 17.5978 48.0298C17.4148 64.8809 31.1514 78.15 47.7189 78.3459C52.454 78.4019 56.9482 77.433 60.9667 75.7283L64.1994 74.1318C72.6874 68.8127 78.3725 59.4161 78.4894 48.6487C78.6754 31.5325 65.6171 18.3406 48.2368 17.415Z" fill="#11604D"/>
<path d="M19.3389 69.2327C19.4002 69.1936 19.4754 69.1794 19.5484 69.1926C19.6214 69.2059 19.6863 69.246 19.7308 69.3023C20.024 69.6736 20.3258 70.0365 20.6365 70.3919C23.4341 73.5903 26.9036 76.1356 30.7093 78.042C34.5193 79.9455 38.6751 81.2285 42.992 81.8032C43.4715 81.8667 43.954 81.9212 44.437 81.9663C44.5103 81.9732 44.5796 82.0049 44.6297 82.0576C44.6797 82.1104 44.7065 82.1797 44.7039 82.2505C44.7012 82.3212 44.6695 82.3884 44.6158 82.438C44.5619 82.4877 44.4902 82.5154 44.4165 82.5178C43.9224 82.5337 43.4261 82.5369 42.9305 82.5276C38.4663 82.4434 33.9935 81.347 29.9998 79.3482C26.0084 77.3548 22.486 74.4258 20.0306 70.8274C19.7576 70.4283 19.4983 70.0221 19.2522 69.6082C19.2158 69.5467 19.2027 69.4734 19.2185 69.4033C19.2344 69.3333 19.2775 69.2719 19.3389 69.2327Z" fill="#247A64"/>
<path d="M15.9112 63.0337C15.9633 63.0102 16.0235 63.0069 16.085 63.0213C16.1465 63.0357 16.2052 63.0666 16.2605 63.1013C16.3112 63.1334 16.3606 63.1659 16.4085 63.199C16.8399 63.4969 17.1581 63.837 17.3687 64.2302C17.5793 64.6235 17.6826 65.0704 17.6851 65.582C17.6854 65.6388 17.6841 65.6965 17.6819 65.7549C17.6793 65.8185 17.6716 65.8824 17.6482 65.9392C17.6248 65.9961 17.5872 66.0414 17.5371 66.0689C17.4871 66.0963 17.4276 66.1046 17.365 66.095C17.3025 66.0853 17.2414 66.0589 17.1834 66.0286C17.1298 65.9999 17.0774 65.9702 17.0266 65.9397C16.5697 65.6648 16.2282 65.3166 16.0093 64.9077C15.7904 64.4989 15.6939 64.0289 15.7256 63.5105C15.7291 63.4529 15.7343 63.3945 15.741 63.3357C15.7489 63.2725 15.7617 63.2093 15.7896 63.1546C15.8176 63.0997 15.859 63.0573 15.9112 63.0337Z" fill="#247A64"/>
<path fill-rule="evenodd" clip-rule="evenodd" d="M35.0215 34.8985C38.2698 29.2018 44.6402 26.8092 51.0506 27.4966C57.4613 28.1841 63.9879 31.9462 67.7308 38.6365C67.9563 39.0374 68.4202 39.1696 68.6985 39.0698L68.712 39.0652L68.7259 39.0608L69.9746 38.6638C72.1822 37.962 74.2525 39.9726 73.47 42.0845C71.9605 46.1581 69.594 52.5298 68.377 55.7293C67.8305 57.166 66.1544 57.8246 64.7515 57.0249C61.7259 55.3003 55.9257 51.7221 52.24 49.4312C50.3096 48.2311 50.6799 45.4311 52.8445 44.6589L55.1924 43.8213C55.4562 43.7247 55.6059 43.4324 55.4183 43.1145C53.3354 39.6295 50.758 37.5532 47.9786 36.7214C45.2045 35.8913 42.1168 36.2671 38.9324 37.8958C37.8285 38.4604 36.5709 38.3541 35.7115 37.7947C35.2763 37.5113 34.9202 37.095 34.7718 36.5681C34.6206 36.0316 34.7054 35.4529 35.0215 34.8985ZM50.8619 28.9563C44.935 28.3207 39.2466 30.5328 36.3623 35.5908C36.2139 35.8511 36.2134 36.04 36.2495 36.1685C36.2885 36.3066 36.3925 36.4528 36.5816 36.5759C36.971 36.8295 37.6215 36.9107 38.2256 36.6018C41.698 34.8258 45.2121 34.3497 48.451 35.3189C51.5829 36.2561 54.3519 38.5131 56.5393 42.0296L56.7495 42.3735L56.7508 42.3762C57.3811 43.4411 56.911 44.7624 55.7156 45.1953L55.7137 45.1961L55.712 45.1965L53.3619 46.0349C52.3708 46.3885 52.216 47.6563 53.0835 48.1956C56.7765 50.491 62.5502 54.0522 65.5454 55.7595C66.0791 56.0637 66.7065 55.8543 66.9397 55.2412C68.154 52.0488 70.5182 45.6834 72.0284 41.6079C72.3815 40.6548 71.4492 39.7364 70.4395 40.0574L69.1907 40.4544C68.0946 40.8311 66.9033 40.2737 66.3819 39.3467L66.3809 39.3452C62.8767 33.0803 56.7878 29.5918 50.8619 28.9563Z" fill="#247A64"/>
</svg>
