<svg width="96" height="96" viewBox="0 0 96 96" fill="none" xmlns="http://www.w3.org/2000/svg">
<path d="M47.3749 79.25C53.4632 79.25 65.7009 74.4696 72.2283 63.7545C77.5932 54.9524 78.3613 45.5099 77.8777 38.8695C77.2274 29.9124 73.4272 28.5501 67.0666 26.4821C62.1081 24.871 58.3648 22.6358 56.0034 20.3108C53.4023 17.7493 50.3662 16.75 47.3749 16.75C44.3835 16.75 41.3475 17.7493 38.7463 20.3108C36.3849 22.6358 32.6376 24.871 27.6832 26.4821C21.3225 28.5501 17.5224 29.9165 16.8721 38.8695C16.3884 45.5058 17.1606 54.9524 22.5215 63.7545C29.0488 74.4655 41.2865 79.25 47.3749 79.25Z" fill="#589D88"/>
<path d="M24.1292 22.8941C24.2225 22.8699 24.323 22.8785 24.4099 22.9227C24.4967 22.9669 24.5628 23.0422 24.5938 23.1332C24.6247 23.2242 24.6183 23.3242 24.5764 23.4122C24.5346 23.5002 24.4605 23.5683 24.3718 23.6061C24.0715 23.7333 23.782 23.8559 23.4837 23.9815C20.8491 25.1043 18.1488 26.1812 16.4363 28.2147C14.704 30.2321 14.0071 33.0391 13.5628 35.8368C13.5143 36.1473 13.4695 36.4555 13.4268 36.7796C13.4122 36.8887 13.3591 36.9906 13.2744 37.0626C13.1899 37.1345 13.0814 37.1708 12.9719 37.1632C12.8625 37.1556 12.7599 37.1047 12.686 37.0218C12.6122 36.9389 12.5736 36.8306 12.5742 36.7206C12.5772 36.3861 12.5844 36.0665 12.5977 35.7428C12.731 32.8472 13.2626 29.6957 15.3259 27.2657C17.4105 24.8315 20.4488 23.9135 23.1936 23.1434C23.5081 23.0572 23.8132 22.9768 24.1292 22.8941Z" fill="#247A64"/>
<path d="M47.9387 21.002C48.2068 20.9855 48.4703 21.0748 48.6689 21.2505C48.8676 21.4262 48.9852 21.6738 48.998 21.9387C49.0377 22.7554 49.0746 23.5771 49.1084 24.395C49.6626 39.1412 49.6321 53.8642 48.6313 68.5959C48.5638 69.3914 48.4873 70.244 48.3716 71.0498C48.3573 71.1469 48.3047 71.235 48.2258 71.2944C48.1469 71.3539 48.0482 71.3799 47.9509 71.3669C47.8536 71.3539 47.7653 71.3028 47.7048 71.2246C47.6443 71.1465 47.6166 71.0477 47.6284 70.9502C47.7191 70.1769 47.7748 69.327 47.8208 68.5388C48.4434 53.8637 48.0991 39.1437 47.1738 24.4998C47.1194 23.6874 47.0621 22.8717 47.0019 22.0613C46.9823 21.7968 47.0688 21.5366 47.2446 21.3379C47.4202 21.1393 47.6706 21.0184 47.9387 21.002Z" fill="#11604D"/>
<path d="M21.3735 39.2368C21.4433 39.2417 21.5089 39.2742 21.5571 39.3271C21.6054 39.3801 21.6316 39.4491 21.6357 39.5195C21.6647 40.0033 21.6952 40.4953 21.728 40.9766C21.8589 42.9174 22.0173 44.8272 22.206 46.7363C22.7205 51.953 24.1517 57.0842 26.6592 61.7178C27.357 63.0097 28.1591 64.2502 29.0532 65.4275C29.345 65.8118 29.6466 66.1895 29.9575 66.5601C30.0045 66.616 30.0297 66.688 30.0259 66.7615C30.022 66.835 29.9896 66.9038 29.9358 66.9531C29.8819 67.0024 29.8105 67.0283 29.737 67.0256C29.6635 67.0229 29.5941 66.9917 29.5425 66.9399C29.1944 66.5905 28.8554 66.2312 28.5261 65.8625C27.5171 64.7332 26.5997 63.5146 25.7934 62.2214C22.9154 57.6191 21.2426 52.2873 20.7134 46.8843C20.5175 44.9062 20.558 42.9109 20.8286 40.9443C20.8961 40.4567 20.9785 39.9618 21.0747 39.4805C21.0886 39.4113 21.124 39.3465 21.1792 39.3008C21.2343 39.255 21.3037 39.232 21.3735 39.2368Z" fill="#11604D"/>
<path d="M65.1299 30.5093C65.1937 30.4754 65.268 30.4675 65.3376 30.4827C65.9406 30.6144 66.543 30.7564 67.1389 30.9114C68.7834 31.4158 70.5966 31.6532 72.0569 33.2805C72.6182 33.9864 72.8917 34.7623 73.0996 35.5107C73.4107 36.6819 73.545 37.8459 73.6262 39.0046C74.135 46.5255 72.6816 54.2852 68.9177 60.8147C68.6101 61.3498 68.2879 61.8765 67.9499 62.3955C67.9099 62.4569 67.8478 62.5016 67.7761 62.5188C67.7044 62.536 67.6289 62.5245 67.5661 62.4866C67.5035 62.4487 67.4583 62.3874 67.4402 62.3159C67.422 62.2444 67.4327 62.1686 67.4685 62.1045C67.7656 61.5726 68.0473 61.0359 68.3149 60.4932C71.5823 53.8752 72.6909 46.3866 72.1443 39.1113C72.059 38.0118 71.9226 36.9178 71.6513 35.9014C71.4762 35.2539 71.2444 34.6211 70.9145 34.1685C70.1325 33.0993 68.3556 32.4706 66.8423 31.7612C66.2873 31.5146 65.7241 31.2671 65.1623 31.0173C65.0973 30.9883 65.0424 30.938 65.011 30.873C64.9795 30.808 64.974 30.7341 64.9961 30.6667C65.0181 30.5994 65.0661 30.5431 65.1299 30.5093Z" fill="#11604D"/>
<path fill-rule="evenodd" clip-rule="evenodd" d="M47.3747 16C50.5451 16 53.7761 17.0647 56.5298 19.7764C58.788 21.9997 62.4199 24.1837 67.2983 25.7688L67.8823 25.9592C70.776 26.9064 73.2791 27.8068 75.1274 29.5461C77.1444 31.4442 78.2934 34.2386 78.6257 38.8149L78.6477 39.1328C79.0839 45.7453 78.282 55.007 73.1218 63.7236L72.8686 64.1448C69.523 69.6368 64.7234 73.5946 59.9968 76.1785C55.2833 78.7551 50.5777 80 47.3747 80C44.1717 80 39.4663 78.7541 34.7529 76.177C30.0263 73.5927 25.2267 69.6348 21.8811 64.1448L21.8808 64.1445C16.4126 55.166 15.6333 45.5478 16.124 38.8149C16.4563 34.2406 17.6052 31.4464 19.622 29.5479C21.5936 27.692 24.31 26.79 27.4511 25.7688C32.3258 24.1836 35.9619 21.9996 38.2199 19.7764C40.9736 17.0647 44.2044 16 47.3747 16ZM47.3747 17.5C44.6065 17.5 41.81 18.405 39.3877 20.7332L39.2724 20.8452C36.8078 23.2718 32.9491 25.5582 27.915 27.1953C24.6956 28.242 22.3316 29.0575 20.6504 30.6401C19.0145 32.18 17.9381 34.5454 17.6201 38.9238C17.1435 45.4634 17.9085 54.7386 23.1618 63.3643L23.312 63.6079C26.4867 68.7033 30.9975 72.414 35.4726 74.8608C40.0319 77.3536 44.4894 78.5 47.3747 78.5C50.2601 78.5 54.7179 77.3546 59.2771 74.8623C63.8232 72.3772 68.406 68.5872 71.5876 63.3643C76.8448 54.7388 77.6062 45.468 77.1296 38.9241C76.8116 34.5436 75.7353 32.178 74.0996 30.6387C72.5234 29.1555 70.3472 28.3469 67.4284 27.3892L66.8347 27.1953C61.9537 25.6093 58.1839 23.414 55.7124 21.0723L55.4773 20.8452C53.0286 18.4339 50.187 17.5 47.3747 17.5Z" fill="#11604D"/>
</svg>
