<svg fill="none" viewBox="0 0 24 24" xmlns="http://www.w3.org/2000/svg">
  <path fill="#FFD65C" d="M20.866 11.378c.248 0 .46.186.465.433a9.889 9.889 0 0 1 0 .341 6.533 6.533 0 0 0-.84-.783c.125.006.25.009.375.009m-4.56-1.375a8.237 8.237 0 0 1-3.684-6.87.454.454 0 0 0-.433-.464 9.333 9.333 0 1 0-.036 18.664 6.5 6.5 0 0 1 4.154-11.33Z"/>
  <path fill="#C18010" d="M12 2C6.477 2 2 6.477 2 12s4.477 10 10 10c.325 0 .646-.015.963-.046a6.53 6.53 0 0 1-1.464-1.302 8.667 8.667 0 0 1 .459-17.319 8.895 8.895 0 0 0 3.36 6.774 6.532 6.532 0 0 1 2.846.108 7.58 7.58 0 0 1-4.875-7.082c0-.566-.434-1.118-1.087-1.131A10.216 10.216 0 0 0 12 2m6.867 8.444a6.522 6.522 0 0 1 3.087 2.519 10.115 10.115 0 0 0 .044-1.165c-.013-.652-.565-1.087-1.131-1.087a7.583 7.583 0 0 1-2-.267Z"/>
  <path fill="#92540C" d="M11.066 7.645a.933.933 0 1 1-1.866 0 .933.933 0 0 1 1.867 0Zm-2.488 2.488a.933.933 0 1 1-1.867 0 .933.933 0 0 1 1.867 0M7.644 14.8a.933.933 0 1 0 0-1.867.933.933 0 0 0 0 1.867m2.932 4.379a.933.933 0 0 1-.516-1.79c.086.63.263 1.231.516 1.79m2.034-7.888a.933.933 0 0 0-1.32 1.32c.375-.5.82-.945 1.32-1.32"/>
  <path fill="#DE5833" d="M22 16.5a5.5 5.5 0 1 1-11 0 5.5 5.5 0 0 1 11 0"/>
  <path fill="#9A3216" fill-rule="evenodd" d="M16.5 20.667a4.167 4.167 0 1 0 0-8.334 4.167 4.167 0 0 0 0 8.334m0 1.333a5.5 5.5 0 1 0 0-11 5.5 5.5 0 0 0 0 11" clip-rule="evenodd"/>
  <path fill="#fff" fill-rule="evenodd" d="M13.834 16.5c0-.368.298-.667.666-.667h4a.667.667 0 1 1 0 1.334h-4a.667.667 0 0 1-.666-.667" clip-rule="evenodd"/>
</svg>
