<svg fill="none" viewBox="0 0 24 24" xmlns="http://www.w3.org/2000/svg">
  <path fill="url(#Fire-Color-24_svg__a)" d="M5.082 10.514c1.821-3.096 4.287-5.097 5.304-7.889 2.954 2.463 1.118 7.076 3.991 7.31 2.873.233 2.235-3.496 2.235-3.496 2.06 2.365 3.323 5.303 3.496 7.944.248 3.802-2.136 6.992-8.125 6.992-6.523 0-10.143-5.35-6.9-10.861Z"/>
  <path fill="#FC3" d="M11.954 12.794c1.146 2.066 3.062 3.178 3.062 5.085s-.85 3.337-3.033 3.337c-2.048 0-3.033-1.43-3.033-3.337 0-1.907 1.756-3.019 3.004-5.085Z"/>
  <path fill="#FC3" fill-rule="evenodd" d="M11.965 12.17a.625.625 0 0 1 .535.321c.402.723.89 1.304 1.39 1.896.17.203.342.407.512.618.637.793 1.239 1.693 1.239 2.874 0 1.033-.229 2.03-.838 2.778-.628.771-1.582 1.184-2.82 1.184-1.181 0-2.125-.42-2.763-1.175-.624-.74-.895-1.734-.895-2.787 0-1.166.545-2.059 1.163-2.863.204-.266.411-.518.619-.77.45-.547.9-1.093 1.312-1.775a.625.625 0 0 1 .546-.302Zm-1.486 3.607c-.572.745-.904 1.361-.904 2.102 0 .854.22 1.53.601 1.98.367.436.94.732 1.807.732.945 0 1.508-.302 1.85-.723.361-.443.558-1.115.558-1.989 0-.726-.356-1.335-.964-2.091-.134-.168-.283-.344-.439-.529-.333-.395-.703-.833-1.048-1.32-.314.43-.637.823-.933 1.182-.191.233-.37.452-.528.656Z" clip-rule="evenodd"/>
  <path fill="url(#Fire-Color-24_svg__b)" fill-rule="evenodd" d="M14.427 2.01c.34-.06.665.166.725.506.04.226.079.357.13.45.04.072.1.14.239.206a.625.625 0 0 1-.531 1.131 1.72 1.72 0 0 1-.799-.727c-.159-.285-.225-.591-.27-.842a.625.625 0 0 1 .506-.724Zm-4.203.012a.625.625 0 0 1 .563.123c1.61 1.343 1.952 3.25 2.207 4.68l.033.18c.139.769.258 1.336.477 1.733.101.184.214.31.344.396.129.086.309.155.58.177.574.047.892-.104 1.087-.284.215-.198.362-.504.447-.888.084-.379.094-.778.08-1.094A5.182 5.182 0 0 0 16 6.57l-.002-.016-.002-.008v-.003a.625.625 0 0 1 1.087-.516c2.137 2.455 3.466 5.518 3.648 8.315.134 2.044-.44 3.985-1.912 5.41C17.354 21.174 15.083 22 11.983 22c-3.43 0-6.184-1.41-7.636-3.648-1.462-2.252-1.528-5.224.197-8.155C5.336 8.85 6.249 7.7 7.09 6.643c.154-.194.306-.385.454-.574.97-1.233 1.783-2.364 2.255-3.658a.625.625 0 0 1 .425-.39Zm6.991 6.223c-.01.055-.02.11-.033.164-.114.52-.346 1.102-.82 1.538-.493.453-1.173.68-2.035.61a2.432 2.432 0 0 1-1.171-.382 2.327 2.327 0 0 1-.747-.833c-.336-.61-.482-1.394-.612-2.115l-.013-.069c-.222-1.229-.442-2.448-1.192-3.423-.547 1.12-1.292 2.122-2.065 3.107l-.47.593c-.84 1.058-1.692 2.13-2.436 3.396-1.518 2.58-1.395 5.04-.226 6.84.751 1.158 1.966 2.091 3.55 2.616-.43-.685-.62-1.525-.62-2.408 0-1.165.545-2.059 1.163-2.863.204-.265.411-.518.619-.77.45-.546.9-1.093 1.312-1.775a.625.625 0 0 1 1.081.02c.402.724.89 1.304 1.39 1.896.17.203.342.407.512.618.637.793 1.239 1.693 1.239 2.874 0 .924-.183 1.818-.656 2.532 1.293-.33 2.265-.878 2.964-1.555 1.156-1.12 1.65-2.674 1.535-4.432-.13-1.999-.93-4.207-2.269-6.179Zm-6.736 7.532c-.572.745-.904 1.361-.904 2.102 0 .854.22 1.53.601 1.981.367.436.94.731 1.807.731.945 0 1.508-.302 1.85-.723.361-.443.558-1.115.558-1.989 0-.726-.356-1.335-.964-2.091-.134-.168-.283-.343-.439-.529a19.702 19.702 0 0 1-1.048-1.32c-.314.43-.637.823-.932 1.182-.192.234-.372.452-.529.656Z" clip-rule="evenodd"/>
  <defs>
    <linearGradient id="Fire-Color-24_svg__a" x1="12.086" x2="13.979" y1="6.375" y2="19.752" gradientUnits="userSpaceOnUse">
      <stop stop-color="#FA8B38"/>
      <stop offset=".52" stop-color="#E72A57"/>
      <stop offset="1" stop-color="#CC165B"/>
    </linearGradient>
    <linearGradient id="Fire-Color-24_svg__b" x1="12" x2="12" y1="2" y2="22" gradientUnits="userSpaceOnUse">
      <stop stop-color="#DE5833"/>
      <stop offset="1" stop-color="#9A3216"/>
    </linearGradient>
  </defs>
</svg>
