<svg fill="none" viewBox="0 0 24 24" xmlns="http://www.w3.org/2000/svg">
  <path fill="#FFE8A3" d="M3.75 10.417 12 2.834l8.25 7.583v8.334a2.5 2.5 0 0 1-2.5 2.5H6.25a2.5 2.5 0 0 1-2.5-2.5v-8.334Z"/>
  <path fill="#C18010" fill-rule="evenodd" d="M4.5 10.416v8.333c0 .967.784 1.75 1.75 1.75h11.5a1.75 1.75 0 0 0 1.75-1.75v-8.333H21v8.333A3.25 3.25 0 0 1 17.75 22H6.25A3.25 3.25 0 0 1 3 18.75v-8.333h1.5Z" clip-rule="evenodd"/>
  <path fill="#8FABF9" d="M9 9a2 2 0 0 1 2-2h2a2 2 0 0 1 2 2v2a2 2 0 0 1-2 2h-2a2 2 0 0 1-2-2z"/>
  <path fill="#fff" fill-rule="evenodd" d="M13 8.5h-2a.5.5 0 0 0-.5.5v2a.5.5 0 0 0 .5.5h2a.5.5 0 0 0 .5-.5V9a.5.5 0 0 0-.5-.5M11 7a2 2 0 0 0-2 2v2a2 2 0 0 0 2 2h2a2 2 0 0 0 2-2V9a2 2 0 0 0-2-2z" clip-rule="evenodd"/>
  <path fill="#92540C" d="M9 16a2 2 0 0 1 2-2h2a2 2 0 0 1 2 2v6H9z"/>
  <path fill="#5A2807" fill-rule="evenodd" d="M13 15.5h-2a.5.5 0 0 0-.5.5v4.5h3V16a.5.5 0 0 0-.5-.5M11 14a2 2 0 0 0-2 2v6h6v-6a2 2 0 0 0-2-2z" clip-rule="evenodd"/>
  <path fill="#5A2807" d="M10 18h4v1h-4z"/>
  <path fill="#551605" fill-rule="evenodd" d="M12.173 3.581a.25.25 0 0 0-.346 0l-8.558 8.211a.75.75 0 0 1-1.038-1.082l8.557-8.211a1.75 1.75 0 0 1 2.424 0l8.557 8.21a.75.75 0 1 1-1.038 1.083l-8.558-8.21Z" clip-rule="evenodd"/>
</svg>
