<svg xmlns="http://www.w3.org/2000/svg" width="275" height="361" fill="none"><g clip-path="url(#a)"><path fill="#288419" d="m-6.495 404.96 18.472-36.399a30.32 30.32 0 0 1 10.269-11.57 29.714 29.714 0 0 1 14.556-4.911l19.253-1.217a29.696 29.696 0 0 0 11.914-3.344 30.148 30.148 0 0 0 9.58-7.933l11.794-15.979a30.111 30.111 0 0 1 11.786-8.973 29.65 29.65 0 0 1 14.57-2.21 29.613 29.613 0 0 0 13.546-1.79 30.005 30.005 0 0 0 11.364-7.699l6.299-6.058a30.082 30.082 0 0 1 9.977-7.124 29.69 29.69 0 0 1 11.942-2.514h61.236c.901.001 1.79.212 2.598.618a5.886 5.886 0 0 1 2.06 1.722 6.042 6.042 0 0 1 1 5.179l-9.638 35.881a24.418 24.418 0 0 0 1.29 16.324l5.674 12.675a38.689 38.689 0 0 1 1.259 28.378l-5.843 16.944H-6.495Z"/><path fill="#96E38A" d="M229.058 276.838a21.98 21.98 0 0 0-13.704.785.82.82 0 0 1-.913-.202.846.846 0 0 1-.145-.936l4.637-10.054a.854.854 0 0 0-.153-.935.813.813 0 0 0-.914-.195 24.994 24.994 0 0 0-10.271 8.766.827.827 0 0 1-.739.36.817.817 0 0 1-.676-.47c-1.955-4.088-4.985-7.016-8.903-9.48a.822.822 0 0 0-.93.049.849.849 0 0 0-.307.893l5.936 22.241 11.902 1.013 15.458-10.313a.862.862 0 0 0 .132-1.282.833.833 0 0 0-.41-.24Z"/><path fill="#1A690D" d="M102.605 364.242a22.045 22.045 0 0 1 14.183 2.582.667.667 0 0 0 .958-.392.692.692 0 0 0 .008-.393l-3.679-11.317a.702.702 0 0 1 .236-.72.67.67 0 0 1 .745-.065 25.123 25.123 0 0 1 9.654 10.367.667.667 0 0 0 .566.369.653.653 0 0 0 .593-.322c2.497-4.041 6.013-6.67 10.434-8.695a.675.675 0 0 1 .946.483.697.697 0 0 1-.034.404l-10.001 15.062-10.434 5.886-14.507-12.002a.695.695 0 0 1-.246-.737.696.696 0 0 1 .578-.51Z"/><path fill="#96E38A" d="m48.92 342.236-1.414-12.149a.417.417 0 0 1 .206-.417.403.403 0 0 1 .459.04l.139.11a25.228 25.228 0 0 1 6.65 8.788 25.593 25.593 0 0 1 2.308 10.832v6.726h-8.889l-16.076-16.324a.979.979 0 0 1 .167-1.516.942.942 0 0 1 .552-.14c5.51.322 10.426 1.805 14.36 4.929a.95.95 0 0 0 1.44-.327.986.986 0 0 0 .098-.552Z"/><path fill="#217613" d="M168.827 287.104a29.674 29.674 0 0 0-11.943 2.514 30.079 30.079 0 0 0-9.977 7.123l-2.728 2.653a29.896 29.896 0 0 1-8.409 6.372 29.065 29.065 0 0 1-13.263 3.045h-4.266c-9.87 0-19.183 3.524-25.328 11.254L77.548 339.45a30.135 30.135 0 0 1-9.58 7.933 29.713 29.713 0 0 1-11.914 3.345l-19.268 1.216a29.745 29.745 0 0 0-14.559 4.912 30.356 30.356 0 0 0-10.274 11.569l-18.449 36.399h26.371l15.288-30.121a30.336 30.336 0 0 1 10.269-11.57 29.713 29.713 0 0 1 14.556-4.91l19.253-1.217a29.68 29.68 0 0 0 11.914-3.345 30.133 30.133 0 0 0 9.58-7.933l15.365-19.384a30.069 30.069 0 0 1 11.784-8.978 29.61 29.61 0 0 1 14.572-2.206l3.686.369a23.135 23.135 0 0 0 10.232-1.266 23.428 23.428 0 0 0 8.712-5.593l12.428-12.212a31.428 31.428 0 0 1 10.205-6.923 31.016 31.016 0 0 1 12.039-2.431h-30.931Z"/><path fill="#92540C" d="m234.646 363.16-4.854-10.917-1.832-4.097-.595-1.318a24.468 24.468 0 0 1-1.29-16.324l.378-1.397 9.097-33.88.162-.604a6.004 6.004 0 0 0 .049-2.912 5.932 5.932 0 0 0-1.324-2.582l-28.434 17.321a24.228 24.228 0 0 0-9.909 11.819l-12.552 31.855a12.62 12.62 0 0 0-.628 7.133 12.497 12.497 0 0 0 3.349 6.303l7.458 7.581a12.518 12.518 0 0 1 3.27 5.948c.524 2.253.42 4.609-.302 6.805l-6.871 20.931h38.645l7.149-20.735a28.514 28.514 0 0 0-.966-20.93Z"/><path fill="#A96A0E" d="m233.564 302.643-18.441 10.932c-5.346 3.168-9.342 8.239-11.215 14.228l-5.542 17.666a15.4 15.4 0 0 0-.477 7.221 15.272 15.272 0 0 0 2.873 6.623l6.292 8.304a15.247 15.247 0 0 1 2.785 6.154 15.383 15.383 0 0 1-.134 6.771l-5.975 24.282h24.733l6.956-20.279a29.732 29.732 0 0 0-.967-21.833l-6.345-14.166a29.838 29.838 0 0 1-1.546-19.864l7.003-26.039Z"/><path fill="#1A690D" d="M154.265 356.167h-1.515c-.853 0-1.545.703-1.545 1.57v1.538c0 .867.692 1.569 1.545 1.569h1.515c.854 0 1.546-.702 1.546-1.569v-1.538c0-.867-.692-1.57-1.546-1.57ZM180.513 312.218h-1.515c-.854 0-1.546.703-1.546 1.569v1.539c0 .866.692 1.569 1.546 1.569h1.515c.853 0 1.546-.703 1.546-1.569v-1.539c0-.866-.693-1.569-1.546-1.569Z"/><path fill="#92540C" d="M216.096 324.774h-1.515c-.853 0-1.545.703-1.545 1.57v1.538c0 .867.692 1.57 1.545 1.57h1.515c.854 0 1.546-.703 1.546-1.57v-1.538c0-.867-.692-1.57-1.546-1.57Z"/><path fill="#C18010" d="M210.942 345.18h-2.025c-1.14 0-2.064.938-2.064 2.095v2.056c0 1.158.924 2.096 2.064 2.096h2.025c1.139 0 2.063-.938 2.063-2.096v-2.056c0-1.157-.924-2.095-2.063-2.095Z"/><path fill="#399F29" d="M135.167 335.896h-2.025c-1.14 0-2.064.939-2.064 2.096v2.056c0 1.157.924 2.096 2.064 2.096h2.025c1.139 0 2.063-.939 2.063-2.096v-2.056c0-1.157-.924-2.096-2.063-2.096Z"/><path fill="#C18010" d="M110.729 205.538v.008l-6.546-33.927 6.546 33.919Z"/><path fill="#4CBA3C" d="M183.426 7.004c-2.937 1.177-5.874 2.04-8.889 2.747-10.124 2.354-20.481 2.433-30.915 2.511-12.444.079-24.964.157-36.867 4.238-1.7.55-2.782 2.119-2.55 3.689l6.26 48.736c.309 2.119 2.705 3.453 5.101 2.668 11.439-3.531 23.341-3.61 35.244-3.688 10.434-.079 20.79-.157 30.915-2.512 3.015-.706 5.952-1.57 8.889-2.746l-7.188-55.643Z"/><path fill="#399F29" d="M183.426 7.004c-1.855.706-3.633 1.334-5.488 1.883l7.111 55.643c1.855-.55 3.709-1.099 5.487-1.883l-7.11-55.643Z"/><path fill="#330B01" d="m216.738 249.822 1.314-.157a2.188 2.188 0 0 0 1.855-2.433l-31.38-245.33c-.154-1.177-1.236-2.04-2.396-1.884l-1.314.157a2.187 2.187 0 0 0-1.854 2.433l31.456 245.252c.077 1.256 1.159 2.119 2.319 1.962Z"/><path fill="#F2A18A" d="m164.953 151.642-6.106-12.949 8.657-4.316c6.724-3.375 12.829-7.77 18.008-13.264.464-.471.927-1.02 1.391-1.491l5.178-5.807a4.991 4.991 0 0 0 1.314-3.375l.078-3.218c0-1.02.618-1.883 1.545-2.276.464-.157.928.079 1.005.55l.077.392c.387 1.648 2.165 2.668 3.788 2.119 1.236-.392 1.932-1.648 1.777-2.904l-.386-2.982 3.014 2.198a5.036 5.036 0 0 1 2.01 4.473l-.387 5.337c-.154 2.354-1.7 4.473-3.864 5.336l-2.551 1.021a5.137 5.137 0 0 0-2.241 1.805l-3.092 4.708c-.077.079-.077.157-.154.157-5.642 8.476-13.217 15.461-21.95 20.484l-7.111 4.002ZM155.909 113.972l.619.785c.541.706.309 1.805-.464 2.197l-.541.314c-.387.236-.696.707-.619 1.177l.078.864c.541 4.552-2.937 8.554-7.42 8.554-1.159 0-2.164 1.02-2.087 2.198l1.005 9.888h-11.361l-2.165-30.843c-.231-4.081 2.783-7.612 6.802-7.848l5.255-.314c4.02-.235 7.42 2.59 8.27 6.514.078.393.232 1.099.387 1.727.232.785.464 1.569.773 2.276.463.942.927 1.726 1.468 2.511Z"/><path fill="#330B01" d="m152.355 97.177 1.932-3.218c.464-.785-.155-1.805-1.082-1.726l-9.197.863c-1.701.157-3.478.157-5.179-.078l-2.319-.236c-4.173-.47-8.347.863-11.516 3.61l-2.55 2.198c-.773.627-.85 1.805-.309 2.59l.386.47c.232.314.309.785.077 1.178-1.082 2.119-1.623 4.552-1.468 7.141l.077 1.099c.078 1.805.541 3.453 1.237 4.944a30.173 30.173 0 0 1 2.705 10.674l8.425-.55c2.859-.157 5.487-1.491 7.419-3.688.773-1.02 1.546-1.962 2.242-2.982.541-.707.541-1.884-.155-2.512a4.44 4.44 0 0 1-.927-1.413c-.232-.627-.232-1.255-.31-1.255-.077-1.648.696-3.139 2.01-4.003.927-.549 2.087.079 2.164 1.178l.077 1.098c0 .393.387.707.773.707 1.16-.079 2.087-1.099 2.01-2.276l-.155-2.198c-.077-1.805 1.237-3.374 3.014-3.453l2.319-.157c1.314-.078 2.473-1.177 2.551-2.511l.077-1.099c.077-1.02-.618-1.962-1.546-2.198l-2.164-.549c-.696-.157-1.005-1.02-.618-1.648ZM123.68 282.471l3.556 11.144c.927 2.982 3.632 4.866 6.956 4.866h3.941c3.787 0 6.57 2.59 6.879 6.278l.077 1.57c.078 1.412-1.236 2.825-2.627 2.825h-24.965c-2.009 0-3.478-1.57-3.323-3.61l1.7-23.073h7.806ZM175.232 261.516l.927 10.673c.232 2.904 2.396 4.709 5.565 4.709h3.787c3.633 0 5.72 2.511 5.179 6.043l-.232 1.491c-.232 1.413-1.778 2.747-3.169 2.747h-22.878c-1.932 0-3.014-1.491-2.396-3.453l5.643-22.132h7.574v-.078Z"/><path fill="#3969EF" d="m140.143 224.395 4.483-2.276c2.473-1.256 5.41-1.256 7.961 0l14.994 7.691c1.313.863 2.009 2.354 1.777 3.924l-7.497 32.726c-.232 1.57 1.005 2.982 2.628 2.982h13.139c1.159 0 2.164-.706 2.473-1.805l7.42-34.688c1.314-6.121.232-12.478-4.483-16.481-7.188-6.121-28.983-24.015-28.983-24.015l-37.64 10.752-.309 1.727c-1.005 5.022-1.082 10.124-.309 15.146l3.478 22.681c.464 2.904.464 5.886.077 8.79l-7.265 32.962c-.232 1.569 1.005 3.06 2.628 3.06h13.139a2.579 2.579 0 0 0 2.473-1.883s4.947-20.876 6.724-27.861c1.314-5.258 1.546-10.751 1.933-16.088-.155 0 1.159-17.344 1.159-17.344Z"/><path fill="#C18010" d="m113.943 205.638-6.57-33.904 6.57 33.904ZM170.518 147.17l-6.956-12.243-6.261 1.334c-4.791.863-9.583 1.177-14.453.863-5.564-.314-11.129 0-16.617 1.099l-14.298 3.061c-5.565 1.648-8.966 7.298-7.806 13.027l2.782 14.284.618 3.061 6.57 33.903c.154 1.02.696 1.962 1.623 2.512 1.778 1.098 3.942 1.569 6.029 1.255 6.492-1.02 14.143-2.59 22.413-6.043 3.169-1.334 11.362-6.278 12.212-7.769l.232-.471c.386-.706.541-1.491.386-2.276 0 0-4.405-20.484-6.492-30.451-.618-2.982 1.082-6.043 3.942-6.984l15.148-5.102c1.082-.392 1.623-1.883.928-3.06Z"/><path fill="#5A2807" d="m155.446 187.98-21.872 4.551-1.855-9.26 22.259-4.631c.85-.157 1.7.314 2.009 1.099l1.701 4.081c.695 1.727-.387 3.767-2.242 4.16ZM138.212 167.339l.386-.314c3.942-2.825 5.874-7.691 5.024-12.478l-1.546-8.162c-.85-4.63 2.396-8.947 7.033-9.261l-.463-.628c-1.701-2.276-4.406-3.688-7.188-3.767-4.56-.157-8.348 3.689-7.961 8.398l1.855 26.369 2.86-.157Z"/><path fill="#5A2807" d="m136.602 138.705-8.635.618.408 5.872 8.635-.619-.408-5.871Z"/><path fill="#92540C" d="m103.123 195.671-10.666-36.179c-2.396-8.084 3.246-16.324 11.516-16.952l25.583-1.805c4.791-.314 8.888 3.296 9.274 8.162l2.86 40.967c.309 4.865-3.246 9.025-8.038 9.417l-23.032 1.648c-3.401.157-6.492-1.962-7.497-5.258Z"/><path fill="#763E0A" d="m129.013 193.788-10.666-36.18c-2.396-8.005 3.091-16.167 11.284-16.952h-.155l-25.582 1.805c-8.27.628-13.912 8.869-11.516 16.952l10.666 36.18c1.004 3.296 4.019 5.415 7.419 5.179l23.033-1.648c.541 0 1.004-.157 1.468-.235-2.705-.236-5.101-2.276-5.951-5.101Z"/><path fill="#9A3216" d="M109.992 214.096c3.193-.229 5.577-3.358 5.325-6.99-.252-3.632-3.046-6.39-6.239-6.162-3.193.229-5.578 3.359-5.325 6.99.252 3.632 3.045 6.391 6.239 6.162Z"/><path fill="#9A3216" d="m136.483 199.019-27.369 1.96.914 13.152 27.369-1.96-.914-13.152Z"/><path fill="#BC4726" d="M137.428 212.128c3.194-.228 5.578-3.358 5.326-6.99-.253-3.632-3.046-6.39-6.239-6.162-3.194.229-5.578 3.359-5.326 6.991.252 3.631 3.046 6.39 6.239 6.161Z"/><path fill="#9A3216" d="M137.2 208.84c1.575-.113 2.75-1.676 2.624-3.492-.126-1.816-1.505-3.196-3.081-3.084-1.575.113-2.75 1.677-2.624 3.493.126 1.816 1.506 3.196 3.081 3.083Z"/><path fill="#5A2807" d="m95.084 168.203 22.104-1.57c1.933-.157 3.169-2.041 2.628-3.924l-1.468-5.023c-2.396-8.005 3.091-16.167 11.284-16.952h-.155l-27.901 1.962c-8.27.628-13.912 8.869-11.516 16.952l1.855 6.279a3.1 3.1 0 0 0 3.169 2.276Z"/><path fill="#9A3216" d="M95.47 125.98c-4.096.314-7.188 4.316-6.878 9.104.309 4.708 3.941 8.318 8.038 8.005l35.475-2.512-1.159-17.03-35.476 2.433Z"/><path fill="#BC4726" d="M132.158 140.553c4.131-.296 7.213-4.356 6.886-9.069-.327-4.712-3.941-8.293-8.071-7.997-4.13.296-7.213 4.356-6.886 9.068.328 4.713 3.941 8.294 8.071 7.998Z"/><path fill="#9A3216" d="M131.859 136.247c2.043-.146 3.569-2.157 3.407-4.492-.163-2.335-1.951-4.109-3.995-3.962-2.043.146-3.569 2.157-3.407 4.492.163 2.335 1.951 4.109 3.995 3.962Z"/><path fill="#5A2807" d="M101.576 134.142c-.309-4.709 2.783-8.79 6.879-9.104l-7.188.549c-4.096.314-7.188 4.317-6.879 9.104.31 4.709 3.942 8.319 8.039 8.005l7.187-.549c-4.096.314-7.728-3.296-8.038-8.005Z"/><path fill="#5A2807" d="M115.951 133.121c-.309-4.709 2.783-8.789 6.879-9.103l-7.188.549c-4.096.314-7.188 4.316-6.879 9.104.31 4.709 3.942 8.319 8.039 8.005l7.187-.55c-4.096.314-7.651-3.296-8.038-8.005ZM125.381 206.423c-.232-3.61 2.086-6.749 5.333-6.985l-5.565.393c-3.169.235-5.565 3.375-5.333 6.985.232 3.61 3.014 6.435 6.183 6.2l5.565-.393c-3.092.157-5.874-2.59-6.183-6.2ZM113.865 207.207c-.231-3.61 2.087-6.749 5.333-6.984l-5.564.392c-3.169.236-5.565 3.375-5.333 6.985.232 3.61 3.014 6.435 6.183 6.2l5.565-.393c-3.092.236-5.874-2.511-6.184-6.2Z"/><path fill="#CCDAFF" d="m140.606 162.159-.387-.785-4.637.314 1.237 17.972 3.71-.235c2.086-.157 3.632-1.962 3.478-4.081l-.541-8.476c-.078-.942-.464-1.805-1.16-2.433-.695-.707-1.314-1.413-1.7-2.276Z"/><path fill="#ADC2FC" d="m136.587 175.893-.618-8.555a3.7 3.7 0 0 1 1.082-2.904c.464-.47.773-1.098 1.005-1.726l.386-1.256-3.71.236-.386 1.255c-.232.628-.541 1.256-1.005 1.727-.696.706-1.159 1.805-1.082 2.904l.618 8.554c.155 2.119 1.932 3.689 4.019 3.532l2.783-.236v-.157c-1.701-.235-3.015-1.569-3.092-3.374Z"/><path fill="#92540C" d="m136.278 172.127.85 12.321c.155 2.669 2.164 4.709 4.637 5.18 2.319-.785 3.942-3.139 3.788-5.808l-.851-12.321-8.424.628Z"/><path fill="#763E0A" d="m137.205 184.448-.85-12.321-4.637.314.85 12.321c.232 3.14 2.86 5.494 5.951 5.259l1.855-.079c.464 0 1.005-.157 1.391-.314-2.473-.471-4.405-2.511-4.56-5.18Z"/><path fill="#330B01" d="m139.989 159.491-5.333.393c-.619.078-1.082.549-1.005 1.177l.077.628c.078.628.541 1.098 1.16 1.02l5.333-.392c.618-.079 1.082-.55 1.004-1.178l-.077-.628c-.077-.627-.541-1.02-1.159-1.02Z"/><path fill="#5A2807" d="m102.117 178.013 15.613-1.099c.618-.078 1.082-.706.85-1.334l-.309-1.02c-.155-.471-.541-.706-1.005-.706l-14.762 1.098c-.619.079-1.082.707-.85 1.334l.463 1.727Z"/><path fill="#330B01" d="M104.899 181.859h-.154c-.773.078-1.624-.55-1.855-1.334l-.773-2.59 2.937-.236.773 2.59c.309.863-.155 1.57-.928 1.57Z"/><path fill="#5A2807" d="m121.904 185.704-16.077 1.177c-.463 0-.85-.235-1.004-.706l-.309-1.02c-.155-.628.231-1.256.85-1.335l14.762-1.098c.464 0 .85.235 1.005.706l.773 2.276Z"/><path fill="#330B01" d="M121.517 189.785h.154c.773-.078 1.237-.706 1.005-1.491l-.773-2.59-2.937.236.773 2.589c.232.707 1.005 1.335 1.778 1.256ZM102.812 160.354c1.58 0 2.86-1.3 2.86-2.903 0-1.604-1.28-2.904-2.86-2.904-1.579 0-2.86 1.3-2.86 2.904 0 1.603 1.281 2.903 2.86 2.903Z"/><path fill="#557FF3" d="m132.801 233.577-.618 10.752c-.31 6.356-1.314 12.556-2.86 18.678l-6.261 24.486h4.638a2.58 2.58 0 0 0 2.473-1.884s4.947-20.875 6.724-27.86c1.314-5.258 1.546-10.752 1.932-16.089l1.314-17.265-4.173 3.139c-1.855 1.412-3.092 3.61-3.169 6.043ZM183.116 216.546c-4.174-3.531-13.449-11.144-20.327-16.873a38.902 38.902 0 0 1-2.628 1.962c-1.778 1.256-1.855 3.924-.155 5.337l19.322 15.853c2.242 1.883 3.324 4.787 2.706 7.691l-7.884 39.083h3.633c1.159 0 2.164-.706 2.473-1.805l7.42-34.688c1.236-6.2.154-12.557-4.56-16.56Z"/><path fill="#92540C" d="m163.562 134.927-3.865.863c3.015 5.258 4.947 10.595 5.72 15.618 0 .078 0 .157.077.157l6.338-2.119-8.27-14.519Z" opacity=".5"/><path fill="#C18010" d="M163.716 132.572c.696-.157 1.469-.314 2.164-.471a2.747 2.747 0 0 1 1.778.157c.464.157.927.471 1.236.863 3.556 4.238 6.261 8.555 8.116 12.871.309.707.232 1.491-.077 2.119-.232.55-.696.942-1.237 1.177-1.237.471-2.473 1.021-3.71 1.492a1.892 1.892 0 0 1-1.314 0c-.541-.236-1.005-.707-1.159-1.256-1.314-4.63-3.633-9.496-6.956-14.205-.309-.393-.387-.942-.309-1.491.231-.628.772-1.177 1.468-1.256Z"/><path fill="#622F06" d="m155.137 99.374-2.164-.549c-.696-.157-1.082-1.02-.696-1.648l1.933-3.218c.463-.785-.155-1.805-1.083-1.726l-6.801.628c.155.314.155.706 0 1.098l-1.932 3.218c-.387.628 0 1.491.695 1.648l2.165.55c1.004.235 1.623 1.177 1.545 2.197-.077.706.232 1.334.773 1.805l2.164 1.962 2.319-.157c1.314-.078 2.473-1.177 2.551-2.511l.077-1.099c.154-1.02-.541-1.962-1.546-2.198Z"/><path fill="#5A2807" d="M114.174 305.857c0 1.884 1.392 3.297 3.324 3.297h25.041c1.469 0 2.783-1.413 2.628-2.826v-.471h-30.993ZM162.171 283.411l-.078.236c-.618 1.962.387 3.453 2.396 3.453h22.8c1.392 0 2.937-1.334 3.169-2.747l.155-1.02h-28.442v.078Z"/><path fill="#399F29" fill-rule="evenodd" d="M164.644 27.8c-.077-.784-.154-1.49-.309-2.275-.155-1.413-1.082-2.59-2.241-3.218-1.16-.706-2.551-.785-3.865-.47-2.319.627-4.019.706-5.487.47-1.469-.235-2.937-.942-4.792-2.354-1.082-.864-2.474-1.177-3.787-1.02-1.314.156-2.551.863-3.401 1.962-1.391 1.805-2.628 2.903-3.942 3.531-1.314.628-3.014 1.02-5.487 1.02-1.314 0-2.628.55-3.633 1.491-.927.942-1.469 2.276-1.314 3.689.077.785.232 1.57.309 2.276v.157c1.16 9.104 3.246 14.833 6.647 18.757 3.555 4.16 8.27 5.807 13.139 7.534l.309.078.309.079c1.546.55 3.324.314 4.715-.628l.309-.157.309-.157c4.174-2.904 8.27-5.807 10.666-10.673 2.242-4.71 2.783-10.752 1.546-19.856v-.235Z" clip-rule="evenodd"/><path fill="#fff" d="M148.028 48.284c5.256-.706 9.043-5.65 8.347-10.987-.696-5.337-5.565-9.182-10.82-8.476-5.256.706-9.043 5.65-8.348 10.987.696 5.415 5.565 9.182 10.821 8.476Z"/><path fill="#399F29" d="m151.042 34.472-1.082-.863c-.386-.314-.927-.236-1.159.157l-4.019 5.258a.405.405 0 0 1-.618.078l-1.005-.784c-.387-.314-.928-.236-1.16.157l-.85 1.098a.616.616 0 0 0-.154.628c0 .236.154.392.309.55l3.169 2.432c.154.157.309.157.541.157.232 0 .463-.078.695-.314l5.565-7.377c.232-.392.155-.941-.232-1.177Z"/><path fill="#330B01" d="M141.998 120.094c-1.005 4.081.309 8.162 4.405 7.927.464 0 .928-.079 1.237-.079 4.637-.078 7.961-4.002 7.42-8.554l-.078-.863c-1.314.235-2.705.078-4.019-.471-1.082-.393-1.777-1.491-1.855-2.668l-.386-5.259-2.783-.078.155 3.688.077 1.884c0 1.256-1.004 2.354-2.241 2.433l-1.391.157-.541 1.883Z" opacity=".1"/></g><defs><clipPath id="a"><path fill="#fff" d="M0 0h275v370H0z"/></clipPath></defs></svg>