<svg fill="none" viewBox="0 0 24 24" xmlns="http://www.w3.org/2000/svg">
  <path fill="#FFE8A3" d="m19.34 8.916-5.626-5.3a2.5 2.5 0 0 0-3.428 0l-5.625 5.3a2.5 2.5 0 0 0-.786 1.82v6.42a4.219 4.219 0 0 0 4.219 4.219h7.812a4.219 4.219 0 0 0 4.219-4.219v-6.42a2.5 2.5 0 0 0-.785-1.82Z"/>
  <path fill="#FFD65C" d="M10.285 3.616a2.5 2.5 0 0 1 3.43 0l5.625 5.3a2.5 2.5 0 0 1 .785 1.82v3.125a2.5 2.5 0 0 0-.785-1.82l-5.625-5.3a2.5 2.5 0 0 0-3.43 0l-5.625 5.3a2.5 2.5 0 0 0-.785 1.82v-3.125a2.5 2.5 0 0 1 .785-1.82l5.625-5.3Z"/>
  <path fill="url(#Home-Color-24_svg__a)" d="M3 17V9.936a.625.625 0 1 1 1.25 0V17A3.75 3.75 0 0 0 8 20.75h8A3.75 3.75 0 0 0 19.75 17V9.936a.625.625 0 1 1 1.25 0V17a5 5 0 0 1-5 5H8a5 5 0 0 1-5-5Z"/>
  <path fill="#C18010" d="M8.875 12.938c0-.863.7-1.563 1.563-1.563h3.124c.863 0 1.563.7 1.563 1.563v6.874c0 .863-.7 1.563-1.563 1.563h-3.124c-.863 0-1.563-.7-1.563-1.563v-6.875Z"/>
  <path fill="#92540C" d="M14.5 12.938a.937.937 0 0 0-.938-.938h-3.124a.937.937 0 0 0-.938.938v6.874c0 .518.42.938.938.938h3.124c.518 0 .938-.42.938-.938v-6.875Zm1.25 6.874c0 1.209-.98 2.188-2.188 2.188h-3.124a2.188 2.188 0 0 1-2.188-2.188v-6.875c0-1.208.98-2.187 2.188-2.187h3.124c1.209 0 2.188.98 2.188 2.188v6.874Z"/>
  <path fill="#9A3216" d="M9.912 2.84a3.032 3.032 0 0 1 4.176 0l7.718 7.332.082.096a.625.625 0 0 1-.843.887l-.1-.077-7.718-7.332a1.781 1.781 0 0 0-2.454 0l-7.717 7.332a.625.625 0 0 1-.862-.906L9.912 2.84Z"/>
  <defs>
    <linearGradient id="Home-Color-24_svg__a" x1="11.971" x2="11.971" y1="10.411" y2="21.411" gradientUnits="userSpaceOnUse">
      <stop offset=".008" stop-color="#E2A412"/>
      <stop offset="1" stop-color="#C18010"/>
    </linearGradient>
  </defs>
</svg>
