<svg fill="none" viewBox="0 0 24 24" xmlns="http://www.w3.org/2000/svg">
  <path fill="url(#Shield-Color-24_svg__a)" d="M3.25 13.875v-7.5l1.875-1.25H8.25l3.75-2.5 3.75 2.5h3.125l1.875 1.25v7.5L17 19.5l-5 1.875L7 19.5l-3.75-5.625Z"/>
  <path fill="url(#Shield-Color-24_svg__b)" d="M20.75 13.875 17 19.5l-3.75 1.25H12V2.625l3.75 2.5h3.125l1.875 1.25v7.5Z"/>
  <path fill="url(#Shield-Color-24_svg__c)" d="M9.582 2.892a3.594 3.594 0 0 1 4.873.109l1.2 1.157.034.032c.36.325.862.442 1.33.308l.704-.203a3.281 3.281 0 0 1 4.186 3.06l.081 2.85a11.25 11.25 0 0 1-6.334 10.441l-.094.045-1.952.925a3.75 3.75 0 0 1-3.22-.004l-1.949-.93a11.25 11.25 0 0 1-6.403-10.42l.067-2.855A3.281 3.281 0 0 1 6.32 4.34l.52.154.045.013c.464.121.959-.002 1.312-.33l1.32-1.224.066-.06ZM13.587 3.9a2.344 2.344 0 0 0-3.221-.031l-1.32 1.224a2.656 2.656 0 0 1-2.562.599l-.52-.154a2.031 2.031 0 0 0-2.609 1.899l-.068 2.855a10 10 0 0 0 5.693 9.263l1.948.93a2.5 2.5 0 0 0 2.147.002l1.952-.925.167-.081a10 10 0 0 0 5.547-9.24l-.081-2.85a2.031 2.031 0 0 0-2.591-1.894l-.705.202a2.656 2.656 0 0 1-2.513-.58l-.065-.061L13.587 3.9Z"/>
  <defs>
    <linearGradient id="Shield-Color-24_svg__a" x1="12.005" x2="12.11" y1="3.25" y2="21.374" gradientUnits="userSpaceOnUse">
      <stop stop-color="#96E38A"/>
      <stop offset="1" stop-color="#399F29"/>
    </linearGradient>
    <linearGradient id="Shield-Color-24_svg__b" x1="16.375" x2="16.375" y1="2.625" y2="22" gradientUnits="userSpaceOnUse">
      <stop stop-color="#69CC5B"/>
      <stop offset="1" stop-color="#288419"/>
    </linearGradient>
    <linearGradient id="Shield-Color-24_svg__c" x1="12" x2="12" y1="3.25" y2="20.75" gradientUnits="userSpaceOnUse">
      <stop offset=".008" stop-color="#399F29"/>
      <stop offset="1" stop-color="#288419"/>
    </linearGradient>
  </defs>
</svg>
