<svg xmlns="http://www.w3.org/2000/svg" width="36" height="36" fill="none"><path fill="#000" d="M34.859 19.434c0 2.131-.436 4.242-1.283 6.212a16.208 16.208 0 0 1-3.655 5.266 16.915 16.915 0 0 1-5.469 3.52 17.423 17.423 0 0 1-6.451 1.235c-2.214 0-4.406-.42-6.452-1.236a16.916 16.916 0 0 1-5.469-3.519 16.207 16.207 0 0 1-3.654-5.266 15.712 15.712 0 0 1-1.283-6.212c0-4.306 1.776-8.435 4.937-11.48C9.242 4.912 13.53 3.2 18 3.2c2.215 0 4.407.42 6.452 1.236a16.915 16.915 0 0 1 5.47 3.519 16.207 16.207 0 0 1 3.654 5.266 15.712 15.712 0 0 1 1.283 6.213Z" opacity=".53"/><path fill="url(#a)" stroke="#CDCDCD" stroke-linecap="round" stroke-linejoin="round" stroke-width=".22" d="M35.5 18A17.501 17.501 0 0 1 5.626 30.374 17.5 17.5 0 1 1 35.5 18Z"/><path fill="url(#b)" d="M34.128 18a16.129 16.129 0 1 1-32.257 0 16.129 16.129 0 0 1 32.257 0Z"/><path fill="#F4F2F3" d="M18 2.712a.235.235 0 0 0-.235.235V5.66a.235.235 0 1 0 .47 0V2.947A.235.235 0 0 0 18 2.712Zm-1.539.097a.235.235 0 0 0-.257.258l.119 1.135a.235.235 0 1 0 .467-.048l-.118-1.135a.235.235 0 0 0-.21-.21Zm3.088.001a.235.235 0 0 0-.21.21l-.12 1.134a.235.235 0 1 0 .467.05l.12-1.135a.235.235 0 0 0-.257-.259Zm-4.668.228a.235.235 0 0 0-.229.284l.562 2.654a.235.235 0 1 0 .46-.098l-.562-2.653a.234.234 0 0 0-.231-.187Zm6.248.003a.234.234 0 0 0-.232.186l-.563 2.653a.235.235 0 1 0 .46.098l.564-2.653a.235.235 0 0 0-.23-.284Zm-7.756.423a.235.235 0 0 0-.244.307l.353 1.085a.235.235 0 1 0 .447-.146l-.353-1.085a.235.235 0 0 0-.203-.161Zm9.255 0a.235.235 0 0 0-.203.162l-.353 1.085a.235.235 0 1 0 .448.145l.352-1.085a.235.235 0 0 0-.244-.307Zm-10.746.545a.235.235 0 0 0-.211.331l1.102 2.479a.235.235 0 1 0 .43-.191L12.1 4.149a.235.235 0 0 0-.22-.14Zm12.255.009a.235.235 0 0 0-.22.14l-1.105 2.476a.235.235 0 1 0 .43.192l1.105-2.477a.235.235 0 0 0-.21-.331Zm-13.64.724a.235.235 0 0 0-.22.352l.57.988a.235.235 0 1 0 .408-.235l-.57-.988a.235.235 0 0 0-.188-.117Zm15.005 0a.234.234 0 0 0-.187.117l-.57.988a.235.235 0 1 0 .407.235l.57-.988a.235.235 0 0 0-.22-.352ZM9.153 5.58a.236.236 0 0 0-.182.373l1.592 2.196a.235.235 0 1 0 .381-.276L9.351 5.677a.235.235 0 0 0-.198-.097Zm17.71.012a.234.234 0 0 0-.198.097l-1.596 2.193a.235.235 0 1 0 .38.277l1.596-2.193a.235.235 0 0 0-.182-.374Zm-18.911.996a.235.235 0 0 0-.187.392l.763.848a.235.235 0 1 0 .35-.315l-.764-.848a.234.234 0 0 0-.162-.077Zm20.097.001a.236.236 0 0 0-.162.078l-.763.848a.235.235 0 1 0 .35.315l.763-.848a.235.235 0 0 0-.188-.393ZM6.8 7.694a.235.235 0 0 0-.144.41l2.016 1.814a.235.235 0 1 0 .315-.349L6.97 7.754a.234.234 0 0 0-.17-.06Zm22.408.008a.234.234 0 0 0-.17.06L27.02 9.575a.235.235 0 1 0 .314.35l2.017-1.813a.235.235 0 0 0-.144-.41ZM5.842 8.925a.235.235 0 0 0-.146.425l.923.671a.235.235 0 1 0 .276-.38l-.923-.67a.235.235 0 0 0-.13-.046Zm24.321.009a.235.235 0 0 0-.13.045l-.923.67a.235.235 0 1 0 .276.38l.924-.67a.235.235 0 0 0-.147-.425ZM4.947 10.239a.235.235 0 0 0-.101.438l2.35 1.356a.235.235 0 1 0 .235-.407L5.08 10.27a.235.235 0 0 0-.134-.031Zm26.105 0a.233.233 0 0 0-.134.031l-2.35 1.356a.235.235 0 1 0 .236.407l2.35-1.356a.235.235 0 0 0-.102-.438Zm-26.781 1.4a.235.235 0 0 0-.1.45l1.041.465a.235.235 0 1 0 .192-.43l-1.042-.465a.234.234 0 0 0-.091-.02Zm27.462.01a.236.236 0 0 0-.091.02l-1.043.464a.235.235 0 1 0 .192.43l1.042-.464a.235.235 0 0 0-.1-.45ZM3.668 13.101a.235.235 0 0 0-.053.458l2.579.84a.235.235 0 1 0 .146-.447l-2.58-.84a.235.235 0 0 0-.092-.01Zm28.667.01a.227.227 0 0 0-.093.011l-2.58.838a.235.235 0 1 0 .146.448l2.58-.839a.235.235 0 0 0-.053-.458ZM3.292 14.638a.235.235 0 0 0-.05.465l1.116.238a.235.235 0 1 0 .097-.46l-1.116-.238a.235.235 0 0 0-.047-.005Zm29.416.002a.287.287 0 0 0-.048.005l-1.116.238a.235.235 0 1 0 .098.46l1.116-.238a.235.235 0 0 0-.05-.465Zm-29.7 1.543a.235.235 0 0 0-.002.468l2.697.285a.235.235 0 1 0 .05-.467l-2.698-.286a.238.238 0 0 0-.047 0Zm29.986.02a.212.212 0 0 0-.048 0l-2.697.282a.235.235 0 1 0 .049.468l2.697-.282a.235.235 0 0 0 0-.468ZM2.962 17.765a.235.235 0 1 0 0 .47h1.14a.235.235 0 1 0 0-.47h-1.14Zm28.934 0a.235.235 0 1 0 0 .47h1.141a.235.235 0 1 0 0-.47h-1.14ZM5.75 19.047a.212.212 0 0 0-.048 0l-2.698.281a.235.235 0 1 0 .049.468l2.698-.281a.235.235 0 0 0-.001-.468Zm24.498.016a.235.235 0 0 0-.002.468l2.698.286a.235.235 0 1 0 .05-.468l-2.698-.285a.248.248 0 0 0-.048 0ZM4.405 20.652a.25.25 0 0 0-.048.005l-1.116.237a.235.235 0 1 0 .098.46l1.116-.237a.235.235 0 0 0-.05-.465Zm27.19.002a.235.235 0 0 0-.05.465l1.115.238a.235.235 0 1 0 .098-.46l-1.116-.238a.235.235 0 0 0-.048-.005Zm-25.31.926a.227.227 0 0 0-.094.011l-2.58.839a.235.235 0 1 0 .146.447l2.58-.839a.235.235 0 0 0-.053-.458Zm23.428.009a.235.235 0 0 0-.053.458l2.579.84a.235.235 0 1 0 .146-.447l-2.58-.84a.235.235 0 0 0-.092-.011ZM5.3 23.417a.232.232 0 0 0-.091.02l-1.043.464a.235.235 0 1 0 .191.43l1.043-.464a.235.235 0 0 0-.1-.45Zm25.396.009a.235.235 0 0 0-.1.45l1.041.465a.235.235 0 1 0 .192-.43l-1.042-.465a.234.234 0 0 0-.091-.02Zm-23.367.51a.233.233 0 0 0-.134.03l-2.349 1.357a.235.235 0 1 0 .235.407l2.35-1.356a.235.235 0 0 0-.102-.439Zm21.341 0a.235.235 0 0 0-.101.438l2.349 1.356a.235.235 0 1 0 .235-.407l-2.349-1.357a.234.234 0 0 0-.134-.03Zm-21.927 1.99a.235.235 0 0 0-.13.045l-.923.67a.235.235 0 1 0 .276.38l.924-.67a.235.235 0 0 0-.147-.425Zm22.507.008a.235.235 0 0 0-.146.426l.923.67a.235.235 0 1 0 .276-.38l-.923-.671a.235.235 0 0 0-.13-.046Zm-20.415.08a.233.233 0 0 0-.17.06l-2.017 1.814a.235.235 0 1 0 .314.35l2.018-1.813a.235.235 0 0 0-.145-.41Zm18.324.007a.235.235 0 0 0-.145.41l2.016 1.815a.235.235 0 1 0 .314-.35l-2.016-1.815a.234.234 0 0 0-.17-.06Zm-16.41 1.723a.234.234 0 0 0-.199.097l-1.596 2.193a.235.235 0 1 0 .38.277l1.596-2.194a.235.235 0 0 0-.181-.373Zm14.489.01a.234.234 0 0 0-.183.373l1.593 2.195a.235.235 0 1 0 .38-.276l-1.592-2.195a.234.234 0 0 0-.198-.097Zm-16.55.338a.235.235 0 0 0-.162.078l-.763.848a.235.235 0 1 0 .35.315l.763-.848a.235.235 0 0 0-.187-.393Zm18.621.002a.235.235 0 0 0-.187.392l.763.848a.234.234 0 0 0 .332.017.235.235 0 0 0 .018-.332l-.763-.848a.234.234 0 0 0-.163-.078Zm-14.332.94a.234.234 0 0 0-.22.14l-1.105 2.477a.235.235 0 1 0 .43.192l1.105-2.478a.235.235 0 0 0-.21-.33Zm10.03.007a.235.235 0 0 0-.21.33l1.102 2.48a.235.235 0 1 0 .43-.192l-1.102-2.478a.235.235 0 0 0-.22-.14Zm-11.972.759a.234.234 0 0 0-.187.117l-.57.988a.235.235 0 1 0 .406.235l.571-.988a.235.235 0 0 0-.22-.352Zm13.93 0a.235.235 0 0 0-.22.352l.57.988a.235.235 0 1 0 .407-.235l-.57-.988a.235.235 0 0 0-.188-.117Zm-9.528.035a.234.234 0 0 0-.231.187l-.564 2.653a.235.235 0 1 0 .46.098l.563-2.654a.235.235 0 0 0-.228-.284Zm5.117.002a.235.235 0 0 0-.229.284l.562 2.653a.235.235 0 1 0 .46-.097l-.562-2.654a.235.235 0 0 0-.23-.186ZM18 30.105a.235.235 0 0 0-.235.235v2.712a.235.235 0 1 0 .47 0V30.34a.235.235 0 0 0-.235-.235Zm-4.317.876a.235.235 0 0 0-.203.162l-.353 1.085a.235.235 0 1 0 .447.145l.353-1.085a.235.235 0 0 0-.244-.307Zm8.631 0a.235.235 0 0 0-.244.307l.353 1.086a.235.235 0 1 0 .447-.145l-.352-1.085a.235.235 0 0 0-.204-.162Zm-5.79.605a.235.235 0 0 0-.211.21l-.12 1.134a.235.235 0 1 0 .468.05l.12-1.135a.235.235 0 0 0-.257-.259Zm2.942.001a.235.235 0 0 0-.257.259l.119 1.134a.235.235 0 1 0 .468-.049l-.12-1.134a.235.235 0 0 0-.21-.21Z"/><g filter="url(#c)" opacity=".409"><path fill="#000" d="m29.021 8.594-12.865 7.475L8.02 28.875l11.9-8.815 9.1-11.466Z"/></g><path fill="#FF5150" d="m19.843 19.931-3.687-3.861 13.081-8.8-9.394 12.661Z"/><path fill="#F1F1F1" d="m19.843 19.931-3.687-3.862-9.394 12.662 13.081-8.8Z"/><path fill="#000" d="m6.762 28.731 13.081-8.8L29.237 7.27 6.762 28.73Z" opacity=".243"/><defs><radialGradient id="b" cx="0" cy="0" r="1" gradientTransform="translate(18.072 15.648) scale(17.4999)" gradientUnits="userSpaceOnUse"><stop stop-color="#06C2E7"/><stop offset=".25" stop-color="#0DB8EC"/><stop offset=".5" stop-color="#12AEF1"/><stop offset=".75" stop-color="#1F86F9"/><stop offset="1" stop-color="#107DDD"/></radialGradient><linearGradient id="a" x1="17.999" x2="17.999" y1="35.5" y2=".5" gradientUnits="userSpaceOnUse"><stop stop-color="#BDBDBD"/><stop offset="1" stop-color="#fff"/></linearGradient><filter id="c" width="24.181" height="23.461" x="6.431" y="7.003" color-interpolation-filters="sRGB" filterUnits="userSpaceOnUse"><feFlood flood-opacity="0" result="BackgroundImageFix"/><feBlend in="SourceGraphic" in2="BackgroundImageFix" result="shape"/><feGaussianBlur result="effect1_foregroundBlur_8229_3074" stdDeviation=".795"/></filter></defs></svg>