<svg width="16" height="16" viewBox="0 0 16 16" fill="none" xmlns="http://www.w3.org/2000/svg">
    <g clip-path="url(#clip0_7156_12593)">
        <path d="M16 8C16 12.4183 12.4183 16 8 16C3.58172 16 0 12.4183 0 8C0 3.58172 3.58172 0 8 0C12.4183 0 16 3.58172 16 8Z" fill="black"/>
        <path fill-rule="evenodd" clip-rule="evenodd" d="M16 8C16 12.4183 12.4183 16 8 16C3.58172 16 0 12.4183 0 8C0 3.58172 3.58172 0 8 0C12.4183 0 16 3.58172 16 8ZM8 15.6667C12.2342 15.6667 15.6667 12.2342 15.6667 8C15.6667 3.76582 12.2342 0.333333 8 0.333333C3.76582 0.333333 0.333333 3.76582 0.333333 8C0.333333 12.2342 3.76582 15.6667 8 15.6667Z" fill="white" fill-opacity="0.12"/>
        <rect width="9.99999" height="10.3124" transform="translate(3 3)" fill="black" fill-opacity="0.84"/>
        <path fill-rule="evenodd" clip-rule="evenodd" d="M4.85547 8.71646C4.85547 6.37707 7.63731 6.05165 8.7568 6.01174H8.74453C8.74453 5.91658 8.74585 5.82383 8.74713 5.73403C8.75802 4.96915 8.76586 4.41837 7.92869 4.41837C7.92869 4.41837 7.05457 4.41837 6.68038 5.56044L5.00269 5.40386C5.00269 4.26794 6.07923 3 8.10044 3C10.1216 3 10.686 4.31399 10.686 4.89423V8.2713C10.686 8.91602 11.4282 9.49933 11.4282 9.49933L10.1217 10.7888C9.74858 10.4552 9.40007 10.095 9.07884 9.71117C8.0391 11.3414 4.85547 11.2401 4.85547 8.71646ZM6.8184 8.40633C6.8184 9.57603 8.7568 9.85233 8.7568 8.01029V7.07393C7.98083 7.09849 6.8184 7.31953 6.8184 8.40633Z" fill="white"/>
        <path d="M11.8944 11.7773C11.7196 12.0075 10.2842 13.3123 7.87959 13.3123C5.47499 13.3123 3.61327 11.6729 3.0612 10.9821C2.90478 10.8071 3.08574 10.7242 3.18695 10.7918C4.87384 11.8172 7.50847 13.5057 11.7748 11.4887C11.9312 11.415 12.0662 11.547 11.8944 11.7773Z" fill="#FF9900"/>
        <path d="M12.8145 11.8265C12.708 12.0988 12.5413 12.3433 12.3269 12.5419C12.2011 12.6432 12.1091 12.6033 12.1766 12.4528C12.2441 12.3024 12.6213 11.3814 12.4679 11.1849C12.3146 10.9884 11.6184 11.0867 11.3638 11.1112C11.1092 11.1358 11.0571 11.1573 11.0418 11.1112C10.9743 10.9823 11.5294 10.749 11.8944 10.7029C12.2594 10.6568 12.836 10.6845 12.9525 10.8349C13.0691 10.9853 12.9525 11.4489 12.8023 11.8265H12.8145Z" fill="#FF9900"/>
    </g>
    <defs>
        <clipPath id="clip0_7156_12593">
            <rect width="16" height="16" fill="white"/>
        </clipPath>
    </defs>
</svg>
