<svg fill="none" viewBox="0 0 24 24" xmlns="http://www.w3.org/2000/svg">
  <g clip-path="url(#LINE_svg__a)">
    <path fill="#06C755" d="M24 12c0 6.627-5.373 12-12 12S0 18.627 0 12 5.373 0 12 0s12 5.373 12 12Z"/>
    <path fill="#000" fill-opacity=".12" fill-rule="evenodd" d="M12 23.5c6.351 0 11.5-5.149 11.5-11.5S18.351.5 12 .5.5 5.649.5 12 5.649 23.5 12 23.5Zm0 .5c6.627 0 12-5.373 12-12S18.627 0 12 0 0 5.373 0 12s5.373 12 12 12Z" clip-rule="evenodd"/>
    <path fill="#fff" d="M20.265 14.944h-3.521a.235.235 0 0 1-.235-.235V9.245a.235.235 0 0 1 .235-.234h3.521a.235.235 0 0 1 .235.234v.889a.235.235 0 0 1-.235.234h-2.39v.922h2.39a.235.235 0 0 1 .235.235v.896a.235.235 0 0 1-.235.235h-2.39v.923h2.39a.234.234 0 0 1 .235.234v.888a.235.235 0 0 1-.235.243Zm-13.013 0a.235.235 0 0 0 .235-.235v-.887a.235.235 0 0 0-.235-.235h-2.39V9.244a.235.235 0 0 0-.235-.235h-.892a.235.235 0 0 0-.235.235v5.461a.235.235 0 0 0 .235.235h3.52l-.003.004ZM9.37 9h-.888a.24.24 0 0 0-.24.24v5.464c0 .132.108.24.24.24h.888a.24.24 0 0 0 .24-.24V9.24A.24.24 0 0 0 9.37 9Zm6.045 0h-.887a.235.235 0 0 0-.235.235v3.246l-2.5-3.377a.14.14 0 0 0-.02-.024l-.014-.014-.013-.01h-.007l-.013-.01h-.007l-.012-.007h-.995a.235.235 0 0 0-.234.234v5.465a.235.235 0 0 0 .234.235h.889a.235.235 0 0 0 .235-.235V11.46l2.503 3.38a.235.235 0 0 0 .061.061l.014.01h.007l.012.006h.036a.274.274 0 0 0 .064.008h.882a.235.235 0 0 0 .235-.235V9.24a.234.234 0 0 0-.235-.24Z"/>
  </g>
  <defs>
    <clipPath id="LINE_svg__a">
      <path fill="#fff" d="M0 0h24v24H0z"/>
    </clipPath>
  </defs>
</svg>
