<svg fill="none" viewBox="0 0 24 24" xmlns="http://www.w3.org/2000/svg">
  <g clip-path="url(#Nativo_svg__a)">
    <path fill="#1F75FE" d="M24 12c0 6.627-5.373 12-12 12S0 18.627 0 12 5.373 0 12 0s12 5.373 12 12Z"/>
    <path fill="#fff" fill-opacity=".12" fill-rule="evenodd" d="M24 12c0 6.627-5.373 12-12 12S0 18.627 0 12 5.373 0 12 0s12 5.373 12 12ZM12 23.5c6.351 0 11.5-5.149 11.5-11.5S18.351.5 12 .5.5 5.649.5 12 5.649 23.5 12 23.5Z" clip-rule="evenodd"/>
    <path fill="#fff" d="M17.347 18.037a.654.654 0 0 1-.47-.196l-9.57-9.554v2.219l3.39 3.393a.65.65 0 0 1 .196.47v3.002a.652.652 0 0 1-.653.653H6.653A.653.653 0 0 1 6 17.37V6.668a.652.652 0 0 1 .412-.613.654.654 0 0 1 .731.144l9.57 9.554v-2.22l-3.397-3.393a.654.654 0 0 1-.196-.47V6.668a.652.652 0 0 1 .654-.652h3.573a.654.654 0 0 1 .653.652v10.703a.652.652 0 0 1-.418.614.575.575 0 0 1-.235.052Zm-10.04-1.338h2.2V14.63l-2.245-2.25.046 4.32Zm7.12-7.31 2.253 2.252v-4.3h-2.253V9.39Z"/>
  </g>
  <defs>
    <clipPath id="Nativo_svg__a">
      <path fill="#fff" d="M0 0h24v24H0z"/>
    </clipPath>
  </defs>
</svg>
