<svg fill="none" viewBox="0 0 24 24" xmlns="http://www.w3.org/2000/svg">
  <g clip-path="url(#V_svg__a)">
    <path fill="#4157D8" d="M24 12c0 6.627-5.373 12-12 12S0 18.627 0 12 5.373 0 12 0s12 5.373 12 12Z"/>
    <path fill="#000" fill-opacity=".12" fill-rule="evenodd" d="M12 23.5c6.351 0 11.5-5.149 11.5-11.5S18.351.5 12 .5.5 5.649.5 12 5.649 23.5 12 23.5Zm0 .5c6.627 0 12-5.373 12-12S18.627 0 12 0 0 5.373 0 12s5.373 12 12 12Z" clip-rule="evenodd"/>
    <path fill="#fff" d="M14.42 5.793h3.993L14.086 19h-4.2L5.577 5.793h4.01l1.799 6.694c.373 1.488.578 2.523.614 3.107.042-.421.126-.948.253-1.58.126-.633.238-1.13.334-1.49l1.834-6.73Z"/>
  </g>
  <defs>
    <clipPath id="V_svg__a">
      <path fill="#fff" d="M0 0h24v24H0z"/>
    </clipPath>
  </defs>
</svg>
