<svg fill="none" viewBox="0 0 24 24" xmlns="http://www.w3.org/2000/svg">
  <g clip-path="url(#Yahoo-Japan_svg__a)">
    <path fill="#FF0132" d="M24 12c0 6.627-5.373 12-12 12S0 18.627 0 12 5.373 0 12 0s12 5.373 12 12Z"/>
    <path fill="#000" fill-opacity=".12" fill-rule="evenodd" d="M24 12c0 6.627-5.373 12-12 12S0 18.627 0 12 5.373 0 12 0s12 5.373 12 12ZM12 23.5c6.351 0 11.5-5.149 11.5-11.5S18.351.5 12 .5.5 5.649.5 12 5.649 23.5 12 23.5Z" clip-rule="evenodd"/>
    <path fill="#fff" d="M19.104 9.318c-.252.036-1.33.254-1.69.327-.396.11-4.065 3.018-4.317 3.709-.036.218 0 2.763 0 2.763l2.086.146-.072.69c-.287-.036-2.23 0-3.453 0-.611 0-2.482.073-3.13.037l.073-.655a4.272 4.272 0 0 0 1.367-.145c.36-.11.647-.255.647-.618V13.39c-.144-.4-3.201-4.29-3.993-4.908-.216-.073-1.762-.255-2.122-.328l.072-.654h7.014l-.108.618c-.323.073-1.798.11-2.194.218 1.007 1.491 2.59 3.454 3.094 4.182.287-.4 2.985-2.327 3.057-2.91-.395-.072-1.654-.254-1.87-.254l-.108-.654H19.5l-.396.618Z"/>
  </g>
  <defs>
    <clipPath id="Yahoo-Japan_svg__a">
      <path fill="#fff" d="M0 0h24v24H0z"/>
    </clipPath>
  </defs>
</svg>
