<svg fill="none" viewBox="0 0 24 24" xmlns="http://www.w3.org/2000/svg">
  <path fill="#FFDE7A" fill-rule="evenodd" d="M21.315 8.627a5.942 5.942 0 0 1-7.99 5.58L12 15.533H9.43v2.832c0 .21-.17.38-.38.38H6.86v2.19c0 .21-.17.38-.38.38H2.686V17.46l7.025-7.025a5.942 5.942 0 1 1 11.604-1.808Zm-4.815.706a1.833 1.833 0 1 0 0-3.667 1.833 1.833 0 0 0 0 3.667" clip-rule="evenodd"/>
  <path fill="#C18010" fill-rule="evenodd" d="M10.25 8.625a5.125 5.125 0 1 1 3.385 4.822.75.75 0 0 0-.785.175l-1.16 1.161H9.43a.75.75 0 0 0-.75.75v2.462H6.86a.75.75 0 0 0-.75.75v1.82H3.436V17.77l6.861-6.861a.75.75 0 0 0 .186-.754 5.121 5.121 0 0 1-.232-1.531ZM15.375 2a6.625 6.625 0 0 0-6.447 8.157L2.155 16.93a.75.75 0 0 0-.22.53v3.855c0 .414.336.75.75.75h3.796a1.13 1.13 0 0 0 1.13-1.13v-1.44h1.44a1.13 1.13 0 0 0 1.13-1.13v-2.082H12a.75.75 0 0 0 .53-.22l1.058-1.057A6.625 6.625 0 1 0 15.375 2M15 7.5a1.5 1.5 0 1 1 3 0 1.5 1.5 0 0 1-3 0m1.5-2.833a2.833 2.833 0 1 0 0 5.666 2.833 2.833 0 0 0 0-5.666" clip-rule="evenodd"/>
</svg>
