<svg width="20" height="20" viewBox="0 0 20 20" fill="none" xmlns="http://www.w3.org/2000/svg">
    <path fill-rule="evenodd" clip-rule="evenodd" d="M10 5.625C12.4162 5.625 14.375 7.58375 14.375 10C14.375 12.4162 12.4162 14.375 10 14.375C7.58375 14.375 5.625 12.4162 5.625 10C5.625 7.58375 7.58375 5.625 10 5.625ZM12.5 10C12.5 8.61929 11.3807 7.5 10 7.5C8.61929 7.5 7.5 8.61929 7.5 10C7.5 11.3807 8.61929 12.5 10 12.5C11.3807 12.5 12.5 11.3807 12.5 10Z" fill="white"/>
    <path fill-rule="evenodd" clip-rule="evenodd" d="M10.625 0C11.5695 0 12.3509 0.698404 12.481 1.60697C13.0763 1.7827 13.6451 2.01996 14.1799 2.31125C14.9143 1.76035 15.9611 1.81892 16.6291 2.48696L17.513 3.37084C18.181 4.03887 18.2396 5.08556 17.6887 5.82C17.98 6.35484 18.2173 6.92365 18.393 7.51901C19.3016 7.64906 20 8.43047 20 9.375V10.625C20 11.5695 19.3016 12.3509 18.393 12.481C18.2173 13.0763 17.98 13.6451 17.6887 14.1799C18.2396 14.9143 18.1811 15.9611 17.513 16.6291L16.6292 17.513C15.9611 18.181 14.9144 18.2396 14.18 17.6887C13.6451 17.98 13.0763 18.2173 12.481 18.393C12.3509 19.3016 11.5695 20 10.625 20H9.375C8.43047 20 7.64906 19.3016 7.51901 18.393C6.92365 18.2173 6.35484 17.98 5.82 17.6887C5.08557 18.2396 4.03887 18.181 3.37084 17.513L2.48695 16.6291C1.81892 15.9611 1.76035 14.9143 2.31125 14.1799C2.01996 13.6451 1.7827 13.0763 1.60697 12.481C0.698404 12.3509 0 11.5695 0 10.625V9.375C0 8.43047 0.698404 7.64906 1.60697 7.51901C1.78271 6.92365 2.01998 6.35484 2.3113 5.82C1.76042 5.08557 1.81899 4.03887 2.48702 3.37084L3.37091 2.48695C4.03894 1.81892 5.08566 1.76035 5.82009 2.31125C6.35491 2.01996 6.92368 1.7827 7.51901 1.60697C7.64906 0.698403 8.43047 0 9.375 0H10.625ZM10.625 1.875H9.375C9.375 2.60562 8.86376 3.1857 8.2228 3.35667C7.63403 3.51372 7.07618 3.7471 6.5604 4.04579C5.98574 4.37857 5.21357 4.32962 4.69673 3.81278L3.81285 4.69666C4.32968 5.21349 4.37863 5.98566 4.04584 6.56031C3.74713 7.07612 3.51373 7.634 3.35667 8.2228C3.1857 8.86377 2.60562 9.375 1.875 9.375V10.625C2.60562 10.625 3.1857 11.1362 3.35667 11.7772C3.51372 12.366 3.7471 12.9238 4.04579 13.4396C4.37857 14.0143 4.32962 14.7864 3.81278 15.3033L4.69666 16.1872C5.21349 15.6703 5.98566 15.6214 6.56031 15.9542C7.07612 16.2529 7.634 16.4863 8.2228 16.6433C8.86376 16.8143 9.375 17.3944 9.375 18.125H10.625V17.6562C10.625 17.2103 10.939 16.8262 11.376 16.7375C12.1135 16.5878 12.8082 16.3199 13.4397 15.9542C14.0143 15.6214 14.7865 15.6703 15.3033 16.1871L16.1872 15.3033C15.6704 14.7864 15.6214 14.0143 15.9542 13.4396C16.2529 12.9238 16.4863 12.366 16.6433 11.7772C16.8143 11.1362 17.3944 10.625 18.125 10.625V9.375C17.3944 9.375 16.8143 8.86376 16.6433 8.2228C16.4863 7.63399 16.2529 7.07611 15.9542 6.5603C15.6214 5.98566 15.6703 5.2135 16.1871 4.69667L15.3033 3.81278C14.7864 4.32962 14.0143 4.37857 13.4396 4.04579C12.9238 3.7471 12.366 3.51372 11.7772 3.35667C11.1362 3.1857 10.625 2.60562 10.625 1.875Z" fill="white"/>
</svg>
