<svg width="24" height="25" viewBox="0 0 24 25" fill="none" xmlns="http://www.w3.org/2000/svg">
<rect width="24" height="24" transform="translate(0 0.324951)"/>
<path d="M23.0001 12.325C23.0001 18.4002 18.0752 23.325 12 23.325C5.92489 23.325 1 18.4002 1 12.325C1 6.24984 5.92489 1.32495 12 1.32495C18.0752 1.32495 23.0001 6.24984 23.0001 12.325Z" fill="#EE1025"/>
<path d="M11.9999 5.125C10.9842 5.125 10.1927 6.0058 10.3009 7.01576L11.105 14.5209C11.154 14.9782 11.54 15.325 11.9999 15.325C12.4599 15.325 12.8458 14.9782 12.8948 14.5209L13.6989 7.01576C13.8071 6.0058 13.0157 5.125 11.9999 5.125Z" fill="white"/>
<path d="M12 19.825C12.8284 19.825 13.5 19.1534 13.5 18.325C13.5 17.4966 12.8284 16.825 12 16.825C11.1715 16.825 10.5 17.4966 10.5 18.325C10.5 19.1534 11.1715 19.825 12 19.825Z" fill="white"/>
</svg>
