<svg fill="none" viewBox="0 0 16 16" xmlns="http://www.w3.org/2000/svg">
  <g fill="#000" clip-path="url(#Exclamation-16_svg__a)">
    <path d="M7.336 8.876a.665.665 0 0 0 1.328 0l.31-4.946A.875.875 0 0 0 8.1 3h-.2a.875.875 0 0 0-.873.93l.308 4.946ZM9 12a1 1 0 1 1-2 0 1 1 0 0 1 2 0Z"/>
    <path fill-rule="evenodd" d="M8 0a8 8 0 1 0 0 16A8 8 0 0 0 8 0ZM1.25 8a6.75 6.75 0 1 1 13.5 0 6.75 6.75 0 0 1-13.5 0Z" clip-rule="evenodd"/>
  </g>
  <defs>
    <clipPath id="Exclamation-16_svg__a">
      <path fill="#fff" d="M0 0h16v16H0z"/>
    </clipPath>
  </defs>
</svg>
