<svg fill="none" viewBox="0 0 16 16" xmlns="http://www.w3.org/2000/svg">
  <g fill="#000" clip-path="url(#Profile-Blocked-16_svg__a)">
    <path d="M8 0a8 8 0 0 1 7.998 8.188c-.01.414-.518.59-.862.36a4.752 4.752 0 0 0-.393-.236 6.75 6.75 0 1 0-12.228 3.623A6.532 6.532 0 0 1 7.56 8.967a3 3 0 1 1 .878 0c.264.017.524.05.779.099-.374.357-.69.775-.931 1.238a5.19 5.19 0 0 0-4.837 2.681 6.725 6.725 0 0 0 4.862 1.757c.072.135.151.266.236.393.23.344.054.852-.36.862A8 8 0 1 1 8 0Zm0 4.25a1.75 1.75 0 1 0 0 3.5 1.75 1.75 0 0 0 0-3.5Z"/>
    <path d="M12.5 9a3.5 3.5 0 1 1 0 7 3.5 3.5 0 0 1 0-7Zm-2.125 2.875a.5.5 0 0 0-.5.5v.25a.5.5 0 0 0 .5.5h4.25a.5.5 0 0 0 .5-.5v-.25a.5.5 0 0 0-.5-.5h-4.25Z"/>
  </g>
  <defs>
    <clipPath id="Profile-Blocked-16_svg__a">
      <path fill="#fff" d="M0 0h16v16H0z"/>
    </clipPath>
  </defs>
</svg>
