<svg fill="none" viewBox="0 0 101 100" xmlns="http://www.w3.org/2000/svg">
  <path fill="#ABABAB" d="M60.666 66h-18v14l18-2.8z"/>
  <path fill="#888" d="M21.666 19.667A2.667 2.667 0 0 1 24.334 17H80a2.667 2.667 0 0 1 2.666 2.667v18.666A2.667 2.667 0 0 1 80 41H24.333a2.667 2.667 0 0 1-2.666-2.667V19.667Z"/>
  <path fill="#CCC" fill-rule="evenodd" d="M77.804 17H20.529c-1.029 0-1.863.913-1.863 2.04v46.92c0 1.127.834 2.04 1.863 2.04h40.138V49a8 8 0 0 1 8-8h11V19.04c0-1.127-.834-2.04-1.863-2.04" clip-rule="evenodd"/>
  <path fill="#FFD65C" fill-rule="evenodd" d="M75.303 21H23.03c-.753 0-1.364.688-1.364 1.536v39.928c0 .848.611 1.536 1.364 1.536h37.636V49a8 8 0 0 1 8-8h8V22.536c0-.848-.61-1.536-1.363-1.536" clip-rule="evenodd"/>
  <path fill="#F9BE1A" d="M41.215 37.051c2.365-4.226 7.434-5.777 11.569-3.64.32.166.427.594.249.919l-1.174 2.09c-.284.501.16 1.114.703.966l7.639-2.09a.656.656 0 0 0 .444-.799l-1.992-8.006a.618.618 0 0 0-1.147-.168l-1.147 2.053a.615.615 0 0 1-.845.241c-6.678-3.715-15.028-1.281-18.897 5.62a15.354 15.354 0 0 0-1.885 8.935c.053.558.56.938 1.076.8l2.944-.809c.738-.204 1.227-.892 1.244-1.69a9.547 9.547 0 0 1 1.21-4.412l.009-.01Z"/>
  <path fill="#F9BE1A" fill-rule="evenodd" d="M44.852 49.59c4.294 2.136 9.558.585 12.014-3.641l.01-.01a9.277 9.277 0 0 0 1.256-4.412c.018-.798.526-1.486 1.292-1.69l3.057-.808a.902.902 0 0 1 1.117.799c.095.99.092 1.993-.013 2.993A7.984 7.984 0 0 0 60.666 49v1.232c-4.327 5.761-12.231 7.589-18.649 4.15a.652.652 0 0 0-.877.242l-1.191 2.053a.65.65 0 0 1-1.192-.167l-2.068-8.007a.653.653 0 0 1 .462-.799l7.932-2.09c.563-.148 1.025.465.73.966l-1.22 2.09c-.184.325-.073.752.26.92Z" clip-rule="evenodd"/>
  <path fill="#888" d="M31.666 79a2 2 0 0 1 2-2h27v1a3 3 0 0 1-3 3h-24a2 2 0 0 1-2-2Z"/>
  <path fill="#666" d="M89.666 45h-8a4 4 0 0 0-4 4v36a4 4 0 0 0 4 4h8.001a4 4 0 0 0 4-4V49a4 4 0 0 0-4-4Z"/>
  <path fill="#888" d="M86.666 45h-18a4 4 0 0 0-4 4v36a4 4 0 0 0 4 4h18a4 4 0 0 0 4-4V49a4 4 0 0 0-4-4"/>
  <path fill="#FFD65C" fill-rule="evenodd" d="M71.666 48v.5a1.5 1.5 0 0 0 1.5 1.5h9a1.5 1.5 0 0 0 1.5-1.5V48h2.974c.569 0 1.026.518 1.026 1.151v35.697c0 .634-.457 1.152-1.026 1.152H68.693c-.569 0-1.026-.518-1.026-1.151V49.15c0-.633.457-1.151 1.026-1.151h2.974Z" clip-rule="evenodd"/>
  <path fill="#F9BE1A" d="M80.896 63.702c-1 1.644-3.145 2.247-4.895 1.416a.252.252 0 0 1-.105-.357l.497-.813c.12-.195-.068-.434-.297-.376l-3.232.813a.253.253 0 0 0-.188.31l.842 3.114c.06.22.365.26.486.065l.485-.798a.272.272 0 0 1 .357-.094c2.826 1.445 6.359.499 7.995-2.185a5.573 5.573 0 0 0 .798-3.475.366.366 0 0 0-.456-.31l-1.245.313a.69.69 0 0 0-.526.658 3.486 3.486 0 0 1-.512 1.716zm-6.207-4.404c1.092-1.644 3.431-2.247 5.34-1.416a.242.242 0 0 1 .114.357l-.541.813c-.132.195.073.434.324.376l3.525-.813c.156-.036.247-.177.206-.31l-.92-3.114c-.065-.22-.398-.26-.53-.065l-.529.798c-.078.12-.25.159-.39.094-3.082-1.445-6.936-.499-8.721 2.185a5.202 5.202 0 0 0-.87 3.475c.024.217.258.365.496.31l1.359-.313c.34-.08.566-.347.574-.658a3.278 3.278 0 0 1 .559-1.716l.004-.003Z"/>
</svg>
