<svg fill="none" viewBox="0 0 16 16" xmlns="http://www.w3.org/2000/svg">
  <g clip-path="url(#VPN-16_svg__a)">
    <path fill="#000" d="M12.5 7.75a2.5 2.5 0 0 1 2.5 2.5V11h.148c.47 0 .852.382.852.852v3.296c0 .47-.382.852-.852.852H9.852A.852.852 0 0 1 9 15.148v-3.296c0-.47.382-.852.852-.852H10v-.75a2.5 2.5 0 0 1 2.5-2.5ZM8.103 0a8.004 8.004 0 0 1 7.814 6.833c.075.513-.74.74-1.154.427a3.64 3.64 0 0 0-.124-.09l.059-.015a6.757 6.757 0 0 0-4.16-5.411c.153.247.292.51.417.781.501 1.095.846 2.484.981 4.017a3.724 3.724 0 0 0-1.221.41c-.105-1.539-.434-2.895-.897-3.907C9.228 1.755 8.538 1.25 8 1.25s-1.227.504-1.818 1.795c-.55 1.203-.912 2.895-.931 4.8a27.55 27.55 0 0 0 4.296.093 3.738 3.738 0 0 0-.653 1.28c-1.202.037-2.406 0-3.605-.114.109 1.515.436 2.852.893 3.85.502 1.1 1.076 1.628 1.568 1.761 0 .113 0 .226.002.337.011.455-.34.94-.79.881A8.001 8.001 0 0 1 .005 7.707a.622.622 0 0 1 .011-.224A8 8 0 0 1 8 0h.103Zm-6.84 8.433a6.754 6.754 0 0 0 4.198 5.823 7.11 7.11 0 0 1-.416-.781c-.555-1.213-.919-2.787-1.018-4.518-.927-.13-1.85-.304-2.763-.524ZM12.5 9c-.69 0-1.25.56-1.25 1.25V11h2.5v-.75c0-.69-.56-1.25-1.25-1.25ZM5.461 1.744a6.757 6.757 0 0 0-4.159 5.412c.893.223 1.795.402 2.701.535.036-1.986.418-3.803 1.042-5.166.125-.272.264-.534.416-.781Z"/>
  </g>
  <defs>
    <clipPath id="VPN-16_svg__a">
      <path fill="#fff" d="M0 0h16v16H0z"/>
    </clipPath>
  </defs>
</svg>
