<svg fill="none" viewBox="0 0 24 24" xmlns="http://www.w3.org/2000/svg">
  <path fill="#fff" d="M5.667 3.667a3 3 0 0 0-3 3v9.666a3 3 0 0 0 3 3h4.449c.246 0 .409-.258.32-.487a6.5 6.5 0 0 1 10.275-7.297c.233.197.622.042.622-.264V6.667a3 3 0 0 0-3-3z"/>
  <path fill="#DDD" d="M2.667 5.667a2 2 0 0 1 2-2h14.666a2 2 0 0 1 2 2v2H2.667v-2Z"/>
  <path fill="#666" fill-rule="evenodd" d="M5 3a3 3 0 0 0-3 3v11a3 3 0 0 0 3 3h5.184c.362 0 .587-.405.433-.733a6.443 6.443 0 0 1-.247-.6H5c-.92 0-1.667-.747-1.667-1.667V8.333h17.334v3.178c.114.096.226.196.333.3.332.317 1 .098 1-.361V6a3 3 0 0 0-3-3zm15.667 4H3.333V6c0-.92.747-1.667 1.667-1.667h14c.92 0 1.667.747 1.667 1.667z" clip-rule="evenodd"/>
  <path fill="#4CBA3C" d="M22 16.5a5.5 5.5 0 1 1-11 0 5.5 5.5 0 0 1 11 0"/>
  <path fill="#288419" fill-rule="evenodd" d="M16.5 20.5a4 4 0 1 0 0-8 4 4 0 0 0 0 8m0 1.5a5.5 5.5 0 1 0 0-11 5.5 5.5 0 0 0 0 11" clip-rule="evenodd"/>
  <path fill="#fff" fill-rule="evenodd" d="M19.03 14.97a.75.75 0 0 1 0 1.06l-2.5 2.5a.75.75 0 0 1-1.06 0l-1.5-1.5a.75.75 0 1 1 1.06-1.06l.97.97 1.97-1.97a.75.75 0 0 1 1.06 0Z" clip-rule="evenodd"/>
</svg>
