<svg fill="none" viewBox="0 0 24 24" xmlns="http://www.w3.org/2000/svg">
  <path fill="#8FABF9" d="M2 6a3 3 0 0 1 3-3h14a3 3 0 0 1 3 3v12a3 3 0 0 1-3 3H5a3 3 0 0 1-3-3z"/>
  <path fill="#2B55CA" fill-rule="evenodd" d="M19 4.333H5c-.92 0-1.667.747-1.667 1.667v12c0 .92.747 1.667 1.667 1.667h14c.92 0 1.667-.747 1.667-1.667V6c0-.92-.747-1.667-1.667-1.667M5 3a3 3 0 0 0-3 3v12a3 3 0 0 0 3 3h14a3 3 0 0 0 3-3V6a3 3 0 0 0-3-3z" clip-rule="evenodd"/>
  <path fill="#fff" fill-opacity=".84" d="M3.333 14.667C3.333 13.747 4.079 13 5 13h14c.92 0 1.666.746 1.666 1.667V18c0 .92-.746 1.667-1.666 1.667H5c-.92 0-1.667-.747-1.667-1.667z"/>
  <path fill="#E2A412" d="M4.333 15.666a1 1 0 0 1 1-1h2a1 1 0 0 1 1 1v2a1 1 0 0 1-1 1h-2a1 1 0 0 1-1-1z"/>
  <path fill="#F9BE1A" d="M4.333 15.666h4v2a1 1 0 0 1-1 1h-2a1 1 0 0 1-1-1z"/>
  <rect width="4" height="4" x="15.666" y="14.667" fill="#399F29" rx="1"/>
  <rect width="2" height="2" x="16.666" y="15.666" fill="#7BD66D" rx=".5"/>
  <rect width="4.667" height="4.667" x="9.666" y="14" fill="#DE5833" rx="1"/>
  <rect width="2" height="2" x="11" y="15.333" fill="#EB876C" rx=".5"/>
  <path fill="#fff" fill-opacity=".84" d="M16.407 9.26c.26.26.26.682 0 .942l-1 1a.667.667 0 0 1-.943-.943l1-1c.26-.26.683-.26.943 0ZM12 7.333c.368 0 .667.299.667.667v1.667a.667.667 0 0 1-1.334 0V8c0-.368.299-.667.667-.667M8.512 9.236a.667.667 0 0 0-.943.942l1 1a.667.667 0 1 0 .943-.942z"/>
</svg>
