<svg fill="none" viewBox="0 0 24 24" xmlns="http://www.w3.org/2000/svg">
  <path fill="#DDD" d="M5 3a3 3 0 0 0-3 3v12a3 3 0 0 0 3 3h10.09c.009-.038.017-.075.027-.111a.844.844 0 0 0-.216-.798l-2.424-2.424a2.25 2.25 0 0 1 0-3.182l2.576-2.576a2.25 2.25 0 0 1 3.758 2.2c.59.129 1.144.308 1.644.553A4.719 4.719 0 0 1 22 15.84V6a3 3 0 0 0-3-3H5Z"/>
  <path fill="#F5F5F5" d="M19 3h-4a3 3 0 0 0-3 3v1a.667.667 0 0 1-.667.667H2V18a3 3 0 0 0 3 3h10.09c.009-.038.017-.075.027-.111a.844.844 0 0 0-.216-.798l-2.424-2.424a2.25 2.25 0 0 1 0-3.182l2.576-2.576a2.25 2.25 0 0 1 3.758 2.2c.59.129 1.144.308 1.644.553A4.719 4.719 0 0 1 22 15.84V6a3 3 0 0 0-3-3Z"/>
  <path fill="#666" fill-rule="evenodd" d="M22 6a3 3 0 0 0-3-3H5a3 3 0 0 0-3 3v12a3.001 3.001 0 0 0 3 3h10.09c.009-.038.017-.075.027-.111a.844.844 0 0 0-.216-.798l-.59-.591H5A1.5 1.5 0 0 1 3.5 18V9.167h7.833c1.197 0 2.167-.97 2.167-2.167V6A1.5 1.5 0 0 1 15 4.5h4A1.5 1.5 0 0 1 20.5 6v8.684c.548.274 1.072.65 1.5 1.156V6ZM7 7.667H3.333V6c0-.92.747-1.667 1.667-1.667h2.666a3.319 3.319 0 0 0-.666 2v1.334Zm1.5-1.334v1.334h2.833A.667.667 0 0 0 12 7V6c0-.546.146-1.059.401-1.5h-2.068C9.321 4.5 8.5 5.32 8.5 6.333Z" clip-rule="evenodd"/>
  <path fill="#3969EF" fill-rule="evenodd" d="M17.107 12.893a.75.75 0 0 1 0 1.061l-1.297 1.297c1.656.017 3.111.233 4.191.707 1.146.502 1.999 1.37 1.999 2.664 0 1.267-.842 2.128-1.714 2.63-.875.504-1.932.748-2.744.748a.75.75 0 0 1 0-1.5c.562 0 1.36-.181 1.995-.547.638-.368.963-.821.963-1.331 0-.484-.272-.927-1.101-1.29-.813-.358-2.032-.564-3.587-.58l1.142 1.142a.75.75 0 0 1-1.06 1.06L13.47 16.53a.75.75 0 0 1 0-1.06l2.576-2.577a.75.75 0 0 1 1.06 0Z" clip-rule="evenodd"/>
</svg>
