<svg fill="none" viewBox="0 0 24 24" xmlns="http://www.w3.org/2000/svg">
  <path fill="url(#Video-Player-Color-24_svg__a)" d="M2.875 7.625a3.75 3.75 0 0 1 3.75-3.75h10.75a3.75 3.75 0 0 1 3.75 3.75v8.75a3.75 3.75 0 0 1-3.75 3.75H6.625a3.75 3.75 0 0 1-3.75-3.75v-8.75Z"/>
  <path fill="url(#Video-Player-Color-24_svg__b)" d="M21 16.375a3.75 3.75 0 0 1-3.75 3.75H6.75A3.75 3.75 0 0 1 3 16.375V16h14.25A3.75 3.75 0 0 0 21 12.25v4.125Z"/>
  <path fill="url(#Video-Player-Color-24_svg__c)" d="M17.257 3.007A5 5 0 0 1 22 8v8a5 5 0 0 1-5 5H7a5 5 0 0 1-5-5V8a5 5 0 0 1 5-5h10l.257.007ZM7 4.25A3.75 3.75 0 0 0 3.25 8v8A3.75 3.75 0 0 0 7 19.75h10A3.75 3.75 0 0 0 20.75 16V8a3.75 3.75 0 0 0-3.557-3.745L17 4.25H7Zm6.625 10.875c.345 0 .625.28.625.625V17A.625.625 0 1 1 13 17v-1.25c0-.345.28-.625.625-.625ZM11.75 17H5.625a.625.625 0 1 1 0-1.25h6.125V17Zm6.625-1.25a.625.625 0 1 1 0 1.25H15.5v-1.25h2.875Z"/>
  <path fill="#551605" d="M15.178 9.114a1 1 0 0 1 0 1.772l-4.715 2.463A1 1 0 0 1 9 12.463V7.537a1 1 0 0 1 1.463-.886l4.715 2.463Z"/>
  <defs>
    <linearGradient id="Video-Player-Color-24_svg__a" x1="12" x2="12" y1="3.875" y2="20.125" gradientUnits="userSpaceOnUse">
      <stop stop-color="#F2A18A"/>
      <stop offset=".831" stop-color="#E46F4F"/>
    </linearGradient>
    <linearGradient id="Video-Player-Color-24_svg__b" x1="20.125" x2="3.875" y1="12" y2="12" gradientUnits="userSpaceOnUse">
      <stop stop-color="#F8BBAA"/>
      <stop offset=".831" stop-color="#F2A18A" stop-opacity="0"/>
    </linearGradient>
    <linearGradient id="Video-Player-Color-24_svg__c" x1="12" x2="12" y1="3" y2="21" gradientUnits="userSpaceOnUse">
      <stop stop-color="#BC4726"/>
      <stop offset="1" stop-color="#551605"/>
    </linearGradient>
  </defs>
</svg>
