<svg xmlns="http://www.w3.org/2000/svg" width="48" height="48" viewBox="0 0 48 48" fill="none">
    <rect x="8" y="8" width="32" height="32" rx="16" fill="#DE5833" />
    <path fill-rule="evenodd" clip-rule="evenodd" d="M27.6052 38.3435C26.933 37.0366 26.2903 35.8342 25.8913 35.0388C24.8308 32.9152 23.7649 29.9212 24.2497 27.9903C24.338 27.6395 23.2508 14.9993 22.4822 14.5922C21.6279 14.1369 20.5768 13.4148 19.6154 13.2541C19.1276 13.176 18.488 13.213 17.988 13.2803C17.8992 13.2923 17.8955 13.452 17.9804 13.4808C18.3087 13.592 18.7072 13.7851 18.9421 14.077C18.9866 14.1323 18.9269 14.2192 18.856 14.2218C18.6346 14.23 18.2329 14.3228 17.703 14.773C17.6417 14.825 17.6926 14.9217 17.7715 14.9061C18.9104 14.6808 20.0736 14.7918 20.7591 15.4149C20.8036 15.4553 20.7803 15.5278 20.7223 15.5436C14.7736 17.1602 15.9512 22.3349 17.5348 28.6852C19.027 34.6686 19.7347 37.0285 19.82 37.3087C19.8257 37.3275 19.8362 37.342 19.8535 37.3514C21.0795 38.0243 27.5263 38.4328 27.2529 37.6624L27.6052 38.3435Z" fill="#DDDDDD" />
    <path fill-rule="evenodd" clip-rule="evenodd" d="M38.75 24C38.75 32.1462 32.1462 38.75 24 38.75C15.8538 38.75 9.25 32.1462 9.25 24C9.25 15.8538 15.8538 9.25 24 9.25C32.1462 9.25 38.75 15.8538 38.75 24ZM20.5608 37.0398C20.1134 35.6496 18.9707 31.9777 17.8859 27.5312C17.8485 27.3776 17.811 27.2246 17.7738 27.0724L17.7728 27.0686C16.411 21.506 15.2986 16.9627 21.3949 15.5354C21.4507 15.5223 21.4779 15.4557 21.441 15.4119C20.7416 14.5821 19.4312 14.3102 17.7744 14.8818C17.7064 14.9052 17.6474 14.8367 17.6896 14.7785C18.0145 14.3307 18.6494 13.9863 18.9629 13.8354C19.0277 13.8042 19.0237 13.7093 18.9551 13.6878C18.7501 13.6237 18.401 13.5254 18.0083 13.4621C17.9154 13.4471 17.907 13.2879 18.0003 13.2753C20.3492 12.9593 22.802 13.6645 24.0329 15.215C24.0445 15.2296 24.0612 15.2398 24.0794 15.2437C28.5867 16.2116 28.9095 23.3367 28.3902 23.6612C28.2879 23.7252 27.9598 23.6885 27.5271 23.6401C25.7733 23.4439 22.3004 23.0553 25.1667 28.3971C25.195 28.4498 25.1575 28.5197 25.0984 28.5289C23.506 28.7764 25.5552 33.7922 27.0719 37.1309C33.0379 35.7407 37.4824 30.3894 37.4824 24C37.4824 16.5539 31.4461 10.5176 24 10.5176C16.5539 10.5176 10.5176 16.5539 10.5176 24C10.5176 30.2575 14.7806 35.5194 20.5608 37.0398Z" fill="white" />
    <path d="M29.0913 30.703C28.7482 30.544 27.4288 31.4902 26.5532 32.2165C26.3702 31.9575 26.0251 31.7693 25.2467 31.9047C24.5655 32.0231 24.1894 32.1874 24.0216 32.4706C22.9463 32.0629 21.1374 31.4337 20.7003 32.0414C20.2226 32.7056 20.8197 35.8476 21.4542 36.2556C21.7855 36.4686 23.37 35.4501 24.1974 34.7478C24.3309 34.9359 24.5458 35.0435 24.9877 35.0333C25.6559 35.0178 26.7397 34.8623 26.9079 34.5511C26.9181 34.5322 26.9269 34.5098 26.9344 34.4844C27.7849 34.8022 29.2817 35.1386 29.6161 35.0884C30.4875 34.9575 29.4947 30.8899 29.0913 30.703Z" fill="#3CA82B" />
    <path d="M26.6335 32.3093C26.6696 32.3736 26.6986 32.4415 26.7233 32.5105C26.8445 32.8496 27.042 33.9283 26.8926 34.1947C26.7433 34.4612 25.7731 34.5898 25.1745 34.6002C24.576 34.6105 24.4413 34.3916 24.32 34.0525C24.2231 33.7813 24.1753 33.1435 24.1765 32.7783C24.1519 32.2367 24.3498 32.0462 25.2646 31.8982C25.9415 31.7887 26.2994 31.9161 26.506 32.1341C27.467 31.4168 29.0705 30.4046 29.2269 30.5896C30.0068 31.512 30.1053 33.7079 29.9365 34.5914C29.8813 34.8802 27.2991 34.3052 27.2991 33.9938C27.2991 32.7004 26.9635 32.3456 26.6335 32.3093Z" fill="#4CBA3C" />
    <path d="M20.9771 31.9054C21.1886 31.5707 22.9036 31.9869 23.8451 32.4059C23.8451 32.4059 23.6516 33.2824 23.9596 34.315C24.0497 34.617 21.7937 35.9614 21.4992 35.7301C21.1589 35.4628 20.5326 32.6089 20.9771 31.9054Z" fill="#4CBA3C" />
    <path fill-rule="evenodd" clip-rule="evenodd" d="M21.8077 25.1063C21.9465 24.5029 22.5929 23.3659 24.9011 23.3935C26.0681 23.3887 27.5176 23.393 28.4786 23.2839C29.907 23.1216 30.9672 22.7761 31.6737 22.5068C32.6729 22.1256 33.0275 22.2106 33.1518 22.4387C33.2884 22.6893 33.1274 23.1221 32.7783 23.5205C32.1114 24.2814 30.9126 24.8711 28.7952 25.0461C26.6779 25.2211 25.2751 24.6531 24.6713 25.5778C24.4109 25.9766 24.6122 26.9166 26.6598 27.2126C29.4268 27.6119 31.6992 26.7314 31.98 27.2632C32.2608 27.795 30.6434 28.8769 27.8719 28.8996C25.1005 28.9222 23.3694 27.9292 22.7556 27.4356C21.9767 26.8094 21.6282 25.8961 21.8077 25.1063Z" fill="#FFCC33" />
    <g opacity="0.8">
        <path d="M25.3372 18.5086C25.4918 18.2554 25.8346 18.0601 26.3956 18.0601C26.9565 18.0601 27.2205 18.2833 27.4032 18.5322C27.4403 18.5829 27.384 18.6425 27.3264 18.6175C27.3125 18.6115 27.2985 18.6054 27.2842 18.5992C27.079 18.5096 26.8271 18.3995 26.3956 18.3934C25.934 18.3868 25.6429 18.5024 25.4597 18.6021C25.3979 18.6356 25.3006 18.5686 25.3372 18.5086Z" fill="#14307E" />
        <path d="M19.0214 18.8324C19.5661 18.6048 19.9942 18.6342 20.2969 18.7058C20.3606 18.7209 20.4049 18.6523 20.3539 18.6112C20.119 18.4217 19.5933 18.1865 18.9076 18.4422C18.2959 18.6703 18.0076 19.1441 18.0059 19.4557C18.0055 19.5291 18.1565 19.5354 18.1956 19.4732C18.3012 19.3053 18.4767 19.0601 19.0214 18.8324Z" fill="#14307E" />
        <path fill-rule="evenodd" clip-rule="evenodd" d="M26.8721 21.9714C26.3905 21.9714 25.9999 21.5819 25.9999 21.1024C25.9999 20.623 26.3905 20.2334 26.8721 20.2334C27.3537 20.2334 27.7443 20.623 27.7443 21.1024C27.7443 21.5819 27.3537 21.9714 26.8721 21.9714ZM27.4864 20.8145C27.4864 20.6904 27.3847 20.5898 27.2605 20.5898C27.1364 20.5898 27.0358 20.6904 27.0347 20.8145C27.0347 20.9387 27.1364 21.0393 27.2605 21.0393C27.3858 21.0393 27.4864 20.9387 27.4864 20.8145Z" fill="#14307E" />
        <path fill-rule="evenodd" clip-rule="evenodd" d="M21.0933 21.7038C21.0933 22.2635 20.6385 22.7173 20.0766 22.7173C19.5159 22.7173 19.06 22.2635 19.06 21.7038C19.06 21.1441 19.5159 20.6904 20.0766 20.6904C20.6374 20.6904 21.0933 21.1441 21.0933 21.7038ZM20.7936 21.3678C20.7936 21.2233 20.6759 21.1056 20.5304 21.1056C20.3859 21.1056 20.2682 21.2223 20.2671 21.3678C20.2671 21.5123 20.3848 21.63 20.5304 21.63C20.6759 21.63 20.7936 21.5123 20.7936 21.3678Z" fill="#14307E" />
    </g>
</svg>
