<svg width="96" height="96" viewBox="0 0 96 96" fill="none" xmlns="http://www.w3.org/2000/svg">
<path d="M68.8003 20.5314C74.5246 20.2256 79.3338 24.7848 79.3338 30.5172V45.4923H80.2874C82.7082 45.4923 84.4585 47.8058 83.8001 50.1354L76.8894 74.5848C76.4451 76.1568 75.0105 77.2423 73.377 77.2423H63.3977C61.0024 77.2423 59.2561 74.974 59.8687 72.6583L61.5218 66.4088L23.8643 66.3595C19.5553 66.3538 16.1371 62.7267 16.3868 58.4249L18.0413 29.9191C18.2626 26.1058 21.3143 23.0679 25.1285 22.8641L68.8003 20.5314Z" fill="#F5FBFE"/>
<path d="M61.5378 66.3495H60.8491C61.0003 66.6047 61.1602 66.8742 61.325 67.153L59.8687 72.6586C59.5666 73.8008 59.8386 74.9313 60.479 75.7838L36.0427 75.8319C35.8626 75.8322 35.7263 75.6687 35.7593 75.4916C35.9757 74.3341 36.9464 73.4685 38.1211 73.3854L44.2075 72.9552C44.8631 72.9089 45.2094 72.1571 44.8188 71.6286L40.9182 66.3495H25.7551C21.8502 66.3495 18.2758 64.1575 16.5051 60.6771H63.0383L61.5378 66.3495Z" fill="#4397E0"/>
<path d="M68.7971 20.5319C74.5215 20.2259 79.3308 24.785 79.3308 30.5175V45.4923H75.0935L75.8789 29.3483C76.1187 24.4174 72.0435 20.3604 67.1143 20.6217L68.7971 20.5319Z" fill="#4397E0"/>
<path d="M67.1106 20.622L52.8 21.3869L67.1143 20.6217C67.113 20.6218 67.1118 20.6219 67.1106 20.622Z" fill="#4397E0"/>
<path d="M70.6188 74.8047C70.8559 74.8047 71.0241 75.0359 70.9511 75.2615C70.8578 75.5496 70.5894 75.7449 70.2865 75.7449H65.2709C65.0359 75.7449 64.8685 75.5167 64.9389 75.2925C65.03 75.0022 65.299 74.8047 65.6032 74.8047H70.6188Z" fill="#CBEAFF"/>
<path d="M49.6437 23.1233C51.3951 23.1233 53.1479 23.7063 54.5922 25.1936C55.8078 26.445 57.7966 27.6675 60.4975 28.5532C62.2346 29.1232 63.7067 29.6182 64.7382 30.6309C65.788 31.6615 66.3474 33.1862 66.4001 35.719C66.4785 39.4539 65.7658 44.7796 62.4516 49.7505C60.4279 52.7872 57.6369 54.9773 54.9245 56.4077C52.2177 57.8352 49.5612 58.5205 47.7885 58.5205C46.0157 58.5205 43.4311 57.8347 40.8739 56.407C38.3116 54.9763 35.7503 52.7862 34.0448 49.7507L34.0446 49.7505C31.2538 44.7797 31.097 39.4518 31.5668 35.719C31.8849 33.1873 32.6041 31.6627 33.7619 30.6318C34.8996 29.6189 36.4232 29.1232 38.2201 28.5532C41.0119 27.6675 43.1314 26.4451 44.4782 25.1936C46.0784 23.7063 47.8923 23.1233 49.6437 23.1233Z" fill="#CBEAFF"/>
<path d="M74.0575 53.4629C74.7097 53.4629 75.3257 53.6751 75.7677 54.2153C76.106 54.6286 76.6936 55.0354 77.5304 55.344L77.7011 55.4045L77.9213 55.48C78.425 55.6552 78.8565 55.8331 79.1371 56.1567C79.4656 56.5358 79.5732 57.0935 79.4313 58.0042C79.2293 59.3022 78.6591 61.1379 77.2262 62.8752L77.0851 63.043C76.1451 64.1358 74.9768 64.9231 73.8871 65.437C72.8006 65.9494 71.7764 66.197 71.1176 66.197C70.4588 66.197 69.5488 65.9492 68.6989 65.4368C67.8465 64.9228 67.0421 64.1353 66.6066 63.043C65.8953 61.2568 66.1769 59.3433 66.5868 58.0042C66.8653 57.094 67.2304 56.5363 67.7338 56.1572C68.2253 55.7872 68.8261 55.6073 69.5173 55.4045C70.5899 55.0897 71.4356 54.6561 71.9999 54.2153C72.6914 53.6751 73.4054 53.4629 74.0575 53.4629Z" fill="#FAB341"/>
<path d="M46.477 20.4749C48.2283 20.4749 49.9812 21.0579 51.4255 22.5452C52.6411 23.7966 54.63 25.0191 57.331 25.9048C59.0681 26.4748 60.5402 26.9698 61.5717 27.9824C62.6215 29.0131 63.1809 30.5378 63.2336 33.0706C63.312 36.8055 62.5993 42.1312 59.2851 47.1021C57.2614 50.1388 54.4703 52.3288 51.758 53.7593C49.0512 55.1868 46.3947 55.872 44.622 55.8721C42.8493 55.8721 40.2646 55.1863 37.7074 53.7585C35.1451 52.3279 32.5838 50.1378 30.8783 47.1023L30.8781 47.1021C28.0873 42.1312 27.9305 36.8034 28.4003 33.0706C28.7184 30.5389 29.4376 29.0143 30.5954 27.9834C31.7331 26.9705 33.2567 26.4748 35.0536 25.9048C37.8453 25.019 39.9647 23.7966 41.3114 22.5452C42.9116 21.0579 44.7256 20.4749 46.477 20.4749Z" fill="#FAB341"/>
<path d="M74.2037 53.8549C74.5067 53.6448 74.8722 53.5637 75.1854 53.7343C75.4096 53.8564 75.6058 54.0181 75.7667 54.2147C76.1275 54.6555 76.772 55.0892 77.7 55.4039C78.2976 55.6067 78.8156 55.7862 79.1363 56.1561C79.4648 56.5352 79.5724 57.0929 79.4305 58.0035C79.222 59.3434 78.621 61.2559 77.0841 63.0421C75.7082 64.6417 73.8425 65.5881 72.4415 65.9808C72.0489 66.0909 71.7072 66.0558 71.4742 65.8822C71.2413 65.7086 71.1365 65.411 71.1776 65.0402C71.2478 64.4058 71.3367 63.7462 71.4434 63.0707C71.2603 62.9765 71.1512 62.7863 71.1741 62.5512C71.2306 61.975 71.3284 61.3404 71.4442 60.7103C71.4775 60.5287 71.3604 60.3838 71.1751 60.3785C70.7333 60.3661 70.2926 60.3489 69.8533 60.3268C69.6728 60.3177 69.5284 60.3097 69.429 60.3038C69.3794 60.3009 69.3408 60.2984 69.3145 60.2968C69.3015 60.2959 69.2914 60.2953 69.2845 60.2948L69.2764 60.2943C69.2761 60.2943 69.2758 60.2941 69.2755 60.2941L69.276 60.2943C69.2752 60.2943 69.2744 60.2941 69.2735 60.2941C68.9003 60.2691 68.6876 59.9497 68.7984 59.5805C68.9092 59.2112 69.3016 58.932 69.6749 58.9569H69.6766C69.678 58.957 69.6804 58.9572 69.6834 58.9574C69.6895 58.9578 69.6988 58.9583 69.711 58.9591C69.7356 58.9607 69.7724 58.9631 69.8201 58.966C69.9159 58.9716 70.0561 58.9793 70.2323 58.9882C70.6292 59.0081 71.0274 59.0241 71.4266 59.036C71.6239 59.0419 71.8234 58.8855 71.8685 58.6918C71.9758 58.2302 72.0892 57.7686 72.2088 57.3073C72.2552 57.1283 72.2935 56.9848 72.3201 56.8859C72.3334 56.8365 72.344 56.7981 72.3511 56.7719C72.3547 56.7588 72.3575 56.7487 72.3594 56.7418C72.3604 56.7384 72.3611 56.7356 72.3616 56.7338C72.3619 56.7329 72.362 56.7321 72.3621 56.7316C72.3626 56.7317 72.3652 56.7336 72.3656 56.7338L72.3624 56.7308C72.4558 56.3946 72.785 56.128 73.1263 56.0951C73.3157 55.4949 73.4482 55.1007 73.5599 54.7377C73.6672 54.3888 73.9074 54.0602 74.2037 53.8549Z" fill="#FFC95C"/>
<path fill-rule="evenodd" clip-rule="evenodd" d="M46.8897 21.2409C47.3962 20.81 48.0712 20.6114 48.7657 20.8502C49.769 21.1953 50.6763 21.769 51.4256 22.5407C52.6412 23.7922 54.6301 25.0148 57.3311 25.9005C59.0682 26.4705 60.5401 26.9655 61.5716 27.9782C62.6214 29.0088 63.1808 30.5335 63.2335 33.0663L63.2384 33.421C63.2647 37.1337 62.4957 42.2822 59.285 47.0978L59.2847 47.0975C56.322 51.5434 51.7141 54.1775 48.0994 55.2704C47.1101 55.5695 46.2005 55.4706 45.5162 55.0089C44.8319 54.5472 44.4148 53.7512 44.3494 52.7433C44.2356 50.9874 44.1585 49.162 44.1229 47.2931C43.5246 47.0486 43.0895 46.4904 43.0355 45.7921C42.9046 44.0986 42.8675 42.2255 42.8846 40.3754C42.8879 40.0147 42.6109 39.727 42.2501 39.7172C40.9489 39.6819 39.649 39.6311 38.3507 39.5648C37.853 39.5394 37.4551 39.5166 37.1807 39.5001C37.0437 39.4919 36.9371 39.4852 36.8646 39.4806C36.8284 39.4783 36.8004 39.4765 36.7813 39.4752C36.7719 39.4746 36.7644 39.4741 36.7594 39.4738C36.7569 39.4736 36.7538 39.4735 36.7508 39.4733C35.7193 39.4034 34.9835 38.5088 35.1075 37.475C35.2315 36.4411 36.1684 35.6595 37.2 35.7291H37.201C37.2019 35.7292 37.2035 35.7293 37.2054 35.7294C37.2094 35.7296 37.2157 35.7303 37.2239 35.7308C37.2407 35.7319 37.2663 35.7336 37.3001 35.7357C37.368 35.7401 37.4698 35.7464 37.6019 35.7543C37.8661 35.7701 38.2528 35.7923 38.7384 35.817C39.9283 35.8777 41.1197 35.925 42.3121 35.9591C42.6965 35.97 43.0293 35.6596 43.0494 35.275C43.1216 33.8867 43.2134 32.4983 43.3245 31.1105C43.3647 30.6095 43.3995 30.2083 43.4244 29.9313C43.4368 29.7928 43.4468 29.6852 43.4537 29.6117C43.4571 29.5751 43.4599 29.5468 43.4617 29.5275C43.4627 29.5179 43.4634 29.5102 43.4639 29.505C43.4642 29.5026 43.4643 29.5006 43.4644 29.4992C43.4645 29.4985 43.4741 29.5049 43.4749 29.505L43.4647 29.4967C43.5605 28.5206 44.3847 27.7526 45.3455 27.7079C45.4161 27.186 45.4811 26.7201 45.5413 26.2948C45.7315 24.9523 45.871 24.0236 45.9776 23.0119C46.0509 22.3159 46.3903 21.6657 46.8897 21.2409ZM36.7576 39.4735C36.756 39.4734 36.7545 39.4733 36.7535 39.4733H36.7513C36.8012 39.4765 36.7727 39.4745 36.7576 39.4735Z" fill="#FFC95C"/>
<path d="M80.9844 47.625C81.437 47.625 81.758 48.0662 81.6187 48.4968L81.5547 48.6943C81.3766 49.2444 80.8643 49.6172 80.2861 49.6172H69.4548C69.0048 49.6172 68.6839 49.1804 68.8186 48.751L68.8787 48.5591C69.0531 48.0032 69.5683 47.625 70.1509 47.625H80.9844Z" fill="#A1D0F7"/>
<path d="M66.4478 23.697C66.4859 23.5447 66.7023 23.5447 66.7405 23.697L66.9368 24.4824C67.0494 24.933 67.4013 25.2848 67.8518 25.3975L68.6372 25.594C68.7896 25.6321 68.7896 25.8486 68.6372 25.8867L67.8518 26.083C67.4013 26.1957 67.0494 26.5475 66.9368 26.998L66.7405 27.7834C66.7024 27.9359 66.4859 27.9359 66.4478 27.7834L66.2512 26.998C66.1386 26.5475 65.7867 26.1956 65.3362 26.083L64.5508 25.8867C64.3984 25.8486 64.3984 25.6321 64.5508 25.594L65.3362 25.3975C65.7868 25.2848 66.1386 24.933 66.2512 24.4824L66.4478 23.697Z" fill="#A1D0F7"/>
<path d="M81.5869 45.4922C84.4549 45.4922 86.5491 48.2026 85.8254 50.9778L79.3987 75.6252C78.728 78.1973 76.4051 79.9922 73.7471 79.9922H63.5698C60.7019 79.9921 58.6077 77.2818 59.3313 74.5066L61.4426 66.4087L61.522 66.4089L59.8689 72.6584C59.2564 74.9741 61.0026 77.2424 63.3979 77.2424H73.3772C75.0107 77.2423 76.4453 76.1568 76.8896 74.585L83.8003 50.1355C84.4587 47.806 82.7084 45.4925 80.2876 45.4924H79.334L81.5869 45.4922Z" fill="#75B6EB"/>
<path d="M30.8481 68.948C30.8863 68.7953 31.1032 68.7953 31.1414 68.948L31.3381 69.7349C31.451 70.1862 31.8035 70.5385 32.2549 70.6514L33.0417 70.8481C33.1943 70.8864 33.1943 71.1034 33.0417 71.1416L32.2549 71.3381C31.8035 71.451 31.451 71.8035 31.3381 72.2549L31.1414 73.0417C31.1031 73.1943 30.8864 73.1943 30.8481 73.0417L30.6514 72.2549C30.5385 71.8035 30.186 71.451 29.7346 71.3381L28.9478 71.1416C28.7951 71.1034 28.7951 70.8864 28.9478 70.8481L29.7346 70.6514C30.186 70.5385 30.5385 70.1862 30.6514 69.7349L30.8481 68.948Z" fill="#75B6EB"/>
<path d="M46 62C46.3682 62 46.6667 62.2986 46.6667 62.6667C46.6667 63.0349 46.3682 63.3333 46 63.3333H41.3335C40.9653 63.3333 40.6668 63.0349 40.6667 62.6667C40.6667 62.2986 40.9653 62 41.3335 62H46Z" fill="#75B6EB"/>
<path d="M23.4937 42.2593C23.561 41.9901 23.9438 41.9901 24.0112 42.2593L24.3582 43.6472C24.5572 44.4434 25.1789 45.0651 25.9751 45.2642L27.363 45.6111C27.6323 45.6785 27.6323 46.0613 27.363 46.1287L25.9751 46.4756C25.1789 46.6746 24.5572 47.2963 24.3582 48.0925L24.0112 49.4805C23.9438 49.7496 23.5611 49.7496 23.4937 49.4805L23.1467 48.0925C22.9477 47.2963 22.326 46.6746 21.5298 46.4756L20.1418 46.1287C19.8726 46.0613 19.8726 45.6785 20.1418 45.6111L21.5298 45.2642C22.326 45.0651 22.9477 44.4434 23.1467 43.6472L23.4937 42.2593Z" fill="#75B6EB"/>
<path d="M58.8753 16.9167C58.9325 16.8954 58.9958 16.8868 59.0562 16.9005C59.1167 16.9143 59.1689 16.9487 59.2027 16.9975C59.2366 17.0463 59.2504 17.1072 59.242 17.1686C59.2337 17.23 59.2036 17.2863 59.1637 17.3324C59.1217 17.3806 59.0791 17.4281 59.0362 17.475C58.6502 17.8971 58.228 18.2672 57.7696 18.5849C57.3112 18.9026 56.8199 19.1728 56.2958 19.3957C56.2376 19.4204 56.1789 19.4446 56.12 19.4682C56.0581 19.4927 55.9888 19.5025 55.9227 19.4877C55.8566 19.4729 55.7992 19.4356 55.7621 19.382C55.725 19.3284 55.71 19.2618 55.7193 19.1947C55.7287 19.1276 55.7622 19.0662 55.807 19.0168C55.8498 18.9698 55.893 18.9234 55.9366 18.8776C56.3293 18.4651 56.7549 18.0998 57.2132 17.7821C57.6716 17.4645 58.1663 17.199 58.6971 16.9857C58.7561 16.9621 58.8155 16.9391 58.8753 16.9167Z" fill="#B66A1F"/>
<path d="M41.7699 14.0265C41.8314 14.0347 41.8879 14.0645 41.9339 14.1046C41.9832 14.1478 42.0319 14.1915 42.0799 14.2355C42.5123 14.6322 42.8928 15.0655 43.221 15.5351C43.5492 16.0045 43.8302 16.507 44.0638 17.0426C44.0898 17.1021 44.115 17.1623 44.1397 17.2226C44.165 17.2844 44.1753 17.3537 44.1607 17.4201C44.1463 17.4863 44.109 17.5438 44.0555 17.5812C44.002 17.6186 43.9352 17.6338 43.868 17.6247C43.8007 17.6155 43.7392 17.5822 43.6898 17.5373C43.6417 17.4933 43.5939 17.4488 43.547 17.404C43.1242 17.0006 42.7487 16.5641 42.4205 16.0946C42.0923 15.6251 41.8162 15.1191 41.5921 14.5768C41.5672 14.5166 41.5427 14.4558 41.5191 14.3947C41.4973 14.3376 41.4885 14.274 41.5021 14.2133C41.5156 14.1527 41.5497 14.1002 41.5985 14.0661C41.6473 14.032 41.7084 14.0184 41.7699 14.0265Z" fill="#B66A1F"/>
<path d="M51.0309 12.8378C51.0861 12.808 51.149 12.7994 51.2076 12.8146C51.2662 12.8298 51.3171 12.8677 51.3509 12.9206C51.3848 12.9734 51.3979 13.0367 51.3954 13.0983C51.392 13.1737 51.3883 13.2491 51.3834 13.3241C51.3396 13.9996 51.234 14.6593 51.0672 15.3029C50.9005 15.9465 50.678 16.5759 50.3995 17.1906C50.3686 17.2588 50.3368 17.3268 50.3045 17.3947C50.2755 17.4555 50.2295 17.5092 50.1693 17.5419C50.1091 17.5746 50.0403 17.5841 49.9762 17.5675C49.912 17.5509 49.8562 17.5092 49.8194 17.4513C49.7827 17.3935 49.7687 17.3242 49.7728 17.257C49.7775 17.1819 49.7831 17.1071 49.7892 17.0324C49.8442 16.3598 49.9549 15.7016 50.1217 15.058C50.2884 14.4144 50.517 13.7865 50.8067 13.1747C50.8389 13.1068 50.8717 13.0391 50.9054 12.9716C50.933 12.9164 50.9756 12.8676 51.0309 12.8378Z" fill="#B66A1F"/>
<path fill-rule="evenodd" clip-rule="evenodd" d="M68.7602 19.7825C74.9138 19.4538 80.0837 24.3548 80.0837 30.5171V44.7422H81.4673C84.7335 44.6279 87.422 48.1553 86.4463 51.2739C86.3625 51.5794 86.2786 51.8849 86.1948 52.1904L86.1975 52.1814C84.1687 59.9673 82.1398 67.7532 80.1111 75.5391C79.4245 78.343 76.7068 80.4721 73.82 80.4673C71.0673 80.5034 68.3145 80.5393 65.5617 80.5754H65.5515C64.9343 80.575 64.3169 80.5746 63.6997 80.5742L63.6787 80.574C63.5905 80.5714 63.5022 80.5689 63.414 80.5664C60.9644 80.5778 58.885 78.542 58.4844 76.2156H36.2239C35.4733 76.2155 34.9157 75.5205 35.0786 74.7878C35.3391 73.6164 36.3529 72.7654 37.5517 72.7119L44.1501 72.4177C44.1732 72.4167 44.1852 72.4105 44.1929 72.4053C44.2026 72.3985 44.2133 72.3871 44.2212 72.3708C44.2291 72.3545 44.2315 72.3388 44.2307 72.3269C44.2301 72.3177 44.2275 72.3046 44.2141 72.2859L40.5129 67.1311L23.8633 67.1094C19.1233 67.1031 15.3633 63.1133 15.6379 58.3813L17.2922 29.8755C17.5357 25.681 20.8927 22.3393 25.0884 22.1152L41.9599 21.2139L42.04 22.7119L25.1684 23.613C21.7357 23.7964 18.989 26.5305 18.7898 29.9624L17.1355 58.4683C16.9108 62.3399 19.9871 65.6043 23.8652 65.6094L40.6587 65.6313C40.8014 65.5883 40.9522 65.5896 41.092 65.6318L60.8628 65.658C61.2448 64.2274 61.627 62.797 62.009 61.3664C63.1437 57.1172 64.3295 52.8815 65.5661 48.6594C65.6402 48.4038 65.7349 48.1541 65.8489 47.9143C66.6327 46.2256 68.4267 45.1115 70.2312 45.1355C70.3429 45.1361 70.4514 45.1787 70.5327 45.2563C70.6139 45.334 70.6613 45.4399 70.6645 45.5515C70.6677 45.6631 70.6266 45.7718 70.55 45.854C70.4734 45.9362 70.3674 45.9849 70.2558 45.9919C68.7734 46.0771 67.4295 47.0616 66.897 48.3843C66.819 48.5727 66.7564 48.767 66.7095 48.9648C65.6767 53.2413 64.5929 57.5044 63.4582 61.7537C62.3235 66.0029 61.1886 70.2522 60.0539 74.5015C59.3989 76.6493 61.2118 79.0812 63.4573 79.0669C63.5427 79.0693 63.6282 79.0718 63.7136 79.0742C64.3265 79.0746 64.9395 79.075 65.5525 79.0754L65.5422 79.0757C68.2949 79.0396 71.0476 79.0034 73.8003 78.9673C76.0294 78.9716 78.1301 77.3262 78.6596 75.1609C80.6884 67.375 82.7171 59.5889 84.7458 51.803L84.7483 51.7939C84.832 51.4884 84.9158 51.1827 84.9997 50.8767C85.6954 48.6672 83.7821 46.157 81.4673 46.2422H74.4114C74.2125 46.2422 74.0217 46.1631 73.8811 46.0225C73.7404 45.8818 73.6614 45.6911 73.6614 45.4922C73.6614 45.2933 73.7405 45.1026 73.8811 44.9619C74.0217 44.8213 74.2125 44.7422 74.4114 44.7422H74.7283C74.8324 43.5873 74.9337 42.4297 75.0293 41.272C75.1333 40.0091 75.2325 38.7447 75.3391 37.4824C75.351 37.3405 75.3629 37.2035 75.375 37.0608C75.3811 36.9902 75.4162 36.9235 75.4704 36.8752C75.5249 36.827 75.5942 36.8011 75.665 36.8035C75.7358 36.8059 75.8032 36.8364 75.8542 36.8882C75.9051 36.94 75.9357 37.009 75.937 37.0798C75.9395 37.2229 75.9423 37.3602 75.9448 37.5024C75.9679 38.7677 75.9928 40.0335 76.0288 41.2988C76.0612 42.4449 76.1026 43.5928 76.1379 44.7422H78.5837V30.5171C78.5837 25.2147 74.1352 20.9975 68.8403 21.2803L50.29 22.2712L50.2099 20.7734L68.7602 19.7825ZM45.4326 71.4109C46.166 72.4324 45.473 73.8602 44.2168 73.9163L37.6186 74.2104C37.2462 74.227 36.9149 74.4206 36.7146 74.7156H58.468C58.4993 74.5143 58.5444 74.3135 58.6047 74.1145C58.6421 73.9746 58.6794 73.8347 58.7168 73.6948C57.2447 73.6703 55.7726 73.644 54.3008 73.6252C52.703 73.6048 51.1054 73.5922 49.5078 73.5769C49.3303 73.5752 49.1528 73.5736 48.9753 73.5718C48.9037 73.571 48.834 73.5408 48.7817 73.4897C48.7295 73.4386 48.699 73.3706 48.6968 73.2991C48.6945 73.2275 48.7208 73.1576 48.7698 73.1033C48.8187 73.0491 48.8863 73.0147 48.9577 73.0095C49.1348 72.9967 49.312 72.9839 49.489 72.9712C51.0825 72.8568 52.6762 72.7453 54.2695 72.6257C55.8629 72.5062 57.4561 72.3776 59.0493 72.2522C59.0672 72.2508 59.0851 72.2492 59.103 72.2478C59.156 72.0493 59.2092 71.8508 59.2622 71.6523C59.2545 71.6366 59.2467 71.6209 59.239 71.6052C58.8632 70.8442 58.4777 70.0882 58.1199 69.3174C57.7944 68.6162 57.5308 67.881 57.2539 67.1533L42.3616 67.1335L45.4326 71.4109ZM58.1133 67.1543C58.495 67.6682 58.8773 68.1819 59.217 68.7187C59.4138 69.0298 59.6049 69.3441 59.7944 69.6592C60.0171 68.8253 60.2397 67.9914 60.4624 67.1575L58.1133 67.1543Z" fill="#045EB2"/>
<path d="M79.511 65.293C79.5756 65.2581 79.651 65.25 79.7209 65.2703C79.7908 65.2906 79.85 65.3379 79.886 65.4018C79.9219 65.4659 79.9314 65.5414 79.9145 65.6123C79.841 65.9204 79.7667 66.2283 79.6916 66.5359C79.0515 69.16 78.3551 71.768 77.6028 74.3596C77.5563 74.5196 77.5092 74.6795 77.4617 74.8391C77.0183 76.3896 75.5741 77.5486 74.0134 77.7058C73.8711 77.7219 73.7288 77.7303 73.5859 77.7312C72.2912 77.7367 70.9962 77.7376 69.7014 77.7397C69.385 77.7403 69.0686 77.7409 68.7522 77.7417C68.6794 77.7418 68.6087 77.7124 68.5559 77.6611C68.5031 77.6098 68.4722 77.5407 68.4702 77.468C68.4683 77.3952 68.4953 77.3244 68.5454 77.2703C68.5954 77.2162 68.6644 77.1832 68.737 77.1794C69.0531 77.1633 69.3693 77.147 69.6853 77.1306C70.9783 77.0636 72.2715 76.9955 73.5647 76.9319C73.6794 76.9259 73.793 76.914 73.906 76.8962C75.1516 76.7099 76.1895 75.7352 76.5049 74.5613C76.5502 74.401 76.5961 74.2408 76.6426 74.0808C77.3949 71.4893 78.2033 68.9139 79.0679 66.355C79.1692 66.055 79.2714 65.7551 79.3742 65.4556C79.398 65.3866 79.4463 65.3278 79.511 65.293Z" fill="#045EB2"/>
<path d="M79.4407 57.7483C79.5046 57.7439 79.5624 57.764 79.6024 57.804C79.6424 57.844 79.6609 57.9009 79.6575 57.9617C79.6432 58.2083 79.6147 58.4596 79.5743 58.7102C79.3209 60.2743 78.5963 61.9026 77.4468 63.3127C76.7726 64.1415 75.9284 64.8515 75.0186 65.4026C73.7761 66.1347 72.4522 66.6721 71.0201 66.6719C70.0661 66.611 69.3136 66.2869 68.6539 65.8501C68.4588 65.7177 68.276 65.5722 68.1068 65.4143C68.0569 65.3671 68.0281 65.3004 68.0303 65.2251C68.0326 65.1499 68.0651 65.0725 68.1216 65.0093C68.1783 64.946 68.2551 64.9012 68.3358 64.8838C68.4165 64.8664 68.4939 64.8786 68.555 64.9133C68.7427 65.0188 68.9377 65.1123 69.1382 65.1948C69.8036 65.4661 70.5629 65.6366 71.2667 65.6042C72.2731 65.5117 73.4784 65.0063 74.5008 64.3906C75.2658 63.9268 75.9718 63.3615 76.5645 62.707C77.6244 61.5368 78.4396 60.1522 78.9398 58.6995C79.0194 58.4671 79.0911 58.2313 79.1519 57.9968C79.1677 57.9352 79.2041 57.8744 79.2576 57.8279C79.3111 57.7813 79.3769 57.7528 79.4407 57.7483Z" fill="#783B13"/>
<path d="M74.1832 52.9646C74.7927 52.9609 75.387 53.1453 75.8126 53.4939C75.9442 53.5997 76.0598 53.7193 76.16 53.8484C76.5506 54.3489 77.2254 54.7557 77.9334 55.0728C78.2094 55.1948 78.4952 55.318 78.7723 55.4807C79.0805 55.6604 79.3812 55.9139 79.5391 56.2607C79.5646 56.3169 79.5623 56.3877 79.5347 56.4561C79.507 56.5244 79.4563 56.5849 79.3917 56.6255C79.3271 56.6661 79.2532 56.6837 79.1841 56.676C79.1153 56.6683 79.0566 56.6359 79.0237 56.5845C78.8754 56.3557 78.6339 56.2083 78.3436 56.0984C78.0845 56.0001 77.7923 55.9279 77.4932 55.8518C76.6526 55.6249 75.8104 55.3301 75.1871 54.6311C75.1149 54.5473 75.0368 54.4718 74.9529 54.4048C74.6808 54.1861 74.329 54.0756 73.9263 54.0769C73.3997 54.0756 72.8764 54.2706 72.4151 54.6372C71.511 55.3346 70.5405 55.729 69.5838 56.0188C68.2156 56.3666 67.6199 56.8118 67.2825 58.0273C67.1352 58.5104 67.024 58.9953 66.9544 59.4756C66.7868 60.631 66.8039 61.7624 67.0867 62.8176C67.1163 62.9278 67.1484 63.0372 67.1832 63.1455C67.2796 63.446 67.3963 63.739 67.5386 64.0193C67.5639 64.0685 67.5708 64.129 67.553 64.1907C67.5353 64.2522 67.4949 64.3093 67.4403 64.3506C67.3856 64.3918 67.32 64.4144 67.2569 64.4138C67.1937 64.4132 67.1387 64.3889 67.0997 64.3501C66.8618 64.11 66.6542 63.841 66.4757 63.5518C66.4113 63.4474 66.3504 63.3404 66.2935 63.231C65.7411 62.175 65.5878 60.872 65.7801 59.5696C65.8587 59.0274 65.9835 58.4848 66.1483 57.9456C66.3519 57.3051 66.6331 56.5431 67.3594 55.9167C68.0985 55.3067 68.8498 55.1494 69.4735 54.9521C70.3073 54.7053 71.1488 54.343 71.7935 53.8423C72.4754 53.292 73.3881 52.9515 74.1832 52.9646Z" fill="#783B13"/>
<path fill-rule="evenodd" clip-rule="evenodd" d="M73.2569 55.5923C73.5879 55.6072 73.884 55.7615 74.0682 56.0254C74.2494 56.2852 74.2928 56.6091 74.2122 56.9165L74.2125 56.9167C74.0706 57.4681 73.9286 58.0099 73.7979 58.551L74.8048 58.5176C75.0164 58.5062 75.2232 58.4924 75.4227 58.4756C75.7438 58.4486 76.0596 58.5477 76.286 58.7754C76.5145 59.0054 76.6105 59.3258 76.5648 59.6521C76.4787 60.2651 75.9241 60.7564 75.3192 60.8074C74.6739 60.8617 73.9804 60.8875 73.305 60.8967C73.2222 61.3606 73.1519 61.8146 73.1048 62.2319L73.084 62.4277C73.0234 63.0471 72.4805 63.5524 71.8802 63.626C71.5616 63.665 71.2427 63.581 71.0059 63.366C70.7659 63.1479 70.6526 62.8324 70.6849 62.5024L70.71 62.2656C70.7609 61.8169 70.8328 61.3431 70.9158 60.8706C70.9146 60.8706 70.9132 60.8707 70.9119 60.8706L69.8236 60.8257C69.8221 60.8256 69.8206 60.8255 69.8192 60.8254C69.644 60.8166 69.5035 60.8085 69.4056 60.8027C69.353 60.7996 69.3001 60.7964 69.2474 60.793H69.2462C68.9184 60.771 68.6238 60.6133 68.4442 60.3435C68.2659 60.0757 68.2327 59.7459 68.3255 59.4365C68.4997 58.8563 69.0933 58.4209 69.7061 58.4575H69.7078C69.7112 58.4577 69.7147 58.458 69.7181 58.4583L69.7247 58.4585L69.7486 58.4602C69.7726 58.4617 69.8087 58.4638 69.8558 58.4666C69.9501 58.4721 70.0889 58.48 70.2635 58.4888C70.6406 58.5077 71.0188 58.5223 71.398 58.5339C71.5032 58.0831 71.6142 57.6322 71.731 57.1816C71.7814 56.9875 71.8329 56.793 71.8861 56.5986L71.8865 56.5969C72.0497 56.0095 72.6418 55.5647 73.2569 55.5923ZM73.212 56.5913C73.0761 56.5853 72.8924 56.7126 72.8502 56.8645C72.7984 57.0536 72.7479 57.2431 72.6988 57.4326C72.5714 57.9239 72.4512 58.4154 72.338 58.9067C72.2538 59.2719 71.906 59.5495 71.5235 59.5388C71.0856 59.5265 70.6487 59.5094 70.2132 59.4875C70.0355 59.4786 69.8938 59.4706 69.7967 59.4648C69.7482 59.462 69.7108 59.4596 69.6856 59.458L69.6578 59.4563L69.6575 59.4561C69.6565 59.456 69.6551 59.4561 69.6541 59.4561L69.6478 59.4558C69.5171 59.4472 69.33 59.5686 69.2833 59.7241C69.274 59.7549 69.2744 59.7743 69.2755 59.7827C69.2757 59.7846 69.2759 59.7862 69.2762 59.7874C69.2801 59.7892 69.2913 59.7937 69.3128 59.7952C69.3633 59.7984 69.4139 59.8014 69.4647 59.8044C69.5593 59.81 69.6956 59.8178 69.8658 59.8264L70.9486 59.8713C71.0631 59.875 71.178 59.8785 71.2928 59.8816C71.4896 59.8868 71.6864 59.9703 71.8216 60.1372C71.9569 60.3042 71.9977 60.5143 71.9615 60.7083C71.8397 61.361 71.7376 62.0146 71.6802 62.5999C71.6792 62.6108 71.6795 62.6185 71.68 62.623C71.6802 62.6245 71.6805 62.6257 71.6807 62.6267C71.6827 62.6277 71.6857 62.6293 71.6903 62.6306C71.7014 62.6338 71.7237 62.6376 71.7586 62.6333C71.9335 62.6118 72.0774 62.445 72.0887 62.3303L72.1109 62.1208C72.1667 61.6264 72.251 61.0933 72.3485 60.5625L72.3648 60.4922C72.4623 60.1479 72.7918 59.9025 73.1417 59.8989C73.85 59.8918 74.5737 59.8665 75.2352 59.8108C75.4019 59.7967 75.557 59.6375 75.5745 59.5132C75.5772 59.4943 75.5752 59.4835 75.5743 59.4792C75.5729 59.4786 75.571 59.4779 75.5687 59.4771C75.5597 59.474 75.5397 59.4694 75.5067 59.4722C75.294 59.4901 75.0749 59.5047 74.8526 59.5166C74.8492 59.5168 74.8457 59.517 74.8424 59.5171L73.6861 59.5554C73.6833 59.5555 73.6804 59.5556 73.6776 59.5557C73.5918 59.557 73.506 59.558 73.4205 59.5588C73.2156 59.5607 73.007 59.4781 72.8655 59.3025C72.7241 59.1268 72.6877 58.9051 72.7337 58.7051C72.891 58.0212 73.0717 57.3382 73.2442 56.6675L73.2452 56.6638C73.2528 56.635 73.2519 56.6162 73.2506 56.6072C73.2499 56.6027 73.2487 56.5998 73.2481 56.5984C73.2454 56.597 73.2346 56.5923 73.212 56.5913Z" fill="#783B13"/>
<path d="M63.2715 32.7495C63.3355 32.7449 63.3976 32.7656 63.4454 32.8071C63.4931 32.8488 63.5227 32.9079 63.5262 32.9714C63.5629 33.6512 63.5696 34.3411 63.5491 35.0269C63.4194 39.2908 62.2448 43.6922 59.7884 47.4363C59.7832 47.4443 59.7779 47.4524 59.7728 47.4602C57.5072 50.9087 54.1394 53.5467 50.4166 55.1689C48.5925 55.9427 46.6781 56.5331 44.6207 56.5256C42.1805 56.4238 39.9869 55.6141 38.0115 54.49C37.4233 54.1491 36.8588 53.7725 36.3231 53.3613C36.2622 53.3144 36.2203 53.2459 36.2086 53.168C36.1969 53.0901 36.2161 53.0095 36.2623 52.9436C36.3085 52.8777 36.3783 52.831 36.4569 52.8135C36.5354 52.7959 36.6162 52.8094 36.6829 52.8479C37.2496 53.1742 37.833 53.4674 38.4295 53.7283C40.4164 54.5863 42.5913 55.1617 44.6934 55.1399C46.3955 55.0682 48.193 54.4944 49.8704 53.7761C53.3269 52.2712 56.4533 49.8264 58.5425 46.6885C58.5475 46.681 58.5525 46.6734 58.5574 46.666C60.8687 43.1961 62.4321 39.1802 62.8995 35.0159C62.9732 34.3494 63.0174 33.6748 63.0267 33.0076C63.0276 32.9438 63.0546 32.8807 63.1004 32.8323C63.1463 32.7839 63.2075 32.7542 63.2715 32.7495Z" fill="#783B13"/>
<path d="M46.7423 19.7637C48.6679 19.7896 50.5666 20.6276 51.8397 21.9907C51.8583 22.0101 51.8772 22.0297 51.8963 22.0491C53.4142 23.544 55.5396 24.5401 57.6817 25.3345C59.1693 25.897 60.8355 26.4258 62.0416 27.7256C62.8269 28.5762 63.2141 29.6955 63.3504 30.7822C63.3594 30.8521 63.3431 30.9252 63.3021 30.9861C63.261 31.0469 63.1991 31.0903 63.1295 31.1072C63.0597 31.124 62.9869 31.1131 62.9271 31.0767C62.8672 31.0402 62.8253 30.9811 62.8077 30.9133C62.5511 29.916 62.0958 29.0112 61.3804 28.3823C60.2959 27.4189 58.7472 27.0262 57.2183 26.5586C54.9208 25.8501 52.6296 24.9094 50.8013 23.126C50.7781 23.1025 50.755 23.0788 50.7322 23.0552C49.6364 21.8953 48.1103 21.2444 46.4774 21.2573C44.8459 21.2434 43.2506 21.8936 42.032 23.0535C40.0588 24.86 37.6864 25.9382 35.2957 26.7153C33.6678 27.2432 32.0252 27.7304 31.0052 28.7854C29.9729 29.8275 29.5629 31.4506 29.357 33.0659C29.1404 34.7854 29.0808 36.5217 29.201 38.2292C29.4101 41.2332 30.0823 44.1935 31.4244 46.8667C31.8481 47.7118 32.3297 48.5283 32.8765 49.2988C33.4718 50.1371 34.1453 50.9222 34.9073 51.6145C34.9533 51.6563 34.98 51.7167 34.9822 51.7812C34.9844 51.8458 34.9619 51.9095 34.919 51.959C34.8761 52.0084 34.8159 52.0402 34.751 52.0479C34.6862 52.0554 34.6218 52.0382 34.5731 51.9995C33.7385 51.3351 32.9794 50.5786 32.2908 49.7622C31.6584 49.0119 31.0852 48.21 30.5701 47.3694C28.9326 44.7066 27.9683 41.5937 27.7437 38.408C27.6135 36.5992 27.6738 34.7697 27.8987 32.96C28.1283 31.2317 28.5284 29.284 29.9727 27.7864C31.4397 26.3131 33.2956 25.8529 34.9102 25.3071C37.1512 24.5819 39.3621 23.5405 41.0401 21.9927C42.4551 20.6294 44.4409 19.7905 46.3692 19.7637H46.7423Z" fill="#783B13"/>
<path d="M52.9798 35.1438C54.3173 34.973 55.6057 36.0555 55.6387 37.4197C55.7368 38.7756 54.5547 40.1371 53.1624 40.2378C51.2493 40.4268 49.2965 40.6497 47.3065 40.6169C47.2455 42.1902 47.2181 43.7617 47.2757 45.3118C47.364 46.7043 46.1492 48.0685 44.7545 48.1594C43.3614 48.3161 42.0708 47.1805 42.0557 45.8071C41.9981 43.9708 42.0554 42.1418 42.1619 40.3176C42.1673 40.2968 42.1592 40.2722 42.1402 40.2571C42.1332 40.2516 42.1257 40.2475 42.1146 40.2451C41.6878 40.2105 41.2409 40.2154 40.7711 40.219C40.6159 40.22 40.4684 40.1612 40.3616 40.0537C40.2549 39.9462 40.1973 39.7991 40.2015 39.6443C40.2057 39.4894 40.2715 39.3389 40.3843 39.2258C40.4971 39.1129 40.6477 39.0466 40.803 39.0398C41.2656 39.0194 41.7531 38.9951 42.2537 39.0178C42.4324 39.0268 42.6105 39.0741 42.7681 39.1562C43.183 39.3671 43.4492 39.8267 43.4283 40.3057C43.3817 42.1045 43.375 43.9013 43.4695 45.6729C43.492 46.2937 44.0845 46.7808 44.6917 46.6992C45.3014 46.6485 45.815 46.0471 45.7686 45.4546C45.6914 43.8139 45.7137 42.1798 45.7777 40.5491C45.7807 40.4722 45.7899 40.3946 45.8055 40.3176C45.9378 39.6085 46.6385 39.0593 47.338 39.0889C49.218 39.1338 51.1495 38.9415 53.1104 38.7896C53.7228 38.7631 54.2827 38.1711 54.2608 37.5403C54.2711 36.9091 53.6887 36.3542 53.025 36.4072C52.8536 36.4188 52.6824 36.4294 52.5113 36.439C51.9422 36.4708 51.3744 36.4924 50.8077 36.5063C50.6539 36.5101 50.5064 36.4551 50.398 36.3511C50.2897 36.2471 50.2293 36.1028 50.2298 35.9497C50.2304 35.7965 50.292 35.6463 50.4012 35.5317C50.5104 35.4172 50.6582 35.3478 50.8121 35.3367C51.3693 35.2963 51.9256 35.2501 52.48 35.1956C52.6468 35.1791 52.8135 35.1618 52.9798 35.1438Z" fill="#783B13"/>
<path fill-rule="evenodd" clip-rule="evenodd" d="M43.024 29.3838C43.1804 27.9993 44.5887 26.8691 45.9483 27.02C47.294 27.1058 48.3331 28.3963 48.1492 29.7261C48.1491 29.7276 48.1487 29.7325 48.1485 29.7341C48.1464 29.7502 48.1443 29.7664 48.1422 29.7825L48.1402 29.7959C48.1383 29.8094 48.1386 29.8096 48.138 29.814C48.1347 29.8374 48.1306 29.8637 48.127 29.8892C48.113 29.9889 48.0994 30.0889 48.0858 30.189C48.0344 30.566 47.9848 30.9437 47.9366 31.322C47.7625 32.687 47.6049 34.0537 47.4642 35.4214C47.464 35.4226 47.4636 35.4238 47.4634 35.4248C47.4634 35.4251 47.4635 35.4255 47.4634 35.4258C47.4793 35.4312 47.5013 35.4373 47.5296 35.4387C47.7391 35.448 47.9497 35.4506 48.1685 35.4512C48.3146 35.4516 48.4529 35.5082 48.5526 35.6104C48.6522 35.7126 48.7053 35.8519 48.7 35.9978C48.6948 36.1437 48.6316 36.285 48.5245 36.3906C48.4173 36.4962 48.2748 36.5573 48.1285 36.5625C47.9055 36.5705 47.6742 36.5766 47.4429 36.575C47.1906 36.5711 46.8958 36.5098 46.6431 36.2925C46.3849 36.0791 46.2668 35.7 46.2908 35.4126C46.2914 35.4028 46.2918 35.3931 46.2925 35.3833C46.3859 34.0028 46.5019 32.6222 46.6402 31.2427C46.6786 30.8599 46.7187 30.4774 46.7613 30.0942C46.7726 29.9923 46.7841 29.8903 46.796 29.7883C46.7989 29.7628 46.802 29.738 46.8052 29.7104C46.8067 29.6926 46.8158 29.6397 46.8196 29.6221L46.8069 29.6946L46.8113 29.6541C46.8809 29.0253 46.3765 28.443 45.7637 28.4192C45.1767 28.3666 44.5903 28.8318 44.4791 29.3999C44.478 29.453 44.4704 29.506 44.4573 29.5579C44.4551 29.5758 44.4529 29.5932 44.4507 29.6108C44.438 29.7154 44.4253 29.8212 44.4129 29.9268C44.367 30.3164 44.3232 30.7069 44.2806 31.0977C44.1301 32.4769 43.9959 33.857 43.8785 35.2375C43.8451 35.6673 43.5994 36.0913 43.2364 36.3438C42.9719 36.5322 42.6395 36.631 42.3238 36.6174C41.1183 36.6161 39.8969 36.6182 38.6668 36.5464C38.2861 36.5241 37.9059 36.5002 37.525 36.4736C37.4238 36.4666 37.3225 36.4592 37.221 36.4517C37.1957 36.4498 37.1712 36.4479 37.1436 36.4458C37.1373 36.4453 37.1277 36.4446 37.1243 36.4443C37.1343 36.4449 37.1337 36.4448 37.1395 36.4451C37.1297 36.4448 37.1045 36.4425 37.0887 36.4409L37.1185 36.4438C36.5082 36.3758 35.8625 36.8841 35.7852 37.5215C35.6799 38.1377 36.139 38.7724 36.7801 38.8479C36.7963 38.8502 36.8128 38.8521 36.8294 38.8538C36.9695 38.866 37.1113 38.8779 37.2532 38.8896C37.6262 38.9204 38.0001 38.9494 38.3743 38.9778C38.5272 38.9894 38.6677 39.0593 38.7647 39.1743C38.8617 39.2893 38.9073 39.4399 38.8914 39.5933C38.8755 39.7467 38.7995 39.8912 38.6798 39.9951C38.5601 40.099 38.4066 40.1535 38.253 40.1494C37.874 40.1391 37.4953 40.1269 37.116 40.1125C36.9715 40.1071 36.8266 40.1013 36.6819 40.095C36.6479 40.0932 36.6153 40.0908 36.5831 40.0879C35.2912 40.0002 34.2661 38.7527 34.4381 37.4304C34.5518 36.0703 35.916 34.9016 37.2899 35.0164H37.2906C37.2916 35.0164 37.2928 35.0165 37.294 35.0166C37.3125 35.0178 37.3092 35.0177 37.3123 35.0178C37.3354 35.0191 37.362 35.0204 37.3875 35.0217C37.4869 35.027 37.5867 35.0323 37.6866 35.0374C38.0629 35.0562 38.4401 35.0734 38.8177 35.0898C39.9928 35.1408 41.1878 35.1294 42.3963 35.1284C42.5155 33.7539 42.6563 32.38 42.8189 31.0078C42.8657 30.6131 42.9143 30.2188 42.9654 29.8237C42.9793 29.7167 42.9932 29.6098 43.0076 29.502C43.0115 29.473 43.0157 29.443 43.0194 29.4163C43.02 29.4115 43.0202 29.4108 43.0225 29.3933C43.0238 29.3837 43.0264 29.3661 43.0235 29.3865C43.0236 29.3856 43.0239 29.3847 43.024 29.3838ZM47.4381 35.4126C47.4323 35.4104 47.4356 35.4138 47.4466 35.4192C47.444 35.4161 47.4412 35.4135 47.4381 35.4126Z" fill="#783B13"/>
</svg>
