<svg fill="none" viewBox="0 0 96 96" xmlns="http://www.w3.org/2000/svg">
   <path fill="#FFD65C" fill-rule="evenodd" d="M40 54a2 2 0 0 1 2-2h3a2 2 0 0 1 2 2v24a2 2 0 0 1-2 2h-3a2 2 0 0 1-2-2V54Zm9 0a2 2 0 0 1 2-2h3a2 2 0 0 1 2 2v24a2 2 0 0 1-2 2h-3a2 2 0 0 1-2-2V54Zm11-2a2 2 0 0 0-2 2v24a2 2 0 0 0 2 2h3a2 2 0 0 0 2-2V54a2 2 0 0 0-2-2h-3Z" clip-rule="evenodd"/>
   <path fill="#FFE8A3" fill-rule="evenodd" d="M22 54a2 2 0 0 1 2-2h3a2 2 0 0 1 2 2v24a2 2 0 0 1-2 2h-3a2 2 0 0 1-2-2V54Zm9 0a2 2 0 0 1 2-2h3a2 2 0 0 1 2 2v24a2 2 0 0 1-2 2h-3a2 2 0 0 1-2-2V54Zm38-2a2 2 0 0 0-2 2v24a2 2 0 0 0 2 2h3a2 2 0 0 0 2-2V54a2 2 0 0 0-2-2h-3Z" clip-rule="evenodd"/>
   <path fill="url(#Information-Remover-128_svg__a)" fill-rule="evenodd" d="M29 65h-7v5h7v-5Zm36 0h-7v5h7v-5Zm2 0h7v5h-7v-5Zm-29 0h-7v5h7v-5Zm2 0h7v5h-7v-5Zm16 0h-7v5h7v-5Z" clip-rule="evenodd" opacity=".5"/>
   <mask id="Information-Remover-128_svg__b" width="64" height="24" x="16" y="46" maskUnits="userSpaceOnUse" style="mask-type:alpha">
     <path fill="#7295F6" d="M16 58v-4.64A7.36 7.36 0 0 1 23.36 46h49.28A7.36 7.36 0 0 1 80 53.36v9.28A7.36 7.36 0 0 1 72.64 70H23.36A7.36 7.36 0 0 1 16 62.64V58Z"/>
   </mask>
   <g mask="url(#Information-Remover-128_svg__b)">
     <path fill="#A591DC" d="M16 46h64v24H16V46Z"/>
     <path fill="#6B4EBA" d="M16 64a6 6 0 0 0 6 6h52a6 6 0 0 0 6-6v-2.48A3.52 3.52 0 0 0 76.48 58H19.52A3.52 3.52 0 0 0 16 61.52V64Z"/>
   </g>
   <path fill="#6B4EBA" d="M18 52a2 2 0 0 1 2-2h56a2 2 0 0 1 2 2v1a2 2 0 0 1-2 2H20a2 2 0 0 1-2-2v-1Z"/>
   <path fill="#FFE8A3" d="M22 24a8 8 0 0 1 8-8h36a8 8 0 0 1 8 8v31H22V24Z"/>
   <path fill="#FFD65C" d="M22 24a8 8 0 0 1 8-8h36a8 8 0 0 1 8 8v11H22V24Z"/>
   <path fill="#C18010" d="M46 32c0 5.523-4.477 10-10 10s-10-4.477-10-10 4.477-10 10-10 10 4.477 10 10Z"/>
   <path fill="#E2A412" d="M43.516 38.596A9.962 9.962 0 0 0 46 32c0-5.523-4.477-10-10-10s-10 4.477-10 10c0 2.527.938 4.836 2.484 6.596a8.128 8.128 0 0 1 15.032 0Z"/>
   <path fill="#C18010" d="M40.063 29.5a4.063 4.063 0 1 1-8.126 0 4.063 4.063 0 0 1 8.125 0Z"/>
   <path fill="#ADC2FC" d="M76 63a2 2 0 1 1-4 0 2 2 0 0 1 4 0Zm-7 0a2 2 0 1 1-4 0 2 2 0 0 1 4 0Z"/>
   <path fill="#FFD65C" d="M40 47a3 3 0 0 1 3-3h19a3 3 0 0 1 3 3v8H40v-8Z"/>
   <path fill="url(#Information-Remover-128_svg__c)" d="M22 53h52v2H22v-2Z" opacity=".2"/>
   <defs>
     <linearGradient id="Information-Remover-128_svg__a" x1="48" x2="48" y1="70" y2="65" gradientUnits="userSpaceOnUse">
       <stop stop-opacity="0"/>
       <stop offset=".809" stop-opacity=".63"/>
     </linearGradient>
     <linearGradient id="Information-Remover-128_svg__c" x1="48" x2="48" y1="53" y2="55" gradientUnits="userSpaceOnUse">
       <stop stop-opacity="0"/>
       <stop offset="1"/>
     </linearGradient>
   </defs>
 </svg> 