<svg width="48" height="48" viewBox="0 0 48 48" fill="none" xmlns="http://www.w3.org/2000/svg">
<path d="M12.4208 2.09973C19.8866 -0.699875 28.1141 -0.699952 35.58 2.09973C38.1917 3.0793 39.8289 5.68158 39.5819 8.46008L38.3954 21.8048C38.1851 24.1703 35.9519 25.818 33.6298 25.3204C31.9066 24.9512 30.1672 24.6835 28.4208 24.5148C28.2026 23.5046 27.5484 22.6566 26.6649 22.1779C26.2945 21.9771 25.9236 21.7647 25.6346 21.4581L16.1493 11.3937C15.548 10.7557 14.527 11.4917 14.9423 12.2638L21.2421 23.9757C21.3105 24.103 21.3603 24.2372 21.3983 24.3751C19.0409 24.5088 16.6907 24.8231 14.37 25.3204C12.048 25.8178 9.81463 24.1703 9.60437 21.8048L8.41785 8.46008C8.17086 5.68147 9.80882 3.07921 12.4208 2.09973Z" fill="#DE5833"/>
<path fill-rule="evenodd" clip-rule="evenodd" d="M19.25 8.42739C19.25 7.08024 20.7083 6.23819 21.875 6.91177L29.375 11.2418C30.5417 11.9154 30.5417 13.5995 29.375 14.2731L22.5674 18.2028L19.25 14.6833V8.42739Z" fill="#9A3216"/>
<path d="M23.9999 29.757C25.9329 29.757 27.4999 28.19 27.4999 26.257C27.4999 24.9725 26.8079 23.8495 25.7764 23.2407C25.3442 22.9856 24.9105 22.7134 24.6024 22.3173L16.0754 11.3541C15.5355 10.6599 14.4476 11.3016 14.7941 12.11L20.2965 24.949C20.472 25.3584 20.4999 25.8115 20.4999 26.257Lnan nanL20.4999 26.257C20.4999 28.19 22.0669 29.757 23.9999 29.757Z" fill="#444444"/>
<rect x="3" y="32" width="42" height="16" rx="8" fill="#F9BE1A"/>
<path d="M16.0913 41.1094H16.1812V35.9482H17.8032V44.0518H16.3999L12.6489 38.8691H12.5591V44.0518H10.936V35.9482H12.3511L16.0913 41.1094Z" fill="black" fill-opacity="0.96"/>
<path d="M25.144 37.3467H21.4722V39.3008H24.936V40.6035H21.4722V42.6533H25.144V44.0518H19.7759V35.9482H25.144V37.3467Z" fill="black" fill-opacity="0.96"/>
<path d="M29.4663 41.7383H29.5562L31.0337 35.9482H32.4653L33.9702 41.7383H34.0601L35.312 35.9482H37.064L34.9136 44.0518H33.3247L31.7915 38.5938H31.7017L30.1851 44.0518H28.5854L26.4399 35.9482H28.2036L29.4663 41.7383Z" fill="black" fill-opacity="0.96"/>
</svg>
