<svg width="96" height="96" viewBox="0 0 96 96" fill="none" xmlns="http://www.w3.org/2000/svg">
<path d="M67.259 71.1271C71.9033 72.1223 76.3706 68.8269 76.7912 64.0958L79.1643 37.4044C79.2061 36.9342 79.2206 36.4665 79.2092 36.0032C79.1649 34.2053 77.5176 33.0001 75.7192 33.0001H48.5002C43.2557 33 38.7103 30.0092 36.4753 25.6403C35.4479 23.6319 33.3529 22.093 31.1716 22.6685C29.0373 23.2315 26.9243 23.9035 24.841 24.6847C19.6172 26.6436 16.3423 31.8473 16.8362 37.4044L19.2092 64.0958C19.6299 68.8269 24.0971 72.1223 28.7414 71.1271C41.4366 68.4067 54.5639 68.4067 67.259 71.1271Z" fill="#DE5833"/>
<path d="M58.75 42.9689C61.0833 44.316 61.0833 47.6839 58.75 49.031L43.75 57.6913C41.4167 59.0384 38.5 57.3545 38.5 54.6602L38.5 37.3397C38.5 34.6454 41.4167 32.9615 43.75 34.3086L58.75 42.9689Z" fill="#9A3216"/>
<path d="M49.9998 78C53.8658 78 56.9998 74.866 56.9998 71C56.9998 68.3395 55.5156 66.0257 53.33 64.8413C52.589 64.4398 51.8473 64.015 51.2693 63.4017L32.2979 43.2735C31.0952 41.9975 29.0547 43.4686 29.8853 45.0129L42.4838 68.4365C42.9026 69.2152 42.9998 70.1157 42.9998 71C42.9998 74.866 46.1338 78 49.9998 78Z" fill="white"/>
<path d="M47.9999 80C51.8659 80 54.9999 76.8659 54.9999 73C54.9999 70.4309 53.6159 68.185 51.5528 66.9674C50.6884 66.4571 49.821 65.9128 49.2048 65.1205L32.1509 43.1941C31.071 41.8057 28.8953 43.0892 29.5881 44.7059L40.593 70.3839C40.944 71.2028 40.9999 72.109 40.9999 73C40.9999 76.8659 44.1339 80 47.9999 80Z" fill="#444444"/>
<path d="M39 19C39 13.4772 43.4772 9 49 9H83C88.5228 9 93 13.4772 93 19V19C93 24.5228 88.5228 29 83 29H49C43.4772 29 39 24.5228 39 19V19Z" fill="#F9BE1A"/>
<path d="M48.8799 17.3369H49.0176L54.7686 25.0322H56.9189V13H54.4326V20.6631H54.2949L48.5605 13H46.3916V25.0322H48.8799V17.3369ZM68.9521 22.957H62.7783V19.9131L68.6016 19.9131V17.9785L62.7783 17.9785V15.0771L68.9521 15.0771V13L59.9277 13V25.0322L68.9521 25.0322V22.957ZM76.2891 25.0322L78.6504 16.9287H78.791L81.1777 25.0322H83.6523L87 13H84.2715L82.3223 21.5967H82.1826L79.8389 13H77.6094L75.3076 21.5967H75.168L73.2021 13H70.4561L73.7969 25.0322H76.2891Z" fill="black"/>
</svg>
