<svg width="20" height="20" viewBox="0 0 20 20" fill="none" xmlns="http://www.w3.org/2000/svg">
<path d="M10 0C4.47715 0 0 4.47715 0 10C0 15.5228 4.47715 20 10 20C15.5228 20 20 15.5228 20 10C20 4.47715 15.5228 0 10 0Z" fill="#4CBA3C"/>
<path fill-rule="evenodd" clip-rule="evenodd" d="M15.3952 6.32159C15.7008 6.62614 15.7017 7.1208 15.3972 7.42644L9.96041 12.8827C9.21695 13.6288 8.00494 13.6163 7.27702 12.855L4.59159 10.0465C4.2934 9.73464 4.30448 9.2401 4.61634 8.94192C4.92819 8.64373 5.42273 8.65481 5.72091 8.96667L8.40635 11.7752C8.52767 11.9021 8.72967 11.9042 8.85358 11.7798L14.2903 6.32356C14.5949 6.01792 15.0895 6.01703 15.3952 6.32159Z" fill="white"/>
</svg>
