<svg width="512" height="512" viewBox="0 0 512 512" fill="none" xmlns="http://www.w3.org/2000/svg">
<path fill-rule="evenodd" clip-rule="evenodd" d="M256 512C397.385 512 512 397.385 512 256C512 114.615 397.385 0 256 0C114.615 0 0 114.615 0 256C0 397.385 114.615 512 256 512Z" fill="#DE5833"/>
<path fill-rule="evenodd" clip-rule="evenodd" d="M292 447C292 445 292.491 444.544 286.133 431.872C269.237 398.037 252.256 350.336 259.979 319.573C261.387 313.984 244.064 112.597 231.819 106.112C218.208 98.8584 201.462 87.3523 186.144 84.7923C178.373 83.5489 168.183 84.1378 160.217 85.2106C158.801 85.4013 158.743 87.946 160.096 88.4044C165.326 90.1762 171.676 93.2525 175.418 97.9038C176.127 98.7842 175.176 100.169 174.047 100.211C170.519 100.341 164.119 101.82 155.676 108.992C154.699 109.821 155.51 111.362 156.767 111.113C174.913 107.523 193.445 109.292 204.367 119.218C205.075 119.863 204.705 121.018 203.781 121.27C109.004 147.026 127.766 229.47 152.997 330.645C175.47 420.764 183.928 449.811 186.594 458.66C186.852 459.517 187.455 460.196 188.286 460.527C220.912 473.519 292 474.096 292 452V447Z" fill="#DDDDDD"/>
<path fill-rule="evenodd" clip-rule="evenodd" d="M491 256C491 385.787 385.787 491 256 491C126.213 491 21 385.787 21 256C21 126.213 126.213 21 256 21C385.787 21 491 126.213 491 256ZM201.157 463.942C194.663 443.882 176.514 385.739 158.589 312.26C157.992 309.812 157.396 307.375 156.802 304.951L156.787 304.89C135.09 216.266 117.368 143.88 214.495 121.14C215.383 120.932 215.818 119.87 215.23 119.173C204.086 105.953 183.209 101.619 156.812 110.726C155.729 111.1 154.789 110.008 155.461 109.081C160.638 101.946 170.753 96.4602 175.747 94.0553C176.78 93.5582 176.717 92.0469 175.623 91.7046C172.357 90.6821 166.795 89.1173 160.539 88.1075C159.059 87.8686 158.925 85.332 160.411 85.132C197.834 80.0971 236.913 91.3325 256.523 116.035C256.708 116.268 256.975 116.43 257.265 116.492C329.077 131.914 334.218 245.432 325.946 250.603C324.315 251.622 319.088 251.037 312.194 250.266C284.252 247.139 228.922 240.949 274.588 326.055C275.039 326.895 274.441 328.008 273.499 328.155C247.836 332.145 280.52 412.292 304.749 465.45C400.007 443.367 471 357.974 471 256C471 137.259 374.741 41 256 41C137.259 41 41 137.259 41 256C41 355.787 108.981 439.697 201.157 463.942Z" fill="white"/>
<path d="M337.121 362.792C331.654 360.259 310.634 375.333 296.683 386.905C293.767 382.78 288.269 379.781 275.868 381.938C265.014 383.825 259.022 386.442 256.349 390.954C239.217 384.458 210.396 374.435 203.434 384.115C195.823 394.697 205.336 444.757 215.444 451.257C220.722 454.65 245.967 438.424 259.15 427.234C261.277 430.231 264.701 431.946 271.74 431.783C282.387 431.536 299.654 429.059 302.334 424.1C302.497 423.799 302.637 423.443 302.757 423.038C316.307 428.102 340.154 433.462 345.482 432.661C359.365 430.576 343.548 365.77 337.121 362.792Z" fill="#3CA82B"/>
<path d="M297.961 388.386C298.536 389.411 298.998 390.492 299.391 391.592C301.322 396.994 304.47 414.18 302.09 418.425C299.71 422.67 284.252 424.72 274.716 424.885C265.181 425.049 263.034 421.562 261.102 416.16C259.557 411.838 258.796 401.677 258.815 395.859C258.424 387.229 261.577 384.195 276.151 381.837C286.936 380.091 292.638 382.121 295.929 385.595C311.241 374.167 336.788 358.04 339.28 360.987C351.704 375.684 353.275 410.67 350.584 424.745C349.705 429.347 308.565 420.186 308.565 415.224C308.565 394.617 303.218 388.964 297.961 388.386Z" fill="#4CBA3C"/>
<path d="M207.842 381.951C211.211 376.618 238.536 383.25 253.535 389.925C253.535 389.925 250.453 403.889 255.36 420.341C256.795 425.153 220.852 446.572 216.16 442.887C210.738 438.628 200.759 393.16 207.842 381.951Z" fill="#4CBA3C"/>
<path fill-rule="evenodd" clip-rule="evenodd" d="M221.076 273.626C223.286 264.013 233.585 245.898 270.36 246.338C288.952 246.26 312.046 246.33 327.357 244.591C350.114 242.006 367.006 236.501 378.262 232.211C394.181 226.137 399.831 227.492 401.811 231.126C403.988 235.118 401.423 242.013 395.861 248.36C385.236 260.484 366.135 269.878 332.401 272.666C298.667 275.454 276.319 266.405 266.698 281.138C262.549 287.492 265.757 302.468 298.38 307.184C342.464 313.546 378.669 299.518 383.142 307.99C387.616 316.462 361.847 333.7 317.692 334.061C273.537 334.422 245.957 318.601 236.176 310.737C223.767 300.76 218.215 286.209 221.076 273.626Z" fill="#FFCC33"/>
<g opacity="0.8">
<path d="M277.308 168.508C279.77 164.475 285.232 161.362 294.17 161.362C303.108 161.362 307.312 164.919 310.223 168.885C310.815 169.692 309.918 170.641 309 170.244C308.779 170.149 308.555 170.051 308.328 169.952C305.059 168.524 301.046 166.771 294.17 166.673C286.816 166.569 282.179 168.41 279.259 169.998C278.275 170.533 276.724 169.464 277.308 168.508Z" fill="#14307E"/>
<path d="M176.683 173.668C185.362 170.041 192.182 170.51 197.005 171.65C198.02 171.891 198.725 170.798 197.913 170.143C194.171 167.124 185.794 163.376 174.869 167.45C165.124 171.084 160.531 178.634 160.503 183.598C160.497 184.768 162.904 184.867 163.526 183.877C165.208 181.201 168.004 177.295 176.683 173.668Z" fill="#14307E"/>
<path fill-rule="evenodd" clip-rule="evenodd" d="M301.762 223.679C294.089 223.679 287.865 217.473 287.865 209.834C287.865 202.195 294.089 195.989 301.762 195.989C309.434 195.989 315.658 202.195 315.658 209.834C315.658 217.473 309.434 223.679 301.762 223.679ZM311.549 205.248C311.549 203.27 309.929 201.667 307.951 201.667C305.973 201.667 304.37 203.27 304.353 205.248C304.353 207.225 305.973 208.828 307.951 208.828C309.946 208.828 311.549 207.225 311.549 205.248Z" fill="#14307E"/>
<path fill-rule="evenodd" clip-rule="evenodd" d="M209.693 219.416C209.693 228.333 202.447 235.563 193.495 235.563C184.561 235.563 177.298 228.333 177.298 219.416C177.298 210.498 184.561 203.269 193.495 203.269C202.43 203.269 209.693 210.498 209.693 219.416ZM204.919 214.062C204.919 211.76 203.043 209.885 200.725 209.885C198.423 209.885 196.547 211.743 196.53 214.062C196.53 216.364 198.406 218.239 200.725 218.239C203.043 218.239 204.919 216.364 204.919 214.062Z" fill="#14307E"/>
</g>
</svg>
