<svg fill="none" viewBox="0 0 24 24" xmlns="http://www.w3.org/2000/svg">
  <path fill="#ADC2FC" d="M21.333 12a9.333 9.333 0 1 1-18.667 0 9.333 9.333 0 0 1 18.667 0" opacity=".2"/>
  <path fill="#3969EF" d="M12 6.833c.46 0 .833.373.833.834v5.666a.833.833 0 0 1-1.666 0V7.667c0-.46.373-.834.833-.834m0 10.5a1 1 0 1 0 0-2 1 1 0 0 0 0 2"/>
  <path fill="#3969EF" fill-rule="evenodd" d="M2 12C2 6.477 6.477 2 12 2s10 4.477 10 10-4.477 10-10 10S2 17.523 2 12m10-8.667a8.667 8.667 0 1 0 0 17.334 8.667 8.667 0 0 0 0-17.334Z" clip-rule="evenodd"/>
</svg>
