<svg width="1280" height="200" viewBox="0 0 1280 200" fill="none" xmlns="http://www.w3.org/2000/svg">
<g clip-path="url(#clip0_3427_33584)">
<g filter="url(#filter0_nn_3427_33584)">
<path d="M740.228 207.255C834.308 207.255 1032.91 207.255 1091.92 207.255L1096.89 188.846C1091.54 179.819 1085.57 171.021 1078.98 162.527C1056.24 133.246 1017.87 92.8842 978.857 90.6487C939.845 88.4131 912.367 115.02 909.289 156.9C894.219 140.856 881.167 131.108 868.166 140.462C855.126 149.843 855.198 176.621 838.928 187.441C813.371 204.428 730.987 156.157 740.228 207.255Z" fill="#C9E3FF"/>
</g>
<path d="M885.869 212.036C885.845 212.215 885.893 212.397 886.003 212.54C886.113 212.684 886.275 212.778 886.454 212.802C886.634 212.826 886.815 212.778 886.959 212.669C887.102 212.559 887.196 212.397 887.22 212.217C887.22 212.217 887.22 212.217 887.22 212.217C887.507 210.082 887.817 208.029 888.191 205.918C889.359 199.629 890.758 193.146 894.114 187.798C897.273 181.976 904.648 181.136 910.359 183.962C916.932 186.626 922.789 190.769 929.728 193.2C933.075 194.498 937.889 193.938 940.086 190.651C942.38 187.629 943.386 184.085 944.265 180.561C944.679 178.841 945.143 177.277 945.789 175.665C947.374 171.461 950.665 167.519 955.316 167.405C959.859 167.173 964.328 169.085 968.687 170.725C970.676 171.486 972.685 172.263 974.75 172.825C974.805 172.839 974.864 172.832 974.913 172.804C974.963 172.775 974.999 172.729 975.015 172.675C975.03 172.62 975.023 172.562 974.996 172.512C974.968 172.462 974.922 172.425 974.868 172.409C974.868 172.409 974.868 172.409 974.868 172.409C972.849 171.805 970.878 170.978 968.915 170.156C964.601 168.392 960.205 166.255 955.261 166.349C950.114 166.295 946.191 170.816 944.594 175.181C943.913 176.874 943.433 178.491 943.006 180.259C942.154 183.7 941.122 187.152 939.062 189.842C937.068 192.685 933.37 193.113 930.122 191.946C923.546 189.652 917.549 185.456 910.875 182.736C907.833 181.469 904.463 180.526 901.022 181.159C897.562 181.76 894.767 184.271 892.988 187.063C889.422 192.762 888.051 199.314 886.853 205.68C886.474 207.815 886.159 209.885 885.869 212.036Z" fill="#77B6E8"/>
<g filter="url(#filter1_nn_3427_33584)">
<path d="M1045.46 119.115C1040.96 115.316 1042.59 109.951 1046.71 109.36C1049.18 109.006 1052.75 110.515 1052.75 114.815C1052.75 119.115 1049.96 122.914 1045.46 119.115Z" fill="#C9E3FF"/>
</g>
<path d="M1062.58 166.885C1040.02 170.53 1013.98 201.414 1035.25 201.414H1144.09C1149.39 189.045 1143.22 173.783 1119.18 177.502C1095.45 181.174 1091.67 162.183 1062.58 166.885Z" fill="#CFEBDA"/>
<g filter="url(#filter2_nn_3427_33584)">
<path d="M1122.17 201.119C1122.17 192.905 1114.95 187.265 1106.14 191.124L1104.16 201.119C1106.2 201.193 1115.7 201.296 1122.17 201.119Z" fill="#82B8B9"/>
</g>
<path d="M980.505 181.868C971.676 179.307 960.428 188.594 968.279 203.511H1106.89C1111.08 199.062 1117.44 190.941 1119.53 180.351C1122.15 167.012 1111.37 152.873 1098.42 167.397C1103.91 157.976 1102.88 127.317 1076.44 129.713C1050.66 132.047 1040.32 149.732 1032.08 170.93C1031.69 161.509 1019.79 151.694 1009.24 157.343C996.696 164.055 1002.93 174.657 997.142 180.351C993.035 184.395 989.265 184.41 980.505 181.868Z" fill="#14735D"/>
<path d="M967.556 203.892C968.038 203.638 968.52 203.384 969.002 203.13C965.556 197.25 964.991 188.785 970.677 184.444C973.347 182.315 977.056 181.463 980.346 182.418C984.521 183.5 989.022 185.113 993.531 183.48C995.076 182.878 996.395 181.865 997.534 180.749C1001.16 177.118 1000.47 171.872 1001.63 167.726C1002.58 163.397 1005.68 160.009 1009.62 158.056C1018.65 153.052 1030.45 161.427 1030.99 170.975C1031.04 172.22 1032.64 172.487 1033.1 171.325C1033.42 170.503 1033.74 169.693 1034.07 168.876C1040.84 149.937 1055.12 131.297 1076.5 130.404C1084.76 129.292 1093.65 132.954 1097.29 140.634C1101.29 148.718 1101.81 159.038 1097.91 167.098C1097.55 167.706 1098.39 168.318 1098.86 167.792C1102.61 163.281 1109.4 159.53 1114.22 163.712C1118.77 167.571 1120.06 174.401 1118.93 180.234C1117.23 188.868 1112.46 196.683 1106.44 203.082L1106.89 202.884C1067.84 202.854 1028.78 202.804 989.725 202.734C982.576 202.721 975.428 202.708 968.279 202.694C968.279 203.239 968.279 203.783 968.279 204.328C975.428 204.314 982.576 204.301 989.725 204.288C1028.78 204.218 1067.84 204.168 1106.89 204.138C1107.02 204.138 1107.26 204.036 1107.35 203.94C1113.48 197.4 1118.37 189.396 1120.13 180.469C1121.29 174.277 1120.05 167.123 1114.97 162.777C1109.38 157.986 1101.74 162.391 1097.98 167.002L1098.93 167.696C1103.11 158.97 1102.5 148.629 1098.33 140.087C1094.55 131.997 1084.96 127.949 1076.37 129.021C1054.47 129.478 1038.76 148.954 1032.04 168.058C1031.71 168.884 1031.38 169.703 1031.06 170.534L1033.17 170.884C1032.37 159.562 1019 150.824 1008.85 156.629C1004.71 158.772 1001.25 162.773 1000.36 167.419C999.277 171.887 999.888 176.87 996.751 179.954C995.681 181.015 994.488 181.926 993.129 182.455C989.224 183.917 984.785 182.445 980.665 181.319C976.999 180.232 972.904 181.136 969.909 183.459C963.498 188.219 964.064 197.661 967.556 203.892ZM969.002 203.13L967.556 203.892C967.679 204.119 968.02 204.329 968.279 204.328V202.694L969.002 203.13Z" fill="#11604D"/>
<g filter="url(#filter3_nn_3427_33584)">
<path d="M213.467 235.998L130.422 219.576C128.908 179.582 136.85 223.879 135.946 197.058L148.358 189.851C165.173 197.058 175.583 175.838 199.609 163.827C214.094 156.585 237.675 145.071 259.265 166.662C280.855 188.252 308.111 195.056 334.136 185.847C381.845 168.966 419.422 182.225 435.832 224.284L369.995 219.576L279.262 232.865L213.467 235.998Z" fill="#C9E3FF"/>
</g>
<path d="M189.724 177.976C169.957 178.17 132.5 184.772 116 212.655H146.027H274.86C275.682 201.15 269.011 191.659 245.934 189.036C225.287 186.69 209.49 177.782 189.724 177.976Z" fill="#CFEBDA"/>
<g filter="url(#filter4_nn_3427_33584)">
<path d="M249.777 194.243C249.122 190.222 242.533 189.512 239.26 192.411L239.727 201.574H249.265C249.857 200.296 250.3 197.459 249.777 194.243Z" fill="#82B8B9"/>
</g>
<path d="M188.44 149.317C189.27 136.017 216.254 135.874 228.201 158.84C238.042 177.757 238.916 185.525 241.54 204.077C223.268 202.22 175.218 207.232 156.541 204.077C151.938 185.116 148.22 147.616 170.749 171.368C159.747 149.317 178.754 134.691 188.44 149.317Z" fill="#14735D"/>
<path d="M228.926 158.463C228.443 158.714 227.96 158.966 227.477 159.217C225.373 154.986 222.52 151.153 218.952 148.056C214.989 144.614 210.171 142.107 204.993 141.17C198.521 139.767 189.393 142.2 189.247 149.367C189.201 150.223 188.246 150.474 187.766 149.763C185.737 146.763 182.613 144.425 179.183 144.438C175.766 144.393 172.627 146.647 170.828 149.633C167.019 155.93 168.271 164.238 171.572 170.957C172.053 171.918 170.823 172.779 170.082 172C168.062 169.831 165.987 167.802 163.638 166.221C161.41 164.688 158.318 163.563 156.538 165.56C153.2 169.842 153.597 176.448 153.777 182.132C154.22 189.475 155.413 196.792 157.12 203.936L156.64 203.49C184.715 206.528 213.128 201.775 241.611 203.381L240.847 204.175C239.284 193.251 237.882 182.278 233.59 172.167C231.795 167.745 229.699 163.464 227.477 159.217C227.96 158.966 228.443 158.714 228.926 158.463C231.139 162.752 233.232 167.086 235.031 171.587C239.347 181.906 240.719 193.091 242.232 203.979C242.3 204.467 241.96 204.823 241.469 204.772C213.306 203.06 184.881 207.758 156.442 204.664C156.234 204.629 156.012 204.422 155.962 204.217C154.245 196.996 153.048 189.64 152.598 182.199C152.499 176.355 151.628 169.992 155.526 164.592C158.031 161.747 162.199 163.326 164.512 164.866C167.098 166.514 169.284 168.557 171.416 170.735L169.927 171.778C166.321 164.842 164.574 155.833 168.964 148.486C171.038 145.024 174.927 142.252 179.227 142.43C183.554 142.558 187.05 145.559 189.114 148.87L187.633 149.266C188.35 140.578 198.583 138.686 205.187 140.087C210.588 141.066 215.583 143.613 219.762 147.106C223.521 150.249 226.586 154.143 228.926 158.463ZM227.477 159.217L228.926 158.463L227.477 159.217V159.217Z" fill="#11604D"/>
<path d="M193.654 145.492C193.598 145.431 193.568 145.349 193.57 145.265C193.573 145.181 193.608 145.102 193.669 145.044C193.73 144.987 193.811 144.955 193.895 144.957C193.979 144.959 194.059 144.993 194.117 145.053C194.117 145.053 194.117 145.053 194.117 145.053C194.858 145.855 195.359 146.69 195.914 147.59C204.722 163.772 211.796 180.662 218.077 198.03C218.396 199.008 218.713 200.009 218.954 201.041C219.019 201.324 218.969 201.619 218.812 201.863C218.655 202.107 218.404 202.279 218.117 202.341C217.83 202.403 217.531 202.35 217.287 202.193C217.043 202.036 216.875 201.788 216.817 201.504C216.817 201.504 216.817 201.504 216.817 201.504C216.633 200.607 216.349 199.616 216.065 198.663C210.311 181.392 203.613 164.187 195.298 147.953C194.78 147.061 194.287 146.21 193.654 145.492Z" fill="#82B8B9"/>
<path d="M1084.24 144.474C1084.32 144.435 1084.37 144.367 1084.4 144.287C1084.42 144.207 1084.42 144.12 1084.38 144.046C1084.34 143.972 1084.27 143.916 1084.19 143.889C1084.11 143.863 1084.03 143.869 1083.95 143.906C1083.95 143.906 1083.95 143.906 1083.95 143.906C1082.96 144.4 1082.02 144.985 1081.13 145.644C1065.76 159.128 1064.13 180.983 1054.2 197.33C1053.63 198.234 1053.03 199.103 1052.4 199.908C1052.22 200.136 1052.14 200.425 1052.17 200.713C1052.21 201 1052.36 201.263 1052.6 201.442C1052.83 201.62 1053.12 201.7 1053.41 201.663C1053.7 201.625 1053.96 201.473 1054.13 201.241C1054.13 201.241 1054.13 201.241 1054.13 201.241C1054.8 200.347 1055.42 199.402 1056 198.434C1065.83 181.179 1066.91 159.648 1081.56 146.215C1082.41 145.558 1083.3 144.973 1084.24 144.474Z" fill="#82B8B9"/>
<path d="M190.556 168.624C190.595 168.551 190.602 168.465 190.578 168.385C190.553 168.305 190.5 168.238 190.428 168.198C190.355 168.158 190.27 168.148 190.189 168.17C190.109 168.193 190.04 168.245 189.998 168.316C189.998 168.316 189.998 168.316 189.998 168.316C189.711 168.842 189.565 169.325 189.395 169.853C186.951 179.153 185.464 188.512 184.417 198.112C184.375 198.652 184.336 199.202 184.341 199.785C184.343 200.075 184.461 200.349 184.673 200.547C184.885 200.746 185.173 200.851 185.47 200.841C185.767 200.831 186.048 200.706 186.246 200.494C186.444 200.283 186.543 200.001 186.526 199.711C186.526 199.711 186.526 199.711 186.526 199.711C186.5 199.27 186.508 198.737 186.523 198.23C187.084 188.848 188.128 179.281 190.083 170.049C190.219 169.539 190.353 169.041 190.556 168.624Z" fill="#82B8B9"/>
<path d="M178.395 175.62C178.349 175.582 178.319 175.526 178.311 175.466C178.304 175.406 178.319 175.345 178.355 175.298C178.39 175.25 178.444 175.218 178.504 175.208C178.564 175.198 178.626 175.211 178.675 175.244C178.675 175.244 178.675 175.244 178.675 175.244C178.912 175.419 179.065 175.591 179.243 175.781C182.103 179.196 184.552 182.787 186.893 186.613C187.018 186.834 187.144 187.057 187.264 187.319C187.353 187.512 187.36 187.73 187.279 187.927C187.197 188.124 187.034 188.282 186.83 188.367C186.626 188.452 186.398 188.454 186.202 188.373C186.005 188.292 185.856 188.133 185.782 187.933C185.782 187.933 185.782 187.933 185.782 187.933C185.72 187.759 185.62 187.538 185.522 187.33C183.573 183.502 181.356 179.638 178.843 176.121C178.694 175.932 178.543 175.747 178.395 175.62Z" fill="#82B8B9"/>
<path d="M211.542 185.861C211.696 185.956 211.88 185.985 212.055 185.939C212.23 185.893 212.381 185.776 212.474 185.616C212.568 185.456 212.595 185.267 212.549 185.092C212.503 184.917 212.388 184.771 212.229 184.684C212.229 184.684 212.229 184.684 212.229 184.684C211.961 184.535 211.686 184.39 211.411 184.249C206.44 181.801 201.176 180.272 195.829 179.185C195.532 179.128 195.231 179.072 194.936 179.02C194.871 179.009 194.802 179.024 194.747 179.062C194.691 179.1 194.653 179.158 194.64 179.223C194.627 179.289 194.64 179.356 194.677 179.413C194.713 179.469 194.77 179.51 194.835 179.524C194.835 179.524 194.835 179.524 194.835 179.524C195.125 179.59 195.42 179.658 195.711 179.729C200.942 181.046 206.121 182.832 210.784 185.412C211.041 185.558 211.295 185.709 211.542 185.861Z" fill="#82B8B9"/>
<g filter="url(#filter5_nn_3427_33584)">
<path d="M290.269 175.235C283.492 170.672 280.35 176.346 285.385 181.26C290.421 186.173 297.13 179.855 290.269 175.235Z" fill="#C9E3FF"/>
</g>
<path d="M1058.89 151.195C1058.9 151.112 1058.88 151.028 1058.82 150.962C1058.77 150.895 1058.7 150.852 1058.62 150.841C1058.53 150.83 1058.45 150.852 1058.38 150.902C1058.31 150.953 1058.27 151.028 1058.26 151.11C1058.26 151.11 1058.26 151.11 1058.26 151.11C1058.18 151.617 1058.13 152.125 1058.09 152.636C1057.53 161.938 1062.31 170.503 1061.95 179.368C1061.92 179.854 1061.88 180.337 1061.82 180.817C1061.79 181.007 1061.85 181.198 1061.97 181.348C1062.09 181.498 1062.26 181.594 1062.45 181.616C1062.65 181.638 1062.84 181.584 1062.99 181.464C1063.14 181.345 1063.23 181.171 1063.25 180.981C1063.25 180.981 1063.25 180.981 1063.25 180.981C1063.31 180.461 1063.34 179.94 1063.35 179.42C1063.43 169.976 1058.44 161.714 1058.77 152.675C1058.79 152.18 1058.83 151.687 1058.89 151.195Z" fill="#82B8B9"/>
<path d="M1011.52 166.597C1011.53 166.514 1011.5 166.432 1011.44 166.368C1011.39 166.305 1011.31 166.265 1011.23 166.258C1011.15 166.251 1011.07 166.277 1011 166.33C1010.94 166.383 1010.89 166.46 1010.89 166.542C1010.89 166.542 1010.89 166.542 1010.89 166.542C1010.81 167.238 1010.79 167.891 1010.82 168.583C1012.41 181.501 1029.22 185.726 1027.47 198.414C1027.44 199.054 1027.39 199.653 1027.31 200.306C1027.27 200.594 1027.35 200.882 1027.53 201.109C1027.71 201.335 1027.98 201.481 1028.27 201.513C1028.57 201.546 1028.86 201.462 1029.09 201.281C1029.31 201.099 1029.45 200.835 1029.48 200.546C1029.55 199.829 1029.58 199.17 1029.58 198.463C1030.57 184.12 1013.09 180.448 1011.53 168.537C1011.48 167.886 1011.48 167.265 1011.52 166.597Z" fill="#82B8B9"/>
<path d="M1022.85 173.486C1022.82 173.411 1022.76 173.35 1022.68 173.316C1022.61 173.281 1022.52 173.275 1022.45 173.3C1022.37 173.326 1022.31 173.38 1022.27 173.453C1022.23 173.526 1022.22 173.61 1022.24 173.688C1022.24 173.688 1022.24 173.688 1022.24 173.688C1022.3 173.909 1022.36 174.141 1022.42 174.367C1023.38 178.478 1023.93 182.75 1024.2 186.908C1024.21 187.137 1024.21 187.364 1024.21 187.57C1024.21 187.86 1024.33 188.132 1024.55 188.326C1024.76 188.519 1025.06 188.618 1025.37 188.601C1025.67 188.584 1025.96 188.453 1026.15 188.237C1026.34 188.021 1026.43 187.737 1026.4 187.449C1026.4 187.449 1026.4 187.449 1026.4 187.449C1026.37 187.19 1026.33 186.943 1026.3 186.696C1025.55 182.389 1024.54 178.238 1023.1 174.158C1023.02 173.934 1022.93 173.705 1022.85 173.486Z" fill="#82B8B9"/>
<path d="M1092.9 172.845C1092.95 172.811 1092.99 172.761 1093 172.704C1093.02 172.647 1093.01 172.587 1092.98 172.536C1092.95 172.485 1092.91 172.447 1092.85 172.429C1092.8 172.41 1092.73 172.414 1092.68 172.434C1092.68 172.434 1092.68 172.434 1092.68 172.434C1092.42 172.531 1092.16 172.633 1091.9 172.744C1089.59 173.73 1087.48 175.279 1085.82 177.204C1084.16 179.127 1082.85 181.377 1082.14 183.822C1082.06 184.091 1081.99 184.372 1081.93 184.644C1081.91 184.752 1081.92 184.866 1081.97 184.964C1082.03 185.061 1082.11 185.135 1082.22 185.167C1082.32 185.2 1082.44 185.191 1082.54 185.141C1082.63 185.092 1082.71 185.006 1082.75 184.905C1082.75 184.905 1082.75 184.905 1082.75 184.905C1082.86 184.666 1082.97 184.42 1083.09 184.184C1084.15 182.042 1085.53 180.081 1087.07 178.29C1088.62 176.5 1090.33 174.846 1092.25 173.342C1092.47 173.174 1092.68 173.01 1092.9 172.845Z" fill="#82B8B9"/>
<path d="M1135.96 178.475C1135.9 178.464 1135.84 178.475 1135.78 178.508C1135.73 178.54 1135.69 178.592 1135.68 178.651C1135.66 178.71 1135.67 178.774 1135.7 178.827C1135.73 178.881 1135.78 178.92 1135.84 178.939C1135.84 178.939 1135.84 178.939 1135.84 178.939C1136.17 179.043 1136.49 179.175 1136.8 179.322C1139.64 180.731 1141.74 183.286 1143.14 186.084C1144.5 188.818 1145.17 191.885 1145.25 195.009C1145.26 195.363 1145.26 195.71 1145.26 196.07C1145.26 196.124 1145.28 196.177 1145.31 196.218C1145.35 196.259 1145.4 196.284 1145.45 196.289C1145.5 196.294 1145.56 196.277 1145.6 196.243C1145.64 196.208 1145.67 196.159 1145.67 196.106C1145.67 196.106 1145.67 196.106 1145.67 196.106C1145.73 195.744 1145.78 195.392 1145.81 195.03C1146.15 191.846 1145.65 188.496 1144.19 185.563C1142.7 182.563 1140.23 179.908 1137.03 178.759C1136.68 178.64 1136.32 178.542 1135.96 178.475Z" fill="#82B8B9"/>
</g>
<defs>
<filter id="filter0_nn_3427_33584" x="739.509" y="90.5179" width="357.376" height="116.737" filterUnits="userSpaceOnUse" color-interpolation-filters="sRGB">
<feFlood flood-opacity="0" result="BackgroundImageFix"/>
<feBlend mode="normal" in="SourceGraphic" in2="BackgroundImageFix" result="shape"/>
<feTurbulence type="fractalNoise" baseFrequency="0.4284854531288147 0.4284854531288147" stitchTiles="stitch" numOctaves="3" result="noise" seed="2151" />
<feComponentTransfer in="noise" result="coloredNoise1">
<feFuncR type="linear" slope="2" intercept="-0.5" />
<feFuncG type="linear" slope="2" intercept="-0.5" />
<feFuncB type="linear" slope="2" intercept="-0.5" />
<feFuncA type="discrete" tableValues="1 1 1 1 1 1 1 1 1 1 1 1 1 1 1 1 1 1 1 1 1 1 1 1 1 1 1 1 1 1 1 1 1 1 1 1 1 1 1 1 1 1 1 1 1 1 1 1 1 1 1 0 0 0 0 0 0 0 0 0 0 0 0 0 0 0 0 0 0 0 0 0 0 0 0 0 0 0 0 0 0 0 0 0 0 0 0 0 0 0 0 0 0 0 0 0 0 0 0 0 "/>
</feComponentTransfer>
<feComposite operator="in" in2="shape" in="coloredNoise1" result="noise1Clipped" />
<feComponentTransfer in="noise1Clipped" result="color1">
<feFuncA type="table" tableValues="0 0.1" />
</feComponentTransfer>
<feMerge result="effect1_noise_3427_33584">
<feMergeNode in="shape" />
<feMergeNode in="color1" />
</feMerge>
<feTurbulence type="fractalNoise" baseFrequency="0.22073492407798767 0.22073492407798767" stitchTiles="stitch" numOctaves="3" result="noise" seed="3494" />
<feColorMatrix in="noise" type="luminanceToAlpha" result="alphaNoise" />
<feComponentTransfer in="alphaNoise" result="coloredNoise1">
<feFuncA type="discrete" tableValues="0 0 0 0 0 0 0 0 0 0 0 0 0 0 0 0 0 1 1 1 1 1 1 1 1 1 1 1 1 1 1 1 0 0 0 0 0 0 0 0 0 0 0 0 0 0 0 0 0 0 0 0 0 0 0 0 0 0 0 0 0 0 0 0 0 0 0 0 0 0 0 0 0 0 0 0 0 0 0 0 0 0 0 0 0 0 0 0 0 0 0 0 0 0 0 0 0 0 0 0 "/>
</feComponentTransfer>
<feComposite operator="in" in2="effect1_noise_3427_33584" in="coloredNoise1" result="noise1Clipped" />
<feFlood flood-color="rgba(255, 255, 255, 0.18)" result="color1Flood" />
<feComposite operator="in" in2="noise1Clipped" in="color1Flood" result="color1" />
<feMerge result="effect2_noise_3427_33584">
<feMergeNode in="effect1_noise_3427_33584" />
<feMergeNode in="color1" />
</feMerge>
</filter>
<filter id="filter1_nn_3427_33584" x="1042.76" y="109.311" width="9.9856" height="11.366" filterUnits="userSpaceOnUse" color-interpolation-filters="sRGB">
<feFlood flood-opacity="0" result="BackgroundImageFix"/>
<feBlend mode="normal" in="SourceGraphic" in2="BackgroundImageFix" result="shape"/>
<feTurbulence type="fractalNoise" baseFrequency="0.4284854531288147 0.4284854531288147" stitchTiles="stitch" numOctaves="3" result="noise" seed="2151" />
<feComponentTransfer in="noise" result="coloredNoise1">
<feFuncR type="linear" slope="2" intercept="-0.5" />
<feFuncG type="linear" slope="2" intercept="-0.5" />
<feFuncB type="linear" slope="2" intercept="-0.5" />
<feFuncA type="discrete" tableValues="1 1 1 1 1 1 1 1 1 1 1 1 1 1 1 1 1 1 1 1 1 1 1 1 1 1 1 1 1 1 1 1 1 1 1 1 1 1 1 1 1 1 1 1 1 1 1 1 1 1 1 0 0 0 0 0 0 0 0 0 0 0 0 0 0 0 0 0 0 0 0 0 0 0 0 0 0 0 0 0 0 0 0 0 0 0 0 0 0 0 0 0 0 0 0 0 0 0 0 0 "/>
</feComponentTransfer>
<feComposite operator="in" in2="shape" in="coloredNoise1" result="noise1Clipped" />
<feComponentTransfer in="noise1Clipped" result="color1">
<feFuncA type="table" tableValues="0 0.1" />
</feComponentTransfer>
<feMerge result="effect1_noise_3427_33584">
<feMergeNode in="shape" />
<feMergeNode in="color1" />
</feMerge>
<feTurbulence type="fractalNoise" baseFrequency="0.22073492407798767 0.22073492407798767" stitchTiles="stitch" numOctaves="3" result="noise" seed="3494" />
<feColorMatrix in="noise" type="luminanceToAlpha" result="alphaNoise" />
<feComponentTransfer in="alphaNoise" result="coloredNoise1">
<feFuncA type="discrete" tableValues="0 0 0 0 0 0 0 0 0 0 0 0 0 0 0 0 0 1 1 1 1 1 1 1 1 1 1 1 1 1 1 1 0 0 0 0 0 0 0 0 0 0 0 0 0 0 0 0 0 0 0 0 0 0 0 0 0 0 0 0 0 0 0 0 0 0 0 0 0 0 0 0 0 0 0 0 0 0 0 0 0 0 0 0 0 0 0 0 0 0 0 0 0 0 0 0 0 0 0 0 "/>
</feComponentTransfer>
<feComposite operator="in" in2="effect1_noise_3427_33584" in="coloredNoise1" result="noise1Clipped" />
<feFlood flood-color="rgba(255, 255, 255, 0.18)" result="color1Flood" />
<feComposite operator="in" in2="noise1Clipped" in="color1Flood" result="color1" />
<feMerge result="effect2_noise_3427_33584">
<feMergeNode in="effect1_noise_3427_33584" />
<feMergeNode in="color1" />
</feMerge>
</filter>
<filter id="filter2_nn_3427_33584" x="1104.16" y="189.883" width="18.0107" height="11.3342" filterUnits="userSpaceOnUse" color-interpolation-filters="sRGB">
<feFlood flood-opacity="0" result="BackgroundImageFix"/>
<feBlend mode="normal" in="SourceGraphic" in2="BackgroundImageFix" result="shape"/>
<feTurbulence type="fractalNoise" baseFrequency="0.4284854531288147 0.4284854531288147" stitchTiles="stitch" numOctaves="3" result="noise" seed="2151" />
<feComponentTransfer in="noise" result="coloredNoise1">
<feFuncR type="linear" slope="2" intercept="-0.5" />
<feFuncG type="linear" slope="2" intercept="-0.5" />
<feFuncB type="linear" slope="2" intercept="-0.5" />
<feFuncA type="discrete" tableValues="1 1 1 1 1 1 1 1 1 1 1 1 1 1 1 1 1 1 1 1 1 1 1 1 1 1 1 1 1 1 1 1 1 1 1 1 1 1 1 1 1 1 1 1 1 1 1 1 1 1 1 0 0 0 0 0 0 0 0 0 0 0 0 0 0 0 0 0 0 0 0 0 0 0 0 0 0 0 0 0 0 0 0 0 0 0 0 0 0 0 0 0 0 0 0 0 0 0 0 0 "/>
</feComponentTransfer>
<feComposite operator="in" in2="shape" in="coloredNoise1" result="noise1Clipped" />
<feComponentTransfer in="noise1Clipped" result="color1">
<feFuncA type="table" tableValues="0 0.1" />
</feComponentTransfer>
<feMerge result="effect1_noise_3427_33584">
<feMergeNode in="shape" />
<feMergeNode in="color1" />
</feMerge>
<feTurbulence type="fractalNoise" baseFrequency="0.22073492407798767 0.22073492407798767" stitchTiles="stitch" numOctaves="3" result="noise" seed="3494" />
<feColorMatrix in="noise" type="luminanceToAlpha" result="alphaNoise" />
<feComponentTransfer in="alphaNoise" result="coloredNoise1">
<feFuncA type="discrete" tableValues="0 0 0 0 0 0 0 0 0 0 0 0 0 0 0 0 0 1 1 1 1 1 1 1 1 1 1 1 1 1 1 1 0 0 0 0 0 0 0 0 0 0 0 0 0 0 0 0 0 0 0 0 0 0 0 0 0 0 0 0 0 0 0 0 0 0 0 0 0 0 0 0 0 0 0 0 0 0 0 0 0 0 0 0 0 0 0 0 0 0 0 0 0 0 0 0 0 0 0 0 "/>
</feComponentTransfer>
<feComposite operator="in" in2="effect1_noise_3427_33584" in="coloredNoise1" result="noise1Clipped" />
<feFlood flood-color="rgba(255, 255, 255, 0.18)" result="color1Flood" />
<feComposite operator="in" in2="noise1Clipped" in="color1Flood" result="color1" />
<feMerge result="effect2_noise_3427_33584">
<feMergeNode in="effect1_noise_3427_33584" />
<feMergeNode in="color1" />
</feMerge>
</filter>
<filter id="filter3_nn_3427_33584" x="130.23" y="154.201" width="305.603" height="81.7966" filterUnits="userSpaceOnUse" color-interpolation-filters="sRGB">
<feFlood flood-opacity="0" result="BackgroundImageFix"/>
<feBlend mode="normal" in="SourceGraphic" in2="BackgroundImageFix" result="shape"/>
<feTurbulence type="fractalNoise" baseFrequency="0.35962474346160889 0.35962474346160889" stitchTiles="stitch" numOctaves="3" result="noise" seed="2151" />
<feComponentTransfer in="noise" result="coloredNoise1">
<feFuncR type="linear" slope="2" intercept="-0.5" />
<feFuncG type="linear" slope="2" intercept="-0.5" />
<feFuncB type="linear" slope="2" intercept="-0.5" />
<feFuncA type="discrete" tableValues="1 1 1 1 1 1 1 1 1 1 1 1 1 1 1 1 1 1 1 1 1 1 1 1 1 1 1 1 1 1 1 1 1 1 1 1 1 1 1 1 1 1 1 1 1 1 1 1 1 1 1 0 0 0 0 0 0 0 0 0 0 0 0 0 0 0 0 0 0 0 0 0 0 0 0 0 0 0 0 0 0 0 0 0 0 0 0 0 0 0 0 0 0 0 0 0 0 0 0 0 "/>
</feComponentTransfer>
<feComposite operator="in" in2="shape" in="coloredNoise1" result="noise1Clipped" />
<feComponentTransfer in="noise1Clipped" result="color1">
<feFuncA type="table" tableValues="0 0.1" />
</feComponentTransfer>
<feMerge result="effect1_noise_3427_33584">
<feMergeNode in="shape" />
<feMergeNode in="color1" />
</feMerge>
<feTurbulence type="fractalNoise" baseFrequency="0.18526121973991394 0.18526121973991394" stitchTiles="stitch" numOctaves="3" result="noise" seed="3494" />
<feColorMatrix in="noise" type="luminanceToAlpha" result="alphaNoise" />
<feComponentTransfer in="alphaNoise" result="coloredNoise1">
<feFuncA type="discrete" tableValues="0 0 0 0 0 0 0 0 0 0 0 0 0 0 0 0 0 1 1 1 1 1 1 1 1 1 1 1 1 1 1 1 0 0 0 0 0 0 0 0 0 0 0 0 0 0 0 0 0 0 0 0 0 0 0 0 0 0 0 0 0 0 0 0 0 0 0 0 0 0 0 0 0 0 0 0 0 0 0 0 0 0 0 0 0 0 0 0 0 0 0 0 0 0 0 0 0 0 0 0 "/>
</feComponentTransfer>
<feComposite operator="in" in2="effect1_noise_3427_33584" in="coloredNoise1" result="noise1Clipped" />
<feFlood flood-color="rgba(255, 255, 255, 0.18)" result="color1Flood" />
<feComposite operator="in" in2="noise1Clipped" in="color1Flood" result="color1" />
<feMerge result="effect2_noise_3427_33584">
<feMergeNode in="effect1_noise_3427_33584" />
<feMergeNode in="color1" />
</feMerge>
</filter>
<filter id="filter4_nn_3427_33584" x="239.26" y="190.645" width="10.7494" height="10.9297" filterUnits="userSpaceOnUse" color-interpolation-filters="sRGB">
<feFlood flood-opacity="0" result="BackgroundImageFix"/>
<feBlend mode="normal" in="SourceGraphic" in2="BackgroundImageFix" result="shape"/>
<feTurbulence type="fractalNoise" baseFrequency="0.4284854531288147 0.4284854531288147" stitchTiles="stitch" numOctaves="3" result="noise" seed="2151" />
<feComponentTransfer in="noise" result="coloredNoise1">
<feFuncR type="linear" slope="2" intercept="-0.5" />
<feFuncG type="linear" slope="2" intercept="-0.5" />
<feFuncB type="linear" slope="2" intercept="-0.5" />
<feFuncA type="discrete" tableValues="1 1 1 1 1 1 1 1 1 1 1 1 1 1 1 1 1 1 1 1 1 1 1 1 1 1 1 1 1 1 1 1 1 1 1 1 1 1 1 1 1 1 1 1 1 1 1 1 1 1 1 0 0 0 0 0 0 0 0 0 0 0 0 0 0 0 0 0 0 0 0 0 0 0 0 0 0 0 0 0 0 0 0 0 0 0 0 0 0 0 0 0 0 0 0 0 0 0 0 0 "/>
</feComponentTransfer>
<feComposite operator="in" in2="shape" in="coloredNoise1" result="noise1Clipped" />
<feComponentTransfer in="noise1Clipped" result="color1">
<feFuncA type="table" tableValues="0 0.1" />
</feComponentTransfer>
<feMerge result="effect1_noise_3427_33584">
<feMergeNode in="shape" />
<feMergeNode in="color1" />
</feMerge>
<feTurbulence type="fractalNoise" baseFrequency="0.22073492407798767 0.22073492407798767" stitchTiles="stitch" numOctaves="3" result="noise" seed="3494" />
<feColorMatrix in="noise" type="luminanceToAlpha" result="alphaNoise" />
<feComponentTransfer in="alphaNoise" result="coloredNoise1">
<feFuncA type="discrete" tableValues="0 0 0 0 0 0 0 0 0 0 0 0 0 0 0 0 0 1 1 1 1 1 1 1 1 1 1 1 1 1 1 1 0 0 0 0 0 0 0 0 0 0 0 0 0 0 0 0 0 0 0 0 0 0 0 0 0 0 0 0 0 0 0 0 0 0 0 0 0 0 0 0 0 0 0 0 0 0 0 0 0 0 0 0 0 0 0 0 0 0 0 0 0 0 0 0 0 0 0 0 "/>
</feComponentTransfer>
<feComposite operator="in" in2="effect1_noise_3427_33584" in="coloredNoise1" result="noise1Clipped" />
<feFlood flood-color="rgba(255, 255, 255, 0.18)" result="color1Flood" />
<feComposite operator="in" in2="noise1Clipped" in="color1Flood" result="color1" />
<feMerge result="effect2_noise_3427_33584">
<feMergeNode in="effect1_noise_3427_33584" />
<feMergeNode in="color1" />
</feMerge>
</filter>
<filter id="filter5_nn_3427_33584" x="282.907" y="173.559" width="10.2858" height="9.48306" filterUnits="userSpaceOnUse" color-interpolation-filters="sRGB">
<feFlood flood-opacity="0" result="BackgroundImageFix"/>
<feBlend mode="normal" in="SourceGraphic" in2="BackgroundImageFix" result="shape"/>
<feTurbulence type="fractalNoise" baseFrequency="0.35962474346160889 0.35962474346160889" stitchTiles="stitch" numOctaves="3" result="noise" seed="2151" />
<feComponentTransfer in="noise" result="coloredNoise1">
<feFuncR type="linear" slope="2" intercept="-0.5" />
<feFuncG type="linear" slope="2" intercept="-0.5" />
<feFuncB type="linear" slope="2" intercept="-0.5" />
<feFuncA type="discrete" tableValues="1 1 1 1 1 1 1 1 1 1 1 1 1 1 1 1 1 1 1 1 1 1 1 1 1 1 1 1 1 1 1 1 1 1 1 1 1 1 1 1 1 1 1 1 1 1 1 1 1 1 1 0 0 0 0 0 0 0 0 0 0 0 0 0 0 0 0 0 0 0 0 0 0 0 0 0 0 0 0 0 0 0 0 0 0 0 0 0 0 0 0 0 0 0 0 0 0 0 0 0 "/>
</feComponentTransfer>
<feComposite operator="in" in2="shape" in="coloredNoise1" result="noise1Clipped" />
<feComponentTransfer in="noise1Clipped" result="color1">
<feFuncA type="table" tableValues="0 0.1" />
</feComponentTransfer>
<feMerge result="effect1_noise_3427_33584">
<feMergeNode in="shape" />
<feMergeNode in="color1" />
</feMerge>
<feTurbulence type="fractalNoise" baseFrequency="0.18526121973991394 0.18526121973991394" stitchTiles="stitch" numOctaves="3" result="noise" seed="3494" />
<feColorMatrix in="noise" type="luminanceToAlpha" result="alphaNoise" />
<feComponentTransfer in="alphaNoise" result="coloredNoise1">
<feFuncA type="discrete" tableValues="0 0 0 0 0 0 0 0 0 0 0 0 0 0 0 0 0 1 1 1 1 1 1 1 1 1 1 1 1 1 1 1 0 0 0 0 0 0 0 0 0 0 0 0 0 0 0 0 0 0 0 0 0 0 0 0 0 0 0 0 0 0 0 0 0 0 0 0 0 0 0 0 0 0 0 0 0 0 0 0 0 0 0 0 0 0 0 0 0 0 0 0 0 0 0 0 0 0 0 0 "/>
</feComponentTransfer>
<feComposite operator="in" in2="effect1_noise_3427_33584" in="coloredNoise1" result="noise1Clipped" />
<feFlood flood-color="rgba(255, 255, 255, 0.18)" result="color1Flood" />
<feComposite operator="in" in2="noise1Clipped" in="color1Flood" result="color1" />
<feMerge result="effect2_noise_3427_33584">
<feMergeNode in="effect1_noise_3427_33584" />
<feMergeNode in="color1" />
</feMerge>
</filter>
<clipPath id="clip0_3427_33584">
<rect width="1280" height="200" fill="white"/>
</clipPath>
</defs>
</svg>
