<svg width="1280" height="200" viewBox="0 0 1280 200" fill="none" xmlns="http://www.w3.org/2000/svg">
<g clip-path="url(#clip0_3427_33609)">
<g filter="url(#filter0_nn_3427_33609)">
<path d="M1061.29 244.019C1121.48 244.019 1094.64 161.78 1011.56 181.328C973.974 190.172 931.173 185.854 902.011 161.069C881.211 143.391 861.611 121.567 826.436 138.558C755.907 172.626 741.122 138.558 711.056 122.459C610.682 68.7144 532.602 191.256 497.495 239.647C534.165 239.647 540.628 235.654 561.474 244.019C753.347 244.019 869.415 244.019 1061.29 244.019Z" fill="#C9E3FF"/>
</g>
<path d="M838.303 176.048C851.063 168.701 871.095 163.569 890.422 186.916C895.791 193.402 900.353 211.887 900.353 211.887H754.968C741.049 193.327 749.942 181.728 788.995 189.461C828.047 197.194 825.543 183.394 838.303 176.048Z" fill="#4D9DFF"/>
<path d="M944.347 156.894C962.778 139.55 980.687 180.641 958.087 202.393L871.249 202.393C858.116 202.393 861.272 182.844 874.452 191.443C862.656 151.377 893.524 147.527 902.857 151.102C908.857 153.401 912.784 157.442 915.604 161.537C918.425 165.633 913.041 143.499 918.425 136.715C926.975 125.939 945.051 132.617 944.347 156.894Z" fill="#14735D"/>
<path d="M958.654 202.982C958.276 202.589 957.898 202.197 957.521 201.804C961.538 198.07 964.573 193.329 966.304 188.114C968.241 182.306 968.62 175.955 967.418 169.934C966.295 164.458 963.841 158.949 959.433 155.616C955.02 152.012 948.746 153.595 945.002 157.589C944.312 158.25 943.374 157.82 943.393 156.866C943.471 151.336 942.619 145.693 940.064 140.939C936.488 132.806 924.632 129.635 919.141 137.283C916.807 140.466 916.726 145.277 916.687 149.577C916.699 151.777 916.813 153.99 916.946 156.201C917.011 157.314 917.085 158.426 917.126 159.551C917.144 160.134 917.162 160.669 917.116 161.298C917.106 161.422 917.082 161.64 917.047 161.793C917.032 161.865 916.995 162.009 916.947 162.119C916.904 162.206 916.818 162.439 916.524 162.599C916.229 162.772 915.825 162.652 915.701 162.563C915.579 162.491 915.488 162.41 915.402 162.321C915.268 162.18 915.183 162.064 915.073 161.904C912.511 158.089 909.143 154.785 905.049 152.722C904.269 152.324 903.465 151.968 902.645 151.654C893.083 148.751 881.016 152.314 875.821 161.212C870.579 170.215 872.194 181.432 875.047 191.268C875.229 191.884 874.652 192.314 874.113 191.963C872.209 190.729 870.069 189.769 867.947 189.897C865.821 189.979 864.063 191.617 863.631 193.703C862.527 198.082 866.757 202.081 871.249 201.741C894.604 201.711 917.95 201.669 941.317 201.616C946.911 201.603 952.494 201.59 958.087 201.576C958.087 202.121 958.087 202.665 958.087 203.21C952.494 203.196 946.911 203.183 941.317 203.17C917.95 203.117 894.604 203.075 871.249 203.044C866.313 203.492 860.999 198.67 862.394 193.419C862.882 190.901 865.237 188.711 867.864 188.646C870.457 188.509 872.766 189.619 874.791 190.923L873.857 191.618C871 181.639 869.254 170.148 874.793 160.597C880.405 151.16 892.796 147.46 903.068 150.551C903.926 150.879 904.767 151.253 905.586 151.67C909.877 153.831 913.434 157.268 916.136 161.171C916.219 161.289 916.281 161.365 916.332 161.416C916.362 161.447 916.377 161.453 916.353 161.437C916.35 161.423 916.108 161.335 915.92 161.444C915.739 161.551 915.746 161.62 915.744 161.608C915.744 161.61 915.759 161.56 915.765 161.524C915.78 161.455 915.797 161.298 915.803 161.2C915.833 160.694 915.811 160.166 915.784 159.608C915.726 158.52 915.633 157.409 915.547 156.297C915.372 154.085 915.21 151.848 915.151 149.601C915.158 145.162 914.852 140.382 917.709 136.147C920.615 132.232 925.903 129.878 930.853 130.959C935.825 131.94 939.734 135.664 941.989 139.899C944.805 145.154 945.54 151.179 945.302 156.921L943.693 156.198C947.756 151.934 955.554 150.276 960.269 154.513C964.999 158.336 967.318 164.067 968.497 169.718C969.734 175.928 969.401 182.449 967.491 188.5C965.785 193.929 962.744 198.944 958.654 202.982ZM957.521 201.804L958.654 202.982C958.539 203.088 958.243 203.21 958.087 203.21V201.576L957.521 201.804Z" fill="#11604D"/>
<path d="M932.256 153.704C932.219 153.63 932.153 153.573 932.074 153.545C931.995 153.518 931.909 153.522 931.834 153.557C931.759 153.592 931.701 153.656 931.672 153.735C931.643 153.813 931.645 153.9 931.679 153.976C931.679 153.976 931.679 153.976 931.679 153.976C931.935 154.549 932.163 155.15 932.361 155.758C935.426 166.94 933.427 178.894 930.964 190.087C930.811 190.71 930.649 191.34 930.485 191.938C930.408 192.218 930.447 192.514 930.595 192.763C930.744 193.012 930.99 193.194 931.277 193.266C931.564 193.339 931.867 193.296 932.116 193.148C932.365 192.999 932.54 192.757 932.605 192.474C932.605 192.474 932.605 192.474 932.605 192.474C932.75 191.847 932.892 191.192 933.022 190.547C935.074 179.013 936.64 166.931 933.036 155.522C932.806 154.902 932.546 154.289 932.256 153.704Z" fill="#82B8B9"/>
<path d="M923.763 216.558C924.604 179.565 957.393 155.183 996.908 171.998C1001.12 165.522 1028.38 165.46 1045.91 177.325C1074.45 169.156 1095.68 191.891 1126.51 212.134L1064.15 256.164L818.669 264.481C819.51 260.277 823.041 249.011 830.439 237.577C838.847 223.284 866.592 202.265 923.763 216.558Z" fill="#CFEBDA"/>
<path d="M895.126 172.002C895.059 171.953 894.975 171.933 894.892 171.946C894.809 171.958 894.735 172.001 894.685 172.067C894.635 172.133 894.613 172.216 894.624 172.299C894.634 172.382 894.676 172.458 894.741 172.51C894.741 172.51 894.741 172.51 894.741 172.51C895.183 172.861 895.633 173.233 896.066 173.604C903.669 180.447 910.827 188.69 914.247 198.035C914.39 198.539 914.505 199.071 914.557 199.553C914.59 199.841 914.736 200.102 914.967 200.278C915.198 200.453 915.495 200.529 915.789 200.489C916.082 200.449 916.348 200.296 916.524 200.065C916.699 199.834 916.77 199.544 916.724 199.258C916.724 199.258 916.724 199.258 916.724 199.258C916.625 198.622 916.454 197.989 916.262 197.412C912.018 187.329 904.553 179.72 896.518 173.05C896.063 172.694 895.59 172.337 895.126 172.002Z" fill="#82B8B9"/>
<path d="M915.871 175.007C915.925 174.946 915.954 174.864 915.951 174.781C915.947 174.698 915.913 174.62 915.854 174.563C915.795 174.507 915.716 174.476 915.633 174.476C915.55 174.476 915.469 174.508 915.411 174.565C915.411 174.565 915.411 174.565 915.411 174.565C915.217 174.754 915.032 174.944 914.85 175.14C911.552 178.71 910.013 183.648 910.046 188.555C910.058 188.842 910.053 189.075 910.123 189.477C910.167 189.697 910.296 189.888 910.486 190.007C910.677 190.125 910.913 190.162 911.139 190.109C911.365 190.057 911.561 189.92 911.679 189.729C911.798 189.539 911.83 189.31 911.772 189.094C911.772 189.094 911.772 189.094 911.772 189.094C911.743 189 911.703 188.684 911.683 188.462C911.351 183.99 912.46 179.19 915.372 175.593C915.532 175.394 915.698 175.2 915.871 175.007Z" fill="#82B8B9"/>
</g>
<defs>
<filter id="filter0_nn_3427_33609" x="497.495" y="109.097" width="596.421" height="134.922" filterUnits="userSpaceOnUse" color-interpolation-filters="sRGB">
<feFlood flood-opacity="0" result="BackgroundImageFix"/>
<feBlend mode="normal" in="SourceGraphic" in2="BackgroundImageFix" result="shape"/>
<feTurbulence type="fractalNoise" baseFrequency="0.4284854531288147 0.4284854531288147" stitchTiles="stitch" numOctaves="3" result="noise" seed="2151" />
<feComponentTransfer in="noise" result="coloredNoise1">
<feFuncR type="linear" slope="2" intercept="-0.5" />
<feFuncG type="linear" slope="2" intercept="-0.5" />
<feFuncB type="linear" slope="2" intercept="-0.5" />
<feFuncA type="discrete" tableValues="1 1 1 1 1 1 1 1 1 1 1 1 1 1 1 1 1 1 1 1 1 1 1 1 1 1 1 1 1 1 1 1 1 1 1 1 1 1 1 1 1 1 1 1 1 1 1 1 1 1 1 0 0 0 0 0 0 0 0 0 0 0 0 0 0 0 0 0 0 0 0 0 0 0 0 0 0 0 0 0 0 0 0 0 0 0 0 0 0 0 0 0 0 0 0 0 0 0 0 0 "/>
</feComponentTransfer>
<feComposite operator="in" in2="shape" in="coloredNoise1" result="noise1Clipped" />
<feComponentTransfer in="noise1Clipped" result="color1">
<feFuncA type="table" tableValues="0 0.1" />
</feComponentTransfer>
<feMerge result="effect1_noise_3427_33609">
<feMergeNode in="shape" />
<feMergeNode in="color1" />
</feMerge>
<feTurbulence type="fractalNoise" baseFrequency="0.22073492407798767 0.22073492407798767" stitchTiles="stitch" numOctaves="3" result="noise" seed="3494" />
<feColorMatrix in="noise" type="luminanceToAlpha" result="alphaNoise" />
<feComponentTransfer in="alphaNoise" result="coloredNoise1">
<feFuncA type="discrete" tableValues="0 0 0 0 0 0 0 0 0 0 0 0 0 0 0 0 0 1 1 1 1 1 1 1 1 1 1 1 1 1 1 1 0 0 0 0 0 0 0 0 0 0 0 0 0 0 0 0 0 0 0 0 0 0 0 0 0 0 0 0 0 0 0 0 0 0 0 0 0 0 0 0 0 0 0 0 0 0 0 0 0 0 0 0 0 0 0 0 0 0 0 0 0 0 0 0 0 0 0 0 "/>
</feComponentTransfer>
<feComposite operator="in" in2="effect1_noise_3427_33609" in="coloredNoise1" result="noise1Clipped" />
<feFlood flood-color="rgba(255, 255, 255, 0.18)" result="color1Flood" />
<feComposite operator="in" in2="noise1Clipped" in="color1Flood" result="color1" />
<feMerge result="effect2_noise_3427_33609">
<feMergeNode in="effect1_noise_3427_33609" />
<feMergeNode in="color1" />
</feMerge>
</filter>
<clipPath id="clip0_3427_33609">
<rect width="1280" height="200" fill="white"/>
</clipPath>
</defs>
</svg>
