<svg width="96" height="96" viewBox="0 0 96 96" fill="none" xmlns="http://www.w3.org/2000/svg">
<path d="M65.4841 20.5293C69.6127 20.5291 72.9594 23.8756 72.9592 28.0042L72.9573 55.8914C73.8205 56.4442 74.4172 57.3877 74.4841 58.4893L74.7854 63.4446C74.8967 65.276 73.5023 66.8512 71.6709 66.9626L71.1235 66.9958C69.7529 68.5716 67.7333 69.568 65.481 69.5681L23.9204 69.5708C19.7919 69.571 16.4451 66.2243 16.4453 62.0957L16.4475 28.0078C16.4478 23.8792 19.795 20.532 23.9236 20.5317L65.4841 20.5293Z" fill="#75B6EB"/>
<path fill-rule="evenodd" clip-rule="evenodd" d="M69.1589 23.7493C73.2799 23.4988 76.8237 26.6364 77.0742 30.7573L79.1428 64.7822C79.3934 68.9032 76.2558 72.447 72.1348 72.6975L30.6506 75.2197C26.5296 75.4703 22.9857 72.3327 22.7351 68.2117L20.6665 34.1868C20.416 30.0658 23.5536 26.5221 27.6746 26.2715L69.1589 23.7493ZM38.2686 60.6355C38.1572 58.804 36.5822 57.4095 34.7507 57.5208L29.6653 57.8301C27.8339 57.9415 26.4392 59.5164 26.5505 61.3479L26.8555 66.3628C26.9669 68.1942 28.5421 69.5888 30.3735 69.4775L35.4587 69.1682C37.2902 69.0569 38.6847 67.4819 38.5735 65.6504L38.2686 60.6355ZM74.4844 58.4897C74.373 56.6582 72.798 55.2637 70.9666 55.375L65.9409 55.6807C64.1094 55.7921 62.7151 57.367 62.8264 59.1985L63.1277 64.1538C63.2391 65.9853 64.814 67.3799 66.6455 67.2686L71.6711 66.9631C73.5026 66.8517 74.8969 65.2765 74.7856 63.4451L74.4844 58.4897Z" fill="#1074CC"/>
<path d="M16.7783 27.9348C16.8509 27.9348 16.9208 27.9638 16.9731 28.0151C17.0254 28.0664 17.0555 28.136 17.0596 28.2085C17.0908 28.7738 17.1206 29.3392 17.1487 29.9045C17.4015 34.9923 17.5277 40.0802 17.5273 45.168C17.527 50.2558 17.4002 55.3438 17.1467 60.4316C17.1186 60.9969 17.0887 61.5622 17.0574 62.1274C17.0533 62.2 17.0233 62.2698 16.9709 62.321C16.9186 62.3723 16.8486 62.4011 16.7761 62.4011C16.7036 62.4011 16.6336 62.3723 16.5813 62.321C16.529 62.2697 16.4989 62.2 16.4949 62.1274C16.4637 61.5622 16.4341 60.9969 16.406 60.4316C16.1532 55.3438 16.027 50.2558 16.0273 45.168C16.0277 40.0802 16.1545 34.9924 16.408 29.9045C16.4361 29.3392 16.4658 28.7738 16.4971 28.2085C16.5011 28.136 16.5312 28.0664 16.5835 28.0151C16.6358 27.9638 16.7058 27.9348 16.7783 27.9348Z" fill="#1074CC"/>
<path d="M44.2466 20.0293C50.2069 20.0289 56.1673 20.155 62.1277 20.4077C62.7899 20.4358 63.4523 20.4656 64.1145 20.4968C64.1873 20.5003 64.2573 20.5304 64.3088 20.5828C64.3603 20.6352 64.3892 20.7053 64.3892 20.7781C64.3891 20.8509 64.3603 20.921 64.3088 20.9734C64.2573 21.0258 64.1873 21.0558 64.1145 21.0593C63.4523 21.0906 62.7899 21.1203 62.1277 21.1484C56.1673 21.4019 50.2069 21.5289 44.2466 21.5293C38.2862 21.5297 32.3258 21.4034 26.3655 21.1506C25.7032 21.1226 25.0409 21.093 24.3787 21.0618C24.3058 21.0583 24.2358 21.0282 24.1843 20.9758C24.1328 20.9234 24.104 20.8533 24.104 20.7805C24.104 20.7077 24.1328 20.6376 24.1843 20.5852C24.2358 20.5328 24.3058 20.5027 24.3787 20.4993C25.0409 20.468 25.7032 20.4381 26.3655 20.4099C32.3259 20.1564 38.2862 20.0297 44.2466 20.0293Z" fill="#1074CC"/>
<path d="M79.1438 64.7822C79.3943 68.9032 76.2565 72.4472 72.1355 72.6977L30.6318 75.2209C26.5185 75.471 22.9787 72.3451 22.7178 68.2324L22.457 64.1245L26.7029 63.8423L26.8562 66.3625C26.9677 68.1939 28.5428 69.5885 30.3743 69.4773L35.4595 69.1679C37.291 69.0566 38.6854 67.4816 38.5742 65.6501L38.4167 63.0634L62.9629 61.4321L63.1284 64.1535C63.2399 65.985 64.8148 67.3796 66.6462 67.2683L71.6719 66.9629C73.5033 66.8514 74.8976 65.2762 74.7864 63.4448L74.6167 60.6574L78.8757 60.3745L79.1438 64.7822Z" fill="#CBEAFF"/>
<path d="M64.6038 34.3889C64.6716 34.3955 64.7332 34.4251 64.7769 34.4731C64.8205 34.5211 64.8441 34.585 64.8442 34.653C64.8444 34.7212 64.8208 34.7875 64.7856 34.8449C64.7262 34.9412 64.6655 35.0364 64.604 35.1303C64.0502 35.9756 63.411 36.7274 62.687 37.3857C61.963 38.0439 61.1539 38.6087 60.2598 39.08C60.1604 39.1324 60.0597 39.1838 59.9583 39.2339C59.8978 39.2634 59.8295 39.2807 59.7617 39.2741C59.6939 39.2675 59.6323 39.2381 59.5886 39.1902C59.545 39.1422 59.5217 39.0781 59.5215 39.01C59.5213 38.9419 59.5449 38.8757 59.5801 38.8183C59.6395 38.7221 59.7 38.627 59.7615 38.5332C60.3154 37.6879 60.9546 36.9361 61.6787 36.2778C62.4028 35.6195 63.2117 35.0543 64.106 34.583C64.2053 34.5306 64.3058 34.4795 64.4072 34.4294C64.4677 34.3998 64.5359 34.3823 64.6038 34.3889Z" fill="#CBEAFF"/>
<path d="M54.7144 28.0212C54.7726 27.9827 54.8414 27.9671 54.9077 27.978C54.974 27.9889 55.034 28.0257 55.0767 28.0808C55.1193 28.1358 55.1405 28.2043 55.1438 28.2727C55.1506 28.4218 55.1559 28.5708 55.1597 28.7194C55.1933 30.0574 55.1019 31.3749 54.8857 32.6718C54.6696 33.9688 54.3287 35.2455 53.8628 36.5014C53.811 36.6409 53.7577 36.7802 53.7029 36.9192C53.6776 36.9829 53.6352 37.0411 53.5769 37.0796C53.5187 37.118 53.4498 37.1339 53.3835 37.123C53.3173 37.1121 53.2572 37.075 53.2146 37.02C53.172 36.965 53.151 36.8962 53.1477 36.8278C53.1409 36.6788 53.1356 36.5299 53.1318 36.3813C53.0982 35.0434 53.1896 33.7258 53.4058 32.4289C53.6219 31.132 53.9628 29.8552 54.4287 28.5993C54.4805 28.4598 54.5338 28.3206 54.5886 28.1816C54.6139 28.1179 54.6561 28.0597 54.7144 28.0212Z" fill="#CBEAFF"/>
<path d="M41.0125 43.3665C41.3184 41.093 43.41 39.4938 45.6842 39.7945L59.0605 41.5632C61.3347 41.864 62.9303 43.9507 62.6244 46.2242L60.8414 59.4761C60.5355 61.7495 58.444 63.3488 56.1698 63.0481L42.7934 61.2793C40.5193 60.9786 38.9237 58.8918 39.2296 56.6183L41.0125 43.3665Z" fill="#F05F2B"/>
<path d="M57.5497 52.2967C58.0378 48.6682 55.4745 45.3268 51.8125 44.8425C48.1504 44.3583 44.7931 46.9168 44.3048 50.5453C43.8166 54.1739 46.3801 57.5153 50.0423 57.9995C53.7043 58.4837 57.0615 55.9252 57.5497 52.2967ZM59.6824 52.5787C59.0347 57.393 54.5863 60.7686 49.7556 60.1299C44.9249 59.4911 41.5243 55.0777 42.172 50.2633C42.8198 45.449 47.2684 42.0736 52.0991 42.7124C56.9297 43.3512 60.3301 47.7644 59.6824 52.5787Z" fill="#FFB294"/>
<path fill-rule="evenodd" clip-rule="evenodd" d="M69.1131 22.9998C73.6475 22.7241 77.5469 26.1765 77.8226 30.711L79.8912 64.7359C80.1668 69.2703 76.7146 73.1696 72.1802 73.4454L30.6961 75.9676C26.1617 76.2433 22.2621 72.7908 21.9864 68.2564L19.9178 34.2315C19.6421 29.697 23.0945 25.7977 27.629 25.522L69.1131 22.9998ZM76.3252 30.802C76.0998 27.0945 72.9117 24.2715 69.2041 24.4969L27.72 27.0191C24.0125 27.2445 21.1897 30.4329 21.4151 34.1404L23.4837 68.1653C23.7091 71.8729 26.8975 74.6957 30.605 74.4703L72.0892 71.948C75.7967 71.7226 78.6193 68.5342 78.3938 64.8267L76.3252 30.802Z" fill="#045EB2"/>
</svg>
