<svg width="1063" height="678" viewBox="0 0 1063 678" fill="none" xmlns="http://www.w3.org/2000/svg">
<path opacity="0.75" d="M1062.03 642.599L1032.18 602.628C1029.19 598.651 1025.32 595.424 1020.87 593.203C1016.42 590.982 1011.51 589.828 1006.54 589.832H995.977C991.258 589.831 986.598 588.786 982.329 586.774C978.061 584.761 974.29 581.83 971.287 578.19L907.317 500.645C905.42 498.345 903.038 496.492 900.343 495.216C897.647 493.941 894.704 493.276 891.722 493.268C888.741 493.259 885.794 493.908 883.091 495.168C880.388 496.428 877.997 498.268 876.086 500.557L757.503 642.599H1062.03Z" fill="url(#paint0_linear_1804_4999)"/>
<path opacity="0.75" fill-rule="evenodd" clip-rule="evenodd" d="M671.026 157.054L693.606 155.35C694.252 155.301 694.869 155.068 695.386 154.678C695.902 154.289 696.296 153.758 696.519 153.151C698.704 147.018 702.725 141.706 708.036 137.939C713.347 134.172 719.69 132.133 726.201 132.099C730.318 132.087 734.396 132.901 738.194 134.493C741.991 136.084 745.43 138.422 748.308 141.367C748.807 141.887 749.459 142.233 750.169 142.356C750.88 142.479 751.61 142.371 752.255 142.048C754.812 140.715 757.645 139.997 760.529 139.951C763.412 139.905 766.267 140.533 768.865 141.784C769.276 141.98 769.722 142.088 770.176 142.103C770.63 142.118 771.083 142.039 771.505 141.871C771.927 141.703 772.31 141.449 772.629 141.126C772.949 140.802 773.198 140.417 773.362 139.993C776.319 132.415 781.464 125.889 788.141 121.245C794.819 116.6 802.727 114.047 810.86 113.91C818.993 113.773 826.982 116.059 833.812 120.477C840.642 124.894 846.004 131.244 849.214 138.717C849.534 139.457 850.107 140.057 850.831 140.412C851.554 140.767 852.38 140.852 853.161 140.652C855.553 140.057 858.006 139.744 860.471 139.718C864.871 139.761 869.164 141.079 872.83 143.512C876.496 145.945 879.378 149.389 881.127 153.426C881.37 153.992 881.762 154.481 882.262 154.841C882.762 155.202 883.35 155.419 883.963 155.471L902.311 156.944C907.258 157.186 907.148 161.396 901.97 161.396H671.367C666.266 161.506 666.079 157.285 671.026 157.054Z" fill="white"/>
<path opacity="0.75" fill-rule="evenodd" clip-rule="evenodd" d="M195.791 451.594L176.959 450.22C176.422 450.181 175.907 449.987 175.477 449.661C175.048 449.335 174.723 448.892 174.541 448.384C172.73 443.261 169.381 438.822 164.951 435.674C160.522 432.526 155.229 430.822 149.795 430.795C146.364 430.781 142.965 431.455 139.799 432.777C136.632 434.098 133.763 436.041 131.36 438.49C130.944 438.926 130.399 439.217 129.805 439.32C129.211 439.423 128.6 439.332 128.062 439.062C125.931 437.952 123.57 437.354 121.168 437.316C118.765 437.278 116.387 437.801 114.222 438.842C113.88 438.997 113.51 439.082 113.135 439.091C112.759 439.1 112.386 439.033 112.037 438.895C111.688 438.756 111.371 438.549 111.104 438.285C110.837 438.021 110.626 437.705 110.484 437.358C108.019 431.048 103.734 425.612 98.1731 421.743C92.6121 417.873 86.0263 415.744 79.2525 415.626C72.4787 415.508 65.8229 417.407 60.1307 421.081C54.4385 424.755 49.9669 430.038 47.2843 436.259C47.0173 436.876 46.5378 437.378 45.9327 437.672C45.3277 437.967 44.6372 438.035 43.9864 437.864C41.9936 437.368 39.9497 437.106 37.8961 437.083C34.2302 437.122 30.6538 438.221 27.5989 440.247C24.5439 442.274 22.1412 445.142 20.6809 448.505C20.4785 448.978 20.1519 449.387 19.7357 449.689C19.3196 449.991 18.8295 450.174 18.3174 450.22L3.02595 451.451C-1.09648 451.649 -1.00853 455.156 3.30078 455.156H195.505C199.715 455.299 199.913 451.781 195.791 451.594Z" fill="white"/>
<defs>
<linearGradient id="paint0_linear_1804_4999" x1="909.769" y1="642.599" x2="909.769" y2="493.224" gradientUnits="userSpaceOnUse">
<stop stop-color="white" stop-opacity="0"/>
<stop offset="0.1" stop-color="white" stop-opacity="0.07"/>
<stop offset="0.3" stop-color="white" stop-opacity="0.25"/>
<stop offset="0.58" stop-color="white" stop-opacity="0.53"/>
<stop offset="0.93" stop-color="white" stop-opacity="0.92"/>
<stop offset="1" stop-color="white"/>
</linearGradient>
</defs>
</svg>
