<svg fill="none" viewBox="0 0 24 24" xmlns="http://www.w3.org/2000/svg">
    <path fill="#fff" d="M17.32 18.438h-3.692l-1.107-5.035a25.74 25.74 0 0 1-.252-1.257 32.549 32.549 0 0 1-.245-1.573c-.043.342-.111.77-.206 1.28-.095.506-.19.973-.284 1.4-.09.426-.472 2.155-1.147 5.185h-3.69L3.834 6.882h3.011l1.257 5.793c.285 1.281.48 2.3.585 3.06.069-.538.19-1.268.364-2.19.179-.922.345-1.686.498-2.292l1.02-4.371h2.892l.988 4.37c.169.702.34 1.51.514 2.427s.29 1.602.348 2.055c.068-.585.255-1.599.56-3.043l1.281-5.81h3.012l-2.846 11.557Z"/>
</svg>
