<svg fill="none" viewBox="0 0 24 24" xmlns="http://www.w3.org/2000/svg">
  <path fill="#8FABF9" d="M2 8a5 5 0 0 1 5-5h10a5 5 0 0 1 5 5v8a5 5 0 0 1-5 5H7a5 5 0 0 1-5-5V8Z"/>
  <path fill="url(#Add-To-Dock-Color-24_svg__a)" d="M17 19.75V21H7v-1.25h10ZM20.75 16V8A3.75 3.75 0 0 0 17 4.25H7A3.75 3.75 0 0 0 3.25 8v8A3.75 3.75 0 0 0 7 19.75V21a5 5 0 0 1-4.998-4.871L2 16V8a5 5 0 0 1 4.871-4.998L7 3h10l.129.002A5 5 0 0 1 22 8v8l-.002.129a5 5 0 0 1-4.869 4.87L17 21v-1.25A3.75 3.75 0 0 0 20.75 16Z"/>
  <path fill="#E8EEFF" d="M3.25 13.5h17.5V16A3.75 3.75 0 0 1 17 19.75H7A3.75 3.75 0 0 1 3.25 16v-2.5Z"/>
  <path fill="#E2A412" d="M4.75 15.875c0-.621.504-1.125 1.125-1.125h1c.621 0 1.125.504 1.125 1.125H4.75Z"/>
  <path fill="#E8EEFF" d="M8.25 14.5a2.5 2.5 0 0 1 2.5-2.5h2.5a2.5 2.5 0 0 1 2.5 2.5V17a2.5 2.5 0 0 1-2.5 2.5h-2.5a2.5 2.5 0 0 1-2.5-2.5v-2.5Z"/>
  <path fill="#F9BE1A" d="M4.75 15.875H8v1.196a.929.929 0 0 1-.929.929h-.196a2.125 2.125 0 0 1-2.125-2.125"/>
  <path fill="#399F29" d="M16 15.75a1 1 0 0 1 1-1h1.25a1 1 0 0 1 1 1v.125A2.125 2.125 0 0 1 17.125 18H17a1 1 0 0 1-1-1v-1.25Z"/>
  <path fill="#DE5833" d="M9.75 14.75c0-.69.56-1.25 1.25-1.25h2c.69 0 1.25.56 1.25 1.25v2c0 .69-.56 1.25-1.25 1.25h-2c-.69 0-1.25-.56-1.25-1.25v-2Z"/>
  <path fill="#EB876C" d="M10.75 15a.5.5 0 0 1 .5-.5h1.5a.5.5 0 0 1 .5.5v1.5a.5.5 0 0 1-.5.5h-1.5a.5.5 0 0 1-.5-.5V15Z"/>
  <path fill="#fff" fill-opacity=".84" d="M11.375 8.625V6.75a.625.625 0 1 1 1.25 0v1.875a.625.625 0 1 1-1.25 0Zm3.308.808 1.25-1.25a.625.625 0 1 1 .884.884l-1.25 1.25a.625.625 0 0 1-.884-.884Zm-6.25.884-1.25-1.25a.625.625 0 1 1 .884-.884l1.25 1.25a.625.625 0 0 1-.884.884Z"/>
  <defs>
    <linearGradient id="Add-To-Dock-Color-24_svg__a" x1="12" x2="12" y1="3" y2="21" gradientUnits="userSpaceOnUse">
      <stop stop-color="#557FF3"/>
      <stop offset="1" stop-color="#2B55CA"/>
    </linearGradient>
  </defs>
</svg>
