<svg fill="none" viewBox="0 0 24 24" xmlns="http://www.w3.org/2000/svg">
  <path fill="#F5F5F5" d="M7 2a4 4 0 0 0-4 4v12a4 4 0 0 0 4 4h3.787c.652 0 .99-.987.59-1.5a6.5 6.5 0 0 1 8.124-9.768c.616.322 1.499-.08 1.499-.775V6a4 4 0 0 0-4-4H7Z"/>
  <path fill="url(#Ads-Blocked-Color-24_svg__a)" d="M7 3.5h10A2.5 2.5 0 0 1 19.5 6v4.732c.617.322 1.5-.08 1.5-.775V6a4 4 0 0 0-4-4H7a4 4 0 0 0-4 4v12a4 4 0 0 0 4 4h3.787c.652 0 .99-.987.59-1.5H7A2.5 2.5 0 0 1 4.5 18V6A2.5 2.5 0 0 1 7 3.5Z"/>
  <path fill="#DDD" d="M10.174 15a6.52 6.52 0 0 0 .324 4H7a1 1 0 0 1-1-1v-2a1 1 0 0 1 1-1h3.174Z"/>
  <path fill="#DE5833" d="M6 6a1 1 0 0 1 1-1h10a1 1 0 0 1 1 1v.5a1 1 0 0 1-1 1H7a1 1 0 0 1-1-1V6Z"/>
  <path fill="#AAA" d="M6 9.75A.75.75 0 0 1 6.75 9h4.5a.75.75 0 0 1 0 1.5h-4.5A.75.75 0 0 1 6 9.75Zm0 3a.75.75 0 0 1 .75-.75h5.06a6.52 6.52 0 0 0-1.078 1.5H6.75a.75.75 0 0 1-.75-.75Z"/>
  <path fill="#DE5833" d="M22 16.5a5.5 5.5 0 1 1-11 0 5.5 5.5 0 0 1 11 0Z"/>
  <path fill="#9A3216" fill-rule="evenodd" d="M16.5 20.667a4.167 4.167 0 1 0 0-8.334 4.167 4.167 0 0 0 0 8.334Zm0 1.333a5.5 5.5 0 1 0 0-11 5.5 5.5 0 0 0 0 11Z" clip-rule="evenodd"/>
  <path fill="#fff" fill-rule="evenodd" d="M13.834 16.5c0-.368.298-.667.666-.667h4a.667.667 0 0 1 0 1.334h-4a.667.667 0 0 1-.666-.667Z" clip-rule="evenodd"/>
  <defs>
    <linearGradient id="Ads-Blocked-Color-24_svg__a" x1="12" x2="12" y1="22" y2="2" gradientUnits="userSpaceOnUse">
      <stop stop-color="#888"/>
      <stop offset="1" stop-color="#AAA"/>
    </linearGradient>
  </defs>
</svg>
