<svg fill="none" viewBox="0 0 24 24" xmlns="http://www.w3.org/2000/svg">
  <path fill="#F5F5F5" d="M14.5 2H5a3 3 0 0 0-3 3v14a3 3 0 0 0 3 3h14a3 3 0 0 0 3-3v-5.914c-.17.08-.328.134-.437.171l-.043.014a3.82 3.82 0 0 1-.534.123 20.14 20.14 0 0 1-.665.101c-.24.033-.5.067-.76.098-.092.773-.2 1.587-.284 1.931l-.003.014c-.07.283-.182.747-.497 1.086-.41.444-.94.486-1.274.486-.517 0-.99-.182-1.325-.605-.232-.293-.35-.661-.416-.865v-.002l-.014-.042a3.978 3.978 0 0 1-.117-.537c-.032-.196-.066-.43-.098-.68-.033-.25-.066-.523-.098-.795-.75-.094-1.538-.204-1.875-.29l-.014-.004c-.277-.07-.74-.19-1.077-.516-.427-.414-.464-.94-.464-1.272 0-.33.037-.857.464-1.271.337-.327.8-.446 1.078-.517l.013-.003c.338-.087 1.131-.197 1.883-.292.092-.774.2-1.593.285-1.938l.003-.015c.058-.238.148-.605.363-.918a1.498 1.498 0 0 1-.065-.07A2.5 2.5 0 1 1 14.5 2m6.959 7.714c.144.037.34.087.541.173V5.99a1.612 1.612 0 0 1-.294.089l-.523.104-.104.523a1.61 1.61 0 0 1-1.706 1.289c.062.399.13.92.19 1.424.751.095 1.544.205 1.882.292l.014.003Z"/>
  <path fill="#666" d="M14.5 2H5a3 3 0 0 0-3 3v14a3 3 0 0 0 3 3h14a3 3 0 0 0 3-3v-5.914c-.17.08-.328.134-.437.171l-.043.014a3.82 3.82 0 0 1-.534.123c-.098.017-.205.034-.32.051V19c0 .92-.745 1.667-1.666 1.667H5c-.92 0-1.667-.747-1.667-1.667V5c0-.92.747-1.667 1.667-1.667h7.288A2.5 2.5 0 0 1 14.5 2m6.579 4.706a1.61 1.61 0 0 1-.412.794v2.07c.33.049.61.098.778.14l.014.004c.144.037.34.087.541.173V5.99a1.612 1.612 0 0 1-.294.089l-.523.104z"/>
  <path fill="#DDD" d="M12.77 13c.277.162.576.239.777.29l.013.004c.337.086 1.126.196 1.875.29.031.272.065.545.098.795.032.25.066.484.098.68.029.172.067.381.117.537l.014.042v.002c.066.204.184.572.416.865.336.423.808.605 1.325.605.333 0 .864-.042 1.274-.486.315-.34.428-.803.497-1.086l.003-.014c.018-.073.037-.166.056-.276v3.085a1 1 0 0 1-1 1H5.667a1 1 0 0 1-1-1V14a1 1 0 0 1 1-1z"/>
  <path fill="#AAA" d="M13.984 9.626c-.175.03-.32.058-.424.085l-.014.003c-.198.051-.493.127-.768.286H5.165a.5.5 0 0 1 0-1H13.5a.5.5 0 0 1 .484.626M4.667 11.5a.5.5 0 0 1 .5-.5H11.5a.5.5 0 1 1 0 1H5.167a.5.5 0 0 1-.5-.5"/>
  <rect width="7.333" height="3.333" x="4.667" y="4.667" fill="#DE5833" rx="1"/>
  <path fill="#6B4EBA" d="M18.306 7.718c-.16-.658-.271-.823-.803-.823-.533 0-.643.165-.804.823-.095.389-.246 1.64-.353 2.6-.936.11-2.158.264-2.538.362-.643.164-.803.277-.803.822 0 .546.16.659.803.823.38.097 1.597.252 2.532.362.108.996.263 2.303.36 2.6.16.493.27.823.803.823.532 0 .642-.165.803-.823.095-.389.245-1.636.353-2.594.972-.11 2.248-.269 2.538-.368.482-.164.803-.277.803-.823 0-.545-.16-.658-.803-.822-.38-.098-1.602-.252-2.537-.363-.108-.958-.26-2.21-.354-2.6Z"/>
  <circle cx="14.458" cy="4.5" r="1.453" fill="#FFD65C"/>
  <path fill="#8FABF9" d="m20.333 3.667-.235-1.177a.61.61 0 0 0-1.196 0l-.235 1.177-1.177.235a.61.61 0 0 0 0 1.196l1.177.235.235 1.177a.61.61 0 0 0 1.196 0l.235-1.177 1.177-.235a.61.61 0 0 0 0-1.196l-1.177-.235Z"/>
</svg>
