<svg fill="none" viewBox="0 0 24 24" xmlns="http://www.w3.org/2000/svg">
  <path fill="#F9BE1A" d="M3.917 5.26a2.51 2.51 0 0 1 2.509-2.51H20v13.597H5.772l-1.856 1.236V5.26Z"/>
  <path fill="#FFF0C2" d="M3.917 18.792c0-1.358 1.1-2.459 2.458-2.459H20l-.166.508a6.274 6.274 0 0 0 0 3.901l.166.508H6.375a2.458 2.458 0 0 1-2.458-2.458"/>
  <path fill="#92540C" fill-rule="evenodd" d="M6.26 2A3.26 3.26 0 0 0 3 5.26v13.49a.77.77 0 0 0 0 .042A3.208 3.208 0 0 0 6.208 22H20.25a.75.75 0 0 0 .713-.983l-.166-.508a5.524 5.524 0 0 1 0-3.435l.166-.508A.75.75 0 0 0 21 16.29V2.75a.75.75 0 0 0-.75-.75zM19.5 15.583V3.5H6.26A1.76 1.76 0 0 0 4.5 5.26v10.816a3.193 3.193 0 0 1 1.708-.493zm-15 3.209c0-.944.765-1.709 1.708-1.709h13.026a7.025 7.025 0 0 0 0 3.417H6.208A1.708 1.708 0 0 1 4.5 18.792" clip-rule="evenodd"/>
  <path fill="#7295F6" d="M7.667 12.284V2.75h5.666v9.534c0 .26-.297.406-.504.25l-2.14-1.63a.314.314 0 0 0-.38 0l-2.139 1.63a.314.314 0 0 1-.503-.25Z"/>
  <path fill="#1E42A4" fill-rule="evenodd" d="M7 2h7v10.272a1.064 1.064 0 0 1-1.72.837l-1.78-1.396-1.78 1.396c-.698.547-1.72.05-1.72-.837V2Zm1.5 1.5v7.875l1.344-1.053a1.064 1.064 0 0 1 1.312 0l1.344 1.053V3.5h-4Z" clip-rule="evenodd"/>
</svg>
