<svg fill="none" viewBox="0 0 24 24" xmlns="http://www.w3.org/2000/svg">
  <path fill="#CCDAFF" d="M18.375 10.5a7.875 7.875 0 1 1-15.75 0 7.875 7.875 0 0 1 15.75 0Z"/>
  <path fill="#fff" fill-rule="evenodd" d="M6.01 13.897a7.5 7.5 0 0 1 7.887-7.887 5.667 5.667 0 0 0-7.887 7.887Z" clip-rule="evenodd"/>
  <path fill="#888" fill-rule="evenodd" d="M10.5 2a8.5 8.5 0 1 0 5.552 14.936l4.881 4.88a.625.625 0 1 0 .884-.883l-4.88-4.88A8.5 8.5 0 0 0 10.5 2Zm-7.25 8.5a7.25 7.25 0 1 1 14.5 0 7.25 7.25 0 0 1-14.5 0Z" clip-rule="evenodd"/>
</svg>
