<svg fill="none" viewBox="0 0 24 24" xmlns="http://www.w3.org/2000/svg">
  <path fill="#888" fill-rule="evenodd" d="M13.667 3.5h-3.334a.833.833 0 0 0-.833.833V8A1.5 1.5 0 0 0 11 9.5h2A1.5 1.5 0 0 0 14.5 8V4.333a.833.833 0 0 0-.833-.833M10.333 2A2.333 2.333 0 0 0 8 4.333V8a3 3 0 0 0 3 3h2a3 3 0 0 0 3-3V4.333A2.333 2.333 0 0 0 13.667 2z" clip-rule="evenodd"/>
  <path fill="#E2A412" d="M5.917 5.5a3.333 3.333 0 0 0-3.333 3.333v9.334A3.333 3.333 0 0 0 5.917 21.5h5.792c.46 0 .705-.603.434-.976a6 6 0 0 1 8.312-8.43c.373.263.962.018.962-.437V8.833A3.333 3.333 0 0 0 18.083 5.5H5.918Z"/>
  <path fill="#F9BE1A" d="M6 6h2v15H6zm10 .083h2v5a6.036 6.036 0 0 0-2 0z"/>
  <path fill="#92540C" d="M6 6.5h12A2.5 2.5 0 0 1 20.5 9v3.126c.528.38 1.5.033 1.5-.617V9a4 4 0 0 0-4-4H6a4 4 0 0 0-4 4v9a4 4 0 0 0 4 4h5.51c.65 0 .996-.972.616-1.5H6A2.5 2.5 0 0 1 3.5 18V9A2.5 2.5 0 0 1 6 6.5"/>
  <path fill="#7295F6" d="M22 17a5 5 0 1 1-10 0 5 5 0 0 1 10 0"/>
  <path fill="#1E42A4" fill-rule="evenodd" d="M17 20.667a3.667 3.667 0 1 0 0-7.334 3.667 3.667 0 0 0 0 7.334M17 22a5 5 0 1 0 0-10 5 5 0 0 0 0 10" clip-rule="evenodd"/>
  <path fill="#fff" fill-rule="evenodd" d="M14.646 16.646a.5.5 0 0 1 .708 0l1.146 1.147V15a.5.5 0 0 1 1 0v2.793l1.146-1.147a.5.5 0 0 1 .708.708l-2 2a.5.5 0 0 1-.708 0l-2-2a.5.5 0 0 1 0-.708" clip-rule="evenodd"/>
</svg>
