<svg fill="none" viewBox="0 0 24 24" xmlns="http://www.w3.org/2000/svg">
  <path fill="#CCDAFF" d="M18.666 10.666a8 8 0 1 1-16 0 8 8 0 0 1 16 0"/>
  <path fill="#fff" fill-rule="evenodd" d="M6.01 13.897a7.5 7.5 0 0 1 7.887-7.887 5.667 5.667 0 0 0-7.887 7.887Z" clip-rule="evenodd"/>
  <path fill="#666" fill-rule="evenodd" d="M3.417 10.666a7.25 7.25 0 1 1 14.5 0 7.25 7.25 0 0 1-14.5 0Zm7.25-8.75A8.75 8.75 0 1 0 16.3 17.361l4.502 4.502a.75.75 0 0 0 1.06-1.06L17.361 16.3a8.75 8.75 0 0 0-6.695-14.384Z" clip-rule="evenodd"/>
</svg>
