<svg fill="none" viewBox="0 0 24 24" xmlns="http://www.w3.org/2000/svg">
  <path fill="#4CBA3C" d="M12 21.334c.289 0 .577-.066.836-.197l.221-.112c2.538-1.286 4.751-2.408 6.23-4.62 1.38-2.064 2.085-5.012 2.045-9.805-.004-.422-.216-.821-.581-1.096a1.835 1.835 0 0 0-1.326-.336c-1.368.174-2.44.127-3.382-.165-.95-.295-1.839-.86-2.788-1.828A1.774 1.774 0 0 0 12 2.667v18.667Z"/>
  <path fill="#96E38A" d="M12 21.334c-.289 0-.577-.066-.836-.197l-.221-.112c-2.538-1.286-4.75-2.408-6.23-4.62-1.38-2.064-2.086-5.012-2.045-9.805.004-.422.216-.821.581-1.096a1.835 1.835 0 0 1 1.326-.336c1.368.174 2.44.127 3.382-.165.95-.295 1.839-.86 2.788-1.828.315-.32.773-.506 1.255-.508v18.667Z"/>
  <path stroke="#288419" stroke-linecap="round" stroke-linejoin="bevel" stroke-width="1.333" d="M12 21.333v-18"/>
  <path stroke="#288419" stroke-linejoin="round" stroke-width="1.5" d="M10.743 3.247c-.928.936-1.798 1.498-2.734 1.798-.934.298-2 .356-3.37.183-.872-.11-1.88.46-1.887 1.42-.04 4.75.658 7.671 2.026 9.717 1.466 2.192 3.66 3.304 6.174 4.579.72.364 1.39.357 2.096 0 2.515-1.275 4.708-2.387 6.174-4.58 1.368-2.045 2.067-4.966 2.026-9.717-.008-.96-1.017-1.53-1.89-1.419-1.355.173-2.418.126-3.352-.163-.941-.292-1.822-.853-2.763-1.812-.655-.667-1.84-.67-2.5-.006Z" clip-rule="evenodd"/>
</svg>
