<svg width="16" height="16" viewBox="0 0 16 16" fill="none" xmlns="http://www.w3.org/2000/svg">
<path d="M7.5099 2.38266C7.63745 1.87245 8.36255 1.87245 8.4901 2.38266L9.07446 4.7201C9.34596 5.80609 10.1939 6.65404 11.2799 6.92554L13.6173 7.5099C14.1276 7.63745 14.1276 8.36255 13.6173 8.4901L11.2799 9.07446C10.1939 9.34596 9.34596 10.1939 9.07446 11.2799L8.4901 13.6173C8.36255 14.1276 7.63745 14.1276 7.5099 13.6173L6.92554 11.2799C6.65404 10.1939 5.80609 9.34596 4.7201 9.07446L2.38266 8.4901C1.87245 8.36255 1.87245 7.63745 2.38266 7.5099L4.7201 6.92554C5.80609 6.65404 6.65404 5.80609 6.92554 4.7201L7.5099 2.38266Z" fill="#77B6E8" stroke="#2373D5" stroke-linecap="round" stroke-linejoin="round"/>
<path d="M2.70312 7.71279C2.63063 7.72058 2.56111 7.75202 2.50986 7.80531C2.4586 7.85856 2.4298 7.92858 2.4298 8.00108C2.4298 8.07359 2.4586 8.14361 2.50986 8.19685C2.56111 8.25014 2.63063 8.28158 2.70312 8.28938C2.8534 8.30461 2.99552 8.31646 3.14721 8.32414C4.4587 8.39529 5.97555 8.14602 7.05239 7.08334C8.13038 6.02152 8.39685 4.49954 8.33195 3.18655C8.32511 3.03474 8.31406 2.89244 8.29958 2.7417C8.29186 2.66615 8.25925 2.59369 8.20381 2.54027C8.14842 2.48685 8.07547 2.45684 7.99991 2.45684C7.92435 2.45684 7.8514 2.48685 7.79601 2.54027C7.74057 2.59369 7.70796 2.66615 7.70024 2.7417C7.68567 2.88451 7.66928 3.01779 7.65042 3.1583C7.48428 4.39207 7.11903 5.57475 6.32527 6.34677C5.54212 7.13013 4.35615 7.48932 3.12039 7.661C2.97953 7.68041 2.84596 7.69746 2.70312 7.71279Z" fill="white"/>
<path d="M12.8366 1.12755C12.8792 0.957482 13.1208 0.957483 13.1634 1.12755L13.3582 1.9067C13.4487 2.2687 13.7313 2.55135 14.0933 2.64185L14.8724 2.83663C15.0425 2.87915 15.0425 3.12085 14.8724 3.16337L14.0933 3.35815C13.7313 3.44865 13.4487 3.7313 13.3582 4.0933L13.1634 4.87245C13.1208 5.04252 12.8792 5.04252 12.8366 4.87245L12.6418 4.0933C12.5513 3.7313 12.2687 3.44865 11.9067 3.35815L11.1276 3.16337C10.9575 3.12085 10.9575 2.87915 11.1276 2.83663L11.9067 2.64185C12.2687 2.55135 12.5513 2.2687 12.6418 1.9067L12.8366 1.12755Z" fill="#2373D5"/>
</svg>
