<svg width="24" height="24" viewBox="0 0 24 24" fill="none" xmlns="http://www.w3.org/2000/svg">
<rect x="2" y="3" width="18" height="18" rx="5" fill="#F05C2B" stroke="#CC1800" stroke-width="1.5" stroke-miterlimit="10"/>
<path d="M14.463 9.57804C15.179 9.95205 15.179 10.9767 14.463 11.3508L9.74782 13.8138C9.08204 14.1616 8.28482 13.6786 8.28482 12.9274L8.28482 8.00135C8.28482 7.2502 9.08204 6.76721 9.74782 7.11499L14.463 9.57804Z" fill="#551605"/>
<path d="M15 16.5C19 16.5 20 14 20 12C20 18.5 19 21.134 15.5 21.134C13 21.134 13 21 7.5 21C3.1 21 2 17.8333 2 16.5H15Z" fill="#CC1800"/>
<path d="M5 18.7516C4.93778 18.7588 4.87812 18.7859 4.83412 18.8318C4.79013 18.8776 4.76541 18.9378 4.76541 19C4.76541 19.0622 4.79013 19.1224 4.83412 19.1682C4.87812 19.2141 4.93778 19.2412 5 19.2484C5 19.2484 5 19.2484 5 19.2484C5.14167 19.2646 5.28333 19.2801 5.425 19.2948C6.74684 19.4316 8.06868 19.5 9.39052 19.5C10.6187 19.5 11.8468 19.433 13.075 19.299C13.2167 19.2835 13.3583 19.2672 13.5 19.2499C13.5624 19.2423 13.6222 19.2149 13.6663 19.1688C13.7104 19.1227 13.7352 19.0624 13.7352 19C13.7352 18.9376 13.7104 18.8773 13.6663 18.8312C13.6222 18.7851 13.5624 18.7577 13.5 18.7501C13.3583 18.7328 13.2167 18.7165 13.075 18.701C11.8468 18.567 10.6187 18.5 9.39052 18.5C8.06868 18.5 6.74684 18.5684 5.425 18.7052C5.28333 18.7199 5.14167 18.7354 5 18.7516Z" fill="#FEDB80"/>
<path d="M15 18.7516C14.9482 18.7772 14.8986 18.8093 14.862 18.8528C14.8254 18.8963 14.8048 18.9474 14.8048 19C14.8048 19.0526 14.8254 19.1037 14.862 19.1472C14.8986 19.1907 14.9482 19.2228 15 19.2484C15 19.2484 15 19.2484 15 19.2484C15.0333 19.2646 15.0667 19.2801 15.1 19.2948C15.411 19.4316 15.722 19.5 16.0331 19.5C16.322 19.5 16.611 19.433 16.9 19.299C16.9333 19.2835 16.9667 19.2672 17 19.2499C17.0513 19.223 17.1005 19.1902 17.1368 19.1466C17.1731 19.103 17.1935 19.0522 17.1935 19C17.1935 18.9478 17.1731 18.897 17.1368 18.8534C17.1005 18.8098 17.0513 18.777 17 18.7501C16.9667 18.7328 16.9333 18.7165 16.9 18.701C16.611 18.567 16.322 18.5 16.0331 18.5C15.722 18.5 15.411 18.5684 15.1 18.7052C15.0667 18.7199 15.0333 18.7354 15 18.7516Z" fill="#FEDB80"/>
</svg>
