<svg width="24" height="24" viewBox="0 0 24 24" fill="none" xmlns="http://www.w3.org/2000/svg">
<path d="M15.5955 11.3212C14.5135 11.7031 15.0268 9.66173 14.7765 7.6993C14.3702 4.51934 12.418 2.40612 10.4677 2.04165C10.3237 2.01474 10.2064 2.14714 10.2265 2.29226C10.4581 3.96849 9.59694 6.17445 8.82359 7.23923C8.72063 7.38099 8.50963 7.32322 8.45997 7.1552C8.20072 6.27819 7.64041 5.52429 6.62001 5.32116C6.48711 5.29471 6.37332 5.40874 6.37877 5.54414C6.46021 7.56523 5.23223 9.18931 4.55245 11.1712C3.94338 12.9433 3.53191 15.4728 5.02295 17.61C7.36798 20.9738 11.5373 21.2886 13.9939 20.8381C16.9887 20.2893 18.9231 18.3408 19.6299 16.2167C20.9421 12.2727 18.3544 9.90807 18.2118 8.49275C18.1966 8.34226 18.0632 8.20694 17.9187 8.25151C16.2425 8.7685 16.3923 11.0376 15.5953 11.3192L15.5955 11.3212Z" fill="#F05C2B" stroke="#CC1800" stroke-width="1.5" stroke-miterlimit="10"/>
<path d="M7.69436 16.3453C7.64805 16.3056 7.59035 16.278 7.52847 16.2731C7.46662 16.2682 7.40626 16.2858 7.35928 16.3232C7.31229 16.3606 7.28159 16.4155 7.27252 16.4769C7.26341 16.5383 7.27731 16.6007 7.30564 16.6547C7.30564 16.6547 7.30564 16.6547 7.30564 16.6547C7.42106 16.8466 7.55766 16.9865 7.69577 17.1202C9.00853 18.2997 10.7873 18.8487 12.5632 18.7402C13.0768 18.706 13.5888 18.6097 14.0802 18.4526C15.1636 18.1021 16.1324 17.4825 16.8592 16.6301C16.9809 16.4839 17.0932 16.333 17.1926 16.1593C17.2214 16.1053 17.2362 16.043 17.2281 15.9813C17.22 15.9196 17.1903 15.8642 17.144 15.8259C17.0977 15.7876 17.0376 15.7688 16.9756 15.7725C16.9134 15.7761 16.855 15.8023 16.8074 15.8407C16.8074 15.8407 16.8074 15.8407 16.8074 15.8407C16.6848 15.9334 16.5466 16.0186 16.4045 16.0994C15.5499 16.5711 14.6217 16.8831 13.7146 17.0653C13.2992 17.1474 12.8818 17.2013 12.462 17.2295C11.0234 17.3171 9.48682 17.1321 8.08535 16.5577C7.94219 16.4945 7.7936 16.4162 7.69436 16.3453Z" fill="#FEDB80"/>
</svg>
