<svg width="24" height="24" viewBox="0 0 24 24" fill="none" xmlns="http://www.w3.org/2000/svg">
<path d="M16 8V5.5C16 4.11929 14.8807 3 13.5 3H10.5C9.11929 3 8 4.11929 8 5.5V8" stroke="black" stroke-width="1.5"/>
<path d="M3 10C3 8.34315 4.34315 7 6 7H18C19.6569 7 21 8.34315 21 10V18C21 19.6569 19.6569 21 18 21H6C4.34315 21 3 19.6569 3 18V10Z" fill="#FEC657" stroke="#EBA100" stroke-width="1.5"/>
<path d="M15.25 19C15.2392 19.1989 15.3088 19.3897 15.4497 19.5303C15.5902 19.671 15.7903 19.75 16 19.75C16.2097 19.75 16.4098 19.671 16.5503 19.5303C16.6912 19.3897 16.7608 19.1989 16.75 19C16.742 18.85 16.734 18.7 16.726 18.55C16.5821 15.85 16.4382 13.15 16.2942 10.45C16.2862 10.3 16.2782 10.15 16.2702 10C16.2666 9.93205 16.2349 9.86688 16.1843 9.81882C16.1335 9.77077 16.068 9.74378 16 9.74378C15.932 9.74378 15.8665 9.77077 15.8157 9.81882C15.7651 9.86688 15.7334 9.93205 15.7298 10C15.7218 10.15 15.7138 10.3 15.7058 10.45C15.5618 13.15 15.4179 15.85 15.274 18.55C15.266 18.7 15.258 18.85 15.25 19Z" fill="#C38500"/>
<circle cx="17.5" cy="17.5" r="5.5" fill="white" stroke="white" stroke-width="1.5"/>
<circle cx="17.5" cy="17.5" r="4.5" fill="#2373D5" stroke="#0A467B" stroke-width="1.5"/>
<path d="M20.2039 17.7039C20.2476 17.6465 20.2737 17.5755 20.2719 17.5022C20.2701 17.4289 20.2413 17.3599 20.1907 17.3093C20.1401 17.2587 20.0711 17.2299 19.9978 17.2281C19.9245 17.2263 19.8535 17.2524 19.7961 17.2961C19.7961 17.2961 19.7961 17.2961 19.7961 17.2961C19.7045 17.3661 19.6135 17.4367 19.5229 17.5078C18.8119 18.0661 18.1341 18.6577 17.4897 19.2826C17.4895 19.2796 17.497 19.2749 17.5 19.2754C17.503 19.2749 17.5105 19.2795 17.5104 19.2825C16.8664 18.6571 16.1908 18.0634 15.4836 17.5013C15.3935 17.4297 15.303 17.3587 15.2119 17.2882C15.1524 17.2422 15.0785 17.2149 15.0022 17.2166C14.9259 17.2184 14.8539 17.2484 14.8011 17.3012C14.7484 17.354 14.7183 17.4259 14.7166 17.5022C14.7148 17.5786 14.7421 17.6525 14.7881 17.712C14.7881 17.712 14.7881 17.712 14.7881 17.712C14.8586 17.803 14.9297 17.8936 15.0013 17.9836C15.5633 18.6909 16.1571 19.3665 16.7825 20.0104C16.9669 20.1998 17.2349 20.312 17.5 20.3104C17.7651 20.312 18.0332 20.1997 18.2174 20.0103C18.8423 19.3659 19.4339 18.6881 19.9922 17.9771C20.0633 17.8865 20.1339 17.7955 20.2039 17.7039Z" fill="white"/>
<path d="M3.70014 11.6861C3.69922 11.7781 3.72662 11.8705 3.78421 11.9441C3.84175 12.0177 3.92374 12.0664 4.01397 12.0796C4.1042 12.0929 4.19672 12.0699 4.27301 12.016C4.34936 11.9621 4.40219 11.8815 4.42779 11.7932C4.42779 11.7932 4.42779 11.7932 4.42779 11.7932C4.47892 11.616 4.52814 11.4386 4.57545 11.2609C4.70859 10.7607 4.8266 10.2583 4.92946 9.75362C4.99774 9.46315 5.19255 9.22275 5.44556 9.09376C5.55915 9.03557 5.6838 9.00186 5.81268 8.99487C7.89416 8.88993 9.97287 8.72233 12.0488 8.49207C12.2308 8.47188 12.4128 8.45122 12.5947 8.43007C12.6813 8.41996 12.7631 8.37969 12.8217 8.31389C12.8804 8.24812 12.9112 8.16285 12.9074 8.07596C12.9035 7.98907 12.8653 7.90685 12.8011 7.84651C12.7368 7.78614 12.6519 7.75325 12.5647 7.75082C12.5647 7.75082 12.5647 7.75082 12.5647 7.75082C12.3816 7.74581 12.1985 7.74128 12.0154 7.73723C9.92728 7.69107 7.84188 7.70757 5.75926 7.78673C5.45957 7.7983 5.16039 7.87629 4.89251 8.01383C4.29377 8.31489 3.87084 8.93339 3.80691 9.58854C3.76013 10.1014 3.72848 10.6165 3.71198 11.1339C3.70612 11.3177 3.70217 11.5018 3.70014 11.6861Z" fill="#FFE9BD"/>
<path d="M17 19.5C16.994 19.6326 17.0414 19.7598 17.1353 19.8536C17.229 19.9473 17.3614 20 17.5 20C17.6386 20 17.771 19.9473 17.8647 19.8536C17.9586 19.7598 18.006 19.6326 18 19.5C17.9967 19.425 17.9933 19.35 17.99 19.275C17.9299 17.925 17.8698 16.575 17.8097 15.225C17.8063 15.15 17.803 15.075 17.7997 15C17.7962 14.924 17.7617 14.8511 17.7055 14.7973C17.6493 14.7436 17.576 14.7134 17.5 14.7134C17.424 14.7134 17.3507 14.7436 17.2945 14.7973C17.2383 14.8511 17.2038 14.924 17.2003 15C17.197 15.075 17.1937 15.15 17.1903 15.225C17.1302 16.575 17.0701 17.925 17.01 19.275C17.0067 19.35 17.0033 19.425 17 19.5Z" fill="white"/>
<path d="M7.25 19C7.23925 19.1989 7.30885 19.3897 7.44968 19.5303C7.59015 19.671 7.79034 19.75 8 19.75C8.20966 19.75 8.40985 19.671 8.55032 19.5303C8.69115 19.3897 8.76075 19.1989 8.75 19C8.742 18.85 8.73401 18.7 8.72601 18.55C8.58208 15.85 8.43816 13.15 8.29423 10.45C8.28623 10.3 8.27824 10.15 8.27024 10C8.26657 9.93205 8.23488 9.86688 8.18426 9.81882C8.13352 9.77077 8.068 9.74378 8 9.74378C7.932 9.74378 7.86648 9.77077 7.81574 9.81882C7.76512 9.86688 7.73343 9.93205 7.72976 10C7.72176 10.15 7.71377 10.3 7.70577 10.45C7.56184 13.15 7.41792 15.85 7.27399 18.55C7.26599 18.7 7.258 18.85 7.25 19Z" fill="#C38500"/>
</svg>
