<svg width="24" height="24" viewBox="0 0 24 24" fill="none" xmlns="http://www.w3.org/2000/svg">
<mask id="mask0_3150_29403" style="mask-type:alpha" maskUnits="userSpaceOnUse" x="2" y="1" width="20" height="21">
<path d="M22 13.5283C20.9385 12.5781 19.5368 12 18 12C14.6863 12 12 14.6863 12 18C12 19.5371 12.5788 20.9384 13.5293 22H2V1H22V13.5283Z" fill="#D9D9D9"/>
</mask>
<g mask="url(#mask0_3150_29403)">
<rect x="3" y="3" width="18" height="18" rx="3" fill="#459F8B" stroke="#245C50" stroke-width="1.5" stroke-linecap="round" stroke-linejoin="round"/>
<path d="M8 8V5.5C8 4.11929 9.11929 3 10.5 3" stroke="#245C50" stroke-width="1.5" stroke-linecap="round" stroke-linejoin="round"/>
<path d="M3 11C3 9.34315 4.34315 8 6 8H11C12.1046 8 13 7.10457 13 6V5C13 3.89543 13.8954 3 15 3H18C19.6569 3 21 4.34315 21 6V18C21 19.6569 19.6569 21 18 21H6C4.34315 21 3 19.6569 3 18V11Z" fill="#E4F5F1" stroke="#245C50" stroke-width="1.5" stroke-linecap="round" stroke-linejoin="round"/>
</g>
<path d="M14.6133 16.3384C14.481 16.3391 14.3542 16.3918 14.2606 16.4855C14.1671 16.5792 14.1146 16.7061 14.1146 16.8384C14.1146 16.9706 14.1671 17.0975 14.2606 17.1912C14.3542 17.2849 14.481 17.3377 14.6133 17.3384C14.6133 17.3384 14.6133 17.3384 14.6133 17.3384C14.8349 17.3395 15.0539 17.3427 15.2725 17.3482C17.191 17.4244 19.3917 17.5325 20.6435 18.6425C20.8747 18.8723 21.0261 19.1374 21.0944 19.4452C21.4729 20.7364 20.0396 21.7469 18.5733 21.9722C18.3664 22.0091 18.1561 22.0348 17.9443 22.0493C17.8674 22.0544 17.7936 22.0866 17.7392 22.1423C17.6848 22.198 17.6542 22.2721 17.6542 22.349C17.6542 22.4259 17.6848 22.5 17.7392 22.5557C17.7936 22.6114 17.8674 22.6436 17.9443 22.6487C18.1787 22.6632 18.4147 22.6638 18.651 22.6499C19.4921 22.5955 20.3621 22.3812 21.1072 21.8239C21.8704 21.2967 22.3229 20.173 22.0935 19.2387C21.9994 18.7367 21.7294 18.2569 21.3737 17.909C19.5013 16.3428 17.3045 16.4472 15.2931 16.3418C15.0669 16.3382 14.8412 16.3372 14.6133 16.3384Z" fill="#245C50"/>
<path d="M17.1734 14.2354C17.2171 14.1775 17.2423 14.1059 17.2394 14.0324C17.2365 13.9589 17.2063 13.89 17.1545 13.84C17.1027 13.7899 17.0328 13.7622 16.9592 13.7619C16.8856 13.7616 16.815 13.7892 16.7586 13.8349C16.7586 13.8349 16.7586 13.8349 16.7586 13.8349C16.6601 13.9149 16.5621 13.9955 16.4647 14.0766C15.6868 14.7242 14.944 15.4056 14.2362 16.1208C14.0544 16.3047 13.9476 16.5666 13.949 16.8259C13.9476 17.0852 14.0543 17.3471 14.2361 17.5311C14.9435 18.2467 15.6841 18.9302 16.4581 19.5816C16.555 19.6631 16.6525 19.7442 16.7505 19.8248C16.8088 19.8727 16.8824 19.9017 16.9591 19.9014C17.0357 19.9012 17.1085 19.8723 17.1625 19.8201C17.2165 19.768 17.248 19.6962 17.2509 19.6196C17.2539 19.543 17.2275 19.4685 17.1816 19.4085C17.1045 19.3077 17.0269 19.2075 16.9488 19.1078C16.325 18.3114 15.6679 17.5473 14.9775 16.8153C14.9804 16.8157 14.9845 16.8228 14.984 16.8259C14.9845 16.8289 14.9803 16.8361 14.9774 16.8364C15.6674 16.104 16.3223 15.3377 16.9422 14.5376C17.0198 14.4374 17.0969 14.3367 17.1734 14.2354Z" fill="#245C50"/>
</svg>
