<svg width="24" height="24" viewBox="0 0 24 24" fill="none" xmlns="http://www.w3.org/2000/svg">
<path d="M12 22C13.988 22 17.984 20.4703 20.1153 17.0414C21.8672 14.2248 22.118 11.2032 21.9601 9.07825C21.7477 6.21197 20.5069 5.77602 18.4299 5.11427C16.8108 4.59871 15.5885 3.88344 14.8175 3.13946C13.9681 2.31978 12.9767 2 12 2C11.0232 2 10.0318 2.31978 9.18246 3.13946C8.4114 3.88344 7.18779 4.59871 5.57002 5.11427C3.49306 5.77602 2.2522 6.21327 2.03986 9.07825C1.88193 11.2019 2.13408 14.2248 3.88456 17.0414C6.01593 20.469 10.0119 22 12 22Z" fill="#368372"/>
<path d="M12.1553 1.25342C13.2571 1.2866 14.3802 1.67603 15.3379 2.6001C16.0051 3.2438 17.1169 3.90938 18.6572 4.3999C19.6556 4.71801 20.6607 5.03455 21.4023 5.71826C22.1921 6.44669 22.5943 7.48869 22.708 9.02295L22.7334 9.45166C22.8309 11.573 22.5199 14.4326 20.9219 17.1567L20.752 17.438C19.6026 19.2868 17.9614 20.6095 16.3584 21.4683C15.0034 22.1941 13.6282 22.6118 12.54 22.7202C13.7829 15.7564 13.277 7.59218 12.1553 1.25342Z" fill="#459F8B"/>
<path d="M12 22C13.988 22 17.984 20.4703 20.1153 17.0414C21.8672 14.2248 22.118 11.2032 21.9601 9.07825C21.7477 6.21197 20.5069 5.77602 18.4299 5.11427C16.8108 4.59871 15.5885 3.88344 14.8175 3.13946C13.9681 2.31978 12.9767 2 12 2C11.0232 2 10.0318 2.31978 9.18246 3.13946C8.4114 3.88344 7.18779 4.59871 5.57002 5.11427C3.49306 5.77602 2.2522 6.21327 2.03986 9.07825C1.88193 11.2019 2.13408 14.2248 3.88456 17.0414C6.01593 20.469 10.0119 22 12 22Z" stroke="#245C50" stroke-width="1.5" stroke-linecap="round" stroke-linejoin="round"/>
<path d="M13.0887 5.33827C13.0712 5.26625 13.0285 5.20168 12.9667 5.15934C12.905 5.11699 12.8297 5.10026 12.7569 5.11293C12.684 5.12561 12.6189 5.16677 12.5751 5.22748C12.5312 5.2882 12.5128 5.3634 12.5207 5.43712C12.5207 5.43712 12.5207 5.43712 12.5207 5.43712C12.5444 5.66237 12.5664 5.89085 12.5864 6.1183C12.7631 8.16486 12.8176 10.2193 12.8454 12.2746C12.8697 14.3306 12.8573 16.3894 12.8056 18.4539C12.7998 18.6827 12.7932 18.9136 12.7862 19.1415C12.7838 19.2187 12.8089 19.2952 12.8593 19.3547C12.9096 19.4141 12.9805 19.4516 13.0572 19.4588C13.1338 19.4661 13.2106 19.4426 13.2712 19.3936C13.3318 19.3447 13.3708 19.2742 13.3829 19.198C13.3829 19.198 13.3829 19.198 13.3829 19.198C13.419 18.9704 13.4533 18.7394 13.4854 18.5101C13.7735 16.4416 13.9051 14.3521 13.8803 12.2618C13.8522 10.1728 13.6713 8.07609 13.2428 6.02034C13.1949 5.79202 13.1434 5.56316 13.0887 5.33827Z" fill="#245C50"/>
</svg>
