<svg width="24" height="24" viewBox="0 0 24 24" fill="none" xmlns="http://www.w3.org/2000/svg">
<path d="M12.0859 1.84375C17.6088 1.84375 22.0859 5.87319 22.0859 10.8438C22.0859 14.8803 18.8377 18.2829 14.6592 19.4195C14.6566 19.4202 14.6564 19.4239 14.659 19.4248C14.6616 19.4256 14.6615 19.4294 14.6588 19.43L4.06349 22.0949C3.12473 22.331 2.43167 21.2286 3.05131 20.4849L4.71818 18.4844C5.07591 18.0551 5.00756 17.4194 4.61459 17.0221C3.02423 15.4139 2.08594 13.2411 2.08594 10.8438C2.08594 5.87319 6.56309 1.84375 12.0859 1.84375Z" fill="#2373D5"/>
<path d="M4.61459 17.0221L4.08132 17.5495L4.61459 17.0221ZM14.659 19.4248L14.4219 20.1363L14.659 19.4248ZM14.6588 19.43L14.8418 20.1574L14.6588 19.43ZM14.6592 19.4195L14.856 20.1432L14.6592 19.4195ZM12.0859 1.84375V2.59375C17.2709 2.59375 21.3359 6.35978 21.3359 10.8438H22.0859H22.8359C22.8359 5.3866 17.9467 1.09375 12.0859 1.09375V1.84375ZM22.0859 10.8438H21.3359C21.3359 14.4518 18.4102 17.622 14.4623 18.6958L14.6592 19.4195L14.856 20.1432C19.2652 18.9439 22.8359 15.3087 22.8359 10.8438H22.0859ZM14.6588 19.43L14.4759 18.7027L3.88056 21.3675L4.06349 22.0949L4.24643 22.8222L14.8418 20.1574L14.6588 19.43ZM3.05131 20.4849L3.62752 20.965L5.29438 18.9645L4.71818 18.4844L4.14197 18.0043L2.47511 20.0048L3.05131 20.4849ZM4.61459 17.0221L5.14786 16.4947C3.69362 15.0242 2.83594 13.0398 2.83594 10.8438H2.08594H1.33594C1.33594 13.4424 2.35483 15.8037 4.08132 17.5495L4.61459 17.0221ZM2.08594 10.8438H2.83594C2.83594 6.35978 6.90102 2.59375 12.0859 2.59375V1.84375V1.09375C6.22516 1.09375 1.33594 5.3866 1.33594 10.8438H2.08594ZM4.71818 18.4844L5.29438 18.9645C5.93253 18.1986 5.77444 17.1283 5.14786 16.4947L4.61459 17.0221L4.08132 17.5495C4.24068 17.7106 4.2193 17.9115 4.14197 18.0043L4.71818 18.4844ZM4.06349 22.0949L3.88056 21.3675C3.64587 21.4265 3.4726 21.151 3.62752 20.965L3.05131 20.4849L2.47511 20.0048C1.39074 21.3063 2.60358 23.2354 4.24643 22.8222L4.06349 22.0949ZM14.659 19.4248L14.4219 20.1363C13.7132 19.9 13.7514 18.8849 14.4759 18.7027L14.6588 19.43L14.8418 20.1574C15.5716 19.9738 15.6101 18.9512 14.8962 18.7132L14.659 19.4248ZM14.6592 19.4195L14.4623 18.6958C13.7584 18.8873 13.7004 19.8958 14.4219 20.1363L14.659 19.4248L14.8962 18.7132C15.6125 18.952 15.5547 19.9531 14.856 20.1432L14.6592 19.4195Z" fill="#0A467B"/>
<path d="M11.5405 5.49937C11.6601 5.02104 12.3399 5.02104 12.4595 5.49937L13.0073 7.69072C13.2618 8.70884 14.0568 9.50379 15.0749 9.75832L17.2663 10.3062C17.7446 10.4257 17.7446 11.1055 17.2663 11.2251L15.0749 11.7729C14.0568 12.0275 13.2618 12.8224 13.0073 13.8405L12.4595 16.0319C12.3399 16.5102 11.6601 16.5102 11.5405 16.0319L10.9927 13.8405C10.7382 12.8224 9.94321 12.0275 8.92509 11.7729L6.73374 11.2251C6.25542 11.1055 6.25542 10.4257 6.73374 10.3062L8.92509 9.75832C9.94321 9.50379 10.7382 8.70884 10.9927 7.69072L11.5405 5.49937Z" fill="#77B6E8"/>
<path d="M6.70711 10.3183C6.63655 10.3361 6.57205 10.3765 6.5285 10.4361C6.48494 10.4957 6.46581 10.5687 6.47547 10.6404C6.48512 10.7121 6.52291 10.7775 6.58068 10.8234C6.63845 10.8693 6.71137 10.8913 6.7841 10.8897C6.7841 10.8897 6.7841 10.8897 6.7841 10.8897C6.92091 10.8867 7.05725 10.8835 7.19458 10.8792C8.39329 10.8331 9.84125 10.7556 10.9151 9.70881C11.9574 8.65536 12.1348 7.22617 12.1201 5.98058C12.117 5.84379 12.1112 5.70353 12.1025 5.55964C12.0975 5.48401 12.0678 5.41047 12.0147 5.35496C11.9615 5.29945 11.89 5.26656 11.8147 5.26348C11.7394 5.26039 11.6655 5.28732 11.608 5.33829C11.5505 5.38926 11.5149 5.46013 11.5037 5.53509C11.5037 5.53509 11.5037 5.53509 11.5037 5.53509C11.4835 5.67165 11.4622 5.80349 11.4398 5.93074C11.2341 7.10548 10.9155 8.26001 10.188 8.9722C9.47593 9.69699 8.29871 9.94098 7.10733 10.2212C6.97434 10.2527 6.84123 10.2848 6.70711 10.3183Z" fill="white"/>
</svg>
