<svg width="24" height="24" viewBox="0 0 24 24" fill="none" xmlns="http://www.w3.org/2000/svg">
<path d="M5 8.48603C5 8.17917 5.14089 7.8893 5.38218 7.69972L11.3822 2.98543C11.7448 2.70052 12.2552 2.70052 12.6178 2.98543L18.6178 7.69972C18.8591 7.8893 19 8.17917 19 8.48604V17C19 19.2091 17.2091 21 15 21H9C6.79086 21 5 19.2091 5 17L5 8.48603Z" fill="#FEC657"/>
<path d="M5 8L5 17C5 19.2091 6.79086 21 9 21H15C17.2091 21 19 19.2091 19 17V8" stroke="#EBA100" stroke-width="1.5"/>
<path d="M2 10L10.7506 2.99951C11.481 2.41516 12.519 2.41516 13.2494 2.99951L22 10" stroke="black" stroke-width="1.5" stroke-linecap="round"/>
<path d="M13 12H11C9.89543 12 9 12.8954 9 14V21H15V14C15 12.8954 14.1046 12 13 12Z" fill="#EBA100"/>
<path d="M14.2495 19.5701C14.2491 19.7691 14.3278 19.9598 14.4685 20.1005C14.6091 20.2411 14.8002 20.3201 14.9995 20.3201C15.1988 20.3201 15.39 20.2411 15.5306 20.1005C15.6713 19.9598 15.7499 19.7691 15.7495 19.5701C15.7491 19.3435 15.7487 19.1168 15.7484 18.8902C15.7467 17.5006 15.7472 16.111 15.7399 14.7214C15.7386 14.4809 15.7355 14.2405 15.7306 14C15.7436 12.5365 14.3774 11.3017 12.9995 11.4087C12.4177 11.4451 11.8358 11.4853 11.2539 11.5259C10.2285 11.5717 9.33521 12.3131 9.07643 13.2298C9.0018 13.4815 8.97137 13.743 8.98366 14C8.98736 14.0679 9.01908 14.1331 9.0697 14.1811C9.12044 14.2291 9.18593 14.2561 9.25391 14.2561C9.32188 14.2561 9.38737 14.2291 9.43812 14.1811C9.48874 14.1331 9.52045 14.0679 9.52415 14C9.53625 13.803 9.58249 13.6119 9.65931 13.436C9.9339 12.7897 10.6259 12.405 11.2539 12.4741C11.8358 12.5147 12.4177 12.5549 12.9995 12.5913C13.7523 12.6465 14.3072 13.3328 14.2685 14C14.2636 14.2405 14.2604 14.4809 14.2592 14.7214C14.2519 16.111 14.2524 17.5006 14.2506 18.8902C14.2503 19.1168 14.25 19.3435 14.2495 19.5701Z" fill="#C38500"/>
</svg>
