<svg width="96" height="96" viewBox="0 0 96 96" fill="none" xmlns="http://www.w3.org/2000/svg">
<path d="M51.1548 19.6198C54.8691 15.4928 61.652 16.8858 63.4389 22.1428L74.0222 53.2788C74.0149 53.2788 74.0075 53.2788 74.0002 53.2788C65.9001 53.2788 59.3337 59.8454 59.3337 67.9455C59.3337 70.8055 60.1524 73.4741 61.5681 75.7302L22.2111 68.3757C16.6097 67.329 14.3145 60.554 18.1264 56.3183L51.1548 19.6198Z" fill="#FAB341"/>
<path d="M51.3301 19.0977C54.8718 15.075 61.4895 16.8667 62.518 22.1268L68.7954 54.2291C63.2646 56.329 59.3337 61.6782 59.3337 67.9454C59.3337 68.6466 59.3828 69.3363 59.478 70.0113C59.3391 70.0079 59.1995 70.0019 59.0593 69.9927L23.0229 67.6407C17.4515 67.277 14.7236 60.6757 18.4131 56.4852L51.3301 19.0977Z" fill="#FFD885"/>
<path d="M47.4373 59.1744C49.3607 58.6525 50.951 59.5802 51.7601 61.3939C48.7002 59.0171 44.9632 63.7616 44.9434 63.7867C44.2263 61.8213 45.3428 59.7563 47.4373 59.1744Z" fill="#F5A031"/>
<path d="M47.7056 39.6734C47.3459 43.8375 46.99 48.0003 46.5796 52.1803C46.5796 52.1803 46.4139 45.6705 47.7056 39.6734Z" fill="#F5A031"/>
<path d="M48.6885 28.8238C49.1828 25.9591 51.4303 25.23 53.5628 25.5448C57.3038 25.191 57.5649 27.9775 57.126 30.097C51.6042 28.4786 48.9636 33.8329 47.7056 39.6734C48.0176 36.0618 48.3326 32.4492 48.6885 28.8238Z" fill="#F5A031"/>
<path d="M23.9983 27.5658C25.7117 27.5371 27.4093 27.6324 29.0911 27.8512C30.773 28.07 32.4394 28.4125 34.0896 28.8787C34.2729 28.9305 34.4563 28.9838 34.6392 29.0387C34.7067 29.059 34.769 29.0987 34.8113 29.1553C34.8536 29.212 34.8728 29.2804 34.8643 29.3475C34.8557 29.4146 34.8199 29.4761 34.7647 29.5201C34.7095 29.5641 34.6393 29.5863 34.5689 29.5887C34.3782 29.5949 34.1876 29.5997 33.9974 29.6029C32.2839 29.6315 30.5859 29.5363 28.9041 29.3175C27.2223 29.0986 25.556 28.7561 23.9058 28.2899C23.7225 28.2381 23.5392 28.1848 23.3562 28.13C23.2888 28.1096 23.2265 28.0702 23.1841 28.0135C23.1418 27.9569 23.1229 27.8882 23.1314 27.8211C23.14 27.754 23.1759 27.6925 23.231 27.6485C23.2862 27.6046 23.3562 27.5823 23.4266 27.5799C23.6173 27.5737 23.808 27.5689 23.9983 27.5658Z" fill="#F5A031"/>
<path d="M31.4349 16.3512C31.5057 16.3528 31.5732 16.3806 31.6277 16.4237C31.7752 16.5405 31.9216 16.6585 32.0667 16.7774C33.373 17.8476 34.585 19.002 35.7022 20.2408C36.8195 21.4797 37.8422 22.8032 38.7703 24.2108C38.8734 24.3671 38.9755 24.5245 39.0762 24.6829C39.1133 24.7415 39.1338 24.8114 39.1277 24.8817C39.1217 24.9518 39.0901 25.0164 39.0389 25.0621C38.9876 25.1077 38.9197 25.1321 38.8489 25.1304C38.7781 25.1288 38.7103 25.101 38.6558 25.0579C38.5084 24.9411 38.362 24.8231 38.2168 24.7042C36.9105 23.634 35.6986 22.4796 34.5813 21.2408C33.4641 20.0019 32.4414 18.6784 31.5132 17.2708C31.4101 17.1145 31.3081 16.9569 31.2073 16.7984C31.1703 16.7399 31.1498 16.6701 31.1558 16.5999C31.1619 16.5298 31.1935 16.465 31.2447 16.4193C31.2959 16.3736 31.3641 16.3495 31.4349 16.3512Z" fill="#F5A031"/>
<path d="M48.8401 20.2883C53.8029 13.9831 62.42 15.3622 64.5608 21.8064L75.0276 53.3144C74.6881 53.2909 74.3456 53.2788 74.0002 53.2788C73.8122 53.2788 73.625 53.2823 73.4387 53.2893L63.1374 22.279C61.4388 17.166 54.3624 15.6741 50.0046 21.2339C49.9947 21.2465 49.9843 21.2588 49.9736 21.2707L19.3584 55.5549L19.3586 55.5551C15.5321 59.8814 17.8677 66.7276 23.5398 67.8134L61.0659 74.8659C61.3895 75.4695 61.754 76.0478 62.156 76.5971L23.2631 69.2878L23.261 69.2873C16.4451 67.9848 13.6377 59.759 18.2351 54.5613L18.2375 54.5586L48.8401 20.2883Z" fill="#B66A1F"/>
<path fill-rule="evenodd" clip-rule="evenodd" d="M43.4343 61.6091C43.6732 59.2715 45.7751 57.4974 48.1577 57.729C50.6187 57.9684 52.2526 60.0373 51.999 62.5207C51.8648 63.8341 51.3414 64.9002 50.5017 65.6172C49.6633 66.3329 48.5765 66.643 47.424 66.5705C44.8828 66.4105 43.1838 64.0614 43.4343 61.6091ZM48.0122 59.2217C47.6957 59.1909 47.3861 59.2159 47.0923 59.2868C46.1963 59.6234 45.5104 60.2449 45.1132 61.0051C45.0183 61.2429 44.9538 61.4964 44.9267 61.7614C44.8639 62.3767 44.9759 62.9622 45.217 63.4655C45.9586 62.6315 48.0992 60.4816 50.2531 60.7514C49.8546 59.9 49.0448 59.3221 48.0122 59.2217Z" fill="#B66A1F"/>
<path fill-rule="evenodd" clip-rule="evenodd" d="M50.2194 25.0859C51.2583 24.1708 52.606 23.8833 54.1176 24.1064C55.7619 24.3491 56.8986 25.2015 57.5127 26.4177C58.1086 27.5982 58.1714 29.0367 57.8835 30.4319C56.3125 38.0464 54.542 45.5752 52.7151 53.1206C52.5245 54.0021 51.9368 54.7165 51.2302 55.1745C50.5166 55.6371 49.617 55.8821 48.7331 55.7517C46.9979 55.4955 45.672 53.8657 45.8325 52.124C46.4222 44.3015 47.0093 37.7726 48.3237 29.1535C48.5939 27.3816 49.2028 25.9816 50.2194 25.0859ZM53.8984 25.5901C52.708 25.4144 51.8401 25.6571 51.2111 26.2112C50.56 26.7849 50.0487 27.7938 49.8069 29.3794C49.4828 31.5044 49.2032 33.5016 48.957 35.4226C50.406 31.7778 52.7295 29.1917 56.4516 29.9306C56.6464 28.8291 56.5479 27.836 56.1731 27.0935C55.7939 26.3425 55.0941 25.7666 53.8984 25.5901Z" fill="#B66A1F"/>
<path d="M74 80C80.6274 80 86 74.6274 86 68C86 61.3726 80.6274 56 74 56C67.3726 56 62 61.3726 62 68C62 74.6274 67.3726 80 74 80Z" fill="black"/>
<path d="M81 67.0538C81.5523 67.0538 81.9999 67.5016 82 68.0538C82 72.4177 78.4528 75.9503 74.0833 75.9503C72.8745 75.9503 71.7272 75.6794 70.7007 75.1949L70.8943 75.5822C71.1412 76.0762 70.941 76.6769 70.447 76.9237C69.9531 77.1705 69.3525 76.9699 69.1055 76.476L67.772 73.8094C67.758 73.7815 67.7458 73.753 67.7346 73.7245C67.7295 73.7114 67.7247 73.6983 67.7202 73.6852C67.593 73.314 67.697 72.9063 67.9731 72.641C67.9849 72.6296 67.9971 72.6186 68.0095 72.6078C68.0344 72.5861 68.0605 72.5656 68.0879 72.5463C68.1289 72.5173 68.1727 72.4911 68.219 72.4679L70.8857 71.1346C71.3796 70.8877 71.9804 71.0879 72.2275 71.5819C72.4747 72.0759 72.2747 72.6765 71.7808 72.9235L71.2095 73.2089C72.0596 73.6807 73.0384 73.9503 74.0833 73.9503C77.3537 73.9503 80 71.3076 80 68.0538C80.0001 67.5016 80.4477 67.0538 81 67.0538Z" fill="white"/>
<path d="M77.5637 59.046C78.0606 58.8054 78.6589 59.013 78.8999 59.5099L80.2334 62.2601C80.2442 62.2824 80.2537 62.3051 80.2627 62.3278C80.2654 62.3344 80.268 62.3411 80.2705 62.3478C80.2731 62.3547 80.2754 62.3618 80.2778 62.3688C80.2813 62.3789 80.2849 62.3889 80.2881 62.399C80.2895 62.4035 80.2909 62.408 80.2922 62.4125C80.2955 62.4233 80.2987 62.4341 80.3015 62.4449C80.3032 62.4514 80.3046 62.458 80.3062 62.4645C80.3085 62.4745 80.3109 62.4845 80.313 62.4945C80.345 62.6491 80.3389 62.8064 80.2993 62.9542C80.2978 62.9599 80.2963 62.9656 80.2947 62.9713C80.2877 62.9958 80.2796 63.0199 80.2708 63.0438C80.2684 63.0502 80.2662 63.0566 80.2637 63.0629C80.2482 63.1021 80.2303 63.1403 80.21 63.1774C80.2076 63.1816 80.2053 63.1858 80.2029 63.1901C80.1896 63.2134 80.1753 63.2361 80.1602 63.2584C80.1565 63.2638 80.1529 63.2692 80.1492 63.2745C80.1345 63.2952 80.119 63.3153 80.1028 63.3348C80.0984 63.3402 80.0939 63.3455 80.0894 63.3507C80.0606 63.3839 80.0297 63.4155 79.9963 63.4449C79.9935 63.4474 79.9906 63.4498 79.9878 63.4523C79.9401 63.4935 79.888 63.5306 79.8315 63.5629C79.829 63.5643 79.8265 63.5656 79.824 63.567C79.8139 63.5727 79.8038 63.5783 79.7935 63.5836C79.7893 63.5858 79.7852 63.5881 79.781 63.5902L77.1145 64.9235C76.6207 65.1704 76.02 64.9703 75.7727 64.4764C75.5255 63.9825 75.7251 63.3816 76.219 63.1346L76.8308 62.8285C76.8191 62.823 76.8072 62.8176 76.7957 62.8116C75.9844 62.3938 75.0629 62.1573 74.0833 62.1573C70.7731 62.1574 68.0001 64.7943 68 68.0092C68 68.5614 67.5523 69.0092 67 69.0092C66.4477 69.0092 66 68.5614 66 68.0092C66.0001 63.6065 69.7536 60.1574 74.0833 60.1573C75.2374 60.1573 76.3361 60.4047 77.3271 60.8492L77.1003 60.3815C76.8594 59.8845 77.0669 59.2867 77.5637 59.046Z" fill="white"/>
</svg>
