<svg width="96" height="96" viewBox="0 0 96 96" fill="none" xmlns="http://www.w3.org/2000/svg">
<path d="M63.4404 18.4289C64.2433 15.2176 68.6903 15.1174 69.7207 18.1282L69.8096 18.4289L70.8272 22.5002C71.1872 23.9394 72.3108 25.0631 73.75 25.4231L77.8213 26.4407C81.136 27.2694 81.136 31.9811 77.8213 32.8098L76.3359 33.1809C78.6742 37.6255 80 42.686 80 48.0569C80 65.73 65.6731 80.0569 48 80.0569C30.3269 80.0569 16 65.73 16 48.0569C16.0002 30.3839 30.327 16.0569 48 16.0569C53.4565 16.0569 58.5935 17.424 63.0889 19.8323L63.4404 18.4289Z" fill="#F05F2B"/>
<path fill-rule="evenodd" clip-rule="evenodd" d="M52.4996 71.875C52.4996 71.625 52.561 71.568 51.7663 69.984C49.6543 65.7547 47.5316 59.792 48.497 55.9467C48.673 55.248 46.5076 30.0747 44.977 29.264C43.2756 28.3573 41.1823 26.9191 39.2677 26.5991C38.2962 26.4437 37.0225 26.5173 36.0268 26.6514C35.8498 26.6752 35.8425 26.9933 36.0116 27.0506C36.6653 27.2721 37.4591 27.6566 37.9269 28.238C38.0154 28.3481 37.8966 28.5211 37.7555 28.5264C37.3145 28.5427 36.5145 28.7276 35.4591 29.624C35.337 29.7277 35.4384 29.9202 35.5955 29.8892C37.8638 29.4404 40.1803 29.6615 41.5455 30.9024C41.6341 30.9829 41.5877 31.1273 41.4722 31.1587C29.6251 34.3783 31.9704 44.6838 35.1242 57.3306C38.0378 69.0142 39.1068 72.5658 39.3997 73.5289C39.4106 73.5646 39.4349 73.5913 39.4693 73.6055C43.496 75.2711 52.4996 75.2866 52.4996 72.5V71.875Z" fill="#DDDDDD"/>
<path d="M48 18.4999C53.1966 18.4999 58.0784 19.8451 62.3188 22.204C62.4035 22.2511 62.4459 22.3491 62.4229 22.4432C62.3456 22.752 62.2328 23.0461 62.0894 23.3211C61.6924 24.0825 60.7131 24.1607 59.9434 23.7804C56.3425 22.0009 52.2884 20.9999 48 20.9999C33.3215 20.9999 21.3787 32.7132 21.0088 47.3026L21 47.9999C21 60.526 29.5302 71.0592 41.0984 74.109C40.1713 71.1856 37.9381 63.6996 35.8237 55.0326C35.7491 54.7266 35.6745 54.422 35.6003 54.119L35.5984 54.1114C32.8862 43.0334 30.6712 33.9852 42.812 31.1427C42.923 31.1167 42.9773 30.9838 42.9038 30.8966C41.5108 29.2441 38.9012 28.7026 35.6016 29.8409C35.4662 29.8876 35.3488 29.751 35.4329 29.6351C36.0799 28.7433 37.3443 28.0575 37.9685 27.7569C38.0975 27.6948 38.0897 27.5061 37.9531 27.4632C37.5448 27.3354 36.8494 27.1397 36.0674 27.0135C35.8825 26.9836 35.8658 26.6664 36.0515 26.6415C40.7294 26.0121 45.6141 27.4167 48.0654 30.5045C48.0885 30.5336 48.1219 30.5538 48.1582 30.5616C57.1344 32.4893 57.7774 46.6783 56.7434 47.3253C56.5396 47.4527 55.8862 47.3797 55.0244 47.2833C51.5317 46.8925 44.6153 46.1187 50.3235 56.7569C50.3799 56.862 50.3053 57.0011 50.1875 57.0194C47.0244 57.5112 51.1048 67.6491 54.1228 74.3023C66.0849 71.5288 75 60.8055 75 47.9999C75 43.7974 74.039 39.8196 72.3259 36.2731C71.9621 35.5198 72.0324 34.5701 72.7625 34.1617C73.0687 33.9904 73.4001 33.8579 73.75 33.7704C73.7988 33.7577 73.85 33.7797 73.8743 33.8238C76.1842 38.031 77.5 42.8615 77.5 47.9999C77.5 64.2922 64.2924 77.4999 48 77.4999C31.7076 77.4999 18.5 64.2922 18.5 47.9999C18.5001 31.7076 31.7077 18.4999 48 18.4999Z" fill="white"/>
<path d="M65.8662 18.9781C66.0637 18.1883 67.1865 18.1883 67.384 18.9781L68.4016 23.0489C68.9854 25.3842 70.8088 27.2078 73.144 27.7916L77.2148 28.8092C78.0048 29.0067 78.0048 30.1293 77.2148 30.3268L73.144 31.3446C70.8088 31.9284 68.9854 33.7518 68.4016 36.087L67.384 40.1578C67.1865 40.9478 66.0637 40.9478 65.8662 40.1578L64.8486 36.087C64.2648 33.7518 62.4414 31.9284 60.1062 31.3446L56.0354 30.3268C55.2455 30.1293 55.2455 29.0067 56.0354 28.8092L60.1062 27.7916C62.4415 27.2078 64.2648 25.3842 64.8486 23.0489L65.8662 18.9781Z" fill="white"/>
<path d="M58.1413 61.3487C57.458 61.032 54.8305 62.9164 53.0866 64.3628C52.7221 63.8472 52.0349 63.4723 50.4847 63.7419C49.128 63.9778 48.379 64.3049 48.0448 64.8689C45.9034 64.057 42.3008 62.804 41.4305 64.0141C40.4791 65.3369 41.6682 71.5943 42.9318 72.4068C43.5915 72.831 46.7471 70.8027 48.3949 69.404C48.6608 69.7786 49.0888 69.993 49.9688 69.9726C51.2995 69.9417 53.458 69.632 53.793 69.0122C53.8134 68.9746 53.8309 68.9301 53.8458 68.8794C55.5395 69.5124 58.5205 70.1824 59.1865 70.0823C60.9219 69.8217 58.9447 61.721 58.1413 61.3487Z" fill="#33A055"/>
<path d="M53.2451 64.5481C53.317 64.6763 53.3747 64.8114 53.4238 64.9488C53.6653 65.6241 54.0587 67.7724 53.7612 68.303C53.4637 68.8337 51.5315 69.0899 50.3395 69.1105C49.1476 69.131 48.8793 68.6951 48.6378 68.0198C48.4446 67.4796 48.3495 66.2095 48.3519 65.4823C48.303 64.4035 48.6971 64.0243 50.5189 63.7295C51.867 63.5113 52.5797 63.765 52.9912 64.1993C54.9051 62.7708 58.0985 60.7549 58.41 61.1233C59.963 62.9604 60.1593 67.3336 59.823 69.0931C59.7131 69.6682 54.5706 68.5231 54.5706 67.9028C54.5706 65.327 53.9022 64.6204 53.2451 64.5481Z" fill="#39B25E"/>
<path d="M41.9802 63.7438C42.4014 63.0772 45.8169 63.9062 47.6918 64.7405C47.6918 64.7405 47.3066 66.486 47.92 68.5425C48.0994 69.144 43.6065 71.8214 43.02 71.3607C42.3423 70.8284 41.0949 65.1449 41.9802 63.7438Z" fill="#39B25E"/>
<path fill-rule="evenodd" clip-rule="evenodd" d="M43.6344 50.2034C43.9108 49.0017 45.1981 46.7373 49.795 46.7923C52.119 46.7826 55.0058 46.7913 56.9197 46.5739C59.7643 46.2508 61.8758 45.5627 63.2828 45.0264C65.2727 44.2672 65.9788 44.4365 66.2264 44.8908C66.4985 45.3899 66.1779 46.2518 65.4826 47.0451C64.1545 48.5606 61.7669 49.7348 57.5502 50.0834C53.3334 50.4319 50.5398 49.3008 49.3373 51.1423C48.8186 51.9366 49.2196 53.8086 53.2975 54.398C58.808 55.1933 63.3336 53.4398 63.8928 54.4988C64.452 55.5579 61.2309 57.7126 55.7115 57.7577C50.1921 57.8028 46.7446 55.8253 45.522 54.8423C43.9709 53.5951 43.2768 51.7762 43.6344 50.2034Z" fill="#FFC95C"/>
<g opacity="0.8">
<path d="M50.663 37.0636C50.9709 36.5595 51.6536 36.1704 52.7708 36.1704C53.888 36.1704 54.4136 36.615 54.7775 37.1107C54.8515 37.2116 54.7394 37.3303 54.6245 37.2806C54.5969 37.2687 54.569 37.2565 54.5406 37.2441C54.132 37.0656 53.6303 36.8465 52.7708 36.8343C51.8516 36.8212 51.2719 37.0514 50.9069 37.2498C50.7839 37.3167 50.5901 37.1831 50.663 37.0636Z" fill="#034180"/>
<path d="M38.0849 37.7086C39.1698 37.2552 40.0224 37.3138 40.6251 37.4564C40.752 37.4864 40.8403 37.3499 40.7388 37.268C40.2709 36.8906 39.2239 36.4222 37.8582 36.9314C36.6401 37.3856 36.0659 38.3294 36.0625 38.9499C36.0617 39.0961 36.3626 39.1085 36.4404 38.9847C36.6506 38.6503 37.0001 38.1619 38.0849 37.7086Z" fill="#034180"/>
<path fill-rule="evenodd" clip-rule="evenodd" d="M53.7198 43.96C52.7607 43.96 51.9828 43.1842 51.9828 42.2294C51.9828 41.2745 52.7607 40.4987 53.7198 40.4987C54.6789 40.4987 55.4568 41.2745 55.4568 42.2294C55.4568 43.1842 54.6789 43.96 53.7198 43.96ZM54.9432 41.656C54.9432 41.4088 54.7407 41.2085 54.4934 41.2085C54.2462 41.2085 54.0459 41.4088 54.0437 41.656C54.0437 41.9033 54.2462 42.1036 54.4934 42.1036C54.7428 42.1036 54.9432 41.9033 54.9432 41.656Z" fill="#034180"/>
<path fill-rule="evenodd" clip-rule="evenodd" d="M42.2112 43.4271C42.2112 44.5418 41.3054 45.4454 40.1865 45.4454C39.0697 45.4454 38.1618 44.5418 38.1618 43.4271C38.1618 42.3124 39.0697 41.4087 40.1865 41.4087C41.3033 41.4087 42.2112 42.3124 42.2112 43.4271ZM41.6144 42.7579C41.6144 42.4701 41.38 42.2357 41.0902 42.2357C40.8024 42.2357 40.568 42.468 40.5659 42.7579C40.5659 43.0456 40.8003 43.28 41.0902 43.28C41.38 43.28 41.6144 43.0456 41.6144 42.7579Z" fill="#034180"/>
</g>
</svg>
