<svg width="96" height="96" viewBox="0 0 96 96" fill="none" xmlns="http://www.w3.org/2000/svg">
<path d="M79.1026 48.0551C79.1026 65.2781 65.1165 79.2402 47.8638 79.2402C30.6111 79.2402 16.625 65.2781 16.625 48.0551C16.625 30.832 30.6111 16.7051 47.8638 16.7051C65.1165 16.7051 79.1026 30.832 79.1026 48.0551Z" fill="#AED5C2"/>
<path d="M58.5657 18.7188C66.6245 21.4644 73.3945 28.7554 76.3179 35.0298C76.2931 35.0527 66.6197 44.0077 55.2903 47.1653C55.3242 47.4535 55.3423 47.7467 55.3423 48.0439C55.3423 52.1813 51.9611 55.5354 47.7903 55.5354C43.6194 55.5354 40.2383 52.1813 40.2383 48.0439C40.2383 43.9067 43.6195 40.5527 47.7903 40.5527C48.1033 40.5527 48.4118 40.5719 48.7148 40.6086C51.2439 28.7278 58.546 18.7457 58.5657 18.7188Z" fill="#589D88"/>
<path d="M65.5491 32.1126C65.5491 34.1638 63.8841 35.8267 61.8302 35.8267C59.7763 35.8267 58.1113 34.1638 58.1113 32.1126C58.1113 30.0613 59.7763 28.3984 61.8302 28.3984C63.8841 28.3984 65.5491 30.0613 65.5491 32.1126Z" fill="#FFD885"/>
<path d="M78.9693 32.0508C79.0311 32.0163 79.0813 31.9559 79.1095 31.8827C79.1376 31.8096 79.141 31.7298 79.1224 31.6589C79.0279 31.2994 78.9166 30.9415 78.7923 30.5882C77.6575 27.4399 75.7667 24.8039 73.5923 22.6024C71.4019 20.4189 68.8503 18.6366 65.984 17.6979C65.6666 17.5959 65.3419 17.5046 65.0197 17.4288C64.9561 17.414 64.8865 17.4246 64.8249 17.4629C64.7633 17.5012 64.715 17.5634 64.6901 17.6365C64.6653 17.7096 64.6656 17.7887 64.6909 17.857C64.7163 17.9254 64.7648 17.9768 64.8241 18.0045C65.1145 18.1408 65.4058 18.2882 65.6896 18.442C68.2455 19.8445 70.5118 21.7561 72.6173 23.8516C74.7045 25.9674 76.6742 28.2716 78.1711 30.9971C78.336 31.3044 78.4918 31.6162 78.6353 31.9307C78.6647 31.9956 78.714 32.0461 78.7761 32.0689C78.8381 32.0917 78.9075 32.0853 78.9693 32.0508Z" fill="#247A64"/>
<path d="M31.5828 63.4758C31.7817 63.4755 31.9707 63.5561 32.1094 63.6987C32.3711 63.9682 32.6396 64.2312 32.9148 64.4873C34.5253 65.9867 36.3591 67.2501 38.3357 68.2385C41.3566 69.7534 44.7291 70.5944 48.145 70.6721C49.3664 70.7013 50.5923 70.6356 51.8071 70.4717C52.1866 70.4205 52.565 70.3597 52.9419 70.2896C53.0136 70.2762 53.0886 70.2923 53.1499 70.3333C53.2112 70.3743 53.2538 70.437 53.2688 70.5083C53.2838 70.5797 53.2698 70.6541 53.2302 70.7163C53.1906 70.7785 53.1286 70.8235 53.0576 70.8401C52.6751 70.9293 52.2901 71.0091 51.9033 71.0793C50.6652 71.3044 49.4072 71.4314 48.145 71.4604C44.6165 71.546 41.0471 70.8403 37.7991 69.3674C35.674 68.4068 33.6935 67.1187 31.9336 65.5747C31.6328 65.3109 31.3381 65.0396 31.0503 64.7612C30.9072 64.623 30.826 64.4343 30.8257 64.2354C30.8253 64.0365 30.9059 63.8435 31.0486 63.7004C31.1912 63.5573 31.3839 63.4761 31.5828 63.4758Z" fill="#11604D"/>
<path d="M32.979 44.0327C33.1442 43.922 33.349 43.8818 33.5466 43.9209C33.7443 43.96 33.9182 44.0752 34.0288 44.2405C34.1395 44.4057 34.1778 44.6076 34.1367 44.8022C34.047 45.2273 33.974 45.6352 33.9119 46.064C33.5202 48.744 33.7207 51.5182 34.6724 54.0413C36.3466 58.7097 40.8419 62.1153 45.8428 62.8657C46.274 62.9367 46.7008 62.9906 47.1387 63.0293C47.2114 63.0358 47.2792 63.0714 47.3271 63.1274C47.3751 63.1836 47.3994 63.2555 47.3945 63.3284C47.3896 63.4013 47.3559 63.4694 47.3008 63.5186C47.2457 63.5676 47.1738 63.5937 47.1008 63.5903C46.648 63.5688 46.2049 63.5321 45.7554 63.4773C40.5634 62.9327 35.5162 59.5501 33.51 54.5015C32.3786 51.7839 32.1039 48.7618 32.457 45.8718C32.513 45.4091 32.5806 44.9693 32.6653 44.5112C32.7014 44.3156 32.8137 44.1434 32.979 44.0327Z" fill="#11604D"/>
<path d="M28.376 56.9868C29.6946 56.9868 30.7636 58.0472 30.7637 59.3552C30.7637 60.6633 29.6946 61.7239 28.376 61.7239C27.0573 61.7239 25.9883 60.6633 25.9883 59.3552C25.9883 58.0472 27.0573 56.9868 28.376 56.9868Z" fill="#11604D"/>
<path d="M48.2517 23.6079C48.4506 23.6064 48.6416 23.684 48.7822 23.8247C48.9228 23.9653 49.0017 24.1575 49.0017 24.3579C49.0017 24.5584 48.9228 24.7505 48.7822 24.8911C48.6416 25.0318 48.4506 25.1095 48.2517 25.1079C47.5559 25.1024 46.8658 25.1279 46.1755 25.1843C41.6559 25.5449 37.2585 27.2977 33.7014 30.1406C28.413 34.3069 25.0855 40.9216 25.0356 47.7454C25.0181 49.0023 25.1027 50.262 25.2915 51.5073C25.3971 52.2042 25.5351 52.8967 25.7053 53.5815C25.7231 53.653 25.7116 53.729 25.6738 53.7927C25.636 53.8564 25.5751 53.9027 25.5039 53.9214C25.4327 53.9401 25.3567 53.9298 25.2925 53.8928C25.2283 53.8558 25.181 53.7951 25.1614 53.7241C24.969 53.0271 24.8088 52.3208 24.6814 51.6082C24.4537 50.3347 24.3313 49.0412 24.314 47.7454C24.1689 40.7152 27.4246 33.6797 32.9124 29.1711C36.6003 26.0962 41.2454 24.1735 46.0452 23.7219C46.7782 23.6514 47.5116 23.6135 48.2517 23.6079Z" fill="#11604D"/>
<path d="M47.7893 43.6587C50.2308 43.6587 52.21 45.6221 52.21 48.0439C52.2099 50.4658 50.2308 52.429 47.7893 52.429C45.3479 52.4289 43.3687 50.4658 43.3687 48.0439C43.3687 45.6221 45.3478 43.6587 47.7893 43.6587Z" fill="#11604D"/>
<path d="M36.5645 35.3745C37.8831 35.3745 38.9521 36.4349 38.9521 37.7429C38.9521 39.051 37.8831 40.1116 36.5645 40.1116C35.2458 40.1116 34.1768 39.051 34.1768 37.7429C34.1768 36.4349 35.2458 35.3745 36.5645 35.3745Z" fill="#11604D"/>
<path fill-rule="evenodd" clip-rule="evenodd" d="M47.9504 16.1152C65.5743 16.1152 79.8618 30.3961 79.8618 48.0132C79.8618 65.6303 65.5743 79.9114 47.9504 79.9114C30.3266 79.9114 16.0391 65.6303 16.0391 48.0132C16.0391 30.3961 30.3266 16.1153 47.9504 16.1152ZM47.9504 17.6152C31.1544 17.6153 17.5391 31.2252 17.5391 48.0132C17.5391 64.8012 31.1544 78.4114 47.9504 78.4114C64.7465 78.4114 78.3618 64.8012 78.3618 48.0132C78.3618 31.2252 64.7465 17.6152 47.9504 17.6152Z" fill="#11604D"/>
</svg>
