<svg fill="none" viewBox="0 0 24 24" xmlns="http://www.w3.org/2000/svg">
  <g clip-path="url(#Other_svg__a)">
    <path fill="#fff" d="M24 12c0 6.627-5.373 12-12 12S0 18.627 0 12 5.373 0 12 0s12 5.373 12 12Z"/>
    <path fill="#000" fill-opacity=".12" fill-rule="evenodd" d="M24 12c0 6.627-5.373 12-12 12S0 18.627 0 12 5.373 0 12 0s12 5.373 12 12ZM12 23.5c6.351 0 11.5-5.149 11.5-11.5S18.351.5 12 .5.5 5.649.5 12 5.649 23.5 12 23.5Z" clip-rule="evenodd"/>
    <path fill="#666" fill-rule="evenodd" d="M4.125 12a7.875 7.875 0 1 1 15.75 0 7.875 7.875 0 0 1-15.75 0Zm5.154 5.767a6.38 6.38 0 0 1-3.61-5.017h2.43c.079 1.756.429 3.36.976 4.593.065.145.133.287.204.424Zm.322-5.017c.077 1.579.394 2.969.845 3.983.261.588.553 1.017.838 1.289.282.268.523.353.716.353.193 0 .434-.085.716-.353.285-.272.577-.701.838-1.288.45-1.015.767-2.405.844-3.984H9.601Zm4.797-1.5H9.601c.077-1.579.394-2.968.845-3.984.261-.587.553-1.016.838-1.288.282-.268.523-.353.716-.353.193 0 .434.085.716.353.285.272.577.701.838 1.288.45 1.015.767 2.405.844 3.984Zm1.502 1.5c-.078 1.756-.428 3.36-.976 4.593a7.674 7.674 0 0 1-.204.424 6.38 6.38 0 0 0 3.611-5.017H15.9Zm2.431-1.5H15.9c-.078-1.756-.428-3.36-.976-4.593a7.706 7.706 0 0 0-.204-.424 6.38 6.38 0 0 1 3.611 5.017ZM9.28 6.233a7.64 7.64 0 0 0-.204.424C8.528 7.89 8.178 9.494 8.1 11.25H5.669a6.38 6.38 0 0 1 3.61-5.017Z" clip-rule="evenodd"/>
  </g>
  <defs>
    <clipPath id="Other_svg__a">
      <path fill="#fff" d="M0 0h24v24H0z"/>
    </clipPath>
  </defs>
</svg>
