<svg fill="none" viewBox="0 0 24 24" xmlns="http://www.w3.org/2000/svg">
  <g clip-path="url(#~Placeholder_svg__a)">
    <path fill="#DDD" d="M24 12c0 6.627-5.373 12-12 12S0 18.627 0 12 5.373 0 12 0s12 5.373 12 12Z"/>
    <path fill="#000" fill-opacity=".12" fill-rule="evenodd" d="M12 23.5c6.351 0 11.5-5.149 11.5-11.5S18.351.5 12 .5.5 5.649.5 12 5.649 23.5 12 23.5Zm0 .5c6.627 0 12-5.373 12-12S18.627 0 12 0 0 5.373 0 12s5.373 12 12 12Z" clip-rule="evenodd"/>
    <path fill="#ABABAB" fill-rule="evenodd" d="M4.823 4.616a.75.75 0 0 1 1.06 0l13.5 13.5a.75.75 0 0 1-1.06 1.06l-13.5-13.5a.75.75 0 0 1 0-1.06Z" clip-rule="evenodd"/>
    <path fill="#ABABAB" fill-rule="evenodd" d="M19.384 4.616a.75.75 0 0 0-1.06 0l-13.5 13.5a.75.75 0 0 0 1.06 1.06l13.5-13.5a.75.75 0 0 0 0-1.06Z" clip-rule="evenodd"/>
  </g>
  <defs>
    <clipPath id="~Placeholder_svg__a">
      <path fill="#fff" d="M0 0h24v24H0z"/>
    </clipPath>
  </defs>
</svg>
