<svg fill="none" viewBox="0 0 96 96" xmlns="http://www.w3.org/2000/svg">
  <path fill="#557FF3" fill-rule="evenodd" d="M38 57v6.73a8 8 0 0 0 5.029 7.428C48.284 73.258 54 69.388 54 63.73v-5.76h4v5.759c0 8.49-8.574 14.294-16.457 11.141A12 12 0 0 1 34 63.73V57h4Z" clip-rule="evenodd"/>
  <path fill="#8FABF9" d="M73 23 19 38v18l54 15V23Z"/>
  <path fill="#7295F6" d="m73 54-54-4v6l54 15V54Z"/>
  <path fill="#ADC2FC" fill-rule="evenodd" d="M73.953 30.571a2 2 0 0 1-1.524 2.382l-41 9a2 2 0 0 1-.858-3.907l41-9a2 2 0 0 1 2.382 1.525Z" clip-rule="evenodd"/>
  <path fill="#CCC" fill-rule="evenodd" d="M80.5 48a1.5 1.5 0 0 1 1.5-1.5h6a1.5 1.5 0 0 1 0 3h-6a1.5 1.5 0 0 1-1.5-1.5Zm-1.799-9.25a1.5 1.5 0 0 1 .55-2.05l5.195-3a1.5 1.5 0 1 1 1.5 2.599l-5.196 3a1.5 1.5 0 0 1-2.049-.549Zm0 18.5a1.5 1.5 0 0 1 2.05-.55l5.195 3a1.5 1.5 0 0 1-1.5 2.599l-5.196-3a1.5 1.5 0 0 1-.549-2.049Z" clip-rule="evenodd"/>
  <path fill="#3969EF" d="M70 23a3 3 0 1 1 6 0v48a3 3 0 1 1-6 0V23ZM16 38a3 3 0 1 1 6 0v18a3 3 0 1 1-6 0V38Z"/>
</svg>
