<svg fill="none" viewBox="0 0 128 96" xmlns="http://www.w3.org/2000/svg">
  <title>Email Protection</title>
  <path fill="#888" d="m105.629 38.2 1.542-.4a.875.875 0 0 0 .629-.629l.4-1.543A.84.84 0 0 1 109 35c.4 0 .743.286.8.628l.4 1.543a.875.875 0 0 0 .629.629l1.542.4c.4.114.629.457.629.8 0 .4-.286.743-.629.8l-1.542.4a.875.875 0 0 0-.629.628l-.4 1.543a.84.84 0 0 1-.8.629c-.4 0-.743-.286-.8-.629l-.4-1.543a.875.875 0 0 0-.629-.628l-1.542-.4A.842.842 0 0 1 105 39c0-.4.286-.743.629-.8m-89.686-6.4 2.314-.6c.429-.086.857-.514.943-.943l.6-2.314c.171-.6.686-.943 1.2-.943.6 0 1.114.428 1.2.943l.6 2.314c.086.429.514.857.943.943l2.314.6c.6.171.943.686.943 1.2 0 .6-.429 1.114-.943 1.2l-2.314.6c-.429.086-.857.514-.943.943l-.6 2.314c-.171.6-.686.943-1.2.943-.6 0-1.114-.429-1.2-.943l-.6-2.314c-.086-.429-.514-.857-.943-.943l-2.314-.6c-.6-.172-.943-.686-.943-1.2 0-.6.429-1.114.943-1.2ZM.629 53.2l1.542-.4a.876.876 0 0 0 .629-.629l.4-1.543A.841.841 0 0 1 4 50c.4 0 .743.286.8.628l.4 1.543a.876.876 0 0 0 .629.629l1.542.4c.4.114.629.457.629.8 0 .4-.286.743-.629.8l-1.542.4a.875.875 0 0 0-.629.628l-.4 1.543A.841.841 0 0 1 4 58c-.4 0-.743-.286-.8-.629l-.4-1.543a.875.875 0 0 0-.629-.628L.63 54.8A.841.841 0 0 1 0 54c0-.4.286-.743.629-.8ZM126.5 52c-.825 0-1.5-.675-1.5-1.5s.675-1.5 1.5-1.5 1.5.675 1.5 1.5-.675 1.5-1.5 1.5M23 70c-1.1 0-2-.9-2-2s.9-2 2-2 2 .9 2 2-.9 2-2 2" opacity=".2"/>
  <path fill="#FC3" d="M87 51c-11.046 0-20 8.954-20 20v1a4 4 0 0 1-4 4H45c-7.18 0-13-5.82-13-13V33c0-7.18 5.82-13 13-13h38c7.18 0 13 5.82 13 13v14a4 4 0 0 1-4 4z"/>
  <path fill="#E2A412" d="M77.992 53.139C71.472 56.434 67 63.195 67 71v1a4 4 0 0 1-4 4H45c-6.568 0-11.999-4.871-12.876-11.198L64 44l13.992 9.139Z"/>
  <path fill="#F9BE1A" d="M74.437 55.437C69.901 59.103 67 64.713 67 71v1a4 4 0 0 1-4 4H45c-5.998 0-11.047-4.062-12.547-9.585L64 50z"/>
  <path fill="#E2A412" d="M32 33c0-7.18 5.82-13 13-13h38c7.18 0 13 5.82 13 13v.352L69.005 54.988a8 8 0 0 1-10.009-.001L32 33.333z"/>
  <path fill="#FFD65C" d="M68.543 50.868 95.96 31.966C95.433 25.27 89.832 20 83 20H45c-6.826 0-12.423 5.26-12.958 11.948l27.417 18.918a8 8 0 0 0 9.084.002"/>
  <path fill="#21C000" d="M87 87c8.837 0 16-7.163 16-16s-7.163-16-16-16-16 7.163-16 16 7.163 16 16 16"/>
  <path fill="#fff" fill-rule="evenodd" d="M92.5 70v-3.951a5.574 5.574 0 0 0-1.605-3.917A5.476 5.476 0 0 0 87 60.5c-1.465 0-2.865.59-3.895 1.632a5.574 5.574 0 0 0-1.605 3.917V70H81a2 2 0 0 0-2 2v6a2 2 0 0 0 2 2h12a2 2 0 0 0 2-2v-6a2 2 0 0 0-2-2zm-3.739-5.76A2.476 2.476 0 0 0 87 63.5c-.657 0-1.291.264-1.761.74a2.574 2.574 0 0 0-.739 1.809V70h5v-3.951c0-.682-.268-1.332-.739-1.809Z" clip-rule="evenodd"/>
  <path fill="#CCC" d="M108.766 59.052a1.203 1.203 0 0 1 .846 2.053l-2.401 2.401a1.203 1.203 0 0 1-1.699 0 1.203 1.203 0 0 1 0-1.699l2.401-2.401c.234-.234.54-.354.847-.354h.006Zm-1.201 10.806h3.602c.66 0 1.201.54 1.201 1.2 0 .661-.541 1.201-1.201 1.201h-3.602c-.66 0-1.201-.54-1.201-1.2 0-.66.541-1.201 1.201-1.201m-2.041 8.76c.234-.234.54-.354.847-.354h.006c.306 0 .612.12.846.354l2.401 2.401a1.202 1.202 0 0 1-1.699 1.7l-2.401-2.402a1.203 1.203 0 0 1 0-1.7Z"/>
</svg>