<svg fill="none" viewBox="0 0 96 96" xmlns="http://www.w3.org/2000/svg">
  <path fill="#876ecb" d="M34.75 16h26C71.243 16 80 24.507 80 35v12a4 4 0 0 1-4 4h-5c-11.046 0-20 8.954-20 20v5a4 4 0 0 1-4 4H34.75C24.257 80 16 71.493 16 61V35c0-10.493 8.257-19 18.75-19"/>
  <path fill="#c7b9ee" d="M30.667 20C24.776 20 20 24.776 20 30.667v30.666C20 67.224 24.776 72 30.667 72H51v-1c0-11.046 8.954-20 20-20h1V30.667C72 24.776 67.224 20 61.333 20z"/>
  <path fill="#a591dc" d="M61.333 16H30.667C22.567 16 16 22.567 16 30.667v30.666C16 69.433 22.567 76 30.667 76H51v-4H30.667C24.776 72 20 67.224 20 61.333V30.667C20 24.776 24.776 20 30.667 20h30.666C67.224 20 72 24.776 72 30.667V51h4V30.667C76 22.567 69.433 16 61.333 16"/>
  <path fill="#3e228c" d="M68.418 51.165c.38-1.66.582-3.39.582-5.165 0-12.703-10.297-23-23-23S23 33.297 23 46s10.297 23 23 23c1.776 0 3.505-.201 5.165-.582 1.158-8.98 8.272-16.095 17.253-17.253"/>
  <path fill="#3e228c" fill-rule="evenodd" d="M46 23c-7.23 0-13.683 3.337-17.899 8.555L46.001 46l16.263-16.264A22.93 22.93 0 0 0 46 23" clip-rule="evenodd"/>
  <path fill="#c7b9ee" fill-rule="evenodd" d="M32.328 27.503A22.9 22.9 0 0 1 46 23a22.93 22.93 0 0 1 16.263 6.736L46 46z" clip-rule="evenodd" opacity=".1"/>
  <path fill="#c7b9ee" fill-rule="evenodd" d="M37.617 24.576A22.9 22.9 0 0 1 46 23a22.93 22.93 0 0 1 16.264 6.736L46 46z" clip-rule="evenodd" opacity=".1"/>
  <path fill="#c7b9ee" fill-rule="evenodd" d="M44.007 23.085A23 23 0 0 1 46 23a22.93 22.93 0 0 1 16.263 6.736L46 46z" clip-rule="evenodd" opacity=".1"/>
  <path fill="#c7b9ee" fill-rule="evenodd" d="M50.887 23.52 46 46l16.264-16.263a22.96 22.96 0 0 0-11.377-6.217" clip-rule="evenodd" opacity=".1"/>
  <path fill="#c7b9ee" fill-rule="evenodd" d="M57.32 25.974a23 23 0 0 1 4.944 3.762L46 46z" clip-rule="evenodd" opacity=".1"/>
  <path fill="#3e228c" fill-rule="evenodd" d="M34.797 66.092C29.44 61.88 26 55.342 26 48c0-12.703 10.297-23 23-23 4.068 0 7.888 1.056 11.203 2.908A22.9 22.9 0 0 0 46 23c-12.703 0-23 10.297-23 23 0 8.635 4.759 16.159 11.797 20.092" clip-rule="evenodd"/>
  <path fill="#c7b9ee" d="M44 32.5a1.5 1.5 0 1 1-3 0 1.5 1.5 0 0 1 3 0"/>
  <path fill="#6b4eba" d="M34 43.5a1.5 1.5 0 1 1-3 0 1.5 1.5 0 0 1 3 0m6 4a1.5 1.5 0 1 1-3 0 1.5 1.5 0 0 1 3 0"/>
  <path fill="#c7b9ee" d="M34.707 33.293a1 1 0 0 0-1.414 1.414l.793.793-.793.793a1 1 0 0 0 1.414 1.414l.793-.793.793.793a1 1 0 0 0 1.414-1.414l-.793-.793.793-.793a1 1 0 0 0-1.414-1.414l-.793.793z"/>
  <path fill="#6b4eba" d="M60.707 46.293a1 1 0 0 0-1.414 1.414l.793.793-.793.793a1 1 0 0 0 1.414 1.414l.793-.793.793.793a1 1 0 0 0 1.414-1.414l-.793-.793.793-.793a1 1 0 0 0-1.414-1.414l-.793.793zm-22 9a1 1 0 0 0-1.414 1.414l.793.793-.793.793a1 1 0 0 0 1.414 1.414l.793-.793.793.793a1 1 0 0 0 1.414-1.414l-.793-.793.793-.793a1 1 0 0 0-1.414-1.414l-.793.793z"/>
  <path fill="#21c000" d="M71 87c8.837 0 16-7.163 16-16s-7.163-16-16-16-16 7.163-16 16 7.163 16 16 16"/>
  <path fill="#fff" d="M79.885 68.31c.52-.52.52-1.365 0-1.885l-1.859-1.86a1.333 1.333 0 0 0-1.885 0l-6.538 6.54c-.52.52-1.365.52-1.885 0l-1.86-1.86a1.333 1.333 0 0 0-1.884 0l-1.86 1.86c-.52.52-.52 1.364 0 1.885l5.604 5.602c.52.52 1.364.52 1.885 0z"/>
  <path fill="#ccc" d="M92.501 59c.298 0 .595.12.823.354.454.468.454 1.23 0 1.698l-2.333 2.4a1.145 1.145 0 0 1-1.65 0 1.227 1.227 0 0 1 0-1.698l2.333-2.4c.227-.234.524-.354.822-.354zm-1.166 10.798h3.499c.641 0 1.166.54 1.166 1.2s-.525 1.2-1.166 1.2h-3.499c-.641 0-1.166-.54-1.166-1.2s.525-1.2 1.166-1.2m-1.982 8.754c.227-.234.525-.354.822-.354h.006c.297 0 .595.12.822.354l2.332 2.4c.455.467.455 1.23 0 1.697a1.145 1.145 0 0 1-1.65 0l-2.332-2.4a1.227 1.227 0 0 1 0-1.697"/>
</svg>
