<svg fill="none" viewBox="0 0 96 96" xmlns="http://www.w3.org/2000/svg">
  <path fill="#63c853" d="M35 20c-8.284 0-15 6.716-15 15v26c0 8.284 6.716 15 15 15h16v-5c0-11.046 8.954-20 20-20h5V35c0-8.284-6.716-15-15-15z"/>
  <path fill="#999" d="M34.75 16C24.257 16 16 24.507 16 35v26c0 10.493 8.257 19 18.75 19H47a4 4 0 0 0 4-4v-5c0-5.201 1.986-9.938 5.24-13.495L55.75 53h6.523A19.9 19.9 0 0 1 71 51h4.75a4 4 0 0 0 4-4V35c0-10.493-8.507-19-19-19z"/>
  <path fill="#e5e5e5" d="M30.667 20C24.776 20 20 24.776 20 30.667v30.666C20 67.224 24.776 72 30.667 72H51v-1c0-11.046 8.954-20 20-20h1V30.667C72 24.776 67.224 20 61.333 20z"/>
  <path fill="#ccc" d="M30.667 16C22.567 16 16 22.567 16 30.667v30.666C16 69.433 22.567 76 30.667 76H51v-4H30.667l-.549-.014c-5.454-.276-9.828-4.65-10.104-10.104L20 61.333V30.667c0-5.707 4.482-10.368 10.118-10.653l.549-.014h30.666l.549.014C67.518 20.299 72 24.96 72 30.667V51h4V30.667C76 22.567 69.433 16 61.333 16z"/>
  <path fill="#288419" d="M46 23c-12.703 0-23 10.297-23 23s10.297 23 23 23a23 23 0 0 0 5.167-.583c1.158-8.98 8.27-16.093 17.251-17.251.381-1.66.582-3.39.582-5.166 0-12.703-10.297-23-23-23"/>
  <path fill="#d3ffcc" d="M46 23a22.93 22.93 0 0 1 16.263 6.736L46 46 32.328 27.503A22.9 22.9 0 0 1 46 23" opacity=".1"/>
  <path fill="#d3ffcc" d="M46 23a22.93 22.93 0 0 1 16.263 6.736L46.001 46l-8.384-21.424A22.9 22.9 0 0 1 46 23" opacity=".2"/>
  <path fill="#d3ffcc" d="M46 23a22.93 22.93 0 0 1 16.263 6.736L46 46l-1.992-22.913A23 23 0 0 1 46 23" opacity=".2"/>
  <path fill="#d3ffcc" d="M50.886 23.521c4.39.95 8.314 3.152 11.378 6.215L46 46z" opacity=".2"/>
  <path fill="#d3ffcc" d="M57.318 25.974a23 23 0 0 1 4.946 3.762L46 46z" opacity=".3"/>
  <path fill="#1a690d" d="M46 23c5.365 0 10.3 1.837 14.213 4.916A22.9 22.9 0 0 0 49 25c-12.703 0-23 10.297-23 23 0 7.337 3.436 13.872 8.786 18.083C27.755 62.148 23 54.63 23 46c0-12.703 10.297-23 23-23"/>
  <path fill="#d3ffcc" d="M44 33.5a1.5 1.5 0 1 1-3 0 1.5 1.5 0 0 1 3 0"/>
  <path fill="#96e38a" d="M34 44.5a1.5 1.5 0 1 1-3 0 1.5 1.5 0 0 1 3 0m6 4a1.5 1.5 0 1 1-3 0 1.5 1.5 0 0 1 3 0m14 6a1.5 1.5 0 1 1-3 0 1.5 1.5 0 0 1 3 0"/>
  <path fill="#d3ffcc" d="M33.293 34.293a1 1 0 0 1 1.338-.068l.076.068.793.793.793-.793.076-.068a1 1 0 0 1 1.406 1.406l-.068.076-.793.793.793.793.068.076a1 1 0 0 1-1.406 1.407l-.076-.069-.793-.793-.793.793-.076.069a1 1 0 0 1-1.407-1.407l.069-.076.793-.793-.793-.793-.069-.076a1 1 0 0 1 .069-1.338"/>
  <path fill="#96e38a" d="M59.293 47.293a1 1 0 0 1 1.338-.068l.076.068.793.793.793-.793.076-.068a1 1 0 0 1 1.406 1.406l-.068.076-.793.793.793.793.068.076a1 1 0 0 1-1.406 1.407l-.076-.069-.793-.793-.793.793-.076.069a1 1 0 0 1-1.407-1.407l.069-.076.793-.793-.793-.793-.069-.076a1 1 0 0 1 .069-1.338m-22 9a1 1 0 0 1 1.338-.068l.076.068.793.793.793-.793.076-.068a1 1 0 0 1 1.406 1.406l-.068.076-.793.793.793.793.068.076a1 1 0 0 1-1.406 1.407l-.076-.069-.793-.793-.793.793-.076.069a1 1 0 0 1-1.407-1.407l.069-.076.793-.793-.793-.793-.069-.076a1 1 0 0 1 .069-1.338"/>
  <path fill="#21c000" d="M71 87c8.837 0 16-7.163 16-16s-7.163-16-16-16-16 7.163-16 16 7.163 16 16 16"/>
  <path fill="#fff" d="M79.885 68.31c.52-.52.52-1.365 0-1.885l-1.859-1.86a1.333 1.333 0 0 0-1.885 0l-6.538 6.54c-.52.52-1.365.52-1.885 0l-1.86-1.86a1.333 1.333 0 0 0-1.884 0l-1.859 1.86c-.52.52-.52 1.364 0 1.884l5.603 5.603c.52.52 1.364.52 1.885 0z"/>
  <path fill="#ccc" d="M92.501 59c.298 0 .595.12.823.354.454.468.454 1.23 0 1.698l-2.333 2.4a1.145 1.145 0 0 1-1.65 0 1.227 1.227 0 0 1 0-1.698l2.333-2.4c.227-.234.524-.354.822-.354zm-1.166 10.798h3.499c.641 0 1.166.54 1.166 1.2s-.525 1.2-1.166 1.2h-3.499c-.641 0-1.166-.54-1.166-1.2s.525-1.2 1.166-1.2m-1.982 8.754c.227-.234.525-.354.822-.354h.006c.297 0 .595.12.822.354l2.332 2.4c.455.467.455 1.23 0 1.697a1.145 1.145 0 0 1-1.65 0l-2.332-2.4a1.227 1.227 0 0 1 0-1.697"/>
</svg>
