<svg fill="none" viewBox="0 0 128 96" xmlns="http://www.w3.org/2000/svg">
  <path fill="#888" d="m106.572 34-1.543-.4a.88.88 0 0 1-.629-.629l-.4-1.542a.84.84 0 0 0-.8-.629c-.4 0-.743.286-.8.629l-.4 1.543a.88.88 0 0 1-.628.628l-1.543.4a.84.84 0 0 0-.629.8c0 .4.286.743.629.8l1.543.4a.88.88 0 0 1 .628.629l.4 1.543a.84.84 0 0 0 .8.628c.4 0 .743-.286.8-.628l.4-1.543a.88.88 0 0 1 .629-.629l1.543-.4a.84.84 0 0 0 .628-.8c0-.4-.286-.743-.628-.8M112 54c-1.1 0-2 .9-2 2s.9 2 2 2 2-.9 2-2-.9-2-2-2m-85.943 8.8-2.314-.6c-.429-.086-.857-.514-.943-.943l-.6-2.314c-.171-.6-.686-.943-1.2-.943-.6 0-1.114.428-1.2.943l-.6 2.314c-.086.429-.514.857-.943.943l-2.314.6c-.6.171-.943.686-.943 1.2 0 .6.429 1.114.943 1.2l2.314.6c.429.086.857.514.943.943l.6 2.314c.171.6.686.943 1.2.943.6 0 1.114-.429 1.2-.943l.6-2.314c.086-.429.514-.857.943-.943l2.314-.6c.6-.172.943-.686.943-1.2 0-.6-.428-1.114-.943-1.2M7.371 42.2l-1.542-.4a.88.88 0 0 1-.629-.629l-.4-1.543A.84.84 0 0 0 4 39c-.4 0-.743.286-.8.628l-.4 1.543a.88.88 0 0 1-.629.629l-1.542.4A.84.84 0 0 0 0 43c0 .4.286.743.629.8l1.542.4a.88.88 0 0 1 .629.628l.4 1.543c.114.4.457.629.8.629.4 0 .743-.286.8-.629l.4-1.543a.88.88 0 0 1 .629-.628l1.542-.4A.84.84 0 0 0 8 43c0-.4-.286-.743-.629-.8M126.5 45c-.825 0-1.5.675-1.5 1.5s.675 1.5 1.5 1.5 1.5-.675 1.5-1.5-.675-1.5-1.5-1.5M23 27c-1.1 0-2 .9-2 2s.9 2 2 2 2-.9 2-2-.9-2-2-2" opacity=".2"/>
  <path fill="url(#Subscription-128_svg__a)" d="M66.44 79.94h.063a12.4 12.4 0 0 0 5.374-1.384l4.534-2.348.575-.303A36.19 36.19 0 0 0 95.95 43.133l-.254-9.748C95.535 27.13 90.25 22.51 84.36 22.75H80l-1.066.693a3.94 3.94 0 0 1-1.693-.91l-.2-.196-2.374-2.502a11.87 11.87 0 0 0-8.663-3.71L66 16.12h-5l-2.018 2.307a12 12 0 0 0-1.434 1.239l-3.404 3.45a3.94 3.94 0 0 1-3.07 1.162l-2.646-.178c-6.195-.42-11.494 4.403-11.656 10.61l-.222 8.483a36.18 36.18 0 0 0 19.453 33.034l4.439 2.313.317.16L62 79.94h3.914q.262.006.526 0m-8.126-8.146a31.19 31.19 0 0 1-16.765-28.47l.22-8.483a5.92 5.92 0 0 1 6.32-5.753l2.646.178a8.94 8.94 0 0 0 6.967-2.638l2.475-2.508H71.84l1.573 1.658.224.228a8.94 8.94 0 0 0 8.938 2.148l.279-.087 6.358 1.673a5.87 5.87 0 0 1 1.487 3.775l.253 9.748a31.19 31.19 0 0 1-16.344 28.244l-.495.26-.334.173H58.596z"/>
  <path fill="url(#Subscription-128_svg__b)" d="m50 26 12-7 12 7 8-1 6 4 1 16-7 20-20 12.5L44.5 69 35 51.5v-20l3.5-5z"/>
  <path fill="url(#Subscription-128_svg__c)" d="M62.104 77.061c.456-.044.903-.19 1.304-.44l17.699-11.063a3 3 0 0 0 1.241-1.553l6.451-18.432a3 3 0 0 0 .163-1.179l-.87-13.91a3 3 0 0 0-1.329-2.309l-3.835-2.556a3 3 0 0 0-2.036-.48l-5.885.736a3 3 0 0 1-1.884-.386l-9.612-5.608a3 3 0 0 0-1.629-.404c-1.222 7.872-3.521 28.65.222 57.584"/>
  <path fill="url(#Subscription-128_svg__d)" d="M55.941 78.54a12.4 12.4 0 0 0 11.436.015l4.534-2.347a36.18 36.18 0 0 0 19.55-32.426l-.01-.65-.254-9.748c-.189-7.252-7.265-12.309-14.187-10.137l-.432.136a3.94 3.94 0 0 1-3.837-.85l-.2-.197-2.374-2.502c-4.561-4.806-12.149-4.956-16.895-.39l-.224.221-2.71 2.745a3.89 3.89 0 0 1-3.968.968c-6.92-2.243-14.045 2.82-14.203 10.093L32 41.185v4.874a36.19 36.19 0 0 0 19.411 30.12l4.53 2.36Zm9.138-4.425a7.4 7.4 0 0 1-6.827-.01l-4.531-2.36a31.19 31.19 0 0 1-16.768-28.332l.213-9.833c.085-3.924 3.93-6.656 7.662-5.446a8.89 8.89 0 0 0 9.07-2.212l2.708-2.745.262-.252a6.913 6.913 0 0 1 9.672.35l2.373 2.503.224.227a8.94 8.94 0 0 0 8.938 2.149l.432-.136c3.752-1.178 7.59 1.564 7.692 5.496l.253 9.748.01.56a31.18 31.18 0 0 1-16.849 27.945z"/>
  <path fill="url(#Subscription-128_svg__e)" d="M62.488 79.916a12.4 12.4 0 0 0 4.889-1.36l4.534-2.348a36.18 36.18 0 0 0 19.55-32.426l-.01-.65-.254-9.747c-.188-7.252-7.265-12.31-14.187-10.137l-.432.136a3.94 3.94 0 0 1-3.837-.85l-.2-.197-2.374-2.502a11.86 11.86 0 0 0-7.7-3.673c-.104.508-.439 2.2-.826 4.963a6.9 6.9 0 0 1 4.899 2.151l2.373 2.502.224.228a8.94 8.94 0 0 0 8.938 2.148l.432-.135c3.753-1.178 7.59 1.564 7.692 5.496l.253 9.748.01.56a31.18 31.18 0 0 1-16.849 27.945l-4.534 2.347a7.4 7.4 0 0 1-3.241.825q.295 2.448.65 4.976"/>
  <path fill="url(#Subscription-128_svg__f)" d="M60.5 62a3.5 3.5 0 0 0 3.5-3.5V51h7.5a3.5 3.5 0 1 0 0-7H64v-7.5a3.5 3.5 0 1 0-7 0V44h-7.5a3.5 3.5 0 1 0 0 7H57v7.5a3.5 3.5 0 0 0 3.5 3.5"/>
  <path fill="url(#Subscription-128_svg__g)" d="M60.61 61.997A3.5 3.5 0 0 0 64 58.5V51h7.5a3.5 3.5 0 1 0 0-7H64v-7.5a3.5 3.5 0 0 0-3.5-3.5l-.038.002c-.48 7.527-.65 17.339.148 28.995"/>
  <defs>
    <linearGradient id="Subscription-128_svg__a" x1="66.251" x2="66.251" y1="79.942" y2="16.12" gradientUnits="userSpaceOnUse">
      <stop stop-color="#92540c"/>
      <stop offset="1" stop-color="#c18010"/>
    </linearGradient>
    <linearGradient id="Subscription-128_svg__b" x1="62" x2="62" y1="77.5" y2="19" gradientUnits="userSpaceOnUse">
      <stop stop-color="#ffe8a3"/>
      <stop offset="1" stop-color="#ffd65c"/>
    </linearGradient>
    <linearGradient id="Subscription-128_svg__c" x1="74.512" x2="74.512" y1="19.475" y2="77.061" gradientUnits="userSpaceOnUse">
      <stop stop-color="#fc3"/>
      <stop offset="1" stop-color="#ffde7a"/>
    </linearGradient>
    <linearGradient id="Subscription-128_svg__d" x1="61.732" x2="61.732" y1="79.944" y2="16.121" gradientUnits="userSpaceOnUse">
      <stop stop-color="#fc3"/>
      <stop offset="1" stop-color="#f9be1a"/>
    </linearGradient>
    <linearGradient id="Subscription-128_svg__e" x1="76.552" x2="76.552" y1="79.916" y2="16.162" gradientUnits="userSpaceOnUse">
      <stop stop-color="#f9be1a"/>
      <stop offset="1" stop-color="#e2a412"/>
    </linearGradient>
    <linearGradient id="Subscription-128_svg__f" x1="60.5" x2="60.5" y1="62" y2="33" gradientUnits="userSpaceOnUse">
      <stop stop-color="#fc3"/>
      <stop offset="1" stop-color="#f9be1a"/>
    </linearGradient>
    <linearGradient id="Subscription-128_svg__g" x1="67.528" x2="67.528" y1="61.997" y2="33" gradientUnits="userSpaceOnUse">
      <stop stop-color="#f9be1a"/>
      <stop offset="1" stop-color="#e2a412"/>
    </linearGradient>
  </defs>
</svg>
