<svg fill="none" viewBox="0 0 96 96" xmlns="http://www.w3.org/2000/svg">
  <path fill="url(#Subscription-Clock-96_svg__a)" d="M75.175 51c2.392 0 4.488-1.694 4.676-4.08q.149-1.876.1-3.787l-.254-9.748C79.535 27.13 74.25 22.51 68.36 22.75H64l-1.066.693a3.94 3.94 0 0 1-1.693-.91l-.2-.196-2.374-2.502a11.87 11.87 0 0 0-8.663-3.71L50 16.12h-3.523c-.124.59-.676 3.354-1.221 8H55.84l1.573 1.658.224.228a8.94 8.94 0 0 0 8.938 2.148l.278-.087 6.359 1.673a5.87 5.87 0 0 1 1.487 3.775l.253 9.748A31.2 31.2 0 0 1 74.184 51z"/>
  <path fill="url(#Subscription-Clock-96_svg__b)" d="M51 74.375V71c0-11.012 8.9-19.944 19.9-19.998L73 45l-1-16-6-4-8 1-12-7-12 7-11.5.5-3.5 5v20L28.5 69 46 77.5z"/>
  <path fill="url(#Subscription-Clock-96_svg__c)" d="M46.103 77.062a3 3 0 0 0 1.304-.442L51 74.375V71c0-11.012 8.9-19.943 19.898-19.998l1.9-5.43c.133-.378.189-.779.164-1.178l-.87-13.91a3 3 0 0 0-1.33-2.31l-3.834-2.556a3 3 0 0 0-2.037-.48l-5.884.736a3 3 0 0 1-1.884-.386l-9.612-5.607a3 3 0 0 0-1.63-.404c-1.221 7.872-3.521 28.65.222 57.584"/>
  <path fill="url(#Subscription-Clock-96_svg__d)" d="M39.941 78.54a12.4 12.4 0 0 0 8.064 1.183c1.896-.362 2.995-2.21 2.995-4.14v-2.462l-1.92.994a7.41 7.41 0 0 1-6.828-.01l-4.531-2.36a31.19 31.19 0 0 1-16.768-28.332l.213-9.833c.085-3.924 3.93-6.656 7.662-5.446a8.89 8.89 0 0 0 9.07-2.212l2.708-2.745.262-.252a6.913 6.913 0 0 1 9.672.35l2.373 2.503.224.227a8.94 8.94 0 0 0 8.938 2.149l.432-.136c3.753-1.178 7.59 1.564 7.692 5.496l.253 9.748.01.56a31.2 31.2 0 0 1-.79 7.223A20 20 0 0 1 71 51.001h3.794c.459-2.352.688-4.768.668-7.22l-.01-.649-.255-9.748c-.189-7.252-7.266-12.308-14.187-10.137l-.432.136a3.94 3.94 0 0 1-3.837-.85l-.2-.197-2.374-2.502c-4.561-4.806-12.149-4.956-16.895-.39l-.224.222-2.71 2.744a3.89 3.89 0 0 1-3.968.968c-6.92-2.243-14.045 2.82-14.203 10.093L16 41.185v4.874a36.19 36.19 0 0 0 19.411 30.12z"/>
  <path fill="url(#Subscription-Clock-96_svg__e)" d="M69.673 51.046Q70.33 51 71 51h3.794a36 36 0 0 0 .668-7.218l-.01-.65-.255-9.747c-.188-7.252-7.265-12.31-14.187-10.137l-.432.136a3.94 3.94 0 0 1-3.837-.85l-.2-.197-2.374-2.502a11.86 11.86 0 0 0-7.7-3.673c-.104.508-.439 2.2-.826 4.963a6.9 6.9 0 0 1 4.899 2.151l2.373 2.502.224.228a8.94 8.94 0 0 0 8.938 2.148l.432-.135c3.753-1.178 7.59 1.564 7.692 5.496l.253 9.748.01.56a31.2 31.2 0 0 1-.79 7.223m-23.185 28.87a12.4 12.4 0 0 0 2.135-.328c1.5-.367 2.377-1.83 2.377-3.373V73.12l-1.92.994a7.4 7.4 0 0 1-3.242.825q.295 2.448.65 4.976"/>
  <path fill="url(#Subscription-Clock-96_svg__f)" d="M44.5 62a3.5 3.5 0 0 0 3.5-3.5V51h7.5a3.5 3.5 0 1 0 0-7H48v-7.5a3.5 3.5 0 1 0-7 0V44h-7.5a3.5 3.5 0 1 0 0 7H41v7.5a3.5 3.5 0 0 0 3.5 3.5"/>
  <path fill="url(#Subscription-Clock-96_svg__g)" d="M44.61 61.997A3.5 3.5 0 0 0 48 58.5V51h7.5a3.5 3.5 0 1 0 0-7H48v-7.5a3.5 3.5 0 0 0-3.5-3.5l-.038.002c-.48 7.527-.65 17.339.148 28.995"/>
  <path fill="#ccc" d="M92.502 59c.297 0 .594.12.822.354.454.468.454 1.23 0 1.698l-2.333 2.4a1.145 1.145 0 0 1-1.65 0 1.227 1.227 0 0 1 0-1.698l2.333-2.4c.227-.234.524-.354.822-.354zm-1.167 10.798h3.499c.641 0 1.166.54 1.166 1.2s-.525 1.2-1.166 1.2h-3.499c-.641 0-1.166-.54-1.166-1.2s.525-1.2 1.166-1.2m-1.982 8.754c.227-.234.525-.354.822-.354h.006c.297 0 .595.12.822.354l2.332 2.4c.455.467.455 1.23 0 1.697a1.145 1.145 0 0 1-1.65 0l-2.332-2.4a1.227 1.227 0 0 1 0-1.697"/>
  <path fill="#557ff3" d="M71 87c8.837 0 16-7.163 16-16s-7.163-16-16-16-16 7.163-16 16 7.163 16 16 16"/>
  <path fill="#fff" fill-rule="evenodd" d="M71 59a2 2 0 0 1 2 2v8.764l4.894 2.447a2 2 0 0 1-1.788 3.578l-6-3A2 2 0 0 1 69 71V61a2 2 0 0 1 2-2" clip-rule="evenodd"/>
  <defs>
    <linearGradient id="Subscription-Clock-96_svg__a" x1="62.61" x2="62.61" y1="79.94" y2="16.12" gradientUnits="userSpaceOnUse">
      <stop stop-color="#92540c"/>
      <stop offset="1" stop-color="#c18010"/>
    </linearGradient>
    <linearGradient id="Subscription-Clock-96_svg__b" x1="46" x2="46" y1="77.5" y2="19" gradientUnits="userSpaceOnUse">
      <stop stop-color="#ffe8a3"/>
      <stop offset="1" stop-color="#ffd65c"/>
    </linearGradient>
    <linearGradient id="Subscription-Clock-96_svg__c" x1="58.512" x2="58.512" y1="19.475" y2="77.061" gradientUnits="userSpaceOnUse">
      <stop stop-color="#fc3"/>
      <stop offset="1" stop-color="#ffde7a"/>
    </linearGradient>
    <linearGradient id="Subscription-Clock-96_svg__d" x1="45.732" x2="45.732" y1="79.944" y2="16.121" gradientUnits="userSpaceOnUse">
      <stop stop-color="#fc3"/>
      <stop offset="1" stop-color="#f9be1a"/>
    </linearGradient>
    <linearGradient id="Subscription-Clock-96_svg__e" x1="60.552" x2="60.552" y1="79.916" y2="16.162" gradientUnits="userSpaceOnUse">
      <stop stop-color="#f9be1a"/>
      <stop offset="1" stop-color="#e2a412"/>
    </linearGradient>
    <linearGradient id="Subscription-Clock-96_svg__f" x1="44.5" x2="44.5" y1="62" y2="33" gradientUnits="userSpaceOnUse">
      <stop stop-color="#fc3"/>
      <stop offset="1" stop-color="#f9be1a"/>
    </linearGradient>
    <linearGradient id="Subscription-Clock-96_svg__g" x1="51.528" x2="51.528" y1="61.997" y2="33" gradientUnits="userSpaceOnUse">
      <stop stop-color="#f9be1a"/>
      <stop offset="1" stop-color="#e2a412"/>
    </linearGradient>
  </defs>
</svg>
