<svg fill="none" viewBox="0 0 128 96" xmlns="http://www.w3.org/2000/svg">
  <title>YouTube Without Ads</title>
  <path fill="#888" d="m105.629 42.867 1.542-.4a.875.875 0 0 0 .629-.63l.4-1.542a.84.84 0 0 1 .8-.629c.4 0 .743.286.8.63l.4 1.542a.875.875 0 0 0 .629.629l1.542.4c.4.114.629.457.629.8 0 .4-.286.742-.629.8l-1.542.4a.875.875 0 0 0-.629.628l-.4 1.543a.84.84 0 0 1-.8.629c-.4 0-.743-.286-.8-.63l-.4-1.542a.875.875 0 0 0-.629-.628l-1.542-.4a.841.841 0 0 1-.629-.8c0-.4.286-.743.629-.8Zm-89.686-6.4 2.314-.6c.429-.086.857-.515.943-.943l.6-2.315c.171-.6.686-.943 1.2-.943.6 0 1.114.43 1.2.943l.6 2.315c.086.428.514.857.943.943l2.314.6c.6.17.943.685.943 1.2 0 .6-.429 1.114-.943 1.2l-2.314.6c-.429.085-.857.514-.943.942l-.6 2.315c-.171.6-.686.943-1.2.943-.6 0-1.114-.43-1.2-.943l-.6-2.315c-.086-.428-.514-.857-.943-.942l-2.314-.6c-.6-.172-.943-.686-.943-1.2 0-.6.428-1.115.943-1.2M.629 57.867l1.542-.4a.875.875 0 0 0 .629-.63l.4-1.542a.841.841 0 0 1 .8-.629c.4 0 .743.286.8.63l.4 1.542a.875.875 0 0 0 .629.629l1.542.4c.4.114.629.457.629.8 0 .4-.286.742-.629.8l-1.542.4a.875.875 0 0 0-.629.628l-.4 1.543a.841.841 0 0 1-.8.629c-.4 0-.743-.286-.8-.63l-.4-1.542a.875.875 0 0 0-.629-.628l-1.542-.4a.841.841 0 0 1-.629-.8c0-.4.286-.743.629-.8ZM126.5 56.666c-.825 0-1.5-.674-1.5-1.5 0-.824.675-1.5 1.5-1.5s1.5.676 1.5 1.5c0 .826-.675 1.5-1.5 1.5m-103.5 18c-1.1 0-2-.9-2-2s.9-2 2-2 2 .9 2 2-.9 2-2 2" opacity=".2"/>
  <path fill="#DE5833" d="M59.714 69.187a91.916 91.916 0 0 0-14.973 1.94c-4.644.995-9.112-2.3-9.532-7.031l-2.373-26.691a12.411 12.411 0 0 1 8.005-12.72 65.957 65.957 0 0 1 46.318 0 12.411 12.411 0 0 1 8.005 12.72l-2.372 26.69c-.42 4.732-4.888 8.027-9.533 7.032a91.954 91.954 0 0 0-6.937-1.21c-1.314-.178-2.324-1.208-2.96-2.371a7.028 7.028 0 0 0-3.15-2.97c-.908-.43-1.821-.893-2.506-1.626L48.739 42.655c-1.201-1.285-3.252.19-2.416 1.737L59.605 68.97c.039.071.075.144.109.217"/>
  <path fill="#9A3216" d="M54.5 48.82V37.34c0-2.695 2.917-4.379 5.25-3.031l15 8.66c2.333 1.347 2.333 4.715 0 6.062l-13.025 7.52z"/>
  <path fill="#444" d="M64 80a7 7 0 0 0 3.553-13.033c-.865-.51-1.732-1.054-2.348-1.846L48.15 43.194c-1.08-1.388-3.256-.105-2.563 1.512l11.005 25.678c.351.819.407 1.725.407 2.616a7 7 0 0 0 7 7Z"/>
</svg>
