<svg width="16" height="16" viewBox="0 0 16 16" fill="none" xmlns="http://www.w3.org/2000/svg">
    <path d="M0 3.5C0 2.11929 1.11929 1 2.5 1H13.5C14.8807 1 16 2.11929 16 3.5V5.5C16 6.88071 14.8807 7 13.5 7H2.5C1.11929 7 0 6.88071 0 5.5V3.5Z" fill="#DDDDDD"/>
    <path d="M13.5 1H8.5C7.11929 1 6 2.11929 6 3.5V3.96667C6 4.26122 5.76122 4.5 5.46667 4.5H0V12.5C0 13.8807 1.11929 15 2.5 15H6C5.76886 14.6923 7.57202 14.357 7.41604 14C7.14845 13.3875 7 12.7111 7 12C7 9.23858 9.23858 7 12 7C13.1258 7 14.1647 7.37209 15.0005 8C15.3789 8.28432 15.7157 6.12157 16 6.5V3.5C16 2.11929 14.8807 1 13.5 1Z" fill="#F5F5F5"/>
    <path fill-rule="evenodd" clip-rule="evenodd" d="M2.5 1H13.5C14.8807 1 16 2.11929 16 3.5V7.58069C16 8.03563 15.3638 8.27286 15 7.99963V3.5C15 2.67157 14.3284 2 13.5 2H8.5C7.67157 2 7 2.67157 7 3.5V3.96667C7 4.8135 6.3135 5.5 5.46667 5.5H1V12.5C1 13.3284 1.67157 14 2.5 14H7.41604C7.60738 14.4379 7.31708 15 6.8392 15H2.5C1.11929 15 0 13.8807 0 12.5V3.5C0 2.11929 1.11929 1 2.5 1ZM1 4.5H5.46667C5.76122 4.5 6 4.26122 6 3.96667V3.5C6 2.9372 6.18597 2.41783 6.49982 2H2.5C1.67157 2 1 2.67157 1 3.5V4.5Z" fill="#666666"/>
    <path d="M16 12C16 14.2091 14.2091 16 12 16C9.79086 16 8 14.2091 8 12C8 9.79086 9.79086 8 12 8C14.2091 8 16 9.79086 16 12Z" fill="#CCDAFF"/>
    <path fill-rule="evenodd" clip-rule="evenodd" d="M12 15C13.6569 15 15 13.6569 15 12C15 10.3431 13.6569 9 12 9C10.3431 9 9 10.3431 9 12C9 13.6569 10.3431 15 12 15ZM12 16C14.2091 16 16 14.2091 16 12C16 9.79086 14.2091 8 12 8C9.79086 8 8 9.79086 8 12C8 14.2091 9.79086 16 12 16Z" fill="#1E42A4"/>
    <path fill-rule="evenodd" clip-rule="evenodd" d="M11.7 12.4C11.5741 12.3055 11.5 12.1573 11.5 12L11.5 10.5C11.5 10.2238 11.7239 9.99997 12 9.99997C12.2761 9.99997 12.5 10.2238 12.5 10.5L12.5 11.75L13.3 12.35C13.5209 12.5157 13.5657 12.8291 13.4 13.05C13.2343 13.2709 12.9209 13.3157 12.7 13.15L11.7 12.4Z" fill="#1E42A4"/>
</svg>
