<svg fill="none" viewBox="0 0 96 96" xmlns="http://www.w3.org/2000/svg">
  <path fill="#4cba3c" d="M71 87c8.837 0 16-7.163 16-16s-7.163-16-16-16-16 7.163-16 16 7.163 16 16 16"/>
  <path fill="#ccc" d="M92.501 59c.298 0 .595.12.823.354.454.468.454 1.23 0 1.698l-2.333 2.4a1.145 1.145 0 0 1-1.65 0 1.227 1.227 0 0 1 0-1.698l2.333-2.4c.227-.234.524-.354.822-.354zm-1.166 10.798h3.499c.641 0 1.166.54 1.166 1.2s-.525 1.2-1.166 1.2h-3.499c-.641 0-1.166-.54-1.166-1.2s.525-1.2 1.166-1.2m-1.982 8.754c.227-.234.525-.354.822-.354h.006c.297 0 .595.12.822.354l2.332 2.4c.455.467.455 1.23 0 1.697a1.145 1.145 0 0 1-1.65 0l-2.332-2.4a1.227 1.227 0 0 1 0-1.697"/>
  <path fill="#fff" d="M73.495 65.46c-2.852-1.473-6.348-.403-7.979 2.512l-.006.006a6.6 6.6 0 0 0-.834 3.043c-.012.55-.35 1.025-.859 1.166l-2.03.557c-.355.096-.705-.167-.742-.551a10.6 10.6 0 0 1 1.3-6.162c2.668-4.76 8.427-6.438 13.033-3.876a.424.424 0 0 0 .582-.166l.791-1.416a.426.426 0 0 1 .792.115l1.373 5.522a.45.45 0 0 1-.306.55l-5.268 1.442c-.374.103-.681-.32-.485-.666l.81-1.441c.122-.224.049-.52-.172-.634Zm-5.471 11.16c2.962 1.472 6.592.403 8.286-2.512l.006-.006c.56-.961.835-2.005.866-3.043.013-.55.363-1.025.892-1.166l2.108-.557a.622.622 0 0 1 .77.55 10.26 10.26 0 0 1-1.35 6.163c-2.77 4.76-8.75 6.438-13.533 3.875a.45.45 0 0 0-.605.167l-.822 1.416a.448.448 0 0 1-.821-.116l-1.427-5.521a.45.45 0 0 1 .319-.551l5.47-1.442a.452.452 0 0 1 .503.667l-.84 1.44a.46.46 0 0 0 .178.635Z"/>
  <path fill="#de5833" d="M19.366 25.504C18 28.293 18 31.918 18 39.169V56.83c0 7.251 0 10.876 1.366 13.665a13.4 13.4 0 0 0 6.138 6.138C28.293 78 31.918 78 39.169 78h5.511c2.165 0 3.247 0 4.08-.408a4 4 0 0 0 1.832-1.832c.408-.833.408-1.915.408-4.08V71c0-11.046 8.954-20 20-20h.68c2.165 0 3.247 0 4.08-.408a4 4 0 0 0 1.832-1.832c.408-.833.408-1.915.408-4.08v-5.511c0-7.251 0-10.876-1.366-13.665a13.4 13.4 0 0 0-6.138-6.138C67.707 18 64.082 18 56.831 18H39.17c-7.251 0-10.876 0-13.665 1.366a13.4 13.4 0 0 0-6.138 6.138Z"/>
  <path fill="#ddd" d="M51 72.729V71c0-1.249.114-2.47.333-3.655-1.87-3.752-3.747-9.032-2.892-12.438.157-.62-1.765-22.96-3.123-23.68-.35-.186-.719-.397-1.1-.616-1.263-.726-2.661-1.53-3.967-1.748-.862-.138-1.992-.073-2.876.046-.157.021-.163.304-.013.355.58.196 1.284.537 1.7 1.053.078.098-.027.252-.153.256-.391.015-1.1.179-2.038.974-.108.092-.018.263.121.236 2.013-.399 4.07-.202 5.28.899.08.071.038.2-.064.227-10.514 2.857-8.432 12.003-5.634 23.226 2.637 10.574 3.888 14.745 4.039 15.24q.014.05.059.076c1.437.788 6.93 1.371 10.328 1.278"/>
  <path fill="#fff" d="M73.88 51q.187-1.547.188-3.145c0-14.397-11.671-26.068-26.068-26.068s-26.068 11.67-26.068 26.068c0 14.397 11.671 26.068 26.068 26.068q1.523 0 3-.171V71c0-1.518.17-2.996.49-4.417-2.083-5.106-3.705-10.39-1.549-10.724.105-.017.171-.14.121-.233-5.066-9.441 1.072-8.754 4.172-8.407.764.085 1.344.15 1.525.037.918-.574.347-13.166-7.618-14.877a.14.14 0 0 1-.083-.05c-2.175-2.74-6.51-3.987-10.661-3.428-.165.022-.15.303.014.33.694.112 1.31.285 1.673.399.121.038.128.205.014.26-.554.267-1.676.876-2.25 1.667-.075.103.03.224.15.183 2.928-1.01 5.243-.53 6.48.937.065.077.017.195-.082.218-10.774 2.522-8.808 10.552-6.401 20.383l.001.007.199.81A254 254 0 0 0 41.922 70.9c-10.216-2.687-17.75-11.986-17.75-23.045 0-13.16 10.668-23.828 23.828-23.828s23.828 10.668 23.828 23.828q-.001 1.6-.206 3.145z"/>
  <path fill="#3ca82b" d="M53.243 61.788c-.255.2-.501.398-.73.588-.324-.458-.933-.79-2.31-.551-1.203.209-1.868.5-2.164 1-1.9-.72-5.098-1.833-5.87-.759-.844 1.174.211 6.727 1.332 7.448.586.376 3.386-1.423 4.848-2.665.236.333.616.523 1.397.505a12 12 0 0 0 1.614-.153 19.9 19.9 0 0 1 1.883-5.413"/>
  <path fill="#4cba3c" d="M53.364 61.56c-.332.23-.65.457-.934.67-.366-.385-.998-.61-2.194-.417-1.617.262-1.967.598-1.924 1.556-.002.645.083 1.772.254 2.252.215.599.453.986 1.51.968.42-.008.945-.048 1.44-.123a20 20 0 0 1 1.25-3.695 2 2 0 0 0-.111-.231 1 1 0 0 1 .196.044q.242-.52.513-1.024m-5.637 1.15c-1.664-.74-4.695-1.476-5.069-.884-.785 1.243.321 6.287.923 6.76.52.408 4.507-1.968 4.348-2.501-.544-1.825-.202-3.374-.202-3.374Z"/>
  <path fill="#fc3" d="M49.593 46.783c-4.08-.05-5.222 1.96-5.467 3.027-.318 1.396.298 3.01 1.675 4.116 1.085.873 4.144 2.628 9.042 2.588.943-.008 1.81-.085 2.592-.211a20 20 0 0 1 4.165-2.961c-.485-.08-1.27.006-2.273.117-1.705.188-4.044.446-6.626.073-3.619-.523-3.975-2.184-3.514-2.889.696-1.067 1.995-1.01 3.854-.927.988.044 2.135.095 3.434-.013 3.742-.309 5.86-1.351 7.04-2.696.616-.704.9-1.469.66-1.912-.22-.403-.847-.553-2.613.12a22.7 22.7 0 0 1-5.647 1.374c-1.56.177-3.85.185-5.81.192z"/>
  <g fill="#14307e" opacity=".8">
    <path d="M50.364 38.15c.273-.448.879-.793 1.87-.793s1.458.394 1.78.834c.066.09-.033.195-.135.15q-.037-.014-.075-.032c-.362-.158-.807-.352-1.57-.363-.816-.012-1.33.193-1.654.369-.11.059-.281-.06-.216-.166Zm-11.162.572c.962-.403 1.719-.35 2.254-.224.112.027.19-.095.1-.167-.415-.335-1.344-.75-2.556-.299-1.08.403-1.59 1.24-1.593 1.791-.001.13.266.141.335.031.187-.297.497-.73 1.46-1.132"/>
    <path fill-rule="evenodd" d="M53.076 44.27a1.54 1.54 0 0 1-1.541-1.537c0-.847.69-1.535 1.541-1.535a1.54 1.54 0 0 1 1.542 1.535 1.54 1.54 0 0 1-1.542 1.536Zm1.086-2.045a.399.399 0 0 0-.798 0 .399.399 0 0 0 .798 0m-11.299 1.571c0 .99-.804 1.791-1.797 1.791a1.795 1.795 0 0 1-1.796-1.79c0-.99.805-1.792 1.796-1.792s1.797.802 1.797 1.791m-.53-.593a.465.465 0 1 0-.928.002.465.465 0 0 0 .929-.002Z" clip-rule="evenodd"/>
  </g>
</svg>
