<svg width="96" height="96" viewBox="0 0 96 96" fill="none" xmlns="http://www.w3.org/2000/svg">
<path d="M15.2551 32.0753L22.7997 74.6822C23.313 77.5805 26.1606 79.4487 29.0235 78.7653L78.3966 66.9798C81.0299 66.3513 82.7171 63.7795 82.2451 61.1136L75.7717 24.5568C75.3007 21.8966 72.8419 20.0615 70.1576 20.3667L19.7132 26.1021C16.7828 26.4353 14.7408 29.1712 15.2551 32.0753Z" fill="#75B6EB"/>
<path d="M15.2551 32.0754L16.0743 36.7016L76.417 28.2006L75.7717 24.5568C75.3007 21.8966 72.8419 20.0615 70.1576 20.3667L19.7132 26.1021C16.7828 26.4353 14.7408 29.1712 15.2551 32.0754Z" fill="#4397E0"/>
<path d="M12.4524 28.9188C12.5448 28.9076 12.6375 28.9324 12.7106 28.9883C12.7837 29.0441 12.8319 29.1269 12.8454 29.219C12.8589 29.3112 12.8361 29.4047 12.7855 29.4817C12.361 30.1245 12.064 30.8098 11.9169 31.5334C11.5795 33.2309 11.8932 35.0536 12.2622 36.8395C12.5493 38.2106 12.8 39.5981 13.0403 40.9936C14.9143 51.991 16.7055 63.0186 18.5272 74.0328C18.6585 74.8265 18.7888 75.6151 18.9203 76.4085C18.9375 76.5121 18.9146 76.619 18.8547 76.7058C18.795 76.7925 18.7035 76.8519 18.6004 76.8713C18.4973 76.8907 18.3906 76.8685 18.3034 76.8094C18.2161 76.7503 18.1557 76.659 18.1341 76.5563C17.9685 75.7688 17.8052 74.9858 17.6422 74.1974C15.3792 63.258 13.365 52.2544 11.4913 41.2589C11.2518 39.8672 11.0323 38.464 10.817 37.1112C10.5255 35.2259 10.3155 33.2242 10.9317 31.2655C11.1985 30.4368 11.6591 29.6732 12.2147 29.0459C12.2756 28.9768 12.3599 28.93 12.4524 28.9188Z" fill="#1074CC"/>
<path d="M66.6304 34.6993C68.1913 34.4578 69.652 35.5296 69.8896 37.0911C70.1232 38.6258 69.0875 40.0658 67.5583 40.3328L29.814 46.9227C28.0532 47.2301 26.3782 46.0467 26.0793 44.2845C25.7785 42.5104 26.9875 40.8334 28.7659 40.5582L66.6304 34.6993Z" fill="#CBEAFF"/>
<path d="M21.7517 29.3241C22.6644 29.1625 23.5321 29.7519 23.6894 30.6405C23.8468 31.5291 23.2342 32.3805 22.3215 32.5421C21.4088 32.7036 20.5414 32.1143 20.384 31.2257C20.2267 30.3371 20.839 29.4857 21.7517 29.3241Z" fill="#CBEAFF"/>
<path d="M27.3054 28.9217C28.1269 28.7763 28.9077 29.3068 29.0493 30.1065C29.1909 30.9062 28.6397 31.6725 27.8184 31.818C26.9969 31.9634 26.2161 31.4329 26.0745 30.6331C25.9328 29.8334 26.484 29.0672 27.3054 28.9217Z" fill="#CBEAFF"/>
<path d="M32.5144 28.4979C33.2446 28.3686 33.9386 28.8402 34.0644 29.5511C34.1903 30.262 33.7004 30.9431 32.9702 31.0724C32.24 31.2016 31.546 30.73 31.4202 30.0191C31.2943 29.3083 31.7842 28.6271 32.5144 28.4979Z" fill="#CBEAFF"/>
<path d="M66.5473 34.1762C68.3316 33.8791 70.1469 35.2633 70.3449 37.0224C70.6218 38.7436 69.3091 40.4894 67.623 40.7145C67.3239 40.7612 67.0247 40.8078 66.7255 40.8544C65.2229 41.0882 63.7197 41.3207 62.2165 41.5514C62.1436 41.5626 62.0687 41.5451 62.0082 41.5023C61.9478 41.4595 61.9067 41.3948 61.894 41.3222C61.8813 41.2494 61.898 41.1744 61.9404 41.1137C61.9828 41.0529 62.0474 41.0114 62.1198 40.9972C63.6122 40.7049 65.1051 40.4141 66.5981 40.1249C66.8953 40.0673 67.1927 40.0097 67.4899 39.9523C68.7674 39.7311 69.6735 38.3914 69.4304 37.1613C69.2436 35.8974 67.9246 34.9819 66.7097 35.224C56.4438 36.9607 46.1664 38.6248 35.8781 40.2167C33.545 40.5777 31.2111 40.9352 28.8769 41.2887C27.5507 41.4535 26.5345 42.8395 26.7839 44.1654C26.9648 45.4927 28.3597 46.504 29.6948 46.2509C37.5126 44.9486 45.3379 43.6878 53.1704 42.4691C54.673 42.2353 56.1762 42.0031 57.6794 41.7724C57.7523 41.7612 57.8272 41.7786 57.8876 41.8214C57.948 41.8642 57.9892 41.929 58.0019 42.0016C58.0145 42.0742 57.998 42.1491 57.9558 42.2099C57.9134 42.2706 57.8487 42.3123 57.7763 42.3266C56.2839 42.6188 54.7908 42.9097 53.2978 43.1989C45.5158 44.7064 37.7263 46.172 29.9296 47.5958C27.8833 48.0188 25.6834 46.4905 25.371 44.4049C24.9552 42.3246 26.5351 40.1093 28.6508 39.8288C30.9828 39.4603 33.3157 39.0955 35.6489 38.7345C45.9371 37.1426 56.2367 35.6233 66.5473 34.1762Z" fill="#045EB2"/>
<path fill-rule="evenodd" clip-rule="evenodd" d="M70.0732 19.62C73.151 19.2701 75.9705 21.3743 76.5107 24.4245L82.9838 60.9813C83.5251 64.0381 81.5906 66.9871 78.5712 67.7079L29.1982 79.4933C25.9154 80.2769 22.65 78.1347 22.0615 74.8114L14.5168 32.2047C13.9271 28.8748 16.2686 25.7375 19.6286 25.3554L70.0732 19.62ZM75.0336 24.6862C74.6317 22.4161 72.5333 20.8498 70.2426 21.1102L19.798 26.8458C17.2975 27.1303 15.555 29.4651 15.9938 31.9433L16.6333 35.5553C17.319 35.4648 18.0049 35.3743 18.6906 35.2838L62.1257 29.5526C62.93 29.4465 63.7345 29.3404 64.5388 29.2343C64.6695 29.2171 64.8021 29.2528 64.9072 29.3329C65.0122 29.4131 65.0812 29.5314 65.0991 29.662C65.1169 29.7926 65.0825 29.9253 65.0029 30.0309C64.9232 30.1364 64.8048 30.2066 64.6743 30.2252C63.8711 30.3396 63.0677 30.4539 62.2646 30.5683L18.8906 36.7453C18.2253 36.84 17.5598 36.9347 16.8945 37.0294L23.5385 74.5499C23.9765 77.0232 26.4067 78.6175 28.8498 78.0343L78.2228 66.2489C80.47 65.7125 81.9099 63.5177 81.507 61.2428L75.0336 24.6862Z" fill="#045EB2"/>
<path d="M72.4085 37.6101C77.2747 30.3842 83.1393 28.5568 84.5319 29.309C85.9243 30.0616 85.4965 36.9826 81.6281 42.784C77.7596 48.5856 69.6799 56.5727 66.0189 62.2298C65.545 62.8777 66.3713 68.7489 64.0177 71.2217C63.9594 71.2829 63.8997 71.3428 63.8396 71.402C61.4838 73.7401 57.9372 74.6785 55.2317 75.0682C55.23 75.0686 55.2284 75.069 55.2267 75.0693C53.463 75.4157 50.8317 75.415 51.176 74.2713C50.7455 73.7672 51.0968 73.0801 53.0032 72.3112C53.3444 72.1736 53.572 71.837 53.5603 71.4695C53.559 71.4277 53.5581 71.3861 53.5571 71.3446C53.5564 71.3196 53.5559 71.2947 53.5554 71.2698C53.5493 70.9948 53.5493 70.7273 53.5552 70.4668C53.5557 70.4463 53.5562 70.4259 53.5568 70.4055C53.5586 70.3357 53.5609 70.2664 53.5637 70.1976C53.5646 70.1739 53.5656 70.1502 53.5666 70.1266C53.5701 70.0501 53.5741 69.9743 53.5787 69.899C53.5793 69.8878 53.5799 69.8767 53.5806 69.8656C53.585 69.7949 53.5902 69.7247 53.5956 69.6551C53.5976 69.6298 53.5996 69.6046 53.6017 69.5795C53.6073 69.5125 53.6134 69.4461 53.62 69.38C53.6217 69.3623 53.6232 69.3445 53.625 69.3268C53.6326 69.2537 53.6411 69.1812 53.6498 69.1092C53.651 69.0991 53.6519 69.089 53.6532 69.0789C53.6624 69.0041 53.6727 68.93 53.6832 68.8565C53.6847 68.8463 53.686 68.836 53.6875 68.8258C53.6969 68.7614 53.7072 68.6975 53.7177 68.6341C53.7214 68.6111 53.7247 68.588 53.7286 68.5652C53.7384 68.5079 53.749 68.451 53.7596 68.3944C53.764 68.371 53.7682 68.3476 53.7727 68.3244C53.7844 68.2643 53.7968 68.2048 53.8095 68.1456C53.8135 68.1268 53.8173 68.108 53.8214 68.0893C53.8876 67.7879 53.9666 67.497 54.0583 67.2151C54.0624 67.2027 54.0661 67.1902 54.0702 67.1778C54.4348 66.0746 54.9992 65.112 55.7895 64.2176L55.7893 64.2183L55.79 64.2178C57.4197 62.3734 61.581 60.8075 61.9633 60.1027C65.286 54.712 67.5423 44.8361 72.4085 37.6101Z" fill="#C19EDB"/>
<path d="M51.1754 74.2717C51.7471 74.9425 53.7036 75.2892 55.2261 75.0702C55.2274 75.07 55.2289 75.0696 55.2302 75.0694C55.2288 75.0696 55.2273 75.0701 55.2259 75.0704C53.4619 75.4168 50.83 75.4159 51.1754 74.2717Z" fill="#F5FBFE"/>
<path d="M66.0183 62.2308C65.5445 62.8788 66.3703 68.7495 64.0169 71.2223C62.2779 64.7434 55.2753 72.814 55.7894 64.2186C57.4193 62.3742 61.5807 60.8083 61.9627 60.1035L66.0183 62.2308Z" fill="#F5FBFE"/>
<path fill-rule="evenodd" clip-rule="evenodd" d="M84.5331 29.3086C85.7733 29.3089 85.4978 36.9823 81.6295 42.7837C78.5478 47.4053 72.7942 53.4144 68.7303 58.5271L69.1808 58.7908L66.328 62.4729L65.9913 62.2795C65.5813 63.1328 66.321 68.8025 64.0189 71.2212C61.6652 73.6939 57.7521 74.5734 55.2279 75.0691C54.7475 75.1634 54.2632 75.211 53.8121 75.2224C53.768 75.3481 53.6994 75.4649 53.6083 75.5647C53.4295 75.7605 53.1799 75.8752 52.9149 75.8853C51.6256 75.9343 50.376 75.9101 49.1412 75.7922C46.0051 75.4825 42.6852 74.5763 40.3207 72.0979C37.9171 69.6334 37.4604 65.8364 38.3453 62.7681C38.9118 60.784 39.8531 58.9637 41.0709 57.3616C40.2414 56.8722 39.4359 56.3408 38.6273 55.7559C38.5206 55.6785 38.4486 55.5614 38.4274 55.4309C38.4062 55.3005 38.4371 55.167 38.5138 55.0598C38.5905 54.9527 38.7068 54.8804 38.837 54.8584C38.9673 54.8364 39.1012 54.8667 39.2088 54.9426C40.0459 55.5335 40.8764 56.0636 41.7296 56.5469C44.3204 53.5338 47.9267 51.4081 51.7975 50.5881C52.3937 50.4627 52.8897 50.38 53.4864 50.3142C54.6467 50.1933 55.9483 50.1806 57.1793 50.5854C58.3902 50.9322 59.6902 52.1069 59.775 53.562C59.8843 56.4626 57.6105 58.3505 55.4657 59.3506C51.1457 61.2552 46.3712 60.1352 42.4671 58.1331C41.3119 59.6488 40.4397 61.3596 39.9554 63.1897C39.2299 65.9176 39.6991 68.9315 41.6268 70.8521C43.531 72.8055 46.4182 73.622 49.3121 73.855C50.447 73.9456 51.6117 73.9513 52.8241 73.8875C53.0154 73.8773 53.2035 73.9226 53.3671 74.0159C55.8116 73.3507 58.884 71.9417 62.0968 69.8506C65.6153 67.5603 64.0452 62.1514 64.3883 61.4268C64.3967 61.409 64.4053 61.3913 64.4137 61.3735L62.378 60.2041L64.5091 56.0549L66.5267 57.2363C71.3646 48.482 75.4609 45.9231 80.1825 40.489C85.5833 34.2732 83.2928 29.3088 84.5331 29.3086ZM58.496 53.6931C58.3359 51.8143 55.705 51.3816 53.642 51.6804C53.1034 51.7468 52.6485 51.8298 52.0963 51.9534C48.6566 52.7179 45.4589 54.6553 43.1493 57.2976C46.8709 59.1086 51.2572 59.9633 54.9628 58.2578C56.8632 57.3943 58.6525 55.5663 58.496 53.6931Z" fill="#9F6EB8"/>
<path d="M32.5506 50.6821C32.866 50.6299 33.0952 50.6705 33.2384 50.8035C33.3815 50.9365 33.4387 51.1624 33.4095 51.4807C33.4063 51.516 33.4019 51.5527 33.3966 51.5903C33.3864 51.6574 33.3769 51.7218 33.3656 51.7737C33.3539 51.8259 33.3379 51.8649 33.3104 51.8945C33.2828 51.9241 33.2452 51.9425 33.194 51.958C33.143 51.9731 33.0797 51.9874 33.0135 52.0024C32.9764 52.0105 32.9401 52.0174 32.9051 52.0232C32.5897 52.0754 32.3603 52.0351 32.2171 51.9021C32.0741 51.769 32.0173 51.543 32.0465 51.2246C32.0497 51.1893 32.0538 51.1526 32.0592 51.115C32.0694 51.0479 32.0789 50.9837 32.0902 50.9319C32.1019 50.8797 32.1176 50.8407 32.1451 50.811C32.1727 50.7814 32.2106 50.7628 32.2618 50.7473C32.3127 50.7322 32.3761 50.7182 32.4422 50.7031C32.4794 50.695 32.5156 50.6879 32.5506 50.6821Z" fill="#9F6EB8"/>
<path fill-rule="evenodd" clip-rule="evenodd" d="M82.5768 28.5398C83.0307 28.4412 83.4544 28.3938 83.8316 28.4036C84.1995 28.4132 84.5736 28.4783 84.8896 28.649C85.2777 28.8587 85.5127 29.2281 85.6582 29.5759C85.8088 29.9358 85.9033 30.3659 85.9557 30.8308C86.0609 31.7639 86.0094 32.9533 85.7938 34.2731C85.362 36.9167 84.2525 40.2004 82.2527 43.1995C80.2866 46.1481 77.263 49.6355 74.3139 53.0507C71.352 56.4807 68.4667 59.8362 66.6691 62.6056C66.6606 62.6407 66.6497 62.6997 66.6389 62.7896C66.6155 62.9835 66.6004 63.2484 66.5875 63.5879C66.5623 64.2482 66.5467 65.1505 66.4717 66.0997C66.3964 67.0525 66.2587 68.0943 65.9781 69.0709C65.6988 70.0432 65.264 71.0002 64.5615 71.7383C62.0292 74.3987 58.5565 75.348 55.3333 75.8117C54.499 75.9317 53.6324 75.9257 52.8685 75.8175C52.1269 75.7124 51.3911 75.4983 50.8847 75.1337C50.6269 74.948 50.3646 74.6768 50.2527 74.2986C50.1326 73.8923 50.2242 73.4942 50.434 73.1599C50.6317 72.8451 50.9383 72.5744 51.3026 72.3349C51.6736 72.0911 52.1465 71.8523 52.7252 71.6174C52.7843 71.5934 52.8129 71.538 52.8116 71.4966C52.7061 68.1858 53.4014 65.7899 55.2287 63.7218C56.1445 62.6853 57.713 61.7747 58.9845 61.0757C59.6494 60.7102 60.2308 60.4049 60.689 60.1367C60.9156 60.0041 61.0885 59.8937 61.2094 59.8041C61.2853 59.7478 61.318 59.7156 61.3268 59.7073C62.9422 57.0857 64.3059 53.3582 65.9096 49.2713C67.4969 45.2262 69.3031 40.8805 71.7872 37.1918C74.2816 33.4878 77.0494 31.1414 79.4061 29.8144C80.5822 29.1522 81.6682 28.7371 82.5768 28.5398ZM61.9918 61.0867C61.829 61.1997 61.6425 61.3154 61.4458 61.4306C60.9652 61.7119 60.3327 62.0452 59.7059 62.3898C58.3937 63.1112 57.0665 63.9061 56.3526 64.7141C54.8442 66.4212 54.2142 68.4067 54.3111 71.4468C54.3332 72.1386 53.909 72.755 53.288 73.0071C52.7672 73.2186 52.3891 73.4148 52.1254 73.5881C51.9183 73.7242 51.8038 73.8317 51.7443 73.9022C51.7499 73.9065 51.7559 73.9115 51.7625 73.9163C51.9797 74.0726 52.4331 74.2405 53.0808 74.3323C53.7065 74.4209 54.4302 74.4265 55.1213 74.3271C58.2504 73.8769 61.3002 72.9902 63.4752 70.7052C63.9494 70.2069 64.2939 69.5024 64.5364 68.6582C64.7777 67.8183 64.9048 66.888 64.9763 65.983C65.0481 65.0744 65.0617 64.2326 65.0884 63.5326C65.0967 63.3139 65.1073 63.104 65.1216 62.9127L61.9918 61.0867ZM64.3848 57.0471C63.9222 58.0747 63.4486 59.0355 62.9529 59.9027L65.6272 61.4625C66.1743 60.643 66.8045 59.7805 67.4932 58.8886L64.3848 57.0471ZM83.791 29.9028C83.562 29.8968 83.261 29.9254 82.8933 30.0053C82.1587 30.1649 81.2133 30.5172 80.1411 31.1209C78.0007 32.3261 75.4029 34.5065 73.0311 38.0285C70.649 41.5657 68.894 45.7709 67.306 49.8178C66.5155 51.8323 65.7616 53.8216 64.9903 55.6538L68.4347 57.6946C69.8942 55.8781 71.5406 53.9688 73.1789 52.0715C76.152 48.6286 79.1024 45.2216 81.0048 42.3686C82.8734 39.5662 83.9121 36.4885 84.3132 34.033C84.514 32.8033 84.5504 31.7582 84.465 31.0006C84.4221 30.6204 84.3517 30.3411 84.2742 30.1559C84.2203 30.0271 84.1773 29.9777 84.1653 29.9648C84.1232 29.9454 84.0097 29.9085 83.791 29.9028Z" fill="#521A61"/>
</svg>
