<svg fill="none" viewBox="0 0 96 96" xmlns="http://www.w3.org/2000/svg">
  <path fill="#e2a412" d="M68.707 51.13C58.74 52.268 51 60.73 51 71v1a4 4 0 0 1-4 4H28.863c-6.849 0-11.188-7.346-7.882-13.344l21.136-38.353c.95-1.723 2.322-2.967 3.883-3.734v-.919h3.749c3.168-.086 6.376 1.465 8.133 4.653L70.716 47.59c.845 1.532-.27 3.34-2.01 3.539Z"/>
  <path fill="#f9be1a" d="M68.67 51.134C58.721 52.29 51 60.743 51 71v1a4 4 0 0 1-4 4H24.863c-6.849 0-11.188-7.346-7.882-13.344l21.136-38.353c3.422-6.208 12.344-6.208 15.765 0z"/>
  <path fill="#4cba3c" d="M71 87c8.837 0 16-7.163 16-16s-7.163-16-16-16-16 7.163-16 16 7.163 16 16 16"/>
  <path fill="#fff" fill-rule="evenodd" d="M73.495 65.46c-2.852-1.473-6.348-.403-7.979 2.512l-.006.006a6.6 6.6 0 0 0-.834 3.043c-.012.55-.35 1.025-.859 1.166l-2.03.557c-.355.096-.705-.167-.742-.551a10.6 10.6 0 0 1 1.3-6.162c2.668-4.76 8.427-6.438 13.033-3.876a.424.424 0 0 0 .582-.166l.791-1.416a.426.426 0 0 1 .792.115l1.373 5.522a.45.45 0 0 1-.306.55l-5.268 1.442c-.374.103-.681-.32-.485-.666l.81-1.441c.122-.224.049-.52-.172-.634Zm-5.47 11.16c2.96 1.472 6.591.403 8.285-2.512l.007-.006c.56-.961.834-2.005.866-3.043.012-.55.363-1.025.891-1.166l2.108-.557a.622.622 0 0 1 .77.55 10.26 10.26 0 0 1-1.35 6.163c-2.77 4.76-8.75 6.438-13.533 3.875a.45.45 0 0 0-.605.167l-.821 1.416a.448.448 0 0 1-.822-.116l-1.426-5.521a.45.45 0 0 1 .318-.551l5.47-1.442a.452.452 0 0 1 .504.667l-.84 1.44a.46.46 0 0 0 .177.635Z" clip-rule="evenodd"/>
  <path fill="#ccc" d="M92.501 59c.298 0 .595.12.823.354.454.468.454 1.23 0 1.698l-2.333 2.4a1.145 1.145 0 0 1-1.65 0 1.227 1.227 0 0 1 0-1.698l2.333-2.4c.227-.234.524-.354.822-.354zm-1.166 10.798h3.499c.641 0 1.166.54 1.166 1.2s-.525 1.2-1.166 1.2h-3.499c-.641 0-1.166-.54-1.166-1.2s.525-1.2 1.166-1.2m-1.982 8.754c.227-.234.525-.354.822-.354h.006c.297 0 .595.12.822.354l2.332 2.4c.455.467.455 1.23 0 1.697a1.145 1.145 0 0 1-1.65 0l-2.332-2.4a1.227 1.227 0 0 1 0-1.697"/>
  <path fill="#92540c" d="M46 68a4 4 0 1 0 0-8 4 4 0 0 0 0 8m-.873-36a3 3 0 0 0-2.997 3.125l.75 18A3 3 0 0 0 45.877 56h.245a3 3 0 0 0 2.998-2.875l.75-18A3 3 0 0 0 46.872 32z"/>
</svg>
