<svg width="96" height="96" viewBox="0 0 96 96" fill="none" xmlns="http://www.w3.org/2000/svg">
<path d="M64.5662 21.7965C70.6057 21.2187 75.9684 25.6277 76.5439 31.6444L78.6865 54.0433C77.2151 53.5476 75.6393 53.2787 74.0007 53.2787C65.9006 53.2787 59.334 59.8453 59.334 67.9454C59.334 69.1677 59.4836 70.3552 59.7654 71.4903L31.353 74.2086C25.3135 74.7864 19.9508 70.3774 19.3752 64.3607L16.7925 37.3607C16.217 31.344 20.6465 25.9983 26.686 25.4205L64.5662 21.7965Z" fill="#FFC95C"/>
<path d="M64.4949 21.0499C70.944 20.433 76.675 25.1413 77.2903 31.5729L79.4676 54.3317C78.9619 54.1284 78.4422 53.9525 77.9105 53.8058L75.7972 31.7157C75.2612 26.1141 70.2675 22.0046 64.6378 22.5431L26.7574 26.1671C21.1276 26.7058 17.0033 31.6878 17.5391 37.2894L20.1219 64.2894C20.6578 69.8911 25.6519 74.0006 31.2818 73.462L59.6026 70.7523C59.6995 71.2525 59.8219 71.7436 59.9683 72.2242L31.4246 74.9554C24.9755 75.5724 19.244 70.8639 18.6287 64.4323L16.046 37.4323C15.4308 31.0006 20.1655 25.291 26.6146 24.674L64.4949 21.0499Z" fill="#B66A1F"/>
<path d="M37.5518 51.8107C37.6239 51.8049 37.6952 51.8266 37.7501 51.8717C37.8049 51.9168 37.8396 51.9821 37.848 52.0538C37.8563 52.1257 37.8369 52.1981 37.7972 52.2574C37.6168 52.5263 37.4351 52.7941 37.2523 53.0609C35.6068 55.4627 33.8636 57.7843 32.0225 60.0255C30.1815 62.2667 28.2425 64.4277 26.2059 66.5082C25.9796 66.7393 25.7521 66.9695 25.5235 67.1986C25.473 67.2491 25.4059 67.2822 25.3338 67.288C25.2618 67.2937 25.1909 67.2722 25.136 67.2272C25.0812 67.1821 25.046 67.1166 25.0377 67.0448C25.0293 66.973 25.049 66.901 25.0887 66.8417C25.2691 66.5728 25.4508 66.3048 25.6336 66.038C27.2791 63.6361 29.0225 61.3145 30.8636 59.0734C32.7046 56.8322 34.6434 54.6714 36.68 52.5909C36.9063 52.3598 37.1339 52.1292 37.3626 51.9C37.413 51.8497 37.4799 51.8165 37.5518 51.8107Z" fill="#B66A1F"/>
<path d="M72.0738 27.922C72.1472 27.9167 72.2205 27.9395 72.2774 27.9867C72.3343 28.0339 72.3706 28.1017 72.3777 28.1749C72.3849 28.2482 72.3624 28.3217 72.3157 28.379C72.2691 28.4363 72.2017 28.4728 72.1287 28.4818C71.0797 28.6695 70.2332 29.7159 69.5135 30.6537C68.4567 32.0717 67.6341 33.6372 66.6763 35.2091L66.6802 35.2035C63.2902 40.6931 59.8646 46.16 56.4024 51.6058C54.6367 54.1471 52.1456 56.3262 48.8611 56.7999C48.8059 56.8066 48.7501 56.8128 48.6944 56.8182C45.7517 57.0904 42.9203 55.8478 40.9163 53.7311C36.5134 48.8297 32.1161 43.9048 27.6932 39.0231C26.4343 37.6444 25.157 36.2897 23.7549 35.1002C22.8306 34.3488 21.8009 33.5158 20.7122 33.5214C20.6387 33.524 20.5662 33.4986 20.511 33.4493C20.4559 33.4001 20.4223 33.3309 20.4178 33.2574C20.4133 33.1841 20.4382 33.1116 20.4869 33.056C20.5356 33.0005 20.6045 32.9665 20.6778 32.9601C22.1358 32.9098 23.2087 33.7967 24.2181 34.5223C25.7283 35.6909 27.0755 37.0085 28.4017 38.3549C33.0171 43.0782 37.5348 47.8969 41.9988 52.7579C42.0001 52.7594 42.0037 52.7634 42.0049 52.7648C43.6415 54.4701 46.1747 55.5742 48.5482 55.3256C48.5922 55.3212 48.6364 55.3162 48.6802 55.3109C51.2677 54.9768 53.647 53.014 55.1863 50.8195C58.7116 45.4171 62.2723 40.0375 65.8685 34.6808C65.8692 34.6796 65.8716 34.6761 65.8724 34.6749C66.8392 33.2178 67.768 31.6177 68.9302 30.1976C69.7502 29.2593 70.6022 28.1449 72.0738 27.922Z" fill="#B66A1F"/>
<path d="M59.5059 49.9137C59.5777 49.9061 59.6497 49.9263 59.7086 49.9664C59.9734 50.1474 60.2375 50.3297 60.5003 50.5131C62.635 52.0025 64.7035 53.5712 66.7059 55.2186C66.2548 55.4778 65.8188 55.7603 65.3995 56.0643C63.5494 54.4731 61.7576 52.8121 60.0247 51.0809C59.798 50.8545 59.5722 50.6267 59.3475 50.3978C59.2975 50.3469 59.2647 50.2795 59.2596 50.2074C59.2545 50.1353 59.2772 50.0646 59.3228 50.0101C59.3684 49.9558 59.4341 49.9214 59.5059 49.9137Z" fill="#B66A1F"/>
<path d="M40.9163 53.7311C40.9175 53.7324 40.9188 53.7339 40.92 53.7352L40.9139 53.7286C40.9146 53.7295 40.9155 53.7303 40.9163 53.7311Z" fill="#B66A1F"/>
<path d="M84.3505 23.1054C84.4172 23.1044 84.4856 23.1164 84.5444 23.1491C84.6033 23.1818 84.6476 23.2321 84.6687 23.2924C84.6896 23.3526 84.6863 23.4194 84.6606 23.4816C84.6349 23.5439 84.5885 23.5959 84.5356 23.6366C84.4558 23.6975 84.3754 23.7569 84.2946 23.8149C83.5673 24.3365 82.7982 24.7388 81.9875 25.0214C81.1768 25.304 80.3242 25.467 79.4301 25.5107C79.3308 25.5155 79.2309 25.5188 79.1306 25.5207C79.0639 25.5217 78.9953 25.51 78.9365 25.4772C78.8777 25.4445 78.8335 25.3942 78.8125 25.3339C78.7915 25.2736 78.7948 25.2067 78.8205 25.1444C78.8463 25.0822 78.8926 25.0303 78.9455 24.9897C79.0253 24.9288 79.1057 24.8694 79.1865 24.8114C79.9139 24.2898 80.6829 23.8875 81.4936 23.6049C82.3043 23.3223 83.1567 23.159 84.0507 23.1154C84.1501 23.1105 84.2502 23.1073 84.3505 23.1054Z" fill="#F5A031"/>
<path d="M80.5232 16.4484C80.5905 16.4512 80.6528 16.4765 80.6987 16.5209C80.7444 16.5653 80.7716 16.6264 80.7766 16.6935C80.7815 16.7607 80.7633 16.828 80.7343 16.8881C80.6904 16.9783 80.6453 17.0674 80.5991 17.1554C80.1833 17.9481 79.6766 18.6529 79.0791 19.2694C78.4815 19.886 77.7929 20.4145 77.0136 20.8549C76.9271 20.9038 76.8392 20.9515 76.7505 20.9982C76.6913 21.0291 76.6247 21.0492 76.5573 21.0463C76.4901 21.0435 76.4281 21.0184 76.3823 20.974C76.3365 20.9296 76.3093 20.8683 76.3044 20.8012C76.2995 20.734 76.3177 20.6669 76.3466 20.6069C76.3906 20.5166 76.4357 20.4273 76.4819 20.3393C76.8977 19.5466 77.4044 18.842 78.0019 18.2255C78.5995 17.609 79.2878 17.0804 80.0671 16.6401C80.1537 16.5911 80.2417 16.5433 80.3305 16.4965C80.3896 16.4657 80.456 16.4456 80.5232 16.4484Z" fill="#F5A031"/>
<path d="M73.4026 12.808C73.4629 12.7781 73.5295 12.7702 73.591 12.787C73.6525 12.8039 73.7057 12.8444 73.7424 12.9008C73.7791 12.9573 73.7957 13.025 73.7993 13.0917C73.8042 13.1919 73.8076 13.2917 73.8095 13.391C73.8272 14.286 73.7228 15.1476 73.4963 15.9757C73.2698 16.8039 72.9213 17.5989 72.4506 18.3603C72.3984 18.4448 72.3443 18.529 72.289 18.6127C72.2521 18.6683 72.2036 18.718 72.1433 18.748C72.083 18.7779 72.0164 18.7858 71.9548 18.769C71.8933 18.7521 71.8401 18.7116 71.8034 18.6552C71.7667 18.5987 71.7501 18.5309 71.7465 18.4643C71.7416 18.3641 71.7383 18.2643 71.7363 18.165C71.7186 17.27 71.823 16.4084 72.0495 15.5802C72.276 14.7521 72.6245 13.9571 73.0952 13.1957C73.1475 13.1112 73.2013 13.0268 73.2566 12.943C73.2935 12.8875 73.3422 12.838 73.4026 12.808Z" fill="#F5A031"/>
<path d="M74 80C80.6274 80 86 74.6274 86 68C86 61.3726 80.6274 56 74 56C67.3726 56 62 61.3726 62 68C62 74.6274 67.3726 80 74 80Z" fill="black"/>
<path fill-rule="evenodd" clip-rule="evenodd" d="M73.9998 60.7788C75.8407 60.7788 77.3332 62.2711 77.3333 64.1121V66.1121C78.2537 66.1121 79 66.8583 79 67.7788V72.4453C79 73.3658 78.2537 74.1121 77.3333 74.1121H70.6667C69.7463 74.1121 69 73.3658 69 72.4453V67.7788C69 66.8584 69.7461 66.1122 70.6665 66.1121V64.1121C70.6665 62.2712 72.1589 60.7789 73.9998 60.7788ZM74 67.7788C73.1716 67.7788 72.5 68.4504 72.5 69.2788C72.5 69.8676 72.8395 70.3768 73.3333 70.6223V71.6953C73.3333 72.0635 73.6318 72.3621 74 72.3621C74.3682 72.3621 74.6667 72.0635 74.6667 71.6953V70.6223C75.1605 70.3768 75.5 69.8676 75.5 69.2788C75.5 68.4504 74.8284 67.7788 74 67.7788ZM73.9998 62.7788C73.2634 62.7789 72.6665 63.3757 72.6665 64.1121V66.1121H75.3333V64.1121C75.3332 63.3757 74.7361 62.7788 73.9998 62.7788Z" fill="white"/>
</svg>
