<svg fill="none" viewBox="0 0 16 16" xmlns="http://www.w3.org/2000/svg">
  <g clip-path="url(#Shield-Check-Color-16_svg__a)">
    <path fill="url(#Shield-Check-Color-16_svg__b)" d="M1 9.5v-6l1.5-1H5l3-2 3 2h2.5l1.5 1v6L12 14l-2.695 1.01L6.667 15 4 14z"/>
    <path fill="url(#Shield-Check-Color-16_svg__c)" d="M15 9.5 12 14l-3 1H8V.5l3 2h2.5l1.5 1z"/>
    <path fill="url(#Shield-Check-Color-16_svg__d)" d="M6.23.58A2.876 2.876 0 0 1 9.963.8l.96.926c.289.28.705.382 1.091.271l.564-.16a2.625 2.625 0 0 1 3.348 2.448l.066 2.279a9 9 0 0 1-5.143 8.389l-1.562.74a3 3 0 0 1-2.422.065l-.154-.068-1.56-.744A9 9 0 0 1 .03 6.61l.055-2.284.008-.16a2.625 2.625 0 0 1 3.363-2.294l.416.123.143.032c.339.054.686-.05.942-.286L6.012.76zm3.04.94a1.876 1.876 0 0 0-2.436-.145l-.141.12-1.057.979a2.13 2.13 0 0 1-1.914.515l-.135-.035-.416-.124a1.625 1.625 0 0 0-2.086 1.519L1.03 6.633a8 8 0 0 0 4.554 7.41l1.558.745.208.085a2 2 0 0 0 1.51-.083l1.562-.74a8 8 0 0 0 4.57-7.457l-.064-2.28a1.625 1.625 0 0 0-2.073-1.516l-.563.162c-.73.21-1.517.014-2.063-.513z"/>
    <path fill="#288419" d="M10.752 5.863a.625.625 0 0 1 .895.874l-3.895 3.99a.925.925 0 0 1-1.222.09l-.072-.061-2.085-1.95-.044-.046a.625.625 0 0 1 .849-.908l.048.041L7.08 9.625z"/>
    <path fill="#fff" d="M10.752 5.263a.625.625 0 0 1 .895.874l-4.1 4.2a.625.625 0 0 1-.826.06l-.048-.04-2.3-2.15-.044-.047a.625.625 0 0 1 .849-.908l.048.041L7.08 9.026z"/>
  </g>
  <defs>
    <linearGradient id="Shield-Check-Color-16_svg__b" x1="8.004" x2="8.088" y1="1" y2="15.499" gradientUnits="userSpaceOnUse">
      <stop stop-color="#7BD66D"/>
      <stop offset="1" stop-color="#399F29"/>
    </linearGradient>
    <linearGradient id="Shield-Check-Color-16_svg__c" x1="11.5" x2="11.5" y1=".5" y2="16" gradientUnits="userSpaceOnUse">
      <stop stop-color="#69CC5B"/>
      <stop offset="1" stop-color="#399F29"/>
    </linearGradient>
    <linearGradient id="Shield-Check-Color-16_svg__d" x1="8" x2="8" y1="1" y2="15" gradientUnits="userSpaceOnUse">
      <stop offset=".008" stop-color="#399F29"/>
      <stop offset="1" stop-color="#288419"/>
    </linearGradient>
    <clipPath id="Shield-Check-Color-16_svg__a">
      <path fill="#fff" d="M0 0h16v16H0z"/>
    </clipPath>
  </defs>
</svg>
