<svg width="96" height="96" viewBox="0 0 96 96" fill="none" xmlns="http://www.w3.org/2000/svg">
<path d="M21.0819 33.9026C20.2336 36.3161 23.2329 37.7616 25.2768 36.2231C35.63 28.43 46.8253 29.8238 55.1149 41.5462C55.8736 42.6283 55.5108 44.023 54.3965 44.5849L50.2592 47.3592C48.5762 48.4877 48.6965 50.9977 50.4835 51.9528C56.2223 55.0196 66.753 60.6013 71.7443 62.9539C73.0846 63.5856 74.5156 62.859 74.8955 61.4269C76.3571 55.9176 79.5517 43.5135 81.4045 36.3029C81.969 34.106 79.7262 32.2509 77.6675 33.2028L75.0245 34.4249C73.9698 34.9524 72.592 34.517 71.8908 33.4692C58.0218 12.6372 28.2157 13.6057 21.0819 33.9026Z" fill="#FF8D5C"/>
<path d="M19.585 41.5457C35.6761 16.9424 62.5421 29.0087 55.5664 43.243C48.2136 27.689 29.9259 27.8774 19.585 41.5457Z" fill="#F05F2B"/>
<path d="M23.5537 27.5326C34.2782 12.6879 59.9346 14.1596 72.5134 33.0516C73.0351 33.8313 74.0185 34.0886 74.6882 33.7538L77.0278 32.5587C77.0388 32.5531 77.05 32.5479 77.0613 32.5428C80.0357 31.2047 83.1113 34.0947 82.3037 37.1371C81.755 39.2041 80.3467 44.1563 78.9172 49.2062C77.485 54.2659 76.0315 59.4239 75.386 61.9237C75.2824 62.3246 74.8734 62.5657 74.4724 62.4623C74.0713 62.3587 73.83 61.9495 73.9336 61.5484C74.5846 59.0275 76.044 53.8489 77.4739 48.7977C78.9065 43.7367 80.3094 38.8034 80.854 36.7521C81.3658 34.8239 79.4047 33.1446 77.688 33.9059L75.365 35.0924C75.3631 35.0933 75.361 35.0944 75.3591 35.0953C73.9195 35.8152 72.1474 35.2018 71.2668 33.8858L71.2658 33.8844C59.127 15.6511 34.757 14.6183 24.7832 28.392C23.4726 30.4822 22.7992 31.5956 22.0281 33.1495C21.8439 33.5205 21.3937 33.672 21.0227 33.4879C20.6517 33.3038 20.5002 32.8535 20.6843 32.4825C21.4936 30.8518 22.2034 29.6827 23.5261 27.5733L23.5537 27.5326Z" fill="#9E2B08"/>
<path d="M32.8235 31.3077C41.045 28.8635 50.0188 31.442 55.5002 40.6102C56.6673 42.5623 56.353 44.6621 54.7969 45.6463C53.6299 46.3844 52.7871 46.8452 51.405 47.756C50.3016 48.4831 50.1584 49.3698 50.1838 49.9349C50.2137 50.2842 50.3289 50.5797 50.6008 50.89C50.8956 51.2263 51.3894 51.5962 52.2112 52.0309C54.7828 53.3913 62.8888 57.7058 69.0412 60.7826C69.4116 60.9679 69.5616 61.4185 69.3764 61.7889C69.1912 62.1593 68.7408 62.3093 68.3703 62.1241C62.1987 59.0377 54.0738 54.7132 51.5097 53.3568C50.6196 52.8859 49.942 52.4141 49.4726 51.8785C48.9834 51.3202 48.7413 50.7162 48.6875 50.0428C48.6869 50.0352 48.6864 50.0275 48.686 50.0199C48.6388 49.0613 48.9228 47.5953 50.5796 46.5035C51.9486 45.6013 52.9337 45.05 53.9951 44.3788C54.6671 43.9537 55.0927 42.8517 54.2129 41.38C49.099 32.8267 40.8452 30.4878 33.2507 32.7457C32.1591 33.0702 31.243 33.5233 30.5996 33.8963C30.2788 34.0823 30.0282 34.247 29.8601 34.3634C29.7761 34.4215 29.7129 34.4676 29.6721 34.4979C29.6518 34.513 29.6369 34.5242 29.6279 34.5311C29.6235 34.5345 29.6202 34.5369 29.6186 34.5382H29.6181L29.6184 34.5384H29.6179L29.6181 34.5387L29.6174 34.5392C29.2925 34.7952 28.8215 34.7398 28.5649 34.4151C28.3081 34.0902 28.3632 33.6185 28.6882 33.3617L29.1343 33.9259C28.6883 33.3616 28.6885 33.3614 28.6885 33.3614L28.6887 33.3612L28.6894 33.3607C28.6899 33.3603 28.6907 33.3598 28.6914 33.3592C28.6928 33.3581 28.6948 33.3566 28.697 33.3548C28.7014 33.3514 28.7074 33.3466 28.7148 33.3409C28.7298 33.3295 28.7509 33.3136 28.7776 33.2938C28.8311 33.2541 28.9079 33.1981 29.0063 33.13C29.2032 32.9937 29.4877 32.8071 29.8471 32.5987C30.5645 32.1829 31.5906 31.6742 32.8235 31.3077Z" fill="#9E2B08"/>
<path d="M71.7225 25.7337C71.7884 25.7339 71.8532 25.7552 71.912 25.785C71.9861 25.8231 72.0591 25.8626 72.1307 25.9034C72.7759 26.2709 73.3187 26.744 73.7453 27.305C74.1718 27.8659 74.4823 28.5149 74.6647 29.2342C74.685 29.3142 74.7037 29.3952 74.7208 29.4769C74.7339 29.5414 74.7372 29.6095 74.7199 29.6729C74.7025 29.7364 74.6663 29.79 74.6151 29.8243C74.5639 29.8586 74.5005 29.8719 74.4352 29.8638C74.3699 29.8557 74.3083 29.8265 74.2536 29.7899C74.1851 29.7439 74.1179 29.6976 74.0519 29.6504C73.4579 29.2263 72.9612 28.7523 72.5512 28.2129C72.141 27.6736 71.8177 27.0687 71.567 26.3836C71.5392 26.3075 71.5118 26.2302 71.4857 26.1522C71.465 26.0896 71.4535 26.0224 71.463 25.9573C71.4726 25.8922 71.5023 25.8347 71.549 25.7945C71.5956 25.7543 71.6568 25.7336 71.7225 25.7337Z" fill="#CC3B0A"/>
<path d="M40.9257 14.4319C45.6685 13.1634 50.7776 13.3902 55.5075 14.7274C60.2459 16.0678 64.6636 18.5539 68.193 21.929C68.5858 22.3043 68.9658 22.6886 69.3361 23.085C69.3855 23.1381 69.415 23.2079 69.4159 23.2811C69.4169 23.3543 69.3895 23.4247 69.3395 23.4771C69.2895 23.5295 69.2205 23.5601 69.1474 23.5626C69.0742 23.5651 69.0032 23.5389 68.9479 23.492C68.5415 23.1475 68.1299 22.8148 67.7099 22.4903C63.9344 19.577 59.6299 17.4566 55.0988 16.1705C50.5714 14.8963 45.7802 14.4201 41.0807 15.1561C40.5593 15.239 40.0383 15.3379 39.5233 15.4529C39.4525 15.4688 39.3775 15.4591 39.3139 15.4229C39.2503 15.3868 39.2035 15.3277 39.1835 15.2581C39.1635 15.1885 39.1719 15.1135 39.2067 15.0491C39.2415 14.9847 39.3001 14.9365 39.3685 14.9124C39.8789 14.7337 40.4002 14.5733 40.9257 14.4319Z" fill="#CC3B0A"/>
<path d="M75.1794 61.7677C76.0901 59.3369 73.0702 57.816 70.9681 59.3388C60.3781 67.0101 49.0736 65.3376 40.9517 53.396C40.2075 52.2922 40.5995 50.8873 41.733 50.3339L45.75 48.25C47.7502 47.2859 46.9544 43.4289 45 42.375C38.7376 38.9979 29.4553 33.971 24.3661 31.5238C23.0168 30.875 21.5599 31.5874 21.1509 33.0276C19.5722 38.5856 16.1073 51.1304 14.106 58.3916C13.498 60.5978 15.719 62.5135 17.8187 61.6032L20.7519 60.3316C21.8247 59.8124 23.2051 60.2706 23.892 61.339C37.4642 82.5599 67.5576 82.1119 75.1794 61.7677Z" fill="#75B6EB"/>
<path d="M23.8788 61.1504C23.8788 61.1504 50.2904 87.263 74.9882 62.1885C68.2007 80.8529 38.5276 84.8519 23.8788 61.1504Z" fill="#4397E0"/>
<path fill-rule="evenodd" clip-rule="evenodd" d="M20.3197 33.1699C20.9101 31.1216 23.051 30.0507 25.025 31.009C30.0863 33.4663 39.3405 38.7226 45.5116 42.0474C46.9054 42.7984 47.5801 44.2691 47.5877 45.666C47.5953 47.0593 46.9369 48.5198 45.5011 49.2224L42.0787 50.9995L42.0706 51.0037L42.0623 51.0078C41.3448 51.3581 41.0801 52.2444 41.5738 52.9766C46.7333 60.6288 52.2838 63.6078 58.19 63.4731C62.2517 63.3805 66.1499 61.6614 69.5081 59.1936C70.9607 58.1263 72.782 58.2047 74.0675 58.9568C74.7155 59.3359 75.2599 59.9046 75.5455 60.6248C75.8359 61.3571 75.8369 62.1939 75.4781 63.0437C71.497 72.471 62.7113 77.6233 53.1739 78.168C43.6392 78.7124 33.3188 74.6616 26.1551 65.675L26.1461 65.6638L26.1375 65.6523L23.2882 61.7837L23.2743 61.7644L23.2613 61.7444C22.7507 60.9501 21.7641 60.675 21.0787 61.0066L21.0618 61.0146L21.0448 61.022L18.6246 62.0474C15.662 63.3027 12.555 60.5811 13.4293 57.4778C15.4542 50.2902 18.7239 38.706 20.3197 33.1699ZM24.37 32.3584C23.289 31.8336 22.1112 32.3707 21.7611 33.5854C20.1669 39.1162 16.8985 50.6954 14.8731 57.8845C14.3418 59.7705 16.2293 61.4332 18.0394 60.6663L20.4464 59.6462C21.8916 58.9611 23.6368 59.588 24.5028 60.9033L27.3353 64.749C34.1907 73.3429 44.0354 77.1874 53.0885 76.6704C62.1421 76.1534 70.3698 71.2846 74.0963 62.4602C74.31 61.9542 74.2892 61.5258 74.1512 61.1777C74.0083 60.8174 73.7171 60.4897 73.3099 60.2515C72.4847 59.7687 71.316 59.7266 70.3963 60.4023C66.8759 62.9893 62.6854 64.8711 58.2242 64.9729C51.6599 65.1226 45.6817 61.7523 40.3302 53.8152C39.3381 52.3437 39.852 50.4266 41.3919 49.666L44.8101 47.8914L44.8202 47.8862L44.8302 47.8813C45.6489 47.4867 46.0929 46.6272 46.0877 45.6743C46.0825 44.7187 45.6231 43.8114 44.8001 43.3679C38.5649 40.0086 29.3955 34.7983 24.37 32.3584Z" fill="#045EB2"/>
<path d="M28.0417 73.7019C28.1147 73.701 28.185 73.7284 28.2395 73.7759C28.5926 74.0843 28.952 74.3823 29.3186 74.6712C32.6184 77.2707 36.4313 79.0781 40.4292 80.1751C44.4305 81.2688 48.6289 81.6697 52.8254 81.3442C53.2915 81.3077 53.7582 81.2617 54.2238 81.2066C54.2957 81.198 54.3694 81.2153 54.4292 81.2573C54.4888 81.2993 54.5297 81.3623 54.5429 81.4331C54.5561 81.504 54.541 81.5777 54.5005 81.6384C54.4599 81.6992 54.3972 81.7416 54.3271 81.7595C53.8644 81.8777 53.3972 81.9839 52.9277 82.0776C48.6994 82.9221 44.2353 82.7739 40.0324 81.6216C35.8332 80.4753 31.8812 78.2917 28.8259 75.2241C28.4864 74.884 28.1588 74.5343 27.8422 74.1741C27.7946 74.1197 27.7667 74.0493 27.7675 73.9763C27.7684 73.9034 27.7972 73.8338 27.8481 73.7827C27.8991 73.7317 27.9687 73.7029 28.0417 73.7019Z" fill="#1074CC"/>
<path d="M23.5249 68.2952C23.5869 68.2977 23.6494 68.317 23.7099 68.3406C23.7648 68.3623 23.8184 68.3848 23.8708 68.408C24.3422 68.6168 24.713 68.8893 24.9912 69.2359C25.2694 69.5824 25.455 70.003 25.5573 70.5081C25.5687 70.5642 25.579 70.6215 25.5883 70.6797C25.5984 70.7438 25.6039 70.8091 25.593 70.8701C25.582 70.9313 25.555 70.9838 25.5127 71.0208C25.4703 71.0577 25.4145 71.077 25.3525 71.0796C25.2906 71.0821 25.2267 71.0679 25.1645 71.0493C25.1076 71.0316 25.0518 71.0128 24.9973 70.9927C24.5061 70.8119 24.1111 70.5353 23.8215 70.1746C23.532 69.8139 23.3477 69.3689 23.2771 68.8506C23.2692 68.793 23.2628 68.7344 23.2578 68.6751C23.253 68.6103 23.2527 68.5446 23.2685 68.4846C23.2844 68.4246 23.3153 68.3745 23.3606 68.3411C23.4058 68.3076 23.4628 68.2927 23.5249 68.2952Z" fill="#1074CC"/>
</svg>
