<svg width="96" height="96" viewBox="0 0 96 96" fill="none" xmlns="http://www.w3.org/2000/svg">
<path d="M45.0364 25.9939C53.4851 24.9041 61.7788 24.2584 69.8225 24.0264C72.7762 23.9412 75.4421 25.8046 76.2662 28.6422C77.6608 33.4438 78.7353 38.5588 79.424 43.8982C80.1121 49.2334 80.3709 54.4496 80.2411 59.4444C80.1644 62.3986 78.0585 64.8778 75.1796 65.545C67.3393 67.3621 59.1521 68.8424 50.7022 69.9323C42.2596 71.0213 33.9718 71.6667 25.9336 71.899C22.9795 71.9844 20.3132 70.1207 19.4892 67.2826C18.096 62.4836 17.0226 57.3717 16.3343 52.0357C15.6455 46.6956 15.3868 41.4748 15.5174 36.4758C15.5946 33.5218 17.7007 31.043 20.5795 30.3761C28.4135 28.5613 36.5938 27.0828 45.0364 25.9939Z" fill="#F05F2B"/>
<path d="M41.1156 43.7072C40.9488 42.4136 42.2219 41.4096 43.441 41.8734L53.5141 45.7056C54.8018 46.1955 55.0246 47.9226 53.9033 48.7233L45.1323 54.9861C44.0708 55.744 42.5846 55.0959 42.4177 53.8023L41.1156 43.7072Z" fill="#671907"/>
<path d="M34.4485 23.4438C34.5263 23.4401 34.6051 23.4612 34.6687 23.5082C34.7322 23.5552 34.7752 23.6237 34.7883 23.6999C34.8014 23.7761 34.7839 23.855 34.7397 23.9206C34.6955 23.9862 34.628 24.0325 34.5534 24.0551C34.3116 24.128 34.0699 24.1998 33.8279 24.2704C31.6504 24.9059 29.4629 25.4466 27.2571 25.8949C25.051 26.3433 22.8334 26.7333 20.5974 27.0668C20.349 27.1038 20.1 27.1401 19.8513 27.1757C19.7409 27.1914 19.6263 27.1698 19.5312 27.1088C19.4362 27.0479 19.3687 26.9537 19.3432 26.8456C19.3178 26.7375 19.3361 26.6228 19.394 26.5258C19.4519 26.4288 19.5448 26.3583 19.6506 26.3232C19.89 26.2438 20.1301 26.1657 20.3703 26.0893C22.5335 25.4009 24.7291 24.8305 26.949 24.3793C29.1687 23.9281 31.4198 23.6301 33.6907 23.4862C33.943 23.4702 34.1955 23.456 34.4485 23.4438Z" fill="#CC3B0A"/>
<path d="M33.7656 60.6808C33.8402 60.6872 33.9025 60.7156 33.9394 60.7612C33.9763 60.8067 33.9854 60.8667 33.966 60.9286C33.9466 60.9906 33.8995 61.0494 33.8391 61.0964C33.6736 61.2248 33.507 61.3523 33.3398 61.4787C31.8349 62.6163 30.2621 63.6701 28.6213 64.6398C26.9805 65.6095 25.2717 66.4953 23.4951 67.2971C23.2977 67.3861 23.0994 67.474 22.9004 67.561C22.8276 67.5927 22.7469 67.6095 22.6721 67.6032C22.5974 67.5969 22.5352 67.5685 22.4983 67.5229C22.4615 67.4773 22.452 67.4175 22.4714 67.3556C22.4909 67.2936 22.5379 67.2347 22.5984 67.1877C22.7639 67.0592 22.9307 66.9318 23.0979 66.8054C24.6027 65.6678 26.1754 64.6141 27.8161 63.6445C29.4569 62.6748 31.1657 61.789 32.9424 60.9872C33.1397 60.8982 33.3383 60.8101 33.5373 60.7231C33.6101 60.6914 33.6909 60.6745 33.7656 60.6808Z" fill="#9E2B08"/>
<path d="M30.7524 56.8254C30.828 56.8328 30.8906 56.8635 30.9267 56.9113C30.9629 56.9592 30.9701 57.0212 30.9475 57.0842C30.9249 57.1472 30.8739 57.2057 30.8083 57.2502C30.6917 57.3292 30.5746 57.4079 30.4572 57.486C29.4013 58.189 28.3172 58.8549 27.205 59.4833C26.0929 60.1118 24.9525 60.703 23.7842 61.257C23.6544 61.3185 23.5242 61.3795 23.3938 61.4401C23.3203 61.4742 23.2378 61.4912 23.1621 61.4838C23.0864 61.4764 23.0236 61.4455 22.9875 61.3976C22.9515 61.3498 22.9442 61.2879 22.9668 61.225C22.9894 61.162 23.0406 61.1033 23.1062 61.0588C23.2228 60.9798 23.34 60.901 23.4572 60.8229C24.5132 60.12 25.5971 59.4543 26.7092 58.8259C27.8214 58.1974 28.9618 57.6059 30.1301 57.0519C30.2599 56.9904 30.3902 56.9295 30.5207 56.8688C30.5942 56.8348 30.6767 56.8179 30.7524 56.8254Z" fill="#9E2B08"/>
<path d="M28.2837 52.7538C28.3573 52.7588 28.4195 52.7851 28.4572 52.8281C28.495 52.8711 28.5063 52.9287 28.4904 52.9894C28.4745 53.0503 28.432 53.1089 28.3774 53.1584C28.328 53.203 28.2782 53.2475 28.228 53.2912C27.7759 53.6849 27.2917 54.0425 26.7759 54.3637C26.2601 54.6849 25.7122 54.9696 25.1328 55.2182C25.0685 55.2458 25.0038 55.273 24.9387 55.2997C24.8665 55.3292 24.7873 55.3463 24.7136 55.3412C24.64 55.3362 24.578 55.31 24.5403 55.267C24.5026 55.224 24.4911 55.1664 24.5071 55.1056C24.523 55.0448 24.5655 54.9862 24.6201 54.9367C24.6695 54.8921 24.7193 54.8479 24.7695 54.8041C25.2216 54.4104 25.7056 54.0528 26.2214 53.7316C26.7372 53.4105 27.285 53.1255 27.8645 52.8769C27.9288 52.8493 27.9937 52.8223 28.0588 52.7956C28.1309 52.7662 28.21 52.7489 28.2837 52.7538Z" fill="#9E2B08"/>
<path fill-rule="evenodd" clip-rule="evenodd" d="M69.8005 23.2765C73.0811 23.182 76.0626 25.2534 76.9861 28.4328C78.3916 33.2721 79.4739 38.4251 80.1674 43.8022C80.8604 49.175 81.1213 54.4298 80.9904 59.4638C80.9044 62.7738 78.5461 65.5345 75.3486 66.2756C67.4838 68.0983 59.2721 69.5829 50.7978 70.676C42.3308 71.7681 34.0182 72.4153 25.9548 72.6484C22.6737 72.7432 19.6918 70.6714 18.7685 67.4914C17.3644 62.6548 16.2832 57.5051 15.5901 52.1315C14.8964 46.7538 14.6357 41.4942 14.7673 36.456C14.8538 33.1461 17.2125 30.3859 20.4099 29.6452C28.2684 27.8247 36.4733 26.342 44.9402 25.2499C53.4132 24.1571 61.7317 23.5092 69.8005 23.2765ZM69.8437 24.7761C61.8252 25.0073 53.5563 25.6509 45.1321 26.7375C36.7139 27.8233 28.5579 29.2975 20.7483 31.1066C18.1883 31.6997 16.3348 33.8971 16.2668 36.4951C16.1372 41.4548 16.3939 46.6372 17.0779 51.9396C17.7612 57.2379 18.8269 62.3119 20.2092 67.0732C20.9339 69.5693 23.2846 71.225 25.9116 71.1491C33.9247 70.9175 42.1877 70.2742 50.6059 69.1884C59.0314 68.1017 67.1942 66.6256 75.01 64.8141C77.5701 64.2208 79.4234 62.0229 79.4909 59.4247C79.6197 54.4692 79.3629 49.2916 78.6797 43.9941C77.9958 38.6923 76.929 33.615 75.5454 28.851C74.8204 26.3554 72.4703 24.7003 69.8437 24.7761Z" fill="#9E2B08"/>
<path d="M24.7432 41.9946C25.0859 42.0035 25.4177 42.1328 25.6548 42.3642C26.0663 42.7665 26.4777 43.1689 26.8892 43.5712L46.8877 63.1245C50.257 62.6849 53.4214 64.9516 54.0545 68.3325C54.7099 71.8329 52.4033 75.202 48.9029 75.8574C45.4025 76.5127 42.0336 74.2064 41.3782 70.706C41.1799 69.6471 41.253 68.6003 41.5479 67.6369C35.9296 60.2621 30.3111 52.8872 24.6929 45.5124C24.3442 45.0546 23.9955 44.5969 23.6468 44.1391C23.4463 43.8754 23.3584 43.5303 23.3916 43.1892C23.4255 42.8474 23.5778 42.5375 23.8257 42.3183C24.0737 42.0992 24.3999 41.9862 24.7432 41.9946Z" fill="#290E0A"/>
</svg>
