<svg fill="none" viewBox="0 0 24 24" xmlns="http://www.w3.org/2000/svg">
  <g clip-path="url(#A_svg__a)">
    <path fill="#DF5A33" d="M24 12c0 6.627-5.373 12-12 12S0 18.627 0 12 5.373 0 12 0s12 5.373 12 12Z"/>
    <path fill="#000" fill-opacity=".12" fill-rule="evenodd" d="M12 23.5c6.351 0 11.5-5.149 11.5-11.5S18.351.5 12 .5.5 5.649.5 12 5.649 23.5 12 23.5Zm0 .5c6.627 0 12-5.373 12-12S18.627 0 12 0 0 5.373 0 12s5.373 12 12 12Z" clip-rule="evenodd"/>
    <path fill="#fff" d="m14.81 18.5-.651-2.475h-4.29l-.67 2.475H5.28L9.59 5.24h4.76l4.363 13.26H14.81Zm-1.392-5.402-.569-2.168a93.21 93.21 0 0 1-.488-1.87 32.3 32.3 0 0 1-.37-1.644c-.054.307-.163.813-.325 1.518-.157.704-.51 2.093-1.057 4.164h2.81Z"/>
  </g>
  <defs>
    <clipPath id="A_svg__a">
      <path fill="#fff" d="M0 0h24v24H0z"/>
    </clipPath>
  </defs>
</svg>
