<svg fill="none" viewBox="0 0 24 24" xmlns="http://www.w3.org/2000/svg">
  <g clip-path="url(#Akamai_svg__a)">
    <path fill="#000" d="M24 12c0 6.627-5.373 12-12 12S0 18.627 0 12 5.373 0 12 0s12 5.373 12 12Z"/>
    <path fill="#fff" fill-opacity=".12" fill-rule="evenodd" d="M24 12c0 6.627-5.373 12-12 12S0 18.627 0 12 5.373 0 12 0s12 5.373 12 12ZM12 23.5c6.351 0 11.5-5.149 11.5-11.5S18.351.5 12 .5.5 5.649.5 12 5.649 23.5 12 23.5Z" clip-rule="evenodd"/>
    <path fill="#009BDE" d="M12.5 19.646a7.997 7.997 0 0 1-5.607-7.641c0-3.644 2.412-6.714 5.71-7.68.34-.095.245-.325-.16-.325C8.062 4 4.5 7.586 4.5 12.005 4.5 16.423 8.052 20 12.443 20c.405 0 .424-.24.056-.354Z"/>
    <path fill="#009BDE" d="M8.4 13.87a7.306 7.306 0 0 1-.037-.65c0-3.51 2.798-6.35 6.256-6.35 3.27 0 4.25 1.481 4.372 1.386.132-.105-1.187-3.041-5.022-3.041-3.458 0-6.256 2.84-6.256 6.35 0 .813.15 1.587.424 2.295.113.306.292.306.264.01Z"/>
    <path fill="#009BDE" d="M11.02 9.298c1.62-.717 3.665-.736 5.672-.028 1.348.478 2.13 1.157 2.195 1.128.104-.048-.782-1.482-2.393-2.094a5.66 5.66 0 0 0-5.568.86c-.17.134-.104.22.094.134Z"/>
  </g>
  <defs>
    <clipPath id="Akamai_svg__a">
      <path fill="#fff" d="M0 0h24v24H0z"/>
    </clipPath>
  </defs>
</svg>
