<svg fill="none" viewBox="0 0 24 24" xmlns="http://www.w3.org/2000/svg">
  <g clip-path="url(#Hotjar_svg__a)">
    <path fill="#202641" d="M24 12c0 6.627-5.373 12-12 12S0 18.627 0 12 5.373 0 12 0s12 5.373 12 12Z"/>
    <path fill="#fff" fill-opacity=".12" fill-rule="evenodd" d="M24 12c0 6.627-5.373 12-12 12S0 18.627 0 12 5.373 0 12 0s12 5.373 12 12ZM12 23.5c6.351 0 11.5-5.149 11.5-11.5S18.351.5 12 .5.5 5.649.5 12 5.649 23.5 12 23.5Z" clip-rule="evenodd"/>
    <path fill="#FF3C00" d="M10.77 10.33c1.817-1.009 4.306-2.392 4.306-6.417h-3.014c0 2.252-1.096 2.861-2.756 3.783C7.49 8.706 5 10.09 5 14.114h3.014c0-2.252 1.096-2.861 2.756-3.783Zm5.216-.924c0 2.252-1.096 2.861-2.756 3.783-1.817 1.01-4.306 2.393-4.306 6.418h3.014c0-2.252 1.096-2.861 2.756-3.783C16.51 14.814 19 13.43 19 9.406h-3.014Z"/>
  </g>
  <defs>
    <clipPath id="Hotjar_svg__a">
      <path fill="#fff" d="M0 0h24v24H0z"/>
    </clipPath>
  </defs>
</svg>
