<svg fill="none" viewBox="0 0 24 24" xmlns="http://www.w3.org/2000/svg">
  <g clip-path="url(#Improve-Digital_svg__a)">
    <path fill="#fff" d="M24 12c0 6.627-5.373 12-12 12S0 18.627 0 12 5.373 0 12 0s12 5.373 12 12Z"/>
    <path fill="#000" fill-opacity=".12" fill-rule="evenodd" d="M24 12c0 6.627-5.373 12-12 12S0 18.627 0 12 5.373 0 12 0s12 5.373 12 12ZM12 23.5c6.351 0 11.5-5.149 11.5-11.5S18.351.5 12 .5.5 5.649.5 12 5.649 23.5 12 23.5Z" clip-rule="evenodd"/>
    <path fill="#005BBB" d="M19.914 13.197c0-.056.02-.113.02-.188a7.737 7.737 0 0 0 .018-1.869h-3.34v2.057h3.302Zm-3.303-5.68h-3.604v3.623h3.604V7.517Zm-3.604 3.623H9.402V7.517h3.605V4.063c-4.38-.548-8.4 2.548-8.947 6.926a7.846 7.846 0 0 0 .038 2.208h8.909V11.14Z"/>
    <path fill="#FFD500" d="M16.611 13.197v1.548h-3.604v-1.547H4.098c.529 3.453 3.265 6.284 6.889 6.737 4.322.548 8.286-2.472 8.927-6.737h-3.303Z"/>
  </g>
  <defs>
    <clipPath id="Improve-Digital_svg__a">
      <path fill="#fff" d="M0 0h24v24H0z"/>
    </clipPath>
  </defs>
</svg>
