<svg fill="none" viewBox="0 0 24 24" xmlns="http://www.w3.org/2000/svg">
  <g clip-path="url(#LoopMe-Ltd_svg__a)">
    <path fill="#E40D1B" d="M24 12c0 6.627-5.373 12-12 12S0 18.627 0 12 5.373 0 12 0s12 5.373 12 12Z"/>
    <path fill="#000" fill-opacity=".12" fill-rule="evenodd" d="M24 12c0 6.627-5.373 12-12 12S0 18.627 0 12 5.373 0 12 0s12 5.373 12 12ZM12 23.5c6.351 0 11.5-5.149 11.5-11.5S18.351.5 12 .5.5 5.649.5 12 5.649 23.5 12 23.5Z" clip-rule="evenodd"/>
    <path fill="#fff" fill-rule="evenodd" d="m16.037 19.26-.21-1.476c-.812-.179-1.493-.604-2.087-1.3.948-.83 1.608-1.83 2.072-2.958.883-2.147 1.13-4.391.97-6.692-.083-1.199-.416-2.262-1.647-2.834h-1.027c-1.664.835-2.192 2.425-2.576 4.065-.595 2.536-.524 5.082.128 7.602.085.327.033.47-.248.638-2.033 1.22-3.934 1.001-5.616-.67a11.396 11.396 0 0 1-.286-.295l-.163-.17c-.603-.622-.663-.623-1.32.04a1.316 1.316 0 0 0-.002.522c.937 1.45 2.184 2.443 3.83 2.83 1.647.389 3.183-.03 4.601-.909.773.814 1.697 1.261 2.739 1.478.281.058.562.101.842.13ZM15.033 6.896c.007.05.014.101.023.15.21 2.296-.072 4.423-.973 6.44-.173.388-.402.75-.63 1.113a18.8 18.8 0 0 0-.31.501l-.183-.036a47.66 47.66 0 0 0-.092-.692c-.07-.507-.14-1.014-.175-1.524-.118-1.78.018-3.538.646-5.224.162-.434.38-.857.637-1.241.091-.135.25-.224.41-.312.072-.04.144-.08.21-.124.036.062.075.123.113.184.09.143.18.287.248.44.045.1.06.212.076.325Z" clip-rule="evenodd"/>
  </g>
  <defs>
    <clipPath id="LoopMe-Ltd_svg__a">
      <path fill="#fff" d="M0 0h24v24H0z"/>
    </clipPath>
  </defs>
</svg>
