<svg fill="none" viewBox="0 0 24 24" xmlns="http://www.w3.org/2000/svg">
  <g clip-path="url(#Mediavine_svg__a)">
    <path fill="#41A489" d="M24 12c0 6.627-5.373 12-12 12S0 18.627 0 12 5.373 0 12 0s12 5.373 12 12Z"/>
    <path fill="#fff" fill-opacity=".12" fill-rule="evenodd" d="M24 12c0 6.627-5.373 12-12 12S0 18.627 0 12 5.373 0 12 0s12 5.373 12 12ZM12 23.5c6.351 0 11.5-5.149 11.5-11.5S18.351.5 12 .5.5 5.649.5 12 5.649 23.5 12 23.5Z" clip-rule="evenodd"/>
    <path fill="#fff" d="m17.334 11.843-.115-.227c-.03-.06-.742-1.497-.18-2.626.56-1.129 2.133-1.431 2.2-1.443l.25-.047.115.227c.03.06.742 1.497.181 2.627-.56 1.128-2.133 1.43-2.2 1.443l-.25.046Zm1.768-3.561c-.403.12-1.16.416-1.454 1.01-.278.559-.095 1.326.073 1.77.402-.12 1.16-.417 1.455-1.011.296-.594.074-1.376-.074-1.769ZM7.897 10.816A3.484 3.484 0 0 0 4.5 7.5v6.964h.004a3.484 3.484 0 0 0 3.397 3.316v-6.964h-.004Zm3.996 0A3.484 3.484 0 0 0 8.496 7.5v6.964H8.5a3.484 3.484 0 0 0 3.398 3.316v-6.964h-.005Zm3.997 0A3.484 3.484 0 0 0 12.493 7.5v6.964h.004a3.484 3.484 0 0 0 3.397 3.316v-6.964h-.004Z"/>
  </g>
  <defs>
    <clipPath id="Mediavine_svg__a">
      <path fill="#fff" d="M0 0h24v24H0z"/>
    </clipPath>
  </defs>
</svg>
