<svg fill="none" viewBox="0 0 24 24" xmlns="http://www.w3.org/2000/svg">
  <g clip-path="url(#N_svg__a)">
    <path fill="#4AB151" d="M24 12c0 6.627-5.373 12-12 12S0 18.627 0 12 5.373 0 12 0s12 5.373 12 12Z"/>
    <path fill="#000" fill-opacity=".12" fill-rule="evenodd" d="M12 23.5c6.351 0 11.5-5.149 11.5-11.5S18.351.5 12 .5.5 5.649.5 12 5.649 23.5 12 23.5Zm0 .5c6.627 0 12-5.373 12-12S18.627 0 12 0 0 5.373 0 12s5.373 12 12 12Z" clip-rule="evenodd"/>
    <path fill="#fff" d="M18.287 18.5h-4.68L8.785 9.196h-.081c.114 1.463.172 2.58.172 3.351V18.5H5.713V5.293h4.661l4.806 9.178h.054c-.084-1.33-.127-2.4-.127-3.207v-5.97h3.18V18.5Z"/>
  </g>
  <defs>
    <clipPath id="N_svg__a">
      <path fill="#fff" d="M0 0h24v24H0z"/>
    </clipPath>
  </defs>
</svg>
