<svg fill="none" viewBox="0 0 24 24" xmlns="http://www.w3.org/2000/svg">
  <g clip-path="url(#Opera-Software_svg__a)">
    <path fill="#fff" d="M24 12c0 6.627-5.373 12-12 12S0 18.627 0 12 5.373 0 12 0s12 5.373 12 12Z"/>
    <path fill="#000" fill-opacity=".12" fill-rule="evenodd" d="M24 12c0 6.627-5.373 12-12 12S0 18.627 0 12 5.373 0 12 0s12 5.373 12 12ZM12 23.5c6.351 0 11.5-5.149 11.5-11.5S18.351.5 12 .5.5 5.649.5 12 5.649 23.5 12 23.5Z" clip-rule="evenodd"/>
    <path fill="url(#Opera-Software_svg__b)" d="M9.367 16.508c-.885-1.044-1.458-2.588-1.497-4.32v-.377c.039-1.732.612-3.275 1.497-4.32 1.147-1.49 2.853-2.435 4.758-2.435a5.77 5.77 0 0 1 3.206.98 7.967 7.967 0 0 0-5.301-2.035L12 4a8 8 0 1 0 5.331 13.964 5.772 5.772 0 0 1-3.206.98c-1.905 0-3.61-.946-4.758-2.436Z"/>
    <path fill="url(#Opera-Software_svg__c)" d="M9.367 7.492c.733-.867 1.682-1.39 2.718-1.39 2.328 0 4.216 2.641 4.216 5.898 0 3.257-1.887 5.897-4.216 5.897-1.036 0-1.985-.523-2.718-1.39 1.147 1.491 2.853 2.436 4.758 2.436a5.772 5.772 0 0 0 3.206-.98A7.978 7.978 0 0 0 20 12a7.98 7.98 0 0 0-2.668-5.963 5.773 5.773 0 0 0-3.207-.98c-1.905 0-3.611.944-4.758 2.434Z"/>
  </g>
  <defs>
    <linearGradient id="Opera-Software_svg__b" x1="12" x2="12" y1="4.261" y2="19.767" gradientUnits="userSpaceOnUse">
      <stop offset=".3" stop-color="#FF1B2D"/>
      <stop offset=".438" stop-color="#FA1A2C"/>
      <stop offset=".594" stop-color="#ED1528"/>
      <stop offset=".758" stop-color="#D60E21"/>
      <stop offset=".927" stop-color="#B70519"/>
      <stop offset="1" stop-color="#A70014"/>
    </linearGradient>
    <linearGradient id="Opera-Software_svg__c" x1="14.683" x2="14.683" y1="5.175" y2="18.889" gradientUnits="userSpaceOnUse">
      <stop stop-color="#9C0000"/>
      <stop offset=".7" stop-color="#FF4B4B"/>
    </linearGradient>
    <clipPath id="Opera-Software_svg__a">
      <path fill="#fff" d="M0 0h24v24H0z"/>
    </clipPath>
  </defs>
</svg>
