<svg fill="none" viewBox="0 0 24 24" xmlns="http://www.w3.org/2000/svg">
  <g clip-path="url(#Youtube_svg__a)">
    <path fill="#fff" d="M24 12c0 6.627-5.373 12-12 12S0 18.627 0 12 5.373 0 12 0s12 5.373 12 12Z"/>
    <path fill="#000" fill-opacity=".12" fill-rule="evenodd" d="M24 12c0 6.627-5.373 12-12 12S0 18.627 0 12 5.373 0 12 0s12 5.373 12 12ZM12 23.5c6.351 0 11.5-5.149 11.5-11.5S18.351.5 12 .5.5 5.649.5 12 5.649 23.5 12 23.5Z" clip-rule="evenodd"/>
    <path fill="red" fill-rule="evenodd" d="M18.232 6.835a2.002 2.002 0 0 1 1.413 1.414c.488 1.966.456 5.683.01 7.68a2.002 2.002 0 0 1-1.413 1.414c-1.946.481-10.661.422-12.494 0a2.002 2.002 0 0 1-1.414-1.413c-.46-1.875-.428-5.838-.01-7.671a2.002 2.002 0 0 1 1.413-1.414c2.602-.542 11.569-.367 12.495-.01Zm-7.784 2.858 4.179 2.396-4.179 2.396V9.694Z" clip-rule="evenodd"/>
  </g>
  <defs>
    <clipPath id="Youtube_svg__a">
      <path fill="#fff" d="M0 0h24v24H0z"/>
    </clipPath>
  </defs>
</svg>
