<svg fill="none" viewBox="0 0 128 96" xmlns="http://www.w3.org/2000/svg">
  <title>Bring stuff</title>
  <path fill="#888" d="m105.629 38.2 1.542-.4a.875.875 0 0 0 .629-.629l.4-1.543A.84.84 0 0 1 109 35c.4 0 .743.286.8.628l.4 1.543a.875.875 0 0 0 .629.629l1.542.4c.4.114.629.457.629.8 0 .4-.286.743-.629.8l-1.542.4a.875.875 0 0 0-.629.628l-.4 1.543a.84.84 0 0 1-.8.629c-.4 0-.743-.286-.8-.629l-.4-1.543a.875.875 0 0 0-.629-.628l-1.542-.4A.842.842 0 0 1 105 39c0-.4.286-.743.629-.8m-89.686-6.4 2.314-.6c.429-.086.857-.514.943-.943l.6-2.314c.171-.6.686-.943 1.2-.943.6 0 1.114.428 1.2.943l.6 2.314c.086.429.514.857.943.943l2.314.6c.6.171.943.686.943 1.2 0 .6-.429 1.114-.943 1.2l-2.314.6c-.429.086-.857.514-.943.943l-.6 2.314c-.171.6-.686.943-1.2.943-.6 0-1.114-.429-1.2-.943l-.6-2.314c-.086-.429-.514-.857-.943-.943l-2.314-.6c-.6-.172-.943-.686-.943-1.2 0-.6.429-1.114.943-1.2ZM.629 53.2l1.542-.4a.876.876 0 0 0 .629-.629l.4-1.543A.841.841 0 0 1 4 50c.4 0 .743.286.8.628l.4 1.543a.876.876 0 0 0 .629.629l1.542.4c.4.114.629.457.629.8 0 .4-.286.743-.629.8l-1.542.4a.875.875 0 0 0-.629.628l-.4 1.543A.841.841 0 0 1 4 58c-.4 0-.743-.286-.8-.629l-.4-1.543a.875.875 0 0 0-.629-.628L.63 54.8A.841.841 0 0 1 0 54c0-.4.286-.743.629-.8ZM126.5 52c-.825 0-1.5-.675-1.5-1.5s.675-1.5 1.5-1.5 1.5.675 1.5 1.5-.675 1.5-1.5 1.5M23 70c-1.1 0-2-.9-2-2s.9-2 2-2 2 .9 2 2-.9 2-2 2" opacity=".2"/>
  <path fill="#888" fill-rule="evenodd" d="M76.5 40h-25V26a8 8 0 0 1 8-8h9a8 8 0 0 1 8 8zm-17-17a3 3 0 0 0-3 3v9h15v-9a3 3 0 0 0-3-3z" clip-rule="evenodd"/>
  <path fill="#C18010" d="M86 50c-11.046 0-20 8.954-20 20a5 5 0 0 1-5 5H46a8 8 0 0 1-8-8V36a8 8 0 0 1 8-8h42a8 8 0 0 1 8 8v10a4 4 0 0 1-4 4z"/>
  <path fill="#E2A412" d="M86 50c-11.046 0-20 8.954-20 20v1a4 4 0 0 1-4 4H40a8 8 0 0 1-8-8V36a8 8 0 0 1 8-8h42a8 8 0 0 1 8 8v14z"/>
  <path fill="#FFE8A3" fill-rule="evenodd" d="M58.393 56.186a3 3 0 0 0 4.098-1.098l5.5-9.526a3 3 0 0 0-1.098-4.098l-12.99-7.5a6 6 0 0 0-8.197 2.196l-2.5 4.33a6 6 0 0 0 2.196 8.196l12.99 7.5ZM48.82 38.744a2 2 0 1 0-2.828 2.829 2 2 0 0 0 2.828-2.83Z" clip-rule="evenodd"/>
  <path fill="#F9BE1A" d="M42 28h5v47h-5zm38 0h-5v25.294a19.916 19.916 0 0 1 5-2.378z"/>
  <path fill="#557FF3" d="M86 86c8.837 0 16-7.163 16-16s-7.163-16-16-16-16 7.163-16 16 7.163 16 16 16"/>
  <path fill="#fff" fill-rule="evenodd" d="M88 61a1 1 0 0 1 1 1v8.978a.5.5 0 0 0 .807.394l2.89-2.247a1 1 0 0 1 1.414.19l1.8 2.399a1 1 0 0 1-.187 1.39l-8.271 6.43a2.5 2.5 0 0 1-2.906 0l-8.271-6.43a1 1 0 0 1-.186-1.39l1.8-2.4a1 1 0 0 1 1.413-.19l2.89 2.248a.5.5 0 0 0 .807-.394V62a1 1 0 0 1 1-1h4Z" clip-rule="evenodd"/>
  <path fill="#CCC" d="M107.501 58c.298 0 .595.12.823.354.454.468.454 1.23 0 1.698l-2.333 2.4a1.145 1.145 0 0 1-1.65 0 1.226 1.226 0 0 1 0-1.698l2.332-2.4c.228-.234.525-.354.823-.354h.005Zm-1.166 10.798h3.499c.641 0 1.166.54 1.166 1.2 0 .66-.525 1.2-1.166 1.2h-3.499c-.641 0-1.166-.54-1.166-1.2 0-.66.525-1.2 1.166-1.2m-1.982 8.754c.227-.234.525-.354.822-.354h.006c.297 0 .595.12.822.354l2.333 2.4c.454.467.454 1.23 0 1.697a1.146 1.146 0 0 1-1.651 0l-2.332-2.4a1.226 1.226 0 0 1 0-1.697Z"/>
</svg>