<svg fill="none" viewBox="0 0 128 96" xmlns="http://www.w3.org/2000/svg">
  <title>Add App to Dock</title>
  <path fill="#888" d="m105.629 38.2 1.542-.4a.875.875 0 0 0 .629-.629l.4-1.543A.84.84 0 0 1 109 35c.4 0 .743.286.8.628l.4 1.543a.875.875 0 0 0 .629.629l1.542.4c.4.114.629.457.629.8 0 .4-.286.743-.629.8l-1.542.4a.875.875 0 0 0-.629.628l-.4 1.543a.84.84 0 0 1-.8.629c-.4 0-.743-.286-.8-.629l-.4-1.543a.875.875 0 0 0-.629-.628l-1.542-.4A.842.842 0 0 1 105 39c0-.4.286-.743.629-.8m-89.686-6.4 2.314-.6c.429-.086.857-.514.943-.943l.6-2.314c.171-.6.686-.943 1.2-.943.6 0 1.114.428 1.2.943l.6 2.314c.086.429.514.857.943.943l2.314.6c.6.171.943.686.943 1.2 0 .6-.429 1.114-.943 1.2l-2.314.6c-.429.086-.857.514-.943.943l-.6 2.314c-.171.6-.686.943-1.2.943-.6 0-1.114-.429-1.2-.943l-.6-2.314c-.086-.429-.514-.857-.943-.943l-2.314-.6c-.6-.172-.943-.686-.943-1.2 0-.6.428-1.114.943-1.2ZM.629 53.2l1.542-.4a.876.876 0 0 0 .629-.629l.4-1.543A.841.841 0 0 1 4 50c.4 0 .743.286.8.628l.4 1.543a.876.876 0 0 0 .629.629l1.542.4c.4.114.629.457.629.8 0 .4-.286.743-.629.8l-1.542.4a.875.875 0 0 0-.629.628l-.4 1.543A.841.841 0 0 1 4 58c-.4 0-.743-.286-.8-.629l-.4-1.543a.875.875 0 0 0-.629-.628L.63 54.8A.841.841 0 0 1 0 54c0-.4.286-.743.629-.8ZM126.5 52c-.825 0-1.5-.675-1.5-1.5s.675-1.5 1.5-1.5 1.5.675 1.5 1.5-.675 1.5-1.5 1.5M23 70c-1.1 0-2-.9-2-2s.9-2 2-2 2 .9 2 2-.9 2-2 2" opacity=".2"/>
  <path fill="#3969EF" d="M32 27a6 6 0 0 1 6-6h52a6 6 0 0 1 6 6v42a6 6 0 0 1-6 6H38a6 6 0 0 1-6-6z"/>
  <path fill="#8FABF9" d="M32 69a6 6 0 0 0 6 6h52a6 6 0 0 0 6-6v-6H32z"/>
  <path fill="#4CBA3C" d="M76 60a4 4 0 0 1 4-4h8a4 4 0 0 1 4 4v8a4 4 0 0 1-4 4h-8a4 4 0 0 1-4-4z"/>
  <path fill="#96E38A" d="M78.4 61.6A1.6 1.6 0 0 1 80 60h8a1.6 1.6 0 0 1 1.6 1.6v4.8A1.6 1.6 0 0 1 88 68h-8a1.6 1.6 0 0 1-1.6-1.6v-4.8Z"/>
  <path fill="#F9BE1A" d="M36 60a4 4 0 0 1 4-4h8a4 4 0 0 1 4 4v8a4 4 0 0 1-4 4h-8a4 4 0 0 1-4-4z"/>
  <path fill="#FFDE7A" d="M36 60h16v8a4 4 0 0 1-4 4h-8a4 4 0 0 1-4-4z"/>
  <path fill="#DE5833" d="M54 57a5 5 0 0 1 5-5h10a5 5 0 0 1 5 5v10a5 5 0 0 1-5 5H59a5 5 0 0 1-5-5z"/>
  <path fill="#F2A18A" fill-rule="evenodd" d="M64 70a8 8 0 1 0 0-16 8 8 0 0 0 0 16m0-2a6 6 0 1 0 0-12 6 6 0 0 0 0 12" clip-rule="evenodd"/>
  <path fill="#fff" fill-opacity=".3" d="M62.806 47.803V44.2c0-.66.54-1.2 1.2-1.2.661 0 1.201.54 1.201 1.2v3.602c0 .66-.54 1.2-1.2 1.2-.66 0-1.2-.54-1.2-1.2ZM52 46.602a1.203 1.203 0 0 1 2.053-.846l2.402 2.401c.468.468.468 1.23 0 1.699a1.203 1.203 0 0 1-1.7 0l-2.4-2.401a1.197 1.197 0 0 1-.355-.847zm19.212 2.395a1.203 1.203 0 0 0 2.053.846l2.401-2.4a1.203 1.203 0 0 0 0-1.7 1.203 1.203 0 0 0-1.698 0l-2.402 2.402c-.234.234-.354.54-.354.846v.006Z"/>
  <path fill="#557FF3" d="M37 36a1 1 0 0 1 1-1h3a1 1 0 0 1 1 1v3a1 1 0 0 1-1 1h-3a1 1 0 0 1-1-1zm0-8a1 1 0 0 1 1-1h3a1 1 0 0 1 1 1v3a1 1 0 0 1-1 1h-3a1 1 0 0 1-1-1z"/>
</svg>