<svg fill="none" viewBox="0 0 206 165" xmlns="http://www.w3.org/2000/svg">
  <path fill="#DE5833" fill-rule="evenodd" d="M103 120c33.137 0 60-26.863 60-60S136.137 0 103 0 43 26.863 43 60s26.863 60 60 60Z" clip-rule="evenodd"/>
  <path fill="#DDD" fill-rule="evenodd" d="M111.438 104.766c0-.469.115-.576-1.375-3.546-3.96-7.93-7.94-19.11-6.13-26.32.33-1.31-3.73-48.51-6.6-50.03-3.19-1.7-7.115-4.397-10.705-4.997-1.822-.291-4.21-.153-6.077.098-.332.045-.346.641-.029.749 1.226.415 2.715 1.136 3.592 2.226.166.206-.057.531-.322.54-.827.031-2.326.378-4.305 2.059-.23.194-.04.555.255.497 4.253-.841 8.597-.427 11.156 1.9.167.15.08.422-.137.48-22.213 6.037-17.816 25.36-11.902 49.073 5.248 21.047 7.235 27.881 7.867 29.981a.716.716 0 0 0 .424.468c7.656 3.037 24.288 3.168 24.288-2.007v-1.171Z" clip-rule="evenodd"/>
  <path fill="#fff" fill-rule="evenodd" d="M158.078 60c0 30.419-24.659 55.078-55.078 55.078-30.419 0-55.078-24.66-55.078-55.078 0-30.419 24.66-55.078 55.078-55.078 30.419 0 55.078 24.66 55.078 55.078Zm-67.932 48.736c-1.522-4.701-5.775-18.329-9.977-35.55l-.419-1.713-.003-.014c-5.085-20.772-9.239-37.737 13.525-43.067.209-.049.31-.297.172-.46-2.611-3.1-7.504-4.115-13.691-1.98-.254.087-.474-.169-.317-.386 1.213-1.672 3.584-2.958 4.755-3.522.242-.116.227-.47-.03-.55a26.04 26.04 0 0 0-3.535-.844c-.347-.056-.378-.65-.03-.697 8.771-1.18 17.93 1.453 22.527 7.243a.305.305 0 0 0 .174.107c16.83 3.614 18.035 30.22 16.097 31.432-.383.239-1.608.102-3.224-.079-6.548-.733-19.516-2.184-8.814 17.763.106.197-.034.458-.255.492-6.015.936 1.646 19.72 7.324 32.179 22.327-5.176 38.966-25.19 38.966-49.09 0-27.83-22.561-50.39-50.391-50.39S52.61 32.17 52.61 60c0 23.388 15.932 43.054 37.536 48.736Z" clip-rule="evenodd"/>
  <path fill="#3CA82B" d="M122.013 85.03c-1.281-.594-6.208 2.939-9.478 5.65-.683-.966-1.972-1.669-4.878-1.163-2.544.442-3.949 1.055-4.575 2.113-4.015-1.523-10.77-3.872-12.402-1.603-1.784 2.48.446 14.213 2.815 15.736 1.237.796 7.154-3.007 10.243-5.63.499.702 1.301 1.104 2.951 1.066 2.495-.058 6.543-.638 7.171-1.8.038-.071.071-.154.099-.25 3.175 1.187 8.765 2.444 10.013 2.256 3.254-.489-.453-15.678-1.959-16.376Z"/>
  <path fill="#4CBA3C" d="M112.835 91.028c.134.24.243.494.335.751.452 1.267 1.19 5.294.632 6.29-.558.994-4.18 1.475-6.415 1.513-2.235.039-2.738-.778-3.191-2.045-.362-1.013-.541-3.394-.536-4.758-.092-2.022.647-2.733 4.063-3.286 2.528-.409 3.864.067 4.635.88 3.589-2.678 9.577-6.457 10.161-5.767 2.912 3.445 3.28 11.645 2.649 14.944-.206 1.078-9.848-1.069-9.848-2.232 0-4.83-1.253-6.154-2.485-6.29ZM91.713 89.52c.79-1.25 7.194.304 10.709 1.869 0 0-.722 3.273.428 7.129.336 1.127-8.088 6.147-9.187 5.284-1.271-.999-3.61-11.655-1.95-14.282Z"/>
  <path fill="#FC3" fill-rule="evenodd" d="M94.815 64.131c.518-2.253 2.931-6.499 11.551-6.395 4.357-.019 9.77-.002 13.358-.41a48.043 48.043 0 0 0 11.931-2.902c3.731-1.423 5.055-1.106 5.52-.254.51.936-.091 2.552-1.395 4.04-2.49 2.841-6.967 5.043-14.873 5.696-7.907.654-13.145-1.467-15.4 1.986-.972 1.489-.22 4.999 7.426 6.104 10.332 1.491 18.818-1.796 19.866.19 1.048 1.985-4.991 6.025-15.34 6.11-10.349.084-16.813-3.624-19.105-5.467-2.909-2.338-4.21-5.749-3.54-8.698Z" clip-rule="evenodd"/>
  <g fill="#14307E" opacity=".8">
    <path d="M107.994 39.494c.577-.945 1.857-1.675 3.952-1.675 2.095 0 3.08.834 3.763 1.763.138.19-.072.412-.287.319l-.158-.069c-.766-.334-1.707-.745-3.318-.768-1.724-.024-2.81.407-3.495.78-.23.125-.594-.126-.457-.35ZM84.41 40.703c2.034-.85 3.633-.74 4.763-.472.238.056.403-.2.213-.354-.877-.707-2.84-1.586-5.401-.63-2.284.85-3.36 2.62-3.367 3.784-.002.274.563.297.708.065.395-.627 1.05-1.542 3.084-2.393Z"/>
    <path fill-rule="evenodd" d="M113.725 52.425a3.253 3.253 0 0 1-3.257-3.245 3.253 3.253 0 0 1 3.257-3.245 3.252 3.252 0 0 1 3.257 3.245 3.252 3.252 0 0 1-3.257 3.245Zm2.294-4.32a.842.842 0 0 0-1.686 0c0 .464.379.84.843.84a.84.84 0 0 0 .843-.84Zm-23.872 3.321a3.79 3.79 0 0 1-3.797 3.784 3.792 3.792 0 0 1-3.796-3.784 3.792 3.792 0 0 1 3.796-3.785 3.792 3.792 0 0 1 3.797 3.785Zm-1.12-1.255a.981.981 0 0 0-1.965 0 .982.982 0 0 0 1.966-.001Z" clip-rule="evenodd"/>
  </g>
  <path fill="#333" d="M78.35 144.8h-3.9l-7.1 7.3v-14.6h-3v24.9h3v-8.2l8.1 8.1.1.1h3.6v-.3l-9.1-9 8.3-8.3Zm-19.2 13.3c-1.1 1.1-2.7 1.7-4.5 1.7-3.1 0-6.2-1.9-6.2-6.3 0-3.7 2.6-6.3 6.2-6.3 1.6 0 3.1.6 4.3 1.7l.1.1 1.9-2-.1-.1c-1.8-1.7-3.9-2.5-6.3-2.5-5.5 0-9.2 3.7-9.2 9.1 0 6.3 4.6 9.1 9.2 9.1h.1c2.4 0 4.7-.9 6.3-2.6l.1-.1-2-2 .1.2Zm-20.3-3.9c0 3.2-2.2 5.6-5.3 5.7-3.3 0-5.3-2-5.3-5.4v-9.7h-3v9.7c0 5 3 8.2 7.7 8.2h.1c2.3 0 4.4-1.1 5.8-2.8l.1-.2.1 2.7h2.8v-17.6h-3v9.4Zm-29.5-16.8H.25v25h9.1c8.7 0 12.5-6.4 12.5-12.7 0-5.9-3.9-12.3-12.5-12.3Zm9.4 12.2c0 4.8-2.9 9.6-9.3 9.6h-6v-18.7h5.9c6.4 0 9.4 4.7 9.4 9.1Zm154.9 1.9h7.7v5.8c-1.9 1.6-4.2 2.5-6.7 2.5-6.8 0-9.9-4.9-9.9-9.7 0-4.9 3.1-10.2 9.8-10.2 2.7 0 5.2 1 7.2 2.8l.1.1 1.8-2.1-.1-.1c-2.4-2.4-5.6-3.6-9.1-3.6-3.8 0-7 1.2-9.3 3.6-2.4 2.4-3.7 5.8-3.6 9.6 0 5.9 3.4 12.7 13 12.7h.2c3.6 0 7-1.5 9.4-4.2v-9.9h-10.6v2.7h.1Zm-82.6-14.1h-9.1v25h9.1c8.7 0 12.5-6.4 12.5-12.7 0-5.9-3.9-12.3-12.5-12.3Zm9.4 12.2c0 4.8-2.9 9.6-9.3 9.6h-5.9v-18.7h5.9c6.3 0 9.3 4.7 9.3 9.1Zm95.9-5.2c-5.3 0-9.1 3.9-9.1 9.2 0 5.3 3.8 9.1 9.1 9.1s9.2-3.8 9.2-9.1c0-5.4-3.8-9.2-9.2-9.2Zm6.2 9.2c0 3.7-2.6 6.3-6.2 6.3-3.5 0-6.1-2.6-6.1-6.3 0-3.8 2.5-6.5 6.2-6.5 3.5.1 6.1 2.8 6.1 6.5Zm-82 .6c0 3.2-2.2 5.6-5.3 5.7-3.3 0-5.3-2-5.3-5.4v-9.7h-3v9.7c0 5 3 8.2 7.6 8.2h.1c2.3 0 4.4-1.1 5.8-2.8l.1-.2.1 2.7h2.8v-17.6h-3v9.4h.1Zm20.3 3.9c-1.1 1.1-2.7 1.7-4.5 1.7-3.1 0-6.2-1.9-6.2-6.3 0-3.7 2.6-6.3 6.2-6.3 1.6 0 3.1.6 4.3 1.7l.1.1 1.9-2-.1-.1c-1.8-1.7-3.9-2.5-6.3-2.5-5.5 0-9.2 3.7-9.2 9.1 0 6.3 4.6 9.1 9.2 9.1h.1c2.4 0 4.7-.9 6.3-2.6l.1-.1-2-2 .1.2Zm19.2-13.3h-3.9l-7.1 7.3v-14.6h-3v24.9h3v-8.2l8.1 8.1.1.1h3.6v-.3l-9.1-9 8.3-8.3Z"/>
</svg>
