<svg fill="none" viewBox="0 0 128 96" xmlns="http://www.w3.org/2000/svg">
  <path fill="#888" d="m105.629 38.2 1.542-.4a.88.88 0 0 0 .629-.629l.4-1.543A.84.84 0 0 1 109 35c.4 0 .743.286.8.628l.4 1.543a.88.88 0 0 0 .629.629l1.542.4c.4.114.629.457.629.8 0 .4-.286.743-.629.8l-1.542.4a.88.88 0 0 0-.629.628l-.4 1.543a.84.84 0 0 1-.8.629c-.4 0-.743-.286-.8-.629l-.4-1.543a.88.88 0 0 0-.629-.628l-1.542-.4A.84.84 0 0 1 105 39c0-.4.286-.743.629-.8m-89.686-6.4 2.314-.6c.429-.086.857-.514.943-.943l.6-2.314c.171-.6.686-.943 1.2-.943.6 0 1.114.428 1.2.943l.6 2.314c.086.429.514.857.943.943l2.314.6c.6.171.943.686.943 1.2 0 .6-.429 1.114-.943 1.2l-2.314.6c-.429.086-.857.514-.943.943l-.6 2.314c-.171.6-.686.943-1.2.943-.6 0-1.114-.429-1.2-.943l-.6-2.314c-.086-.429-.514-.857-.943-.943l-2.314-.6c-.6-.172-.943-.686-.943-1.2 0-.6.429-1.114.943-1.2M.629 53.2l1.542-.4a.88.88 0 0 0 .629-.629l.4-1.543A.84.84 0 0 1 4 50c.4 0 .743.286.8.628l.4 1.543a.88.88 0 0 0 .629.629l1.542.4c.4.114.629.457.629.8 0 .4-.286.743-.629.8l-1.542.4a.88.88 0 0 0-.629.628l-.4 1.543A.84.84 0 0 1 4 58c-.4 0-.743-.286-.8-.629l-.4-1.543a.88.88 0 0 0-.629-.628L.63 54.8A.84.84 0 0 1 0 54c0-.4.286-.743.629-.8M126.5 52c-.825 0-1.5-.675-1.5-1.5s.675-1.5 1.5-1.5 1.5.675 1.5 1.5-.675 1.5-1.5 1.5M23 70c-1.1 0-2-.9-2-2s.9-2 2-2 2 .9 2 2-.9 2-2 2" opacity=".2"/>
  <path fill="#557FF3" d="M87 51c-11.046 0-20 8.954-20 20v6.127c0 1.55-1.18 2.86-2.73 2.872L64 80c-17.673 0-32-14.327-32-32s14.327-32 32-32 32 14.327 32 32l-.001.27c-.013 1.55-1.322 2.73-2.872 2.73z"/>
  <path fill="#ADC2FC" fill-rule="evenodd" d="M84.628 51.14A49.3 49.3 0 0 0 72.93 38.2a3.5 3.5 0 0 0-1.934-3.865q-.016-1.151-.084-2.29A50 50 0 0 1 73 32a46.8 46.8 0 0 1 21.046 4.964 32 32 0 0 0-1.166-2.763A48.8 48.8 0 0 0 73 30q-1.13 0-2.247.05a48.7 48.7 0 0 0-3.505-13.887 32 32 0 0 0-2.24-.147 46.7 46.7 0 0 1 3.748 14.165c-2.614.225-5.17.654-7.65 1.273a48.7 48.7 0 0 0-11.259-2.98 3.5 3.5 0 0 0-1.235-1.765 47 47 0 0 1 6.814-9.547 32 32 0 0 0-3.745 1.295 49 49 0 0 0-4.962 7.55A3.5 3.5 0 0 0 43.336 28H43q-2.081.001-4.117.17-.832 1.051-1.574 2.171A48 48 0 0 1 43 30h.036a3.5 3.5 0 0 0 1 1.985 48.7 48.7 0 0 0-2.448 9.407 49.3 49.3 0 0 0-9.31 10.346l-.069-.068a32 32 0 0 0 .534 3.215 49 49 0 0 0 9.896 6.727 48.7 48.7 0 0 0 5.322 12.574q-.597.396-1.206.774.944.605 1.93 1.144l.34-.224q.207.314.417.624a32 32 0 0 0 3.64 1.585 47 47 0 0 1-2.412-3.347 49.3 49.3 0 0 0 7.068-6.218 3.5 3.5 0 0 0 4.951-1.578 50 50 0 0 0 4.724-.004q.213-1.038.532-2.033a48 48 0 0 1-4.986.047 3.5 3.5 0 0 0-.854-1.795 48.7 48.7 0 0 0 8.556-22.358 3.5 3.5 0 0 0 1.306-.819A47.3 47.3 0 0 1 82.494 51.51q1.047-.242 2.134-.37M49.856 30.496a3.5 3.5 0 0 1-4.038 2.437 47 47 0 0 0-1.864 6.6 48.9 48.9 0 0 1 13.885-7.143 46.7 46.7 0 0 0-7.983-1.894m-16.094 22.62a47.3 47.3 0 0 1 7.453-8.74 49.6 49.6 0 0 0 .808 14.634 47 47 0 0 1-8.26-5.893Zm9.691-10.67a46.85 46.85 0 0 1 17.51-8.892c1.83.757 3.6 1.627 5.305 2.6a3.5 3.5 0 0 0 2.366 4.738 46.74 46.74 0 0 1-8.24 21.222 3.51 3.51 0 0 0-4.14 2.073 46.7 46.7 0 0 1-11.904-3.955A47 47 0 0 1 43 49c0-2.224.154-4.412.453-6.553Zm12.614 23.74a48.6 48.6 0 0 1-11.019-3.42 46.8 46.8 0 0 0 4.558 10.275 47.3 47.3 0 0 0 6.76-5.98 3.5 3.5 0 0 1-.299-.874Zm8.15-33.368a49 49 0 0 1 3.34 1.77 3.5 3.5 0 0 1 1.433-.552 48 48 0 0 0-.074-1.862q-2.386.207-4.7.644Z" clip-rule="evenodd"/>
  <path fill="#7295F6" fill-opacity=".6" d="M68.003 64.728A20 20 0 0 0 67 71v6.127c0 1.55-1.18 2.859-2.73 2.872H64a31.88 31.88 0 0 1-21.236-8.06q1.11.06 2.236.061a39.8 39.8 0 0 0 23.003-7.272m11.341-12.21A39.8 39.8 0 0 0 85 32c0-3.093-.351-6.103-1.015-8.994C91.309 28.87 96 37.887 96 48l-.001.27c-.013 1.55-1.323 2.73-2.872 2.73H87c-2.712 0-5.298.54-7.656 1.518" style="mix-blend-mode:multiply"/>
  <path fill="#21C000" d="M87 87c8.837 0 16-7.163 16-16s-7.163-16-16-16-16 7.163-16 16 7.163 16 16 16"/>
  <path fill="#fff" fill-rule="evenodd" d="M92.5 70v-3.951a5.57 5.57 0 0 0-1.605-3.917A5.48 5.48 0 0 0 87 60.5c-1.465 0-2.865.59-3.895 1.632a5.57 5.57 0 0 0-1.605 3.917V70H81a2 2 0 0 0-2 2v6a2 2 0 0 0 2 2h12a2 2 0 0 0 2-2v-6a2 2 0 0 0-2-2zm-3.739-5.76A2.48 2.48 0 0 0 87 63.5c-.657 0-1.291.264-1.761.74a2.57 2.57 0 0 0-.739 1.809V70h5v-3.951c0-.682-.268-1.332-.739-1.809" clip-rule="evenodd"/>
  <path fill="#CCC" d="M108.501 59c.298 0 .595.12.823.354.454.468.454 1.23 0 1.698l-2.333 2.4a1.145 1.145 0 0 1-1.65 0 1.226 1.226 0 0 1 0-1.698l2.332-2.4c.228-.234.525-.354.823-.354zm-1.166 10.798h3.499c.641 0 1.166.54 1.166 1.2s-.525 1.2-1.166 1.2h-3.499c-.641 0-1.166-.54-1.166-1.2s.525-1.2 1.166-1.2m-1.982 8.754c.227-.234.525-.354.822-.354h.006c.297 0 .595.12.822.354l2.333 2.4c.454.467.454 1.23 0 1.697a1.146 1.146 0 0 1-1.651 0l-2.332-2.4a1.226 1.226 0 0 1 0-1.697"/>
</svg>