<svg width="16" height="16" viewBox="0 0 16 16" fill="none" xmlns="http://www.w3.org/2000/svg">
<g clip-path="url(#clip0_1045_52200)">
<mask id="path-1-inside-1_1045_52200" fill="white">
<path fill-rule="evenodd" clip-rule="evenodd" d="M6.48278 0.611598C6.88199 0.209434 7.43773 -0.00137206 7.99798 6.72018e-06C8.55822 0.00138568 9.11295 0.214944 9.50995 0.619456C10.1829 1.30514 10.77 1.66464 11.3623 1.84832C11.9564 2.03252 12.6724 2.07576 13.6731 1.94842C14.226 1.87807 14.7994 2.01735 15.248 2.35434C15.7004 2.69424 15.9937 3.21571 15.9987 3.79861C16.0309 7.58069 15.4797 10.0504 14.2842 11.8381C13.0253 13.7206 11.1516 14.67 9.23944 15.639C9.21312 15.6523 9.18679 15.6657 9.16046 15.679L9.11611 15.7015L9.115 15.702L9.11316 15.703L8.98837 15.7662C8.37371 16.0779 7.6264 16.0779 7.01173 15.7663L6.88751 15.7033L6.88498 15.702L6.83957 15.679C6.81323 15.6657 6.7869 15.6523 6.76058 15.639C4.84839 14.67 2.97469 13.7206 1.71582 11.8381C0.520401 10.0505 -0.0308808 7.5808 0.00133254 3.79887C0.00629321 3.21645 0.299145 2.69531 0.751018 2.35537C1.19901 2.01835 1.77179 1.8787 2.32433 1.94835C3.33105 2.07526 4.04915 2.02424 4.64334 1.83436C5.23454 1.64542 5.81634 1.28297 6.48278 0.611598Z"/>
</mask>
<path fill-rule="evenodd" clip-rule="evenodd" d="M6.48278 0.611598C6.88199 0.209434 7.43773 -0.00137206 7.99798 6.72018e-06C8.55822 0.00138568 9.11295 0.214944 9.50995 0.619456C10.1829 1.30514 10.77 1.66464 11.3623 1.84832C11.9564 2.03252 12.6724 2.07576 13.6731 1.94842C14.226 1.87807 14.7994 2.01735 15.248 2.35434C15.7004 2.69424 15.9937 3.21571 15.9987 3.79861C16.0309 7.58069 15.4797 10.0504 14.2842 11.8381C13.0253 13.7206 11.1516 14.67 9.23944 15.639C9.21312 15.6523 9.18679 15.6657 9.16046 15.679L9.11611 15.7015L9.115 15.702L9.11316 15.703L8.98837 15.7662C8.37371 16.0779 7.6264 16.0779 7.01173 15.7663L6.88751 15.7033L6.88498 15.702L6.83957 15.679C6.81323 15.6657 6.7869 15.6523 6.76058 15.639C4.84839 14.67 2.97469 13.7206 1.71582 11.8381C0.520401 10.0505 -0.0308808 7.5808 0.00133254 3.79887C0.00629321 3.21645 0.299145 2.69531 0.751018 2.35537C1.19901 2.01835 1.77179 1.8787 2.32433 1.94835C3.33105 2.07526 4.04915 2.02424 4.64334 1.83436C5.23454 1.64542 5.81634 1.28297 6.48278 0.611598Z" fill="#7DDC6E"/>
<path fill-rule="evenodd" clip-rule="evenodd" d="M6.48278 0.611598C6.88199 0.209434 7.43773 -0.00137206 7.99798 6.72018e-06C8.55822 0.00138568 9.11295 0.214944 9.50995 0.619456C10.1829 1.30514 10.77 1.66464 11.3623 1.84832C11.9564 2.03252 12.6724 2.07576 13.6731 1.94842C14.226 1.87807 14.7994 2.01735 15.248 2.35434C15.7004 2.69424 15.9937 3.21571 15.9987 3.79861C16.0309 7.58069 15.4797 10.0504 14.2842 11.8381C13.0253 13.7206 11.1516 14.67 9.23944 15.639C9.21312 15.6523 9.18679 15.6657 9.16046 15.679L9.11611 15.7015L9.115 15.702L9.11316 15.703L8.98837 15.7662C8.37371 16.0779 7.6264 16.0779 7.01173 15.7663L6.88751 15.7033L6.88498 15.702L6.83957 15.679C6.81323 15.6657 6.7869 15.6523 6.76058 15.639C4.84839 14.67 2.97469 13.7206 1.71582 11.8381C0.520401 10.0505 -0.0308808 7.5808 0.00133254 3.79887C0.00629321 3.21645 0.299145 2.69531 0.751018 2.35537C1.19901 2.01835 1.77179 1.8787 2.32433 1.94835C3.33105 2.07526 4.04915 2.02424 4.64334 1.83436C5.23454 1.64542 5.81634 1.28297 6.48278 0.611598Z" fill="url(#paint0_linear_1045_52200)"/>
<path fill-rule="evenodd" clip-rule="evenodd" d="M6.48278 0.611598C6.88199 0.209434 7.43773 -0.00137206 7.99798 6.72018e-06C8.55822 0.00138568 9.11295 0.214944 9.50995 0.619456C10.1829 1.30514 10.77 1.66464 11.3623 1.84832C11.9564 2.03252 12.6724 2.07576 13.6731 1.94842C14.226 1.87807 14.7994 2.01735 15.248 2.35434C15.7004 2.69424 15.9937 3.21571 15.9987 3.79861C16.0309 7.58069 15.4797 10.0504 14.2842 11.8381C13.0253 13.7206 11.1516 14.67 9.23944 15.639C9.21312 15.6523 9.18679 15.6657 9.16046 15.679L9.11611 15.7015L9.115 15.702L9.11316 15.703L8.98837 15.7662C8.37371 16.0779 7.6264 16.0779 7.01173 15.7663L6.88751 15.7033L6.88498 15.702L6.83957 15.679C6.81323 15.6657 6.7869 15.6523 6.76058 15.639C4.84839 14.67 2.97469 13.7206 1.71582 11.8381C0.520401 10.0505 -0.0308808 7.5808 0.00133254 3.79887C0.00629321 3.21645 0.299145 2.69531 0.751018 2.35537C1.19901 2.01835 1.77179 1.8787 2.32433 1.94835C3.33105 2.07526 4.04915 2.02424 4.64334 1.83436C5.23454 1.64542 5.81634 1.28297 6.48278 0.611598Z" stroke="#399F29" stroke-width="3" stroke-linecap="round" stroke-linejoin="round" mask="url(#path-1-inside-1_1045_52200)"/>
<path d="M5 7.50354L7.15782 9.75L11 5.75" stroke="white" stroke-width="1.5" stroke-linecap="round" stroke-linejoin="round"/>
</g>
<defs>
<linearGradient id="paint0_linear_1045_52200" x1="17.2" y1="-1.2" x2="-5.55588e-07" y2="15.6" gradientUnits="userSpaceOnUse">
<stop stop-color="#7BD66D" stop-opacity="0.8"/>
<stop offset="0.360919" stop-color="#63C853" stop-opacity="0.8"/>
<stop offset="1" stop-color="#288419" stop-opacity="0.8"/>
</linearGradient>
<clipPath id="clip0_1045_52200">
<rect width="16" height="16" fill="white"/>
</clipPath>
</defs>
</svg>
