<svg width="1063" height="678" viewBox="0 0 1063 678" fill="none" xmlns="http://www.w3.org/2000/svg">
<path opacity="0.75" d="M892.917 315.94L874.998 315.127C870.997 314.945 867.046 316.074 863.745 318.341C860.443 320.609 857.972 323.892 856.705 327.692C855.443 323.892 852.974 320.608 849.674 318.34C846.374 316.072 842.424 314.944 838.424 315.127L820.505 315.94C820.106 315.959 819.728 316.126 819.444 316.408C819.161 316.69 818.992 317.067 818.97 317.466C818.948 317.865 819.075 318.258 819.326 318.569C819.577 318.88 819.934 319.087 820.329 319.15L836.467 321.569C839.896 322.084 843.109 323.558 845.736 325.82C848.364 328.082 850.299 331.04 851.319 334.354C851.672 335.508 852.387 336.518 853.358 337.236C854.328 337.954 855.504 338.341 856.711 338.341C857.918 338.341 859.094 337.954 860.064 337.236C861.035 336.518 861.75 335.508 862.103 334.354C863.128 331.046 865.066 328.095 867.693 325.839C870.32 323.583 873.53 322.115 876.955 321.602L893.093 319.183C893.523 319.16 893.926 318.967 894.214 318.646C894.501 318.325 894.65 317.904 894.626 317.474C894.603 317.044 894.41 316.64 894.089 316.353C893.769 316.065 893.347 315.917 892.917 315.94V315.94Z" fill="white"/>
<path opacity="0.75" d="M906.554 371.07L894.682 371.609C892.035 371.725 889.423 370.976 887.241 369.474C885.059 367.973 883.426 365.8 882.589 363.287C881.756 365.802 880.123 367.977 877.941 369.479C875.758 370.981 873.144 371.729 870.497 371.609L858.624 371.07C858.387 371.02 858.173 370.893 858.016 370.709C857.859 370.525 857.766 370.294 857.754 370.052C857.741 369.81 857.809 369.57 857.947 369.371C858.084 369.171 858.284 369.023 858.514 368.949L869.2 367.344C871.48 367.011 873.619 366.039 875.37 364.541C877.121 363.043 878.412 361.08 879.093 358.879V358.879C879.325 358.113 879.797 357.442 880.439 356.965C881.082 356.488 881.861 356.23 882.661 356.23C883.461 356.23 884.24 356.488 884.882 356.965C885.525 357.442 885.996 358.113 886.228 358.879V358.879C886.91 361.08 888.2 363.043 889.951 364.541C891.702 366.039 893.842 367.011 896.122 367.344L906.807 368.949C907.038 369.035 907.233 369.196 907.362 369.406C907.49 369.617 907.544 369.864 907.515 370.109C907.486 370.354 907.375 370.581 907.201 370.756C907.027 370.93 906.799 371.041 906.554 371.07V371.07Z" fill="white"/>
<path opacity="0.75" d="M338.961 338.582L327.078 338.043C324.431 337.927 321.819 338.676 319.637 340.178C317.455 341.679 315.822 343.851 314.985 346.365C314.149 343.851 312.516 341.679 310.334 340.178C308.151 338.676 305.539 337.927 302.893 338.043L291.02 338.582C290.783 338.632 290.57 338.759 290.412 338.943C290.255 339.127 290.163 339.358 290.15 339.6C290.138 339.842 290.205 340.082 290.343 340.281C290.48 340.48 290.68 340.629 290.91 340.703L301.596 342.308C303.878 342.641 306.018 343.614 307.77 345.114C309.521 346.614 310.811 348.58 311.49 350.784V350.784C311.724 351.548 312.198 352.217 312.841 352.692C313.484 353.167 314.263 353.424 315.062 353.424C315.862 353.424 316.64 353.167 317.283 352.692C317.926 352.217 318.4 351.548 318.635 350.784V350.784C319.31 348.588 320.591 346.627 322.332 345.127C324.073 343.628 326.202 342.65 328.474 342.308L339.17 340.703C339.401 340.621 339.597 340.463 339.728 340.256C339.858 340.049 339.916 339.805 339.892 339.561C339.868 339.318 339.764 339.089 339.595 338.911C339.427 338.734 339.203 338.618 338.961 338.582V338.582Z" fill="white"/>
</svg>
