<svg width="1280" height="715" viewBox="0 0 1280 715" fill="none" xmlns="http://www.w3.org/2000/svg">
    <g clip-path="url(#clip0_915_14428)">
        <g clip-path="url(#clip1_915_14428)">
            <path d="M767.434 466.109C757.991 459.657 746.66 452.154 737.714 445.998C733.831 443.384 728.364 439.395 724.597 437.897C720.347 436.328 716.471 438.841 712.503 440.482C698.68 446.646 681.716 461.133 662.649 472.582C653.681 477.78 645.354 482.994 636.091 487.263C627.807 491.18 616.146 495.234 609.216 496.977C599.938 499.9 594.464 495.817 586.555 491.368C572.797 483.771 557.677 473.691 543.934 467.261C536.723 463.927 529.254 470.81 522.23 475.051C477.218 504.559 428.229 540.157 378.599 577.254C354.087 595.989 313.36 622.17 290.007 641.021V641.035C348.007 641.726 454.225 642.051 565.99 642.195C596.279 620.168 710.723 537.169 734.861 522.689C750.723 513.178 775.235 497.891 793.416 486.478C790.34 483.778 787.401 481.251 784.642 478.947C778.851 474.108 774.183 470.717 767.427 466.116L767.434 466.109Z" fill="url(#paint0_linear_915_14428)" fill-opacity="0.5"/>
            <path d="M811.546 645.917C813.542 644.225 815.472 642.612 817.309 641.129C820.903 638.22 824.188 635.743 827.004 633.828C852.381 618.174 896.27 579.421 924.355 549.252C930.053 542.901 934.332 538.019 938.085 531.834C945.972 509.815 976.859 473.374 985.971 456.316C986.793 454.631 987.354 453.501 987.354 451.794C984.934 439.323 966.242 425.7 967.07 409.556C967.308 406.136 968.302 404.12 969.563 400.866C976.132 384.384 995.631 352.558 1008.91 331.022C1008.88 331.007 1008.86 330.993 1008.86 330.993C1008.86 330.993 949.012 385.55 926.704 407.843C904.395 430.142 835.691 472.704 835.691 472.704L817.352 471.394C817.352 471.394 762.752 505.955 734.868 522.682C706.985 539.409 558.621 647.552 558.621 647.552L811.546 645.917Z" fill="url(#paint1_linear_915_14428)"/>
            <path d="M1203.62 619.945C1209.39 613.407 1213.59 610.592 1221.64 605.588C1235.42 596.882 1252.72 586.038 1267.04 577.009C1271.79 573.992 1276.32 571.242 1280.84 568.196C1286.32 564.473 1288.28 561.989 1291.01 555.682C1292.55 552.132 1293.94 548.625 1295.45 544.866C1301.17 530.667 1307.51 514.87 1313.18 500.807C1315.65 494.536 1317.97 489.308 1318.68 486.01C1321 475.541 1303.18 486.543 1299.64 481.791C1299.05 480.531 1299.46 479.228 1299.79 477.687C1300.13 476.34 1300.66 474.742 1301.25 472.927C1305.18 460.816 1311.52 441.613 1317.79 422.179C1317.74 422.143 1317.69 422.114 1317.65 422.078C1317.24 421.725 1316.86 421.833 1316.47 422.121C1291.16 440.655 1240.65 477.78 1223.07 490.885C1217.32 494.816 1212.01 498.042 1204.89 502.485C1175.31 520.911 1128.7 548.265 1109.55 564.048C1079.99 588.89 1036.53 622.703 1008.72 644.621C1043.89 644.283 1108.88 643.894 1181.71 643.505C1190.58 633.914 1198.33 625.554 1203.62 619.938V619.945Z" fill="url(#paint2_linear_915_14428)"/>
            <path d="M1054.24 358.902C1069.42 371.33 1162.86 444.695 1187.8 463.624V463.632C1197.05 470.652 1210.32 479.487 1225.34 489.28C1224.53 489.877 1223.78 490.439 1223.07 490.964C1218.27 494.246 1213.78 497.035 1208.29 500.451C1207.2 501.128 1206.07 501.83 1204.89 502.564C1198.31 506.662 1190.89 511.201 1183.12 515.956C1155.94 532.584 1124.44 551.854 1109.55 564.128C1084.95 584.801 1050.74 611.68 1023.92 632.75C1018.51 637.006 1013.39 641.025 1008.72 644.707C1046.19 644.34 1117.51 643.93 1196.1 643.512L811.546 645.996C813.542 644.304 815.472 642.699 817.316 641.208C820.911 638.299 824.195 635.815 827.012 633.907C852.388 618.253 896.285 579.501 924.363 549.331C930.06 542.98 934.339 538.098 938.092 531.913C942.943 518.369 956.497 499.372 968.332 482.782C975.738 472.401 982.471 462.964 985.979 456.395L986.01 456.331C986.814 454.681 987.362 453.558 987.362 451.873C986.345 446.629 982.454 441.185 978.346 435.436C972.678 427.505 966.597 418.995 967.077 409.636C967.287 406.707 968.041 404.807 969.045 402.278C969.213 401.854 969.389 401.412 969.57 400.945C976.132 384.463 995.631 352.645 1008.92 331.101L1008.95 331.118C1010.65 331.967 1038.32 345.867 1054.24 358.902Z" fill="url(#paint3_linear_915_14428)"/>
            <path d="M1542.06 639.415C1541.57 637.356 1540.36 633.187 1537.61 627.491C1535.61 623.387 1533.36 619.348 1530.85 615.603C1528.9 612.68 1526.52 609.483 1524.15 606.495C1519.23 600.527 1513.58 593.38 1507.63 585.837C1490.37 563.989 1470.49 538.823 1458.02 529.386C1444.49 519.419 1428.94 506.839 1413.62 494.447C1401.55 484.691 1389.63 475.051 1378.96 466.893C1359.69 452.176 1334.7 434.276 1317.79 422.186C1313.79 434.573 1309.77 446.861 1306.36 457.279L1306.35 457.297C1304.41 463.223 1302.67 468.544 1301.25 472.935L1301.19 473.119C1300.62 474.851 1300.12 476.387 1299.79 477.694C1299.75 477.872 1299.71 478.047 1299.67 478.219C1299.37 479.54 1299.12 480.683 1299.64 481.798C1301.14 483.819 1305.23 482.992 1309.25 482.177C1314.69 481.077 1320.01 479.999 1318.68 486.018C1318.14 488.516 1316.68 492.116 1314.93 496.445C1314.37 497.831 1313.78 499.292 1313.18 500.815C1310.08 508.484 1306.79 516.67 1303.51 524.832L1303.42 525.065C1300.71 531.789 1298.02 538.493 1295.45 544.874L1295.19 545.508C1293.79 549.029 1292.46 552.34 1291.01 555.689C1288.27 561.989 1286.32 564.481 1280.84 568.203C1277.58 570.396 1274.32 572.442 1270.97 574.545C1269.67 575.356 1268.37 576.176 1267.04 577.016C1259.84 581.556 1251.89 586.556 1244.01 591.511C1236.22 596.412 1228.5 601.27 1221.64 605.595C1213.59 610.599 1209.39 613.415 1203.62 619.952C1198.33 625.569 1190.58 633.928 1181.71 643.519C1213.45 643.349 1246.67 643.178 1279.57 643.008L1279.59 643.008L1279.61 643.008C1412.15 642.325 1539.34 641.67 1542.35 641.208C1542.44 641.122 1542.37 640.733 1542.06 639.422V639.415Z" fill="url(#paint4_linear_915_14428)"/>
        </g>
    </g>
    <defs>
        <linearGradient id="paint0_linear_915_14428" x1="541.706" y1="433.203" x2="541.706" y2="640.748" gradientUnits="userSpaceOnUse">
            <stop stop-color="#8FABF9" stop-opacity="0.2"/>
            <stop offset="1" stop-color="#8FABF9" stop-opacity="0"/>
        </linearGradient>
        <linearGradient id="paint1_linear_915_14428" x1="783.762" y1="324.503" x2="783.762" y2="645.316" gradientUnits="userSpaceOnUse">
            <stop stop-color="white" stop-opacity="0.8"/>
            <stop offset="0.416666" stop-color="white" stop-opacity="0.4"/>
            <stop offset="1" stop-color="white" stop-opacity="0"/>
        </linearGradient>
        <linearGradient id="paint2_linear_915_14428" x1="1163.8" y1="417.289" x2="1163.8" y2="643.048" gradientUnits="userSpaceOnUse">
            <stop stop-color="white" stop-opacity="0.8"/>
            <stop offset="0.54" stop-color="white" stop-opacity="0.4"/>
            <stop offset="1" stop-color="white" stop-opacity="0"/>
        </linearGradient>
        <linearGradient id="paint3_linear_915_14428" x1="1176.96" y1="324.645" x2="1176.96" y2="643.773" gradientUnits="userSpaceOnUse">
            <stop stop-color="#ADC2FC" stop-opacity="0.16"/>
            <stop offset="1" stop-color="#ADC2FC" stop-opacity="0"/>
        </linearGradient>
        <linearGradient id="paint4_linear_915_14428" x1="1176.96" y1="324.645" x2="1176.96" y2="643.773" gradientUnits="userSpaceOnUse">
            <stop stop-color="#ADC2FC" stop-opacity="0.16"/>
            <stop offset="1" stop-color="#ADC2FC" stop-opacity="0"/>
        </linearGradient>
        <clipPath id="clip0_915_14428">
            <rect width="1280" height="715" fill="white"/>
        </clipPath>
        <clipPath id="clip1_915_14428">
            <rect width="1206" height="311" fill="white" transform="translate(290 331)"/>
        </clipPath>
    </defs>
</svg>
