<svg width="1280" height="715" viewBox="0 0 1280 715" fill="none" xmlns="http://www.w3.org/2000/svg">
    <g clip-path="url(#clip0_915_14430)">
        <path fill-rule="evenodd" clip-rule="evenodd" d="M1082.05 223.609L1104.77 221.887C1105.42 221.838 1106.04 221.602 1106.56 221.209C1107.08 220.815 1107.48 220.279 1107.7 219.665C1109.9 213.466 1113.95 208.098 1119.29 204.291C1124.63 200.484 1131.02 198.423 1137.57 198.389C1141.71 198.376 1145.81 199.199 1149.64 200.808C1153.46 202.416 1156.92 204.779 1159.81 207.755C1160.31 208.281 1160.97 208.631 1161.69 208.755C1162.4 208.879 1163.14 208.77 1163.78 208.444C1166.36 207.096 1169.21 206.371 1172.11 206.324C1175.01 206.278 1177.88 206.912 1180.5 208.177C1180.91 208.375 1181.36 208.484 1181.82 208.5C1182.27 208.515 1182.73 208.435 1183.15 208.264C1183.58 208.094 1183.96 207.838 1184.29 207.511C1184.61 207.185 1184.86 206.795 1185.02 206.366C1188 198.708 1193.18 192.113 1199.89 187.418C1206.61 182.724 1214.57 180.144 1222.75 180.006C1230.94 179.868 1238.98 182.178 1245.85 186.642C1252.72 191.107 1258.12 197.524 1261.35 205.077C1261.67 205.825 1262.25 206.432 1262.97 206.79C1263.7 207.149 1264.53 207.235 1265.32 207.033C1267.73 206.431 1270.19 206.115 1272.68 206.088C1277.1 206.132 1281.42 207.464 1285.11 209.923C1288.8 212.382 1291.7 215.863 1293.46 219.943C1293.7 220.515 1294.1 221.009 1294.6 221.373C1295.1 221.737 1295.7 221.957 1296.31 222.009L1314.78 223.498C1319.75 223.743 1319.64 227.998 1314.43 227.998H1082.39C1077.26 228.109 1077.07 223.843 1082.05 223.609Z" fill="white" fill-opacity="0.4"/>
        <path fill-rule="evenodd" clip-rule="evenodd" d="M743.702 100.392L762.649 99.0023C763.19 98.9631 763.708 98.7667 764.14 98.437C764.572 98.1073 764.9 97.6584 765.083 97.145C766.905 91.9621 770.275 87.4714 774.731 84.2865C779.188 81.1016 784.513 79.3779 789.981 79.351C793.433 79.3369 796.853 80.0184 800.039 81.3555C803.225 82.6926 806.112 84.6581 808.53 87.1359C808.949 87.5768 809.497 87.8708 810.094 87.9749C810.692 88.0791 811.306 87.9876 811.848 87.7142C813.992 86.5913 816.368 85.9866 818.785 85.948C821.202 85.9093 823.595 86.438 825.774 87.4918C826.118 87.6487 826.49 87.7343 826.867 87.7434C827.245 87.7525 827.621 87.685 827.972 87.5449C828.323 87.4047 828.642 87.1948 828.911 86.9277C829.179 86.6606 829.391 86.3418 829.535 85.9904C832.014 79.6062 836.326 74.1075 841.921 70.1929C847.516 66.2782 854.143 64.1244 860.958 64.0052C867.774 63.886 874.471 65.8068 880.198 69.5234C885.925 73.24 890.424 78.5847 893.124 84.8782C893.392 85.5031 893.875 86.0104 894.483 86.3083C895.092 86.6061 895.787 86.6749 896.442 86.502C898.447 85.9999 900.503 85.7349 902.57 85.7123C906.258 85.7512 909.857 86.863 912.93 88.9134C916.004 90.9639 918.422 93.8654 919.891 97.2674C920.095 97.7455 920.423 98.1592 920.842 98.4647C921.261 98.7701 921.754 98.9559 922.269 99.0023L937.655 100.248C941.802 100.448 941.714 103.996 937.378 103.996H743.99C739.753 104.14 739.554 100.581 743.702 100.392Z" fill="white" fill-opacity="0.56"/>
        <path fill-rule="evenodd" clip-rule="evenodd" d="M655.997 356.392L637.05 355.002C636.509 354.963 635.991 354.767 635.559 354.437C635.127 354.107 634.799 353.658 634.616 353.145C632.794 347.962 629.424 343.471 624.968 340.286C620.512 337.102 615.186 335.378 609.718 335.351C606.266 335.337 602.846 336.018 599.66 337.356C596.474 338.693 593.587 340.658 591.169 343.136C590.751 343.577 590.202 343.871 589.605 343.975C589.008 344.079 588.393 343.988 587.851 343.714C585.707 342.591 583.332 341.987 580.914 341.948C578.497 341.909 576.104 342.438 573.925 343.492C573.581 343.649 573.209 343.734 572.832 343.743C572.454 343.753 572.079 343.685 571.728 343.545C571.377 343.405 571.057 343.195 570.789 342.928C570.52 342.661 570.308 342.342 570.165 341.99C567.685 335.606 563.373 330.107 557.778 326.193C552.183 322.278 545.556 320.124 538.741 320.005C531.925 319.886 525.228 321.807 519.501 325.523C513.774 329.24 509.275 334.585 506.576 340.878C506.307 341.503 505.825 342.01 505.216 342.308C504.607 342.606 503.912 342.675 503.257 342.502C501.252 342 499.196 341.735 497.13 341.712C493.441 341.751 489.843 342.863 486.769 344.913C483.695 346.964 481.278 349.865 479.808 353.267C479.605 353.745 479.276 354.159 478.857 354.465C478.439 354.77 477.945 354.956 477.43 355.002L462.045 356.248C457.897 356.448 457.985 359.996 462.321 359.996H655.71C659.946 360.14 660.145 356.581 655.997 356.392Z" fill="white" fill-opacity="0.4"/>
    </g>
    <defs>
        <clipPath id="clip0_915_14430">
            <rect width="1280" height="715" fill="white"/>
        </clipPath>
    </defs>
</svg>
