<svg width="56" height="56" viewBox="0 0 56 56" fill="none" xmlns="http://www.w3.org/2000/svg">
<path fill-rule="evenodd" clip-rule="evenodd" d="M28 56C43.464 56 56 43.464 56 28C56 12.536 43.464 0 28 0C12.536 0 0 12.536 0 28C0 43.464 12.536 56 28 56Z" fill="#DE5833"/>
<path fill-rule="evenodd" clip-rule="evenodd" d="M31.9374 48.8906C31.9374 48.6719 31.9911 48.622 31.2957 47.236C29.4477 43.5353 27.5904 38.318 28.4351 34.9533C28.5891 34.342 26.6944 12.3153 25.3551 11.606C23.8664 10.8126 22.0348 9.55414 20.3595 9.27414C19.5094 9.13814 18.3949 9.20255 17.5237 9.31989C17.3688 9.34075 17.3624 9.61907 17.5104 9.66921C18.0824 9.863 18.777 10.1995 19.1863 10.7082C19.2638 10.8045 19.1598 10.9559 19.0363 10.9605C18.6504 10.9748 17.9505 11.1366 17.0269 11.921C16.9201 12.0117 17.0088 12.1802 17.1463 12.153C19.1311 11.7603 21.158 11.9538 22.3525 13.0395C22.43 13.1099 22.3895 13.2364 22.2884 13.2638C11.9222 16.0809 13.9743 25.0983 16.7339 36.1642C19.0507 45.4544 20.0056 48.8107 20.3519 49.9762C20.4156 50.1908 20.5714 50.3644 20.7812 50.4421C24.4269 51.7926 31.9374 51.8127 31.9374 49.4375V48.8906Z" fill="#DDDDDD"/>
<path fill-rule="evenodd" clip-rule="evenodd" d="M53.7031 28C53.7031 42.1954 42.1954 53.7031 28 53.7031C13.8046 53.7031 2.29688 42.1954 2.29688 28C2.29688 13.8046 13.8046 2.29688 28 2.29688C42.1954 2.29688 53.7031 13.8046 53.7031 28ZM22.0015 50.7437C21.2913 48.5495 19.3063 42.1902 17.3457 34.1535C17.2804 33.8857 17.2151 33.6192 17.1502 33.354L17.1486 33.3474C14.7754 23.6541 12.8371 15.7369 23.4604 13.2497C23.5575 13.227 23.605 13.1108 23.5407 13.0346C22.3219 11.5886 20.0385 11.1146 17.1513 12.1107C17.0328 12.1515 16.93 12.0321 17.0036 11.9307C17.5698 11.1504 18.6762 10.5503 19.2224 10.2873C19.3353 10.2329 19.3284 10.0676 19.2088 10.0302C18.8515 9.91836 18.2432 9.7472 17.5589 9.63676C17.3971 9.61063 17.3825 9.33318 17.545 9.31132C21.6381 8.76062 25.9124 9.98949 28.0572 12.6913C28.0774 12.7168 28.1066 12.7345 28.1384 12.7414C35.9927 14.4281 36.5551 26.8442 35.6503 27.4097C35.472 27.5211 34.9003 27.4572 34.1462 27.3728C31.0901 27.0309 25.0383 26.3538 30.033 35.6623C30.0823 35.7542 30.017 35.8759 29.9139 35.8919C27.107 36.3284 30.6819 45.0945 33.3319 50.9086C43.7507 48.4932 51.5156 39.1534 51.5156 28C51.5156 15.0127 40.9873 4.48438 28 4.48438C15.0127 4.48438 4.48438 15.0127 4.48438 28C4.48438 38.9142 11.9198 48.0918 22.0015 50.7437Z" fill="white"/>
<path d="M36.8727 39.6804C36.2748 39.4033 33.9757 41.0521 32.4498 42.3178C32.1308 41.8666 31.5296 41.5386 30.1732 41.7744C28.986 41.9809 28.3307 42.2671 28.0382 42.7606C26.1645 42.0502 23.0122 40.9538 22.2507 42.0126C21.4182 43.1701 22.4587 48.6454 23.5643 49.3562C24.1416 49.7274 26.9027 47.9526 28.3446 46.7288C28.5772 47.0565 28.9517 47.2441 29.7217 47.2263C30.8861 47.1993 32.7748 46.9283 33.0679 46.386C33.0857 46.3531 33.101 46.3141 33.1141 46.2698C34.5961 46.8237 37.2044 47.4099 37.7872 47.3224C39.3057 47.0943 37.5757 40.0061 36.8727 39.6804Z" fill="#3CA82B"/>
<path d="M32.5897 42.4797C32.6526 42.5919 32.7031 42.7101 32.7461 42.8304C32.9574 43.4212 33.3016 45.301 33.0413 45.7653C32.781 46.2296 31.0903 46.4538 30.0473 46.4718C29.0044 46.4898 28.7696 46.1083 28.5583 45.5175C28.3893 45.0448 28.3061 43.9334 28.3081 43.2971C28.2654 42.3532 28.6102 42.0214 30.2042 41.7634C31.3839 41.5725 32.0075 41.7945 32.3675 42.1745C34.0422 40.9245 36.8365 39.1606 37.109 39.483C38.4679 41.0905 38.6397 44.917 38.3454 46.4565C38.2492 46.9598 33.7495 45.9579 33.7495 45.4151C33.7495 43.1613 33.1647 42.543 32.5897 42.4797Z" fill="#4CBA3C"/>
<path d="M22.7329 41.7759C23.1015 41.1926 26.0901 41.918 27.7306 42.6481C27.7306 42.6481 27.3935 44.1754 27.9302 45.9748C28.0872 46.5011 24.1559 48.8438 23.6428 48.4408C23.0497 47.975 21.9583 43.0019 22.7329 41.7759Z" fill="#4CBA3C"/>
<path fill-rule="evenodd" clip-rule="evenodd" d="M24.1801 29.9279C24.4219 28.8764 25.5483 26.8951 29.5706 26.9432C31.6041 26.9348 34.1301 26.9423 35.8047 26.7521C38.2938 26.4694 40.1413 25.8673 41.3724 25.3981C43.1136 24.7338 43.7315 24.8819 43.9481 25.2794C44.1861 25.7161 43.9057 26.4702 43.2973 27.1644C42.1352 28.4904 40.0461 29.5179 36.3564 29.8229C32.6667 30.1278 30.2223 29.1381 29.1701 30.7495C28.7163 31.4445 29.0672 33.0824 32.6353 33.5982C37.457 34.2941 41.4169 32.7598 41.9062 33.6864C42.3955 34.6131 39.577 36.4985 34.7475 36.5379C29.9181 36.5774 26.9015 34.847 25.8318 33.9869C24.4746 32.8956 23.8672 31.3042 24.1801 29.9279Z" fill="#FFCC33"/>
<g opacity="0.8">
<path d="M30.3306 18.4305C30.6 17.9894 31.1974 17.649 32.1749 17.649C33.1525 17.649 33.6124 18.038 33.9308 18.4718C33.9955 18.56 33.8974 18.6639 33.797 18.6204C33.7728 18.61 33.7483 18.5993 33.7235 18.5884C33.366 18.4323 32.927 18.2406 32.1749 18.2299C31.3706 18.2184 30.8634 18.4199 30.544 18.5935C30.4364 18.652 30.2668 18.5351 30.3306 18.4305Z" fill="#14307E"/>
<path d="M19.3248 18.9949C20.274 18.5982 21.0201 18.6495 21.5475 18.7742C21.6585 18.8005 21.7357 18.681 21.6469 18.6094C21.2375 18.2792 20.3214 17.8693 19.1265 18.3148C18.0606 18.7123 17.5581 19.5381 17.5552 20.081C17.5545 20.209 17.8177 20.2198 17.8858 20.1115C18.0698 19.8189 18.3756 19.3916 19.3248 18.9949Z" fill="#14307E"/>
<path fill-rule="evenodd" clip-rule="evenodd" d="M33.0053 24.4649C32.1661 24.4649 31.4854 23.786 31.4854 22.9506C31.4854 22.1151 32.1661 21.4363 33.0053 21.4363C33.8445 21.4363 34.5252 22.1151 34.5252 22.9506C34.5252 23.786 33.8445 24.4649 33.0053 24.4649ZM34.0758 22.4489C34.0758 22.2326 33.8986 22.0573 33.6823 22.0573C33.4659 22.0573 33.2906 22.2326 33.2888 22.4489C33.2888 22.6652 33.4659 22.8405 33.6823 22.8405C33.9004 22.8405 34.0758 22.6652 34.0758 22.4489Z" fill="#14307E"/>
<path fill-rule="evenodd" clip-rule="evenodd" d="M22.9353 23.9986C22.9353 24.9739 22.1427 25.7646 21.1637 25.7646C20.1865 25.7646 19.392 24.9739 19.392 23.9986C19.392 23.0232 20.1865 22.2325 21.1637 22.2325C22.1409 22.2325 22.9353 23.0232 22.9353 23.9986ZM22.4131 23.413C22.4131 23.1612 22.208 22.9561 21.9544 22.9561C21.7026 22.9561 21.4975 23.1594 21.4956 23.413C21.4956 23.6648 21.7008 23.8699 21.9544 23.8699C22.208 23.8699 22.4131 23.6648 22.4131 23.413Z" fill="#14307E"/>
</g>
</svg>
