<svg width="16" height="16" viewBox="0 0 16 16" fill="none" xmlns="http://www.w3.org/2000/svg">
<path fill-rule="evenodd" clip-rule="evenodd" d="M11.5465 7.31888C10.769 8.09635 9.50849 8.09635 8.73102 7.31888C7.95354 6.5414 7.95354 5.28087 8.73102 4.50339C9.50849 3.72592 10.769 3.72592 11.5465 4.50339C12.324 5.28087 12.324 6.5414 11.5465 7.31888ZM10.6626 6.43499C10.3733 6.72431 9.90422 6.72431 9.6149 6.43499C9.32558 6.14567 9.32558 5.67659 9.6149 5.38728C9.90422 5.09796 10.3733 5.09796 10.6626 5.38728C10.9519 5.67659 10.9519 6.14567 10.6626 6.43499Z" fill="white" fill-opacity="0.84"/>
<path fill-rule="evenodd" clip-rule="evenodd" d="M14.5163 0.358104C9.92683 0.792566 6.79295 2.76343 4.69328 5.43201C4.53761 5.41866 4.38167 5.41011 4.22564 5.4062C3.04981 5.37673 1.86922 5.6111 0.766292 6.04892C0.153083 6.29234 0.0435008 7.07695 0.510019 7.54347L2.42009 9.45353C2.36071 9.60333 2.30326 9.75384 2.24768 9.90497C2.11756 10.2588 2.21271 10.654 2.47932 10.9206L5.12864 13.5699C5.39525 13.8365 5.79037 13.9317 6.14424 13.8015C6.29555 13.7459 6.44624 13.6884 6.5962 13.6289L8.5054 15.5381C8.97191 16.0046 9.75652 15.895 9.99994 15.2818C10.4378 14.1789 10.6721 12.9983 10.6427 11.8225C10.6388 11.6669 10.6302 11.5114 10.617 11.3561C13.2857 9.25645 15.2566 6.12252 15.6911 1.53295C15.7296 1.12661 15.756 0.708867 15.7698 0.279419C15.3403 0.293216 14.9226 0.319638 14.5163 0.358104ZM3.4867 10.1602L5.88903 12.5625C8.1807 11.693 10.2461 10.3777 11.7764 8.46456C12.7183 7.287 13.4808 5.85401 13.9628 4.1051L11.9441 2.0864C10.1952 2.56837 8.76222 3.33094 7.58465 4.27284C5.67156 5.80308 4.35624 7.86851 3.4867 10.1602ZM1.75561 7.02129C2.34462 6.83228 2.94604 6.71296 3.54467 6.67086L2.79585 8.06153L1.75561 7.02129ZM9.02757 14.2925C9.21658 13.7035 9.3359 13.1021 9.378 12.5035L7.98733 13.2523L9.02757 14.2925ZM14.2828 2.65736L13.3919 1.76638C13.7259 1.70943 14.0703 1.66173 14.4253 1.62387C14.3875 1.97891 14.3398 2.32329 14.2828 2.65736Z" fill="white" fill-opacity="0.84"/>
<path d="M4.48318 13.6642C4.69417 13.9374 4.64374 14.3299 4.37055 14.5408C3.46675 15.2389 2.31266 15.6174 1.00788 15.71L0.28927 15.7609L0.340231 15.0423C0.432761 13.7375 0.811332 12.5834 1.50934 11.6796C1.72032 11.4064 2.11283 11.356 2.38602 11.567C2.65921 11.778 2.70963 12.1705 2.49865 12.4437C2.10779 12.9498 1.82977 13.5928 1.68426 14.3659C2.45736 14.2204 3.10041 13.9424 3.6065 13.5515C3.87969 13.3406 4.27219 13.391 4.48318 13.6642Z" fill="white" fill-opacity="0.84"/>
</svg>
