<svg width="1063" height="678" viewBox="0 0 1063 678" fill="none" xmlns="http://www.w3.org/2000/svg">
<path opacity="0.75" d="M965.998 537.39C955.379 526.426 944.188 510.428 932.645 503.283C921.103 496.137 910.812 496.765 906.151 494.439C901.49 492.114 897.434 488.737 894.301 484.576L863.048 443.076C859.914 438.913 855.856 435.536 851.193 433.21C846.531 430.884 841.391 429.675 836.181 429.676H784.051C778.64 429.676 773.309 428.369 768.511 425.868C763.713 423.367 759.59 419.744 756.491 415.308L727.689 374.062C725.998 371.639 723.793 369.619 721.233 368.145C718.672 366.67 715.819 365.777 712.875 365.53C709.93 365.282 706.968 365.686 704.197 366.712C701.426 367.738 698.915 369.362 696.843 371.467L678.649 389.969C676.66 391.993 674.265 393.573 671.622 394.606C668.979 395.639 666.147 396.101 663.313 395.962C660.479 395.823 657.706 395.086 655.177 393.799C652.647 392.512 650.419 390.705 648.638 388.496L587.648 312.896C585.72 310.504 583.269 308.586 580.485 307.289C577.7 305.991 574.656 305.349 571.584 305.41C568.513 305.472 565.497 306.236 562.766 307.644C560.036 309.052 557.665 311.067 555.834 313.533L453.532 451.354C451.851 453.621 449.712 455.509 447.254 456.896C444.795 458.282 442.073 459.136 439.263 459.401C436.453 459.667 433.619 459.338 430.945 458.436C428.271 457.535 425.816 456.081 423.74 454.169L389.343 422.563C387.198 420.582 384.647 419.091 381.868 418.194C379.088 417.298 376.147 417.017 373.249 417.372C370.35 417.726 367.563 418.708 365.082 420.248C362.601 421.788 360.485 423.85 358.881 426.29L289.514 531.967C286.59 536.419 282.604 540.075 277.916 542.604C273.228 545.133 267.985 546.457 262.658 546.456H207.571C202.457 546.455 197.417 547.676 192.87 550.016C188.323 552.356 184.401 555.749 181.43 559.911L162.279 586.724C159.419 590.725 155.679 594.016 151.347 596.345C147.015 598.674 142.207 599.978 137.292 600.157L71.3333 602.532V672.382L1061.64 678.102C1061.64 678.102 976.618 548.354 965.998 537.39Z" fill="url(#paint0_linear_1804_4999)"/>
<path opacity="0.75" fill-rule="evenodd" clip-rule="evenodd" d="M445.908 35.9731L464.74 34.599C465.277 34.5603 465.792 34.3661 466.222 34.0402C466.651 33.7143 466.976 33.2706 467.158 32.7632C468.969 27.6399 472.318 23.2009 476.748 20.0527C481.177 16.9046 486.47 15.2007 491.904 15.1741C495.335 15.1601 498.734 15.8339 501.9 17.1556C505.067 18.4773 507.936 20.4201 510.339 22.8693C510.755 23.3051 511.3 23.5958 511.894 23.6987C512.488 23.8016 513.099 23.7112 513.637 23.4409C515.768 22.331 518.129 21.7332 520.531 21.6951C522.934 21.6569 525.312 22.1794 527.477 23.2211C527.819 23.3763 528.189 23.4608 528.564 23.4698C528.94 23.4789 529.313 23.4121 529.662 23.2736C530.011 23.135 530.328 22.9276 530.595 22.6635C530.862 22.3995 531.073 22.0844 531.215 21.737C533.68 15.4264 537.965 9.99104 543.526 6.12151C549.087 2.25198 555.673 0.122995 562.446 0.00516968C569.22 -0.112656 575.876 1.78594 581.568 5.45973C587.261 9.13352 591.732 14.4166 594.415 20.6377C594.682 21.2553 595.161 21.7568 595.766 22.0512C596.371 22.3457 597.062 22.4136 597.713 22.2427C599.705 21.7464 601.749 21.4844 603.803 21.4622C607.469 21.5006 611.045 22.5995 614.1 24.6264C617.155 26.6533 619.558 29.5213 621.018 32.8841C621.22 33.3567 621.547 33.7656 621.963 34.0676C622.379 34.3695 622.87 34.5532 623.382 34.599L638.673 35.8302C642.795 36.0281 642.708 39.5349 638.398 39.5349H446.194C441.984 39.6778 441.786 36.16 445.908 35.9731Z" fill="white"/>
<defs>
<linearGradient id="paint0_linear_1804_4999" x1="501.462" y1="672.382" x2="501.462" y2="305.398" gradientUnits="userSpaceOnUse">
<stop stop-color="white" stop-opacity="0"/>
<stop offset="0.08" stop-color="white" stop-opacity="0.04"/>
<stop offset="0.23" stop-color="white" stop-opacity="0.13"/>
<stop offset="0.4" stop-color="white" stop-opacity="0.3"/>
<stop offset="0.61" stop-color="white" stop-opacity="0.52"/>
<stop offset="0.85" stop-color="white" stop-opacity="0.8"/>
<stop offset="1" stop-color="white"/>
</linearGradient>
</defs>
</svg>
