<svg fill="none" viewBox="0 0 24 24" xmlns="http://www.w3.org/2000/svg">
    <path fill="#fff" d="M7.194 5.293h4.607c1.795 0 3.126.268 3.993.804.873.53 1.31 1.358 1.31 2.485 0 .74-.19 1.373-.57 1.896a2.535 2.535 0 0 1-1.499 1.012v.09c.82.217 1.412.579 1.78 1.085.367.505.55 1.162.55 1.969 0 1.198-.45 2.144-1.354 2.836-.898.687-2.123 1.03-3.677 1.03h-5.14V5.293Zm3.568 5.068h1.075c.512 0 .907-.105 1.184-.316.283-.21.424-.524.424-.94 0-.74-.56-1.11-1.68-1.11h-1.003v2.366Zm0 2.61v2.774h1.256c1.114 0 1.671-.47 1.671-1.41 0-.439-.15-.776-.451-1.011-.295-.235-.726-.352-1.292-.352h-1.184Z"/>
</svg>
