<svg fill="none" viewBox="0 0 24 24" xmlns="http://www.w3.org/2000/svg">
    <path fill="#fff" d="M13.301 8.03c-.85 0-1.511.35-1.987 1.048-.476.693-.714 1.65-.714 2.873 0 2.541.967 3.812 2.9 3.812.584 0 1.15-.082 1.698-.244a16.984 16.984 0 0 0 1.653-.587v3.017c-1.102.487-2.349.731-3.74.731-1.993 0-3.523-.578-4.589-1.734-1.06-1.156-1.59-2.827-1.59-5.013 0-1.367.257-2.569.768-3.605.518-1.035 1.26-1.83 2.223-2.384.97-.56 2.107-.84 3.414-.84 1.427 0 2.791.31 4.092.93l-1.093 2.81a12.288 12.288 0 0 0-1.463-.579A5.114 5.114 0 0 0 13.3 8.03Z"/>
</svg>
