<svg fill="none" viewBox="0 0 24 24" xmlns="http://www.w3.org/2000/svg">
    <path fill="#fff" d="M11.883 10.767h5.7v7.119c-1.548.53-3.25.794-5.104.794-2.036 0-3.61-.59-4.725-1.77-1.108-1.18-1.662-2.864-1.662-5.05 0-2.131.609-3.79 1.825-4.977 1.216-1.186 2.92-1.78 5.113-1.78.83 0 1.614.079 2.348.235a9.912 9.912 0 0 1 1.933.597l-1.129 2.8c-.951-.47-1.996-.705-3.134-.705-1.042 0-1.849.34-2.421 1.021-.566.675-.85 1.641-.85 2.9 0 1.234.257 2.177.769 2.827.518.644 1.261.967 2.23.967a6.54 6.54 0 0 0 1.464-.154v-2.068h-2.357v-2.756Z"/>
</svg>
