<svg xmlns="http://www.w3.org/2000/svg" viewBox="0 0 32 32" fill="none"><path fill="#DE5833" fill-rule="evenodd" d="M16 32c8.837 0 16-7.163 16-16S24.837 0 16 0 0 7.163 0 16s7.163 16 16 16Z" clip-rule="evenodd"/><path fill="#DDD" fill-rule="evenodd" d="M18.25 27.938c0-.125.03-.154-.367-.946-1.056-2.115-2.117-5.096-1.634-7.019.088-.349-.995-12.936-1.76-13.341-.85-.453-1.898-1.172-2.855-1.332-.486-.078-1.123-.041-1.62.026-.089.012-.093.17-.008.2.327.11.724.302.958.593.044.055-.016.142-.086.144-.22.008-.62.1-1.148.549-.061.052-.01.148.068.133 1.134-.225 2.292-.114 2.975.506.044.04.021.113-.037.128-5.923 1.61-4.75 6.763-3.174 13.086 1.405 5.633 1.934 7.448 2.1 8.001a.18.18 0 0 0 .106.117c2.039.812 6.482.848 6.482-.533v-.313Z" clip-rule="evenodd"/><path fill="#fff" fill-rule="evenodd" d="M30.688 16c0 8.112-6.576 14.688-14.688 14.688-8.112 0-14.688-6.576-14.688-14.688C1.313 7.888 7.888 1.312 16 1.312c8.112 0 14.688 6.576 14.688 14.688ZM12.572 28.996a140.697 140.697 0 0 1-2.66-9.48L9.8 19.06v-.003C8.442 13.516 7.334 8.993 13.405 7.57c.055-.013.083-.08.046-.123-.697-.826-2.001-1.097-3.651-.528-.068.024-.127-.045-.085-.102.324-.446.956-.79 1.268-.94.065-.03.06-.125-.008-.146a6.968 6.968 0 0 0-.942-.225c-.093-.015-.101-.174-.008-.186 2.339-.315 4.781.387 6.007 1.931a.081.081 0 0 0 .046.029c4.488.964 4.81 8.058 4.293 8.382-.102.063-.429.027-.86-.021-1.746-.196-5.204-.583-2.35 4.736.028.053-.01.122-.068.132-1.604.25.438 5.258 1.953 8.58C25 27.71 29.437 22.374 29.437 16c0-7.421-6.016-13.438-13.437-13.438C8.579 2.563 2.562 8.58 2.562 16c0 6.237 4.25 11.481 10.01 12.996Z" clip-rule="evenodd"/><path fill="#3CA82B" d="M21.07 22.675c-.341-.159-1.655.783-2.527 1.507-.183-.258-.526-.446-1.301-.31-.678.117-1.053.28-1.22.563-1.07-.406-2.872-1.033-3.307-.428-.476.662.119 3.79.75 4.197.33.212 1.908-.802 2.732-1.502.133.188.347.295.787.284.665-.015 1.744-.17 1.912-.48a.341.341 0 0 0 .026-.066c.847.316 2.338.651 2.67.601.869-.13-.12-4.18-.522-4.366Z"/><path fill="#4CBA3C" d="M18.622 24.274a1.3 1.3 0 0 1 .09.2c.12.338.317 1.412.169 1.678-.15.265-1.115.393-1.711.403-.596.01-.73-.207-.851-.545-.097-.27-.144-.905-.143-1.269-.024-.539.173-.729 1.083-.876.674-.11 1.03.018 1.237.235.957-.714 2.553-1.722 2.709-1.538.777.918.875 3.105.707 3.985-.055.287-2.627-.285-2.627-.595 0-1.288-.334-1.642-.663-1.678ZM12.99 23.872c.21-.333 1.918.081 2.856.498 0 0-.193.873.114 1.901.09.301-2.157 1.64-2.45 1.41-.339-.267-.963-3.108-.52-3.809Z"/><path fill="#FC3" fill-rule="evenodd" d="M13.817 17.101c.138-.6.782-1.733 3.08-1.705 1.163-.005 2.606 0 3.563-.11a12.813 12.813 0 0 0 3.181-.773c.995-.38 1.348-.295 1.472-.068.136.25-.024.68-.372 1.077-.664.758-1.857 1.345-3.966 1.52-2.108.174-3.505-.392-4.106.529-.26.397-.06 1.333 1.98 1.628 2.755.397 5.018-.48 5.297.05.28.53-1.33 1.607-4.09 1.63-2.76.022-4.484-.967-5.095-1.458-.775-.624-1.123-1.533-.944-2.32Z" clip-rule="evenodd"/><g fill="#14307E" opacity=".8"><path d="M17.332 10.532c.154-.252.495-.447 1.054-.447.558 0 .821.222 1.003.47.037.05-.02.11-.076.085a29.677 29.677 0 0 1-.043-.018c-.204-.09-.455-.199-.884-.205-.46-.006-.75.109-.932.208-.062.033-.159-.034-.122-.093ZM11.043 10.854c.542-.226.968-.197 1.27-.126.063.015.107-.053.057-.094-.234-.189-.758-.423-1.44-.168-.61.227-.897.699-.899 1.009 0 .073.15.08.19.017.104-.167.28-.411.822-.638Z"/><path fill-rule="evenodd" d="M18.86 13.98a.867.867 0 0 1-.868-.865.867.867 0 0 1 1.737 0 .867.867 0 0 1-.869.865Zm.612-1.152a.225.225 0 0 0-.45 0 .225.225 0 0 0 .45 0ZM13.106 13.713a1.01 1.01 0 0 1-1.012 1.01 1.011 1.011 0 0 1-1.013-1.01c0-.557.454-1.009 1.013-1.009.558 0 1.012.452 1.012 1.01Zm-.299-.334a.262.262 0 0 0-.524 0 .262.262 0 0 0 .524 0Z" clip-rule="evenodd"/></g></svg>