<svg fill="none" viewBox="0 0 16 16" xmlns="http://www.w3.org/2000/svg">
  <g clip-path="url(#Info-Solid-16_svg__a)">
    <path fill="#000" fill-rule="evenodd" d="M16 8A8 8 0 1 1 0 8a8 8 0 0 1 16 0M8.483 3.645c-.743 0-1.196.598-1.196 1.152 0 .67.51.89.963.89.831 0 1.181-.628 1.181-1.138 0-.642-.51-.904-.948-.904m.43 2.9-1.827.296c-.055.442-.136.89-.218 1.343-.157.877-.32 1.78-.32 2.723 0 .937.56 1.448 1.447 1.448 1.011 0 1.185-.635 1.224-1.21-.839.121-1.023-.257-.886-1.148s.58-3.451.58-3.451Z" clip-rule="evenodd"/>
  </g>
  <defs>
    <clipPath id="Info-Solid-16_svg__a">
      <path fill="#fff" d="M0 0h16v16H0z"/>
    </clipPath>
  </defs>
</svg>
