<svg xmlns="http://www.w3.org/2000/svg" width="24" height="25" viewBox="0 0 24 25" fill="none">
    <path d="M12.7248 5.96753C11.6093 5.96753 10.9312 6.86431 10.9312 7.69548C10.9312 8.70163 11.6968 9.02972 12.3748 9.02972C13.6216 9.02972 14.1465 8.08919 14.1465 7.32364C14.1465 6.36124 13.381 5.96753 12.7248 5.96753Z" fill="white" fill-opacity="0.84"/>
    <path d="M13.3696 10.3183L10.6297 10.7613C10.5458 11.4244 10.4252 12.0951 10.3026 12.7763C10.0661 14.0912 9.82251 15.4455 9.82251 16.8607C9.82251 18.2659 10.6629 19.0328 11.9918 19.0328C13.5096 19.0328 13.7693 18.0801 13.8282 17.2171C12.57 17.3996 12.2936 16.8317 12.4992 15.495C12.7049 14.1584 13.3696 10.3183 13.3696 10.3183Z" fill="white" fill-opacity="0.84"/>
    <path fill-rule="evenodd" clip-rule="evenodd" d="M12 0.5C5.37258 0.5 0 5.87258 0 12.5C0 19.1274 5.37258 24.5 12 24.5C18.6274 24.5 24 19.1274 24 12.5C24 5.87258 18.6274 0.5 12 0.5ZM2.25 12.5C2.25 7.11522 6.61522 2.75 12 2.75C17.3848 2.75 21.75 7.11522 21.75 12.5C21.75 17.8848 17.3848 22.25 12 22.25C6.61522 22.25 2.25 17.8848 2.25 12.5Z" fill="white" fill-opacity="0.84"/>
</svg>
