<svg width="1063" height="678" viewBox="0 0 1063 678" fill="none" xmlns="http://www.w3.org/2000/svg">
<path opacity="0.75" d="M965.998 537.39C955.379 526.426 944.188 510.428 932.645 503.283C921.103 496.137 910.812 496.765 906.151 494.439C901.49 492.114 897.434 488.737 894.301 484.576L863.048 443.076C859.914 438.913 855.856 435.536 851.193 433.21C846.531 430.884 841.391 429.675 836.181 429.676H784.051C778.64 429.676 773.309 428.369 768.511 425.868C763.713 423.367 759.59 419.744 756.491 415.308L727.689 374.062C725.998 371.639 723.793 369.619 721.233 368.145C718.672 366.67 715.819 365.777 712.875 365.53C709.93 365.282 706.968 365.686 704.197 366.712C701.426 367.738 698.915 369.362 696.843 371.467L678.649 389.969C676.66 391.993 674.265 393.573 671.622 394.606C668.979 395.639 666.147 396.101 663.313 395.962C660.479 395.823 657.706 395.086 655.177 393.799C652.647 392.512 650.419 390.705 648.638 388.496L587.648 312.896C585.72 310.504 583.269 308.586 580.485 307.289C577.7 305.991 574.656 305.349 571.584 305.41C568.513 305.472 565.497 306.236 562.766 307.644C560.036 309.052 557.665 311.067 555.834 313.533L453.532 451.354C451.851 453.621 449.712 455.509 447.254 456.896C444.795 458.282 442.073 459.136 439.263 459.401C436.453 459.667 433.619 459.338 430.945 458.436C428.271 457.535 425.816 456.081 423.74 454.169L389.343 422.563C387.198 420.582 384.647 419.091 381.868 418.194C379.088 417.298 376.147 417.017 373.249 417.372C370.35 417.726 367.563 418.708 365.082 420.248C362.601 421.788 360.485 423.85 358.881 426.29L289.514 531.967C286.59 536.419 282.604 540.075 277.916 542.604C273.228 545.133 267.985 546.457 262.658 546.456H207.571C202.457 546.455 197.417 547.676 192.87 550.016C188.323 552.356 184.401 555.749 181.43 559.911L162.279 586.724C159.419 590.725 155.679 594.016 151.347 596.345C147.015 598.674 142.207 599.978 137.292 600.157L71.3333 602.532V672.382L1061.64 678.102C1061.64 678.102 976.618 548.354 965.998 537.39Z" fill="url(#paint0_linear_1804_4999)"/>
<path opacity="0.75" d="M1062.03 642.599L1032.18 602.628C1029.19 598.651 1025.32 595.424 1020.87 593.203C1016.42 590.982 1011.51 589.828 1006.54 589.832H995.977C991.258 589.831 986.598 588.786 982.329 586.774C978.061 584.761 974.29 581.83 971.287 578.19L907.317 500.645C905.42 498.345 903.038 496.492 900.343 495.216C897.647 493.941 894.704 493.276 891.722 493.268C888.741 493.259 885.794 493.908 883.091 495.168C880.388 496.428 877.997 498.268 876.086 500.557L757.503 642.599H1062.03Z" fill="url(#paint1_linear_1804_4999)"/>
<path opacity="0.75" d="M892.917 315.94L874.998 315.127C870.997 314.945 867.046 316.074 863.745 318.341C860.443 320.609 857.972 323.892 856.705 327.692C855.443 323.892 852.974 320.608 849.674 318.34C846.374 316.072 842.424 314.944 838.424 315.127L820.505 315.94C820.106 315.959 819.728 316.126 819.444 316.408C819.161 316.69 818.992 317.067 818.97 317.466C818.948 317.865 819.075 318.258 819.326 318.569C819.577 318.88 819.934 319.087 820.329 319.15L836.467 321.569C839.896 322.084 843.109 323.558 845.736 325.82C848.364 328.082 850.299 331.04 851.319 334.354C851.672 335.508 852.387 336.518 853.358 337.236C854.328 337.954 855.504 338.341 856.711 338.341C857.918 338.341 859.094 337.954 860.064 337.236C861.035 336.518 861.75 335.508 862.103 334.354C863.128 331.046 865.066 328.095 867.693 325.839C870.32 323.583 873.53 322.115 876.955 321.602L893.093 319.183C893.523 319.16 893.926 318.967 894.214 318.646C894.501 318.325 894.65 317.904 894.626 317.474C894.603 317.044 894.41 316.64 894.089 316.353C893.769 316.065 893.347 315.917 892.917 315.94V315.94Z" fill="white"/>
<path opacity="0.75" d="M906.554 371.07L894.682 371.609C892.035 371.725 889.423 370.976 887.241 369.474C885.059 367.973 883.426 365.8 882.589 363.287C881.756 365.802 880.123 367.977 877.941 369.479C875.758 370.981 873.144 371.729 870.497 371.609L858.624 371.07C858.387 371.02 858.173 370.893 858.016 370.709C857.859 370.525 857.766 370.294 857.754 370.052C857.741 369.81 857.809 369.57 857.947 369.371C858.084 369.171 858.284 369.023 858.514 368.949L869.2 367.344C871.48 367.011 873.619 366.039 875.37 364.541C877.121 363.043 878.412 361.08 879.093 358.879V358.879C879.325 358.113 879.797 357.442 880.439 356.965C881.082 356.488 881.861 356.23 882.661 356.23C883.461 356.23 884.24 356.488 884.882 356.965C885.525 357.442 885.996 358.113 886.228 358.879V358.879C886.91 361.08 888.2 363.043 889.951 364.541C891.702 366.039 893.842 367.011 896.122 367.344L906.807 368.949C907.038 369.035 907.233 369.196 907.362 369.406C907.49 369.617 907.544 369.864 907.515 370.109C907.486 370.354 907.375 370.581 907.201 370.756C907.027 370.93 906.799 371.041 906.554 371.07V371.07Z" fill="white"/>
<path opacity="0.75" d="M338.961 338.582L327.078 338.043C324.431 337.927 321.819 338.676 319.637 340.178C317.455 341.679 315.822 343.851 314.985 346.365C314.149 343.851 312.516 341.679 310.334 340.178C308.151 338.676 305.539 337.927 302.893 338.043L291.02 338.582C290.783 338.632 290.57 338.759 290.412 338.943C290.255 339.127 290.163 339.358 290.15 339.6C290.138 339.842 290.205 340.082 290.343 340.281C290.48 340.48 290.68 340.629 290.91 340.703L301.596 342.308C303.878 342.641 306.018 343.614 307.77 345.114C309.521 346.614 310.811 348.58 311.49 350.784V350.784C311.724 351.548 312.198 352.217 312.841 352.692C313.484 353.167 314.263 353.424 315.062 353.424C315.862 353.424 316.64 353.167 317.283 352.692C317.926 352.217 318.4 351.548 318.635 350.784V350.784C319.31 348.588 320.591 346.627 322.332 345.127C324.073 343.628 326.202 342.65 328.474 342.308L339.17 340.703C339.401 340.621 339.597 340.463 339.728 340.256C339.858 340.049 339.916 339.805 339.892 339.561C339.868 339.318 339.764 339.089 339.595 338.911C339.427 338.734 339.203 338.618 338.961 338.582V338.582Z" fill="white"/>
<path opacity="0.75" fill-rule="evenodd" clip-rule="evenodd" d="M671.026 157.054L693.606 155.35C694.252 155.301 694.869 155.068 695.386 154.678C695.902 154.289 696.296 153.758 696.519 153.151C698.704 147.018 702.725 141.706 708.036 137.939C713.347 134.172 719.69 132.133 726.201 132.099C730.318 132.087 734.396 132.901 738.194 134.493C741.991 136.084 745.43 138.422 748.308 141.367C748.807 141.887 749.459 142.233 750.169 142.356C750.88 142.479 751.61 142.371 752.255 142.048C754.812 140.715 757.645 139.997 760.529 139.951C763.412 139.905 766.267 140.533 768.865 141.784C769.276 141.98 769.722 142.088 770.176 142.103C770.63 142.118 771.083 142.039 771.505 141.871C771.927 141.703 772.31 141.449 772.629 141.126C772.949 140.802 773.198 140.417 773.362 139.993C776.319 132.415 781.464 125.889 788.141 121.245C794.819 116.6 802.727 114.047 810.86 113.91C818.993 113.773 826.982 116.059 833.812 120.477C840.642 124.894 846.004 131.244 849.214 138.717C849.534 139.457 850.107 140.057 850.831 140.412C851.554 140.767 852.38 140.852 853.161 140.652C855.553 140.057 858.006 139.744 860.471 139.718C864.871 139.761 869.164 141.079 872.83 143.512C876.496 145.945 879.378 149.389 881.127 153.426C881.37 153.992 881.762 154.481 882.262 154.841C882.762 155.202 883.35 155.419 883.963 155.471L902.311 156.944C907.258 157.186 907.148 161.396 901.97 161.396H671.367C666.266 161.506 666.079 157.285 671.026 157.054Z" fill="white"/>
<path opacity="0.75" fill-rule="evenodd" clip-rule="evenodd" d="M195.791 451.594L176.959 450.22C176.422 450.181 175.907 449.987 175.477 449.661C175.048 449.335 174.723 448.892 174.541 448.384C172.73 443.261 169.381 438.822 164.951 435.674C160.522 432.526 155.229 430.822 149.795 430.795C146.364 430.781 142.965 431.455 139.799 432.777C136.632 434.098 133.763 436.041 131.36 438.49C130.944 438.926 130.399 439.217 129.805 439.32C129.211 439.423 128.6 439.332 128.062 439.062C125.931 437.952 123.57 437.354 121.168 437.316C118.765 437.278 116.387 437.801 114.222 438.842C113.88 438.997 113.51 439.082 113.135 439.091C112.759 439.1 112.386 439.033 112.037 438.895C111.688 438.756 111.371 438.549 111.104 438.285C110.837 438.021 110.626 437.705 110.484 437.358C108.019 431.048 103.734 425.612 98.1731 421.743C92.6121 417.873 86.0263 415.744 79.2525 415.626C72.4787 415.508 65.8229 417.407 60.1307 421.081C54.4385 424.755 49.9669 430.038 47.2843 436.259C47.0173 436.876 46.5378 437.378 45.9327 437.672C45.3277 437.967 44.6372 438.035 43.9864 437.864C41.9936 437.368 39.9497 437.106 37.8961 437.083C34.2302 437.122 30.6538 438.221 27.5989 440.247C24.5439 442.274 22.1412 445.142 20.6809 448.505C20.4785 448.978 20.1519 449.387 19.7357 449.689C19.3196 449.991 18.8295 450.174 18.3174 450.22L3.02595 451.451C-1.09648 451.649 -1.00853 455.156 3.30078 455.156H195.505C199.715 455.299 199.913 451.781 195.791 451.594Z" fill="white"/>
<path opacity="0.75" fill-rule="evenodd" clip-rule="evenodd" d="M445.908 35.9731L464.74 34.599C465.277 34.5603 465.792 34.3661 466.222 34.0402C466.651 33.7143 466.976 33.2706 467.158 32.7632C468.969 27.6399 472.318 23.2009 476.748 20.0527C481.177 16.9046 486.47 15.2007 491.904 15.1741C495.335 15.1601 498.734 15.8339 501.9 17.1556C505.067 18.4773 507.936 20.4201 510.339 22.8693C510.755 23.3051 511.3 23.5958 511.894 23.6987C512.488 23.8016 513.099 23.7112 513.637 23.4409C515.768 22.331 518.129 21.7332 520.531 21.6951C522.934 21.6569 525.312 22.1794 527.477 23.2211C527.819 23.3763 528.189 23.4608 528.564 23.4698C528.94 23.4789 529.313 23.4121 529.662 23.2736C530.011 23.135 530.328 22.9276 530.595 22.6635C530.862 22.3995 531.073 22.0844 531.215 21.737C533.68 15.4264 537.965 9.99104 543.526 6.12151C549.087 2.25198 555.673 0.122995 562.446 0.00516968C569.22 -0.112656 575.876 1.78594 581.568 5.45973C587.261 9.13352 591.732 14.4166 594.415 20.6377C594.682 21.2553 595.161 21.7568 595.766 22.0512C596.371 22.3457 597.062 22.4136 597.713 22.2427C599.705 21.7464 601.749 21.4844 603.803 21.4622C607.469 21.5006 611.045 22.5995 614.1 24.6264C617.155 26.6533 619.558 29.5213 621.018 32.8841C621.22 33.3567 621.547 33.7656 621.963 34.0676C622.379 34.3695 622.87 34.5532 623.382 34.599L638.673 35.8302C642.795 36.0281 642.708 39.5349 638.398 39.5349H446.194C441.984 39.6778 441.786 36.16 445.908 35.9731Z" fill="white"/>
<defs>
<linearGradient id="paint0_linear_1804_4999" x1="501.462" y1="672.382" x2="501.462" y2="305.398" gradientUnits="userSpaceOnUse">
<stop stop-color="white" stop-opacity="0"/>
<stop offset="0.08" stop-color="white" stop-opacity="0.04"/>
<stop offset="0.23" stop-color="white" stop-opacity="0.13"/>
<stop offset="0.4" stop-color="white" stop-opacity="0.3"/>
<stop offset="0.61" stop-color="white" stop-opacity="0.52"/>
<stop offset="0.85" stop-color="white" stop-opacity="0.8"/>
<stop offset="1" stop-color="white"/>
</linearGradient>
<linearGradient id="paint1_linear_1804_4999" x1="909.769" y1="642.599" x2="909.769" y2="493.224" gradientUnits="userSpaceOnUse">
<stop stop-color="white" stop-opacity="0"/>
<stop offset="0.1" stop-color="white" stop-opacity="0.07"/>
<stop offset="0.3" stop-color="white" stop-opacity="0.25"/>
<stop offset="0.58" stop-color="white" stop-opacity="0.53"/>
<stop offset="0.93" stop-color="white" stop-opacity="0.92"/>
<stop offset="1" stop-color="white"/>
</linearGradient>
</defs>
</svg>
