<svg width="96" height="96" viewBox="0 0 96 96" fill="none" xmlns="http://www.w3.org/2000/svg">
<path d="M15.4154 50.9111C14.0597 35.3694 27.5815 21.9986 45.6172 21.0467C63.6528 20.0949 79.3726 31.9221 80.7283 47.4638C81.2401 53.3305 79.6314 58.8875 76.4607 63.5842C75.9573 64.3299 75.8726 65.2995 76.2923 66.1371L79.7519 73.0416C80.2474 74.0305 79.4267 75.1022 78.3388 74.8868L67.6624 72.7723C67.0576 72.6525 66.4419 72.7556 65.9192 73.0424C61.4541 75.4919 56.2149 77.028 50.5265 77.3282C32.491 78.28 16.7712 66.4527 15.4154 50.9111Z" fill="#C19EDB"/>
<path d="M45.0426 35.3283C45.6908 35.1675 46.3971 35.4657 46.7252 36.0427C47.6508 37.7037 48.3553 39.3995 49.3324 40.8952C49.9546 41.8447 50.6972 42.7181 51.6461 43.2397C51.7428 43.2926 51.8151 43.383 51.8475 43.4895C51.88 43.596 51.87 43.7101 51.8192 43.8078C51.7685 43.9056 51.6809 43.9796 51.5751 44.0144C51.4693 44.0491 51.3539 44.042 51.255 43.9934C50.0926 43.4169 49.2146 42.4615 48.4909 41.4807C47.3601 39.9352 46.5377 38.2426 45.5766 36.729C45.539 36.6779 45.4429 36.6543 45.391 36.6814C45.3388 36.7101 45.3584 36.7239 45.3654 36.7314C45.5407 39.5257 46.7259 42.6084 45.0812 45.8684C45.0765 45.8763 45.0718 45.8844 45.067 45.8923C43.231 48.4905 40.5055 48.9559 38.3866 50.0088C40.8371 49.8996 43.5442 48.9855 46.4891 50.2993C49.5508 52.0942 50.5194 55.1871 51.9498 57.5979C51.7802 54.908 50.8309 51.9233 52.4276 48.8047C52.4311 48.7989 52.4347 48.7931 52.4381 48.7873C54.3993 46.0407 57.3229 45.7896 59.526 44.6731C59.5355 44.6736 59.5364 44.6826 59.547 44.674C59.5564 44.6659 59.5666 44.6406 59.5609 44.604C59.5572 44.5794 59.5477 44.5537 59.5324 44.5305C59.5245 44.5185 59.5151 44.5074 59.505 44.4975C59.4738 44.4676 59.4424 44.4486 59.4052 44.4389C58.5108 44.4162 57.5695 44.4233 56.6256 44.445C56.528 44.4472 56.4299 44.4083 56.3539 44.3413C56.2779 44.274 56.2297 44.1842 56.2199 44.0871C56.21 43.9901 56.239 43.8924 56.2999 43.8112C56.3609 43.7303 56.449 43.6723 56.5451 43.6548C57.4643 43.4888 58.384 43.2579 59.3622 43.1682C59.6948 43.1448 60.0344 43.2483 60.298 43.4409C60.386 43.5046 60.4671 43.5775 60.5394 43.6582C60.6793 43.8139 60.7875 43.9996 60.8541 44.2014C61.073 44.7909 60.8159 45.6163 60.1764 45.9382C57.8297 47.2258 55.0628 47.9965 53.9689 49.7075C53.9667 49.7112 53.9645 49.715 53.9623 49.7187C52.7859 51.8202 53.5694 54.9022 53.7475 57.8796C53.815 58.654 53.211 59.4078 52.5043 59.5642C51.7762 59.7557 50.9684 59.433 50.5817 58.7727C49.0182 56.1232 47.913 53.0967 45.673 51.8632C43.7038 50.8927 40.9061 51.6557 38.1215 51.7646C37.3474 51.7944 36.6614 51.2644 36.4496 50.5644C36.2161 49.9004 36.5252 48.9851 37.2355 48.6452C39.658 47.4206 42.4589 46.7572 43.5892 45.0085C43.5924 45.0033 43.5954 44.9981 43.5985 44.9929C44.7752 42.8818 44.029 39.7821 43.9164 36.8227C43.8626 36.1237 44.4114 35.4588 45.0426 35.3283Z" fill="#682A7A"/>
<path fill-rule="evenodd" clip-rule="evenodd" d="M45.5387 20.3044C63.8926 19.3357 80.0808 31.3854 81.4811 47.4367C82.0085 53.4823 80.3489 59.1986 77.0966 64.0163C76.726 64.5652 76.6775 65.2576 76.9672 65.8357L80.4267 72.7402C81.1865 74.257 79.9592 75.899 78.3036 75.6298L78.2245 75.6154L67.548 73.5009C67.1292 73.418 66.6916 73.4875 66.3114 73.696C61.7506 76.1979 56.4039 77.7646 50.6037 78.0708C32.2498 79.0394 16.0615 66.9893 14.6613 50.938C13.2624 34.9012 27.1898 21.2729 45.5387 20.3044ZM79.974 47.4907C78.6627 32.4588 63.4115 20.8542 45.6942 21.7893C27.972 22.7246 14.8557 35.8374 16.1681 50.884C17.4794 65.9159 32.7309 77.5207 50.4481 76.5857C56.0245 76.2913 61.1561 74.7858 65.5255 72.3889C66.1907 72.024 66.9847 71.8868 67.7755 72.0434L78.452 74.1582C78.9323 74.2531 79.2946 73.7797 79.0758 73.343L75.6163 66.4387C75.0667 65.3418 75.1874 64.0945 75.8236 63.1521C78.9126 58.5763 80.4702 53.1784 79.974 47.4907Z" fill="#682A7A"/>
<path d="M76.1336 17.5572C76.2356 17.5338 76.3453 17.5375 76.4434 17.5787C76.5414 17.6198 76.6196 17.694 76.6619 17.7877C76.7041 17.8814 76.7077 17.9892 76.6736 18.0899C76.6395 18.1907 76.5697 18.2753 76.4847 18.3362C76.4004 18.3964 76.3156 18.4557 76.2305 18.514C75.4644 19.0389 74.6645 19.4893 73.8311 19.8651C72.9977 20.2408 72.1249 20.5294 71.2129 20.7308C71.1116 20.7532 71.0096 20.7743 70.9073 20.7945C70.8177 20.812 70.7223 20.8077 70.637 20.7713C70.5517 20.735 70.4839 20.6707 70.4473 20.5894C70.4107 20.5082 70.4073 20.4147 70.4366 20.3267C70.4658 20.2387 70.5258 20.1642 70.5982 20.1087C70.6811 20.0454 70.7643 19.9831 70.8482 19.9219C71.603 19.3718 72.3973 18.909 73.2307 18.5333C74.0642 18.1575 74.9314 17.8565 75.8321 17.63C75.9321 17.6048 76.0327 17.5805 76.1336 17.5572Z" fill="#7D4794"/>
<path d="M67.9868 10.1558C68.0846 10.1167 68.1908 10.114 68.2854 10.15C68.3801 10.186 68.4577 10.2586 68.5047 10.3529C68.5517 10.4471 68.5631 10.5549 68.5493 10.6575C68.5372 10.7462 68.5243 10.8347 68.5103 10.9227C68.3843 11.7143 68.1816 12.4768 67.9026 13.2103C67.6236 13.9437 67.2554 14.6434 66.7976 15.3089C66.7468 15.3828 66.6949 15.4563 66.6419 15.5294C66.5886 15.6023 66.5175 15.6651 66.4322 15.6986C66.3469 15.732 66.2552 15.7338 66.1734 15.7027C66.0915 15.6716 66.0242 15.6093 65.9827 15.5277C65.9412 15.4459 65.9298 15.352 65.9385 15.262C65.9474 15.1722 65.9574 15.0827 65.9685 14.9937C66.0688 14.1922 66.2584 13.4245 66.5374 12.691C66.8164 11.9575 67.1721 11.253 67.604 10.5777C67.652 10.5027 67.7009 10.4281 67.7508 10.3538C67.8087 10.2679 67.889 10.195 67.9868 10.1558Z" fill="#7D4794"/>
<path d="M56.7505 10.3785C56.8379 10.3308 56.9416 10.3188 57.0428 10.3433C57.144 10.3678 57.2333 10.4275 57.3045 10.5015C57.3582 10.5577 57.4112 10.6145 57.4632 10.6717C57.931 11.1865 58.3272 11.7405 58.6514 12.3338C58.9756 12.9271 59.2159 13.5665 59.3723 14.2515C59.3897 14.3276 59.4061 14.4045 59.4214 14.4818C59.4385 14.5696 59.4385 14.6629 59.4082 14.7481C59.378 14.8334 59.3208 14.903 59.2454 14.9442C59.17 14.9853 59.0805 14.9958 58.9925 14.9752C58.9044 14.9546 58.8259 14.9041 58.7613 14.8424C58.7046 14.7878 58.6487 14.7325 58.594 14.6768C58.102 14.1752 57.6936 13.6278 57.3694 13.0345C57.0452 12.4412 56.7927 11.8084 56.6121 11.1365C56.592 11.062 56.573 10.9868 56.5547 10.9112C56.5309 10.8114 56.529 10.7042 56.563 10.6058C56.597 10.5074 56.6631 10.4262 56.7505 10.3785Z" fill="#7D4794"/>
</svg>
