<svg width="1280" height="200" viewBox="0 0 1280 200" fill="none" xmlns="http://www.w3.org/2000/svg">
<g clip-path="url(#clip0_3427_33757)">
<g filter="url(#filter0_nn_3427_33757)">
<path d="M368.773 227.791C564.404 227.791 1184.29 227.791 1307.01 227.791L1307.01 147C1229.51 51.5002 1175.05 153.874 1082.51 117.5C968.594 72.729 971.5 23.9995 900 4.99983C828.5 -13.9999 773.5 47.0002 734 77.0002C697.545 104.688 661.843 69.4523 634.809 88.901C607.692 108.41 607.843 164.091 574.011 186.591C520.868 221.913 349.558 121.539 368.773 227.791Z" fill="#123269"/>
</g>
<path d="M935.246 146.419C824.731 162.494 746.62 198.408 733.289 224.418C783.523 240.493 966.043 272.642 1142.87 272.642C1264.43 233.46 1313.66 180.212 1269.46 166.146C1225.25 152.08 1137.84 148.062 1072.54 166.146C1007.24 184.23 932.414 202.524 966.573 178.412C1000.73 154.3 1045.76 130.344 935.246 146.419Z" fill="#051E3D"/>
<path d="M608.821 201.945C608.806 202.125 608.863 202.303 608.98 202.441C609.097 202.579 609.264 202.665 609.444 202.679C609.625 202.694 609.803 202.637 609.941 202.52C610.079 202.403 610.165 202.236 610.179 202.055C610.179 202.055 610.179 202.055 610.179 202.055C610.565 197.313 611.417 192.64 612.791 188.121C621.908 155.544 661.638 136.711 692.818 148.692C706.54 154.263 718.795 162.906 733.028 167.888C739.934 170.516 749.341 169.422 753.8 162.828C758.442 156.724 760.549 149.403 762.363 142.12C762.789 140.344 763.205 138.794 763.723 137.091C766.641 127.368 772.204 116.722 782.768 114.75C793.07 112.879 803.292 117.432 812.982 121.135C817.432 122.882 821.892 124.683 826.498 125.972C826.553 125.988 826.612 125.98 826.661 125.952C826.711 125.924 826.748 125.878 826.764 125.823C826.779 125.768 826.772 125.709 826.745 125.659C826.717 125.609 826.67 125.572 826.616 125.557C826.616 125.557 826.616 125.557 826.616 125.557C822.059 124.227 817.636 122.375 813.211 120.566C803.556 116.747 793.409 111.918 782.563 113.712C771.331 115.681 765.436 126.88 762.49 136.714C761.962 138.447 761.539 140.019 761.106 141.819C759.32 149.02 757.188 156.248 752.779 162.022C748.522 168.172 740.229 169.134 733.421 166.637C719.55 161.792 707.155 153.096 693.332 147.47C661.262 135.182 620.91 154.382 611.491 187.726C610.086 192.343 609.215 197.113 608.821 201.945Z" fill="#3377AD"/>
<g filter="url(#filter1_nn_3427_33757)">
<path d="M582.201 124.48C574.942 117.221 579.33 109.19 584.978 108.379C588.373 107.892 593.269 109.964 593.269 115.865C593.269 121.767 587.918 130.197 582.201 124.48Z" fill="#123269"/>
</g>
<path d="M1156 147C1095.77 151.766 1071.5 78.4661 969 144C938.5 163.5 906.436 145.25 873.5 149.5C841.682 153.605 811.712 191.5 803.911 215.646C848.136 215.646 1201.65 207 1272 207C1207.94 196.855 1225.5 141.5 1156 147Z" fill="#3A6F77"/>
<path d="M1149.02 157.75C1150.69 158.099 1155.67 159.11 1159.69 161.456C1167.98 152.631 1174.78 142.272 1176.95 136.099C1181.13 124.214 1164.02 121.292 1155.6 128.506L1149.02 157.75Z" fill="#076D55"/>
<path d="M1159.28 162.161C1159.55 161.691 1159.83 161.22 1160.1 160.75C1158.52 159.925 1156.87 159.294 1155.21 158.761C1153.36 158.168 1151.48 157.704 1149.59 157.308C1149.44 157.276 1149.28 157.242 1149.13 157.21L1149.56 157.872C1150.71 152.911 1152.32 148.056 1153.44 143.089C1154.52 138.308 1155.35 133.473 1156.28 128.659L1156.06 129.036C1157.52 127.7 1159.31 126.699 1161.22 126.075C1164.96 124.88 1169.2 124.794 1172.74 126.412C1176.44 127.909 1177.9 132.24 1176.35 135.888C1173.26 143.693 1168.01 150.665 1162.53 157.119C1161.42 158.406 1160.27 159.666 1159.1 160.896C1159.49 161.269 1159.89 161.642 1160.29 162.015C1161.46 160.746 1162.6 159.449 1163.71 158.127C1169.18 151.476 1174.37 144.483 1177.55 136.309C1179.31 132.375 1177.43 126.879 1173.25 125.323C1169.31 123.55 1164.85 123.686 1160.86 124.952C1158.82 125.619 1156.85 126.598 1155.15 127.975C1155.07 128.046 1154.94 128.249 1154.92 128.352C1153.7 133.101 1152.38 137.828 1151.31 142.609C1150.19 147.576 1149.57 152.656 1148.48 157.629C1148.41 157.939 1148.6 158.228 1148.91 158.29C1149.06 158.32 1149.22 158.353 1149.36 158.384C1151.22 158.774 1153.04 159.275 1154.8 159.94C1156.38 160.536 1157.9 161.26 1159.28 162.161ZM1160.1 160.75L1159.28 162.161C1159.6 162.328 1160.04 162.28 1160.29 162.015L1159.1 160.896L1160.1 160.75Z" fill="#051E3D"/>
<g filter="url(#filter2_nn_3427_33757)">
<path d="M1056.35 163.363C1055.75 147.111 1079.08 145.862 1083.29 153.732L1075.2 168.401C1073.69 168.089 1060.59 164.61 1056.35 163.363Z" fill="#1D383C"/>
</g>
<g filter="url(#filter3_nn_3427_33757)">
<path d="M904.654 162.544C910.015 154.426 904.94 151.938 898.509 152.79L896.868 163.57C898.272 163.544 902.387 162.482 904.654 162.544Z" fill="#1D383C"/>
</g>
<path d="M1158.39 82.6963C1177.52 94.0117 1164.97 133.575 1152 158.167C1139.5 154.667 1136.5 159.167 1126.95 167.477C1107 174.667 1086 172.167 1071.57 167.477C1071.57 150.167 1066.11 144.677 1061.5 136.667C1052 120.167 1053.5 111.167 1057 106.667C1061.5 100.882 1073.5 100.167 1081.05 121.528C1066.08 62.6341 1095.81 51.084 1114.98 61.3397C1124 66.1674 1129.5 83.6675 1130.5 93.1675C1134 85.1674 1146.5 75.6675 1158.39 82.6963Z" fill="#076D55"/>
<path d="M1151.28 157.786C1151.76 158.04 1152.24 158.295 1152.72 158.549C1155.98 152.18 1158.85 145.635 1161.33 138.932C1164.08 131.46 1166.37 123.792 1167.71 115.922C1169.55 104.424 1170.43 89.2784 1158.83 81.9482C1149.96 76.1121 1137.86 80.6573 1131.99 88.5864C1131.02 89.8534 1130.15 91.2366 1129.5 92.7306L1131.58 93.0534C1129.66 81.0708 1126.32 67.9177 1115.39 60.5784C1108.46 56.9176 1099.82 55.9913 1092.57 59.2738C1085.22 62.4906 1080.52 69.7114 1078.43 77.0939C1074.38 91.808 1076.92 107.217 1080.47 121.675L1081.61 121.328C1079.65 115.861 1077.09 110.381 1072.71 106.299C1068.65 102.033 1060.39 100.964 1056.51 106.288C1049.91 116.303 1056.08 127.999 1060.94 136.989C1067.26 146.131 1071.34 156.388 1070.89 167.477C1070.89 167.748 1071.1 168.04 1071.36 168.124C1089.34 173.867 1109.25 174.592 1127.21 168.196C1127.27 168.176 1127.41 168.093 1127.45 168.054C1129.3 166.456 1131.07 164.83 1132.89 163.256C1135.55 160.965 1138.35 158.762 1141.64 158.075C1144.93 157.361 1148.41 158.016 1151.78 158.954C1151.93 158.43 1152.07 157.905 1152.22 157.381C1148.74 156.433 1145.03 155.705 1141.3 156.52C1137.55 157.328 1134.56 159.765 1131.88 162.081C1130.03 163.687 1128.28 165.311 1126.45 166.901L1126.69 166.758C1109.15 173.083 1089.5 172.447 1071.78 166.83L1072.25 167.477C1072.75 156.297 1068.3 145.25 1062.06 136.346C1057.17 127.511 1051.48 115.942 1057.49 107.047C1060.88 102.427 1068.01 103.218 1071.89 107.199C1076.02 111.02 1078.56 116.361 1080.48 121.727C1080.72 122.404 1081.81 122.075 1081.63 121.38C1078.09 107.032 1075.61 91.7338 1079.56 77.427C1082.62 62.0271 1101.44 53.8344 1114.57 62.101C1124.2 68.6687 1127.71 81.8516 1129.42 93.2816C1129.54 94.4842 1131.01 94.7126 1131.5 93.6044C1132.07 92.314 1132.84 91.0684 1133.73 89.9191C1139.18 82.6535 1149.81 78.3937 1157.95 83.4445C1168.6 89.6247 1168.54 104.328 1166.63 115.739C1165.3 123.512 1162.98 131.113 1160.16 138.493C1157.62 145.112 1154.65 151.561 1151.28 157.786ZM1152.72 158.549L1151.28 157.786L1152.22 157.381L1151.78 158.954C1152.13 159.054 1152.55 158.871 1152.72 158.549Z" fill="#051E3D"/>
<path d="M871.159 165.183C863.949 151.646 866.308 144.184 872.469 144.725C876.914 145.116 879.312 147.834 880.174 149.533C878.503 145.498 877.372 136.836 884.91 130.601C894.755 122.458 905.893 138.41 899.126 162.771C890.238 164.181 880.596 167.23 871.159 165.183Z" fill="#076D55"/>
<path d="M870.438 165.567C870.919 165.311 871.399 165.055 871.88 164.799C870.8 162.949 869.827 161.03 869.039 159.063C868.159 156.847 867.482 154.555 867.298 152.221C866.809 148.702 868.898 144.797 872.393 145.59C875.098 145.92 877.548 147.393 878.925 149.55C879.11 149.841 879.274 150.152 879.378 150.427L881.388 149.582C878.611 143.576 879.77 135.488 885.304 131.078C886.218 130.299 887.241 129.675 888.346 129.335C895.241 127.453 899.205 136.079 900.104 142.305C901.177 149.042 900.328 155.996 898.48 162.591L899.021 162.108C891.808 163.243 884.758 165.194 877.613 165.091C875.493 165.061 873.384 164.845 871.332 164.385C871.217 164.917 871.101 165.449 870.986 165.982C873.168 166.441 875.391 166.64 877.6 166.645C885.04 166.656 892.137 164.598 899.232 163.433C899.459 163.396 899.712 163.172 899.773 162.95C901.606 156.198 902.446 149.084 901.309 142.106C900.722 138.658 899.638 135.168 897.55 132.226C895.596 129.306 891.704 126.93 887.999 128.205C886.707 128.603 885.548 129.294 884.516 130.125C878.499 134.595 876.245 143.465 879.415 150.514C879.973 151.695 881.878 150.894 881.424 149.669C881.246 149.186 881.021 148.771 880.772 148.377C878.969 145.543 875.688 143.975 872.545 143.86C870.509 143.68 868.139 144.671 867.154 146.562C866.137 148.389 866.073 150.421 866.201 152.304C866.399 154.798 867.056 157.177 867.871 159.502C868.6 161.564 869.48 163.588 870.438 165.567ZM871.88 164.799L870.438 165.567C870.532 165.728 870.804 165.943 870.986 165.982L871.332 164.385L871.88 164.799Z" fill="#051E3D"/>
<path d="M1041.63 157.375C1041.55 157.344 1041.46 157.344 1041.38 157.375C1041.31 157.406 1041.24 157.466 1041.21 157.543C1041.18 157.619 1041.18 157.706 1041.21 157.784C1041.24 157.862 1041.3 157.924 1041.37 157.959C1041.37 157.959 1041.37 157.959 1041.37 157.959C1042.39 158.435 1043.43 158.913 1044.47 159.383C1053.93 163.684 1063.76 167.324 1073.95 169.652C1083.81 171.926 1093.99 172.97 1104.09 172.616C1105.24 172.576 1106.36 172.52 1107.51 172.446C1107.58 172.441 1107.65 172.409 1107.7 172.355C1107.75 172.301 1107.78 172.231 1107.77 172.158C1107.77 172.085 1107.74 172.016 1107.69 171.966C1107.63 171.916 1107.56 171.889 1107.49 171.889C1107.49 171.889 1107.49 171.889 1107.49 171.889C1106.34 171.895 1105.23 171.887 1104.09 171.865C1094.04 171.676 1084.05 170.376 1074.3 168.129C1064.23 165.826 1054.42 162.467 1044.79 158.637C1043.73 158.219 1042.67 157.795 1041.63 157.375Z" fill="#1D383C"/>
<path d="M906.549 161.965C906.473 161.988 906.403 162.033 906.356 162.099C906.31 162.165 906.29 162.244 906.301 162.322C906.312 162.4 906.353 162.471 906.417 162.521C906.48 162.571 906.559 162.595 906.639 162.595C906.639 162.595 906.639 162.595 906.639 162.595C906.853 162.596 907.058 162.598 907.269 162.6C909.185 162.609 910.975 162.779 912.776 163.19C914.526 163.577 916.326 164.045 918.179 164.37C918.389 164.408 918.594 164.442 918.809 164.478C918.877 164.489 918.949 164.48 919.011 164.447C919.072 164.414 919.119 164.36 919.14 164.295C919.162 164.23 919.157 164.159 919.128 164.096C919.098 164.032 919.046 163.982 918.985 163.95C918.985 163.95 918.985 163.95 918.985 163.95C918.791 163.849 918.606 163.754 918.416 163.658C916.73 162.819 914.998 162.082 913.109 161.663C911.163 161.213 909.06 161.295 907.172 161.795C906.961 161.849 906.759 161.905 906.549 161.965Z" fill="#1D383C"/>
<path d="M1161.66 162.194C1161.58 162.169 1161.5 162.166 1161.42 162.194C1161.35 162.222 1161.28 162.276 1161.25 162.347C1161.21 162.418 1161.21 162.5 1161.23 162.578C1161.26 162.655 1161.31 162.72 1161.37 162.765C1161.37 162.765 1161.37 162.765 1161.37 162.765C1161.57 162.894 1161.76 163.025 1161.95 163.154C1163.72 164.341 1165.46 165.508 1167.2 166.672C1168.87 167.813 1170.59 168.89 1172.12 170.192C1172.28 170.338 1172.45 170.496 1172.6 170.653C1172.65 170.703 1172.72 170.739 1172.79 170.749C1172.86 170.759 1172.93 170.743 1172.98 170.703C1173.04 170.663 1173.08 170.603 1173.09 170.534C1173.1 170.464 1173.09 170.393 1173.06 170.331C1173.06 170.331 1173.06 170.331 1173.06 170.331C1172.95 170.116 1172.82 169.901 1172.68 169.701C1171.45 167.913 1169.8 166.553 1168.07 165.375C1166.27 164.171 1164.34 163.189 1162.32 162.433C1162.1 162.351 1161.88 162.27 1161.66 162.194Z" fill="#1D383C"/>
<path d="M1080.36 117.136C1080.28 116.934 1080.12 116.775 1079.92 116.693C1079.72 116.612 1079.49 116.615 1079.29 116.701C1079.08 116.787 1078.92 116.949 1078.84 117.149C1078.76 117.35 1078.76 117.574 1078.85 117.772C1078.85 117.772 1078.85 117.772 1078.85 117.772C1078.96 118.007 1079.06 118.245 1079.16 118.483C1080.97 122.785 1082.16 127.378 1083.11 132.006C1083.16 132.263 1083.21 132.522 1083.26 132.779C1083.29 132.906 1083.36 133.02 1083.47 133.094C1083.58 133.169 1083.71 133.198 1083.84 133.176C1083.97 133.153 1084.08 133.081 1084.16 132.974C1084.23 132.868 1084.27 132.735 1084.25 132.607C1084.25 132.607 1084.25 132.607 1084.25 132.607C1084.21 132.346 1084.16 132.083 1084.12 131.822C1083.36 127.116 1082.35 122.42 1080.65 117.887C1080.55 117.636 1080.46 117.385 1080.36 117.136Z" fill="#051E3D"/>
<path d="M1146.79 101.09C1146.86 101.041 1146.91 100.966 1146.92 100.883C1146.93 100.8 1146.91 100.715 1146.86 100.647C1146.82 100.579 1146.74 100.533 1146.66 100.519C1146.58 100.504 1146.49 100.523 1146.42 100.571C1146.42 100.571 1146.42 100.571 1146.42 100.571C1145.37 101.308 1144.34 102.076 1143.33 102.874C1124.99 117.33 1115.62 141.134 1115.73 164.306C1115.73 165.603 1115.76 166.891 1115.82 168.188C1115.83 168.477 1115.96 168.749 1116.17 168.943C1116.39 169.137 1116.67 169.238 1116.97 169.222C1117.26 169.207 1117.53 169.077 1117.73 168.861C1117.92 168.646 1118.02 168.362 1118 168.073C1118 168.073 1118 168.073 1118 168.073C1117.92 166.808 1117.87 165.551 1117.84 164.284C1117.28 141.654 1125.95 118.093 1143.78 103.431C1144.76 102.621 1145.76 101.841 1146.79 101.09Z" fill="#1D383C"/>
<path d="M1092.03 91.8345C1091.99 91.7597 1091.92 91.7027 1091.84 91.6759C1091.77 91.6491 1091.68 91.6547 1091.6 91.6916C1091.53 91.7285 1091.47 91.7938 1091.44 91.8733C1091.42 91.9528 1091.42 92.0401 1091.46 92.1156C1091.46 92.1156 1091.46 92.1156 1091.46 92.1156C1092.02 93.285 1092.54 94.4987 1093.02 95.7326C1100.95 118.134 1101.94 142.442 1100.81 166.014C1100.73 167.321 1100.64 168.648 1100.53 169.945C1100.5 170.234 1100.6 170.52 1100.78 170.739C1100.97 170.959 1101.25 171.094 1101.54 171.115C1101.83 171.137 1102.12 171.042 1102.34 170.853C1102.56 170.663 1102.69 170.394 1102.71 170.105C1102.79 168.789 1102.86 167.446 1102.92 166.124C1103.58 142.291 1102.13 117.945 1093.68 95.4653C1093.17 94.2269 1092.62 93.0086 1092.03 91.8345Z" fill="#1D383C"/>
<path d="M1137.92 136.679C1137.99 136.723 1138.07 136.738 1138.15 136.721C1138.23 136.704 1138.31 136.657 1138.35 136.589C1138.4 136.521 1138.42 136.437 1138.4 136.354C1138.39 136.272 1138.34 136.199 1138.27 136.151C1138.27 136.151 1138.27 136.151 1138.27 136.151C1138.02 135.967 1137.74 135.795 1137.47 135.64C1132.34 133.187 1126.11 133.032 1120.95 136.277C1120.67 136.495 1120.41 136.743 1120.17 137.022C1120.03 137.186 1119.96 137.397 1119.99 137.612C1120.01 137.826 1120.12 138.026 1120.29 138.165C1120.47 138.304 1120.68 138.371 1120.9 138.348C1121.11 138.325 1121.31 138.215 1121.44 138.043C1121.44 138.043 1121.44 138.043 1121.44 138.043C1121.58 137.851 1121.76 137.664 1121.96 137.489C1125.97 134.572 1132.33 134.149 1137.15 136.248C1137.41 136.378 1137.67 136.523 1137.92 136.679Z" fill="#1D383C"/>
<path d="M1103.88 104.508C1103.97 104.457 1104.04 104.371 1104.06 104.27C1104.09 104.169 1104.08 104.062 1104.03 103.97C1103.98 103.879 1103.89 103.812 1103.79 103.783C1103.69 103.754 1103.58 103.766 1103.49 103.817C1103.49 103.817 1103.49 103.817 1103.49 103.817C1103.32 103.91 1103.16 104.01 1103 104.116C1100.16 106.099 1098.49 109.335 1098.06 112.707C1098.04 112.895 1098.03 113.086 1098.02 113.275C1098.01 113.393 1098.05 113.507 1098.13 113.594C1098.21 113.681 1098.32 113.733 1098.44 113.738C1098.55 113.744 1098.67 113.703 1098.76 113.624C1098.84 113.545 1098.89 113.435 1098.9 113.317C1098.9 113.317 1098.9 113.317 1098.9 113.317C1098.91 113.145 1098.92 112.971 1098.94 112.798C1099.29 109.697 1100.89 106.575 1103.44 104.779C1103.58 104.683 1103.73 104.592 1103.88 104.508Z" fill="#1D383C"/>
</g>
<defs>
<filter id="filter0_nn_3427_33757" x="367.278" y="1.40201" width="939.73" height="226.389" filterUnits="userSpaceOnUse" color-interpolation-filters="sRGB">
<feFlood flood-opacity="0" result="BackgroundImageFix"/>
<feBlend mode="normal" in="SourceGraphic" in2="BackgroundImageFix" result="shape"/>
<feTurbulence type="fractalNoise" baseFrequency="0.4284854531288147 0.4284854531288147" stitchTiles="stitch" numOctaves="3" result="noise" seed="2151" />
<feComponentTransfer in="noise" result="coloredNoise1">
<feFuncR type="linear" slope="2" intercept="-0.5" />
<feFuncG type="linear" slope="2" intercept="-0.5" />
<feFuncB type="linear" slope="2" intercept="-0.5" />
<feFuncA type="discrete" tableValues="1 1 1 1 1 1 1 1 1 1 1 1 1 1 1 1 1 1 1 1 1 1 1 1 1 1 1 1 1 1 1 1 1 1 1 1 1 1 1 1 1 1 1 1 1 1 1 1 1 1 1 0 0 0 0 0 0 0 0 0 0 0 0 0 0 0 0 0 0 0 0 0 0 0 0 0 0 0 0 0 0 0 0 0 0 0 0 0 0 0 0 0 0 0 0 0 0 0 0 0 "/>
</feComponentTransfer>
<feComposite operator="in" in2="shape" in="coloredNoise1" result="noise1Clipped" />
<feComponentTransfer in="noise1Clipped" result="color1">
<feFuncA type="table" tableValues="0 0.1" />
</feComponentTransfer>
<feMerge result="effect1_noise_3427_33757">
<feMergeNode in="shape" />
<feMergeNode in="color1" />
</feMerge>
<feTurbulence type="fractalNoise" baseFrequency="0.22073492407798767 0.22073492407798767" stitchTiles="stitch" numOctaves="3" result="noise" seed="3494" />
<feColorMatrix in="noise" type="luminanceToAlpha" result="alphaNoise" />
<feComponentTransfer in="alphaNoise" result="coloredNoise1">
<feFuncA type="discrete" tableValues="0 0 0 0 0 0 0 0 0 0 0 0 0 0 0 0 0 1 1 1 1 1 1 1 1 1 1 1 1 1 1 1 0 0 0 0 0 0 0 0 0 0 0 0 0 0 0 0 0 0 0 0 0 0 0 0 0 0 0 0 0 0 0 0 0 0 0 0 0 0 0 0 0 0 0 0 0 0 0 0 0 0 0 0 0 0 0 0 0 0 0 0 0 0 0 0 0 0 0 0 "/>
</feComponentTransfer>
<feComposite operator="in" in2="effect1_noise_3427_33757" in="coloredNoise1" result="noise1Clipped" />
<feFlood flood-color="rgba(255, 255, 255, 0.18)" result="color1Flood" />
<feComposite operator="in" in2="noise1Clipped" in="color1Flood" result="color1" />
<feMerge result="effect2_noise_3427_33757">
<feMergeNode in="effect1_noise_3427_33757" />
<feMergeNode in="color1" />
</feMerge>
</filter>
<filter id="filter1_nn_3427_33757" x="578.4" y="108.311" width="14.8682" height="18.0728" filterUnits="userSpaceOnUse" color-interpolation-filters="sRGB">
<feFlood flood-opacity="0" result="BackgroundImageFix"/>
<feBlend mode="normal" in="SourceGraphic" in2="BackgroundImageFix" result="shape"/>
<feTurbulence type="fractalNoise" baseFrequency="0.4284854531288147 0.4284854531288147" stitchTiles="stitch" numOctaves="3" result="noise" seed="2151" />
<feComponentTransfer in="noise" result="coloredNoise1">
<feFuncR type="linear" slope="2" intercept="-0.5" />
<feFuncG type="linear" slope="2" intercept="-0.5" />
<feFuncB type="linear" slope="2" intercept="-0.5" />
<feFuncA type="discrete" tableValues="1 1 1 1 1 1 1 1 1 1 1 1 1 1 1 1 1 1 1 1 1 1 1 1 1 1 1 1 1 1 1 1 1 1 1 1 1 1 1 1 1 1 1 1 1 1 1 1 1 1 1 0 0 0 0 0 0 0 0 0 0 0 0 0 0 0 0 0 0 0 0 0 0 0 0 0 0 0 0 0 0 0 0 0 0 0 0 0 0 0 0 0 0 0 0 0 0 0 0 0 "/>
</feComponentTransfer>
<feComposite operator="in" in2="shape" in="coloredNoise1" result="noise1Clipped" />
<feComponentTransfer in="noise1Clipped" result="color1">
<feFuncA type="table" tableValues="0 0.1" />
</feComponentTransfer>
<feMerge result="effect1_noise_3427_33757">
<feMergeNode in="shape" />
<feMergeNode in="color1" />
</feMerge>
<feTurbulence type="fractalNoise" baseFrequency="0.22073492407798767 0.22073492407798767" stitchTiles="stitch" numOctaves="3" result="noise" seed="3494" />
<feColorMatrix in="noise" type="luminanceToAlpha" result="alphaNoise" />
<feComponentTransfer in="alphaNoise" result="coloredNoise1">
<feFuncA type="discrete" tableValues="0 0 0 0 0 0 0 0 0 0 0 0 0 0 0 0 0 1 1 1 1 1 1 1 1 1 1 1 1 1 1 1 0 0 0 0 0 0 0 0 0 0 0 0 0 0 0 0 0 0 0 0 0 0 0 0 0 0 0 0 0 0 0 0 0 0 0 0 0 0 0 0 0 0 0 0 0 0 0 0 0 0 0 0 0 0 0 0 0 0 0 0 0 0 0 0 0 0 0 0 "/>
</feComponentTransfer>
<feComposite operator="in" in2="effect1_noise_3427_33757" in="coloredNoise1" result="noise1Clipped" />
<feFlood flood-color="rgba(255, 255, 255, 0.18)" result="color1Flood" />
<feComposite operator="in" in2="noise1Clipped" in="color1Flood" result="color1" />
<feMerge result="effect2_noise_3427_33757">
<feMergeNode in="effect1_noise_3427_33757" />
<feMergeNode in="color1" />
</feMerge>
</filter>
<filter id="filter2_nn_3427_33757" x="1056.34" y="149.033" width="26.9484" height="19.368" filterUnits="userSpaceOnUse" color-interpolation-filters="sRGB">
<feFlood flood-opacity="0" result="BackgroundImageFix"/>
<feBlend mode="normal" in="SourceGraphic" in2="BackgroundImageFix" result="shape"/>
<feTurbulence type="fractalNoise" baseFrequency="0.4284854531288147 0.4284854531288147" stitchTiles="stitch" numOctaves="3" result="noise" seed="2151" />
<feComponentTransfer in="noise" result="coloredNoise1">
<feFuncR type="linear" slope="2" intercept="-0.5" />
<feFuncG type="linear" slope="2" intercept="-0.5" />
<feFuncB type="linear" slope="2" intercept="-0.5" />
<feFuncA type="discrete" tableValues="1 1 1 1 1 1 1 1 1 1 1 1 1 1 1 1 1 1 1 1 1 1 1 1 1 1 1 1 1 1 1 1 1 1 1 1 1 1 1 1 1 1 1 1 1 1 1 1 1 1 1 0 0 0 0 0 0 0 0 0 0 0 0 0 0 0 0 0 0 0 0 0 0 0 0 0 0 0 0 0 0 0 0 0 0 0 0 0 0 0 0 0 0 0 0 0 0 0 0 0 "/>
</feComponentTransfer>
<feComposite operator="in" in2="shape" in="coloredNoise1" result="noise1Clipped" />
<feComponentTransfer in="noise1Clipped" result="color1">
<feFuncA type="table" tableValues="0 0.1" />
</feComponentTransfer>
<feMerge result="effect1_noise_3427_33757">
<feMergeNode in="shape" />
<feMergeNode in="color1" />
</feMerge>
<feTurbulence type="fractalNoise" baseFrequency="0.22073492407798767 0.22073492407798767" stitchTiles="stitch" numOctaves="3" result="noise" seed="3494" />
<feColorMatrix in="noise" type="luminanceToAlpha" result="alphaNoise" />
<feComponentTransfer in="alphaNoise" result="coloredNoise1">
<feFuncA type="discrete" tableValues="0 0 0 0 0 0 0 0 0 0 0 0 0 0 0 0 0 1 1 1 1 1 1 1 1 1 1 1 1 1 1 1 0 0 0 0 0 0 0 0 0 0 0 0 0 0 0 0 0 0 0 0 0 0 0 0 0 0 0 0 0 0 0 0 0 0 0 0 0 0 0 0 0 0 0 0 0 0 0 0 0 0 0 0 0 0 0 0 0 0 0 0 0 0 0 0 0 0 0 0 "/>
</feComponentTransfer>
<feComposite operator="in" in2="effect1_noise_3427_33757" in="coloredNoise1" result="noise1Clipped" />
<feFlood flood-color="rgba(255, 255, 255, 0.18)" result="color1Flood" />
<feComposite operator="in" in2="noise1Clipped" in="color1Flood" result="color1" />
<feMerge result="effect2_noise_3427_33757">
<feMergeNode in="effect1_noise_3427_33757" />
<feMergeNode in="color1" />
</feMerge>
</filter>
<filter id="filter3_nn_3427_33757" x="896.868" y="152.631" width="10.0385" height="10.9388" filterUnits="userSpaceOnUse" color-interpolation-filters="sRGB">
<feFlood flood-opacity="0" result="BackgroundImageFix"/>
<feBlend mode="normal" in="SourceGraphic" in2="BackgroundImageFix" result="shape"/>
<feTurbulence type="fractalNoise" baseFrequency="0.4284854531288147 0.4284854531288147" stitchTiles="stitch" numOctaves="3" result="noise" seed="2151" />
<feComponentTransfer in="noise" result="coloredNoise1">
<feFuncR type="linear" slope="2" intercept="-0.5" />
<feFuncG type="linear" slope="2" intercept="-0.5" />
<feFuncB type="linear" slope="2" intercept="-0.5" />
<feFuncA type="discrete" tableValues="1 1 1 1 1 1 1 1 1 1 1 1 1 1 1 1 1 1 1 1 1 1 1 1 1 1 1 1 1 1 1 1 1 1 1 1 1 1 1 1 1 1 1 1 1 1 1 1 1 1 1 0 0 0 0 0 0 0 0 0 0 0 0 0 0 0 0 0 0 0 0 0 0 0 0 0 0 0 0 0 0 0 0 0 0 0 0 0 0 0 0 0 0 0 0 0 0 0 0 0 "/>
</feComponentTransfer>
<feComposite operator="in" in2="shape" in="coloredNoise1" result="noise1Clipped" />
<feComponentTransfer in="noise1Clipped" result="color1">
<feFuncA type="table" tableValues="0 0.1" />
</feComponentTransfer>
<feMerge result="effect1_noise_3427_33757">
<feMergeNode in="shape" />
<feMergeNode in="color1" />
</feMerge>
<feTurbulence type="fractalNoise" baseFrequency="0.22073492407798767 0.22073492407798767" stitchTiles="stitch" numOctaves="3" result="noise" seed="3494" />
<feColorMatrix in="noise" type="luminanceToAlpha" result="alphaNoise" />
<feComponentTransfer in="alphaNoise" result="coloredNoise1">
<feFuncA type="discrete" tableValues="0 0 0 0 0 0 0 0 0 0 0 0 0 0 0 0 0 1 1 1 1 1 1 1 1 1 1 1 1 1 1 1 0 0 0 0 0 0 0 0 0 0 0 0 0 0 0 0 0 0 0 0 0 0 0 0 0 0 0 0 0 0 0 0 0 0 0 0 0 0 0 0 0 0 0 0 0 0 0 0 0 0 0 0 0 0 0 0 0 0 0 0 0 0 0 0 0 0 0 0 "/>
</feComponentTransfer>
<feComposite operator="in" in2="effect1_noise_3427_33757" in="coloredNoise1" result="noise1Clipped" />
<feFlood flood-color="rgba(255, 255, 255, 0.18)" result="color1Flood" />
<feComposite operator="in" in2="noise1Clipped" in="color1Flood" result="color1" />
<feMerge result="effect2_noise_3427_33757">
<feMergeNode in="effect1_noise_3427_33757" />
<feMergeNode in="color1" />
</feMerge>
</filter>
<clipPath id="clip0_3427_33757">
<rect width="1280" height="200" fill="white"/>
</clipPath>
</defs>
</svg>
