<svg width="24" height="24" viewBox="0 0 24 24" fill="none" xmlns="http://www.w3.org/2000/svg">
<path d="M3.45536 20.4696C2.90333 21.1061 3.43779 22.0738 4.26818 21.9312C7.58738 21.361 13.4036 20.2587 15.7679 19.1738C19.4232 17.8486 22 14.6532 22 10.9216C22 6.00285 17.5228 2.01539 12 2.01539C6.47715 2.01539 2 6.00285 2 10.9216C2.00001 13.3894 3.12694 15.6227 4.94745 17.2357C5.34642 17.5892 5.4217 18.2023 5.07246 18.605L3.45536 20.4696Z" fill="url(#paint0_linear_14532_10225)"/>
<path d="M20.75 10.9216C20.75 14.0397 18.5901 16.821 15.3419 17.9987L15.2935 18.0162L15.2466 18.0377C14.2003 18.5178 12.2774 19.0411 10.1042 19.5255C8.37622 19.9107 6.56609 20.2549 5.06396 20.5226L6.01685 19.424C6.86783 18.4427 6.62563 17.0525 5.77637 16.3001C4.21764 14.919 3.27966 13.0519 3.25073 11.0186L3.25 10.9216C3.25 6.82541 7.02745 3.26539 12 3.26539V2.01539L11.8707 2.01612C6.45048 2.07728 2.06952 5.97912 2.00085 10.8065L2 10.9216C2.00001 13.3894 3.12689 15.6227 4.94739 17.2357C5.33389 17.5782 5.41672 18.1643 5.104 18.5667L5.07251 18.605L3.45532 20.4696C2.90332 21.1061 3.43781 22.0738 4.26819 21.9312C7.5874 21.361 13.4036 20.2587 15.7679 19.1738C19.4232 17.8487 22 14.6532 22 10.9216L21.9991 10.8065C21.9299 5.9408 17.4797 2.01539 12 2.01539V3.26539C16.9726 3.26539 20.75 6.82541 20.75 10.9216Z" fill="url(#paint1_linear_14532_10225)"/>
<path d="M11.5405 5.49839C11.6601 5.02007 12.3399 5.02007 12.4595 5.49839L13.0073 7.68974C13.2618 8.70786 14.0568 9.50281 15.0749 9.75734L17.2663 10.3052C17.7446 10.4248 17.7446 11.1045 17.2663 11.2241L15.0749 11.772C14.0568 12.0265 13.2618 12.8214 13.0073 13.8396L12.4595 16.0309C12.3399 16.5092 11.6601 16.5092 11.5405 16.0309L10.9927 13.8396C10.7382 12.8214 9.94321 12.0265 8.92509 11.772L6.73374 11.2241C6.25542 11.1045 6.25542 10.4248 6.73374 10.3052L8.92509 9.75734C9.94321 9.50281 10.7382 8.70786 10.9927 7.68974L11.5405 5.49839Z" fill="white"/>
<path d="M10.3497 5.11487C10.8399 3.45488 13.2437 3.48168 13.6721 5.19519L14.22 7.3866C14.3625 7.95684 14.8078 8.40211 15.378 8.54468L17.5695 9.09253C19.3102 9.52774 19.3102 12.0016 17.5695 12.4368L15.378 12.9846C14.8078 13.1272 14.3625 13.5725 14.22 14.1427L13.6721 16.3341C13.2369 18.0748 10.7631 18.0748 10.3279 16.3341L9.78003 14.1427C9.63745 13.5725 9.19219 13.1272 8.62194 12.9846L6.43054 12.4368C4.68981 12.0016 4.68983 9.52774 6.43054 9.09253L8.62194 8.54468C9.19219 8.40211 9.63745 7.95684 9.78003 7.3866L10.3279 5.19519L10.3497 5.11487ZM12 8.60449C11.5862 9.57588 10.8112 10.3509 9.83984 10.7646C10.8112 11.1784 11.5862 11.9533 12 12.9247C12.4138 11.9534 13.1887 11.1784 14.16 10.7646C13.1887 10.3509 12.4138 9.57584 12 8.60449Z" fill="url(#paint2_linear_14532_10225)"/>
<path d="M11.5405 5.49839C11.6601 5.02007 12.3399 5.02007 12.4595 5.49839L13.0073 7.68974C13.2618 8.70786 14.0568 9.50281 15.0749 9.75734L17.2663 10.3052C17.7446 10.4248 17.7446 11.1045 17.2663 11.2241L15.0749 11.772C14.0568 12.0265 13.2618 12.8214 13.0073 13.8396L12.4595 16.0309C12.3399 16.5092 11.6601 16.5092 11.5405 16.0309L10.9927 13.8396C10.7382 12.8214 9.94321 12.0265 8.92509 11.772L6.73374 11.2241C6.25542 11.1045 6.25542 10.4248 6.73374 10.3052L8.92509 9.75734C9.94321 9.50281 10.7382 8.70786 10.9927 7.68974L11.5405 5.49839Z" fill="white"/>
<defs>
<linearGradient id="paint0_linear_14532_10225" x1="12" y1="2.01539" x2="12" y2="21.9453" gradientUnits="userSpaceOnUse">
<stop stop-color="#A7B7FD"/>
<stop offset="1" stop-color="#3969EF"/>
</linearGradient>
<linearGradient id="paint1_linear_14532_10225" x1="12" y1="21.9453" x2="12" y2="2.01539" gradientUnits="userSpaceOnUse">
<stop stop-color="#2B55CA"/>
<stop offset="1" stop-color="#557FF3"/>
</linearGradient>
<linearGradient id="paint2_linear_14532_10225" x1="12" y1="5.13965" x2="12" y2="16.3896" gradientUnits="userSpaceOnUse">
<stop stop-color="#839DF9"/>
<stop offset="1" stop-color="#3969EF"/>
</linearGradient>
</defs>
</svg>
