<svg fill="none" viewBox="0 0 24 24" xmlns="http://www.w3.org/2000/svg">
  <path fill="#7295F6" d="M14.406 2.625H9.594a4.219 4.219 0 0 0-4.219 4.219v12.288c0 1.616 1.742 2.632 3.148 1.836l2.438-1.38a2.11 2.11 0 0 1 2.078 0l2.438 1.38c1.406.796 3.148-.22 3.148-1.836V6.844a4.219 4.219 0 0 0-4.219-4.219Z"/>
  <path fill="#fff" d="M11.415 7.392a.625.625 0 0 1 1.16 0l.727 1.811c.09.223.299.375.538.39l1.947.133a.625.625 0 0 1 .359 1.103l-1.498 1.252a.625.625 0 0 0-.205.632l.476 1.893a.625.625 0 0 1-.939.681l-1.653-1.038a.625.625 0 0 0-.664 0l-1.653 1.038a.625.625 0 0 1-.939-.682l.476-1.892a.625.625 0 0 0-.205-.632l-1.498-1.252a.625.625 0 0 1 .359-1.103l1.947-.132a.625.625 0 0 0 .538-.39l.727-1.812Z"/>
  <path fill="url(#Bookmark-Favorite-Color-24_svg__a)" d="M14.406 2a4.844 4.844 0 0 1 4.844 4.844V19.21c0 2.075-2.215 3.382-4.023 2.412l-.084-.048-2.345-1.361a1.484 1.484 0 0 0-1.48-.006l-2.48 1.413c-1.822 1.04-4.088-.278-4.088-2.376v-12.4A4.844 4.844 0 0 1 9.594 2h4.812ZM9.594 3.25A3.594 3.594 0 0 0 6 6.844v12.4c0 1.14 1.23 1.854 2.22 1.29l2.478-1.413a2.735 2.735 0 0 1 2.728.01l2.345 1.362.045.027A1.485 1.485 0 0 0 18 19.21V6.844a3.594 3.594 0 0 0-3.594-3.594H9.594Zm.692 3.604c.658-1.472 2.76-1.472 3.418 0l.031.073.581 1.446 1.556.106.078.006c1.603.17 2.253 2.172 1.057 3.252l-.06.051-1.196 1 .38 1.513.017.076c.334 1.577-1.368 2.814-2.765 2.01l-.068-.041-1.32-.83-1.32.83c-1.432.898-3.228-.406-2.816-2.045l.38-1.513-1.196-1c-1.297-1.084-.611-3.195 1.075-3.31l1.556-.105.58-1.446.032-.073Zm2.29.539a.625.625 0 0 0-1.161 0l-.727 1.81-.018.041a.625.625 0 0 1-.52.35l-1.947.132a.625.625 0 0 0-.358 1.103l1.497 1.252c.184.154.264.4.206.632l-.477 1.893a.625.625 0 0 0 .916.695l.023-.014 1.653-1.037a.624.624 0 0 1 .664 0l1.653 1.037a.625.625 0 0 0 .945-.656l-.006-.026-.477-1.892a.625.625 0 0 1 .206-.632l1.497-1.252a.625.625 0 0 0-.332-1.1l-.026-.003-1.947-.132a.625.625 0 0 1-.52-.35l-.017-.04-.728-1.811Z"/>
  <defs>
    <linearGradient id="Bookmark-Favorite-Color-24_svg__a" x1="12" x2="12" y1="2" y2="21.983" gradientUnits="userSpaceOnUse">
      <stop stop-color="#557FF3"/>
      <stop offset="1" stop-color="#2B55CA"/>
    </linearGradient>
  </defs>
</svg>
