<svg fill="none" viewBox="0 0 24 24" xmlns="http://www.w3.org/2000/svg">
  <path fill="#8FABF9" d="M4.917 2.667h6.166a2.25 2.25 0 0 1 2.25 2.25v3.502l-1.364.201c-1.994.293-2.807 2.741-1.365 4.164l1.188 1.172-.279 1.644c-.23 1.36.664 2.49 1.82 2.786V20.5a.75.75 0 0 1-1.2.6L8.45 18.338a.75.75 0 0 0-.9 0L3.867 21.1a.75.75 0 0 1-1.2-.6V4.917a2.25 2.25 0 0 1 2.25-2.25"/>
  <path fill="#2B55CA" d="M4.917 2A2.917 2.917 0 0 0 2 4.917V20.5c0 1.167 1.333 1.834 2.267 1.133l3.683-2.762a.083.083 0 0 1 .1 0l3.683 2.762c.934.7 2.267.034 2.267-1.133v-2.04a2.449 2.449 0 0 1-1.333-.354V20.5a.076.076 0 0 1-.011.044.087.087 0 0 1-.035.03.088.088 0 0 1-.045.01.076.076 0 0 1-.043-.017L8.85 17.804a1.417 1.417 0 0 0-1.7 0l-3.683 2.763a.076.076 0 0 1-.043.017.088.088 0 0 1-.045-.01.088.088 0 0 1-.035-.03.076.076 0 0 1-.01-.044V4.917c0-.875.708-1.584 1.583-1.584h6.166c.875 0 1.584.71 1.584 1.584v3.6l.916-.134.417-.856v-2.61A2.917 2.917 0 0 0 11.083 2z"/>
  <path fill="#FFDE7A" d="M15.758 7.63a.826.826 0 0 1 1.484 0l.9 1.845a.826.826 0 0 0 .621.454l2.031.299a.823.823 0 0 1 .46 1.4l-1.485 1.464a.822.822 0 0 0-.233.723l.348 2.056a.825.825 0 0 1-1.201.864l-1.795-.955a.827.827 0 0 0-.776 0l-1.794.955a.825.825 0 0 1-1.202-.864l.348-2.056a.822.822 0 0 0-.233-.723l-1.485-1.465a.823.823 0 0 1 .46-1.4l2.03-.298c.27-.04.503-.21.622-.454l.9-1.845Z"/>
  <path fill="#E2A412" fill-rule="evenodd" d="M15.159 7.338c.544-1.117 2.138-1.117 2.682 0l.9 1.845a.155.155 0 0 0 .12.086l2.03.3c1.216.178 1.709 1.667.832 2.533l-1.485 1.465a.155.155 0 0 0-.045.136l.349 2.057c.207 1.223-1.083 2.143-2.173 1.563l-1.794-.955a.16.16 0 0 0-.15 0l-1.794.955c-1.09.58-2.38-.34-2.173-1.563l.349-2.057a.155.155 0 0 0-.044-.136l-1.485-1.465c-.877-.866-.384-2.355.83-2.534l2.032-.299a.158.158 0 0 0 .12-.086l.899-1.845Zm1.484.584a.16.16 0 0 0-.286 0l-.9 1.845a1.49 1.49 0 0 1-1.123.822l-2.031.298a.156.156 0 0 0-.089.266l1.485 1.465c.346.34.504.829.422 1.308l-.348 2.057a.158.158 0 0 0 .232.163l1.794-.955a1.493 1.493 0 0 1 1.403 0l1.794.955a.158.158 0 0 0 .231-.163l-.348-2.057a1.484 1.484 0 0 1 .422-1.308l1.485-1.465a.156.156 0 0 0-.088-.266l-2.032-.298a1.492 1.492 0 0 1-1.124-.822l-.9-1.845Z" clip-rule="evenodd"/>
</svg>
