<svg width="85" height="85" viewBox="0 0 85 85" fill="none" xmlns="http://www.w3.org/2000/svg">
    <path fill-rule="evenodd" clip-rule="evenodd" d="M42.3512 84.2927C65.628 84.2927 84.4976 65.4231 84.4976 42.1464C84.4976 18.8696 65.628 0 42.3512 0C19.0745 0 0.204895 18.8696 0.204895 42.1464C0.204895 65.4231 19.0745 84.2927 42.3512 84.2927Z" fill="#DE5833"/>
    <path fill-rule="evenodd" clip-rule="evenodd" d="M48.278 73.5914C48.278 73.2622 48.3588 73.187 47.3122 71.1008C44.5305 65.5305 41.7348 57.6772 43.0062 52.6126C43.238 51.6924 40.3862 18.5373 38.3702 17.4696C36.1294 16.2754 33.3723 14.3811 30.8506 13.9597C29.5711 13.755 27.8935 13.8519 26.5821 14.0285C26.349 14.0599 26.3394 14.4789 26.5621 14.5543C27.4231 14.846 28.4686 15.3525 29.0847 16.1183C29.2013 16.2632 29.0448 16.4912 28.8589 16.4981C28.2781 16.5196 27.2245 16.763 25.8344 17.9438C25.6736 18.0803 25.8072 18.3339 26.0141 18.2929C29.0016 17.7019 32.0526 17.9931 33.8506 19.6274C33.9673 19.7334 33.9063 19.9237 33.7542 19.9651C18.1507 24.2054 21.2395 37.7786 25.3933 54.4354C29.0802 69.2198 30.4758 74.0204 30.92 75.4955C30.9653 75.6461 31.0715 75.7662 31.2176 75.8242C36.5953 77.9576 48.278 78.0491 48.278 74.4146V73.5914Z" fill="#DDDDDD"/>
    <path fill-rule="evenodd" clip-rule="evenodd" d="M81.0402 42.1464C81.0402 63.5137 63.7186 80.8354 42.3512 80.8354C20.9838 80.8354 3.66217 63.5137 3.66217 42.1464C3.66217 20.779 20.9838 3.45734 42.3512 3.45734C63.7186 3.45734 81.0402 20.779 81.0402 42.1464ZM33.3221 76.3807C32.253 73.0781 29.2652 63.5058 26.3141 51.4087C26.2157 51.0057 26.1175 50.6045 26.0198 50.2053L26.0174 50.1953C22.4452 35.6048 19.5276 23.6876 35.5181 19.9438C35.6643 19.9096 35.7358 19.7348 35.639 19.62C33.8043 17.4435 30.3673 16.7301 26.0214 18.2293C25.8431 18.2908 25.6884 18.1111 25.7991 17.9585C26.6513 16.7838 28.3167 15.8807 29.1389 15.4847C29.3088 15.4029 29.2985 15.1541 29.1185 15.0977C28.5807 14.9294 27.665 14.6718 26.635 14.5055C26.3914 14.4662 26.3694 14.0486 26.614 14.0157C32.7751 13.1867 39.2088 15.0365 42.4374 19.1033C42.4678 19.1416 42.5117 19.1684 42.5595 19.1787C54.3821 21.7176 55.2286 40.4065 53.8667 41.2578C53.5982 41.4256 52.7376 41.3293 51.6026 41.2023C47.0024 40.6876 37.8932 39.6684 45.4113 53.6798C45.4856 53.8182 45.3873 54.0014 45.2321 54.0255C41.007 54.6824 46.388 67.8774 50.3769 76.6289C66.0596 72.9933 77.7475 58.9348 77.7475 42.1464C77.7475 22.5975 61.9 6.75002 42.3512 6.75002C22.8023 6.75002 6.95485 22.5975 6.95485 42.1464C6.95485 58.5747 18.1468 72.3891 33.3221 76.3807Z" fill="white"/>
    <path d="M55.7065 59.728C54.8065 59.3109 51.3458 61.7927 49.049 63.6978C48.5689 63.0186 47.6639 62.5249 45.6222 62.8799C43.8352 63.1907 42.8488 63.6215 42.4086 64.3643C39.5882 63.295 34.8433 61.6447 33.697 63.2385C32.444 64.9807 34.0102 73.2222 35.6744 74.2923C36.5433 74.851 40.6994 72.1795 42.8697 70.3373C43.2199 70.8307 43.7836 71.1131 44.9426 71.0862C46.6953 71.0456 49.5382 70.6377 49.9794 69.8214C50.0062 69.7718 50.0293 69.7132 50.049 69.6464C52.2797 70.4802 56.2059 71.3626 57.083 71.2308C59.3687 70.8875 56.7646 60.2183 55.7065 59.728Z" fill="#3CA82B"/>
    <path d="M49.2594 63.9416C49.354 64.1104 49.4301 64.2884 49.4948 64.4693C49.8128 65.3587 50.3309 68.1882 49.9391 68.8871C49.5473 69.5859 47.0025 69.9235 45.4325 69.9505C43.8626 69.9776 43.5093 69.4035 43.1912 68.5141C42.9368 67.8026 42.8116 66.1297 42.8146 65.1719C42.7502 63.7511 43.2694 63.2516 45.6687 62.8634C47.4443 62.576 48.3831 62.9102 48.925 63.4821C51.4458 61.6007 55.6517 58.9456 56.0619 59.4308C58.1074 61.8504 58.3659 67.6102 57.923 69.9276C57.7782 70.6852 51.0052 69.177 51.0052 68.36C51.0052 64.9675 50.1249 64.0368 49.2594 63.9416Z" fill="#4CBA3C"/>
    <path d="M34.4227 62.8822C34.9774 62.0042 39.476 63.0961 41.9453 64.195C41.9453 64.195 41.4379 66.494 42.2458 69.2025C42.4821 69.9947 36.5646 73.521 35.7922 72.9143C34.8996 72.2131 33.2567 64.7276 34.4227 62.8822Z" fill="#4CBA3C"/>
    <path fill-rule="evenodd" clip-rule="evenodd" d="M36.6014 45.0482C36.9654 43.4655 38.6609 40.4832 44.7153 40.5556C47.7762 40.5429 51.5783 40.5543 54.099 40.268C57.8456 39.8424 60.6266 38.9361 62.4797 38.2298C65.1006 37.2299 66.0306 37.4529 66.3567 38.0512C66.715 38.7085 66.2928 39.8437 65.377 40.8886C63.6278 42.8845 60.4832 44.4311 54.9294 44.8901C49.3757 45.3492 45.6963 43.8594 44.1125 46.2849C43.4294 47.331 43.9575 49.7965 49.3284 50.5729C56.5861 51.6204 62.5467 49.3108 63.2832 50.7056C64.0197 52.1005 59.7772 54.9384 52.5077 54.9978C45.2383 55.0572 40.6977 52.4526 39.0875 51.158C37.0446 49.5154 36.1304 47.1198 36.6014 45.0482Z" fill="#FFCC33"/>
    <g opacity="0.8">
        <path d="M45.8592 27.7422C46.2646 27.0783 47.1638 26.5658 48.6353 26.5658C50.1067 26.5658 50.799 27.1513 51.2782 27.8043C51.3757 27.9371 51.228 28.0934 51.0768 28.028C51.0404 28.0123 51.0036 27.9962 50.9662 27.9799C50.428 27.7448 49.7672 27.4562 48.6353 27.4401C47.4246 27.4229 46.6612 27.7261 46.1804 27.9875C46.0184 28.0756 45.7631 27.8996 45.8592 27.7422Z" fill="#14307E"/>
        <path d="M29.2929 28.5917C30.7217 27.9946 31.8447 28.0717 32.6385 28.2595C32.8057 28.2991 32.9219 28.1192 32.7882 28.0114C32.172 27.5144 30.793 26.8974 28.9943 27.5681C27.3899 28.1663 26.6337 29.4093 26.6292 30.2266C26.6282 30.4192 27.0244 30.4355 27.1269 30.2725C27.4038 29.832 27.8641 29.1888 29.2929 28.5917Z" fill="#14307E"/>
        <path fill-rule="evenodd" clip-rule="evenodd" d="M49.8851 36.8252C48.6219 36.8252 47.5974 35.8035 47.5974 34.5459C47.5974 33.2883 48.6219 32.2665 49.8851 32.2665C51.1483 32.2665 52.1729 33.2883 52.1729 34.5459C52.1729 35.8035 51.1483 36.8252 49.8851 36.8252ZM51.4964 33.7908C51.4964 33.4652 51.2297 33.2013 50.9041 33.2013C50.5785 33.2013 50.3146 33.4652 50.3118 33.7908C50.3118 34.1164 50.5785 34.3803 50.9041 34.3803C51.2325 34.3803 51.4964 34.1164 51.4964 33.7908Z" fill="#14307E"/>
        <path fill-rule="evenodd" clip-rule="evenodd" d="M34.7275 36.1234C34.7275 37.5915 33.5345 38.7817 32.0608 38.7817C30.5899 38.7817 29.3941 37.5915 29.3941 36.1234C29.3941 34.6553 30.5899 33.4651 32.0608 33.4651C33.5317 33.4651 34.7275 34.6553 34.7275 36.1234ZM33.9415 35.2419C33.9415 34.863 33.6328 34.5542 33.251 34.5542C32.872 34.5542 32.5633 34.8602 32.5605 35.2419C32.5605 35.6209 32.8692 35.9297 33.251 35.9297C33.6328 35.9297 33.9415 35.6209 33.9415 35.2419Z" fill="#14307E"/>
    </g>
</svg>
