<svg fill="none" viewBox="0 0 24 24" xmlns="http://www.w3.org/2000/svg">
  <g clip-path="url(#Chartbeat_svg__a)">
    <path fill="#14314F" d="M24 12c0 6.627-5.373 12-12 12S0 18.627 0 12 5.373 0 12 0s12 5.373 12 12Z"/>
    <path fill="#fff" fill-opacity=".12" fill-rule="evenodd" d="M24 12c0 6.627-5.373 12-12 12S0 18.627 0 12 5.373 0 12 0s12 5.373 12 12ZM12 23.5c6.351 0 11.5-5.149 11.5-11.5S18.351.5 12 .5.5 5.649.5 12 5.649 23.5 12 23.5Z" clip-rule="evenodd"/>
    <path fill="#fff" d="M12.486 12.474h-5.21v1.797h3.164l2.046-1.797Zm2.789-2.489H4.5v1.797h8.729l2.046-1.797ZM18.063 7.5H6.525v1.797h9.492L18.063 7.5Zm1.367.14a.283.283 0 0 0-.396 0l-9.222 8.61-.047.038c-.22.227-.126.679.211 1.008.338.33.79.422 1.013.186l.038-.047 8.4-9.416a.287.287 0 0 0 .003-.38Z"/>
  </g>
  <defs>
    <clipPath id="Chartbeat_svg__a">
      <path fill="#fff" d="M0 0h24v24H0z"/>
    </clipPath>
  </defs>
</svg>
