<svg fill="none" viewBox="0 0 24 24" xmlns="http://www.w3.org/2000/svg">
  <g clip-path="url(#S_svg__a)">
    <path fill="#3C73DA" d="M24 12c0 6.627-5.373 12-12 12S0 18.627 0 12 5.373 0 12 0s12 5.373 12 12Z"/>
    <path fill="#000" fill-opacity=".12" fill-rule="evenodd" d="M12 23.5c6.351 0 11.5-5.149 11.5-11.5S18.351.5 12 .5.5 5.649.5 12 5.649 23.5 12 23.5Zm0 .5c6.627 0 12-5.373 12-12S18.627 0 12 0 0 5.373 0 12s5.373 12 12 12Z" clip-rule="evenodd"/>
    <path fill="#fff" d="M16.725 14.489c0 .819-.208 1.548-.624 2.186-.415.632-1.014 1.126-1.797 1.482-.783.349-1.702.523-2.755.523-.88 0-1.617-.06-2.214-.18a8.394 8.394 0 0 1-1.86-.65v-3.18c.68.349 1.388.623 2.122.822.735.192 1.41.289 2.024.289.53 0 .918-.09 1.165-.271.247-.187.37-.425.37-.714a.746.746 0 0 0-.153-.47c-.096-.138-.256-.277-.479-.415-.217-.139-.8-.422-1.752-.85-.861-.39-1.509-.77-1.942-1.137a3.563 3.563 0 0 1-.958-1.265c-.205-.476-.307-1.039-.307-1.69 0-1.216.443-2.164 1.328-2.845.885-.68 2.101-1.02 3.65-1.02 1.366 0 2.76.316 4.182.948l-1.093 2.755c-1.235-.566-2.3-.849-3.198-.849-.464 0-.801.081-1.012.244-.21.162-.316.364-.316.605 0 .26.132.49.397.696.271.204 1 .578 2.187 1.12 1.138.512 1.927 1.063 2.366 1.653.446.584.669 1.322.669 2.213Z"/>
  </g>
  <defs>
    <clipPath id="S_svg__a">
      <path fill="#fff" d="M0 0h24v24H0z"/>
    </clipPath>
  </defs>
</svg>
