<svg fill="none" viewBox="0 0 24 24" xmlns="http://www.w3.org/2000/svg">
  <g clip-path="url(#W_svg__a)">
    <path fill="#454FCD" d="M24 12c0 6.627-5.373 12-12 12S0 18.627 0 12 5.373 0 12 0s12 5.373 12 12Z"/>
    <path fill="#000" fill-opacity=".12" fill-rule="evenodd" d="M12 23.5c6.351 0 11.5-5.149 11.5-11.5S18.351.5 12 .5.5 5.649.5 12 5.649 23.5 12 23.5Zm0 .5c6.627 0 12-5.373 12-12S18.627 0 12 0 0 5.373 0 12s5.373 12 12 12Z" clip-rule="evenodd"/>
    <path fill="#fff" d="M17.32 18.438h-3.692l-1.107-5.035a25.74 25.74 0 0 1-.252-1.257 32.549 32.549 0 0 1-.245-1.573c-.043.342-.111.77-.206 1.28-.095.506-.19.973-.284 1.4-.09.426-.472 2.155-1.147 5.185h-3.69L3.834 6.882h3.011l1.257 5.793c.285 1.281.48 2.3.585 3.06.069-.538.19-1.268.364-2.19.179-.922.345-1.686.498-2.292l1.02-4.371h2.892l.988 4.37c.169.702.34 1.51.514 2.427s.29 1.602.348 2.055c.068-.585.255-1.599.56-3.043l1.281-5.81h3.012l-2.846 11.557Z"/>
  </g>
  <defs>
    <clipPath id="W_svg__a">
      <path fill="#fff" d="M0 0h24v24H0z"/>
    </clipPath>
  </defs>
</svg>
