<svg fill="none" height="32" width="32" xmlns="http://www.w3.org/2000/svg"><path clip-rule="evenodd" d="m19.85 31.22c-.718-1.396-1.404-2.68-1.83-3.53-1.133-2.267-2.27-5.464-1.753-7.526.094-.375-1.067-13.872-1.888-14.306-.912-.487-2.034-1.258-3.06-1.43-.522-.083-1.205-.043-1.738.029-.095.013-.1.183-.009.214.351.119.777.325 1.027.636.048.06-.016.152-.091.155-.237.009-.666.108-1.232.589-.065.055-.01.158.073.142 1.217-.24 2.459-.122 3.19.543.048.043.023.12-.039.137-6.352 1.727-5.094 7.252-3.403 14.033 1.593 6.39 2.349 8.909 2.44 9.208.006.02.017.036.035.046 1.31.718 8.194 1.154 7.902.332l.376.727z" fill="#ddd" fill-rule="evenodd"/><path d="m19.353 30.084c-.77.302-2.359.462-3.23.462-1.277 0-3.052-.191-3.722-.493a152.071 152.071 0 0 1 -3.05-10.87v-.003c-1.455-5.94-2.642-10.792 3.867-12.316.06-.014.089-.085.05-.131-.747-.886-2.147-1.177-3.916-.567-.072.025-.135-.048-.09-.11.347-.478 1.025-.846 1.36-1.007.069-.033.064-.134-.009-.157a7.469 7.469 0 0 0 -1.01-.241c-.1-.016-.109-.186-.01-.2 2.509-.337 5.128.416 6.442 2.071.012.016.03.027.05.03 4.813 1.034 5.157 8.643 4.603 8.99-.11.068-.46.028-.922-.023-1.872-.21-5.58-.625-2.52 5.08.03.055-.01.13-.073.14-1.726.268.555 5.783 2.18 9.345z" fill="#fff"/><path d="m21.437 23.06c-.367-.169-1.775.841-2.71 1.617-.196-.276-.564-.477-1.395-.333-.728.127-1.13.302-1.309.604-1.148-.435-3.08-1.107-3.546-.458-.51.71.127 4.064.805 4.5.354.227 2.046-.86 2.93-1.61.142.2.371.316.843.305.713-.017 1.87-.183 2.05-.515.011-.02.02-.044.029-.071.908.339 2.506.698 2.863.645.93-.14-.13-4.483-.56-4.683z" fill="#3ca82b"/><path d="m18.812 24.776c.039.069.07.141.096.215.13.362.34 1.514.181 1.798-.16.285-1.195.422-1.834.433-.64.011-.784-.223-.913-.585-.104-.29-.154-.97-.153-1.36-.026-.579.185-.782 1.162-.94.722-.117 1.105.02 1.325.252 1.026-.766 2.739-1.847 2.906-1.65.832.986.938 3.33.757 4.274-.059.308-2.816-.306-2.816-.638 0-1.381-.358-1.76-.71-1.799zm-6.04-.431c.226-.358 2.058.087 3.063.534 0 0-.207.936.122 2.039.096.322-2.313 1.758-2.627 1.51-.363-.285-1.032-3.332-.558-4.083z" fill="#4cba3c"/><path clip-rule="evenodd" d="m13.66 17.084c.148-.644.838-1.858 3.302-1.828 1.247-.006 2.794 0 3.82-.117a13.744 13.744 0 0 0 3.412-.83c1.067-.407 1.446-.316 1.579-.073.145.268-.026.73-.4 1.155-.711.813-1.992 1.442-4.252 1.63-2.261.186-3.76-.42-4.404.567-.278.426-.063 1.43 2.123 1.746 2.955.426 5.381-.514 5.681.054.3.567-1.427 1.723-4.386 1.747-2.96.024-4.808-1.036-5.464-1.563-.831-.669-1.203-1.644-1.012-2.488z" fill="#fc3" fill-rule="evenodd"/><g fill="#14307e" opacity=".8"><path d="m17.428 10.04c.165-.27.531-.48 1.13-.48.6 0 .88.239 1.076.505.04.054-.02.117-.082.09a2.203 2.203 0 0 0 -.994-.24c-.493-.006-.803.118-1 .224-.065.036-.17-.035-.13-.1zm-6.744.345c.582-.243 1.039-.211 1.362-.135.068.016.115-.057.06-.101-.25-.202-.811-.453-1.544-.18-.653.243-.96.75-.962 1.082 0 .078.16.085.202.018.113-.179.3-.44.882-.684z"/><path clip-rule="evenodd" d="m19.067 13.737a.93.93 0 0 1 -.931-.928.93.93 0 0 1 .93-.928.93.93 0 0 1 .932.928.93.93 0 0 1 -.931.928zm.656-1.235a.241.241 0 0 0 -.482 0 .241.241 0 0 0 .482 0zm-6.827.949c0 .598-.485 1.082-1.085 1.082a1.084 1.084 0 0 1 -1.086-1.082c0-.597.487-1.082 1.086-1.082s1.085.485 1.085 1.082zm-.32-.359a.28.28 0 1 0 -.56.002.28.28 0 0 0 .56-.002z" fill-rule="evenodd"/></g><path clip-rule="evenodd" d="m16 30.3c7.951 0 14.396-6.446 14.396-14.397 0-7.95-6.445-14.396-14.396-14.396s-14.396 6.445-14.396 14.396 6.445 14.397 14.396 14.397zm0 1.353c8.698 0 15.75-7.051 15.75-15.75 0-8.698-7.052-15.75-15.75-15.75s-15.75 7.052-15.75 15.75c0 8.699 7.052 15.75 15.75 15.75z" fill="#fff" fill-rule="evenodd"/></svg>