<svg fill="none" viewBox="0 0 16 16" xmlns="http://www.w3.org/2000/svg">
  <g clip-path="url(#Privacy-Pro-Color-16_svg__a)">
    <path fill="#FFD65C" d="M8 15.5c.232 0 .464-.053.672-.158l.178-.09c2.039-1.034 3.817-1.935 5.006-3.713 1.109-1.658 1.675-4.027 1.643-7.879a1.118 1.118 0 0 0-.467-.88 1.475 1.475 0 0 0-1.065-.27c-1.1.14-1.962.102-2.719-.133-.763-.237-1.477-.691-2.24-1.469A1.425 1.425 0 0 0 8 .5z"/>
    <path fill="#FFF0C2" d="M8 15.5c-.232 0-.464-.053-.672-.158l-.178-.09c-2.039-1.034-3.817-1.935-5.006-3.713C1.035 9.881.47 7.512.501 3.66c.003-.338.173-.66.467-.88.294-.22.682-.32 1.065-.27 1.1.14 1.962.102 2.719-.133.763-.237 1.477-.691 2.24-1.469C7.244.651 7.612.502 8 .5z"/>
    <path fill="#C18010" d="M8.5 5a.5.5 0 0 0-1 0v2.5H5a.5.5 0 0 0 0 1h2.5V11a.5.5 0 0 0 1 0V8.5H11a.5.5 0 0 0 0-1H8.5z"/>
    <path fill="#C18010" fill-rule="evenodd" d="M7.997 0a1.928 1.928 0 0 0-1.37.551c-.713.717-1.351 1.121-2.015 1.334-.666.212-1.452.263-2.518.128a1.974 1.974 0 0 0-1.427.368A1.617 1.617 0 0 0 0 3.656c-.033 3.891.536 6.38 1.727 8.161 1.262 1.887 3.143 2.84 5.14 3.853l.056.028.178.09a2.006 2.006 0 0 0 1.796 0l.178-.09.055-.028c1.998-1.013 3.879-1.966 5.14-3.853 1.192-1.781 1.76-4.27 1.728-8.16a1.618 1.618 0 0 0-.667-1.277 1.975 1.975 0 0 0-1.428-.367c-1.059.135-1.842.093-2.507-.113-.667-.207-1.312-.608-2.032-1.342A1.925 1.925 0 0 0 7.997 0m-.661 1.256A.929.929 0 0 1 7.995 1a.92.92 0 0 1 .656.259c.806.82 1.588 1.329 2.45 1.596.848.263 1.787.296 2.929.15a.975.975 0 0 1 .702.175.62.62 0 0 1 .267.485c.032 3.812-.532 6.06-1.559 7.596-1.104 1.651-2.756 2.5-4.816 3.545l-.179.09a1.007 1.007 0 0 1-.89 0l-.179-.09c-2.06-1.044-3.712-1.894-4.816-3.545C1.533 9.726.969 7.478 1 3.665a.62.62 0 0 1 .267-.485l-.22-.293.22.293a.975.975 0 0 1 .701-.174c1.155.145 2.098.102 2.947-.169.855-.273 1.626-.782 2.42-1.581Z" clip-rule="evenodd"/>
  </g>
  <defs>
    <clipPath id="Privacy-Pro-Color-16_svg__a">
      <path fill="#fff" d="M0 0h16v16H0z"/>
    </clipPath>
  </defs>
</svg>
