<svg xmlns="http://www.w3.org/2000/svg" width="24" height="24" fill="none"><path fill="#4CBA3C" d="M12 21.334c.289 0 .577-.066.836-.197l.221-.112c2.538-1.286 4.751-2.408 6.23-4.62 1.38-2.064 2.085-5.012 2.045-9.805-.004-.422-.216-.821-.581-1.096a1.835 1.835 0 0 0-1.326-.336c-1.368.174-2.44.127-3.382-.165-.95-.295-1.839-.86-2.788-1.828A1.774 1.774 0 0 0 12 2.667v18.667Z"/><path fill="#96E38A" d="M12 21.334c-.289 0-.577-.066-.836-.197l-.221-.112c-2.538-1.286-4.75-2.408-6.23-4.62-1.38-2.064-2.086-5.012-2.045-9.805.004-.422.216-.821.581-1.096a1.835 1.835 0 0 1 1.326-.336c1.368.174 2.44.127 3.382-.165.95-.295 1.839-.86 2.788-1.828.315-.32.773-.506 1.255-.508v18.667Z"/><path fill="#288419" fill-rule="evenodd" d="M10.259 2.699c.453-.456 1.09-.7 1.738-.699a2.44 2.44 0 0 1 1.733.708c.893.909 1.69 1.404 2.51 1.658.82.254 1.788.307 3.101.14a2.502 2.502 0 0 1 1.81.465c.515.387.842.974.847 1.623.042 4.845-.667 7.953-2.156 10.18-1.577 2.359-3.927 3.55-6.41 4.808l-.295.15c-.351.178-.74.267-1.13.268H11.993c-.39-.001-.78-.09-1.131-.269l-.295-.15c-2.483-1.257-4.833-2.448-6.41-4.806-1.49-2.228-2.198-5.335-2.156-10.18.005-.649.331-1.236.846-1.623a2.502 2.502 0 0 1 1.808-.466c1.323.167 2.294.103 3.114-.159.818-.261 1.606-.759 2.489-1.648Zm2.408 17.776.089-.045c2.566-1.3 4.61-2.353 5.977-4.396 1.27-1.9 1.972-4.687 1.932-9.429-.002-.194-.099-.406-.315-.568a1.17 1.17 0 0 0-.84-.208c-1.425.18-2.6.14-3.665-.19-1.08-.334-2.06-.972-3.066-1.997a.92.92 0 0 0-.112-.097v16.93ZM11.333 3.531v16.944l-.089-.045c-2.566-1.3-4.61-2.353-5.977-4.396-1.27-1.9-1.972-4.687-1.932-9.428.002-.195.099-.406.314-.568a1.17 1.17 0 0 1 .84-.21c1.441.182 2.622.13 3.687-.21 1.072-.343 2.038-.98 3.03-1.98a.927.927 0 0 1 .127-.107Z" clip-rule="evenodd"/></svg>