<svg xmlns="http://www.w3.org/2000/svg" width="24" height="24" fill="none"><path fill="url(#a)" d="M2.667 7.581A3.733 3.733 0 0 1 6.4 3.848h11.2a3.733 3.733 0 0 1 3.733 3.733v8.711a3.733 3.733 0 0 1-3.733 3.733H6.4a3.733 3.733 0 0 1-3.733-3.733V7.581Z"/><path fill="url(#b)" d="M21.333 12.87v3.73a3.733 3.733 0 0 1-3.733 3.733H6.4A3.733 3.733 0 0 1 2.667 16.6v-3.73h.622v.31a2.489 2.489 0 0 0 2.489 2.49h12.444a2.489 2.489 0 0 0 2.489-2.49v-.31h.622Z"/><path fill="url(#c)" fill-rule="evenodd" d="M2 7a4 4 0 0 1 4-4h12a4 4 0 0 1 4 4v10a4 4 0 0 1-4 4H6a4 4 0 0 1-4-4V7Zm4-2.667A2.667 2.667 0 0 0 3.333 7v10A2.667 2.667 0 0 0 6 19.667h12A2.667 2.667 0 0 0 20.667 17V7A2.667 2.667 0 0 0 18 4.333H6Z" clip-rule="evenodd"/><path fill="#551605" d="M15.334 9.644a.577.577 0 0 1 0 1.046l-5.056 2.57c-.425.216-.945-.071-.945-.523v-5.14c0-.453.52-.74.945-.523l5.056 2.57Z"/><path fill="#551605" fill-rule="evenodd" d="M14.667 15.667a.667.667 0 1 0-1.334 0V17a.667.667 0 0 0 1.334 0v-1.333Zm-9 0h6.666V17H5.667a.667.667 0 0 1 0-1.333ZM18.333 17h-2.666v-1.333h2.666a.667.667 0 1 1 0 1.333Z" clip-rule="evenodd"/><defs><linearGradient id="a" x1="12" x2="12" y1="3.848" y2="20.025" gradientUnits="userSpaceOnUse"><stop stop-color="#F2A18A"/><stop offset=".831" stop-color="#E46F4F"/></linearGradient><linearGradient id="b" x1="19.576" x2="5.152" y1="16.291" y2="13.168" gradientUnits="userSpaceOnUse"><stop stop-color="#FAD4B6"/><stop offset=".914" stop-color="#E7785A"/></linearGradient><linearGradient id="c" x1="12" x2="12" y1="3.667" y2="20.333" gradientUnits="userSpaceOnUse"><stop offset=".472" stop-color="#9A3216"/><stop offset="1" stop-color="#4F2115"/><stop offset="1" stop-color="#330B01"/></linearGradient></defs></svg>