<svg width="1280" height="715" viewBox="0 0 1280 715" fill="none" xmlns="http://www.w3.org/2000/svg">
<g clip-path="url(#clip0_2_2243)">
<rect width="1280" height="715" fill="none"/>
<g filter="url(#filter0_nn_2_2243)">
<path d="M740.228 722.255C834.308 722.255 1032.91 722.255 1091.92 722.255L1096.89 703.846C1091.54 694.819 1085.57 686.021 1078.98 677.527C1056.24 648.246 1017.87 607.884 978.857 605.649C939.845 603.413 912.367 630.02 909.289 671.9C894.219 655.856 881.167 646.108 868.166 655.462C855.126 664.843 855.198 691.621 838.928 702.441C813.371 719.428 730.987 671.157 740.228 722.255Z" fill="#C9E3FF"/>
</g>
<path d="M885.869 727.036C885.845 727.215 885.893 727.397 886.003 727.54C886.113 727.684 886.275 727.778 886.454 727.802C886.634 727.826 886.815 727.778 886.959 727.669C887.102 727.559 887.196 727.397 887.22 727.217C887.22 727.217 887.22 727.217 887.22 727.217C887.507 725.082 887.817 723.029 888.191 720.918C889.359 714.629 890.758 708.146 894.114 702.798C897.273 696.976 904.648 696.136 910.359 698.962C916.932 701.626 922.789 705.769 929.728 708.2C933.075 709.498 937.889 708.938 940.086 705.651C942.38 702.629 943.386 699.085 944.265 695.561C944.679 693.841 945.143 692.277 945.789 690.665C947.374 686.461 950.665 682.519 955.316 682.405C959.859 682.173 964.328 684.085 968.687 685.725C970.676 686.486 972.685 687.263 974.75 687.825C974.805 687.839 974.864 687.832 974.913 687.804C974.963 687.775 974.999 687.729 975.015 687.675C975.03 687.62 975.023 687.562 974.996 687.512C974.968 687.462 974.922 687.425 974.868 687.409C974.868 687.409 974.868 687.409 974.868 687.409C972.849 686.805 970.878 685.978 968.915 685.156C964.601 683.392 960.205 681.255 955.261 681.349C950.114 681.295 946.191 685.816 944.594 690.181C943.913 691.874 943.433 693.491 943.006 695.259C942.154 698.7 941.122 702.152 939.062 704.842C937.068 707.685 933.37 708.113 930.122 706.946C923.546 704.652 917.549 700.456 910.875 697.736C907.833 696.469 904.463 695.526 901.022 696.159C897.562 696.76 894.767 699.271 892.988 702.063C889.422 707.762 888.051 714.314 886.853 720.68C886.474 722.815 886.159 724.885 885.869 727.036Z" fill="#77B6E8"/>
<g filter="url(#filter1_nn_2_2243)">
<path d="M1045.46 634.115C1040.96 630.316 1042.59 624.951 1046.71 624.36C1049.18 624.006 1052.75 625.515 1052.75 629.815C1052.75 634.115 1049.96 637.914 1045.46 634.115Z" fill="#C9E3FF"/>
</g>
<path d="M1062.58 681.885C1040.02 685.53 1013.98 716.414 1035.25 716.414H1144.09C1149.39 704.045 1143.22 688.783 1119.18 692.502C1095.45 696.174 1091.67 677.183 1062.58 681.885Z" fill="#CFEBDA"/>
<g filter="url(#filter2_nn_2_2243)">
<path d="M1122.17 716.119C1122.17 707.905 1114.95 702.265 1106.14 706.124L1104.16 716.119C1106.2 716.193 1115.7 716.296 1122.17 716.119Z" fill="#82B8B9"/>
</g>
<path d="M980.505 696.868C971.676 694.307 960.428 703.594 968.279 718.511H1106.89C1111.08 714.062 1117.44 705.941 1119.53 695.351C1122.15 682.012 1111.37 667.873 1098.42 682.397C1103.91 672.976 1102.88 642.317 1076.44 644.713C1050.66 647.047 1040.32 664.732 1032.08 685.93C1031.69 676.509 1019.79 666.694 1009.24 672.343C996.696 679.055 1002.93 689.657 997.142 695.351C993.035 699.395 989.265 699.41 980.505 696.868Z" fill="#14735D"/>
<path d="M967.556 718.892C968.038 718.638 968.52 718.384 969.002 718.13C965.556 712.25 964.991 703.785 970.677 699.444C973.347 697.315 977.056 696.463 980.346 697.418C984.521 698.5 989.022 700.113 993.531 698.48C995.076 697.878 996.395 696.865 997.534 695.749C1001.16 692.118 1000.47 686.872 1001.63 682.726C1002.58 678.397 1005.68 675.009 1009.62 673.056C1018.65 668.052 1030.45 676.427 1030.99 685.975C1031.04 687.22 1032.64 687.487 1033.1 686.325C1033.42 685.503 1033.74 684.693 1034.07 683.876C1040.84 664.937 1055.12 646.297 1076.5 645.404C1084.76 644.292 1093.65 647.954 1097.29 655.634C1101.29 663.718 1101.81 674.038 1097.91 682.098C1097.55 682.706 1098.39 683.318 1098.86 682.792C1102.61 678.281 1109.4 674.53 1114.22 678.712C1118.77 682.571 1120.06 689.401 1118.93 695.234C1117.23 703.868 1112.46 711.683 1106.44 718.082L1106.89 717.884C1067.84 717.854 1028.78 717.804 989.725 717.734C982.576 717.721 975.428 717.708 968.279 717.694C968.279 718.239 968.279 718.783 968.279 719.328C975.428 719.314 982.576 719.301 989.725 719.288C1028.78 719.218 1067.84 719.168 1106.89 719.138C1107.02 719.138 1107.26 719.036 1107.35 718.94C1113.48 712.4 1118.37 704.396 1120.13 695.469C1121.29 689.277 1120.05 682.123 1114.97 677.777C1109.38 672.986 1101.74 677.391 1097.98 682.002L1098.93 682.696C1103.11 673.97 1102.5 663.629 1098.33 655.087C1094.55 646.997 1084.96 642.949 1076.37 644.021C1054.47 644.478 1038.76 663.954 1032.04 683.058C1031.71 683.884 1031.38 684.703 1031.06 685.534L1033.17 685.884C1032.37 674.562 1019 665.824 1008.85 671.629C1004.71 673.772 1001.25 677.773 1000.36 682.419C999.277 686.887 999.888 691.87 996.751 694.954C995.681 696.015 994.488 696.926 993.129 697.455C989.224 698.917 984.785 697.445 980.665 696.319C976.999 695.232 972.904 696.136 969.909 698.459C963.498 703.219 964.064 712.661 967.556 718.892ZM969.002 718.13L967.556 718.892C967.679 719.119 968.02 719.329 968.279 719.328V717.694L969.002 718.13Z" fill="#11604D"/>
<g filter="url(#filter3_nn_2_2243)">
<path d="M213.467 750.998L130.422 734.576C128.908 694.582 136.85 738.879 135.946 712.058L148.358 704.851C165.173 712.058 175.583 690.838 199.609 678.827C214.094 671.585 237.675 660.071 259.265 681.662C280.855 703.252 308.111 710.056 334.136 700.847C381.845 683.966 419.422 697.225 435.832 739.284L369.995 734.576L279.262 747.865L213.467 750.998Z" fill="#C9E3FF"/>
</g>
<path d="M189.724 692.976C169.957 693.17 132.5 699.772 116 727.655H146.027H274.86C275.682 716.15 269.011 706.659 245.934 704.036C225.287 701.69 209.49 692.782 189.724 692.976Z" fill="#CFEBDA"/>
<g filter="url(#filter4_nn_2_2243)">
<path d="M249.777 709.243C249.122 705.222 242.532 704.512 239.26 707.411L239.727 716.574H249.265C249.857 715.296 250.3 712.459 249.777 709.243Z" fill="#82B8B9"/>
</g>
<path d="M188.44 664.317C189.27 651.017 216.254 650.874 228.201 673.84C238.042 692.757 238.916 700.525 241.54 719.077C223.268 717.22 175.218 722.232 156.541 719.077C151.938 700.116 148.22 662.616 170.749 686.368C159.747 664.317 178.754 649.691 188.44 664.317Z" fill="#14735D"/>
<path d="M228.926 673.463C228.443 673.714 227.96 673.966 227.477 674.217C225.373 669.986 222.52 666.153 218.952 663.056C214.989 659.614 210.171 657.107 204.993 656.17C198.521 654.767 189.393 657.2 189.247 664.367C189.201 665.223 188.246 665.474 187.766 664.763C185.737 661.763 182.613 659.425 179.183 659.438C175.766 659.393 172.627 661.647 170.828 664.633C167.019 670.93 168.271 679.238 171.572 685.957C172.053 686.918 170.823 687.779 170.082 687C168.062 684.831 165.987 682.802 163.638 681.221C161.41 679.688 158.318 678.563 156.538 680.56C153.2 684.842 153.597 691.448 153.777 697.132C154.22 704.475 155.413 711.792 157.12 718.936L156.64 718.49C184.715 721.528 213.128 716.775 241.611 718.381L240.847 719.175C239.284 708.251 237.882 697.278 233.59 687.167C231.795 682.745 229.699 678.464 227.477 674.217C227.96 673.966 228.443 673.714 228.926 673.463C231.139 677.752 233.232 682.086 235.031 686.587C239.347 696.906 240.719 708.091 242.232 718.979C242.3 719.467 241.96 719.823 241.469 719.772C213.306 718.06 184.881 722.758 156.442 719.664C156.234 719.629 156.012 719.422 155.962 719.217C154.245 711.996 153.048 704.64 152.598 697.199C152.499 691.355 151.628 684.992 155.526 679.592C158.031 676.747 162.199 678.326 164.512 679.866C167.098 681.514 169.284 683.557 171.416 685.735L169.927 686.778C166.321 679.842 164.574 670.833 168.964 663.486C171.038 660.024 174.927 657.252 179.227 657.43C183.554 657.558 187.05 660.559 189.114 663.87L187.633 664.266C188.35 655.578 198.583 653.686 205.187 655.087C210.588 656.066 215.583 658.613 219.762 662.106C223.521 665.249 226.586 669.143 228.926 673.463ZM227.477 674.217L228.926 673.463L227.477 674.217V674.217Z" fill="#11604D"/>
<path d="M193.654 660.492C193.598 660.431 193.568 660.349 193.57 660.265C193.573 660.181 193.608 660.102 193.669 660.044C193.73 659.987 193.811 659.955 193.895 659.957C193.979 659.959 194.059 659.993 194.117 660.053C194.117 660.053 194.117 660.053 194.117 660.053C194.858 660.855 195.359 661.69 195.914 662.59C204.722 678.772 211.796 695.662 218.077 713.03C218.396 714.008 218.713 715.009 218.954 716.041C219.019 716.324 218.969 716.619 218.812 716.863C218.655 717.107 218.404 717.279 218.117 717.341C217.83 717.403 217.531 717.35 217.287 717.193C217.043 717.036 216.875 716.788 216.817 716.504C216.817 716.504 216.817 716.504 216.817 716.504C216.633 715.607 216.349 714.616 216.065 713.663C210.311 696.392 203.613 679.187 195.298 662.953C194.78 662.061 194.287 661.21 193.654 660.492Z" fill="#82B8B9"/>
<path d="M1084.24 659.474C1084.32 659.435 1084.37 659.367 1084.4 659.287C1084.42 659.207 1084.42 659.12 1084.38 659.046C1084.34 658.972 1084.27 658.916 1084.19 658.889C1084.11 658.863 1084.03 658.869 1083.95 658.906C1083.95 658.906 1083.95 658.906 1083.95 658.906C1082.96 659.4 1082.02 659.985 1081.13 660.644C1065.76 674.128 1064.13 695.983 1054.2 712.33C1053.63 713.234 1053.03 714.103 1052.4 714.908C1052.22 715.136 1052.14 715.425 1052.17 715.713C1052.21 716 1052.36 716.263 1052.6 716.442C1052.83 716.62 1053.12 716.7 1053.41 716.663C1053.7 716.625 1053.96 716.473 1054.13 716.241C1054.13 716.241 1054.13 716.241 1054.13 716.241C1054.8 715.347 1055.42 714.402 1056 713.434C1065.83 696.179 1066.91 674.648 1081.56 661.215C1082.41 660.558 1083.3 659.973 1084.24 659.474Z" fill="#82B8B9"/>
<path d="M190.556 683.624C190.595 683.551 190.602 683.465 190.578 683.385C190.553 683.305 190.5 683.238 190.428 683.198C190.355 683.158 190.27 683.148 190.189 683.17C190.109 683.193 190.04 683.245 189.998 683.316C189.998 683.316 189.998 683.316 189.998 683.316C189.711 683.842 189.565 684.325 189.395 684.853C186.951 694.153 185.464 703.512 184.417 713.112C184.375 713.652 184.336 714.202 184.341 714.785C184.343 715.075 184.461 715.349 184.673 715.547C184.885 715.746 185.173 715.851 185.47 715.841C185.767 715.831 186.048 715.706 186.246 715.494C186.444 715.283 186.543 715.001 186.526 714.711C186.526 714.711 186.526 714.711 186.526 714.711C186.5 714.27 186.508 713.737 186.523 713.23C187.084 703.848 188.128 694.281 190.083 685.049C190.219 684.539 190.353 684.041 190.556 683.624Z" fill="#82B8B9"/>
<path d="M178.395 690.62C178.349 690.582 178.319 690.526 178.311 690.466C178.304 690.406 178.319 690.345 178.355 690.298C178.39 690.25 178.444 690.218 178.504 690.208C178.564 690.198 178.626 690.211 178.675 690.244C178.675 690.244 178.675 690.244 178.675 690.244C178.912 690.419 179.065 690.591 179.243 690.781C182.103 694.196 184.552 697.787 186.893 701.613C187.018 701.834 187.144 702.057 187.264 702.319C187.353 702.512 187.36 702.73 187.279 702.927C187.197 703.124 187.034 703.282 186.83 703.367C186.626 703.452 186.398 703.454 186.202 703.373C186.005 703.292 185.856 703.133 185.782 702.933C185.782 702.933 185.782 702.933 185.782 702.933C185.72 702.759 185.62 702.538 185.522 702.33C183.573 698.502 181.356 694.638 178.843 691.121C178.694 690.932 178.543 690.747 178.395 690.62Z" fill="#82B8B9"/>
<path d="M211.542 700.861C211.696 700.956 211.88 700.985 212.055 700.939C212.23 700.893 212.381 700.776 212.474 700.616C212.568 700.456 212.595 700.267 212.549 700.092C212.503 699.917 212.388 699.771 212.229 699.684C212.229 699.684 212.229 699.684 212.229 699.684C211.961 699.535 211.686 699.39 211.411 699.249C206.44 696.801 201.176 695.272 195.829 694.185C195.532 694.128 195.231 694.072 194.936 694.02C194.871 694.009 194.802 694.024 194.747 694.062C194.691 694.1 194.653 694.158 194.64 694.223C194.627 694.289 194.64 694.356 194.677 694.413C194.713 694.469 194.77 694.51 194.835 694.524C194.835 694.524 194.835 694.524 194.835 694.524C195.125 694.59 195.42 694.658 195.711 694.729C200.942 696.046 206.121 697.832 210.784 700.412C211.041 700.558 211.295 700.709 211.542 700.861Z" fill="#82B8B9"/>
<g filter="url(#filter5_nn_2_2243)">
<path d="M290.269 690.235C283.492 685.672 280.35 691.346 285.385 696.26C290.421 701.173 297.13 694.855 290.269 690.235Z" fill="#C9E3FF"/>
</g>
<path d="M1058.89 666.195C1058.9 666.112 1058.88 666.028 1058.82 665.962C1058.77 665.895 1058.7 665.852 1058.62 665.841C1058.53 665.83 1058.45 665.852 1058.38 665.902C1058.31 665.953 1058.27 666.028 1058.26 666.11C1058.26 666.11 1058.26 666.11 1058.26 666.11C1058.18 666.617 1058.13 667.125 1058.09 667.636C1057.53 676.938 1062.31 685.503 1061.95 694.368C1061.92 694.854 1061.88 695.337 1061.82 695.817C1061.79 696.007 1061.85 696.198 1061.97 696.348C1062.09 696.498 1062.26 696.594 1062.45 696.616C1062.65 696.638 1062.84 696.584 1062.99 696.464C1063.14 696.345 1063.23 696.171 1063.25 695.981C1063.25 695.981 1063.25 695.981 1063.25 695.981C1063.31 695.461 1063.34 694.94 1063.35 694.42C1063.43 684.976 1058.44 676.714 1058.77 667.675C1058.79 667.18 1058.83 666.687 1058.89 666.195Z" fill="#82B8B9"/>
<path d="M1011.52 681.597C1011.53 681.514 1011.5 681.432 1011.44 681.368C1011.39 681.305 1011.31 681.265 1011.23 681.258C1011.15 681.251 1011.07 681.277 1011 681.33C1010.94 681.383 1010.89 681.46 1010.89 681.542C1010.89 681.542 1010.89 681.542 1010.89 681.542C1010.81 682.238 1010.79 682.891 1010.82 683.583C1012.41 696.501 1029.22 700.726 1027.47 713.414C1027.44 714.054 1027.39 714.653 1027.31 715.306C1027.27 715.594 1027.35 715.882 1027.53 716.109C1027.71 716.335 1027.98 716.481 1028.27 716.513C1028.57 716.546 1028.86 716.462 1029.09 716.281C1029.31 716.099 1029.45 715.835 1029.48 715.546C1029.55 714.829 1029.58 714.17 1029.58 713.463C1030.57 699.12 1013.09 695.448 1011.53 683.537C1011.48 682.886 1011.48 682.265 1011.52 681.597Z" fill="#82B8B9"/>
<path d="M1022.85 688.486C1022.82 688.411 1022.76 688.35 1022.68 688.316C1022.61 688.281 1022.52 688.275 1022.45 688.3C1022.37 688.326 1022.31 688.38 1022.27 688.453C1022.23 688.526 1022.22 688.61 1022.24 688.688C1022.24 688.688 1022.24 688.688 1022.24 688.688C1022.3 688.909 1022.36 689.141 1022.42 689.367C1023.38 693.478 1023.93 697.75 1024.2 701.908C1024.21 702.137 1024.21 702.364 1024.21 702.57C1024.21 702.86 1024.33 703.132 1024.55 703.326C1024.76 703.519 1025.06 703.618 1025.37 703.601C1025.67 703.584 1025.96 703.453 1026.15 703.237C1026.34 703.021 1026.43 702.737 1026.4 702.449C1026.4 702.449 1026.4 702.449 1026.4 702.449C1026.37 702.19 1026.33 701.943 1026.3 701.696C1025.55 697.389 1024.54 693.238 1023.1 689.158C1023.02 688.934 1022.93 688.705 1022.85 688.486Z" fill="#82B8B9"/>
<path d="M1092.9 687.845C1092.95 687.811 1092.99 687.761 1093 687.704C1093.02 687.647 1093.01 687.587 1092.98 687.536C1092.95 687.485 1092.91 687.447 1092.85 687.429C1092.8 687.41 1092.73 687.414 1092.68 687.434C1092.68 687.434 1092.68 687.434 1092.68 687.434C1092.42 687.531 1092.16 687.633 1091.9 687.744C1089.59 688.73 1087.48 690.279 1085.82 692.204C1084.16 694.127 1082.85 696.377 1082.14 698.822C1082.06 699.091 1081.99 699.372 1081.93 699.644C1081.91 699.752 1081.92 699.866 1081.97 699.964C1082.03 700.061 1082.11 700.135 1082.22 700.167C1082.32 700.2 1082.44 700.191 1082.54 700.141C1082.63 700.092 1082.71 700.006 1082.75 699.905C1082.75 699.905 1082.75 699.905 1082.75 699.905C1082.86 699.666 1082.97 699.42 1083.09 699.184C1084.15 697.042 1085.53 695.081 1087.07 693.29C1088.62 691.5 1090.33 689.846 1092.25 688.342C1092.47 688.174 1092.68 688.01 1092.9 687.845Z" fill="#82B8B9"/>
<path d="M1135.96 693.475C1135.9 693.464 1135.84 693.475 1135.78 693.508C1135.73 693.54 1135.69 693.592 1135.68 693.651C1135.66 693.71 1135.67 693.774 1135.7 693.827C1135.73 693.881 1135.78 693.92 1135.84 693.939C1135.84 693.939 1135.84 693.939 1135.84 693.939C1136.17 694.043 1136.49 694.175 1136.8 694.322C1139.64 695.731 1141.74 698.286 1143.14 701.084C1144.5 703.818 1145.17 706.885 1145.25 710.009C1145.26 710.363 1145.26 710.71 1145.26 711.07C1145.26 711.124 1145.28 711.177 1145.31 711.218C1145.35 711.259 1145.4 711.284 1145.45 711.289C1145.5 711.294 1145.56 711.277 1145.6 711.243C1145.64 711.208 1145.67 711.159 1145.67 711.106C1145.67 711.106 1145.67 711.106 1145.67 711.106C1145.73 710.744 1145.78 710.392 1145.81 710.03C1146.15 706.846 1145.65 703.496 1144.19 700.563C1142.7 697.563 1140.23 694.908 1137.03 693.759C1136.68 693.64 1136.32 693.542 1135.96 693.475Z" fill="#82B8B9"/>
</g>
<defs>
<filter id="filter0_nn_2_2243" x="739.509" y="605.518" width="357.376" height="116.737" filterUnits="userSpaceOnUse" color-interpolation-filters="sRGB">
<feFlood flood-opacity="0" result="BackgroundImageFix"/>
<feBlend mode="normal" in="SourceGraphic" in2="BackgroundImageFix" result="shape"/>
<feTurbulence type="fractalNoise" baseFrequency="0.4284854531288147 0.4284854531288147" stitchTiles="stitch" numOctaves="3" result="noise" seed="2151" />
<feComponentTransfer in="noise" result="coloredNoise1">
<feFuncR type="linear" slope="2" intercept="-0.5" />
<feFuncG type="linear" slope="2" intercept="-0.5" />
<feFuncB type="linear" slope="2" intercept="-0.5" />
<feFuncA type="discrete" tableValues="1 1 1 1 1 1 1 1 1 1 1 1 1 1 1 1 1 1 1 1 1 1 1 1 1 1 1 1 1 1 1 1 1 1 1 1 1 1 1 1 1 1 1 1 1 1 1 1 1 1 1 0 0 0 0 0 0 0 0 0 0 0 0 0 0 0 0 0 0 0 0 0 0 0 0 0 0 0 0 0 0 0 0 0 0 0 0 0 0 0 0 0 0 0 0 0 0 0 0 0 "/>
</feComponentTransfer>
<feComposite operator="in" in2="shape" in="coloredNoise1" result="noise1Clipped" />
<feComponentTransfer in="noise1Clipped" result="color1">
<feFuncA type="table" tableValues="0 0.1" />
</feComponentTransfer>
<feMerge result="effect1_noise_2_2243">
<feMergeNode in="shape" />
<feMergeNode in="color1" />
</feMerge>
<feTurbulence type="fractalNoise" baseFrequency="0.22073492407798767 0.22073492407798767" stitchTiles="stitch" numOctaves="3" result="noise" seed="3494" />
<feColorMatrix in="noise" type="luminanceToAlpha" result="alphaNoise" />
<feComponentTransfer in="alphaNoise" result="coloredNoise1">
<feFuncA type="discrete" tableValues="0 0 0 0 0 0 0 0 0 0 0 0 0 0 0 0 0 1 1 1 1 1 1 1 1 1 1 1 1 1 1 1 0 0 0 0 0 0 0 0 0 0 0 0 0 0 0 0 0 0 0 0 0 0 0 0 0 0 0 0 0 0 0 0 0 0 0 0 0 0 0 0 0 0 0 0 0 0 0 0 0 0 0 0 0 0 0 0 0 0 0 0 0 0 0 0 0 0 0 0 "/>
</feComponentTransfer>
<feComposite operator="in" in2="effect1_noise_2_2243" in="coloredNoise1" result="noise1Clipped" />
<feFlood flood-color="rgba(255, 255, 255, 0.18)" result="color1Flood" />
<feComposite operator="in" in2="noise1Clipped" in="color1Flood" result="color1" />
<feMerge result="effect2_noise_2_2243">
<feMergeNode in="effect1_noise_2_2243" />
<feMergeNode in="color1" />
</feMerge>
</filter>
<filter id="filter1_nn_2_2243" x="1042.76" y="624.311" width="9.98535" height="11.366" filterUnits="userSpaceOnUse" color-interpolation-filters="sRGB">
<feFlood flood-opacity="0" result="BackgroundImageFix"/>
<feBlend mode="normal" in="SourceGraphic" in2="BackgroundImageFix" result="shape"/>
<feTurbulence type="fractalNoise" baseFrequency="0.4284854531288147 0.4284854531288147" stitchTiles="stitch" numOctaves="3" result="noise" seed="2151" />
<feComponentTransfer in="noise" result="coloredNoise1">
<feFuncR type="linear" slope="2" intercept="-0.5" />
<feFuncG type="linear" slope="2" intercept="-0.5" />
<feFuncB type="linear" slope="2" intercept="-0.5" />
<feFuncA type="discrete" tableValues="1 1 1 1 1 1 1 1 1 1 1 1 1 1 1 1 1 1 1 1 1 1 1 1 1 1 1 1 1 1 1 1 1 1 1 1 1 1 1 1 1 1 1 1 1 1 1 1 1 1 1 0 0 0 0 0 0 0 0 0 0 0 0 0 0 0 0 0 0 0 0 0 0 0 0 0 0 0 0 0 0 0 0 0 0 0 0 0 0 0 0 0 0 0 0 0 0 0 0 0 "/>
</feComponentTransfer>
<feComposite operator="in" in2="shape" in="coloredNoise1" result="noise1Clipped" />
<feComponentTransfer in="noise1Clipped" result="color1">
<feFuncA type="table" tableValues="0 0.1" />
</feComponentTransfer>
<feMerge result="effect1_noise_2_2243">
<feMergeNode in="shape" />
<feMergeNode in="color1" />
</feMerge>
<feTurbulence type="fractalNoise" baseFrequency="0.22073492407798767 0.22073492407798767" stitchTiles="stitch" numOctaves="3" result="noise" seed="3494" />
<feColorMatrix in="noise" type="luminanceToAlpha" result="alphaNoise" />
<feComponentTransfer in="alphaNoise" result="coloredNoise1">
<feFuncA type="discrete" tableValues="0 0 0 0 0 0 0 0 0 0 0 0 0 0 0 0 0 1 1 1 1 1 1 1 1 1 1 1 1 1 1 1 0 0 0 0 0 0 0 0 0 0 0 0 0 0 0 0 0 0 0 0 0 0 0 0 0 0 0 0 0 0 0 0 0 0 0 0 0 0 0 0 0 0 0 0 0 0 0 0 0 0 0 0 0 0 0 0 0 0 0 0 0 0 0 0 0 0 0 0 "/>
</feComponentTransfer>
<feComposite operator="in" in2="effect1_noise_2_2243" in="coloredNoise1" result="noise1Clipped" />
<feFlood flood-color="rgba(255, 255, 255, 0.18)" result="color1Flood" />
<feComposite operator="in" in2="noise1Clipped" in="color1Flood" result="color1" />
<feMerge result="effect2_noise_2_2243">
<feMergeNode in="effect1_noise_2_2243" />
<feMergeNode in="color1" />
</feMerge>
</filter>
<filter id="filter2_nn_2_2243" x="1104.16" y="704.883" width="18.0107" height="11.3342" filterUnits="userSpaceOnUse" color-interpolation-filters="sRGB">
<feFlood flood-opacity="0" result="BackgroundImageFix"/>
<feBlend mode="normal" in="SourceGraphic" in2="BackgroundImageFix" result="shape"/>
<feTurbulence type="fractalNoise" baseFrequency="0.4284854531288147 0.4284854531288147" stitchTiles="stitch" numOctaves="3" result="noise" seed="2151" />
<feComponentTransfer in="noise" result="coloredNoise1">
<feFuncR type="linear" slope="2" intercept="-0.5" />
<feFuncG type="linear" slope="2" intercept="-0.5" />
<feFuncB type="linear" slope="2" intercept="-0.5" />
<feFuncA type="discrete" tableValues="1 1 1 1 1 1 1 1 1 1 1 1 1 1 1 1 1 1 1 1 1 1 1 1 1 1 1 1 1 1 1 1 1 1 1 1 1 1 1 1 1 1 1 1 1 1 1 1 1 1 1 0 0 0 0 0 0 0 0 0 0 0 0 0 0 0 0 0 0 0 0 0 0 0 0 0 0 0 0 0 0 0 0 0 0 0 0 0 0 0 0 0 0 0 0 0 0 0 0 0 "/>
</feComponentTransfer>
<feComposite operator="in" in2="shape" in="coloredNoise1" result="noise1Clipped" />
<feComponentTransfer in="noise1Clipped" result="color1">
<feFuncA type="table" tableValues="0 0.1" />
</feComponentTransfer>
<feMerge result="effect1_noise_2_2243">
<feMergeNode in="shape" />
<feMergeNode in="color1" />
</feMerge>
<feTurbulence type="fractalNoise" baseFrequency="0.22073492407798767 0.22073492407798767" stitchTiles="stitch" numOctaves="3" result="noise" seed="3494" />
<feColorMatrix in="noise" type="luminanceToAlpha" result="alphaNoise" />
<feComponentTransfer in="alphaNoise" result="coloredNoise1">
<feFuncA type="discrete" tableValues="0 0 0 0 0 0 0 0 0 0 0 0 0 0 0 0 0 1 1 1 1 1 1 1 1 1 1 1 1 1 1 1 0 0 0 0 0 0 0 0 0 0 0 0 0 0 0 0 0 0 0 0 0 0 0 0 0 0 0 0 0 0 0 0 0 0 0 0 0 0 0 0 0 0 0 0 0 0 0 0 0 0 0 0 0 0 0 0 0 0 0 0 0 0 0 0 0 0 0 0 "/>
</feComponentTransfer>
<feComposite operator="in" in2="effect1_noise_2_2243" in="coloredNoise1" result="noise1Clipped" />
<feFlood flood-color="rgba(255, 255, 255, 0.18)" result="color1Flood" />
<feComposite operator="in" in2="noise1Clipped" in="color1Flood" result="color1" />
<feMerge result="effect2_noise_2_2243">
<feMergeNode in="effect1_noise_2_2243" />
<feMergeNode in="color1" />
</feMerge>
</filter>
<filter id="filter3_nn_2_2243" x="130.229" y="669.201" width="305.603" height="81.7966" filterUnits="userSpaceOnUse" color-interpolation-filters="sRGB">
<feFlood flood-opacity="0" result="BackgroundImageFix"/>
<feBlend mode="normal" in="SourceGraphic" in2="BackgroundImageFix" result="shape"/>
<feTurbulence type="fractalNoise" baseFrequency="0.35962474346160889 0.35962474346160889" stitchTiles="stitch" numOctaves="3" result="noise" seed="2151" />
<feComponentTransfer in="noise" result="coloredNoise1">
<feFuncR type="linear" slope="2" intercept="-0.5" />
<feFuncG type="linear" slope="2" intercept="-0.5" />
<feFuncB type="linear" slope="2" intercept="-0.5" />
<feFuncA type="discrete" tableValues="1 1 1 1 1 1 1 1 1 1 1 1 1 1 1 1 1 1 1 1 1 1 1 1 1 1 1 1 1 1 1 1 1 1 1 1 1 1 1 1 1 1 1 1 1 1 1 1 1 1 1 0 0 0 0 0 0 0 0 0 0 0 0 0 0 0 0 0 0 0 0 0 0 0 0 0 0 0 0 0 0 0 0 0 0 0 0 0 0 0 0 0 0 0 0 0 0 0 0 0 "/>
</feComponentTransfer>
<feComposite operator="in" in2="shape" in="coloredNoise1" result="noise1Clipped" />
<feComponentTransfer in="noise1Clipped" result="color1">
<feFuncA type="table" tableValues="0 0.1" />
</feComponentTransfer>
<feMerge result="effect1_noise_2_2243">
<feMergeNode in="shape" />
<feMergeNode in="color1" />
</feMerge>
<feTurbulence type="fractalNoise" baseFrequency="0.18526121973991394 0.18526121973991394" stitchTiles="stitch" numOctaves="3" result="noise" seed="3494" />
<feColorMatrix in="noise" type="luminanceToAlpha" result="alphaNoise" />
<feComponentTransfer in="alphaNoise" result="coloredNoise1">
<feFuncA type="discrete" tableValues="0 0 0 0 0 0 0 0 0 0 0 0 0 0 0 0 0 1 1 1 1 1 1 1 1 1 1 1 1 1 1 1 0 0 0 0 0 0 0 0 0 0 0 0 0 0 0 0 0 0 0 0 0 0 0 0 0 0 0 0 0 0 0 0 0 0 0 0 0 0 0 0 0 0 0 0 0 0 0 0 0 0 0 0 0 0 0 0 0 0 0 0 0 0 0 0 0 0 0 0 "/>
</feComponentTransfer>
<feComposite operator="in" in2="effect1_noise_2_2243" in="coloredNoise1" result="noise1Clipped" />
<feFlood flood-color="rgba(255, 255, 255, 0.18)" result="color1Flood" />
<feComposite operator="in" in2="noise1Clipped" in="color1Flood" result="color1" />
<feMerge result="effect2_noise_2_2243">
<feMergeNode in="effect1_noise_2_2243" />
<feMergeNode in="color1" />
</feMerge>
</filter>
<filter id="filter4_nn_2_2243" x="239.26" y="705.645" width="10.749" height="10.9297" filterUnits="userSpaceOnUse" color-interpolation-filters="sRGB">
<feFlood flood-opacity="0" result="BackgroundImageFix"/>
<feBlend mode="normal" in="SourceGraphic" in2="BackgroundImageFix" result="shape"/>
<feTurbulence type="fractalNoise" baseFrequency="0.4284854531288147 0.4284854531288147" stitchTiles="stitch" numOctaves="3" result="noise" seed="2151" />
<feComponentTransfer in="noise" result="coloredNoise1">
<feFuncR type="linear" slope="2" intercept="-0.5" />
<feFuncG type="linear" slope="2" intercept="-0.5" />
<feFuncB type="linear" slope="2" intercept="-0.5" />
<feFuncA type="discrete" tableValues="1 1 1 1 1 1 1 1 1 1 1 1 1 1 1 1 1 1 1 1 1 1 1 1 1 1 1 1 1 1 1 1 1 1 1 1 1 1 1 1 1 1 1 1 1 1 1 1 1 1 1 0 0 0 0 0 0 0 0 0 0 0 0 0 0 0 0 0 0 0 0 0 0 0 0 0 0 0 0 0 0 0 0 0 0 0 0 0 0 0 0 0 0 0 0 0 0 0 0 0 "/>
</feComponentTransfer>
<feComposite operator="in" in2="shape" in="coloredNoise1" result="noise1Clipped" />
<feComponentTransfer in="noise1Clipped" result="color1">
<feFuncA type="table" tableValues="0 0.1" />
</feComponentTransfer>
<feMerge result="effect1_noise_2_2243">
<feMergeNode in="shape" />
<feMergeNode in="color1" />
</feMerge>
<feTurbulence type="fractalNoise" baseFrequency="0.22073492407798767 0.22073492407798767" stitchTiles="stitch" numOctaves="3" result="noise" seed="3494" />
<feColorMatrix in="noise" type="luminanceToAlpha" result="alphaNoise" />
<feComponentTransfer in="alphaNoise" result="coloredNoise1">
<feFuncA type="discrete" tableValues="0 0 0 0 0 0 0 0 0 0 0 0 0 0 0 0 0 1 1 1 1 1 1 1 1 1 1 1 1 1 1 1 0 0 0 0 0 0 0 0 0 0 0 0 0 0 0 0 0 0 0 0 0 0 0 0 0 0 0 0 0 0 0 0 0 0 0 0 0 0 0 0 0 0 0 0 0 0 0 0 0 0 0 0 0 0 0 0 0 0 0 0 0 0 0 0 0 0 0 0 "/>
</feComponentTransfer>
<feComposite operator="in" in2="effect1_noise_2_2243" in="coloredNoise1" result="noise1Clipped" />
<feFlood flood-color="rgba(255, 255, 255, 0.18)" result="color1Flood" />
<feComposite operator="in" in2="noise1Clipped" in="color1Flood" result="color1" />
<feMerge result="effect2_noise_2_2243">
<feMergeNode in="effect1_noise_2_2243" />
<feMergeNode in="color1" />
</feMerge>
</filter>
<filter id="filter5_nn_2_2243" x="282.906" y="688.559" width="10.2861" height="9.48315" filterUnits="userSpaceOnUse" color-interpolation-filters="sRGB">
<feFlood flood-opacity="0" result="BackgroundImageFix"/>
<feBlend mode="normal" in="SourceGraphic" in2="BackgroundImageFix" result="shape"/>
<feTurbulence type="fractalNoise" baseFrequency="0.35962474346160889 0.35962474346160889" stitchTiles="stitch" numOctaves="3" result="noise" seed="2151" />
<feComponentTransfer in="noise" result="coloredNoise1">
<feFuncR type="linear" slope="2" intercept="-0.5" />
<feFuncG type="linear" slope="2" intercept="-0.5" />
<feFuncB type="linear" slope="2" intercept="-0.5" />
<feFuncA type="discrete" tableValues="1 1 1 1 1 1 1 1 1 1 1 1 1 1 1 1 1 1 1 1 1 1 1 1 1 1 1 1 1 1 1 1 1 1 1 1 1 1 1 1 1 1 1 1 1 1 1 1 1 1 1 0 0 0 0 0 0 0 0 0 0 0 0 0 0 0 0 0 0 0 0 0 0 0 0 0 0 0 0 0 0 0 0 0 0 0 0 0 0 0 0 0 0 0 0 0 0 0 0 0 "/>
</feComponentTransfer>
<feComposite operator="in" in2="shape" in="coloredNoise1" result="noise1Clipped" />
<feComponentTransfer in="noise1Clipped" result="color1">
<feFuncA type="table" tableValues="0 0.1" />
</feComponentTransfer>
<feMerge result="effect1_noise_2_2243">
<feMergeNode in="shape" />
<feMergeNode in="color1" />
</feMerge>
<feTurbulence type="fractalNoise" baseFrequency="0.18526121973991394 0.18526121973991394" stitchTiles="stitch" numOctaves="3" result="noise" seed="3494" />
<feColorMatrix in="noise" type="luminanceToAlpha" result="alphaNoise" />
<feComponentTransfer in="alphaNoise" result="coloredNoise1">
<feFuncA type="discrete" tableValues="0 0 0 0 0 0 0 0 0 0 0 0 0 0 0 0 0 1 1 1 1 1 1 1 1 1 1 1 1 1 1 1 0 0 0 0 0 0 0 0 0 0 0 0 0 0 0 0 0 0 0 0 0 0 0 0 0 0 0 0 0 0 0 0 0 0 0 0 0 0 0 0 0 0 0 0 0 0 0 0 0 0 0 0 0 0 0 0 0 0 0 0 0 0 0 0 0 0 0 0 "/>
</feComponentTransfer>
<feComposite operator="in" in2="effect1_noise_2_2243" in="coloredNoise1" result="noise1Clipped" />
<feFlood flood-color="rgba(255, 255, 255, 0.18)" result="color1Flood" />
<feComposite operator="in" in2="noise1Clipped" in="color1Flood" result="color1" />
<feMerge result="effect2_noise_2_2243">
<feMergeNode in="effect1_noise_2_2243" />
<feMergeNode in="color1" />
</feMerge>
</filter>
<clipPath id="clip0_2_2243">
<rect width="1280" height="715" fill="none"/>
</clipPath>
</defs>
</svg>
