<svg fill="none" viewBox="0 0 24 24" xmlns="http://www.w3.org/2000/svg">
  <g clip-path="url(#Crimtan-Holdings_svg__a)">
    <path fill="#F22B1C" d="M24 12c0 6.627-5.373 12-12 12S0 18.627 0 12 5.373 0 12 0s12 5.373 12 12Z"/>
    <path fill="#000" fill-opacity=".12" fill-rule="evenodd" d="M24 12c0 6.627-5.373 12-12 12S0 18.627 0 12 5.373 0 12 0s12 5.373 12 12ZM12 23.5c6.351 0 11.5-5.149 11.5-11.5S18.351.5 12 .5.5 5.649.5 12 5.649 23.5 12 23.5Z" clip-rule="evenodd"/>
    <path fill="#fff" d="M19.127 7.547a.403.403 0 0 1-.16.672l-3.84 1.304a.432.432 0 0 1-.437-.097.398.398 0 0 1-.1-.423l1.35-3.711a.426.426 0 0 1 .537-.25c.22.076.335.307.258.52l-1.058 2.91 3.012-1.021a.433.433 0 0 1 .438.096ZM13.79 4a.42.42 0 0 1 .182.04c.21.097.298.34.198.544L12.407 8.13a.423.423 0 0 1-.38.23.422.422 0 0 1-.38-.23l-1.76-3.546a.4.4 0 0 1 .197-.544.429.429 0 0 1 .563.19l1.38 2.783L13.41 4.23a.424.424 0 0 1 .38-.23ZM7.42 5.139a.425.425 0 0 1 .695.153l1.349 3.712a.398.398 0 0 1-.099.423.436.436 0 0 1-.438.096L5.087 8.22a.404.404 0 0 1-.258-.52.425.425 0 0 1 .538-.248l3.011 1.022-1.057-2.91a.399.399 0 0 1 .1-.424Zm-3.67 5.158c0-.059.013-.12.042-.176a.428.428 0 0 1 .562-.19l3.669 1.702c.146.068.24.21.24.367s-.094.3-.24.367L4.354 14.07a.428.428 0 0 1-.562-.192.402.402 0 0 1 .197-.543L6.867 12 3.99 10.665a.407.407 0 0 1-.24-.368Zm1.18 6.156a.403.403 0 0 1 .158-.672l3.84-1.303a.431.431 0 0 1 .438.096.4.4 0 0 1 .1.423l-1.35 3.71a.426.426 0 0 1-.538.25.404.404 0 0 1-.257-.52l1.058-2.91-3.012 1.022a.431.431 0 0 1-.438-.096ZM10.266 20a.432.432 0 0 1-.182-.04.402.402 0 0 1-.198-.544l1.763-3.546a.42.42 0 0 1 .38-.23c.161 0 .31.09.38.23l1.76 3.546a.401.401 0 0 1-.197.544.43.43 0 0 1-.563-.191l-1.38-2.782-1.383 2.782a.423.423 0 0 1-.38.231Zm6.369-1.14a.426.426 0 0 1-.695-.153l-1.348-3.711a.396.396 0 0 1 .1-.424.43.43 0 0 1 .437-.095l3.84 1.304a.404.404 0 0 1 .257.52.425.425 0 0 1-.537.248l-3.012-1.022 1.058 2.911a.396.396 0 0 1-.1.423Z"/>
  </g>
  <defs>
    <clipPath id="Crimtan-Holdings_svg__a">
      <path fill="#fff" d="M0 0h24v24H0z"/>
    </clipPath>
  </defs>
</svg>
