<svg fill="none" viewBox="0 0 24 24" xmlns="http://www.w3.org/2000/svg">
  <g clip-path="url(#D_svg__a)">
    <path fill="#F09733" d="M24 12c0 6.627-5.373 12-12 12S0 18.627 0 12 5.373 0 12 0s12 5.373 12 12Z"/>
    <path fill="#000" fill-opacity=".12" fill-rule="evenodd" d="M12 23.5c6.351 0 11.5-5.149 11.5-11.5S18.351.5 12 .5.5 5.649.5 12 5.649 23.5 12 23.5Zm0 .5c6.627 0 12-5.373 12-12S18.627 0 12 0 0 5.373 0 12s5.373 12 12 12Z" clip-rule="evenodd"/>
    <path fill="#fff" d="M18.345 11.617c0 2.204-.609 3.902-1.825 5.094-1.21 1.193-2.915 1.789-5.113 1.789H7.134V5.293h4.571c2.12 0 3.755.542 4.905 1.626 1.156 1.084 1.735 2.65 1.735 4.698Zm-3.704.126c0-1.21-.241-2.108-.723-2.692-.475-.584-1.201-.876-2.177-.876h-1.039v7.398h.795c1.084 0 1.88-.313 2.385-.94.506-.631.759-1.595.759-2.89Z"/>
  </g>
  <defs>
    <clipPath id="D_svg__a">
      <path fill="#fff" d="M0 0h24v24H0z"/>
    </clipPath>
  </defs>
</svg>
