<svg width="16" height="16" viewBox="0 0 16 16" fill="none" xmlns="http://www.w3.org/2000/svg">
    <g clip-path="url(#clip0_7156_16135)">
        <path
                d="M16 8C16 12.4183 12.4183 16 8 16C3.58172 16 0 12.4183 0 8C0 3.58172 3.58172 0 8 0C12.4183 0 16 3.58172 16 8Z"
                fill="#1877F2"/>
        <path fill-rule="evenodd" clip-rule="evenodd"
              d="M16 8C16 12.4183 12.4183 16 8 16C3.58172 16 0 12.4183 0 8C0 3.58172 3.58172 0 8 0C12.4183 0 16 3.58172 16 8ZM8 15.6667C12.2342 15.6667 15.6667 12.2342 15.6667 8C15.6667 3.76582 12.2342 0.333333 8 0.333333C3.76582 0.333333 0.333333 3.76582 0.333333 8C0.333333 12.2342 3.76582 15.6667 8 15.6667Z"
              fill="white" fill-opacity="0.12"/>
        <path fill-rule="evenodd" clip-rule="evenodd"
              d="M7.36235 15.6404V9.33301H5.66666V7.40191H7.36235V5.93161C7.36235 4.25817 8.35962 3.33325 9.88502 3.33325C10.6152 3.33325 11.3798 3.46403 11.3798 3.46403V5.10741H10.5372C9.70749 5.10741 9.44871 5.62219 9.44871 6.15032V7.40247H11.3008L11.0047 9.33357H9.44871V15.5299C8.97958 15.6196 8.49527 15.6666 7.99999 15.6666C7.78527 15.6666 7.57261 15.6578 7.36235 15.6404Z"
              fill="white"/>
    </g>
    <defs>
        <clipPath id="clip0_7156_16135">
            <rect width="16" height="16" fill="white"/>
        </clipPath>
    </defs>
</svg>
