<svg fill="none" viewBox="0 0 24 24" xmlns="http://www.w3.org/2000/svg">
  <g clip-path="url(#Google-Ads_svg__a)">
    <path fill="#fff" d="M24 12c0 6.627-5.373 12-12 12S0 18.627 0 12 5.373 0 12 0s12 5.373 12 12Z"/>
    <path fill="#000" fill-opacity=".12" fill-rule="evenodd" d="M24 12c0 6.627-5.373 12-12 12S0 18.627 0 12 5.373 0 12 0s12 5.373 12 12ZM12 23.5c6.351 0 11.5-5.149 11.5-11.5S18.351.5 12 .5.5 5.649.5 12 5.649 23.5 12 23.5Z" clip-rule="evenodd"/>
    <path fill="#FBBC05" d="M9.633 5.362a2.754 2.754 0 0 1 3.746-.997 2.712 2.712 0 0 1 1.004 3.72L9.12 17.138l-4.75-2.723 5.264-9.053Z"/>
    <path fill="#4285F4" d="M10.637 4.393a2.712 2.712 0 0 0-1.004 3.72l5.244 9.016a2.753 2.753 0 0 0 3.752 1.005 2.712 2.712 0 0 0 1.003-3.719l-5.249-9.026a2.753 2.753 0 0 0-3.746-.996Z"/>
    <path fill="#34A853" d="M9.118 17.138a2.754 2.754 0 0 1-3.746.997 2.712 2.712 0 0 1-1.004-3.72 2.754 2.754 0 0 1 3.747-.997 2.713 2.713 0 0 1 1.003 3.72Z"/>
  </g>
  <defs>
    <clipPath id="Google-Ads_svg__a">
      <path fill="#fff" d="M0 0h24v24H0z"/>
    </clipPath>
  </defs>
</svg>
