<svg fill="none" viewBox="0 0 24 24" xmlns="http://www.w3.org/2000/svg">
  <g clip-path="url(#Google-Analytics_svg__a)">
    <path fill="#fff" d="M24 12c0 6.627-5.373 12-12 12S0 18.627 0 12 5.373 0 12 0s12 5.373 12 12Z"/>
    <path fill="#000" fill-opacity=".12" fill-rule="evenodd" d="M24 12c0 6.627-5.373 12-12 12S0 18.627 0 12 5.373 0 12 0s12 5.373 12 12ZM12 23.5c6.351 0 11.5-5.149 11.5-11.5S18.351.5 12 .5.5 5.649.5 12 5.649 23.5 12 23.5Z" clip-rule="evenodd"/>
    <path fill="#E37400" d="M10 13a2 2 0 1 1 4 0v4a2 2 0 1 1-4 0v-4Zm-5 4a2 2 0 1 1 4 0 2 2 0 0 1-4 0Z"/>
    <path fill="#F9AB00" d="M15 7a2 2 0 1 1 4 0v10a2 2 0 1 1-4 0V7Z"/>
  </g>
  <defs>
    <clipPath id="Google-Analytics_svg__a">
      <path fill="#fff" d="M0 0h24v24H0z"/>
    </clipPath>
  </defs>
</svg>
