<svg width="16" height="16" viewBox="0 0 16 16" fill="none" xmlns="http://www.w3.org/2000/svg">
    <g clip-path="url(#clip0_7156_16147)">
        <path d="M16 8C16 12.4183 12.4183 16 8 16C3.58172 16 0 12.4183 0 8C0 3.58172 3.58172 0 8 0C12.4183 0 16 3.58172 16 8Z" fill="white"/>
        <path fill-rule="evenodd" clip-rule="evenodd" d="M16 8C16 12.4183 12.4183 16 8 16C3.58172 16 0 12.4183 0 8C0 3.58172 3.58172 0 8 0C12.4183 0 16 3.58172 16 8ZM8 15.6667C12.2342 15.6667 15.6667 12.2342 15.6667 8C15.6667 3.76582 12.2342 0.333333 8 0.333333C3.76582 0.333333 0.333333 3.76582 0.333333 8C0.333333 12.2342 3.76582 15.6667 8 15.6667Z" fill="black" fill-opacity="0.12"/>
        <g clip-path="url(#clip1_7156_16147)">
            <path d="M13.3277 8.09979C13.3277 7.66279 13.2914 7.34389 13.2129 7.01318H8.10623V8.98561H11.1037C11.0433 9.47578 10.717 10.214 9.99175 10.71L9.98158 10.776L11.5962 11.9983L11.7081 12.0093C12.7354 11.0821 13.3277 9.71789 13.3277 8.09979Z" fill="#4285F4"/>
            <path d="M8.10633 13.2969C9.57485 13.2969 10.8077 12.8244 11.7082 12.0094L9.99186 10.7101C9.53257 11.0231 8.91612 11.2417 8.10633 11.2417C6.668 11.2417 5.44724 10.3145 5.01207 9.03296L4.94829 9.03825L3.26936 10.308L3.24741 10.3676C4.14182 12.1039 5.97903 13.2969 8.10633 13.2969Z" fill="#34A853"/>
            <path d="M5.01201 9.03299C4.89718 8.70228 4.83073 8.34792 4.83073 7.98179C4.83073 7.61563 4.89718 7.26131 5.00596 6.9306L5.00292 6.86017L3.30297 5.57007L3.24735 5.59592C2.87873 6.31641 2.66721 7.12549 2.66721 7.98179C2.66721 8.8381 2.87873 9.64714 3.24735 10.3676L5.01201 9.03299Z" fill="#FBBC05"/>
            <path d="M8.10628 4.72187C9.12759 4.72187 9.81652 5.15298 10.2094 5.51324L11.7444 4.04865C10.8016 3.19235 9.57479 2.66675 8.10628 2.66675C5.979 2.66675 4.14181 3.85966 3.24741 5.59589L5.00602 6.93056C5.44722 5.64906 6.66797 4.72187 8.10628 4.72187Z" fill="#EB4335"/>
        </g>
    </g>
    <defs>
        <clipPath id="clip0_7156_16147">
            <rect width="16" height="16" fill="white"/>
        </clipPath>
        <clipPath id="clip1_7156_16147">
            <rect width="10.6667" height="10.6667" fill="white" transform="translate(2.66666 2.66675)"/>
        </clipPath>
    </defs>
</svg>
