<svg fill="none" viewBox="0 0 24 24" xmlns="http://www.w3.org/2000/svg">
  <g clip-path="url(#M_svg__a)">
    <path fill="#53BB3C" d="M24 12c0 6.627-5.373 12-12 12S0 18.627 0 12 5.373 0 12 0s12 5.373 12 12Z"/>
    <path fill="#000" fill-opacity=".12" fill-rule="evenodd" d="M12 23.5c6.351 0 11.5-5.149 11.5-11.5S18.351.5 12 .5.5 5.649.5 12 5.649 23.5 12 23.5Zm0 .5c6.627 0 12-5.373 12-12S18.627 0 12 0 0 5.373 0 12s5.373 12 12 12Z" clip-rule="evenodd"/>
    <path fill="#fff" d="M10.239 18.5 7.537 8.988h-.082c.127 1.62.19 2.879.19 3.776V18.5H4.484V5.293h4.752l2.755 9.377h.072l2.701-9.377h4.76V18.5h-3.278v-5.79c0-.301.003-.636.009-1.003.012-.367.054-1.268.126-2.7H16.3L13.635 18.5h-3.396Z"/>
  </g>
  <defs>
    <clipPath id="M_svg__a">
      <path fill="#fff" d="M0 0h24v24H0z"/>
    </clipPath>
  </defs>
</svg>
