<svg fill="none" viewBox="0 0 24 24" xmlns="http://www.w3.org/2000/svg">
  <g clip-path="url(#Narrative_svg__a)">
    <path fill="#1438F5" d="M24 12c0 6.627-5.373 12-12 12S0 18.627 0 12 5.373 0 12 0s12 5.373 12 12Z"/>
    <path fill="#fff" fill-opacity=".12" fill-rule="evenodd" d="M24 12c0 6.627-5.373 12-12 12S0 18.627 0 12 5.373 0 12 0s12 5.373 12 12ZM12 23.5c6.351 0 11.5-5.149 11.5-11.5S18.351.5 12 .5.5 5.649.5 12 5.649 23.5 12 23.5Z" clip-rule="evenodd"/>
    <path fill="#fff" fill-rule="evenodd" d="M7.667 14.167h.056a2.167 2.167 0 1 1-.056 0Zm0-8.667a2.16 2.16 0 0 1 1.487.591l.046.045 8.664 8.664.045.046a2.166 2.166 0 0 1-3.063 3.063l-.046-.045L6.136 9.2l-.045-.046A2.167 2.167 0 0 1 7.666 5.5Zm8.666 0h.056a2.167 2.167 0 1 1-.056 0Z" clip-rule="evenodd"/>
  </g>
  <defs>
    <clipPath id="Narrative_svg__a">
      <path fill="#fff" d="M0 0h24v24H0z"/>
    </clipPath>
  </defs>
</svg>
