<svg fill="none" viewBox="0 0 24 24" xmlns="http://www.w3.org/2000/svg">
  <g clip-path="url(#OpenJS-Foundation_svg__a)">
    <path fill="#0D1C28" d="M24 12c0 6.627-5.373 12-12 12S0 18.627 0 12 5.373 0 12 0s12 5.373 12 12Z"/>
    <path fill="#fff" fill-opacity=".12" fill-rule="evenodd" d="M24 12c0 6.627-5.373 12-12 12S0 18.627 0 12 5.373 0 12 0s12 5.373 12 12ZM12 23.5c6.351 0 11.5-5.149 11.5-11.5S18.351.5 12 .5.5 5.649.5 12 5.649 23.5 12 23.5Z" clip-rule="evenodd"/>
    <path fill="url(#OpenJS-Foundation_svg__b)" d="m19.445 7.813-7.4-4.285-.05-.028-.05.028L4.588 7.79l-.038.022-.05.028v8.68l.05.028 7.4 4.286.05.027.05-.027 7.301-4.225.149-.083V7.841l-.055-.028ZM11.257 4.61 9.445 7.752H5.827l5.43-3.142Zm-2.11 3.661L8.3 9.746 5.756 8.27h3.392Zm-.66 2.176 2.99 1.734-2.99 1.734-.997-1.734.997-1.734Zm-.44-.254-.849 1.475-1.701-2.95 2.55 1.475ZM5.088 9.04 6.9 12.182l-1.812 3.142V9.04Zm2.105 3.66.848 1.475-2.544 1.474L7.193 12.7ZM8.3 14.617l.848 1.474H5.756L8.3 14.616ZM5.827 16.61h3.618l1.812 3.142-5.43-3.142Zm5.914 2.949-1.696-2.949h1.696v2.949Zm0-3.468H9.742l-.996-1.734 2.99-1.734v3.468h.005Zm0-4.357L8.751 10l.997-1.734h1.993v3.468Zm0-3.982h-1.696l1.696-2.949v2.95Zm4.207 2.441 2.544-1.474-1.696 2.949-.848-1.475Zm.55 1.988-.996 1.734-2.99-1.734 2.99-1.734.997 1.734Zm-.809-2.435-.848-1.475h3.393l-2.545 1.475Zm2.473-1.994h-3.618L12.738 4.61l5.424 3.142Zm-5.909-2.949 1.696 2.95h-1.696v-2.95Zm0 3.468h1.994l.996 1.734-2.99 1.734V8.271Zm0 4.357 2.99 1.734-.996 1.729h-1.994v-3.463Zm0 3.982h1.696l-1.696 2.949V16.61Zm.485 3.142 1.806-3.142h3.618l-5.424 3.142Zm2.103-3.661.848-1.475 2.544 1.475h-3.392Zm1.107-1.922.848-1.474 1.696 2.949-2.544-1.475Zm2.957 1.154-1.811-3.142 1.811-3.142v6.284Z"/>
  </g>
  <defs>
    <linearGradient id="OpenJS-Foundation_svg__b" x1="6.084" x2="17.943" y1="6.252" y2="18.077" gradientUnits="userSpaceOnUse">
      <stop offset=".214" stop-color="#0075C9"/>
      <stop offset=".707" stop-color="#80BC00"/>
      <stop offset="1" stop-color="#FDE021"/>
    </linearGradient>
    <clipPath id="OpenJS-Foundation_svg__a">
      <path fill="#fff" d="M0 0h24v24H0z"/>
    </clipPath>
  </defs>
</svg>
