<svg fill="none" viewBox="0 0 24 24" xmlns="http://www.w3.org/2000/svg">
  <g clip-path="url(#R_svg__a)">
    <path fill="#3F80BD" d="M24 12c0 6.627-5.373 12-12 12S0 18.627 0 12 5.373 0 12 0s12 5.373 12 12Z"/>
    <path fill="#000" fill-opacity=".12" fill-rule="evenodd" d="M12 23.5c6.351 0 11.5-5.149 11.5-11.5S18.351.5 12 .5.5 5.649.5 12 5.649 23.5 12 23.5Zm0 .5c6.627 0 12-5.373 12-12S18.627 0 12 0 0 5.373 0 12s5.373 12 12 12Z" clip-rule="evenodd"/>
    <path fill="#fff" d="M10.735 13.694V18.5H7.167V5.293h4.327c3.59 0 5.384 1.301 5.384 3.903 0 1.53-.747 2.713-2.24 3.55l3.848 5.754h-4.047l-2.8-4.806h-.904Zm0-2.683h.669c1.246 0 1.87-.55 1.87-1.653 0-.909-.612-1.364-1.834-1.364h-.705v3.018Z"/>
  </g>
  <defs>
    <clipPath id="R_svg__a">
      <path fill="#fff" d="M0 0h24v24H0z"/>
    </clipPath>
  </defs>
</svg>
