<svg fill="none" viewBox="0 0 24 24" xmlns="http://www.w3.org/2000/svg">
  <g clip-path="url(#Supership_svg__a)">
    <path fill="#fff" d="M24 12c0 6.627-5.373 12-12 12S0 18.627 0 12 5.373 0 12 0s12 5.373 12 12Z"/>
    <path fill="#000" fill-opacity=".12" fill-rule="evenodd" d="M24 12c0 6.627-5.373 12-12 12S0 18.627 0 12 5.373 0 12 0s12 5.373 12 12ZM12 23.5c6.351 0 11.5-5.149 11.5-11.5S18.351.5 12 .5.5 5.649.5 12 5.649 23.5 12 23.5Z" clip-rule="evenodd"/>
    <path fill="url(#Supership_svg__b)" d="M12.791 13.82c-.11-.188-.157-.407-.235-.611a1.566 1.566 0 0 0-.266-.439c-.173-.188-.392-.33-.643-.36a1.7 1.7 0 0 0-.627.047c-.173.047-.33.14-.486.219a1.633 1.633 0 0 1-.518.157 1.61 1.61 0 0 1-1.708-1.082c-.126-.36-.11-.768.047-1.113.157-.36.439-.643.768-.83.33-.189.643-.377.972-.565.204-.11.392-.235.596-.345.423-.25.846-.486 1.27-.737.344-.203.69-.407 1.034-.595.141-.079.282-.173.423-.267.282-.22.518-.502.674-.815.33-.627.408-1.38.173-2.054a1.717 1.717 0 0 0-.22-.517c-.282.157-.564.33-.846.486-.612.36-1.223.705-1.834 1.066-.58.345-1.176.674-1.756 1.019-.235.141-.47.266-.705.408-.283.172-.58.329-.863.501-.266.157-.533.298-.768.47a4.343 4.343 0 0 0-1.646 2.477 4.313 4.313 0 0 0 2.57 5.032 4.509 4.509 0 0 0 3.01.11c.361-.11.706-.282 1.035-.47l.894-.518c.063-.047.141-.078.204-.125a1.42 1.42 0 0 1-.549-.549Z"/>
    <path fill="url(#Supership_svg__c)" d="M17.933 10.607a4.212 4.212 0 0 0-1.317-1.364 4.29 4.29 0 0 0-1.724-.658 4.41 4.41 0 0 0-1.866.11 4.945 4.945 0 0 0-1.285.58c-.188.109-.376.219-.58.329a2.352 2.352 0 0 0-.267.156c-.047.032-.11.047-.156.094l-.016.016a1.55 1.55 0 0 1 .643.784c.047.11.062.22.094.329.062.22.188.423.329.58.188.188.423.313.69.313.172 0 .345-.03.501-.078.204-.063.377-.172.565-.25a1.615 1.615 0 0 1 1.88.517 1.628 1.628 0 0 1-.078 2.038c-.172.188-.392.313-.611.454-.157.094-.33.188-.486.282-.235.141-.47.267-.705.408-.392.22-.784.454-1.176.674-.392.235-.784.455-1.176.69-.063.047-.14.078-.204.125a2.759 2.759 0 0 0-.815.721 2.659 2.659 0 0 0-.47 2.023c.031.172.078.36.157.517.031.094.078.172.125.25.016.016.016.048.032.063.03.032 0 .016.015.016.047-.016.11-.063.157-.094.282-.172.58-.33.862-.502.423-.25.862-.501 1.286-.752.454-.267.893-.518 1.348-.784.345-.204.69-.392 1.019-.596.125-.078.25-.14.36-.22.376-.219.768-.438 1.145-.657.501-.298.956-.643 1.332-1.098a4.299 4.299 0 0 0 .878-1.897 4.327 4.327 0 0 0-.11-2.1c-.047-.377-.204-.706-.376-1.02Z"/>
  </g>
  <defs>
    <linearGradient id="Supership_svg__b" x1="2.733" x2="20.639" y1="13.337" y2="11.411" gradientUnits="userSpaceOnUse">
      <stop stop-color="#009FE8"/>
      <stop offset="1" stop-color="#0A2F8C"/>
    </linearGradient>
    <linearGradient id="Supership_svg__c" x1="4.073" x2="16.348" y1="15.248" y2="13.988" gradientUnits="userSpaceOnUse">
      <stop stop-color="#009FE8"/>
      <stop offset="1" stop-color="#0A2F8C"/>
    </linearGradient>
    <clipPath id="Supership_svg__a">
      <path fill="#fff" d="M0 0h24v24H0z"/>
    </clipPath>
  </defs>
</svg>
