<svg fill="none" viewBox="0 0 24 24" xmlns="http://www.w3.org/2000/svg">
  <g clip-path="url(#Taboola_svg__a)">
    <path fill="#0033A1" d="M24 12c0 6.627-5.373 12-12 12S0 18.627 0 12 5.373 0 12 0s12 5.373 12 12Z"/>
    <path fill="#fff" fill-opacity=".12" fill-rule="evenodd" d="M24 12c0 6.627-5.373 12-12 12S0 18.627 0 12 5.373 0 12 0s12 5.373 12 12ZM12 23.5c6.351 0 11.5-5.149 11.5-11.5S18.351.5 12 .5.5 5.649.5 12 5.649 23.5 12 23.5Z" clip-rule="evenodd"/>
    <path fill="#fff" d="M19.643 9.245a3.465 3.465 0 0 0-2.299-2.872 5.183 5.183 0 0 0-2.627-.236 3.63 3.63 0 0 0-2.244 1.125c-.116.125-.221.259-.335.403l-.133.17A3.516 3.516 0 0 0 9.988 6.26a5.31 5.31 0 0 0-2.328-.181 3.575 3.575 0 0 0-2.947 1.966 4.392 4.392 0 0 0-.337 2.787 3.453 3.453 0 0 0 2.18 2.77 5.203 5.203 0 0 0 2.834.253 3.57 3.57 0 0 0 2.527-1.591.805.805 0 0 1 .1-.084 3.465 3.465 0 0 0 2.047 1.587 5.313 5.313 0 0 0 2.914.046 3.453 3.453 0 0 0 2.5-2.316c.246-.724.303-1.5.165-2.252ZM9.492 11.102a1.048 1.048 0 0 1-1.095.762c-.5.026-.951-.303-1.078-.788a3.499 3.499 0 0 1 0-2.176 1.061 1.061 0 0 1 1.183-.8c.51-.013.955.342 1.057.842.058.214.09.438.122.673.016.12.033.244.055.37-.058.378-.14.75-.244 1.117Zm6.096.816a1.099 1.099 0 0 1-1.124-.867 3.726 3.726 0 0 1-.03-1.924 1.12 1.12 0 0 1 1.264-.969c.568.041 1.02.493 1.06 1.062.032.177.046.359.063.57.007.1.016.206.026.322a7.058 7.058 0 0 1-.151.964 1.07 1.07 0 0 1-1.108.842Z"/>
    <path fill="#fff" d="M18.473 14.327v-.329a17.369 17.369 0 0 1-13.1-.058v2.345c0 .076.11.168.19.21a14.417 14.417 0 0 0 7.992 1.39 14.112 14.112 0 0 0 4.74-1.314.286.286 0 0 0 .194-.316 41.977 41.977 0 0 1-.016-1.928Z"/>
  </g>
  <defs>
    <clipPath id="Taboola_svg__a">
      <path fill="#fff" d="M0 0h24v24H0z"/>
    </clipPath>
  </defs>
</svg>
