<svg fill="none" viewBox="0 0 24 24" xmlns="http://www.w3.org/2000/svg">
  <g clip-path="url(#WPP_svg__a)">
    <path fill="#191D63" d="M24 12c0 6.627-5.373 12-12 12S0 18.627 0 12 5.373 0 12 0s12 5.373 12 12Z"/>
    <path fill="#fff" fill-opacity=".12" fill-rule="evenodd" d="M24 12c0 6.627-5.373 12-12 12S0 18.627 0 12 5.373 0 12 0s12 5.373 12 12ZM12 23.5c6.351 0 11.5-5.149 11.5-11.5S18.351.5 12 .5.5 5.649.5 12 5.649 23.5 12 23.5Z" clip-rule="evenodd"/>
    <path fill="#fff" d="M15.033 12.192c-.1 0-.18.078-.18.179 0 .1.08.178.18.178.1 0 .178-.078.178-.178a.184.184 0 0 0-.178-.18Zm0-1.072a.18.18 0 1 0-.002.357.18.18 0 0 0 .002-.357Zm0 .536c-.1 0-.18.078-.18.178 0 .101.08.18.18.18.1 0 .178-.079.178-.18 0-.1-.078-.178-.178-.178Zm.469-1.352c-.1 0-.179.078-.179.179 0 .1.078.179.179.179.1 0 .178-.079.178-.179 0-.1-.078-.179-.178-.179Zm0-.469a.112.112 0 0 0 0 .223.112.112 0 0 0 .111-.111.12.12 0 0 0-.111-.112Zm-.469 3.262c.1 0 .178-.079.178-.179 0-.1-.078-.179-.178-.179-.1 0-.18.079-.18.179 0 .1.08.179.18.179Zm0-2.525c-.1 0-.18.079-.18.179 0 .1.08.179.18.179.1 0 .178-.078.178-.179 0-.1-.078-.179-.178-.179Zm-.47 1.899c-.1 0-.178.078-.178.179 0 .1.078.179.178.179.101 0 .18-.079.18-.18 0-.1-.079-.178-.18-.178Zm0-.245a.112.112 0 1 0-.112-.112c0 .056.045.111.112.111Zm-.938 0a.112.112 0 1 0-.112-.112.12.12 0 0 0 .112.111Zm.469 1.351a.112.112 0 0 0 .112-.112.12.12 0 0 0-.112-.111.112.112 0 0 0-.111.111.12.12 0 0 0 .111.112Zm.469-2.658a.112.112 0 0 0 0 .223.112.112 0 0 0 .112-.112c0-.067-.045-.111-.112-.111Zm-.938 0a.112.112 0 0 0 0 .223.112.112 0 0 0 .112-.112c0-.067-.045-.111-.112-.111Zm1.408-.883c-.1 0-.18.078-.18.179 0 .1.08.179.18.179.1 0 .178-.079.178-.18 0-.1-.078-.178-.178-.178Zm0-.469a.112.112 0 0 0 0 .223.112.112 0 0 0 0-.223Zm-.47 3.809c.101 0 .18-.078.18-.179 0-.1-.079-.178-.18-.178-.1 0-.178.078-.178.178 0 .1.078.179.178.179Zm.939-1.988c-.1 0-.179.078-.179.178 0 .101.078.18.179.18.1 0 .178-.079.178-.18 0-.1-.078-.178-.178-.178Zm2.078-.536a.177.177 0 0 0-.18.178c0 .1.079.179.18.179.1 0 .178-.078.178-.179 0-.1-.078-.178-.179-.178Zm0-.548a.177.177 0 0 0-.18.179c0 .1.079.179.18.179.1 0 .178-.079.178-.179 0-.1-.078-.179-.179-.179Zm-1.61 1.352c-.1 0-.178.078-.178.178 0 .101.078.18.179.18.1 0 .179-.079.179-.18 0-.1-.079-.178-.18-.178Zm1.61-1.888a.177.177 0 0 0-.18.179c0 .1.079.179.18.179.1 0 .178-.079.178-.18 0-.1-.078-.178-.179-.178Zm0 2.703a.177.177 0 0 0-.18.179c0 .1.079.179.18.179.1 0 .178-.079.178-.18 0-.1-.078-.178-.179-.178Zm0-.547a.177.177 0 0 0-.18.179c0 .1.079.178.18.178.1 0 .178-.078.178-.178a.184.184 0 0 0-.179-.18Zm0-.536a.177.177 0 0 0-.18.178c0 .101.079.18.18.18.1 0 .178-.079.178-.18 0-.1-.078-.178-.179-.178Zm-4.893.536c-.1 0-.179.078-.179.179 0 .1.078.178.179.178.1 0 .179-.078.179-.178.01-.09-.079-.18-.18-.18Zm2.815.905c.1 0 .178-.079.178-.18 0-.1-.078-.178-.178-.178-.1 0-.179.078-.179.179-.011.1.078.179.179.179Zm.468-1.709c-.1 0-.178.078-.178.178 0 .1.078.18.179.18.1 0 .179-.08.179-.18 0-.1-.079-.178-.18-.178Zm-1.407-.816c-.1 0-.178.078-.178.179 0 .1.078.179.178.179.101 0 .18-.079.18-.179 0-.1-.079-.179-.18-.179Zm.939 1.62c-.1 0-.179.078-.179.179 0 .1.078.178.179.178.1 0 .178-.078.178-.178a.184.184 0 0 0-.178-.18Zm.468.569a.112.112 0 0 0 0-.223.12.12 0 0 0-.11.112.11.11 0 0 0 .11.111Zm0-1.921c-.1 0-.178.079-.178.179 0 .1.078.179.179.179.1 0 .179-.078.179-.179 0-.1-.079-.179-.18-.179Zm-2.814 2.703c-.1 0-.179.079-.179.18 0 .1.079.178.18.178.1 0 .178-.078.178-.179.011-.1-.078-.179-.179-.179Zm0-2.155c-.1 0-.179.078-.179.178 0 .1.079.18.18.18.1 0 .178-.08.178-.18.011-.1-.078-.178-.179-.178Zm1.407-1.352c-.1 0-.178.078-.178.179 0 .1.078.179.178.179.101 0 .18-.079.18-.18 0-.1-.079-.178-.18-.178Zm-1.407.268c-.1 0-.179.078-.179.179 0 .1.079.179.18.179.1 0 .178-.079.178-.18.011-.1-.078-.178-.179-.178Zm0-.536c-.1 0-.179.078-.179.179 0 .1.079.178.18.178.1 0 .178-.078.178-.178 0-.1-.078-.179-.179-.179Zm0 3.24c-.1 0-.179.078-.179.178 0 .1.079.179.18.179.1 0 .178-.079.178-.179.011-.1-.078-.179-.179-.179Zm0-.548c-.1 0-.179.078-.179.179 0 .1.079.178.18.178.1 0 .178-.078.178-.178.011-.09-.078-.18-.179-.18Zm0-.536c-.1 0-.179.078-.179.178 0 .101.079.18.18.18.1 0 .178-.079.178-.18.011-.1-.078-.178-.179-.178Zm-.469 1.351c-.1 0-.179.079-.179.18 0 .1.078.178.179.178.1 0 .179-.078.179-.179 0-.1-.079-.179-.18-.179Zm0 .536c-.1 0-.179.079-.179.18 0 .1.078.178.179.178.1 0 .179-.078.179-.179.01-.09-.079-.178-.18-.178Zm.469 1.654a.112.112 0 1 0-.112-.112.12.12 0 0 0 .112.112Zm-.469-2.726c-.1 0-.179.078-.179.179 0 .1.078.179.179.179.1 0 .179-.079.179-.18.01-.1-.079-.178-.18-.178Zm4.893.536a.178.178 0 0 0-.18.18c0 .1.079.178.18.178.1 0 .178-.078.178-.179 0-.1-.078-.179-.179-.179Zm-4.893 1.083c-.1 0-.179.079-.179.18 0 .1.078.178.179.178.1 0 .179-.078.179-.178.01-.101-.079-.18-.18-.18Zm0 .906c.1 0 .179-.079.179-.18 0-.1-.079-.178-.18-.178-.1 0-.178.078-.178.179 0 .09.078.179.179.179Zm.469-4.424c-.1 0-.179.079-.179.179 0 .1.079.179.18.179.1 0 .178-.078.178-.179 0-.1-.078-.179-.179-.179Zm.938-.536c-.1 0-.178.078-.178.179 0 .1.078.179.178.179.1 0 .18-.079.18-.18 0-.1-.08-.178-.18-.178Zm0 .536c-.1 0-.178.079-.178.179 0 .1.078.179.178.179.1 0 .18-.078.18-.179 0-.1-.08-.179-.18-.179Zm0-1.072c-.1 0-.178.078-.178.179 0 .1.078.178.178.178a.178.178 0 1 0 0-.357Zm-.469 3.876c.1 0 .179-.078.179-.179 0-.1-.078-.178-.179-.178-.1 0-.178.078-.178.178 0 .1.078.179.178.179Zm-.469.447c-.1 0-.179.078-.179.178 0 .101.079.18.18.18.1 0 .178-.079.178-.18.011-.1-.078-.178-.179-.178Zm.938-1.631c-.1 0-.178.078-.178.179 0 .1.078.178.178.178.1 0 .18-.078.18-.178a.184.184 0 0 0-.18-.18Zm0 .905c.1 0 .18-.079.18-.179 0-.1-.08-.179-.18-.179-.1 0-.178.079-.178.179 0 .1.078.179.178.179Zm-.469-2.793c-.1 0-.178.078-.178.179 0 .1.078.179.178.179.1 0 .179-.079.179-.179 0-.1-.078-.179-.179-.179Zm0-.536c-.1 0-.178.078-.178.179 0 .1.078.179.178.179.1 0 .179-.079.179-.18.011-.1-.078-.178-.179-.178Zm-.469 4.591c-.1 0-.179.078-.179.179 0 .1.079.178.18.178.1 0 .178-.078.178-.178.011-.1-.078-.18-.179-.18Zm.469-1.888c-.1 0-.178.078-.178.179 0 .1.078.179.178.179.1 0 .179-.079.179-.18.011-.1-.078-.178-.179-.178Zm1.877-1.619c-.1 0-.179.078-.179.178 0 .1.078.179.179.179.1 0 .178-.078.178-.179 0-.1-.078-.178-.178-.178Zm4.412-.816c-.1 0-.179.078-.179.179 0 .1.078.179.179.179.1 0 .179-.079.179-.18 0-.1-.079-.178-.18-.178Zm0 .536c-.1 0-.179.079-.179.179 0 .1.078.179.179.179.1 0 .179-.078.179-.179 0-.1-.079-.179-.18-.179Zm0 2.168c-.1 0-.179.078-.179.178 0 .1.078.179.179.179.1 0 .179-.079.179-.179 0-.1-.079-.179-.18-.179Zm0-.548c-.1 0-.179.078-.179.179 0 .1.078.178.179.178.1 0 .179-.078.179-.178a.184.184 0 0 0-.18-.18Zm.469-2.424c-.1 0-.179.078-.179.179 0 .1.078.179.179.179.1 0 .179-.079.179-.18 0-.1-.079-.178-.179-.178Zm0 1.084c-.1 0-.179.078-.179.178 0 .1.078.179.179.179.1 0 .179-.078.179-.179 0-.1-.079-.178-.179-.178Zm0 .536c-.1 0-.179.078-.179.178 0 .101.078.18.179.18.1 0 .179-.079.179-.18 0-.1-.079-.178-.179-.178Zm0-1.084c-.1 0-.179.078-.179.179 0 .1.078.179.179.179.1 0 .179-.079.179-.179 0-.1-.079-.179-.179-.179Zm-.938 0c-.1 0-.179.078-.179.179 0 .1.078.179.179.179.1 0 .178-.079.178-.179 0-.1-.078-.179-.178-.179Zm.469-.737a.112.112 0 1 0 .112.112c0-.067-.045-.112-.112-.112Zm-.469 1.352a.112.112 0 0 0 0 .223.112.112 0 0 0 .111-.112c0-.067-.044-.111-.111-.111Zm0 1.071a.112.112 0 0 0 0 .224.112.112 0 0 0 0-.223Zm.469 1.352a.112.112 0 1 0 .112.112.112.112 0 0 0-.112-.112Zm-.469-3.574c-.1 0-.179.078-.179.179 0 .1.078.179.179.179.1 0 .178-.079.178-.18 0-.1-.078-.178-.178-.178Zm0 2.703c-.1 0-.179.078-.179.179 0 .1.078.179.179.179.1 0 .178-.079.178-.18 0-.1-.078-.178-.178-.178Zm0 .905c.1 0 .178-.078.178-.179 0-.1-.078-.178-.178-.178-.1 0-.179.078-.179.178 0 .1.078.179.179.179Zm-.469.201a.112.112 0 0 0 .111-.112.12.12 0 0 0-.111-.111.112.112 0 0 0-.112.111.12.12 0 0 0 .112.112Zm2.345-3.206a.112.112 0 0 0 0 .224.112.112 0 0 0 .112-.112.12.12 0 0 0-.112-.112Zm-.469 2.659a.112.112 0 0 0 0-.224.112.112 0 0 0-.112.112c0 .067.045.112.112.112Zm-.469.268a.112.112 0 1 0-.112-.112c0 .067.045.112.112.112Zm.938-2.089c.1 0 .179-.078.179-.179 0-.1-.078-.178-.179-.178-.1 0-.178.078-.178.178-.012.1.078.179.178.179Zm0 .715c-.1 0-.178.078-.178.179 0 .1.078.178.178.178.1 0 .179-.078.179-.178a.184.184 0 0 0-.179-.18Zm0-.536c-.1 0-.178.078-.178.178 0 .101.078.18.178.18.1 0 .179-.079.179-.18 0-.1-.078-.178-.179-.178Zm-.469.804c-.1 0-.179.078-.179.179 0 .1.079.178.18.178.1 0 .178-.078.178-.178a.184.184 0 0 0-.179-.18Zm0-.536c-.1 0-.179.078-.179.178 0 .101.079.18.18.18.1 0 .178-.079.178-.18 0-.1-.078-.178-.179-.178Zm-.469.815c-.1 0-.179.078-.179.179 0 .1.078.179.179.179.1 0 .179-.079.179-.18 0-.1-.079-.178-.179-.178Zm.469-2.435c-.1 0-.179.078-.179.179 0 .1.079.179.18.179.1 0 .178-.079.178-.18 0-.1-.078-.178-.179-.178Zm0 1.084c-.1 0-.179.078-.179.178 0 .1.079.18.18.18.1 0 .178-.08.178-.18 0-.1-.078-.178-.179-.178Zm-.469.804c-.1 0-.179.078-.179.179 0 .1.078.178.179.178.1 0 .179-.078.179-.178a.184.184 0 0 0-.179-.18Zm.469-1.352c-.1 0-.179.079-.179.179 0 .1.079.179.18.179.1 0 .178-.078.178-.179 0-.1-.078-.179-.179-.179Zm-2.803 1.62a.177.177 0 0 0-.18.179c0 .1.079.178.18.178.1 0 .178-.078.178-.178a.184.184 0 0 0-.178-.18Zm-.469 1.351a.178.178 0 0 0-.18.18c0 .1.079.178.18.178.1 0 .178-.078.178-.179a.184.184 0 0 0-.179-.178Zm.469-.803a.177.177 0 0 0-.18.178c0 .1.079.179.18.179.1 0 .178-.079.178-.179 0-.1-.078-.179-.178-.179Zm.927 0a.178.178 0 1 0 0 .357c.1 0 .178-.079.178-.179.012-.1-.078-.179-.178-.179Zm-.927 1.619a.177.177 0 0 0-.18.179c0 .1.079.178.18.178.1 0 .178-.078.178-.178 0-.1-.078-.18-.178-.18Zm0-1.084a.178.178 0 0 0-.18.18c0 .1.079.178.18.178.1 0 .178-.078.178-.179 0-.1-.078-.179-.178-.179Zm0-2.155a.177.177 0 0 0-.18.178c0 .1.079.18.18.18.1 0 .178-.08.178-.18 0-.1-.078-.178-.178-.178Zm0 2.703a.177.177 0 0 0-.18.178c0 .101.079.18.18.18.1 0 .178-.079.178-.18 0-.1-.078-.178-.178-.178Zm0-3.787a.177.177 0 0 0-.18.179c0 .1.079.179.18.179.1 0 .178-.079.178-.18 0-.1-.078-.178-.178-.178Zm0 5.161a.112.112 0 1 0-.112-.112c-.011.056.044.112.111.112Zm-.469-.201c.1 0 .178-.079.178-.18 0-.1-.078-.178-.179-.178-.1 0-.178.078-.178.179-.011.09.078.179.178.179Zm0-.906a.178.178 0 0 0-.18.18c0 .1.079.178.18.178.1 0 .178-.078.178-.178a.177.177 0 0 0-.179-.18Zm.469-3.518a.178.178 0 0 0-.18.179c0 .1.079.179.18.179.1 0 .178-.078.178-.179 0-.1-.078-.179-.178-.179Zm0-1.072a.177.177 0 0 0-.18.179c0 .1.079.178.18.178.1 0 .178-.078.178-.178 0-.1-.078-.179-.178-.179Zm.457.268c-.1 0-.178.078-.178.179 0 .1.078.179.178.179.101 0 .18-.079.18-.18.01-.1-.079-.178-.18-.178Zm-.457 1.888a.177.177 0 0 0-.18.178c0 .101.079.18.18.18.1 0 .178-.079.178-.18 0-.1-.078-.178-.178-.178Zm.927-2.156c-.1 0-.18.078-.18.179 0 .1.08.178.18.178.1 0 .178-.078.178-.178 0-.1-.078-.179-.178-.179Zm0 .536c-.1 0-.18.078-.18.179 0 .1.08.179.18.179.1 0 .178-.079.178-.18.012-.1-.078-.178-.178-.178Zm-.47 4.96c.101 0 .18-.079.18-.18 0-.1-.079-.178-.18-.178-.1 0-.178.078-.178.179 0 .09.078.179.178.179Zm.47-2.804c-.1 0-.18.078-.18.179 0 .1.08.178.18.178.1 0 .178-.078.178-.178.012-.09-.078-.18-.178-.18Zm-.47 1.898c-.1 0-.178.079-.178.18 0 .1.078.178.178.178.101 0 .18-.078.18-.178.01-.101-.079-.18-.18-.18Zm.47-3.518c-.1 0-.18.079-.18.179 0 .1.08.179.18.179.1 0 .178-.078.178-.179 0-.1-.078-.179-.178-.179Zm-.47 1.899c-.1 0-.178.078-.178.179 0 .1.078.179.178.179.101 0 .18-.079.18-.18.01-.1-.079-.178-.18-.178Zm0-.547c-.1 0-.178.078-.178.179 0 .1.078.178.178.178.101 0 .18-.078.18-.178.01-.09-.079-.18-.18-.18Zm0-.536c-.1 0-.178.078-.178.178 0 .101.078.18.178.18.101 0 .18-.079.18-.18.01-.1-.079-.178-.18-.178Zm0-.536c-.1 0-.178.078-.178.178 0 .1.078.179.178.179.101 0 .18-.078.18-.179.01-.1-.079-.178-.18-.178Zm0-.548c-.1 0-.178.078-.178.179 0 .1.078.179.178.179.101 0 .18-.079.18-.179 0-.1-.079-.179-.18-.179Zm0 2.703c-.1 0-.178.079-.178.18 0 .1.078.178.178.178.101 0 .18-.078.18-.179 0-.1-.079-.179-.18-.179Zm0 .536c-.1 0-.178.079-.178.18 0 .1.078.178.178.178.101 0 .18-.078.18-.179.01-.09-.079-.178-.18-.178Zm-7.483-3.708a.112.112 0 0 0 0 .223.112.112 0 0 0 0-.223ZM5.884 12.74c-.1 0-.178.078-.178.178 0 .1.078.179.178.179.101 0 .18-.079.18-.179 0-.1-.079-.179-.18-.179Zm0-.548c-.1 0-.178.078-.178.179 0 .1.078.178.178.178.101 0 .18-.078.18-.178 0-.1-.079-.18-.18-.18Zm0-1.005a.112.112 0 0 0 0 .223.112.112 0 0 0 0-.223Zm0 .469c-.1 0-.178.078-.178.178 0 .101.078.18.178.18.101 0 .18-.079.18-.18 0-.1-.079-.178-.18-.178Zm.47 1.642a.112.112 0 1 0-.112-.112c-.011.067.045.112.112.112Zm-.47-.023c-.1 0-.178.079-.178.18 0 .1.078.178.178.178.101 0 .18-.078.18-.179 0-.1-.079-.179-.18-.179Zm0 .905c.101 0 .18-.078.18-.178a.178.178 0 0 0-.18-.18c-.1 0-.178.079-.178.18-.011.1.078.178.178.178Zm-.469.816c.1 0 .18-.079.18-.18 0-.1-.08-.178-.18-.178-.1 0-.178.078-.178.179-.012.09.078.179.178.179Zm0-1.989c-.1 0-.178.079-.178.18 0 .1.078.178.178.178.1 0 .18-.078.18-.179 0-.1-.08-.179-.18-.179Zm-.469.816c-.1 0-.179.078-.179.178 0 .101.079.18.18.18.1 0 .178-.079.178-.18 0-.1-.078-.178-.179-.178Zm0 .536c-.1 0-.179.078-.179.179 0 .1.079.178.18.178.1 0 .178-.078.178-.178 0-.1-.078-.18-.179-.18Zm.469-1.888c-.1 0-.178.078-.178.179 0 .1.078.179.178.179.1 0 .18-.079.18-.18 0-.1-.08-.178-.18-.178Zm0 1.619c-.1 0-.178.079-.178.18 0 .1.078.178.178.178.1 0 .18-.078.18-.178 0-.101-.08-.18-.18-.18Zm0-.547c-.1 0-.178.079-.178.18 0 .1.078.178.178.178.1 0 .18-.078.18-.179a.184.184 0 0 0-.18-.178Zm1.397-.983c.1 0 .178-.078.178-.178 0-.1-.078-.179-.178-.179a.177.177 0 0 0-.18.179c0 .1.08.179.18.179Zm0-.904a.177.177 0 0 0-.18.178c0 .101.08.18.18.18.1 0 .178-.079.178-.18.011-.1-.078-.178-.178-.178Zm0-.536a.18.18 0 1 0 .178.178c.011-.1-.078-.178-.178-.178Zm0-.548a.178.178 0 0 0-.18.179c0 .1.08.179.18.179.1 0 .178-.078.178-.179 0-.1-.078-.179-.178-.179Zm.468 2.726a.112.112 0 1 0-.112-.112.114.114 0 0 0 .113.112Zm0-2.994c-.1 0-.178.078-.178.179 0 .1.078.179.179.179.1 0 .178-.079.178-.179 0-.1-.078-.179-.178-.179Zm-.926 0c-.1 0-.18.078-.18.179 0 .1.08.179.18.179.1 0 .178-.079.178-.179 0-.1-.078-.179-.178-.179Zm.458-.268a.177.177 0 0 0-.18.179c0 .1.08.179.18.179.1 0 .178-.079.178-.18.011-.1-.078-.178-.178-.178Zm-.458.816a.178.178 0 1 0 0 .357c.1 0 .178-.078.178-.179 0-.1-.078-.178-.178-.178Zm0 1.072c-.1 0-.18.078-.18.179 0 .1.08.178.18.178.1 0 .178-.078.178-.178a.184.184 0 0 0-.178-.18Zm0-.536c-.1 0-.18.078-.18.178 0 .101.08.18.18.18.1 0 .178-.079.178-.18 0-.1-.078-.178-.178-.178Zm0 1.083c-.1 0-.18.078-.18.179 0 .1.08.179.18.179.1 0 .178-.079.178-.18 0-.1-.078-.178-.178-.178Zm.458-2.904a.112.112 0 0 0 0 .223.112.112 0 0 0 .111-.111c.011-.067-.044-.112-.111-.112Zm-.458.268a.112.112 0 0 0 0 .223.112.112 0 0 0 .111-.111.12.12 0 0 0-.111-.112Zm.926 0a.112.112 0 0 0 0 .223.112.112 0 0 0 0-.223Zm-3.73.838c.1 0 .179-.078.179-.179 0-.1-.079-.179-.179-.179-.1 0-.179.079-.179.18 0 .089.078.178.179.178Zm.458-.637c-.1 0-.179.078-.179.179 0 .1.078.179.179.179.1 0 .179-.079.179-.18 0-.1-.079-.178-.18-.178Zm0 .536c-.1 0-.179.079-.179.179 0 .1.078.179.179.179.1 0 .179-.078.179-.179 0-.1-.079-.179-.18-.179Zm0 1.084c-.1 0-.179.078-.179.178 0 .101.078.18.179.18.1 0 .179-.079.179-.18 0-.1-.079-.178-.18-.178Zm0-.536c-.1 0-.179.078-.179.178 0 .1.078.18.179.18.1 0 .179-.08.179-.18 0-.1-.079-.178-.18-.178Zm-.458.636c.1 0 .179-.078.179-.178 0-.1-.079-.18-.179-.18-.1 0-.179.08-.179.18 0 .089.078.178.179.178Zm3.73-.904c-.1 0-.178.078-.178.178 0 .1.078.179.179.179.1 0 .178-.078.178-.179.012-.1-.078-.178-.178-.178Zm-3.73.357c.1 0 .179-.078.179-.179 0-.1-.079-.178-.179-.178-.1 0-.179.078-.179.178 0 .1.078.179.179.179ZM4.008 9.5c-.1 0-.179.078-.179.179 0 .1.078.178.179.178.1 0 .179-.078.179-.178 0-.1-.079-.179-.18-.179Zm-.928.536c-.1 0-.178.078-.178.179 0 .1.078.179.179.179.1 0 .179-.079.179-.18.01-.1-.079-.178-.18-.178Zm0-.536c-.1 0-.178.078-.178.179 0 .1.078.178.179.178.1 0 .179-.078.179-.178 0-.1-.079-.179-.18-.179Zm-.468.335a.112.112 0 0 0 0 .223.112.112 0 0 0 .111-.111c.012-.056-.044-.112-.111-.112Zm.468.737c-.1 0-.178.079-.178.179 0 .1.078.179.179.179.1 0 .179-.078.179-.179 0-.1-.079-.179-.18-.179Zm.47-.804c-.1 0-.179.078-.179.179 0 .1.078.179.179.179.1 0 .179-.079.179-.18 0-.1-.079-.178-.179-.178Zm.458 3.262a.112.112 0 0 0 0-.223.112.112 0 0 0 0 .223Zm.469-2.659a.112.112 0 0 0 0 .224.112.112 0 0 0 0-.224Zm.469 4.826a.112.112 0 1 0-.112-.112c0 .056.045.112.112.112Zm0-3.474a.112.112 0 0 0 0 .223.112.112 0 0 0 .112-.111.12.12 0 0 0-.112-.112Zm0-.536a.112.112 0 0 0 0 .223.112.112 0 0 0 0-.223Zm3.742 0a.112.112 0 0 0 0 .223.112.112 0 0 0 .112-.112c0-.067-.045-.111-.112-.111Zm-3.273.803a.112.112 0 0 0 0 .224.112.112 0 0 0 .112-.111.12.12 0 0 0-.112-.112Zm2.804 0a.112.112 0 0 0 0 .224.112.112 0 0 0 0-.223Zm-3.742 1.017c-.1 0-.179.079-.179.18 0 .1.079.178.18.178.1 0 .178-.078.178-.179 0-.1-.078-.179-.179-.179Zm0 .536c-.1 0-.179.079-.179.18 0 .1.079.178.18.178.1 0 .178-.078.178-.179a.184.184 0 0 0-.179-.178Zm-.469-1.351c-.1 0-.179.078-.179.179 0 .1.078.178.179.178.1 0 .179-.078.179-.178 0-.1-.079-.18-.18-.18Zm.938 0c-.1 0-.179.078-.179.179 0 .1.079.178.18.178.1 0 .178-.078.178-.178 0-.1-.078-.18-.179-.18Zm0 .548c-.1 0-.179.078-.179.178 0 .1.079.179.18.179.1 0 .178-.079.178-.179 0-.1-.078-.179-.179-.179Zm0 .535c-.1 0-.179.079-.179.18 0 .1.079.178.18.178.1 0 .178-.078.178-.179 0-.1-.078-.179-.179-.179Zm-.469-2.423c-.1 0-.179.078-.179.178 0 .1.079.179.18.179.1 0 .178-.078.178-.179 0-.1-.078-.178-.179-.178Zm0 1.619c-.1 0-.179.078-.179.179 0 .1.079.179.18.179.1 0 .178-.079.178-.18 0-.1-.078-.178-.179-.178Zm0 1.91a.112.112 0 0 0 0-.223.112.112 0 0 0-.112.112c0 .067.045.111.112.111Zm0-2.457c-.1 0-.179.078-.179.179 0 .1.079.178.18.178.1 0 .178-.078.178-.178a.184.184 0 0 0-.179-.18Zm0-.536c-.1 0-.179.078-.179.178 0 .101.079.18.18.18.1 0 .178-.079.178-.18 0-.1-.078-.178-.179-.178Zm4.68 2.993a.112.112 0 0 0 0-.223.12.12 0 0 0-.111.112c0 .067.044.111.111.111Zm.938-3.529c-.1 0-.178.078-.178.178 0 .1.078.179.178.179.101 0 .18-.078.18-.179 0-.1-.079-.178-.18-.178Zm0-.548c-.1 0-.178.078-.178.179 0 .1.078.179.178.179.101 0 .18-.079.18-.179 0-.1-.079-.179-.18-.179Zm0 1.452c.101 0 .18-.078.18-.178 0-.1-.079-.18-.18-.18-.1 0-.178.08-.178.18-.011.089.078.178.178.178Zm.47-.816c.1 0 .178-.077.178-.178 0-.1-.078-.178-.178-.178a.178.178 0 1 0 0 .357Zm-.47-1.172c-.1 0-.178.078-.178.179 0 .1.078.179.178.179.101 0 .18-.079.18-.18 0-.1-.079-.178-.18-.178Zm.47.268c-.1 0-.18.078-.18.179 0 .1.08.179.18.179.1 0 .178-.079.178-.18 0-.1-.078-.178-.178-.178Zm0-.536c-.1 0-.18.078-.18.179 0 .1.08.178.18.178.1 0 .178-.078.178-.178 0-.1-.078-.179-.178-.179Zm-.939 2.156c-.1 0-.178.078-.178.178 0 .101.078.18.178.18.1 0 .18-.079.18-.18 0-.1-.08-.178-.18-.178Zm0-1.084c-.1 0-.178.079-.178.179 0 .1.078.179.178.179.1 0 .18-.078.18-.179 0-.1-.08-.179-.18-.179Zm0-.536c-.1 0-.178.078-.178.179 0 .1.078.179.178.179.1 0 .18-.079.18-.18 0-.1-.08-.178-.18-.178Zm0-.536c-.1 0-.178.078-.178.179 0 .1.078.178.178.178a.178.178 0 1 0 0-.357Zm2.603 5.697a.112.112 0 1 0-.112-.112c-.01.056.045.112.112.112ZM9.626 13.03a.112.112 0 0 0 0-.223.112.112 0 0 0-.111.111c0 .067.044.112.111.112Zm0-.838c-.1 0-.178.078-.178.179 0 .1.078.178.178.178a.18.18 0 1 0 0-.358Zm0-1.072c-.1 0-.178.078-.178.178a.18.18 0 1 0 .178-.178Zm2.603 2.155c-.1 0-.179.079-.179.18 0 .1.079.178.179.178.1 0 .179-.078.179-.179 0-.1-.079-.179-.179-.179Zm0 1.084c-.1 0-.179.078-.179.179 0 .1.079.178.179.178.1 0 .179-.078.179-.178 0-.1-.079-.18-.179-.18Zm0-.536c-.1 0-.179.078-.179.178 0 .101.079.18.179.18.1 0 .179-.079.179-.18 0-.1-.079-.178-.179-.178Zm.458-4.055c-.1 0-.179.078-.179.179 0 .1.078.179.179.179.1 0 .179-.079.179-.18.01-.1-.079-.178-.18-.178Zm0 .536c-.1 0-.179.078-.179.179 0 .1.078.179.179.179.1 0 .179-.079.179-.179 0-.1-.079-.179-.18-.179Zm0 .548c-.1 0-.179.078-.179.178 0 .1.078.179.179.179.1 0 .179-.078.179-.179.01-.1-.079-.178-.18-.178Zm-.458.804c-.1 0-.179.078-.179.178 0 .101.079.18.179.18.1 0 .179-.079.179-.18 0-.1-.079-.178-.179-.178Zm0 1.084c-.1 0-.179.078-.179.178 0 .1.079.179.179.179.1 0 .179-.079.179-.179 0-.1-.079-.179-.179-.179Zm0-1.62c-.1 0-.179.078-.179.178 0 .1.079.18.179.18.1 0 .179-.08.179-.18 0-.1-.079-.178-.179-.178Zm0-1.084c-.1 0-.179.078-.179.179 0 .1.079.179.179.179.1 0 .179-.079.179-.18 0-.1-.079-.178-.179-.178Zm0 .536c-.1 0-.179.079-.179.179 0 .1.079.179.179.179.1 0 .179-.078.179-.179 0-.1-.079-.179-.179-.179Zm0-1.072c-.1 0-.179.078-.179.179 0 .1.079.178.179.178.1 0 .179-.078.179-.178 0-.1-.079-.179-.179-.179Zm0 2.692c-.1 0-.179.078-.179.179 0 .1.079.178.179.178.1 0 .179-.078.179-.178a.184.184 0 0 0-.179-.18Zm-4.949-.804c-.1 0-.178.078-.178.178 0 .101.078.18.179.18.1 0 .178-.079.178-.18.012-.1-.078-.178-.178-.178Zm.939 1.083c-.1 0-.179.078-.179.179 0 .1.078.179.179.179.1 0 .179-.079.179-.18 0-.1-.078-.178-.179-.178Zm-.469.804c-.1 0-.179.079-.179.18 0 .1.078.178.179.178.1 0 .179-.078.179-.179.01-.1-.079-.179-.18-.179Zm.938 1.922a.112.112 0 1 0-.112-.112c0 .056.045.112.112.112Zm-.469-2.19c-.1 0-.179.079-.179.18 0 .1.078.178.179.178.1 0 .179-.078.179-.179 0-.1-.078-.179-.179-.179Zm0 1.989c.1 0 .179-.079.179-.18 0-.1-.078-.178-.179-.178-.1 0-.179.078-.179.179 0 .09.078.179.179.179Zm0-1.453c-.1 0-.179.079-.179.18 0 .1.078.178.179.178.1 0 .179-.078.179-.179a.184.184 0 0 0-.179-.178Zm0 .547c-.1 0-.179.079-.179.18 0 .1.078.178.179.178.1 0 .179-.078.179-.178a.177.177 0 0 0-.179-.18Zm-.469.09c.1 0 .179-.078.179-.178a.178.178 0 0 0-.18-.18c-.1 0-.178.079-.178.18 0 .1.078.178.179.178Zm0-2.993a.112.112 0 0 0 0 .223.112.112 0 0 0 .112-.112c0-.067-.045-.111-.112-.111Zm-.47 1.284c-.1 0-.178.078-.178.179 0 .1.078.179.179.179.1 0 .178-.079.178-.18.012-.1-.078-.178-.178-.178Zm0-.547c-.1 0-.178.078-.178.179 0 .1.078.178.179.178.1 0 .178-.078.178-.178.012-.09-.078-.18-.178-.18Zm.47.816c-.1 0-.179.078-.179.178 0 .1.078.179.179.179.1 0 .179-.079.179-.179.01-.1-.079-.179-.18-.179Zm0-1.084c-.1 0-.179.078-.179.178 0 .101.078.18.179.18.1 0 .179-.079.179-.18.01-.1-.079-.178-.18-.178Zm0 .536c-.1 0-.179.078-.179.179 0 .1.078.178.179.178.1 0 .179-.078.179-.178 0-.1-.079-.18-.18-.18Zm1.407-.268c-.1 0-.178.078-.178.179 0 .1.078.178.178.178.1 0 .179-.078.179-.178a.184.184 0 0 0-.179-.18Zm0-.536c-.1 0-.178.078-.178.178 0 .101.078.18.178.18.1 0 .179-.079.179-.18 0-.1-.078-.178-.179-.178Zm0 2.155c-.1 0-.178.079-.178.18 0 .1.078.178.178.178.1 0 .179-.078.179-.179a.184.184 0 0 0-.179-.178Zm-.469-1.82a.112.112 0 0 0 0 .223.112.112 0 0 0 0-.223Zm.469 1.284c-.1 0-.178.079-.178.18 0 .1.078.178.178.178.1 0 .179-.078.179-.179 0-.1-.078-.179-.179-.179Zm0-.536c-.1 0-.178.078-.178.179 0 .1.078.179.178.179.1 0 .179-.079.179-.18 0-.1-.078-.178-.179-.178Zm0-2.1a.112.112 0 0 0 0 .224.12.12 0 0 0 .112-.112.12.12 0 0 0-.112-.112Zm0 .481c-.1 0-.178.078-.178.178 0 .1.078.179.178.179.1 0 .179-.078.179-.179 0-.1-.078-.178-.179-.178Zm-.469 1.888c-.1 0-.179.078-.179.178 0 .1.079.179.18.179.1 0 .178-.079.178-.179 0-.1-.078-.179-.179-.179Zm0-.548c-.1 0-.179.078-.179.179 0 .1.079.178.18.178.1 0 .178-.078.178-.178 0-.1-.078-.18-.179-.18Zm0 1.083c-.1 0-.179.079-.179.18 0 .1.079.178.18.178.1 0 .178-.078.178-.179 0-.1-.078-.179-.179-.179Zm3.999-1.887c-.1 0-.179.078-.179.178 0 .101.078.18.179.18.1 0 .179-.079.179-.18.01-.1-.079-.178-.18-.178Zm-3.999 2.435c-.1 0-.179.078-.179.178 0 .101.079.18.18.18.1 0 .178-.079.178-.18 0-.1-.078-.178-.179-.178Zm0 .536c-.1 0-.179.078-.179.179 0 .1.079.178.18.178.1 0 .178-.078.178-.178 0-.1-.078-.18-.179-.18Z"/>
  </g>
  <defs>
    <clipPath id="WPP_svg__a">
      <path fill="#fff" d="M0 0h24v24H0z"/>
    </clipPath>
  </defs>
</svg>
