<svg fill="none" viewBox="0 0 24 24" xmlns="http://www.w3.org/2000/svg">
  <g clip-path="url(#Y_svg__a)">
    <path fill="#5035AD" d="M24 12c0 6.627-5.373 12-12 12S0 18.627 0 12 5.373 0 12 0s12 5.373 12 12Z"/>
    <path fill="#000" fill-opacity=".12" fill-rule="evenodd" d="M12 23.5c6.351 0 11.5-5.149 11.5-11.5S18.351.5 12 .5.5 5.649.5 12 5.649 23.5 12 23.5Zm0 .5c6.627 0 12-5.373 12-12S18.627 0 12 0 0 5.373 0 12s5.373 12 12 12Z" clip-rule="evenodd"/>
    <path fill="#fff" d="m12 10.19 2.276-4.897h3.867l-4.345 8.049V18.5h-3.596v-5.05L5.857 5.293h3.885L12 10.19Z"/>
  </g>
  <defs>
    <clipPath id="Y_svg__a">
      <path fill="#fff" d="M0 0h24v24H0z"/>
    </clipPath>
  </defs>
</svg>
