<svg fill="none" viewBox="0 0 128 96" xmlns="http://www.w3.org/2000/svg">
  <title>Block Cookie Pop-ups</title>
  <path fill="#888" d="m105.629 38.2 1.542-.4a.875.875 0 0 0 .629-.629l.4-1.543A.84.84 0 0 1 109 35c.4 0 .743.286.8.628l.4 1.543a.875.875 0 0 0 .629.629l1.542.4c.4.114.629.457.629.8 0 .4-.286.743-.629.8l-1.542.4a.875.875 0 0 0-.629.628l-.4 1.543a.84.84 0 0 1-.8.629c-.4 0-.743-.286-.8-.629l-.4-1.543a.875.875 0 0 0-.629-.628l-1.542-.4A.842.842 0 0 1 105 39c0-.4.286-.743.629-.8m-89.686-6.4 2.314-.6c.429-.086.857-.514.943-.943l.6-2.314c.171-.6.686-.943 1.2-.943.6 0 1.114.428 1.2.943l.6 2.314c.086.429.514.857.943.943l2.314.6c.6.171.943.686.943 1.2 0 .6-.429 1.114-.943 1.2l-2.314.6c-.429.086-.857.514-.943.943l-.6 2.314c-.171.6-.686.943-1.2.943-.6 0-1.114-.429-1.2-.943l-.6-2.314c-.086-.429-.514-.857-.943-.943l-2.314-.6c-.6-.172-.943-.686-.943-1.2 0-.6.428-1.114.943-1.2ZM.629 53.2l1.542-.4a.876.876 0 0 0 .629-.629l.4-1.543A.841.841 0 0 1 4 50c.4 0 .743.286.8.628l.4 1.543a.876.876 0 0 0 .629.629l1.542.4c.4.114.629.457.629.8 0 .4-.286.743-.629.8l-1.542.4a.875.875 0 0 0-.629.628l-.4 1.543A.841.841 0 0 1 4 58c-.4 0-.743-.286-.8-.629l-.4-1.543a.875.875 0 0 0-.629-.628L.63 54.8A.841.841 0 0 1 0 54c0-.4.286-.743.629-.8ZM126.5 52c-.825 0-1.5-.675-1.5-1.5s.675-1.5 1.5-1.5 1.5.675 1.5 1.5-.675 1.5-1.5 1.5M23 70c-1.1 0-2-.9-2-2s.9-2 2-2 2 .9 2 2-.9 2-2 2" opacity=".2"/>
  <path fill="#CCC" d="M109.404 69.806h3.602c.661 0 1.201.54 1.201 1.2 0 .661-.54 1.201-1.201 1.201h-3.602c-.66 0-1.2-.54-1.2-1.2 0-.66.54-1.201 1.2-1.201M110.605 59a1.203 1.203 0 0 1 .847 2.053l-2.402 2.402a1.203 1.203 0 0 1-1.699 0 1.203 1.203 0 0 1 0-1.7l2.402-2.4c.234-.235.54-.355.846-.355zm-2.395 19.212a1.203 1.203 0 0 0-.847 2.053l2.402 2.401c.468.469 1.23.469 1.699 0a1.203 1.203 0 0 0 0-1.698l-2.402-2.402a1.196 1.196 0 0 0-.846-.354h-.006"/>
  <path fill="#C18010" d="M86.333 51C75.656 51 67 59.656 67 70.333c0 1.634-1.765 2.659-3.184 1.848L60 70c-11.175-2.698-19.693-8.49-21.6-20.093.692.06 1.392.092 2.1.092C53.479 50 64 39.48 64 26.5c0-3.774-.89-7.34-2.47-10.5H67c16.016 0 29 12.984 29 29 0 .393-.008.784-.023 1.173C95.864 49.01 93.347 51 90.509 51z"/>
  <path fill="#F9BE1A" d="M86.333 51C75.656 51 67 59.656 67 70.333v3.046A29.126 29.126 0 0 1 61 74c-14.16 0-26.213-10.588-28.58-24.145-.46-2.641 1.914-4.704 4.58-4.986C48.803 43.62 58 33.634 58 21.5c0-.578-.02-1.15-.062-1.718C57.8 17.859 59.072 16 61 16c16.016 0 29 12.984 29 29a29.14 29.14 0 0 1-.621 6z"/>
  <path fill="#EB102D" d="M87 87c8.837 0 16-7.163 16-16s-7.163-16-16-16-16 7.163-16 16 7.163 16 16 16"/>
  <path fill="#fff" fill-rule="evenodd" d="M79.667 68.667a.667.667 0 0 0-.667.666v4.334c0 .368.299.666.667.666h15.666a.667.667 0 0 0 .667-.666v-4.334a.667.667 0 0 0-.667-.666z" clip-rule="evenodd"/>
  <path fill="#C18010" d="M66.732 25.34c.751-1.42 2.785-1.42 3.536 0l1.442 2.724c.705 1.332-.261 2.936-1.768 2.936h-2.884c-1.507 0-2.473-1.604-1.768-2.936l1.442-2.724Zm10 15c.751-1.42 2.785-1.42 3.536 0l1.442 2.724c.705 1.333-.261 2.936-1.768 2.936h-2.884c-1.507 0-2.473-1.603-1.768-2.935l1.442-2.725Zm-19-1c.751-1.42 2.785-1.42 3.536 0l1.441 2.724c.705 1.333-.26 2.936-1.767 2.936h-2.884c-1.507 0-2.472-1.603-1.767-2.935zm2 17c.751-1.42 2.785-1.42 3.536 0l1.442 2.724c.705 1.333-.261 2.936-1.768 2.936h-2.884c-1.507 0-2.472-1.603-1.767-2.935l1.441-2.725Zm-15-4c.751-1.42 2.785-1.42 3.536 0l1.441 2.724c.705 1.333-.26 2.936-1.767 2.936h-2.884c-1.507 0-2.472-1.603-1.767-2.935z"/>
</svg>