<svg fill="none" viewBox="0 0 128 96" xmlns="http://www.w3.org/2000/svg">
  <path fill="#888" d="m99.829 35.6 1.543.4a.88.88 0 0 1 .628.629l.4 1.542a.84.84 0 0 0 .8.629c.4 0 .743-.286.8-.629l.4-1.542a.88.88 0 0 1 .629-.629l1.543-.4a.84.84 0 0 0 .628-.8c0-.4-.286-.743-.628-.8l-1.543-.4a.88.88 0 0 1-.629-.629l-.4-1.542a.84.84 0 0 0-.8-.629c-.4 0-.743.286-.8.629l-.4 1.542a.88.88 0 0 1-.628.629l-1.543.4a.84.84 0 0 0-.629.8c0 .4.286.743.629.8M112 54c-1.1 0-2 .9-2 2s.9 2 2 2 2-.9 2-2-.9-2-2-2M15.943 65.2l2.314.6c.429.086.857.514.943.943l.6 2.314c.171.6.686.943 1.2.943.6 0 1.114-.429 1.2-.943l.6-2.314c.086-.429.514-.857.943-.943l2.314-.6c.6-.172.943-.686.943-1.2 0-.6-.429-1.114-.943-1.2l-2.314-.6c-.429-.086-.857-.514-.943-.943l-.6-2.314c-.171-.6-.686-.943-1.2-.943-.6 0-1.114.428-1.2.943l-.6 2.314c-.086.429-.514.857-.943.943l-2.314.6c-.6.171-.943.686-.943 1.2 0 .6.429 1.114.943 1.2M.629 43.8l1.542.4a.88.88 0 0 1 .629.628l.4 1.543c.114.4.457.629.8.629.4 0 .743-.286.8-.629l.4-1.543a.88.88 0 0 1 .629-.628l1.542-.4A.84.84 0 0 0 8 43c0-.4-.286-.743-.629-.8l-1.542-.4a.88.88 0 0 1-.629-.629l-.4-1.542a.84.84 0 0 0-.8-.63c-.4 0-.743.287-.8.63l-.4 1.542a.88.88 0 0 1-.629.629l-1.542.4A.84.84 0 0 0 0 43c0 .4.286.743.629.8M126.5 45c-.825 0-1.5.675-1.5 1.5s.675 1.5 1.5 1.5 1.5-.675 1.5-1.5-.675-1.5-1.5-1.5M23 27c-1.1 0-2 .9-2 2s.9 2 2 2 2-.9 2-2-.9-2-2-2" opacity=".2"/>
  <path fill="#6B4EBA" d="M40.266 42.642a6.13 6.13 0 0 1 6.925-5.218L90.436 43.5a6.13 6.13 0 0 1 5.218 6.925L92.24 74.713a6.13 6.13 0 0 1-6.925 5.218L42.07 73.853a6.13 6.13 0 0 1-5.218-6.925z"/>
  <path fill="#DE5833" d="M36 36.344a6.13 6.13 0 0 1 6.131-6.132h43.685a6.13 6.13 0 0 1 6.132 6.132v24.525a6.13 6.13 0 0 1-6.132 6.13H42.131A6.13 6.13 0 0 1 36 60.87z"/>
  <path fill="#FC3" d="M31.999 30.114a6.13 6.13 0 0 1 5.096-7.015L81 16.145a6.13 6.13 0 0 1 7.015 5.097l3.837 24.223a6.13 6.13 0 0 1-5.097 7.015L42.85 59.434a6.13 6.13 0 0 1-7.015-5.097L32 30.114Z"/>
  <path fill="#C18010" d="M59.834 39.285c.893 5.644-2.957 10.944-8.601 11.838s-10.944-2.957-11.838-8.601 2.957-10.944 8.6-11.838c5.645-.894 10.945 2.957 11.839 8.6Z"/>
  <path fill="#E2A412" fill-rule="evenodd" d="M58.363 46.427a10.3 10.3 0 0 0 1.47-7.142c-.893-5.644-6.193-9.495-11.837-8.6-5.644.893-9.495 6.193-8.6 11.837A10.3 10.3 0 0 0 43 48.86a8.409 8.409 0 0 1 15.362-2.434Z" clip-rule="evenodd"/>
  <path fill="#C18010" d="M53.361 37.691a4.203 4.203 0 1 1-8.303 1.315 4.203 4.203 0 0 1 8.303-1.315"/>
  <path fill="#E2A412" fill-rule="evenodd" d="M62.64 34.291a1.916 1.916 0 0 1 1.592-2.192l17.032-2.698a1.916 1.916 0 0 1 .6 3.785l-17.032 2.698a1.916 1.916 0 0 1-2.192-1.593m1.916 7.183a1.916 1.916 0 0 1 1.592-2.192l7.949-1.258a1.916 1.916 0 1 1 .599 3.784l-7.948 1.26a1.916 1.916 0 0 1-2.192-1.593Z" clip-rule="evenodd"/>
</svg>