<svg width="33" height="33" viewBox="0 0 33 33" fill="none" xmlns="http://www.w3.org/2000/svg">
<g id="Information-Remover-32">
<path id="Rectangle 902" d="M4.79991 13.3356C5.03554 11.659 6.58573 10.4908 8.26235 10.7265L29.8846 13.7653C31.5612 14.0009 32.7294 15.5511 32.4937 17.2277L30.7871 29.3709C30.5515 31.0475 29.0013 32.2156 27.3247 31.98L5.70244 28.9412C4.02582 28.7055 2.85767 27.1554 3.0933 25.4787L4.79991 13.3356Z" fill="#6B4EBA"/>
<path id="Rectangle 902_2" d="M2.66675 10.1867C2.66675 8.49362 4.03927 7.12109 5.73237 7.12109L27.5749 7.12109C29.268 7.12109 30.6405 8.49362 30.6405 10.1867L30.6405 22.4492C30.6405 24.1423 29.268 25.5148 27.5749 25.5148L5.73237 25.5148C4.03927 25.5148 2.66675 24.1423 2.66675 22.4492L2.66675 10.1867Z" fill="#DE5833"/>
<path id="Subtract" d="M0.666032 7.07179C0.401174 5.39954 1.54209 3.82921 3.21434 3.56435L25.1665 0.0874786C26.8387 -0.17738 28.409 0.963538 28.6739 2.63579L30.5922 14.7473C30.857 16.4196 29.7161 17.9899 28.0439 18.2547L6.09175 21.7316C4.4195 21.9965 2.84916 20.8556 2.58431 19.1833L0.666032 7.07179Z" fill="#FFCC33"/>
<path id="Circle" d="M14.5835 11.657C15.0305 14.4789 13.1052 17.1289 10.2833 17.5758C7.46134 18.0228 4.8114 16.0975 4.36445 13.2756C3.9175 10.4536 5.8428 7.80369 8.66472 7.35674C11.4866 6.9098 14.1366 8.83509 14.5835 11.657Z" fill="#C18010"/>
<path id="Subtract_2" fill-rule="evenodd" clip-rule="evenodd" d="M13.8483 15.2282C14.4958 14.2036 14.7881 12.9483 14.5835 11.657C14.1366 8.83508 11.4866 6.9098 8.66472 7.35674C5.8428 7.80369 3.9175 10.4536 4.36444 13.2755C4.56897 14.5669 5.23483 15.6705 6.1674 16.4449C6.54979 14.837 7.86691 13.5392 9.6005 13.2646C11.3341 12.9901 12.9877 13.8173 13.8483 15.2282Z" fill="#E2A412"/>
<path id="Head" d="M11.3475 10.8601C11.529 12.0065 10.7469 13.0831 9.60047 13.2646C8.45407 13.4462 7.37753 12.6641 7.19595 11.5176C7.01438 10.3712 7.79653 9.2947 8.94294 9.11313C10.0893 8.93156 11.1659 9.71371 11.3475 10.8601Z" fill="#C18010"/>
<path id="Vector 573 (Stroke)" fill-rule="evenodd" clip-rule="evenodd" d="M15.9865 9.16008C15.9038 8.6375 16.2603 8.14677 16.7829 8.064L25.2988 6.71521C25.8214 6.63245 26.3121 6.98898 26.3949 7.51156C26.4776 8.03414 26.1211 8.52487 25.5985 8.60764L17.0826 9.95643C16.56 10.0392 16.0693 9.68266 15.9865 9.16008Z" fill="#E2A412"/>
<path id="Vector 571 (Stroke)" fill-rule="evenodd" clip-rule="evenodd" d="M16.9445 12.7519C16.8618 12.2293 17.2183 11.7386 17.7409 11.6558L21.715 11.0264C22.2376 10.9436 22.7283 11.3001 22.8111 11.8227C22.8938 12.3453 22.5373 12.836 22.0147 12.9188L18.0406 13.5482C17.518 13.631 17.0273 13.2745 16.9445 12.7519Z" fill="#E2A412"/>
</g>
</svg>
