<svg fill="none" viewBox="0 0 32 32" xmlns="http://www.w3.org/2000/svg">
  <g clip-path="url(#Identity-Theft-Restoration-32_svg__a)">
    <path fill="#6B4EBA" d="M4.114 13.228a3.066 3.066 0 0 1 3.462-2.61l21.623 3.04a3.066 3.066 0 0 1 2.609 3.462L30.1 29.263a3.066 3.066 0 0 1-3.462 2.61l-21.623-3.04a3.066 3.066 0 0 1-2.609-3.462l1.707-12.143Z"/>
    <path fill="#DE5833" d="M1.98 10.079a3.066 3.066 0 0 1 3.066-3.066H26.89a3.066 3.066 0 0 1 3.065 3.066V22.34a3.066 3.066 0 0 1-3.065 3.066H5.046A3.066 3.066 0 0 1 1.98 22.34V10.08Z"/>
    <path fill="#FC3" d="M-.02 6.964a3.066 3.066 0 0 1 2.548-3.508L24.48-.02a3.066 3.066 0 0 1 3.507 2.548l1.919 12.111a3.066 3.066 0 0 1-2.549 3.508L5.405 21.624a3.066 3.066 0 0 1-3.507-2.549L-.02 6.964Z"/>
    <path fill="#C18010" d="M13.898 11.55a5.173 5.173 0 1 1-10.22 1.618 5.173 5.173 0 0 1 10.22-1.619Z"/>
    <path fill="#E2A412" fill-rule="evenodd" d="M13.162 15.12a5.173 5.173 0 1 0-7.68 1.217 4.204 4.204 0 0 1 7.68-1.217Z" clip-rule="evenodd"/>
    <path fill="#C18010" d="M10.661 10.752a2.102 2.102 0 1 1-4.151.658 2.102 2.102 0 0 1 4.151-.658Z"/>
    <path fill="#E2A412" fill-rule="evenodd" d="M15.3 9.052a.958.958 0 0 1 .797-1.096l8.515-1.349a.958.958 0 1 1 .3 1.893l-8.516 1.349a.958.958 0 0 1-1.096-.797Zm.958 3.592a.958.958 0 0 1 .797-1.096l3.974-.63a.958.958 0 1 1 .3 1.893l-3.975.63a.958.958 0 0 1-1.096-.797Z" clip-rule="evenodd"/>
  </g>
  <defs>
    <clipPath id="Identity-Theft-Restoration-32_svg__a">
      <path fill="#fff" d="M0 0h32v32H0z"/>
    </clipPath>
  </defs>
</svg>