<svg fill="none" viewBox="0 0 16 16" xmlns="http://www.w3.org/2000/svg">
  <path fill="#FC3" d="M2.667 1A2.667 2.667 0 0 0 0 3.667v8.666A2.667 2.667 0 0 0 2.667 15H6.22c.466 0 .78-.535.78-1 0-.658.318-1.241.808-1.606a1.463 1.463 0 0 1-.295-.894c0-.898.73-1.436 1.43-1.599.267-.062.863-.14 1.45-.208l.03-.229c.048-.368.096-.74.191-1.098.196-.728.778-1.382 1.65-1.353.799.027 1.364.622 1.597 1.276.127.356.174.749.219 1.13.01.092.022.184.034.275.267.03.547.052.825.088.508.065 1.061-.315 1.061-.828V3.667A2.667 2.667 0 0 0 13.333 1z"/>
  <path fill="#92540C" fill-rule="evenodd" d="M2.667 1A2.667 2.667 0 0 0 0 3.667v8.666A2.667 2.667 0 0 0 2.667 15H6.22c.466 0 .78-.535.78-1H2.667C1.747 14 1 13.254 1 12.333V7h14v2.806c.477.068 1-.304 1-.786V3.667A2.667 2.667 0 0 0 13.333 1zm10.666 1H2.667C1.747 2 1 2.746 1 3.667V5h14V3.667C15 2.747 14.254 2 13.333 2" clip-rule="evenodd"/>
  <path fill="#92540C" d="M15.507 13.879c.236-.332-.153-.71-.557-.656a.59.59 0 0 0-.362.207c-.095.11-.205.206-.326.288a.587.587 0 0 0-.264.386c-.059.378.276.754.612.571a2.68 2.68 0 0 0 .897-.796"/>
  <path fill="#7295F6" d="M9.17 10.875c-.876.204-.876 1.046 0 1.25.317.074 1.335.191 2.116.275.09.728.215 1.68.295 1.975.222.83 1.116.83 1.339 0 .079-.295.204-1.243.294-1.97.81-.085 1.875-.205 2.117-.28.828-.258.895-1.041 0-1.25-.317-.074-1.332-.191-2.112-.275-.09-.756-.219-1.75-.3-1.975-.278-.78-1.11-.853-1.338 0-.08.296-.206 1.247-.295 1.975-.78.084-1.8.201-2.116.275"/>
  <path fill="#ADC2FC" d="M10 14a1 1 0 1 1-2 0 1 1 0 0 1 2 0"/>
</svg>