<svg fill="none" viewBox="0 0 16 16" xmlns="http://www.w3.org/2000/svg">
  <g clip-path="url(#Identity-Blocked-Color-16_svg__a)">
    <path fill="#FFD65C" d="M15.31 8.252c.255.226.69.09.69-.252a8 8 0 1 0-8 8c.341 0 .478-.435.252-.69a5 5 0 0 1 7.058-7.058"/>
    <path fill="#C18010" d="M8.474 8.455a2.5 2.5 0 1 1 1.611-1.075 5.007 5.007 0 0 0-1.611 1.075m-.81 1.055c-2.386.135-4.37 1.702-5.03 3.816A7.604 7.604 0 0 0 8 15.506c.165 0 .246-.2.14-.327A4.98 4.98 0 0 1 7 12c0-.907.242-1.757.664-2.49"/>
    <path fill="#92540C" d="M8.252 15.31c.226.255.09.69-.252.69a8 8 0 1 1 8-8c0 .341-.435.478-.69.252A5 5 0 0 0 15 8a7 7 0 1 0-12.641 4.145 6.346 6.346 0 0 1 1.898-2.005A6.672 6.672 0 0 1 8 9a4.994 4.994 0 0 0-.597 1.031 5.663 5.663 0 0 0-2.585.937 5.322 5.322 0 0 0-1.764 1.986A6.978 6.978 0 0 0 8 15a5 5 0 0 0 .252.31"/>
    <path fill="#92540C" fill-rule="evenodd" d="M10.77 7.152A3 3 0 1 0 8 9a5.004 5.004 0 0 1 2.772-1.848ZM10 6a2 2 0 1 1-4 0 2 2 0 0 1 4 0" clip-rule="evenodd"/>
    <path fill="#E46F4F" d="M16 12a4 4 0 1 1-8 0 4 4 0 0 1 8 0"/>
    <path fill="#BC4726" fill-rule="evenodd" d="M12 15a3 3 0 1 0 0-6 3 3 0 0 0 0 6m0 1a4 4 0 1 0 0-8 4 4 0 0 0 0 8" clip-rule="evenodd"/>
    <path fill="#fff" fill-rule="evenodd" d="M10 12a.5.5 0 0 1 .5-.5h3a.5.5 0 0 1 0 1h-3a.5.5 0 0 1-.5-.5" clip-rule="evenodd"/>
  </g>
  <defs>
    <clipPath id="Identity-Blocked-Color-16_svg__a">
      <path fill="#fff" d="M0 0h16v16H0z"/>
    </clipPath>
  </defs>
</svg>