<svg width="32" height="32" viewBox="0 0 32 32" fill="none" xmlns="http://www.w3.org/2000/svg">
<path fill-rule="evenodd" clip-rule="evenodd" d="M12 19C12 18.4477 12.4477 18 13 18H14.5C15.0523 18 15.5 18.4477 15.5 19L15.5 31C15.5 31.5523 15.0523 32 14.5 32H13C12.4477 32 12 31.5523 12 31L12 19ZM16.5 19C16.5 18.4477 16.9477 18 17.5 18H19C19.5523 18 20 18.4477 20 19L20 31C20 31.5523 19.5523 32 19 32H17.5C16.9477 32 16.5 31.5523 16.5 31L16.5 19ZM22 18C21.4477 18 21 18.4477 21 19L21 31C21 31.5523 21.4477 32 22 32H23.5C24.0523 32 24.5 31.5523 24.5 31L24.5 19C24.5 18.4477 24.0523 18 23.5 18L22 18Z" fill="#FFD65C"/>
<path fill-rule="evenodd" clip-rule="evenodd" d="M3 19C3 18.4477 3.44772 18 4 18H5.5C6.05228 18 6.5 18.4477 6.5 19L6.5 31C6.5 31.5523 6.05228 32 5.5 32H4C3.44772 32 3 31.5523 3 31L3 19ZM7.5 19C7.5 18.4477 7.94772 18 8.5 18H10C10.5523 18 11 18.4477 11 19L11 31C11 31.5523 10.5523 32 10 32H8.5C7.94772 32 7.5 31.5523 7.5 31L7.5 19ZM26.5 18C25.9477 18 25.5 18.4477 25.5 19L25.5 31C25.5 31.5523 25.9477 32 26.5 32H28C28.5523 32 29 31.5523 29 31L29 19C29 18.4477 28.5523 18 28 18H26.5Z" fill="#FFE8A3"/>
<path opacity="0.5" fill-rule="evenodd" clip-rule="evenodd" d="M6.5 24.5H3L3 27H6.5V24.5ZM24.5 24.5L21 24.5V27H24.5V24.5ZM25.5 24.5H29V27H25.5V24.5ZM11 24.5H7.5L7.5 27L11 27V24.5ZM12 24.5H15.5V27H12V24.5ZM20 24.5H16.5V27H20V24.5Z" fill="url(#paint0_linear_2352_1393)"/>
<mask id="mask0_2352_1393" style="mask-type:alpha" maskUnits="userSpaceOnUse" x="0" y="15" width="32" height="12">
<path d="M0 21L0 18.68C0 16.6476 1.64759 15 3.68 15L28.32 15C30.3524 15 32 16.6476 32 18.68V21V23.32C32 25.3524 30.3524 27 28.32 27L3.68 27C1.64759 27 0 25.3524 0 23.32L0 21Z" fill="#7295F6"/>
</mask>
<g mask="url(#mask0_2352_1393)">
<path d="M0 15L32 15V27L0 27L0 15Z" fill="#A591DC"/>
<path d="M0 24C0 25.6569 1.34315 27 3 27L29 27C30.6569 27 32 25.6569 32 24V22.76C32 21.788 31.212 21 30.24 21L1.76 21C0.787979 21 0 21.788 0 22.76L0 24Z" fill="#6B4EBA"/>
</g>
<path d="M1 18C1 17.4477 1.44772 17 2 17L30 17C30.5523 17 31 17.4477 31 18V18.5C31 19.0523 30.5523 19.5 30 19.5L2 19.5C1.44772 19.5 1 19.0523 1 18.5L1 18Z" fill="#6B4EBA"/>
<path d="M3 4C3 1.79086 4.79086 0 7 0L25 0C27.2091 0 29 1.79086 29 4L29 19.5L3 19.5L3 4Z" fill="#FFE8A3"/>
<path d="M3 4C3 1.79086 4.79086 0 7 0L25 0C27.2091 0 29 1.79086 29 4V9.5L3 9.5L3 4Z" fill="#FFD65C"/>
<path d="M15 8C15 10.7614 12.7614 13 10 13C7.23858 13 5 10.7614 5 8C5 5.23858 7.23858 3 10 3C12.7614 3 15 5.23858 15 8Z" fill="#C18010"/>
<path d="M13.7582 11.2978C14.5313 10.4176 15 9.26343 15 7.9998C15 5.23838 12.7614 2.9998 10 2.9998C7.23858 2.99981 5 5.23838 5 7.9998C5 9.26344 5.46876 10.4176 6.24187 11.2979C6.84999 9.82078 8.30357 8.78095 10 8.78095C11.6965 8.78095 13.15 9.82077 13.7582 11.2978Z" fill="#E2A412"/>
<path d="M12.0312 6.75C12.0312 7.87183 11.1218 8.78125 10 8.78125C8.87817 8.78125 7.96875 7.87183 7.96875 6.75C7.96875 5.62817 8.87817 4.71875 10 4.71875C11.1218 4.71875 12.0312 5.62817 12.0312 6.75Z" fill="#C18010"/>
<path d="M30 23.5C30 24.0523 29.5523 24.5 29 24.5C28.4477 24.5 28 24.0523 28 23.5C28 22.9477 28.4477 22.5 29 22.5C29.5523 22.5 30 22.9477 30 23.5Z" fill="#ADC2FC"/>
<path d="M26.5 23.5C26.5 24.0523 26.0523 24.5 25.5 24.5C24.9477 24.5 24.5 24.0523 24.5 23.5C24.5 22.9477 24.9477 22.5 25.5 22.5C26.0523 22.5 26.5 22.9477 26.5 23.5Z" fill="#ADC2FC"/>
<path d="M12 15.5C12 14.6716 12.6716 14 13.5 14L23 14C23.8284 14 24.5 14.6716 24.5 15.5V19.5H12V15.5Z" fill="#FFD65C"/>
<path opacity="0.2" d="M3 18.5L29 18.5V19.5L3 19.5V18.5Z" fill="url(#paint1_linear_2352_1393)"/>
<defs>
<linearGradient id="paint0_linear_2352_1393" x1="16" y1="27" x2="16" y2="24.5" gradientUnits="userSpaceOnUse">
<stop stop-opacity="0"/>
<stop offset="0.809237" stop-opacity="0.63"/>
</linearGradient>
<linearGradient id="paint1_linear_2352_1393" x1="16" y1="18.5" x2="16" y2="19.5" gradientUnits="userSpaceOnUse">
<stop stop-opacity="0"/>
<stop offset="1"/>
</linearGradient>
</defs>
</svg>
