<svg width="72" height="55" viewBox="0 0 72 55" fill="none" xmlns="http://www.w3.org/2000/svg">
<path opacity="0.2" d="M59.4161 21.9875L60.2839 21.7625C60.4446 21.7304 60.6054 21.5696 60.6375 21.4089L60.8625 20.5411C60.9268 20.3161 61.1196 20.1875 61.3125 20.1875C61.5375 20.1875 61.7304 20.3482 61.7625 20.5411L61.9875 21.4089C62.0196 21.5696 62.1804 21.7304 62.3411 21.7625L63.2089 21.9875C63.4339 22.0518 63.5625 22.2446 63.5625 22.4375C63.5625 22.6625 63.4018 22.8554 63.2089 22.8875L62.3411 23.1125C62.1804 23.1446 62.0196 23.3054 61.9875 23.4661L61.7625 24.3339C61.6982 24.5589 61.5054 24.6875 61.3125 24.6875C61.0875 24.6875 60.8946 24.5268 60.8625 24.3339L60.6375 23.4661C60.6054 23.3054 60.4446 23.1446 60.2839 23.1125L59.4161 22.8875C59.1911 22.8232 59.0625 22.6304 59.0625 22.4375C59.0625 22.2125 59.2232 22.0196 59.4161 21.9875Z" fill="#888888"/>
<path opacity="0.2" d="M8.96785 18.3875L10.2696 18.05C10.5107 18.0018 10.7518 17.7607 10.8 17.5196L11.1375 16.2179C11.2339 15.8804 11.5232 15.6875 11.8125 15.6875C12.15 15.6875 12.4393 15.9286 12.4875 16.2179L12.825 17.5196C12.8732 17.7607 13.1143 18.0018 13.3554 18.05L14.6572 18.3875C14.9947 18.4839 15.1875 18.7732 15.1875 19.0625C15.1875 19.4 14.9464 19.6893 14.6572 19.7375L13.3554 20.075C13.1143 20.1232 12.8732 20.3643 12.825 20.6054L12.4875 21.9071C12.3911 22.2446 12.1018 22.4375 11.8125 22.4375C11.475 22.4375 11.1857 22.1964 11.1375 21.9071L10.8 20.6054C10.7518 20.3643 10.5107 20.1232 10.2696 20.075L8.96785 19.7375C8.63035 19.6411 8.4375 19.3518 8.4375 19.0625C8.4375 18.725 8.67856 18.4357 8.96785 18.3875Z" fill="#888888"/>
<path opacity="0.2" d="M0.353564 30.425L1.22142 30.2C1.38214 30.1679 1.54287 30.0071 1.57501 29.8464L1.79999 28.9786C1.86428 28.7536 2.05714 28.625 2.25 28.625C2.475 28.625 2.66787 28.7857 2.70001 28.9786L2.92499 29.8464C2.95714 30.0071 3.11786 30.1679 3.27858 30.2L4.14644 30.425C4.37144 30.4893 4.5 30.6821 4.5 30.875C4.5 31.1 4.33929 31.2929 4.14644 31.325L3.27858 31.55C3.11786 31.5821 2.95714 31.7429 2.92499 31.9036L2.70001 32.7714C2.63572 32.9964 2.44286 33.125 2.25 33.125C2.025 33.125 1.83213 32.9643 1.79999 32.7714L1.57501 31.9036C1.54287 31.7429 1.38214 31.5821 1.22142 31.55L0.353564 31.325C0.128564 31.2607 0 31.0679 0 30.875C0 30.65 0.160707 30.4571 0.353564 30.425Z" fill="#888888"/>
<path opacity="0.2" d="M71.1562 29.75C70.6922 29.75 70.3125 29.3703 70.3125 28.9062C70.3125 28.4422 70.6922 28.0625 71.1562 28.0625C71.6203 28.0625 72 28.4422 72 28.9062C72 29.3703 71.6203 29.75 71.1562 29.75Z" fill="#888888"/>
<path opacity="0.2" d="M12.9375 39.875C12.3187 39.875 11.8125 39.3687 11.8125 38.75C11.8125 38.1312 12.3187 37.625 12.9375 37.625C13.5562 37.625 14.0625 38.1312 14.0625 38.75C14.0625 39.3687 13.5562 39.875 12.9375 39.875Z" fill="#888888"/>
<path fill-rule="evenodd" clip-rule="evenodd" d="M31.5 30.875C31.5 30.2537 32.0037 29.75 32.625 29.75H34.3125C34.9338 29.75 35.4375 30.2537 35.4375 30.875V44.375C35.4375 44.9963 34.9338 45.5 34.3125 45.5H32.625C32.0037 45.5 31.5 44.9963 31.5 44.375L31.5 30.875ZM36.5625 30.875C36.5625 30.2537 37.0662 29.75 37.6875 29.75H39.375C39.9963 29.75 40.5 30.2537 40.5 30.875V44.375C40.5 44.9963 39.9963 45.5 39.375 45.5H37.6875C37.0662 45.5 36.5625 44.9963 36.5625 44.375V30.875ZM42.75 29.75C42.1287 29.75 41.625 30.2537 41.625 30.875V44.375C41.625 44.9963 42.1287 45.5 42.75 45.5H44.4375C45.0588 45.5 45.5625 44.9963 45.5625 44.375V30.875C45.5625 30.2537 45.0588 29.75 44.4375 29.75H42.75Z" fill="#FFD65C"/>
<path fill-rule="evenodd" clip-rule="evenodd" d="M21.375 30.875C21.375 30.2537 21.8787 29.75 22.5 29.75H24.1875C24.8088 29.75 25.3125 30.2537 25.3125 30.875V44.375C25.3125 44.9963 24.8088 45.5 24.1875 45.5H22.5C21.8787 45.5 21.375 44.9963 21.375 44.375L21.375 30.875ZM26.4375 30.875C26.4375 30.2537 26.9412 29.75 27.5625 29.75H29.25C29.8713 29.75 30.375 30.2537 30.375 30.875V44.375C30.375 44.9963 29.8713 45.5 29.25 45.5H27.5625C26.9412 45.5 26.4375 44.9963 26.4375 44.375V30.875ZM47.8125 29.75C47.1912 29.75 46.6875 30.2537 46.6875 30.875V44.375C46.6875 44.9963 47.1912 45.5 47.8125 45.5H49.5C50.1213 45.5 50.625 44.9963 50.625 44.375V30.875C50.625 30.2537 50.1213 29.75 49.5 29.75H47.8125Z" fill="#FFE8A3"/>
<path opacity="0.5" fill-rule="evenodd" clip-rule="evenodd" d="M25.3125 37.0625H21.375V39.875H25.3125V37.0625ZM45.5625 37.0625H41.625V39.875H45.5625V37.0625ZM46.6875 37.0625H50.625V39.875L46.6875 39.875V37.0625ZM30.375 37.0625H26.4375V39.875H30.375V37.0625ZM31.5 37.0625H35.4375V39.875H31.5V37.0625ZM40.5 37.0625H36.5625V39.875H40.5V37.0625Z" fill="url(#paint0_linear_2272_935)"/>
<mask id="mask0_2272_935" style="mask-type:alpha" maskUnits="userSpaceOnUse" x="18" y="26" width="36" height="14">
<path d="M18 33.125V30.515C18 28.2285 19.8535 26.375 22.14 26.375H49.86C52.1465 26.375 54 28.2285 54 30.515V33.125V35.735C54 38.0215 52.1465 39.875 49.86 39.875H22.14C19.8535 39.875 18 38.0215 18 35.735V33.125Z" fill="#7295F6"/>
</mask>
<g mask="url(#mask0_2272_935)">
<path d="M18 26.375H54V39.875H18V26.375Z" fill="#A591DC"/>
<path d="M18 36.5C18 38.364 19.511 39.875 21.375 39.875H50.625C52.489 39.875 54 38.364 54 36.5V35.105C54 34.0115 53.1135 33.125 52.02 33.125H19.98C18.8865 33.125 18 34.0115 18 35.105V36.5Z" fill="#6B4EBA"/>
</g>
<path d="M19.125 29.75C19.125 29.1287 19.6287 28.625 20.25 28.625H51.75C52.3713 28.625 52.875 29.1287 52.875 29.75V30.3125C52.875 30.9338 52.3713 31.4375 51.75 31.4375H20.25C19.6287 31.4375 19.125 30.9338 19.125 30.3125V29.75Z" fill="#6B4EBA"/>
<path d="M21.375 14C21.375 11.5147 23.3897 9.5 25.875 9.5H46.125C48.6103 9.5 50.625 11.5147 50.625 14V31.4375H21.375V14Z" fill="#FFE8A3"/>
<path d="M21.375 14C21.375 11.5147 23.3897 9.5 25.875 9.5H46.125C48.6103 9.5 50.625 11.5147 50.625 14V20.1875H21.375V14Z" fill="#FFD65C"/>
<path d="M34.875 18.5C34.875 21.6066 32.3566 24.125 29.25 24.125C26.1434 24.125 23.625 21.6066 23.625 18.5C23.625 15.3934 26.1434 12.875 29.25 12.875C32.3566 12.875 34.875 15.3934 34.875 18.5Z" fill="#C18010"/>
<path d="M33.4779 22.2104C34.3477 21.2201 34.875 19.9217 34.875 18.5001C34.875 15.3935 32.3566 12.8751 29.25 12.8751C26.1434 12.8751 23.625 15.3935 23.625 18.5001C23.625 19.9217 24.1524 21.2202 25.0221 22.2104C25.7062 20.5487 27.3415 19.3789 29.25 19.3789C31.1585 19.3789 32.7938 20.5487 33.4779 22.2104Z" fill="#E2A412"/>
<path d="M31.5352 17.0938C31.5352 18.3558 30.5121 19.3789 29.25 19.3789C27.9879 19.3789 26.9648 18.3558 26.9648 17.0938C26.9648 15.8317 27.9879 14.8086 29.25 14.8086C30.5121 14.8086 31.5352 15.8317 31.5352 17.0938Z" fill="#C18010"/>
<path d="M51.75 35.9375C51.75 36.5588 51.2463 37.0625 50.625 37.0625C50.0037 37.0625 49.5 36.5588 49.5 35.9375C49.5 35.3162 50.0037 34.8125 50.625 34.8125C51.2463 34.8125 51.75 35.3162 51.75 35.9375Z" fill="#ADC2FC"/>
<path d="M47.8125 35.9375C47.8125 36.5588 47.3088 37.0625 46.6875 37.0625C46.0662 37.0625 45.5625 36.5588 45.5625 35.9375C45.5625 35.3162 46.0662 34.8125 46.6875 34.8125C47.3088 34.8125 47.8125 35.3162 47.8125 35.9375Z" fill="#ADC2FC"/>
<path d="M31.5 26.9375C31.5 26.0055 32.2555 25.25 33.1875 25.25H43.875C44.807 25.25 45.5625 26.0055 45.5625 26.9375V31.4375H31.5V26.9375Z" fill="#FFD65C"/>
<path opacity="0.2" d="M21.375 30.3125H50.625V31.4375H21.375V30.3125Z" fill="url(#paint1_linear_2272_935)"/>
<defs>
<linearGradient id="paint0_linear_2272_935" x1="36" y1="39.875" x2="36" y2="37.0625" gradientUnits="userSpaceOnUse">
<stop stop-opacity="0"/>
<stop offset="0.809237" stop-opacity="0.63"/>
</linearGradient>
<linearGradient id="paint1_linear_2272_935" x1="36" y1="30.3125" x2="36" y2="31.4375" gradientUnits="userSpaceOnUse">
<stop stop-opacity="0"/>
<stop offset="1"/>
</linearGradient>
</defs>
</svg>
