<svg fill="none" viewBox="0 0 32 32" xmlns="http://www.w3.org/2000/svg">
  <path fill="#557FF3" d="M15.334 28.994c.709 1.227.072 3.058-1.334 2.882C6.107 30.892 0 24.16 0 16 0 7.163 7.163 0 16 0c8.16 0 14.892 6.107 15.876 14 .176 1.406-1.655 2.043-2.882 1.334A9.954 9.954 0 0 0 24 14c-5.523 0-10 4.477-10 10 0 1.819.486 3.524 1.334 4.994Z"/>
  <path fill="#ADC2FC" fill-rule="evenodd" d="M5.5 6c-.694 0-1.38.029-2.06.085-.276.35-.539.713-.786 1.086A23.653 23.653 0 0 1 5.5 7h.018c.055.386.236.73.5.992a24.329 24.329 0 0 0-1.224 4.704A24.639 24.639 0 0 0 .138 17.87l-.034-.034c.062.545.151 1.081.267 1.608a24.55 24.55 0 0 0 4.948 3.363 24.358 24.358 0 0 0 2.66 6.287c-.198.132-.4.261-.602.387.314.201.636.392.965.572l.17-.112c.068.105.138.209.208.312.587.3 1.194.565 1.82.792a23.532 23.532 0 0 1-1.206-1.673 24.634 24.634 0 0 0 3.534-3.109 1.74 1.74 0 0 0 1.425.152 10.023 10.023 0 0 1-.246-3.389 1.75 1.75 0 0 0-1.92 1.069 23.327 23.327 0 0 1-5.952-1.978 23.706 23.706 0 0 1-.449-8.893 23.427 23.427 0 0 1 8.756-4.445c.914.378 1.8.813 2.651 1.3a1.75 1.75 0 0 0 1.183 2.369 23.368 23.368 0 0 1-.857 3.989 10.07 10.07 0 0 1 1.306-.958c.251-1.002.44-2.03.564-3.076a1.75 1.75 0 0 0 .653-.41c.842.66 1.637 1.375 2.381 2.141.41-.067.829-.11 1.254-.126a24.648 24.648 0 0 0-3.153-2.907 1.756 1.756 0 0 0-.967-1.933 24.778 24.778 0 0 0-.041-1.144 23.402 23.402 0 0 1 11.567 2.46 15.899 15.899 0 0 0-.584-1.383 24.415 24.415 0 0 0-11.063-2.075A24.347 24.347 0 0 0 17.624.081a15.95 15.95 0 0 0-1.12-.073 23.348 23.348 0 0 1 1.873 7.083 24.436 24.436 0 0 0-3.825.636 24.333 24.333 0 0 0-5.629-1.49 1.753 1.753 0 0 0-.618-.883A23.565 23.565 0 0 1 11.713.581a15.88 15.88 0 0 0-1.873.648 24.534 24.534 0 0 0-2.48 3.774A24.783 24.783 0 0 0 5.499 6Zm3.427 1.248a1.75 1.75 0 0 1-2.019 1.219 23.322 23.322 0 0 0-.932 3.3 24.424 24.424 0 0 1 6.943-3.572 23.35 23.35 0 0 0-3.992-.947ZM.881 18.558a23.621 23.621 0 0 1 3.726-4.37 24.803 24.803 0 0 0 .404 7.317 23.571 23.571 0 0 1-4.13-2.946Zm11.152 6.536a24.319 24.319 0 0 1-5.51-1.71 23.373 23.373 0 0 0 2.28 5.137 23.631 23.631 0 0 0 3.38-2.99 1.737 1.737 0 0 1-.15-.437ZM16.108 8.41c.57.273 1.126.569 1.67.884a1.74 1.74 0 0 1 .717-.276 23.89 23.89 0 0 0-.037-.93c-.796.068-1.58.176-2.35.322Z" clip-rule="evenodd"/>
  <path fill="#7295F6" fill-opacity=".6" d="M14.016 31.878c1.395.16 2.024-1.662 1.318-2.884a9.941 9.941 0 0 1-1.038-2.57 19.937 19.937 0 0 1-8.914 1.545 16.01 16.01 0 0 0 5.255 3.11c1.073.382 2.198.652 3.363.797l.016.002ZM31.88 14.03a15.98 15.98 0 0 0-5.888-10.527c.332 1.445.508 2.95.508 4.497 0 2.134-.335 4.19-.954 6.119l.122.02c1.194.2 2.316.612 3.326 1.195 1.218.704 3.032.081 2.886-1.304Z" style="mix-blend-mode:multiply"/>
  <path fill="#21C000" d="M24 32a8 8 0 1 0 0-16 8 8 0 0 0 0 16Z"/>
  <path fill="#fff" fill-rule="evenodd" d="M27 24a1 1 0 0 1 1 1v3a1 1 0 0 1-1 1h-6a1 1 0 0 1-1-1v-3a1 1 0 0 1 1-1v-2.5a3 3 0 1 1 6 0V24Zm-4.5 0h3v-2.5a1.5 1.5 0 0 0-3 0V24Z" clip-rule="evenodd"/>
</svg>