<svg fill="none" viewBox="0 0 16 16" xmlns="http://www.w3.org/2000/svg">
  <g clip-path="url(#VPN-Color-16_svg__a)">
    <path fill="#8FABF9" d="M8.265 15.495a7.5 7.5 0 1 1 7.221-7.955 3.545 3.545 0 0 0-2.736-1.29c-1.87 0-3.5 1.477-3.5 3.435v.833a2 2 0 0 0-1 1.732v3c0 .083.005.165.015.245Z"/>
    <path fill="#ADC2FC" d="M7.053 15.44C5.65 14.5 4.625 11.526 4.625 8c0-3.525 1.025-6.5 2.428-7.44a7.501 7.501 0 0 0 0 14.88Z"/>
    <path fill="#7295F6" d="M11.367 6.53a3.546 3.546 0 0 1 4.176 1.082A7.502 7.502 0 0 0 9 .56c1.203.806 2.128 3.109 2.367 5.972Z"/>
    <path fill="#1E42A4" fill-rule="evenodd" d="M8 0a8 8 0 1 0 .392 15.99 1.995 1.995 0 0 1-.142-.74v-.281A1.09 1.09 0 0 1 8 15c-.613 0-1.334-.576-1.93-1.902-.576-1.279-.945-3.08-.945-5.098h4.572a3.44 3.44 0 0 1 .871-1H5.156c.1-1.61.435-3.035.913-4.098C6.666 1.576 7.387 1 8 1s1.334.576 1.93 1.902c.46 1.022.789 2.378.902 3.911.296-.19.622-.337.966-.433-.142-1.486-.478-2.827-.956-3.888a6.624 6.624 0 0 0-.645-1.14 7.009 7.009 0 0 1 4.732 5.646c.462.359.832.832 1.062 1.382A8 8 0 0 0 8 0M1.07 7a7.008 7.008 0 0 1 4.733-5.648 6.63 6.63 0 0 0-.645 1.14C4.614 3.698 4.255 5.268 4.154 7H1.07m4.733 7.648A7.003 7.003 0 0 1 1 8h3.125c0 2.125.387 4.073 1.033 5.508.185.413.4.8.645 1.14Z" clip-rule="evenodd"/>
    <path fill="#888" fill-rule="evenodd" d="M12.75 8.5c-.708 0-1.25.548-1.25 1.185v2.065h-1V9.685c0-1.224 1.025-2.185 2.25-2.185S15 8.46 15 9.685v2.065h-1V9.685c0-.637-.542-1.185-1.25-1.185" clip-rule="evenodd"/>
    <path fill="#FC3" d="M10 12.25a.25.25 0 0 1 .25-.25h5a.25.25 0 0 1 .25.25v3a.25.25 0 0 1-.25.25h-5a.25.25 0 0 1-.25-.25z"/>
    <path fill="#C18010" fill-rule="evenodd" d="M9.5 12.25a.75.75 0 0 1 .75-.75h5a.75.75 0 0 1 .75.75v3a.75.75 0 0 1-.75.75h-5a.75.75 0 0 1-.75-.75zm1 .25V15H15v-2.5z" clip-rule="evenodd"/>
  </g>
  <defs>
    <clipPath id="VPN-Color-16_svg__a">
      <path fill="#fff" d="M0 0h16v16H0z"/>
    </clipPath>
  </defs>
</svg>