<svg fill="none" viewBox="0 0 16 16" xmlns="http://www.w3.org/2000/svg">
  <g clip-path="url(#Accessibility-Color-16_svg__a)">
    <path fill="#7295F6" d="M0 8a8 8 0 1 1 16 0A8 8 0 0 1 0 8Z"/>
    <path fill="url(#Accessibility-Color-16_svg__b)" fill-rule="evenodd" d="M1 8a7 7 0 1 0 14 0A7 7 0 0 0 1 8Zm7-8a8 8 0 1 0 0 16A8 8 0 0 0 8 0Z" clip-rule="evenodd"/>
    <path fill="#fff" d="M11.475 5.875a.625.625 0 0 1 .176 1.231l-.063.013-2.373.339A.25.25 0 0 0 9 7.705v.896a.25.25 0 0 0 .024.107l1.541 3.276.025.059a.625.625 0 0 1-1.125.53l-.03-.057-1.209-2.568a.25.25 0 0 0-.452 0l-1.209 2.568a.625.625 0 1 1-1.13-.532l1.541-3.276A.25.25 0 0 0 7 8.6v-.896a.25.25 0 0 0-.215-.247l-2.373-.34-.063-.012a.625.625 0 0 1 .176-1.23l.063.005 3.377.483a.25.25 0 0 0 .07 0l3.377-.483.063-.006ZM8 3a1 1 0 1 1 0 2 1 1 0 0 1 0-2Z"/>
    <path fill="url(#Accessibility-Color-16_svg__c)" d="M9 4a1 1 0 0 0-.898-.995L8 3a1 1 0 0 0-1 1l.005.102a1 1 0 0 0 .893.893L8 5a1 1 0 0 0 .995-.898L9 4ZM7 8.602l-.006.054a.252.252 0 0 1-.018.052l-1.541 3.276a.625.625 0 0 0 1.1.589l.03-.057 1.209-2.568a.25.25 0 0 1 .452 0l1.209 2.568.03.057a.625.625 0 0 0 .745.265l.056-.023a.625.625 0 0 0 .34-.715l-.016-.057-.025-.06-1.541-3.275a.252.252 0 0 1-.018-.052L9 8.602v-.897a.25.25 0 0 1 .215-.247l2.373-.34.063-.012a.625.625 0 0 0-.176-1.23l-.063.005-3.377.483L8 6.366l-.035-.002-3.377-.483-.063-.006a.625.625 0 0 0-.176 1.231l.063.013 2.373.339A.25.25 0 0 1 7 7.705v.897ZM10 4c0 .416-.127.802-.345 1.122l1.615-.23.025-.004.025-.002.063-.006.026-.003h.025a1.625 1.625 0 0 1 1.645 1.24l.03.153.014.156a1.626 1.626 0 0 1-1.23 1.651l-.026.006-.025.005-.063.013-.025.004-.024.003-1.73.247v.079l1.47 3.124.01.022.034.081.01.024.01.025a1.626 1.626 0 0 1-.704 1.937l-.138.073a1.625 1.625 0 0 1-2.084-.632l-.013-.022-.012-.022-.03-.057-.013-.022-.01-.023L8 11.816l-.53 1.126a1.625 1.625 0 0 1-2.085.812l-.077-.034a1.625 1.625 0 0 1-.778-2.162L6 8.434v-.079l-1.73-.247-.024-.003-.025-.004-.063-.013-.025-.005-.026-.006A1.625 1.625 0 0 1 2.892 6.27l.029-.153a1.625 1.625 0 0 1 1.645-1.24h.025l.026.003.063.006.025.002.025.004 1.614.23A2 2 0 0 1 8 2l.103.002A2 2 0 0 1 10 4Z"/>
  </g>
  <defs>
    <linearGradient id="Accessibility-Color-16_svg__b" x1="8" x2="8" y1="0" y2="16" gradientUnits="userSpaceOnUse">
      <stop stop-color="#557FF3"/>
      <stop offset="1" stop-color="#2B55CA"/>
    </linearGradient>
    <linearGradient id="Accessibility-Color-16_svg__c" x1="8" x2="8" y1="2" y2="13.875" gradientUnits="userSpaceOnUse">
      <stop stop-color="#557FF3"/>
      <stop offset="1" stop-color="#2B55CA"/>
    </linearGradient>
    <clipPath id="Accessibility-Color-16_svg__a">
      <path fill="#fff" d="M0 0h16v16H0z"/>
    </clipPath>
  </defs>
</svg>
