<svg fill="none" viewBox="0 0 16 16" xmlns="http://www.w3.org/2000/svg">
  <path fill="#8FABF9" d="M0 5a4 4 0 0 1 4-4h8a4 4 0 0 1 4 4v6a4 4 0 0 1-4 4H4a4 4 0 0 1-4-4V5Z"/>
  <path fill="url(#Add-To-Dock-Color-16_svg__a)" fill-rule="evenodd" d="M12 2H4a3 3 0 0 0-3 3v6a3 3 0 0 0 3 3h8a3 3 0 0 0 3-3V5a3 3 0 0 0-3-3ZM4 1a4 4 0 0 0-4 4v6a4 4 0 0 0 4 4h8a4 4 0 0 0 4-4V5a4 4 0 0 0-4-4H4Z" clip-rule="evenodd"/>
  <path fill="#E8EEFF" d="M5.268 9H1v2a3 3 0 0 0 3 3h8a3 3 0 0 0 3-3V9h-4.268A2 2 0 0 0 9 8H7a2 2 0 0 0-1.732 1Z"/>
  <path fill="#E2A412" d="M2 11a1 1 0 0 1 1-1h1a1 1 0 0 1 1 1H2Z"/>
  <path fill="#F9BE1A" d="M2 11h3v1.2a.8.8 0 0 1-.8.8H4a2 2 0 0 1-2-2"/>
  <path fill="#399F29" d="M11 10.8a.8.8 0 0 1 .8-.8h1.4a.8.8 0 0 1 .8.8v.2a2 2 0 0 1-2 2h-.2a.8.8 0 0 1-.8-.8v-1.4Z"/>
  <path fill="#DE5833" d="M6 10a1 1 0 0 1 1-1h2a1 1 0 0 1 1 1v2a1 1 0 0 1-1 1H7a1 1 0 0 1-1-1v-2Z"/>
  <path fill="#EB876C" d="M7 10.4c0-.22.18-.4.4-.4h1.2c.22 0 .4.18.4.4v1.2a.4.4 0 0 1-.4.4H7.4a.4.4 0 0 1-.4-.4v-1.2Z"/>
  <path fill="#fff" fill-opacity=".84" d="M11.854 5.146a.5.5 0 0 1 0 .708l-1 1a.5.5 0 1 1-.708-.708l1-1a.5.5 0 0 1 .707 0ZM8 3.5a.5.5 0 0 1 .5.5v1.5a.5.5 0 1 1-1 0V4a.5.5 0 0 1 .5-.5ZM4.854 5.146a.5.5 0 1 0-.708.708l1 1a.5.5 0 1 0 .708-.708l-1-1Z"/>
  <defs>
    <linearGradient id="Add-To-Dock-Color-16_svg__a" x1="8" x2="8" y1="1" y2="15" gradientUnits="userSpaceOnUse">
      <stop stop-color="#557FF3"/>
      <stop offset="1" stop-color="#2B55CA"/>
    </linearGradient>
  </defs>
</svg>
