<svg fill="none" viewBox="0 0 16 16" xmlns="http://www.w3.org/2000/svg">
  <path fill="#F5F5F5" d="M5 0a4 4 0 0 0-4 4v8a4 4 0 0 0 4 4h2.5l.5-1a5 5 0 0 1 6-7.584l1-.916V4a4 4 0 0 0-4-4H5Z"/>
  <path fill="url(#Ads-Blocked-Color-16_svg__a)" d="M5 1h6a3 3 0 0 1 3 3v3.416"/>
  <path fill="#DDD" d="M7.416 14H5a2 2 0 0 1-2-2v-1.5a.5.5 0 0 1 .5-.5h3.916A4.983 4.983 0 0 0 7 12c0 .711.148 1.387.416 2Z"/>
  <path fill="#AAA" d="M3.5 6a.5.5 0 0 0 0 1h9a.5.5 0 0 0 0-1h-9ZM3 8.5a.5.5 0 0 1 .5-.5h3a.5.5 0 0 1 0 1h-3a.5.5 0 0 1-.5-.5Z"/>
  <path fill="#DE5833" d="M3 4a2 2 0 0 1 2-2h6a2 2 0 0 1 2 2v.5a.5.5 0 0 1-.5.5h-9a.5.5 0 0 1-.5-.5V4Zm13 8a4 4 0 1 1-8 0 4 4 0 0 1 8 0Z"/>
  <path fill="url(#Ads-Blocked-Color-16_svg__b)" d="M15 12a3 3 0 1 0-3 3v1a4 4 0 1 1 0-8 4 4 0 0 1 0 8v-1a3 3 0 0 0 3-3Z"/>
  <path fill="#fff" d="M13.5 11.5a.5.5 0 0 1 0 1h-3a.5.5 0 0 1 0-1h3Z"/>
  <defs>
    <linearGradient id="Ads-Blocked-Color-16_svg__a" x1="8" x2="8" y1="16" y2="0" gradientUnits="userSpaceOnUse">
      <stop stop-color="#888"/>
      <stop offset="1" stop-color="#AAA"/>
    </linearGradient>
    <linearGradient id="Ads-Blocked-Color-16_svg__b" x1="12" x2="12" y1="8" y2="16" gradientUnits="userSpaceOnUse">
      <stop stop-color="#DE5833"/>
      <stop offset="1" stop-color="#9A3216"/>
    </linearGradient>
  </defs>
</svg>
