<svg fill="none" viewBox="0 0 16 16" xmlns="http://www.w3.org/2000/svg">
  <g fill-rule="evenodd" clip-path="url(#Ai-Chat-Color-16_svg__a)" clip-rule="evenodd">
    <path fill="#C7B9EE" d="M2.358 12.176c.32.283.38.774.1 1.096l-1.294 1.491c-.441.51-.014 1.284.65 1.17 2.656-.456 7.31-1.338 9.2-2.206C13.94 12.667 16 10.11 16 7.125 16 3.19 12.418 0 8 0S0 3.19 0 7.125c0 1.974.902 3.76 2.358 5.051Z"/>
    <path fill="url(#Ai-Chat-Color-16_svg__b)" d="m10.598 12.818.037-.017.039-.014C13.272 11.844 15 9.619 15 7.125 15 3.848 11.978 1 8 1S1 3.848 1 7.125c0 1.657.754 3.18 2.021 4.303.68.602.873 1.714.192 2.499l-.762.88c1.202-.215 2.65-.49 4.033-.799 1.738-.387 3.277-.806 4.114-1.19Zm-8.784 3.115c2.656-.456 7.31-1.338 9.2-2.206C13.94 12.667 16 10.11 16 7.125 16 3.19 12.418 0 8 0S0 3.19 0 7.125c0 1.974.902 3.76 2.358 5.051.32.283.38.774.1 1.096l-1.294 1.491c-.441.51-.014 1.284.65 1.17ZM8.368 2.787c-.096-.383-.64-.383-.736 0L7.194 4.54A2.273 2.273 0 0 1 5.54 6.194l-1.753.438c-.383.096-.383.64 0 .736l1.753.438c.815.203 1.45.84 1.654 1.654l.438 1.753c.096.383.64.383.736 0l.438-1.753c.203-.815.84-1.45 1.654-1.654l1.753-.438c.383-.096.383-.64 0-.736l-1.753-.438A2.273 2.273 0 0 1 8.806 4.54l-.438-1.753Z"/>
  </g>
  <defs>
    <linearGradient id="Ai-Chat-Color-16_svg__b" x1="0" x2="16" y1="0" y2="16" gradientUnits="userSpaceOnUse">
      <stop stop-color="#876ECB"/>
      <stop offset="1" stop-color="#5132A9"/>
    </linearGradient>
    <clipPath id="Ai-Chat-Color-16_svg__a">
      <path fill="#fff" d="M0 0h16v16H0z"/>
    </clipPath>
  </defs>
</svg>
