<svg fill="none" viewBox="0 0 16 16" xmlns="http://www.w3.org/2000/svg">
  <g clip-path="url(#Ai-Chat-Color-Gradient-16_svg__a)">
    <path fill="#fff" d="M8 1c3.978 0 7 2.848 7 6.125 0 2.494-1.728 4.72-4.326 5.662l-.039.014-.037.017c-.837.384-2.375.803-4.114 1.19a98.52 98.52 0 0 1-4.033.798l.762-.88c.681-.784.487-1.896-.192-2.498C1.754 10.305 1 8.782 1 7.125 1 3.848 4.022 1 8 1Z"/>
    <path fill="url(#Ai-Chat-Color-Gradient-16_svg__b)" fill-opacity=".77" d="M8 1c3.978 0 7 2.848 7 6.125 0 2.494-1.728 4.72-4.326 5.662l-.039.014-.037.017c-.837.384-2.375.803-4.114 1.19a98.52 98.52 0 0 1-4.033.798l.762-.88c.681-.784.487-1.896-.192-2.498C1.754 10.305 1 8.782 1 7.125 1 3.848 4.022 1 8 1Z"/>
    <path fill="url(#Ai-Chat-Color-Gradient-16_svg__c)" d="M15 7.125C15 3.848 11.978 1 8 1S1 3.848 1 7.125c0 1.657.754 3.18 2.021 4.303l.063.058c.607.593.778 1.612.19 2.366l-.06.075-.762.878a98.292 98.292 0 0 0 4.032-.797c1.739-.387 3.277-.806 4.114-1.19l.037-.017.039-.014C13.272 11.844 15 9.619 15 7.125Zm1 0c0 2.985-2.061 5.541-4.985 6.601-1.892.868-6.545 1.75-9.2 2.206l-.062.009c-.629.058-1.017-.685-.589-1.178l1.294-1.492c.262-.302.225-.752-.043-1.04l-.057-.055C.902 10.886 0 9.1 0 7.125 0 3.19 3.582 0 8 0s8 3.19 8 7.125Z"/>
    <path fill="#fff" d="M7.632 2.787c.096-.383.64-.383.736 0l.438 1.753c.203.815.84 1.45 1.654 1.654l1.753.438c.383.096.383.64 0 .736l-1.753.438c-.815.203-1.45.84-1.654 1.654l-.438 1.753c-.096.383-.64.383-.736 0L7.194 9.46A2.273 2.273 0 0 0 5.54 7.806l-1.753-.438c-.383-.096-.383-.64 0-.736l1.753-.438A2.273 2.273 0 0 0 7.194 4.54l.438-1.753Z"/>
  </g>
  <defs>
    <linearGradient id="Ai-Chat-Color-Gradient-16_svg__b" x1="2.05" x2="7.897" y1="1.693" y2="14.852" gradientUnits="userSpaceOnUse">
      <stop stop-color="#A276FF"/>
      <stop offset="1" stop-color="#3969EF"/>
    </linearGradient>
    <linearGradient id="Ai-Chat-Color-Gradient-16_svg__c" x1="8" x2="8" y1="0" y2="15.944" gradientUnits="userSpaceOnUse">
      <stop stop-color="#A389FF"/>
      <stop offset="1" stop-color="#577BF7"/>
    </linearGradient>
    <clipPath id="Ai-Chat-Color-Gradient-16_svg__a">
      <path fill="#fff" d="M0 0h16v16H0z"/>
    </clipPath>
  </defs>
</svg>
