<svg fill="none" viewBox="0 0 16 16" xmlns="http://www.w3.org/2000/svg">
  <g clip-path="url(#Autofill-Color-16_svg__a)">
    <path fill="#E6EDFF" d="M.5 8.5a3 3 0 0 1 3-3h9a3 3 0 0 1 3 3v2a3 3 0 0 1-3 3h-9a3 3 0 0 1-3-3v-2Z"/>
    <path fill="#2B55CA" fill-rule="evenodd" d="M0 8.5A3.5 3.5 0 0 1 3.5 5h9A3.5 3.5 0 0 1 16 8.5v2a3.5 3.5 0 0 1-3.5 3.5h-9A3.5 3.5 0 0 1 0 10.5v-2ZM3.5 6A2.5 2.5 0 0 0 1 8.5v2A2.5 2.5 0 0 0 3.5 13h9a2.5 2.5 0 0 0 2.5-2.5v-2A2.5 2.5 0 0 0 12.5 6h-9Z" clip-rule="evenodd"/>
    <path fill="#8FABF9" d="M3 8.5a.5.5 0 0 1 .5-.5h6a.5.5 0 0 1 .5.5v2a.5.5 0 0 1-.5.5h-6a.5.5 0 0 1-.5-.5v-2Z"/>
    <path fill="#fff" fill-rule="evenodd" d="M11.353 1.437C11.74 1.03 12.23 1 12.5 1s.761.03 1.147.437c.289.305.39.714.443.924l.005.021c.062.249.138.785.205 1.318.533.067 1.07.143 1.317.205l.022.005c.21.052.619.154.924.443.407.386.437.877.437 1.147 0 .449-.156.884-.541 1.197-.26.21-.583.316-.734.366l-.034.01a3.21 3.21 0 0 1-.446.101c-.153.026-.334.053-.525.078a37.15 37.15 0 0 1-.421.054c-.067.532-.142 1.064-.204 1.312l-.005.02c-.052.211-.154.62-.443.925-.386.407-.877.437-1.147.437-.449 0-.884-.156-1.197-.541-.21-.26-.316-.583-.366-.734l-.01-.034a3.228 3.228 0 0 1-.101-.446 16.146 16.146 0 0 1-.079-.525 40.25 40.25 0 0 1-.053-.421c-.444-.056-.898-.101-1.333-.21-.21-.051-.619-.153-.924-.442C8.03 6.26 8 5.77 8 5.5s.03-.761.437-1.147c.316-.299.743-.397.945-.448.249-.062.785-.138 1.318-.205.067-.533.143-1.07.205-1.318l.005-.02c.052-.211.154-.62.443-.925Z" clip-rule="evenodd"/>
    <path fill="#6B4EBA" fill-rule="evenodd" d="M13.125 2.625C13 2.125 12.915 2 12.5 2c-.414 0-.5.125-.625.625-.074.296-.191 1.247-.275 1.975-.728.084-1.68.201-1.975.275C9.125 5 9 5.085 9 5.5c0 .414.125.5.625.625.295.074 1.243.191 1.97.275.085.756.205 1.75.28 1.975.125.375.21.625.625.625.414 0 .5-.125.625-.625.074-.295.191-1.243.275-1.97.756-.085 1.75-.205 1.975-.28C15.75 6 16 5.915 16 5.5c0-.414-.125-.5-.625-.625-.296-.074-1.247-.191-1.975-.275-.084-.728-.201-1.68-.275-1.975Z" clip-rule="evenodd"/>
    <path fill="#FC3" d="M10 2a1 1 0 1 1-2 0 1 1 0 0 1 2 0Z"/>
    <path fill="#FFD7CC" d="M7 3.25a.75.75 0 1 1-1.5 0 .75.75 0 0 1 1.5 0Z"/>
  </g>
  <defs>
    <clipPath id="Autofill-Color-16_svg__a">
      <path fill="#fff" d="M0 0h16v16H0z"/>
    </clipPath>
  </defs>
</svg>
