<svg fill="none" viewBox="0 0 16 16" xmlns="http://www.w3.org/2000/svg">
  <path fill="url(#Bitwarden-Locked-Color-16_svg__a)" d="M1.422 10.519a5.103 5.103 0 0 1-.389-1.923V1.578c.002-.42.171-.817.464-1.109.308-.317.73-.478 1.147-.469h10.801a1.58 1.58 0 0 1 1.124.453 1.5 1.5 0 0 1 .462 1.164L15 5l.016 2.01c.004.499-.753.766-1.179.506a3.526 3.526 0 0 0-5.363 3.01v.292A2.238 2.238 0 0 0 7 12.92v1.842c0 .346-.406.716-.709.547l-.224-.127c-.847-.487-1.713-1.04-2.5-1.758-.88-.75-1.682-1.72-2.145-2.906Z"/>
  <path fill="#fff" d="M7 14.562a24.91 24.91 0 0 1-.435-.246c-.826-.475-1.624-.99-2.336-1.64-.798-.68-1.49-1.527-1.88-2.53a4.104 4.104 0 0 1-.316-1.556V1.582a.57.57 0 0 1 .176-.41A.555.555 0 0 1 2.63 1h10.821a.581.581 0 0 1 .422.171c.11.103.173.256.158.41v6.062a3.513 3.513 0 0 0-1-.49V2H8v9.057c-.603.4-1 1.086-1 1.864v1.64Z"/>
  <rect width="4.053" height="6.079" x="9.974" y="8.5" stroke="#888" rx="2.026"/>
  <path fill="#DDD" stroke="url(#Bitwarden-Locked-Color-16_svg__b)" stroke-linecap="round" d="M8.5 12.921c0-.407.33-.737.737-.737h5.526c.407 0 .737.33.737.737v1.842c0 .407-.33.737-.737.737H9.237a.737.737 0 0 1-.737-.737v-1.842Z"/>
  <defs>
    <linearGradient id="Bitwarden-Locked-Color-16_svg__a" x1="8.033" x2="8.033" y1="0" y2="15.813" gradientUnits="userSpaceOnUse">
      <stop stop-color="#557FF3"/>
      <stop offset="1" stop-color="#2B55CA"/>
    </linearGradient>
    <linearGradient id="Bitwarden-Locked-Color-16_svg__b" x1="12" x2="12" y1="15.5" y2="12.184" gradientUnits="userSpaceOnUse">
      <stop stop-color="#888"/>
      <stop offset="1" stop-color="#AAA"/>
    </linearGradient>
  </defs>
</svg>
