<svg fill="none" viewBox="0 0 16 16" xmlns="http://www.w3.org/2000/svg">
  <path fill="url(#Bitwarden-Color-16_svg__a)" fill-rule="evenodd" d="M1.033 8.596c.004.66.136 1.312.389 1.923.463 1.186 1.266 2.155 2.145 2.906.787.718 1.653 1.271 2.5 1.758a10.885 10.885 0 0 0 1.015.54l.017.008c.043.023.108.057.175.088.151.07.417.181.75.181.303 0 .558-.088.727-.16.142-.06.28-.136.362-.18l.034-.019h.002a8.76 8.76 0 0 1 .12-.064c.162-.083.43-.223.728-.394.859-.493 1.713-1.054 2.5-1.758.879-.767 1.663-1.717 2.143-2.9a5.103 5.103 0 0 0 .391-1.93V1.618a1.5 1.5 0 0 0-.462-1.164A1.582 1.582 0 0 0 13.445 0h-10.8a1.557 1.557 0 0 0-1.148.469 1.575 1.575 0 0 0-.464 1.109v7.018ZM2.631 1Z" clip-rule="evenodd"/>
  <path fill="#fff" fill-rule="evenodd" d="m8.627 14.786.046-.025.166-.087c.162-.084.384-.2.66-.358.827-.475 1.618-.998 2.336-1.64.797-.695 1.472-1.526 1.88-2.53a4.104 4.104 0 0 0 .316-1.556V1.582a.498.498 0 0 0-.158-.41A.581.581 0 0 0 13.45 1H2.631a.555.555 0 0 0-.422.171.575.575 0 0 0-.176.41V8.59c.003.533.11 1.061.316 1.556.39 1.003 1.082 1.85 1.88 2.53.712.65 1.51 1.165 2.336 1.64.387.223.668.376.826.445.057.025.114.054.172.084.147.077.297.155.46.155.21 0 .419-.114.604-.214ZM8 2h5.031v6.587c-.003.402-.084.8-.24 1.174l-.001.004-.002.005c-.334.823-.898 1.531-1.61 2.151l-.005.005-.005.004c-.647.58-1.374 1.063-2.168 1.52-.256.147-.439.241-.595.322a13.445 13.445 0 0 0-.264.14l-.083.044-.019.01-.034-.018c-.002 0-.003-.002-.005-.003V2Z" clip-rule="evenodd"/>
  <defs>
    <linearGradient id="Bitwarden-Color-16_svg__a" x1="8.033" x2="8.033" y1="0" y2="16" gradientUnits="userSpaceOnUse">
      <stop stop-color="#557FF3"/>
      <stop offset="1" stop-color="#2B55CA"/>
    </linearGradient>
  </defs>
</svg>
