<svg fill="none" viewBox="0 0 16 16" xmlns="http://www.w3.org/2000/svg">
  <path fill="#FAFAFA" d="M12 1.5A3.5 3.5 0 0 1 15.5 5v2.835c0 .221-.273.34-.449.204a5 5 0 0 0-7.582 6.076c.082.175-.04.385-.232.385H4A3.5 3.5 0 0 1 .5 11V5A3.5 3.5 0 0 1 4 1.5h8Z"/>
  <path fill="#DDD" d="M12.5 1.5a3 3 0 0 1 3 3v1H.5v-1a3 3 0 0 1 3-3h9Z"/>
  <path fill="url(#Browser-Color-16_svg__a)" d="M12 1a4 4 0 0 1 4 4v2.801c0 .384-.53.579-.827.335A5.079 5.079 0 0 0 15 8V6H1v5a3 3 0 0 0 3 3h3.417c.049.11.1.218.156.324.153.292-.044.676-.374.676H4a4 4 0 0 1-4-4V5a4 4 0 0 1 4-4h8ZM4 2a3 3 0 0 0-3 3h14a3 3 0 0 0-3-3H4Z"/>
  <path fill="#8FABF9" d="M15.5 12a3.5 3.5 0 1 1-7 0 3.5 3.5 0 0 1 7 0Z"/>
  <path fill="url(#Browser-Color-16_svg__b)" d="M12 8a4 4 0 1 1 0 8 4 4 0 0 1 0-8Zm-.802 4.5c.05.78.213 1.445.426 1.915.17.37.31.509.375.56.066-.051.207-.188.376-.56.213-.47.376-1.135.426-1.915h-1.603Zm-2.156 0c.16.955.772 1.757 1.608 2.179-.243-.593-.407-1.346-.454-2.179H9.042Zm4.761 0c-.047.833-.21 1.586-.454 2.179a3.001 3.001 0 0 0 1.608-2.179h-1.154ZM10.65 9.321A3.002 3.002 0 0 0 9.042 11.5h1.154c.047-.833.21-1.586.453-2.179ZM12 9.025c-.065.05-.206.189-.375.56-.213.47-.376 1.135-.426 1.915h1.603c-.05-.78-.213-1.445-.426-1.915-.17-.372-.31-.51-.376-.56Zm1.35.296c.244.592.407 1.346.454 2.179h1.154a3.002 3.002 0 0 0-1.607-2.18Z"/>
  <defs>
    <linearGradient id="Browser-Color-16_svg__a" x1="8" x2="8" y1="15" y2="1" gradientUnits="userSpaceOnUse">
      <stop stop-color="#888"/>
      <stop offset="1" stop-color="#AAA"/>
    </linearGradient>
    <linearGradient id="Browser-Color-16_svg__b" x1="12" x2="12" y1="8" y2="16" gradientUnits="userSpaceOnUse">
      <stop stop-color="#557FF3"/>
      <stop offset="1" stop-color="#2B55CA"/>
    </linearGradient>
  </defs>
</svg>
