<svg fill="none" viewBox="0 0 16 16" xmlns="http://www.w3.org/2000/svg">
  <path fill="#63C853" d="M.5 4A2.5 2.5 0 0 1 3 1.5h10A2.5 2.5 0 0 1 15.5 4v8a2.5 2.5 0 0 1-2.5 2.5H3A2.5 2.5 0 0 1 .5 12V4Z"/>
  <path fill="#fff" d="M1 6a1 1 0 0 1 1-1h12a1 1 0 0 1 1 1v6a2.5 2.5 0 0 1-2.5 2.5h-9A2.5 2.5 0 0 1 1 12V6Z"/>
  <path fill="url(#Calendar-Month-Color-16_svg__a)" fill-rule="evenodd" d="M4.5 0a.5.5 0 0 1 .5.5V1h6V.5a.5.5 0 0 1 1 0V1h1a3 3 0 0 1 3 3v8a3 3 0 0 1-3 3H3a3 3 0 0 1-3-3V4a3 3 0 0 1 3-3h1V.5a.5.5 0 0 1 .5-.5ZM11 2v.5a.5.5 0 0 0 1 0V2h1a2 2 0 0 1 2 2v8a2 2 0 0 1-2 2H3a2 2 0 0 1-2-2V4a2 2 0 0 1 2-2h1v.5a.5.5 0 0 0 1 0V2h6ZM2 4.5a.5.5 0 0 1 .5-.5h11a.5.5 0 0 1 0 1h-11a.5.5 0 0 1-.5-.5Zm1 2a.5.5 0 1 0 0 1 .5.5 0 0 0 0-1ZM3 9a.5.5 0 1 0 0 1 .5.5 0 0 0 0-1Zm-.5 3a.5.5 0 1 1 1 0 .5.5 0 0 1-1 0ZM8 6.5a.5.5 0 1 0 0 1 .5.5 0 0 0 0-1Zm-.5 3a.5.5 0 1 1 1 0 .5.5 0 0 1-1 0Zm.5 2a.5.5 0 1 0 0 1 .5.5 0 0 0 0-1ZM5 7a.5.5 0 1 1 1 0 .5.5 0 0 1-1 0Zm.5 2a.5.5 0 1 0 0 1 .5.5 0 0 0 0-1ZM5 12a.5.5 0 1 1 1 0 .5.5 0 0 1-1 0Zm5.5-5.5a.5.5 0 1 0 0 1 .5.5 0 0 0 0-1Zm-.5 3a.5.5 0 1 1 1 0 .5.5 0 0 1-1 0Zm3-3a.5.5 0 1 0 0 1 .5.5 0 0 0 0-1Zm-.5 3a.5.5 0 1 1 1 0 .5.5 0 0 1-1 0Z" clip-rule="evenodd"/>
  <defs>
    <linearGradient id="Calendar-Month-Color-16_svg__a" x1="8" x2="8" y1="0" y2="15" gradientUnits="userSpaceOnUse">
      <stop stop-color="#288419"/>
      <stop offset="1" stop-color="#0F4E05"/>
    </linearGradient>
  </defs>
</svg>
