<svg fill="none" viewBox="0 0 16 16" xmlns="http://www.w3.org/2000/svg">
  <path fill="#4CBA3C" d="M15.5 8a7.5 7.5 0 1 1-15 0 7.5 7.5 0 0 1 15 0Z"/>
  <path fill="#fff" fill-rule="evenodd" d="M11.854 5.146a.5.5 0 0 1 0 .708l-5 5a.5.5 0 0 1-.708 0l-2-2a.5.5 0 1 1 .708-.708L6.5 9.793l4.646-4.647a.5.5 0 0 1 .708 0Z" clip-rule="evenodd"/>
  <path fill="url(#Check-Color-16_svg__a)" fill-rule="evenodd" d="M8 1a7 7 0 1 0 0 14A7 7 0 0 0 8 1ZM0 8a8 8 0 1 1 16 0A8 8 0 0 1 0 8Z" clip-rule="evenodd"/>
  <defs>
    <linearGradient id="Check-Color-16_svg__a" x1="8" x2="8" y1="0" y2="16" gradientUnits="userSpaceOnUse">
      <stop stop-color="#4CBA3C"/>
      <stop offset="1" stop-color="#288419"/>
    </linearGradient>
  </defs>
</svg>
