<svg fill="none" viewBox="0 0 16 16" xmlns="http://www.w3.org/2000/svg">
  <g clip-path="url(#Cookie-Blocked-Color-16_svg__a)">
    <path fill="url(#Cookie-Blocked-Color-16_svg__b)" d="M12.676 7.045A6.598 6.598 0 0 1 8.498.907.363.363 0 0 0 8.15.535L8 .533A7.467 7.467 0 0 0 7 15.4c.603.081 1.148-.203 1-.4a5 5 0 0 1 4.677-7.955Z"/>
    <path fill="url(#Cookie-Blocked-Color-16_svg__c)" d="M8 .033a7.967 7.967 0 0 0-.318 15.927c.446.017.634-.55.36-.904a5.113 5.113 0 0 1-.067-.09 6.967 6.967 0 0 1 .024-13.933 7.093 7.093 0 0 0 3.498 5.992 4.978 4.978 0 0 1 3.559 1.018c.353.273.995.078.892-.356a.888.888 0 0 0-.157-.345.892.892 0 0 0-.698-.34A6.096 6.096 0 0 1 8.998.907c0-.437-.335-.862-.837-.872A8.113 8.113 0 0 0 8 .033Z"/>
    <path fill="#C18010" d="M6.5 3.75a.75.75 0 1 1-1.5 0 .75.75 0 0 1 1.5 0Zm-2 2.5a.75.75 0 1 1-1.5 0 .75.75 0 0 1 1.5 0Zm-.25 4.25a.75.75 0 1 0 0-1.5.75.75 0 0 0 0 1.5Zm2.937 2.86A.75.75 0 1 1 7 12.043c.004.456.069.897.187 1.317ZM7.75 8.5a.75.75 0 1 0 0-1.5.75.75 0 0 0 0 1.5Z"/>
    <path fill="#DE5833" d="M16 12a4 4 0 1 1-8 0 4 4 0 0 1 8 0Z"/>
    <path fill="url(#Cookie-Blocked-Color-16_svg__d)" fill-rule="evenodd" d="M12 15a3 3 0 1 0 0-6 3 3 0 0 0 0 6Zm0 1a4 4 0 1 0 0-8 4 4 0 0 0 0 8Z" clip-rule="evenodd"/>
    <path fill="#fff" fill-rule="evenodd" d="M10 12a.5.5 0 0 1 .5-.5h3a.5.5 0 0 1 0 1h-3a.5.5 0 0 1-.5-.5Z" clip-rule="evenodd"/>
  </g>
  <defs>
    <linearGradient id="Cookie-Blocked-Color-16_svg__b" x1="8" x2="8" y1=".533" y2="15.467" gradientUnits="userSpaceOnUse">
      <stop stop-color="#FFE8A3"/>
      <stop offset="1" stop-color="#FC3"/>
    </linearGradient>
    <linearGradient id="Cookie-Blocked-Color-16_svg__c" x1="7.985" x2="7.985" y1="1.415" y2="15.226" gradientUnits="userSpaceOnUse">
      <stop offset=".008" stop-color="#E2A412"/>
      <stop offset="1" stop-color="#C18010"/>
    </linearGradient>
    <linearGradient id="Cookie-Blocked-Color-16_svg__d" x1="12" x2="12" y1="8" y2="16" gradientUnits="userSpaceOnUse">
      <stop stop-color="#DE5833"/>
      <stop offset="1" stop-color="#9A3216"/>
    </linearGradient>
    <clipPath id="Cookie-Blocked-Color-16_svg__a">
      <path fill="#fff" d="M0 0h16v16H0z"/>
    </clipPath>
  </defs>
</svg>
