<svg fill="none" viewBox="0 0 16 16" xmlns="http://www.w3.org/2000/svg">
  <g fill-rule="evenodd" clip-path="url(#Cookie-Color-16_svg__a)" clip-rule="evenodd">
    <path fill="url(#Cookie-Color-16_svg__b)" d="M15.498 7.848a.365.365 0 0 0-.373-.348A6.625 6.625 0 0 1 8.5.875c0-.199-.15-.37-.348-.373a7.5 7.5 0 1 0 7.347 7.347Z"/>
    <path fill="url(#Cookie-Color-16_svg__c)" d="M0 8A8 8 0 0 1 8.162.002c.502.01.838.435.838.873A6.125 6.125 0 0 0 15.125 7c.438 0 .863.336.873.838A8 8 0 1 1 0 8Zm8-7a7 7 0 1 0 7 7v-.001A7.125 7.125 0 0 1 8.001 1H8Z"/>
    <path fill="#C18010" d="M5.75 4.5a.75.75 0 1 0 0-1.5.75.75 0 0 0 0 1.5Zm-2 2.5a.75.75 0 1 0 0-1.5.75.75 0 0 0 0 1.5ZM5 9.75a.75.75 0 1 1-1.5 0 .75.75 0 0 1 1.5 0Zm1.75 3.75a.75.75 0 1 0 0-1.5.75.75 0 0 0 0 1.5ZM8.5 7.75a.75.75 0 1 1-1.5 0 .75.75 0 0 1 1.5 0Zm2.25 3.75a.75.75 0 1 0 0-1.5.75.75 0 0 0 0 1.5Z"/>
  </g>
  <defs>
    <linearGradient id="Cookie-Color-16_svg__b" x1="8" x2="8" y1=".5" y2="15.5" gradientUnits="userSpaceOnUse">
      <stop stop-color="#FFE8A3"/>
      <stop offset="1" stop-color="#FC3"/>
    </linearGradient>
    <linearGradient id="Cookie-Color-16_svg__c" x1="7.974" x2="7.974" y1="1.387" y2="15.257" gradientUnits="userSpaceOnUse">
      <stop offset=".008" stop-color="#E2A412"/>
      <stop offset="1" stop-color="#C18010"/>
    </linearGradient>
    <clipPath id="Cookie-Color-16_svg__a">
      <path fill="#fff" d="M0 0h16v16H0z"/>
    </clipPath>
  </defs>
</svg>
