<svg fill="none" viewBox="0 0 16 16" xmlns="http://www.w3.org/2000/svg">
  <path fill="#FAFAFA" d="M.5 5A3.5 3.5 0 0 1 4 1.5h8A3.5 3.5 0 0 1 15.5 5v6a3.5 3.5 0 0 1-3.5 3.5H4A3.5 3.5 0 0 1 .5 11V5Z"/>
  <path fill="url(#Credit-Card-16_svg__a)" d="M12 1a4 4 0 0 1 4 4v6a4 4 0 0 1-4 4H4a4 4 0 0 1-4-4V5a4 4 0 0 1 4-4h8ZM4 2a3 3 0 0 0-3 3v6a3 3 0 0 0 3 3h8a3 3 0 0 0 3-3V5a3 3 0 0 0-3-3H4Zm1.6 9.01a.5.5 0 0 1 0 .98l-.1.01H3a.5.5 0 0 1 0-1h2.5l.1.01Zm2.5 0a.5.5 0 0 1 0 .98L8 12h-.5a.5.5 0 0 1 0-1H8l.1.01ZM13 11a.5.5 0 0 1 0 1h-3a.5.5 0 0 1 0-1h3Z"/>
  <path fill="#FC3" d="M2.5 7.5A.5.5 0 0 1 3 7h2.5a.5.5 0 0 1 .5.5V9a.5.5 0 0 1-.5.5H3a.5.5 0 0 1-.5-.5V7.5Z"/>
  <defs>
    <linearGradient id="Credit-Card-16_svg__a" x1="8" x2="8" y1="15" y2="1" gradientUnits="userSpaceOnUse">
      <stop stop-color="#888"/>
      <stop offset="1" stop-color="#AAA"/>
    </linearGradient>
  </defs>
</svg>
