<svg fill="none" viewBox="0 0 16 16" xmlns="http://www.w3.org/2000/svg">
  <path fill="#CCC" d="M13.5 13.495c0 .83-2.574 2.005-5.75 2.005S2 14.325 2 13.495v-2.063C2.25 10.955 3.8 10 8 10s5.417.955 5.5 1.432v2.063Z"/>
  <path fill="#444" fill-rule="evenodd" d="M2 10.932a.5.5 0 0 1 .5.5v2.055c.003-.001.029.097.26.277.238.186.61.39 1.103.578.98.374 2.356.658 3.887.658 1.53 0 2.907-.284 3.887-.658.493-.188.865-.392 1.104-.578.23-.18.256-.278.259-.278v.001-2.055a.5.5 0 0 1 1 0v2.063c0 .454-.33.813-.644 1.058-.344.267-.813.513-1.362.723-1.1.42-2.599.724-4.244.724-1.645 0-3.143-.304-4.244-.724-.549-.21-1.019-.456-1.362-.723-.313-.245-.644-.604-.644-1.058v-2.063a.5.5 0 0 1 .5-.5Z" clip-rule="evenodd"/>
  <path fill="#fff" fill-rule="evenodd" d="M4.587 13.204a.5.5 0 0 1 .595-.382c.324.07.667.13 1.026.175a.5.5 0 1 1-.125.992 12.566 12.566 0 0 1-1.114-.19.5.5 0 0 1-.382-.595Z" clip-rule="evenodd"/>
  <path fill="#DDD" d="M13.5 9.495c0 .83-2.574 2.005-5.75 2.005S2 10.325 2 9.495V7.432C2.25 6.955 3.8 6 8 6s5.417.955 5.5 1.432v2.063Z"/>
  <path fill="#666" fill-rule="evenodd" d="M2 7.119a.5.5 0 0 1 .5.5v2.125c.002.002.027.09.244.246.234.169.603.349 1.097.512.983.326 2.366.557 3.909.557 1.543 0 2.926-.231 3.909-.557.494-.163.863-.343 1.097-.512.217-.156.242-.244.244-.246V7.619a.5.5 0 0 1 1 0v2.134c0 .467-.338.817-.66 1.049-.347.25-.82.469-1.367.65-1.099.363-2.59.607-4.223.607s-3.124-.244-4.223-.607c-.547-.181-1.02-.4-1.367-.65-.322-.232-.66-.582-.66-1.049V7.62a.5.5 0 0 1 .5-.5Z" clip-rule="evenodd"/>
  <path fill="#fff" fill-rule="evenodd" d="M4.584 9.328a.5.5 0 0 1 .582-.402c.325.06.67.11 1.031.147a.5.5 0 0 1-.103.995c-.386-.04-.757-.094-1.108-.158a.5.5 0 0 1-.402-.582Z" clip-rule="evenodd"/>
  <path fill="#EEE" d="M13.5 5.495c0 .83-2.574 2.005-5.75 2.005S2 6.325 2 5.495V1.932C2.25 1.455 3.8.5 8 .5s5.417.955 5.5 1.432v3.563Z"/>
  <path fill="#fff" fill-rule="evenodd" d="M4.58 5.338a.5.5 0 0 1 .566-.425c.327.046.674.084 1.038.112a.5.5 0 0 1-.077.997c-.384-.03-.752-.07-1.101-.119a.5.5 0 0 1-.425-.565Z" clip-rule="evenodd"/>
  <path fill="#888" fill-rule="evenodd" d="M3.556.464C4.649.174 6.132 0 7.75 0c1.618 0 3.1.173 4.194.464.543.144 1.018.324 1.37.544.326.204.686.535.686 1.017 0 .482-.36.813-.686 1.018-.352.22-.827.4-1.37.544-1.093.29-2.576.464-4.194.464-1.618 0-3.1-.174-4.194-.464-.543-.144-1.018-.324-1.37-.544-.326-.205-.686-.536-.686-1.018s.36-.813.686-1.017c.352-.22.827-.4 1.37-.544ZM2.51 2.025c.022.03.076.088.207.17.23.145.597.294 1.094.426.988.262 2.38.43 3.938.43 1.557 0 2.95-.168 3.938-.43.497-.132.864-.28 1.095-.425a.737.737 0 0 0 .206-.17.737.737 0 0 0-.207-.17c-.23-.145-.597-.294-1.094-.426C10.7 1.168 9.308 1 7.75 1c-1.557 0-2.95.168-3.938.43-.497.132-.864.28-1.094.425a.737.737 0 0 0-.207.17Z" clip-rule="evenodd"/>
  <path fill="#888" fill-rule="evenodd" d="M2 1.525a.5.5 0 0 1 .5.5v3.908c.008.016.047.084.22.194.23.146.596.296 1.094.43.987.265 2.379.435 3.936.435s2.949-.17 3.936-.435c.498-.134.864-.284 1.094-.43.173-.11.212-.178.22-.194V2.025a.5.5 0 0 1 1 0v3.923c0 .482-.357.815-.684 1.023-.352.223-.827.406-1.37.551-1.094.294-2.577.47-4.196.47-1.619 0-3.102-.176-4.195-.47-.544-.145-1.02-.328-1.371-.55-.327-.209-.684-.542-.684-1.024V2.025a.5.5 0 0 1 .5-.5Z" clip-rule="evenodd"/>
</svg>
