<svg fill="none" viewBox="0 0 16 16" xmlns="http://www.w3.org/2000/svg">
  <path fill="#EEE" d="M5 0a2 2 0 0 0-2 2v12a2 2 0 0 0 2 2h3.395a1.994 1.994 0 0 1-.145-.75v-3a2 2 0 0 1 1-1.732v-.833c0-1.958 1.63-3.435 3.5-3.435.084 0 .167.003.25.009V2a2 2 0 0 0-2-2H5Z"/>
  <path fill="#666" d="M5 1h6a1 1 0 0 1 1 1v4.33a3.542 3.542 0 0 1 1-.071V2a2 2 0 0 0-2-2H5a2 2 0 0 0-2 2v12a2 2 0 0 0 2 2h3.395a1.994 1.994 0 0 1-.145-.75V15H5a1 1 0 0 1-1-1V2a1 1 0 0 1 1-1Z"/>
  <path fill="#666" fill-rule="evenodd" d="M6.5 2.5A.5.5 0 0 1 7 2h2a.5.5 0 0 1 0 1H7a.5.5 0 0 1-.5-.5Z" clip-rule="evenodd"/>
  <path fill="#888" fill-rule="evenodd" d="M12.75 8.5c-.708 0-1.25.548-1.25 1.185v2.065h-1V9.685c0-1.224 1.025-2.185 2.25-2.185S15 8.46 15 9.685v2.065h-1V9.685c0-.637-.542-1.185-1.25-1.185Z" clip-rule="evenodd"/>
  <path fill="#FC3" d="M10 12.25a.25.25 0 0 1 .25-.25h5a.25.25 0 0 1 .25.25v3a.25.25 0 0 1-.25.25h-5a.25.25 0 0 1-.25-.25v-3Z"/>
  <path fill="#C18010" fill-rule="evenodd" d="M9.5 12.25a.75.75 0 0 1 .75-.75h5a.75.75 0 0 1 .75.75v3a.75.75 0 0 1-.75.75h-5a.75.75 0 0 1-.75-.75v-3Zm1 .25V15H15v-2.5h-4.5Z" clip-rule="evenodd"/>
</svg>
