<svg fill="none" viewBox="0 0 16 16" xmlns="http://www.w3.org/2000/svg">
  <g clip-path="url(#DuckDuckGo-Color-16_svg__a)">
    <path fill="#DE5833" fill-rule="evenodd" d="M8 16A8 8 0 1 0 8 0a8 8 0 0 0 0 16Z" clip-rule="evenodd"/>
    <path fill="#DDD" fill-rule="evenodd" d="M9.125 13.969c0-.063.015-.077-.183-.473-.528-1.057-1.06-2.548-.818-3.51.044-.174-.497-6.467-.88-6.67-.425-.227-.948-.586-1.427-.666a3.042 3.042 0 0 0-.81.013c-.045.006-.046.085-.004.1.163.055.362.151.479.296.022.028-.008.071-.043.073-.11.004-.31.05-.574.274-.03.026-.005.074.034.066.567-.112 1.146-.057 1.487.254.023.02.01.056-.018.064-2.962.805-2.375 3.381-1.587 6.543.701 2.812.966 3.721 1.05 3.999a.09.09 0 0 0 .054.06c1.02.405 3.24.423 3.24-.267v-.156Z" clip-rule="evenodd"/>
    <path fill="#fff" d="M9.531 14.563c-.359.14-1.062.203-1.468.203-.596 0-1.453-.094-1.766-.235A70.123 70.123 0 0 1 4.9 9.53v-.002c-.678-2.77-1.232-5.032 1.803-5.742.028-.007.041-.04.023-.062-.348-.413-1-.548-1.825-.264-.034.012-.064-.022-.043-.051.162-.223.478-.395.634-.47.033-.015.03-.063-.004-.073a3.482 3.482 0 0 0-.471-.113c-.046-.007-.05-.086-.004-.093 1.17-.157 2.39.194 3.004.966a.04.04 0 0 0 .023.014c2.244.482 2.405 4.03 2.146 4.191-.051.032-.214.014-.43-.01-.873-.098-2.602-.291-1.175 2.368.014.027-.005.061-.034.066-.805.125.226 2.646.984 4.307Z"/>
    <path fill="#3CA82B" d="M10.535 11.337c-.17-.079-.827.392-1.263.754-.091-.13-.263-.223-.65-.155-.34.058-.527.14-.61.281-.536-.203-1.437-.516-1.654-.213-.238.33.06 1.895.375 2.098.165.106.954-.401 1.366-.751.066.094.173.147.393.142.333-.008.872-.085.956-.24.005-.01.01-.02.013-.033.424.158 1.17.326 1.336.3.433-.065-.06-2.09-.262-2.183Z"/>
    <path fill="#4CBA3C" d="M9.311 12.137a.66.66 0 0 1 .045.1c.06.169.159.706.084.839-.074.132-.557.197-.855.202-.298.005-.365-.104-.426-.273-.048-.135-.072-.453-.071-.634-.012-.27.086-.365.542-.439.337-.054.515.01.618.118.478-.357 1.277-.861 1.354-.77.389.46.438 1.553.354 1.993-.028.144-1.313-.142-1.313-.297 0-.644-.167-.82-.332-.839Zm-2.816-.201c.105-.167.96.04 1.428.25 0 0-.096.435.057.95.045.15-1.078.82-1.225.704-.17-.133-.481-1.554-.26-1.904Z"/>
    <path fill="#FC3" fill-rule="evenodd" d="M6.909 8.55c.069-.3.39-.866 1.54-.852.58-.002 1.302 0 1.78-.055a6.406 6.406 0 0 0 1.592-.386c.497-.19.674-.148.736-.034.068.124-.013.34-.186.538-.332.38-.93.673-1.984.76-1.054.087-1.752-.196-2.053.265-.13.198-.03.666.99.814 1.378.198 2.51-.24 2.65.025.139.264-.666.803-2.046.814-1.38.012-2.242-.483-2.547-.728-.388-.312-.562-.767-.472-1.16Z" clip-rule="evenodd"/>
    <path fill="#14307E" d="M8.666 5.266c.077-.126.247-.223.527-.223.279 0 .41.11.501.235.019.025-.01.055-.038.042a1.027 1.027 0 0 0-.463-.112.91.91 0 0 0-.466.104c-.031.017-.08-.016-.061-.046Zm-3.145.161a.998.998 0 0 1 .635-.063c.032.008.054-.027.029-.047-.117-.094-.379-.211-.72-.084-.305.113-.449.35-.45.504 0 .037.076.04.095.01.053-.084.14-.207.411-.32Z"/>
    <path fill="#14307E" fill-rule="evenodd" d="M9.43 6.99a.434.434 0 1 1-.001-.867.434.434 0 0 1 0 .867Zm.306-.576a.112.112 0 0 0-.225 0 .112.112 0 0 0 .225 0Zm-3.183.443a.505.505 0 1 1-1.01-.002.505.505 0 0 1 1.01.002Zm-.15-.168a.13.13 0 1 0-.261.001.13.13 0 0 0 .262 0Z" clip-rule="evenodd"/>
    <path fill="#fff" fill-rule="evenodd" d="M8 14.25a6.25 6.25 0 1 0 0-12.5 6.25 6.25 0 0 0 0 12.5ZM8 15A7 7 0 1 0 8 1a7 7 0 0 0 0 14Z" clip-rule="evenodd"/>
    <path fill="#DE5833" fill-rule="evenodd" d="M0 8a8 8 0 1 1 16 0A8 8 0 0 1 0 8Zm8-7a7 7 0 1 0 0 14A7 7 0 0 0 8 1Z" clip-rule="evenodd"/>
  </g>
  <defs>
    <clipPath id="DuckDuckGo-Color-16_svg__a">
      <path fill="#fff" d="M0 0h16v16H0z"/>
    </clipPath>
  </defs>
</svg>
