<svg fill="none" viewBox="0 0 16 16" xmlns="http://www.w3.org/2000/svg">
  <path fill="#F9BE1A" d="M13.164 2C14.178 2 15 2.794 15 3.773v4.9a3.526 3.526 0 0 0-6.526 1.854v.29A2.238 2.238 0 0 0 7 12.921V14H2.836C1.822 14 1 13.206 1 12.227V3.773C1 2.794 1.822 2 2.836 2h10.328Z"/>
  <path fill="#FFE8A3" d="m13.6 1.6 1.65 1.6-3.854 3.852A3.529 3.529 0 0 0 8.926 8.8H6.5L.8 3.2l1.6-1.6h11.2Z"/>
  <path fill="url(#Email-Protection-Color-16_svg__a)" d="M12 1a4 4 0 0 1 4 4v3.566c-.001.638-.568.887-.872.327a4.48 4.48 0 0 0-.128-.22V5c0-.276-.038-.543-.107-.797L12.033 7H12a3.528 3.528 0 0 0-3.304 2.29 4.004 4.004 0 0 1-2.476-.356L2.36 13.51c.472.309 1.034.49 1.64.49h3v.112c-.006.475-.4.888-.874.888H4a4 4 0 0 1-4-4V5a4 4 0 0 1 4-4h8ZM1.107 4.203C1.037 4.457 1 4.724 1 5v6c0 .69.234 1.325.625 1.832l3.757-4.456a4.063 4.063 0 0 1-.18-.165L1.107 4.203ZM4 2a2.996 2.996 0 0 0-2.437 1.25l4.338 4.246a3 3 0 0 0 4.198 0l4.336-4.246A2.995 2.995 0 0 0 12 2H4Z"/>
  <path fill="#888" d="M13.526 10.526a1.527 1.527 0 0 0-3.052 0v2.027a1.527 1.527 0 0 0 3.052 0v-2.027Zm1 2.027a2.527 2.527 0 0 1-5.052 0v-2.027a2.526 2.526 0 0 1 5.052 0v2.027Z"/>
  <rect width="4.053" height="6.079" x="9.974" y="8.5" stroke="#999" rx="2.026"/>
  <path fill="#DDD" stroke="url(#Email-Protection-Color-16_svg__b)" stroke-linecap="round" d="M8.5 12.921c0-.407.33-.737.737-.737h5.526c.407 0 .737.33.737.737v1.842c0 .407-.33.737-.737.737H9.237a.737.737 0 0 1-.737-.737v-1.842Z"/>
  <defs>
    <linearGradient id="Email-Protection-Color-16_svg__a" x1="7.974" x2="7.974" y1="2.214" y2="14.35" gradientUnits="userSpaceOnUse">
      <stop offset=".008" stop-color="#E2A412"/>
      <stop offset="1" stop-color="#C18010"/>
    </linearGradient>
    <linearGradient id="Email-Protection-Color-16_svg__b" x1="12" x2="12" y1="15.5" y2="12.184" gradientUnits="userSpaceOnUse">
      <stop stop-color="#888"/>
      <stop offset="1" stop-color="#AAA"/>
    </linearGradient>
  </defs>
</svg>
