<svg fill="none" viewBox="0 0 16 16" xmlns="http://www.w3.org/2000/svg">
  <g clip-path="url(#Favorite-Grey-Color-16_svg__a)">
    <path fill="url(#Favorite-Grey-Color-16_svg__b)" d="M6.615 1.42C7.13.193 8.868.193 9.383 1.42l1.066 2.544c.17.406.541.692.977.754l2.78.396c1.25.178 1.735 1.726.81 2.585l-2.125 1.974a1.25 1.25 0 0 0-.386 1.101l.449 2.998c.191 1.28-1.219 2.186-2.303 1.48l-1.97-1.284a1.25 1.25 0 0 0-1.365 0L5.347 15.25c-1.084.707-2.495-.199-2.303-1.479l.449-2.998a1.25 1.25 0 0 0-.386-1.101L.982 7.699c-.925-.859-.44-2.407.809-2.585l.184-.026 2.597-.37a1.25 1.25 0 0 0 .977-.754L6.615 1.42Z"/>
    <path fill="url(#Favorite-Grey-Color-16_svg__c)" fill-rule="evenodd" d="M6.154 1.226c.686-1.636 3.004-1.636 3.69 0L10.91 3.77a.75.75 0 0 0 .586.453l2.781.396c1.667.238 2.313 2.301 1.08 3.447l-2.126 1.973a.75.75 0 0 0-.232.661l.45 2.998c.255 1.707-1.626 2.914-3.071 1.972l-1.97-1.283a.75.75 0 0 0-.819 0L5.62 15.67c-1.446.942-3.326-.265-3.07-1.972l.448-2.998a.75.75 0 0 0-.231-.66L.64 8.065C-.592 6.92.054 4.856 1.721 4.619l2.78-.396a.75.75 0 0 0 .587-.453l1.066-2.544Zm2.767.387c-.342-.818-1.502-.818-1.845 0L6.01 4.157a1.75 1.75 0 0 1-1.367 1.056L1.86 5.61a1 1 0 0 0-.54 1.724l2.126 1.973c.424.394.626.97.54 1.542l-.448 2.998c-.128.854.812 1.457 1.535.986l1.97-1.283a1.75 1.75 0 0 1 1.91 0l1.97 1.283c.723.471 1.663-.132 1.535-.986l-.448-2.998a1.75 1.75 0 0 1 .54-1.542l2.125-1.973a1 1 0 0 0-.54-1.724l-2.78-.396a1.75 1.75 0 0 1-1.368-1.056L8.921 1.613Z" clip-rule="evenodd"/>
  </g>
  <defs>
    <linearGradient id="Favorite-Grey-Color-16_svg__b" x1="7.999" x2="7.999" y1="-1.382" y2="15.421" gradientUnits="userSpaceOnUse">
      <stop stop-color="#EEE"/>
      <stop offset="1" stop-color="#CCC"/>
    </linearGradient>
    <linearGradient id="Favorite-Grey-Color-16_svg__c" x1="7.999" x2="7.999" y1="-1.881" y2="17.074" gradientUnits="userSpaceOnUse">
      <stop stop-color="#AAA"/>
      <stop offset="1" stop-color="#888"/>
    </linearGradient>
    <clipPath id="Favorite-Grey-Color-16_svg__a">
      <path fill="#fff" d="M0 0h16v16H0z"/>
    </clipPath>
  </defs>
</svg>
