<svg fill="none" viewBox="0 0 16 16" xmlns="http://www.w3.org/2000/svg">
  <path fill="#FFDE7A" d="M12.125 1.5h-8.25A3.375 3.375 0 0 0 .5 4.875v4.554c0 1.696 1.325 3.071 3.021 3.071.237 0 .48.192.45.427-.06.48-.206 1.03-.363 1.527-.198.624.346 1.228.954.986 1.082-.432 2.573-1.176 3.849-2.349.391-.36.892-.591 1.423-.591h2.291A3.375 3.375 0 0 0 15.5 9.125v-4.25A3.375 3.375 0 0 0 12.125 1.5Z"/>
  <path stroke="url(#Feedback-Color-16_svg__a)" d="M12.125 1.5h-8.25A3.375 3.375 0 0 0 .5 4.875v4.554c0 1.696 1.325 3.071 3.021 3.071.237 0 .48.192.45.427-.06.48-.206 1.03-.363 1.527-.198.624.346 1.228.954.986 1.082-.432 2.573-1.176 3.849-2.349.391-.36.892-.591 1.423-.591h2.291A3.375 3.375 0 0 0 15.5 9.125v-4.25A3.375 3.375 0 0 0 12.125 1.5Z"/>
  <path fill="#E2A412" stroke="url(#Feedback-Color-16_svg__b)" stroke-linecap="round" stroke-linejoin="round" d="m9.754 4.505.156.02c.77.131 1.392.688 1.55 1.474.16.788-.165 1.673-1.006 2.472l-.176.158-1.104.946c-.333.285-.773.407-1.179.408a1.87 1.87 0 0 1-1.05-.306l-.13-.1-1.097-.95c-.965-.853-1.35-1.803-1.179-2.64.17-.84.871-1.404 1.707-1.482L6.43 4.5c.419.015.765.212 1.025.443.22.196.4.433.542.658a3.12 3.12 0 0 1 .546-.66c.298-.263.708-.482 1.21-.436Z"/>
  <defs>
    <linearGradient id="Feedback-Color-16_svg__a" x1="7.976" x2="7.976" y1="2.752" y2="15.267" gradientUnits="userSpaceOnUse">
      <stop offset=".008" stop-color="#E2A412"/>
      <stop offset="1" stop-color="#C18010"/>
    </linearGradient>
    <linearGradient id="Feedback-Color-16_svg__b" x1="8" x2="8" y1="4.999" y2="10" gradientUnits="userSpaceOnUse">
      <stop stop-color="#C18010"/>
      <stop offset="1" stop-color="#92540C"/>
    </linearGradient>
  </defs>
</svg>
