<svg fill="none" viewBox="0 0 16 16" xmlns="http://www.w3.org/2000/svg">
  <g clip-path="url(#Fewer-Ads-Color-16_svg__a)">
    <path fill="#DDD" d="m10.787 10 .038.245c.022.129.055.306.101.446l.011.034c.05.151.155.474.366.734.313.385.748.541 1.197.541.128 0 .307-.007.5-.058V13a1 1 0 0 1-1 1H4a1 1 0 0 1-1-1v-2a1 1 0 0 1 1-1h6.787Z"/>
    <path fill="#DE5833" d="M3 3a1 1 0 0 1 1-1h3a1 1 0 0 1 1 1v1a1 1 0 0 1-1 1H4a1 1 0 0 1-1-1V3Z"/>
    <path fill="#AAA" d="M8.195 8.31c.127.195.089.493-.103.626A.36.36 0 0 1 7.888 9H3.5a.5.5 0 0 1 0-1h4.247a.46.46 0 0 1 .387.215l.06.095Zm.012-1.554A.523.523 0 0 1 7.771 7H3.5a.5.5 0 0 1 0-1h4.78c.203 0 .293.294.159.446a2.514 2.514 0 0 0-.232.31Z"/>
    <path fill="#6B4EBA" d="M13.125 4.625C13 4.125 12.915 4 12.5 4c-.414 0-.5.125-.625.625-.074.296-.191 1.247-.275 1.975-.728.084-1.68.201-1.975.275C9.125 7 9 7.085 9 7.5c0 .414.125.5.625.625.295.074 1.243.191 1.97.275.085.756.205 1.75.28 1.975.125.375.21.625.625.625.414 0 .5-.125.625-.625.074-.295.191-1.243.275-1.97.756-.085 1.75-.205 1.975-.28C15.75 8 16 7.915 16 7.5c0-.414-.125-.5-.625-.625-.296-.074-1.247-.191-1.975-.275-.084-.728-.201-1.68-.275-1.975Z"/>
    <path fill="#FFD65C" d="M11.5 2.25a1.25 1.25 0 1 1-2.5 0 1.25 1.25 0 0 1 2.5 0Z"/>
    <path fill="#7295F6" d="m14.667 1.333-.189-.94a.488.488 0 0 0-.956 0l-.189.94-.94.189a.488.488 0 0 0 0 .956l.94.189.189.94a.488.488 0 0 0 .956 0l.189-.94.94-.189a.488.488 0 0 0 0-.956l-.94-.189Z"/>
    <path fill="#666" d="M9.25.144A.144.144 0 0 0 9.106 0H4a3 3 0 0 0-3 3v10a3 3 0 0 0 3 3h8a3 3 0 0 0 3-3V9.496a.247.247 0 0 0-.28-.244l-.035.005a.508.508 0 0 0-.436.436 10.55 10.55 0 0 1-.154.925l-.005.02c-.016.063-.036.144-.064.233a.554.554 0 0 0-.026.165V13a2 2 0 0 1-2 2H4a2 2 0 0 1-2-2V3a2 2 0 0 1 2-2h3.845c.334 0 .635-.179.88-.405.135-.124.284-.231.446-.32a.15.15 0 0 0 .079-.13Z"/>
  </g>
  <defs>
    <clipPath id="Fewer-Ads-Color-16_svg__a">
      <path fill="#fff" d="M0 0h16v16H0z"/>
    </clipPath>
  </defs>
</svg>
