<svg fill="none" viewBox="0 0 16 16" xmlns="http://www.w3.org/2000/svg">
  <g clip-path="url(#Fire-New-Color-16_svg__a)">
    <path fill="url(#Fire-New-Color-16_svg__b)" d="M2.466 6.81C3.923 4.335 5.895 2.735 6.709.5c2.363 1.97.894 5.66 3.193 5.847 2.298.187 1.788-2.796 1.788-2.796 1.647 1.893 2.658 4.242 2.796 6.356.199 3.04-1.708 5.593-6.5 5.593-5.218 0-8.114-4.28-5.52-8.69Z"/>
    <path fill="#FC3" d="M7.963 8.636c.917 1.652 2.45 2.542 2.45 4.067 0 1.526-.68 2.67-2.427 2.67-1.638 0-2.426-1.144-2.426-2.67 0-1.525 1.404-2.415 2.403-4.067Z"/>
    <path fill="#FC3" fill-rule="evenodd" d="M7.972 8.136a.5.5 0 0 1 .428.257c.321.579.712 1.043 1.112 1.517.136.162.273.325.41.494.509.635.99 1.355.99 2.3 0 .826-.182 1.623-.67 2.222-.502.617-1.265.947-2.256.947-.945 0-1.7-.336-2.21-.94-.5-.593-.716-1.387-.716-2.23 0-.932.436-1.647.93-2.29.163-.213.33-.414.495-.616.36-.437.72-.875 1.05-1.42a.5.5 0 0 1 .437-.241Zm-1.189 2.886c-.457.596-.723 1.088-.723 1.681 0 .683.176 1.224.48 1.585.295.348.753.585 1.446.585.756 0 1.206-.242 1.48-.579.29-.354.446-.892.446-1.59 0-.581-.284-1.069-.77-1.674-.108-.134-.227-.274-.352-.422-.267-.317-.562-.667-.838-1.057-.251.344-.51.659-.746.946a20.52 20.52 0 0 0-.423.525Z" clip-rule="evenodd"/>
    <path fill="url(#Fire-New-Color-16_svg__c)" fill-rule="evenodd" d="M9.942.008a.5.5 0 0 1 .58.405c.032.18.063.286.104.36a.38.38 0 0 0 .19.164.5.5 0 0 1-.424.906 1.375 1.375 0 0 1-.639-.583 2.116 2.116 0 0 1-.216-.672.5.5 0 0 1 .405-.58Zm-3.363.01a.5.5 0 0 1 .45.098c1.289 1.075 1.562 2.6 1.767 3.744l.025.144c.112.615.207 1.069.382 1.386a.867.867 0 0 0 .275.317.953.953 0 0 0 .464.142c.46.038.714-.083.87-.227.172-.158.29-.403.357-.71.067-.304.076-.624.065-.876a4.124 4.124 0 0 0-.034-.38l-.003-.018v-.003a.5.5 0 0 1 .87-.412c1.709 1.963 2.772 4.414 2.918 6.651.107 1.635-.352 3.188-1.53 4.329C12.283 15.339 10.466 16 7.986 16c-2.743 0-4.947-1.129-6.109-2.919-1.169-1.8-1.221-4.179.158-6.524C2.669 5.48 3.4 4.56 4.072 3.714c.123-.155.245-.308.363-.459C5.21 2.27 5.862 1.365 6.24.33a.5.5 0 0 1 .34-.312Zm5.593 4.978a3.474 3.474 0 0 1-.026.131c-.092.416-.278.882-.657 1.23-.394.363-.938.545-1.628.489a1.96 1.96 0 0 1-.936-.306 1.861 1.861 0 0 1-.597-.666c-.27-.489-.386-1.116-.49-1.693l-.01-.054c-.178-.984-.354-1.959-.955-2.74-.437.898-1.033 1.699-1.651 2.486l-.376.475c-.672.846-1.354 1.704-1.95 2.716-1.214 2.065-1.115 4.032-.18 5.473.601.926 1.573 1.673 2.84 2.092-.344-.547-.496-1.22-.496-1.925 0-.933.436-1.648.93-2.291.163-.213.33-.414.495-.616.36-.437.72-.875 1.05-1.42a.5.5 0 0 1 .865.016c.321.579.713 1.043 1.112 1.517.136.162.274.325.41.494.51.635.99 1.355.99 2.3 0 .738-.145 1.453-.524 2.024 1.034-.263 1.812-.701 2.372-1.243.924-.896 1.319-2.14 1.227-3.546-.104-1.599-.744-3.365-1.815-4.943Zm-5.389 6.026c-.457.596-.723 1.089-.723 1.681 0 .683.177 1.224.481 1.585.294.348.752.585 1.445.585.757 0 1.207-.242 1.48-.579.29-.354.447-.892.447-1.59 0-.581-.285-1.069-.771-1.674a23.256 23.256 0 0 0-.351-.422 15.762 15.762 0 0 1-.84-1.057c-.25.344-.509.659-.745.946-.153.187-.297.361-.423.525Z" clip-rule="evenodd"/>
  </g>
  <defs>
    <linearGradient id="Fire-New-Color-16_svg__b" x1="8.069" x2="9.583" y1="3.5" y2="14.202" gradientUnits="userSpaceOnUse">
      <stop stop-color="#FA8B38"/>
      <stop offset=".52" stop-color="#E72A57"/>
      <stop offset="1" stop-color="#CC165B"/>
    </linearGradient>
    <linearGradient id="Fire-New-Color-16_svg__c" x1="8" x2="8" y1="0" y2="16" gradientUnits="userSpaceOnUse">
      <stop stop-color="#DE5833"/>
      <stop offset="1" stop-color="#9A3216"/>
    </linearGradient>
    <clipPath id="Fire-New-Color-16_svg__a">
      <path fill="#fff" d="M0 0h16v16H0z"/>
    </clipPath>
  </defs>
</svg>
