<svg fill="none" viewBox="0 0 16 16" xmlns="http://www.w3.org/2000/svg">
  <g clip-path="url(#Globe-Color-16_svg__a)">
    <path fill="url(#Globe-Color-16_svg__b)" fill-rule="evenodd" d="M8 15.5a7.5 7.5 0 1 0 0-15 7.5 7.5 0 0 0 0 15Z" clip-rule="evenodd"/>
    <path fill="url(#Globe-Color-16_svg__c)" d="M8 0a8 8 0 1 1 0 16A8 8 0 0 1 8 0Zm2.817 9.892A35.65 35.65 0 0 1 8 10c-.992 0-1.943-.039-2.818-.108.153 1.242.451 2.341.846 3.203C6.633 14.417 7.368 15 8 15c.633 0 1.367-.583 1.972-1.905.395-.862.692-1.96.845-3.203Zm-9.726-.764a7.009 7.009 0 0 0 4.674 5.507 6.625 6.625 0 0 1-.646-1.124c-.468-1.02-.8-2.3-.955-3.719A19.758 19.758 0 0 1 2.6 9.551a8.72 8.72 0 0 1-1.508-.423Zm13.818 0a8.722 8.722 0 0 1-1.508.423c-.468.094-.994.174-1.566.241-.154 1.418-.486 2.698-.953 3.72a6.623 6.623 0 0 1-.647 1.123 7.009 7.009 0 0 0 4.674-5.507ZM8 1c-.633 0-1.367.583-1.972 1.905-.585 1.278-.96 3.079-.96 5.095 0 .299.009.593.025.88C5.98 8.958 6.964 9 8 9s2.018-.043 2.907-.12c.016-.287.025-.581.025-.88 0-2.016-.375-3.817-.96-5.095C9.367 1.583 8.632 1 8 1Zm-2.235.364A7.003 7.003 0 0 0 1 7.944h.002c.045.044.137.11.301.188.326.154.83.306 1.492.438.387.078.82.146 1.29.205A17.02 17.02 0 0 1 4.068 8c0-2.126.393-4.075 1.05-5.511.187-.407.404-.788.647-1.125Zm4.47 0c.244.337.46.718.647 1.125.657 1.436 1.05 3.385 1.05 5.511 0 .261-.006.52-.018.775.47-.059.904-.127 1.291-.205.662-.132 1.166-.284 1.492-.438.164-.078.257-.144.301-.187l.001-.002a7.002 7.002 0 0 0-4.764-6.579Z"/>
  </g>
  <defs>
    <linearGradient id="Globe-Color-16_svg__b" x1="2" x2="14" y1="2" y2="14" gradientUnits="userSpaceOnUse">
      <stop stop-color="#8FABF9"/>
      <stop offset="1" stop-color="#557FF3"/>
    </linearGradient>
    <linearGradient id="Globe-Color-16_svg__c" x1="8" x2="8" y1="0" y2="16" gradientUnits="userSpaceOnUse">
      <stop stop-color="#557FF3"/>
      <stop offset="1" stop-color="#2B55CA"/>
    </linearGradient>
    <clipPath id="Globe-Color-16_svg__a">
      <path fill="#fff" d="M0 0h16v16H0z"/>
    </clipPath>
  </defs>
</svg>
