<svg fill="none" viewBox="0 0 16 16" xmlns="http://www.w3.org/2000/svg">
  <g clip-path="url(#Heart-Grey-Color-16_svg__a)">
    <path fill="#CCC" d="M7.99 3.912C7.465 3.147 5.984 2 4.325 2 1.97 2-1.17 6.333 3.148 10.284 6.118 13.002 7.466 14.235 7.99 15c.524-.765 1.981-2.086 4.776-4.716C17.235 6.078 14.008 2 11.653 2c-1.57 0-3.14 1.147-3.664 1.912Z"/>
    <path fill="#999" fill-rule="evenodd" d="M7.327 14.213c-.756-.797-2.051-1.982-4.18-3.929C-1.17 6.334 1.97 2 4.326 2c1.168 0 2.248.568 2.968 1.172.302.254.541.513.696.74.153-.224.396-.481.703-.732.74-.607 1.85-1.18 2.96-1.18 2.356 0 5.583 4.078 1.113 8.284l-1.13 1.061c-1.393 1.307-2.362 2.216-2.982 2.87A6.79 6.79 0 0 0 7.99 15a6.693 6.693 0 0 0-.662-.787Zm.67-11.755a6.72 6.72 0 0 1 .927-.652C9.675 1.366 10.635 1 11.653 1c1.688 0 3.406 1.376 4.059 3.234.698 1.99.201 4.46-2.262 6.779l-1.137 1.068c-.856.802-1.544 1.448-2.092 1.979-.79.765-1.211 1.219-1.407 1.505a1 1 0 0 1-1.65 0c-.197-.287-.594-.722-1.371-1.47-.763-.732-1.831-1.71-3.32-3.073C.056 8.81-.395 6.334.288 4.337a5.373 5.373 0 0 1 1.61-2.364C2.583 1.398 3.441 1 4.325 1c1.056 0 2.017.363 2.769.81.33.195.634.417.902.648Z" clip-rule="evenodd"/>
  </g>
  <defs>
    <clipPath id="Heart-Grey-Color-16_svg__a">
      <path fill="#fff" d="M0 0h16v16H0z"/>
    </clipPath>
  </defs>
</svg>
