<svg fill="none" viewBox="0 0 16 16" xmlns="http://www.w3.org/2000/svg">
  <g clip-path="url(#Home-Color-16_svg__a)">
    <path fill="#FFE8A3" d="m13.872 5.533-4.5-4.24a2 2 0 0 0-2.744 0l-4.5 4.24A2 2 0 0 0 1.5 6.988v5.137A3.375 3.375 0 0 0 4.875 15.5h6.25a3.375 3.375 0 0 0 3.375-3.375V6.988a2 2 0 0 0-.628-1.455Z"/>
    <path fill="#FFD65C" d="M6.628 1.292a2 2 0 0 1 2.744 0l4.5 4.24a2 2 0 0 1 .628 1.456v2.5a2 2 0 0 0-.628-1.455l-4.5-4.24a2 2 0 0 0-2.744 0l-4.5 4.24A2 2 0 0 0 1.5 9.488v-2.5a2 2 0 0 1 .628-1.455l4.5-4.24Z"/>
    <path fill="url(#Home-Color-16_svg__b)" d="M1 12V6.348a.5.5 0 0 1 1 0V12a3 3 0 0 0 3 3h6a3 3 0 0 0 3-3V6a.5.5 0 0 1 1 0v6a4 4 0 0 1-4 4H5a4 4 0 0 1-4-4Z"/>
    <path fill="#C18010" d="M5.5 8.75c0-.69.56-1.25 1.25-1.25h2.5c.69 0 1.25.56 1.25 1.25v5.5c0 .69-.56 1.25-1.25 1.25h-2.5c-.69 0-1.25-.56-1.25-1.25v-5.5Z"/>
    <path fill="#92540C" d="M10 8.75A.75.75 0 0 0 9.25 8h-2.5a.75.75 0 0 0-.75.75v5.5c0 .414.336.75.75.75h2.5a.75.75 0 0 0 .75-.75v-5.5Zm1 5.5A1.75 1.75 0 0 1 9.25 16h-2.5A1.75 1.75 0 0 1 5 14.25v-5.5C5 7.784 5.784 7 6.75 7h2.5c.966 0 1.75.784 1.75 1.75v5.5Z"/>
    <path fill="#9A3216" d="M6.278.821a2.5 2.5 0 0 1 3.444 0l6.122 5.817.036.037a.5.5 0 0 1-.686.721l-.038-.034-6.123-5.816a1.5 1.5 0 0 0-2.066 0L.844 7.362a.5.5 0 1 1-.688-.724L6.278.82Z"/>
  </g>
  <defs>
    <linearGradient id="Home-Color-16_svg__b" x1="7.977" x2="7.977" y1="6.41" y2="15.512" gradientUnits="userSpaceOnUse">
      <stop offset=".008" stop-color="#E2A412"/>
      <stop offset="1" stop-color="#C18010"/>
    </linearGradient>
    <clipPath id="Home-Color-16_svg__a">
      <path fill="#fff" d="M0 0h16v16H0z"/>
    </clipPath>
  </defs>
</svg>
