<svg fill="none" viewBox="0 0 16 16" xmlns="http://www.w3.org/2000/svg">
  <path fill="#CCDAFF" d="M10.676 15.5H5.324a2.824 2.824 0 0 1-1.352-5.303L8 8 3.972 5.803A2.824 2.824 0 0 1 5.324.5h5.352a2.824 2.824 0 0 1 1.352 5.303L8 8l4.028 2.197a2.824 2.824 0 0 1-1.352 5.303Z"/>
  <path fill="#8FABF9" d="M8 15.5h2.676a2.824 2.824 0 0 0 1.352-5.303L8 8l4.028-2.197A2.824 2.824 0 0 0 10.676.5H8v15Z"/>
  <path fill="#557FF3" fill-rule="evenodd" d="M5.932 4.966 8 6l2.068-1.034c.481-.24.31-.966-.228-.966H6.16c-.538 0-.709.725-.228.966Zm3.57 7.288L13 14l-1.063 1.188L8 15.5l-4-.375L3 14l3.483-1.744a3.375 3.375 0 0 1 3.019-.002Z" clip-rule="evenodd"/>
  <path fill="#3969EF" fill-rule="evenodd" d="m8 15.5 3.938-.313L13 14l-3.498-1.746A3.374 3.374 0 0 0 8 11.898V15.5ZM8 6l2.068-1.034c.481-.24.31-.966-.228-.966H8v2Z" clip-rule="evenodd"/>
  <path fill="url(#Hourglass-Color-16_svg__a)" fill-rule="evenodd" d="M2 3.324A3.324 3.324 0 0 1 5.324 0h5.352a3.324 3.324 0 0 1 1.592 6.242L9.044 8l3.224 1.758A3.324 3.324 0 0 1 10.676 16H5.324a3.324 3.324 0 0 1-1.592-6.242L6.956 8 3.732 6.242A3.324 3.324 0 0 1 2 3.324ZM8 7.43l3.789-2.066A2.324 2.324 0 0 0 10.676 1H5.324A2.324 2.324 0 0 0 4.21 5.364L8 7.43Zm0 1.14-3.789 2.066A2.324 2.324 0 0 0 5.324 15h5.352a2.324 2.324 0 0 0 1.113-4.364L8 8.57Z" clip-rule="evenodd"/>
  <defs>
    <linearGradient id="Hourglass-Color-16_svg__a" x1="8" x2="8" y1=".5" y2="15.5" gradientUnits="userSpaceOnUse">
      <stop stop-color="#3969EF"/>
      <stop offset="1" stop-color="#1E42A4"/>
    </linearGradient>
  </defs>
</svg>
