<svg fill="none" viewBox="0 0 16 16" xmlns="http://www.w3.org/2000/svg">
  <path fill="#FAFAFA" d="M0 5a4 4 0 0 1 4-4h8a4 4 0 0 1 4 4v6a4 4 0 0 1-4 4H4a4 4 0 0 1-4-4V5Z"/>
  <path fill="#888" fill-rule="evenodd" d="M12 2H4a3 3 0 0 0-3 3v6a3 3 0 0 0 3 3h8a3 3 0 0 0 3-3V5a3 3 0 0 0-3-3ZM4 1a4 4 0 0 0-4 4v6a4 4 0 0 0 4 4h8a4 4 0 0 0 4-4V5a4 4 0 0 0-4-4H4Z" clip-rule="evenodd"/>
  <path fill="#888" fill-rule="evenodd" d="M2.5 11.5A.5.5 0 0 1 3 11h2.5a.5.5 0 0 1 0 1H3a.5.5 0 0 1-.5-.5Zm7 0a.5.5 0 0 1 .5-.5h3a.5.5 0 0 1 0 1h-3a.5.5 0 0 1-.5-.5Zm-2.5 0a.5.5 0 0 1 .5-.5H8a.5.5 0 0 1 0 1h-.5a.5.5 0 0 1-.5-.5Z" clip-rule="evenodd"/>
  <path fill="#FC3" d="M2.5 7.5A.5.5 0 0 1 3 7h2.5a.5.5 0 0 1 .5.5V9a.5.5 0 0 1-.5.5H3a.5.5 0 0 1-.5-.5V7.5Z"/>
</svg>
