<svg fill="none" viewBox="0 0 16 16" xmlns="http://www.w3.org/2000/svg">
  <path fill="#FC3" d="M12.5 2A2.5 2.5 0 0 1 15 4.5v6.295a37.172 37.172 0 0 0-.887-.113l-.057-.424c-.028-.19-.056-.373-.084-.527a3.987 3.987 0 0 0-.074-.341l-.037-.114c-.233-.653-.799-1.248-1.596-1.275-.818-.027-1.382.545-1.61 1.217l-.04.136a9.777 9.777 0 0 0-.168.94c-.018.125-.036.255-.053.387-.48.056-.965.117-1.273.171l-.179.037c-.698.163-1.429.701-1.43 1.598 0 .355.117.652.298.894a2.01 2.01 0 0 0-.547.619H3.5A2.5 2.5 0 0 1 1 11.5v-7A2.5 2.5 0 0 1 3.5 2h9Z"/>
  <path fill="url(#Identity-Theft-Restoration-Color-16-1_svg__a)" d="M12 1a4 4 0 0 1 4 4v5.014a.808.808 0 0 1-1 .78V5a3 3 0 0 0-3-3H4a3 3 0 0 0-3 3v6a3 3 0 0 0 3 3h3.263c-.04.07-.075.142-.106.216-.17.41-.518.784-.962.784H4a4 4 0 0 1-4-4V5a4 4 0 0 1 4-4h8Z"/>
  <path fill="#92540C" d="M1 5h14v2H1V5Z"/>
  <path fill="#557FF3" d="M9.17 11.863c-.876.204-.876 1.046 0 1.25.316.074 1.335.191 2.115.275.09.728.216 1.68.295 1.975.223.83 1.117.83 1.34 0 .078-.295.204-1.243.294-1.97.81-.085 1.874-.205 2.116-.28.828-.258.896-1.041 0-1.25-.316-.074-1.332-.191-2.111-.275-.09-.756-.22-1.75-.3-1.975-.279-.78-1.11-.853-1.339 0-.08.296-.205 1.247-.295 1.975-.78.084-1.799.201-2.116.275Z"/>
  <path fill="#8FABF9" d="M10 14.988a1 1 0 1 1-2 0 1 1 0 0 1 2 0Z"/>
  <defs>
    <linearGradient id="Identity-Theft-Restoration-Color-16-1_svg__a" x1="8" x2="8" y1="1.5" y2="14.5" gradientUnits="userSpaceOnUse">
      <stop stop-color="#C18010"/>
      <stop offset="1" stop-color="#92540C"/>
    </linearGradient>
  </defs>
</svg>
