<svg fill="none" viewBox="0 0 16 16" xmlns="http://www.w3.org/2000/svg">
  <path fill="#7295F6" d="M12.125 1.5h-8.25A3.375 3.375 0 0 0 .5 4.875v4.554c0 1.696 1.325 3.071 3.021 3.071.237 0 .48.192.45.427-.06.48-.206 1.03-.363 1.527-.198.624.346 1.228.954.986 1.082-.432 2.573-1.176 3.849-2.349.391-.36.892-.591 1.423-.591h2.291A3.375 3.375 0 0 0 15.5 9.125v-4.25A3.375 3.375 0 0 0 12.125 1.5Z"/>
  <path fill="url(#Info-Feedback-Color-16_svg__a)" d="M15 9.125v-4.25A2.875 2.875 0 0 0 12.125 2h-8.25A2.875 2.875 0 0 0 1 4.875v4.554C1 10.859 2.112 12 3.521 12a1 1 0 0 1 .659.253.847.847 0 0 1 .287.736c-.066.524-.222 1.108-.383 1.615a.326.326 0 0 0 .062.325.204.204 0 0 0 .1.06c.03.007.072.01.13-.013l.411-.172c.995-.434 2.222-1.104 3.285-2.081l.182-.154c.44-.343.986-.569 1.58-.569h2.291A2.875 2.875 0 0 0 15 9.125Zm1 0A3.875 3.875 0 0 1 12.125 13H9.834a1.58 1.58 0 0 0-.963.356l-.122.103c-1.17 1.075-2.504 1.8-3.565 2.263l-.437.182a1.19 1.19 0 0 1-1.328-.29 1.325 1.325 0 0 1-.288-1.311c.138-.437.258-.9.321-1.305C1.502 12.961 0 11.368 0 9.428V4.876A3.875 3.875 0 0 1 3.875 1h8.25A3.875 3.875 0 0 1 16 4.875v4.25Z"/>
  <path fill="#fff" d="M8.585 5.831c0 .006-.355 2.058-.465 2.773-.11.717.037 1.021.712.923-.032.463-.172.973-.985.973-.712 0-1.162-.411-1.162-1.164 0-1.151.301-2.227.433-3.268l1.467-.237ZM8.24 3.5c.351 0 .761.21.761.727 0 .41-.28.914-.949.914-.363 0-.773-.176-.773-.715 0-.445.363-.926.96-.926Z"/>
  <defs>
    <linearGradient id="Info-Feedback-Color-16_svg__a" x1="8" x2="8" y1="1.5" y2="15.938" gradientUnits="userSpaceOnUse">
      <stop stop-color="#557FF3"/>
      <stop offset="1" stop-color="#2B55CA"/>
    </linearGradient>
  </defs>
</svg>
