<svg fill="none" viewBox="0 0 16 16" xmlns="http://www.w3.org/2000/svg">
  <g fill-rule="evenodd" clip-path="url(#Key-Color-16_svg__a)" clip-rule="evenodd">
    <path fill="#FFDE7A" d="M15.5 5.568a5.068 5.068 0 0 1-6.323 4.91c-.306-.078-.638-.009-.86.216L6.27 12.768c-.19.192-.448.3-.717.3h-.8a.604.604 0 0 0-.603.604v.62c0 .667-.541 1.208-1.209 1.208h-.829A1.61 1.61 0 0 1 .5 13.889v-.432c0-.639.253-1.252.704-1.705l4.097-4.116a.892.892 0 0 0 .212-.847A5.068 5.068 0 1 1 15.5 5.568Zm-4.662 1.08a1.486 1.486 0 1 0 0-2.972 1.486 1.486 0 0 0 0 2.973Z"/>
    <path fill="url(#Key-Color-16_svg__b)" d="M4.865 5.568a5.568 5.568 0 1 1 4.189 5.395c-.163-.041-.303.003-.381.082L6.624 13.12a1.506 1.506 0 0 1-1.072.449h-.8a.104.104 0 0 0-.103.104v.62c0 .943-.765 1.708-1.709 1.708h-.829A2.111 2.111 0 0 1 0 13.889v-.432c0-.771.305-1.51.85-2.058l4.097-4.115c.077-.078.12-.215.08-.375a5.58 5.58 0 0 1-.162-1.341ZM10.432 1a4.568 4.568 0 0 0-4.434 5.669c.11.443.019.957-.343 1.32l-4.097 4.116A1.92 1.92 0 0 0 1 13.457v.432C1 14.503 1.498 15 2.111 15h.83a.708.708 0 0 0 .708-.709v-.62c0-.609.494-1.103 1.104-1.103h.8a.507.507 0 0 0 .36-.151l2.048-2.075c.367-.37.89-.463 1.34-.348A4.568 4.568 0 1 0 10.433 1Zm.406 3.176a.986.986 0 1 0 0 1.973.986.986 0 0 0 0-1.973Zm-1.987.986a1.986 1.986 0 1 1 3.973 0 1.986 1.986 0 0 1-3.973 0Z"/>
  </g>
  <defs>
    <linearGradient id="Key-Color-16_svg__b" x1="7.974" x2="7.974" y1="1.387" y2="15.257" gradientUnits="userSpaceOnUse">
      <stop offset=".008" stop-color="#E2A412"/>
      <stop offset="1" stop-color="#C18010"/>
    </linearGradient>
    <clipPath id="Key-Color-16_svg__a">
      <path fill="#fff" d="M0 0h16v16H0z"/>
    </clipPath>
  </defs>
</svg>
