<svg fill="none" viewBox="0 0 16 16" xmlns="http://www.w3.org/2000/svg">
  <path fill="#999" d="M8.267 2.223a3.75 3.75 0 0 1 5.324 0l.243.244a3.75 3.75 0 0 1 .138 5.136c-.29-.196-.61-.35-.952-.453l.104-.105a2.75 2.75 0 0 0 0-3.874l-.242-.244a2.75 2.75 0 0 0-3.905 0l-.313.316a.5.5 0 0 1-.71-.704l.313-.316Zm.278 7.593a2.737 2.737 0 0 1-1.337-.744l-.103-.103a.5.5 0 1 0-.71.704l.103.104c.556.56 1.245.909 1.967 1.044l.008-.003v-.292c0-.243.025-.48.072-.71Z"/>
  <path fill="#999" d="M7 13.095a2.75 2.75 0 0 1-3.882-.023l-.242-.243a2.75 2.75 0 0 1 0-3.874l2.011-2.028a2.75 2.75 0 0 1 3.905 0l.103.104a.5.5 0 1 0 .71-.704l-.103-.104a3.75 3.75 0 0 0-5.324 0L2.166 8.25a3.75 3.75 0 0 0 0 5.283l.242.244A3.752 3.752 0 0 0 7 14.352v-1.257Z"/>
  <path fill="#888" fill-rule="evenodd" d="M9.474 10.526a2.526 2.526 0 0 1 5.052 0v2.027a2.526 2.526 0 0 1-5.052 0v-2.027ZM12 9c-.843 0-1.526.683-1.526 1.526v2.027a1.526 1.526 0 0 0 3.052 0v-2.027C13.526 9.683 12.843 9 12 9Z" clip-rule="evenodd"/>
  <path fill="#FC3" d="M8.5 12.921c0-.407.33-.737.737-.737h5.526c.407 0 .737.33.737.737v1.842c0 .407-.33.737-.737.737H9.237a.737.737 0 0 1-.737-.737v-1.842Z"/>
  <path fill="url(#Link-Secure-Color-16_svg__a)" fill-rule="evenodd" d="M8 12.921c0-.683.554-1.237 1.237-1.237h5.526c.683 0 1.237.554 1.237 1.237v1.842c0 .683-.554 1.237-1.237 1.237H9.237A1.237 1.237 0 0 1 8 14.763v-1.842Zm1.237-.237a.237.237 0 0 0-.237.237v1.842c0 .131.106.237.237.237h5.526a.237.237 0 0 0 .237-.237v-1.842a.237.237 0 0 0-.237-.237H9.237Z" clip-rule="evenodd"/>
  <defs>
    <linearGradient id="Link-Secure-Color-16_svg__a" x1="11.987" x2="11.987" y1="12.058" y2="15.8" gradientUnits="userSpaceOnUse">
      <stop offset=".008" stop-color="#E2A412"/>
      <stop offset="1" stop-color="#C18010"/>
    </linearGradient>
  </defs>
</svg>
