<svg fill="none" viewBox="0 0 16 16" xmlns="http://www.w3.org/2000/svg">
  <path fill="#999" d="M12 5a4 4 0 0 0-8 0v6H3V5a5 5 0 0 1 10 0v6h-1V5Z"/>
  <path fill="#F9BE1A" d="M2 8h12v5.5a1.5 1.5 0 0 1-1.5 1.5h-9A1.5 1.5 0 0 1 2 13.5V8Z"/>
  <path fill="#FFDE7A" d="M2 8h6v7H3.5A1.5 1.5 0 0 1 2 13.5V8Z"/>
  <path fill="url(#Lock-Color-16_svg__a)" d="M14 9.25C14 8.56 13.44 8 12.75 8h-9.5C2.56 8 2 8.56 2 9.25V12a3 3 0 0 0 3 3h6a3 3 0 0 0 3-3V9.25ZM15 12a4 4 0 0 1-4 4H5a4 4 0 0 1-4-4V9.25A2.25 2.25 0 0 1 3.25 7h9.5A2.25 2.25 0 0 1 15 9.25V12Z"/>
  <defs>
    <linearGradient id="Lock-Color-16_svg__a" x1="7.977" x2="7.977" y1="7.78" y2="15.582" gradientUnits="userSpaceOnUse">
      <stop offset=".008" stop-color="#E2A412"/>
      <stop offset="1" stop-color="#C18010"/>
    </linearGradient>
  </defs>
</svg>
