<svg fill="none" viewBox="0 0 16 16" xmlns="http://www.w3.org/2000/svg">
  <g clip-path="url(#Privacy-Check-Color-16_svg__a)">
    <path fill="url(#Privacy-Check-Color-16_svg__b)" d="M11 2.5h2.5l1.5 1V8a5 5 0 0 0-6.904 7.124c.102.126.056.319-.096.376"/>
    <path fill="url(#Privacy-Check-Color-16_svg__c)" d="M11 2.5h2.5l1.5 1V8a4.978 4.978 0 0 0-3-1 4.992 4.992 0 0 0-4 2V.5l3 2Z"/>
    <path fill="url(#Privacy-Check-Color-16_svg__d)" d="M6.119.667A2.875 2.875 0 0 1 9.963.8l.96.926c.29.279.706.383 1.092.272l.563-.162a2.625 2.625 0 0 1 3.349 2.448l.065 2.28c.013.45-.009.897-.062 1.335-.042.348-.48.467-.75.244a5.037 5.037 0 0 0-.264-.203 7.94 7.94 0 0 0 .076-1.348l-.065-2.28a1.625 1.625 0 0 0-2.072-1.515l-.564.162c-.73.21-1.516.014-2.062-.514l-.96-.925a1.875 1.875 0 0 0-2.507-.087l-.07.061-1.056.98a2.125 2.125 0 0 1-1.914.514l-.135-.035-.417-.123a1.625 1.625 0 0 0-2.086 1.519l-.055 2.284a8 8 0 0 0 4.554 7.41l1.56.744.102.045a2 2 0 0 0 .74.15c.074.097.15.193.23.285.238.275.13.717-.233.714a3 3 0 0 1-1.116-.223l-.154-.068-1.56-.744A9 9 0 0 1 .03 6.61l.054-2.285.008-.16A2.626 2.626 0 0 1 3.455 1.87l.416.123.072.02c.36.08.74-.02 1.013-.273L6.012.76 6.12.667Z"/>
    <path fill="#4CBA3C" d="M15.5 12a3.5 3.5 0 1 1-7 0 3.5 3.5 0 0 1 7 0Z"/>
    <path fill="url(#Privacy-Check-Color-16_svg__e)" d="M15 12a3 3 0 1 0-6 0 3 3 0 0 0 6 0Zm1 0a4 4 0 1 1-8 0 4 4 0 0 1 8 0Z"/>
    <path fill="#fff" d="M13.184 10.737a.5.5 0 0 1 .704.703l-.035.039-1.875 1.875a.5.5 0 0 1-.668.034l-.039-.034-1.125-1.125-.034-.039a.5.5 0 0 1 .703-.703l.038.034.772.772 1.521-1.521.038-.035Z"/>
  </g>
  <defs>
    <linearGradient id="Privacy-Check-Color-16_svg__b" x1="8.004" x2="8.088" y1="1" y2="15.499" gradientUnits="userSpaceOnUse">
      <stop stop-color="#FFF0C2"/>
      <stop offset="1" stop-color="#FFDE7A"/>
    </linearGradient>
    <linearGradient id="Privacy-Check-Color-16_svg__c" x1="11.5" x2="11.5" y1=".5" y2="15.483" gradientUnits="userSpaceOnUse">
      <stop stop-color="#FFDE7A"/>
      <stop offset="1" stop-color="#F9BE1A"/>
    </linearGradient>
    <linearGradient id="Privacy-Check-Color-16_svg__d" x1="7.985" x2="7.985" y1="1.38" y2="15.239" gradientUnits="userSpaceOnUse">
      <stop offset=".008" stop-color="#E2A412"/>
      <stop offset="1" stop-color="#C18010"/>
    </linearGradient>
    <linearGradient id="Privacy-Check-Color-16_svg__e" x1="12" x2="12" y1="8" y2="16" gradientUnits="userSpaceOnUse">
      <stop stop-color="#4CBA3C"/>
      <stop offset="1" stop-color="#288419"/>
    </linearGradient>
    <clipPath id="Privacy-Check-Color-16_svg__a">
      <path fill="#fff" d="M0 0h16v16H0z"/>
    </clipPath>
  </defs>
</svg>
