<svg fill="none" viewBox="0 0 16 16" xmlns="http://www.w3.org/2000/svg">
  <g clip-path="url(#Privacy-Check-Gray-Color-16_svg__a)">
    <path fill="url(#Privacy-Check-Gray-Color-16_svg__b)" d="M11 2.5h2.5l1.5 1V8a5 5 0 0 0-7 7v.5L4 14 1 9.5v-6l1.5-1H5l3-2 3 2Z"/>
    <path fill="url(#Privacy-Check-Gray-Color-16_svg__c)" d="M11 2.5h2.5l1.5 1V8a4.978 4.978 0 0 0-3-1 4.992 4.992 0 0 0-4 2V.5l3 2Z"/>
    <path fill="url(#Privacy-Check-Gray-Color-16_svg__d)" d="M6.012.761a2.876 2.876 0 0 1 3.952.04l.96.925c.289.28.705.383 1.091.272l.564-.161a2.625 2.625 0 0 1 3.348 2.448l.066 2.28.003.333a8.828 8.828 0 0 1-.031.669c-.041.486-.653.657-1.05.372.05-.345.078-.695.08-1.05l-.002-.295-.065-2.28a1.625 1.625 0 0 0-2.073-1.516l-.563.162c-.73.21-1.517.013-2.063-.514L9.27 1.52a1.875 1.875 0 0 0-2.577-.025l-1.057.98c-.55.51-1.329.692-2.049.479l-.416-.124a1.625 1.625 0 0 0-2.086 1.52L1.03 6.633a8.001 8.001 0 0 0 4.554 7.41l1.558.744.208.085c.206.07.42.104.635.106.31.417.144 1.044-.37.978a2.987 2.987 0 0 1-.903-.267l-1.56-.744A9.001 9.001 0 0 1 .03 6.61l.055-2.284a2.625 2.625 0 0 1 3.37-2.454l.417.123c.38.113.793.016 1.085-.254l1.055-.98Z"/>
    <path fill="#4CBA3C" d="M15.5 12a3.5 3.5 0 1 1-7 0 3.5 3.5 0 0 1 7 0Z"/>
    <path fill="url(#Privacy-Check-Gray-Color-16_svg__e)" d="M15 12a3 3 0 1 0-6 0 3 3 0 0 0 6 0Zm1 0a4 4 0 1 1-8 0 4 4 0 0 1 8 0Z"/>
    <path fill="#fff" d="M13.225 10.707a.5.5 0 0 1 .693.693l-.064.079-1.875 1.875a.5.5 0 0 1-.63.064l-.077-.064-1.125-1.125-.065-.079a.5.5 0 0 1 .694-.693l.078.064.771.772 1.522-1.522.078-.064Z"/>
  </g>
  <defs>
    <linearGradient id="Privacy-Check-Gray-Color-16_svg__b" x1="8.004" x2="8.088" y1="1" y2="15.499" gradientUnits="userSpaceOnUse">
      <stop stop-color="#F5F5F5"/>
      <stop offset="1" stop-color="#DDD"/>
    </linearGradient>
    <linearGradient id="Privacy-Check-Gray-Color-16_svg__c" x1="11.5" x2="11.5" y1=".5" y2="15.483" gradientUnits="userSpaceOnUse">
      <stop stop-color="#DDD"/>
      <stop offset="1" stop-color="#AAA"/>
    </linearGradient>
    <linearGradient id="Privacy-Check-Gray-Color-16_svg__d" x1="8.012" x2="8.012" y1="15.961" y2="-.006" gradientUnits="userSpaceOnUse">
      <stop stop-color="#888"/>
      <stop offset="1" stop-color="#AAA"/>
    </linearGradient>
    <linearGradient id="Privacy-Check-Gray-Color-16_svg__e" x1="12" x2="12" y1="8.5" y2="15.5" gradientUnits="userSpaceOnUse">
      <stop stop-color="#399F29"/>
      <stop offset="1" stop-color="#288419"/>
    </linearGradient>
    <clipPath id="Privacy-Check-Gray-Color-16_svg__a">
      <path fill="#fff" d="M0 0h16v16H0z"/>
    </clipPath>
  </defs>
</svg>
