<svg fill="none" viewBox="0 0 16 16" xmlns="http://www.w3.org/2000/svg">
  <g clip-path="url(#Profile-Color-16_svg__a)">
    <path fill="#96E38A" d="M16 8A8 8 0 1 1 0 8a8 8 0 0 1 16 0Z"/>
    <path fill="#1A690D" d="M15 8a7 7 0 1 0-7 7v1A8 8 0 1 1 8 0a8 8 0 0 1 0 16v-1a7 7 0 0 0 7-7Z"/>
    <path fill="#63C853" d="M8 9.5c2.534 0 4.673 1.614 5.364 3.827A7.605 7.605 0 0 1 8 15.506a7.606 7.606 0 0 1-5.365-2.18C3.325 11.113 5.466 9.5 8 9.5Zm0-6a2.5 2.5 0 1 1 0 5 2.5 2.5 0 0 1 0-5Z"/>
    <path fill="url(#Profile-Color-16_svg__b)" d="M8 0a8 8 0 1 1 0 16A8 8 0 0 1 8 0Zm-.006 10a5.693 5.693 0 0 0-2.971.835 5.34 5.34 0 0 0-1.968 2.12A6.978 6.978 0 0 0 8 15a6.98 6.98 0 0 0 4.945-2.046 5.326 5.326 0 0 0-1.816-2.02l-.163-.105A5.692 5.692 0 0 0 7.994 10ZM8 1a7 7 0 0 0-5.64 11.146A6.362 6.362 0 0 1 4.5 9.983l.197-.117A6.699 6.699 0 0 1 7.992 9a6.692 6.692 0 0 1 3.495.976l.194.123a6.35 6.35 0 0 1 1.96 2.046A7 7 0 0 0 8 1Zm0 2a3 3 0 1 1 0 6 3 3 0 0 1 0-6Zm0 1a2 2 0 1 0 0 4 2 2 0 0 0 0-4Z"/>
  </g>
  <defs>
    <linearGradient id="Profile-Color-16_svg__b" x1="8" x2="8" y1="0" y2="16" gradientUnits="userSpaceOnUse">
      <stop stop-color="#4CBA3C"/>
      <stop offset="1" stop-color="#288419"/>
    </linearGradient>
    <clipPath id="Profile-Color-16_svg__a">
      <path fill="#fff" d="M0 0h16v16H0z"/>
    </clipPath>
  </defs>
</svg>
