<svg fill="none" viewBox="0 0 16 16" xmlns="http://www.w3.org/2000/svg">
  <g clip-path="url(#Radar-Color-16_svg__a)">
    <path fill="url(#Radar-Color-16_svg__b)" fill-rule="evenodd" d="M8 15A7 7 0 1 0 8 1a7 7 0 0 0 0 14Z" clip-rule="evenodd"/>
    <path fill="#399F29" fill-rule="evenodd" d="M8 15A7 7 0 1 0 8 1a7 7 0 0 0 0 14Z" clip-rule="evenodd"/>
    <path fill="#D3FFCC" d="M7.42.036a8 8 0 0 1 2.085.118l-1.491 7.86L7.42.036Z" opacity=".7"/>
    <path fill="#D3FFCC" d="M9.505.154a8 8 0 0 1 1.983.654L8.014 8.014 9.505.154Z" opacity=".8"/>
    <path fill="#288419" d="M15.167 4.433c.313.625.543 1.288.684 1.973L8.014 8.014l7.153-3.581Z" opacity=".2"/>
    <path fill="#288419" d="M13.996 2.703a7.998 7.998 0 0 1 1.171 1.729L8.014 8.014l5.982-5.311Z" opacity=".4"/>
    <path fill="#D3FFCC" d="M11.489.808a7.98 7.98 0 0 1 1.746 1.144L8.014 8.014 11.489.808Z" opacity=".9"/>
    <path fill="#D3FFCC" d="M1.953 2.792a8 8 0 0 1 1.558-1.39l4.503 6.612-6.061-5.222Z" opacity=".4"/>
    <path fill="#D3FFCC" d="M3.51 1.401a8 8 0 0 1 1.865-.94l2.639 7.553L3.51 1.4Z" opacity=".5"/>
    <path fill="#D3FFCC" d="M5.375.461A8 8 0 0 1 7.42.036l.594 7.978L5.375.46Z" opacity=".6"/>
    <path fill="#D3FFCC" d="M.036 8.607a8 8 0 0 1 .118-2.085l7.86 1.492-7.978.593Z" opacity=".1"/>
    <path fill="#D3FFCC" d="M.154 6.522A8 8 0 0 1 .808 4.54l7.206 3.475-7.86-1.492Z" opacity=".2"/>
    <path fill="#D3FFCC" d="M.808 4.539a8 8 0 0 1 1.145-1.747l6.06 5.222L.809 4.539Z" opacity=".3"/>
    <path fill="#fff" d="M13.503 3.203 8.587 8.119a.6.6 0 1 1-.706-.708l4.915-4.915.707.707Z"/>
    <path fill="url(#Radar-Color-16_svg__c)" d="M8 0a8 8 0 1 1 0 16A8 8 0 0 1 8 0Zm0 1a7 7 0 1 0 0 14A7 7 0 0 0 8 1Z"/>
    <path fill="#fff" d="M8.9 3a.7.7 0 1 1-1.4 0 .7.7 0 0 1 1.4 0Z"/>
    <path fill="#D3FFCC" d="M7.7 13a.7.7 0 1 1-1.4 0 .7.7 0 0 1 1.4 0Z" opacity=".4"/>
    <path fill="#fff" d="M6.5 3.8a.7.7 0 1 1-1.4 0 .7.7 0 0 1 1.4 0Z"/>
    <path fill="#D3FFCC" d="M5.3 7a.7.7 0 1 1-1.4 0 .7.7 0 0 1 1.4 0Z" opacity=".9"/>
    <path fill="#D3FFCC" d="M3.7 8.6a.7.7 0 1 1-1.4 0 .7.7 0 0 1 1.4 0Z" opacity=".7"/>
    <path fill="#D3FFCC" d="M5.7 11a.7.7 0 1 1-1.4 0 .7.7 0 0 1 1.4 0Z" opacity=".3"/>
  </g>
  <defs>
    <linearGradient id="Radar-Color-16_svg__b" x1="8" x2="8" y1="1" y2="15" gradientUnits="userSpaceOnUse">
      <stop stop-color="#399F29"/>
      <stop offset="1" stop-color="#1A690D"/>
    </linearGradient>
    <linearGradient id="Radar-Color-16_svg__c" x1="8" x2="8" y1="0" y2="16" gradientUnits="userSpaceOnUse">
      <stop stop-color="#399F29"/>
      <stop offset="1" stop-color="#1A690D"/>
    </linearGradient>
    <clipPath id="Radar-Color-16_svg__a">
      <path fill="#fff" d="M0 0h16v16H0z"/>
    </clipPath>
  </defs>
</svg>
