<svg fill="none" viewBox="0 0 16 16" xmlns="http://www.w3.org/2000/svg">
  <g clip-path="url(#Rocket-Color-16_svg__a)">
    <path fill="#FC3" d="M2 10.5S.625 13.75.625 15.375C2.25 15.375 5.5 14 5.5 14L2 10.5Z"/>
    <path fill="#DE5833" d="m1 6.5-.25 1L2.5 9l-.25 1.5 3.5 3.5 1-.25L8.5 15.5l1.25-.5.75-3.5 3.5-5 1.5-4.75-1-1-5.75 1.5-4 3.25L1 6.5Z"/>
    <path fill="#F5F5F5" d="M11 1.5 6 4 2.5 9l-.25 1.5 3.5 3.5 1-.25L12 10l2.5-5L11 1.5Z"/>
    <path fill="#9A3216" d="m10.5 11.5.498.033v.008l-.001.017-.005.061-.024.225a13.1 13.1 0 0 1-.114.788 12.445 12.445 0 0 1-.657 2.386c-.222.56-.7.88-1.218.937a1.671 1.671 0 0 1-1.42-.557l-1.181-1.313.743-.67 1.182 1.314a.671.671 0 0 0 .565.232.469.469 0 0 0 .4-.31c.31-.787.495-1.585.601-2.191a12.211 12.211 0 0 0 .127-.929l.004-.05v-.014l.5.033ZM4.466 5.001 4.533 6h-.014l-.05.004a12.21 12.21 0 0 0-.928.126 11.52 11.52 0 0 0-2.192.602.47.47 0 0 0-.31.4.67.67 0 0 0 .232.564l1.313 1.182-.669.744L.602 8.44a1.67 1.67 0 0 1-.557-1.42c.057-.517.377-.997.937-1.218.87-.345 1.739-.544 2.385-.658a13.155 13.155 0 0 1 1.013-.137l.062-.005L4.459 5h.007Z"/>
    <path fill="#C18010" d="m1.34 12.231-.405-.218a.5.5 0 0 1 .88.474v.002l-.006.011-.025.047a8.678 8.678 0 0 0-.376.887c-.159.442-.31.98-.376 1.533a7.068 7.068 0 0 0 1.533-.375 8.657 8.657 0 0 0 .887-.376l.048-.025.011-.005.002-.002a.5.5 0 0 1 .474.881l-.222-.413.222.413-.001.001h-.002l-.005.003-.017.01a4.722 4.722 0 0 1-.282.136 9.667 9.667 0 0 1-.777.318C2.268 15.761 1.393 16 .5 16a.5.5 0 0 1-.497-.449L0 15.5c0-.894.239-1.768.467-2.403a9.658 9.658 0 0 1 .455-1.06l.009-.017.002-.005h.001v-.002l.406.218Zm2.401 2.377.01.017.014.027-.024-.043ZM1.375 12.25l-.035-.019.035.019Z"/>
    <path fill="url(#Rocket-Color-16_svg__b)" d="M14.298.055a1.532 1.532 0 0 1 1.647 1.647l-.027.33c-.627 6.655-4.6 10.323-9.161 12.083l-.45.167a1.466 1.466 0 0 1-1.525-.352l-2.661-2.662a1.468 1.468 0 0 1-.386-1.422l.032-.102C3.48 4.924 7.214.602 14.298.055Zm.078.997C7.772 1.562 4.32 5.541 2.71 10.08l-.017.06a.47.47 0 0 0 .135.422l2.661 2.662a.464.464 0 0 0 .482.117c4.46-1.588 8.349-4.994 8.951-11.407l.027-.307a.532.532 0 0 0-.573-.574Z"/>
    <path fill="url(#Rocket-Color-16_svg__c)" d="M14.298.055c.94-.072 1.72.708 1.648 1.647l-.028.33a16.1 16.1 0 0 1-.754 3.632l-.797-.797c.266-.9.456-1.876.555-2.934l.027-.307a.533.533 0 0 0-.573-.574 15.38 15.38 0 0 0-3.238.586l-.796-.795c1.185-.403 2.5-.675 3.956-.788Z"/>
    <path fill="#8FABF9" d="M10 7.5a1.5 1.5 0 1 1 0-3 1.5 1.5 0 0 1 0 3Z"/>
    <path fill="url(#Rocket-Color-16_svg__d)" d="M9.99 6.732a.741.741 0 1 0-.74-.741H8l.002-.103a1.991 1.991 0 0 1 1.886-1.886L9.991 4c1.1 0 1.99.891 1.99 1.99l-.002.103a1.991 1.991 0 0 1-1.988 1.889l-.103-.003A1.991 1.991 0 0 1 8 5.991h1.25c0 .409.332.74.74.74Z"/>
  </g>
  <defs>
    <linearGradient id="Rocket-Color-16_svg__b" x1="8.817" x2="8.817" y1=".051" y2="14.365" gradientUnits="userSpaceOnUse">
      <stop stop-color="#AAA"/>
      <stop offset="1" stop-color="#666"/>
    </linearGradient>
    <linearGradient id="Rocket-Color-16_svg__c" x1="8.817" x2="8.817" y1=".051" y2="14.364" gradientUnits="userSpaceOnUse">
      <stop stop-color="#BC4726"/>
      <stop offset="1" stop-color="#77230C"/>
    </linearGradient>
    <linearGradient id="Rocket-Color-16_svg__d" x1="9.991" x2="9.991" y1="4" y2="7.982" gradientUnits="userSpaceOnUse">
      <stop stop-color="#2B55CA"/>
      <stop offset="1" stop-color="#3969EF"/>
    </linearGradient>
    <clipPath id="Rocket-Color-16_svg__a">
      <path fill="#fff" d="M0 0h16v16H0z"/>
    </clipPath>
  </defs>
</svg>
