<svg fill="none" viewBox="0 0 16 16" xmlns="http://www.w3.org/2000/svg">
  <g clip-path="url(#Session-Restore-Color-16_svg__a)">
    <path fill="#DDD" d="M2.5 1A2.5 2.5 0 0 0 0 3.5v9A2.5 2.5 0 0 0 2.5 15h7.804a.764.764 0 0 0-.218-.586l-2-2a2 2 0 0 1 0-2.828l2-2a2 2 0 0 1 3.395 1.687 5.736 5.736 0 0 1 1.554.628c.37.222.693.486.965.786V3.5A2.5 2.5 0 0 0 13.5 1h-11Z"/>
    <path fill="#F5F5F5" d="M13.5 1h-3A2.5 2.5 0 0 0 8 3.5v.967A.533.533 0 0 1 7.467 5H0v7.5A2.5 2.5 0 0 0 2.5 15h7.804a.764.764 0 0 0-.218-.586l-2-2a2 2 0 0 1 0-2.828l2-2a2 2 0 0 1 3.395 1.687 5.736 5.736 0 0 1 1.554.628c.37.222.693.486.965.786V3.5A2.5 2.5 0 0 0 13.5 1Z"/>
    <path fill="#666" fill-rule="evenodd" d="M0 3.5A2.5 2.5 0 0 1 2.5 1h11A2.5 2.5 0 0 1 16 3.5v7.187a4.248 4.248 0 0 0-1-.807V3.5A1.5 1.5 0 0 0 13.5 2h-3A1.5 1.5 0 0 0 9 3.5v.967C9 5.314 8.313 6 7.467 6H1v6.5A1.5 1.5 0 0 0 2.5 14h7.172l.414.414a.764.764 0 0 1 .218.586H2.5A2.5 2.5 0 0 1 0 12.5v-9Zm1 0V5h3V3.5c0-.563.186-1.082.5-1.5h-2A1.5 1.5 0 0 0 1 3.5ZM7.467 5H5V3.5A1.5 1.5 0 0 1 6.5 2h2c-.314.418-.5.937-.5 1.5v.967A.533.533 0 0 1 7.467 5Z" clip-rule="evenodd"/>
    <path fill="#3969EF" fill-rule="evenodd" d="M11.854 8.646a.5.5 0 0 1 0 .708L10.707 10.5H11c1.388 0 2.49.223 3.262.687.804.483 1.226 1.216 1.226 2.11 0 .932-.552 1.618-1.19 2.05-.63.426-1.412.653-2.048.653a.5.5 0 1 1 0-1c.43 0 1.017-.164 1.489-.482.465-.315.75-.73.75-1.22 0-.529-.225-.944-.742-1.254-.548-.33-1.44-.544-2.747-.544h-.293l1.147 1.146a.5.5 0 0 1-.708.707l-2-2a.5.5 0 0 1 0-.707l2-2a.5.5 0 0 1 .708 0Z" clip-rule="evenodd"/>
  </g>
  <defs>
    <clipPath id="Session-Restore-Color-16_svg__a">
      <path fill="#fff" d="M0 0h16v16H0z"/>
    </clipPath>
  </defs>
</svg>
