<svg fill="none" viewBox="0 0 16 16" xmlns="http://www.w3.org/2000/svg">
  <g clip-path="url(#Settings-Color-16_svg__a)">
    <path fill="#CCC" d="M9.764 14.28c0-1.057 1.222-1.646 2.049-.986a1.262 1.262 0 0 0 1.773-.2l.626-.785a1.262 1.262 0 0 0-.2-1.774c-.827-.659-.525-1.982.506-2.217a1.262 1.262 0 0 0 .95-1.511l-.224-.978a1.262 1.262 0 0 0-1.511-.95c-1.031.235-1.877-.825-1.418-1.778a1.262 1.262 0 0 0-.59-1.685L10.82.98a1.262 1.262 0 0 0-1.684.59c-.458.952-1.815.952-2.273 0A1.262 1.262 0 0 0 5.179.98l-.905.436a1.262 1.262 0 0 0-.59 1.685c.459.952-.387 2.013-1.418 1.778a1.262 1.262 0 0 0-1.51.949l-.224.979c-.155.68.27 1.356.95 1.511 1.03.235 1.332 1.558.505 2.217a1.262 1.262 0 0 0-.2 1.774l.626.785a1.262 1.262 0 0 0 1.774.2c.827-.66 2.049-.071 2.049.986 0 .697.565 1.263 1.262 1.263h1.004c.697 0 1.262-.566 1.262-1.263ZM8 10.5a2.5 2.5 0 1 1 0-5 2.5 2.5 0 0 1 0 5Z"/>
    <path fill="url(#Settings-Color-16_svg__b)" d="M9.264 14.28a.763.763 0 0 1-.762.763H7.498a.762.762 0 0 1-.762-.763c0-1.476-1.707-2.297-2.86-1.377a.762.762 0 0 1-1.02-.063l-.052-.058-.626-.784a.762.762 0 0 1 .121-1.072c1.119-.891.758-2.652-.574-3.06l-.132-.035a.762.762 0 0 1-.573-.913l.223-.979.021-.075a.762.762 0 0 1 .891-.498l.134.026c1.333.204 2.396-1.13 1.9-2.383l-.054-.125a.762.762 0 0 1 .356-1.017l.905-.436.071-.03a.762.762 0 0 1 .945.386c.64 1.33 2.535 1.33 3.175 0a.762.762 0 0 1 1.017-.356l.904.435c.38.183.539.638.356 1.018-.64 1.33.541 2.811 1.98 2.483a.762.762 0 0 1 .913.573l.223.978a.762.762 0 0 1-.498.892l-.075.02c-1.44.33-1.86 2.176-.707 3.096l.059.052a.762.762 0 0 1 .107.956l-.045.064-.626.784a.762.762 0 0 1-1.07.12c-1.155-.92-2.861-.098-2.861 1.378ZM10 8a2 2 0 0 1-1.897 1.998L8 10a2 2 0 0 1 0-4l.103.002A2 2 0 0 1 10 8Zm1 0a3 3 0 0 0-2.846-2.996L8 5a3 3 0 0 0 0 6l.154-.004A3 3 0 0 0 11 8Zm-.736 6.28a.762.762 0 0 1 1.237-.595c.761.606 1.87.481 2.476-.28l.626-.784.055-.073a1.763 1.763 0 0 0-.265-2.345l-.07-.058a.762.762 0 0 1 .306-1.34l.088-.022a1.762 1.762 0 0 0 1.238-2.088l-.223-.978a1.762 1.762 0 0 0-2.11-1.325.762.762 0 0 1-.857-1.074 1.762 1.762 0 0 0-.823-2.353L11.037.53a1.762 1.762 0 0 0-2.35.823.762.762 0 0 1-1.373 0 1.762 1.762 0 0 0-2.27-.86L4.963.53l-.905.436a1.762 1.762 0 0 0-.823 2.352l.023.054a.762.762 0 0 1-.821 1.03l-.058-.01A1.76 1.76 0 0 0 .292 5.629l-.023.088-.223.978a1.762 1.762 0 0 0 1.325 2.11l.057.016a.762.762 0 0 1 .249 1.324 1.762 1.762 0 0 0-.28 2.476l.626.784.058.07a1.762 1.762 0 0 0 2.419.21.762.762 0 0 1 1.237.595c0 .974.789 1.763 1.762 1.763h1.004c.973 0 1.762-.79 1.762-1.763Z"/>
  </g>
  <defs>
    <linearGradient id="Settings-Color-16_svg__b" x1="8" x2="8" y1=".355" y2="16.043" gradientUnits="userSpaceOnUse">
      <stop stop-color="#AAA"/>
      <stop offset="1" stop-color="#888"/>
    </linearGradient>
    <clipPath id="Settings-Color-16_svg__a">
      <path fill="#fff" d="M0 0h16v16H0z"/>
    </clipPath>
  </defs>
</svg>
