<svg fill="none" viewBox="0 0 16 16" xmlns="http://www.w3.org/2000/svg">
  <g clip-path="url(#Shield-Neutral-Alert-Color-16_svg__a)">
    <path fill="url(#Shield-Neutral-Alert-Color-16_svg__b)" d="M10.057 1.872A3.5 3.5 0 0 0 15 5.663V9.5L12 14l-4 1.5L4 14 1 9.5v-6l1.5-1H5l3-2 2.057 1.372Z"/>
    <path fill="url(#Shield-Neutral-Alert-Color-16_svg__c)" d="M10.057 1.872A3.5 3.5 0 0 0 15 5.663V9.5L12 14l-3 1H8V.5l2.057 1.372Z"/>
    <path fill="url(#Shield-Neutral-Alert-Color-16_svg__d)" d="M6.119.667a2.877 2.877 0 0 1 3.15-.362c.27.137.498.32.716.52.184.169.23.437.16.677-.07.235-.116.48-.135.733l-.74-.715a1.875 1.875 0 0 0-2.508-.087l-.07.061-1.056.98a2.125 2.125 0 0 1-1.914.514l-.135-.035-.417-.123a1.625 1.625 0 0 0-2.086 1.519l-.055 2.284a8 8 0 0 0 4.554 7.41l1.56.744.102.045a2 2 0 0 0 1.614-.043l1.562-.74a8 8 0 0 0 4.571-7.457l-.026-.915a3.73 3.73 0 0 0 .05-.023c.392-.189.951.053.964.489l.012.421a9 9 0 0 1-5.143 8.389l-1.561.74a3 3 0 0 1-2.422.065l-.154-.068-1.56-.744A9 9 0 0 1 .03 6.61l.054-2.285.008-.16A2.626 2.626 0 0 1 3.455 1.87l.416.123.072.02c.36.08.74-.02 1.013-.273L6.012.76 6.12.667Z"/>
    <path fill="#EE1025" d="M16 2.5a2.5 2.5 0 1 1-5 0 2.5 2.5 0 0 1 5 0Z"/>
  </g>
  <defs>
    <linearGradient id="Shield-Neutral-Alert-Color-16_svg__b" x1="8.004" x2="8.088" y1="1" y2="15.499" gradientUnits="userSpaceOnUse">
      <stop stop-color="#F5F5F5"/>
      <stop offset="1" stop-color="#DDD"/>
    </linearGradient>
    <linearGradient id="Shield-Neutral-Alert-Color-16_svg__c" x1="11.5" x2="11.5" y1=".5" y2="15.483" gradientUnits="userSpaceOnUse">
      <stop stop-color="#DDD"/>
      <stop offset="1" stop-color="#AAA"/>
    </linearGradient>
    <linearGradient id="Shield-Neutral-Alert-Color-16_svg__d" x1="8.011" x2="8.011" y1="15.982" y2="-.006" gradientUnits="userSpaceOnUse">
      <stop stop-color="#888"/>
      <stop offset="1" stop-color="#AAA"/>
    </linearGradient>
    <clipPath id="Shield-Neutral-Alert-Color-16_svg__a">
      <path fill="#fff" d="M0 0h16v16H0z"/>
    </clipPath>
  </defs>
</svg>
