<svg fill="none" viewBox="0 0 16 16" xmlns="http://www.w3.org/2000/svg">
  <path fill="#A591DC" d="m.587 10.314.962-4.81A1.25 1.25 0 0 1 2.775 4.5h10.45c.596 0 1.11.42 1.226 1.005l.962 4.809A3.5 3.5 0 0 1 11.98 14.5H4.019a3.5 3.5 0 0 1-3.432-4.186Z"/>
  <path fill="url(#Shopping-Color-16-1_svg__a)" d="M13.226 4a1.75 1.75 0 0 1 1.716 1.407l.961 4.808A4 4 0 0 1 11.981 15H4.02a4 4 0 0 1-3.922-4.785l.961-4.808.037-.15A1.75 1.75 0 0 1 2.776 4h10.45ZM2.776 5a.75.75 0 0 0-.736.603l-.962 4.809A3 3 0 0 0 4.02 14h7.96a3 3 0 0 0 2.943-3.588l-.962-4.809A.75.75 0 0 0 13.225 5H2.776Z"/>
  <path fill="#6B4EBA" d="M10 5.5V3a2 2 0 1 0-4 0v2.5a.5.5 0 0 1-1 0V3a3 3 0 0 1 6 0v2.5a.5.5 0 0 1-1 0Z"/>
  <path fill="#fff" d="M8 6.5a.5.5 0 0 1 .5.5v3.793l1.646-1.646a.5.5 0 0 1 .707.707l-1.65 1.65a1.7 1.7 0 0 1-2.405 0l-1.652-1.65-.034-.039a.5.5 0 0 1 .703-.703l.038.034L7.5 10.793V7a.5.5 0 0 1 .5-.5Z"/>
  <defs>
    <linearGradient id="Shopping-Color-16-1_svg__a" x1="8" x2="8" y1="4" y2="15" gradientUnits="userSpaceOnUse">
      <stop stop-color="#876ECB"/>
      <stop offset="1" stop-color="#5132A9"/>
    </linearGradient>
  </defs>
</svg>
