<svg fill="none" viewBox="0 0 16 16" xmlns="http://www.w3.org/2000/svg">
  <g clip-path="url(#Survey-Color-16_svg__a)">
    <path fill="#FC3" d="M0 3.5A3.5 3.5 0 0 1 3.5 0h7A3.5 3.5 0 0 1 14 3.5v9a3.5 3.5 0 0 1-3.5 3.5h-7A3.5 3.5 0 0 1 0 12.5v-9Z"/>
    <path fill="#92540C" fill-rule="evenodd" d="M10.5 1h-7A2.5 2.5 0 0 0 1 3.5v9A2.5 2.5 0 0 0 3.5 15h7a2.5 2.5 0 0 0 2.5-2.5v-9A2.5 2.5 0 0 0 10.5 1Zm-7-1A3.5 3.5 0 0 0 0 3.5v9A3.5 3.5 0 0 0 3.5 16h7a3.5 3.5 0 0 0 3.5-3.5v-9A3.5 3.5 0 0 0 10.5 0h-7Z" clip-rule="evenodd"/>
    <path fill="#FFE8A3" d="M2 3.5a.5.5 0 0 1 .5-.5h9a.5.5 0 0 1 .5.5v9a1.5 1.5 0 0 1-1.5 1.5h-7A1.5 1.5 0 0 1 2 12.5v-9Z"/>
    <path fill="#DDD" d="M3 1.5A1.5 1.5 0 0 1 4.5 0h5a1.5 1.5 0 0 1 0 3h-5A1.5 1.5 0 0 1 3 1.5Z"/>
    <path fill="#666" fill-rule="evenodd" d="M9.5 1h-5a.5.5 0 0 0 0 1h5a.5.5 0 0 0 0-1Zm-5-1a1.5 1.5 0 1 0 0 3h5a1.5 1.5 0 0 0 0-3h-5Z" clip-rule="evenodd"/>
    <path fill="#DDD" d="m7.852 12.168 7.074-6.67a1.767 1.767 0 0 0-2.424-2.571L5.397 9.625c-.26.245-.449.556-.547.9L4 13.5l3.035-.867c.305-.087.586-.247.817-.465Z"/>
    <path fill="#CCC" d="m7.852 12.168 7.594-7.16a.879.879 0 0 0-1.205-1.28L6.5 11 4 13.5l3.035-.867c.305-.087.586-.247.817-.465Z"/>
    <path fill="#666" fill-rule="evenodd" d="M12.159 2.563a2.267 2.267 0 1 1 3.11 3.3l-7.074 6.669c-.29.273-.64.472-1.023.582l-3.035.867a.5.5 0 0 1-.618-.618l.85-2.975c.123-.43.36-.82.686-1.127l7.104-6.698Zm2.45.754a1.267 1.267 0 0 0-1.764-.026L5.74 9.989a1.488 1.488 0 0 0-.41.674l-.603 2.109 2.17-.62c.228-.065.438-.185.611-.348l7.074-6.67c.52-.49.532-1.312.027-1.817Z" clip-rule="evenodd"/>
  </g>
  <defs>
    <clipPath id="Survey-Color-16_svg__a">
      <path fill="#fff" d="M0 0h16v16H0z"/>
    </clipPath>
  </defs>
</svg>
