<svg fill="none" viewBox="0 0 16 16" xmlns="http://www.w3.org/2000/svg">
  <path fill="#DDD" d="M0 3.5A2.5 2.5 0 0 1 2.5 1h11A2.5 2.5 0 0 1 16 3.5v2C16 6.88 14.88 7 13.5 7h-11C1.12 7 0 6.88 0 5.5v-2Z"/>
  <path fill="#F5F5F5" d="M13.5 1h-5A2.5 2.5 0 0 0 6 3.5v.467a.533.533 0 0 1-.533.533H0v8A2.5 2.5 0 0 0 2.5 15H6c-.231-.308 1.572-.643 1.416-1A5 5 0 0 1 15 8c.379.284.716-1.878 1-1.5v-3A2.5 2.5 0 0 0 13.5 1Z"/>
  <path fill="#666" fill-rule="evenodd" d="M2.5 1h11A2.5 2.5 0 0 1 16 3.5v4.08c0 .456-.636.693-1 .42V3.5A1.5 1.5 0 0 0 13.5 2h-5A1.5 1.5 0 0 0 7 3.5v.467C7 4.814 6.314 5.5 5.467 5.5H1v7A1.5 1.5 0 0 0 2.5 14h4.916c.191.438-.099 1-.577 1H2.5A2.5 2.5 0 0 1 0 12.5v-9A2.5 2.5 0 0 1 2.5 1ZM1 4.5h4.467A.533.533 0 0 0 6 3.967V3.5c0-.563.186-1.082.5-1.5h-4A1.5 1.5 0 0 0 1 3.5v1Z" clip-rule="evenodd"/>
  <path fill="#CCDAFF" d="M16 12a4 4 0 1 1-8 0 4 4 0 0 1 8 0Z"/>
  <path fill="#1E42A4" fill-rule="evenodd" d="M12 15a3 3 0 1 0 0-6 3 3 0 0 0 0 6Zm0 1a4 4 0 1 0 0-8 4 4 0 0 0 0 8Z" clip-rule="evenodd"/>
  <path fill="#1E42A4" fill-rule="evenodd" d="M11.7 12.4a.5.5 0 0 1-.2-.4v-1.5a.5.5 0 1 1 1 0v1.25l.8.6a.5.5 0 0 1-.6.8l-1-.75Z" clip-rule="evenodd"/>
</svg>
