<svg fill="none" viewBox="0 0 16 16" xmlns="http://www.w3.org/2000/svg">
  <path fill="url(#Thumbs-Up-Color-16_svg__a)" d="M6.266.86c0 1.767.076 5.64-2.05 5.64h-1.18A1.25 1.25 0 0 0 1.79 7.872l.195 1.986c.01.095.03.187.06.277l.824 2.451a1.25 1.25 0 0 0 1.185.851h.664l7.383 1.042a1.754 1.754 0 0 0 1.747-.831 1.1 1.1 0 0 0 .12-.855l-.159-.578.51-.385a1.25 1.25 0 0 0 .4-1.478l-.253-.606.564-.452a1.25 1.25 0 0 0-.07-2.003l-.244-.17.32-.586a1.25 1.25 0 0 0-.18-1.448l-.173-.186a1.25 1.25 0 0 0-.917-.401H10.11c-1.105 0-1.083-.48-.83-1.555.04-.167.062-.357.062-.574 0-2-3.076-2.137-3.076-1.512Z"/>
  <path fill="url(#Thumbs-Up-Color-16_svg__b)" fill-rule="evenodd" d="M6.766 1.055c.001.88.002 2.229-.239 3.39-.13.624-.338 1.246-.693 1.721-.371.497-.905.834-1.618.834H3.035a.75.75 0 0 0-.747.823l.196 1.987a.75.75 0 0 0 .035.165l.825 2.452a.75.75 0 0 0 .71.51h.665c.023 0 .046.002.07.005l7.383 1.042c.498.07.99-.164 1.249-.594a.596.596 0 0 0 .065-.465l-.158-.579a.5.5 0 0 1 .18-.53l.51-.385a.75.75 0 0 0 .24-.886l-.253-.607a.5.5 0 0 1 .149-.582l.564-.452a.75.75 0 0 0-.041-1.202l-.245-.17a.5.5 0 0 1-.155-.65l.32-.587a.75.75 0 0 0-.108-.868l-.173-.187a.75.75 0 0 0-.55-.24H10.11c-.302 0-.584-.031-.822-.13a.996.996 0 0 1-.567-.56c-.094-.238-.094-.494-.07-.72.023-.23.08-.49.143-.76a2 2 0 0 0 .048-.459c0-.669-.495-1.077-1.167-1.257a2.21 2.21 0 0 0-.853-.069.981.981 0 0 0-.055.01ZM7.933.148C8.799.38 9.84 1.039 9.84 2.37a3 3 0 0 1-.075.689 5.378 5.378 0 0 0-.122.633.666.666 0 0 0 .004.243.178.178 0 0 0 .021.01c.06.025.19.054.44.054h3.657c.488 0 .953.203 1.284.56l.173.187a1.75 1.75 0 0 1 .252 2.027l-.107.197a1.75 1.75 0 0 1-.025 2.714l-.27.216.107.259a1.75 1.75 0 0 1-.56 2.069l-.238.18.068.253c.115.42.053.87-.173 1.244a2.254 2.254 0 0 1-2.245 1.068l-7.348-1.037h-.63a1.75 1.75 0 0 1-1.658-1.192l-.825-2.45a1.75 1.75 0 0 1-.083-.388L1.292 7.92A1.75 1.75 0 0 1 3.035 6h1.181c.35 0 .604-.147.816-.432.229-.305.4-.762.516-1.327.22-1.06.219-2.317.218-3.213V.86c0-.316.203-.518.368-.621.164-.102.358-.154.537-.182a3.2 3.2 0 0 1 1.262.092Z" clip-rule="evenodd"/>
  <path fill="url(#Thumbs-Up-Color-16_svg__c)" d="M.5 6.5a1 1 0 0 1 1-1h.995a1 1 0 0 1 .99.856l1.02 7a1 1 0 0 1-.99 1.144H1.5a1 1 0 0 1-1-1v-7Z"/>
  <path fill="url(#Thumbs-Up-Color-16_svg__d)" fill-rule="evenodd" d="M0 6.5A1.5 1.5 0 0 1 1.5 5h.995a1.5 1.5 0 0 1 1.484 1.284l1.021 7A1.5 1.5 0 0 1 3.516 15H1.5A1.5 1.5 0 0 1 0 13.5v-7ZM1.5 6a.5.5 0 0 0-.5.5v7a.5.5 0 0 0 .5.5h2.016a.5.5 0 0 0 .495-.572l-1.021-7A.5.5 0 0 0 2.495 6H1.5Z" clip-rule="evenodd"/>
  <defs>
    <linearGradient id="Thumbs-Up-Color-16_svg__a" x1="8.438" x2="9.041" y1="1.438" y2="15.029" gradientUnits="userSpaceOnUse">
      <stop stop-color="#CCDAFF"/>
      <stop offset=".681" stop-color="#ADC2FC"/>
      <stop offset="1" stop-color="#8FABF9"/>
    </linearGradient>
    <linearGradient id="Thumbs-Up-Color-16_svg__b" x1="8.999" x2="8.999" y1=".529" y2="14.641" gradientUnits="userSpaceOnUse">
      <stop stop-color="#3969EF"/>
      <stop offset="1" stop-color="#1E42A4"/>
    </linearGradient>
    <linearGradient id="Thumbs-Up-Color-16_svg__c" x1="2.469" x2="3.131" y1="7.102" y2="13.814" gradientUnits="userSpaceOnUse">
      <stop offset=".043" stop-color="#fff"/>
      <stop offset="1" stop-color="#CCDAFF"/>
    </linearGradient>
    <linearGradient id="Thumbs-Up-Color-16_svg__d" x1="2.586" x2="2.586" y1="3.063" y2="14.5" gradientUnits="userSpaceOnUse">
      <stop stop-color="#3969EF"/>
      <stop offset=".851" stop-color="#1E42A4"/>
    </linearGradient>
  </defs>
</svg>
