<svg fill="none" viewBox="0 0 16 16" xmlns="http://www.w3.org/2000/svg">
  <path fill="url(#Thumbs-Down-Neutral-Color-16_svg__a)" d="M6.266 15.14c0-1.767.076-5.64-2.05-5.64h-1.18A1.25 1.25 0 0 1 1.79 8.128l.195-1.986c.01-.095.03-.187.06-.277l.824-2.451a1.25 1.25 0 0 1 1.185-.852h.664l7.383-1.04a1.754 1.754 0 0 1 1.747.83 1.1 1.1 0 0 1 .12.855l-.159.578.51.385c.454.344.619.952.4 1.478l-.253.606.564.452a1.25 1.25 0 0 1-.07 2.003l-.244.17.32.586a1.25 1.25 0 0 1-.18 1.448l-.173.186a1.25 1.25 0 0 1-.917.401H10.11c-1.105 0-1.083.48-.83 1.555.04.167.062.357.062.574 0 2-3.076 2.137-3.076 1.512Z"/>
  <path fill="url(#Thumbs-Down-Neutral-Color-16_svg__b)" fill-rule="evenodd" d="M6.766 14.945c.001-.88.002-2.229-.239-3.39-.13-.624-.338-1.246-.693-1.721C5.463 9.337 4.929 9 4.216 9H3.035a.75.75 0 0 1-.747-.823l.196-1.987a.75.75 0 0 1 .035-.165l.825-2.452a.75.75 0 0 1 .71-.51h.665a.5.5 0 0 0 .07-.005l7.383-1.042c.498-.07.99.164 1.249.594.084.14.107.308.065.465l-.158.579a.5.5 0 0 0 .18.53l.51.385a.75.75 0 0 1 .24.887l-.253.606a.5.5 0 0 0 .149.582l.564.452a.75.75 0 0 1-.041 1.202l-.245.17a.5.5 0 0 0-.155.65l.32.587a.75.75 0 0 1-.108.868l-.173.187a.75.75 0 0 1-.55.24H10.11c-.302 0-.584.031-.822.13a.996.996 0 0 0-.567.56c-.094.238-.094.494-.07.72.023.23.08.49.143.76a2 2 0 0 1 .048.459c0 .669-.495 1.077-1.167 1.257a2.21 2.21 0 0 1-.853.069.947.947 0 0 1-.055-.01Zm1.167.907c.866-.232 1.908-.892 1.908-2.223a3 3 0 0 0-.075-.689 5.377 5.377 0 0 1-.122-.633.665.665 0 0 1 .004-.243.165.165 0 0 1 .021-.01c.06-.025.19-.054.44-.054h3.657a1.75 1.75 0 0 0 1.284-.56l.173-.187a1.75 1.75 0 0 0 .252-2.027l-.107-.197a1.75 1.75 0 0 0-.025-2.714l-.27-.216.107-.259a1.75 1.75 0 0 0-.56-2.069l-.238-.18.068-.253c.115-.42.053-.87-.173-1.244a2.254 2.254 0 0 0-2.245-1.068L4.684 2.062h-.63c-.751 0-1.419.48-1.658 1.193l-.825 2.45a1.75 1.75 0 0 0-.083.388l-.195 1.986A1.75 1.75 0 0 0 3.035 10h1.181c.35 0 .604.147.816.432.229.306.4.762.516 1.327.22 1.06.219 2.317.218 3.213v.169c0 .316.203.518.368.621.164.101.358.154.537.182a3.2 3.2 0 0 0 1.262-.092Z" clip-rule="evenodd"/>
  <path fill="url(#Thumbs-Down-Neutral-Color-16_svg__c)" d="M.5 9.5a1 1 0 0 0 1 1h.995a1 1 0 0 0 .99-.856l1.02-7a1 1 0 0 0-.99-1.144H1.5a1 1 0 0 0-1 1v7Z"/>
  <path fill="url(#Thumbs-Down-Neutral-Color-16_svg__d)" fill-rule="evenodd" d="M0 9.5A1.5 1.5 0 0 0 1.5 11h.995a1.5 1.5 0 0 0 1.484-1.284l1.021-7A1.5 1.5 0 0 0 3.516 1H1.5A1.5 1.5 0 0 0 0 2.5v7Zm1.5.5a.5.5 0 0 1-.5-.5v-7a.5.5 0 0 1 .5-.5h2.016a.5.5 0 0 1 .495.572l-1.021 7a.5.5 0 0 1-.495.428H1.5Z" clip-rule="evenodd"/>
  <defs>
    <linearGradient id="Thumbs-Down-Neutral-Color-16_svg__a" x1="8.438" x2="9.041" y1="14.563" y2=".971" gradientUnits="userSpaceOnUse">
      <stop stop-color="#DDD"/>
      <stop offset=".438" stop-color="#F5F5F5"/>
      <stop offset="1" stop-color="#fff"/>
    </linearGradient>
    <linearGradient id="Thumbs-Down-Neutral-Color-16_svg__b" x1="8.999" x2="8.999" y1="15.471" y2="1.359" gradientUnits="userSpaceOnUse">
      <stop stop-color="#888"/>
      <stop offset="1" stop-color="#666"/>
    </linearGradient>
    <linearGradient id="Thumbs-Down-Neutral-Color-16_svg__c" x1="2.161" x2="2.849" y1="10.023" y2="2.018" gradientUnits="userSpaceOnUse">
      <stop stop-color="#CCC"/>
      <stop offset=".487" stop-color="#EEE"/>
      <stop offset="1" stop-color="#F5F5F5"/>
    </linearGradient>
    <linearGradient id="Thumbs-Down-Neutral-Color-16_svg__d" x1="2.586" x2="2.586" y1="10.5" y2="1.5" gradientUnits="userSpaceOnUse">
      <stop stop-color="#888"/>
      <stop offset="1" stop-color="#666"/>
    </linearGradient>
  </defs>
</svg>
