<svg fill="none" viewBox="0 0 16 16" xmlns="http://www.w3.org/2000/svg">
  <path fill="url(#VideoPlayer-Color-16_svg__a)" d="M.7 4.5a3 3 0 0 1 3-3h8.6a3 3 0 0 1 3 3v7a3 3 0 0 1-3 3H3.7a3 3 0 0 1-3-3v-7Z"/>
  <path fill="url(#VideoPlayer-Color-16_svg__b)" d="M15.2 11.5a3 3 0 0 1-3 3H3.8a3 3 0 0 1-3-3v-.3h11.4a3 3 0 0 0 3-3v3.3Z"/>
  <path fill="url(#VideoPlayer-Color-16_svg__c)" d="M12 1a4 4 0 0 1 4 4v6a4 4 0 0 1-4 4H4a4 4 0 0 1-4-4V5a4 4 0 0 1 4-4h8ZM4 2a3 3 0 0 0-3 3v6a3 3 0 0 0 3 3h8a3 3 0 0 0 3-3V5a3 3 0 0 0-3-3H4Zm5.5 8.5a.5.5 0 0 1 .5.5v1a.5.5 0 0 1-1 0v-1a.5.5 0 0 1 .5-.5ZM8 12H2.9a.5.5 0 0 1 0-1H8v1Zm5.15-.997a.5.5 0 0 1 0 .995L13.1 12H11v-1h2.1l.05.003Z"/>
  <path fill="#551605" d="M10.587 5.786a.8.8 0 0 1 0 1.428L7.16 8.944A.8.8 0 0 1 6 8.232V4.769a.8.8 0 0 1 1.16-.714l3.426 1.73Z"/>
  <defs>
    <linearGradient id="VideoPlayer-Color-16_svg__a" x1="8" x2="8" y1="1.5" y2="14.5" gradientUnits="userSpaceOnUse">
      <stop stop-color="#F2A18A"/>
      <stop offset=".831" stop-color="#E46F4F"/>
    </linearGradient>
    <linearGradient id="VideoPlayer-Color-16_svg__b" x1="14.5" x2="1.5" y1="8" y2="8" gradientUnits="userSpaceOnUse">
      <stop stop-color="#F8BBAA"/>
      <stop offset=".831" stop-color="#F2A18A" stop-opacity="0"/>
    </linearGradient>
    <linearGradient id="VideoPlayer-Color-16_svg__c" x1="8" x2="8" y1=".8" y2="15.2" gradientUnits="userSpaceOnUse">
      <stop stop-color="#BC4726"/>
      <stop offset="1" stop-color="#551605"/>
    </linearGradient>
  </defs>
</svg>
