<svg fill="none" viewBox="0 0 16 16" xmlns="http://www.w3.org/2000/svg">
  <g clip-path="url(#VPN-Color-16_svg__a)">
    <path fill="url(#VPN-Color-16_svg__b)" d="M8 .5A7.5 7.5 0 0 1 15.5 8l-.832.22a3.526 3.526 0 0 0-6.194 2.306v.291A2.238 2.238 0 0 0 7 12.921V14.5s-.293.997-1.5.57A7.5 7.5 0 0 1 8 .5Z"/>
    <path fill="url(#VPN-Color-16_svg__c)" fill-rule="evenodd" d="M8 0a8 8 0 0 1 8 8c0 .543-1.018.567-1.382.164.027-.012.054-.02.08-.032a1.16 1.16 0 0 0 .3-.187l.001-.002a7.003 7.003 0 0 0-4.764-6.579c.244.337.46.718.647 1.125.553 1.208.917 2.78 1.02 4.513-.346.01-.678.068-.992.17-.087-1.679-.434-3.166-.937-4.267C9.368 1.583 8.633 1 8 1s-1.367.583-1.972 1.905c-.585 1.278-.96 3.079-.96 5.095 0 .299.009.593.025.88a34.344 34.344 0 0 0 3.731.11c-.151.312-.257.65-.31 1.005-.17.002-.341.005-.514.005a35.65 35.65 0 0 1-2.817-.108c.153 1.242.451 2.342.845 3.204.302.658.635 1.132.972 1.443 0 .614-.526 1.337-1.118 1.175A8 8 0 0 1 8 0ZM1.09 9.129a7.01 7.01 0 0 0 4.676 5.507 6.628 6.628 0 0 1-.647-1.124c-.467-1.021-.8-2.302-.955-3.72A19.758 19.758 0 0 1 2.6 9.551a8.683 8.683 0 0 1-1.508-.422Zm4.676-7.765A7.003 7.003 0 0 0 1 7.944l.001.001c.045.044.138.11.302.187.326.154.829.306 1.49.438.388.078.822.146 1.292.205A17.02 17.02 0 0 1 4.068 8c0-2.126.394-4.075 1.051-5.51.186-.408.403-.79.647-1.126Z" clip-rule="evenodd"/>
    <path fill="#888" d="M13.526 10.526a1.527 1.527 0 0 0-3.052 0v2.027a1.527 1.527 0 0 0 3.052 0v-2.027Zm1 2.027a2.527 2.527 0 0 1-5.052 0v-2.027a2.526 2.526 0 0 1 5.052 0v2.027Z"/>
    <path fill="#FC3" d="M8.5 12.921c0-.407.33-.737.737-.737h5.526c.407 0 .737.33.737.737v1.842c0 .407-.33.737-.737.737H9.237a.737.737 0 0 1-.737-.737v-1.842Z"/>
    <path fill="#C18010" d="M15 12.921a.238.238 0 0 0-.237-.237H9.237a.238.238 0 0 0-.237.238v1.841c0 .131.107.237.237.237h5.526c.13 0 .237-.106.237-.237v-1.841Zm1 1.842c0 .683-.554 1.237-1.237 1.237H9.237A1.237 1.237 0 0 1 8 14.763v-1.841c0-.684.554-1.238 1.237-1.238h5.526c.683 0 1.237.554 1.237 1.238v1.841Z"/>
  </g>
  <defs>
    <linearGradient id="VPN-Color-16_svg__b" x1="2" x2="14" y1="2" y2="14" gradientUnits="userSpaceOnUse">
      <stop stop-color="#8FABF9"/>
      <stop offset="1" stop-color="#557FF3"/>
    </linearGradient>
    <linearGradient id="VPN-Color-16_svg__c" x1="8" x2="8" y1="0" y2="16" gradientUnits="userSpaceOnUse">
      <stop stop-color="#3969EF"/>
      <stop offset="1" stop-color="#14307E"/>
    </linearGradient>
    <clipPath id="VPN-Color-16_svg__a">
      <path fill="#fff" d="M0 0h16v16H0z"/>
    </clipPath>
  </defs>
</svg>
