<svg fill="none" viewBox="0 0 16 16" xmlns="http://www.w3.org/2000/svg">
  <path fill="#DDD" d="M2 4a2 2 0 0 1 2-2h8a2 2 0 0 1 2 2v8a2 2 0 0 1-2 2H4a2 2 0 0 1-2-2V4Z"/>
  <path fill="#CCC" d="M3.457 3.457c-.63-.63-.184-1.707.707-1.707h7.086a3 3 0 0 1 3 3v7.086c0 .89-1.077 1.337-1.707.707L3.457 3.457Z"/>
  <path fill="#888" fill-rule="evenodd" d="M6 1h4a5 5 0 0 1 5 5v4a5 5 0 0 1-5 5H6a5 5 0 0 1-5-5V6a5 5 0 0 1 5-5Zm0 1a4 4 0 0 0-4 4v4a4 4 0 0 0 4 4h4a4 4 0 0 0 4-4V6a4 4 0 0 0-4-4H6Z" clip-rule="evenodd"/>
  <path fill="#888" fill-rule="evenodd" d="m12.646 13.354-10-10 .708-.708 10 10-.708.708Z" clip-rule="evenodd"/>
  <path fill="#888" fill-rule="evenodd" d="m3.354 13.354 10-10-.707-.708-10 10 .707.708Z" clip-rule="evenodd"/>
</svg>
