<svg width="24" height="24" viewBox="0 0 24 24" fill="none" xmlns="http://www.w3.org/2000/svg">
<path d="M5 6C5 3.79086 6.79086 2 9 2H15C17.2091 2 19 3.79086 19 6V20.4835C19 21.2014 18.2659 21.6854 17.6061 21.4026L12.7878 19.3376C12.2847 19.122 11.7153 19.122 11.2122 19.3376L6.39392 21.4026C5.73405 21.6854 5 21.2014 5 20.4835V6Z" fill="#2373D5" stroke="#0A467B" stroke-width="1.5"/>
<path d="M11.5393 7.0861C11.7116 6.67963 12.2877 6.67963 12.46 7.0861L13.0473 8.47147C13.1179 8.63793 13.2728 8.75333 13.4525 8.77327L14.9288 8.93711C15.3518 8.98405 15.5265 9.50428 15.2176 9.797L14.0806 10.8744C13.9556 10.9928 13.9003 11.1673 13.9344 11.3362L14.2464 12.8826C14.3325 13.3096 13.8694 13.6349 13.497 13.409L12.2589 12.6582C12.0996 12.5616 11.8997 12.5616 11.7404 12.6582L10.5024 13.409C10.1299 13.6349 9.66684 13.3096 9.75297 12.8826L10.0649 11.3362C10.099 11.1673 10.0437 10.9928 9.9187 10.8744L8.78172 9.797C8.47281 9.50428 8.64751 8.98405 9.07048 8.93711L10.5468 8.77327C10.7265 8.75333 10.8814 8.63793 10.952 8.47147L11.5393 7.0861Z" fill="white"/>
<path d="M8.14048 19.2693C8.08571 19.3036 8.04282 19.3558 8.02311 19.4183C8.00339 19.4807 8.00818 19.5476 8.03685 19.6052C8.06551 19.6628 8.11604 19.7069 8.17773 19.7288C8.23943 19.7507 8.30697 19.748 8.36734 19.725C8.36734 19.725 8.36734 19.725 8.36734 19.725C8.53326 19.6615 8.69881 19.5973 8.86397 19.5323C9.56657 19.2558 10.2622 18.9655 10.951 18.6613C11.606 18.3763 12.3559 18.369 13.0024 18.6273C13.0547 18.648 13.1061 18.6704 13.157 18.6944C14.5342 19.3462 15.9333 19.9522 17.3541 20.5125C17.519 20.5775 17.6842 20.6419 17.8497 20.7057C17.923 20.7339 18.005 20.7363 18.0795 20.7087C18.154 20.6812 18.2145 20.6264 18.2482 20.5558C18.2819 20.4851 18.2864 20.4036 18.2609 20.3284C18.2354 20.2531 18.1819 20.1909 18.1138 20.1517C18.1138 20.1517 18.1138 20.1517 18.1138 20.1517C17.9601 20.0633 17.8061 19.9754 17.6518 19.8882C16.3221 19.1368 14.9706 18.4311 13.5973 17.7712C13.5258 17.7369 13.4532 17.7051 13.3795 17.6759C12.4661 17.3082 11.3932 17.378 10.5465 17.8488C9.88863 18.215 9.23764 18.5951 8.59355 18.9891C8.44215 19.0817 8.29112 19.1751 8.14048 19.2693Z" fill="#77B6E8"/>
</svg>
