<svg width="96" height="96" viewBox="0 0 96 96" fill="none" xmlns="http://www.w3.org/2000/svg">
<path d="M48.302 17.9099C53.9582 13.5364 64.9163 20.6563 72.3762 33.2841C79.8304 46.0482 80.6898 58.9867 74.0969 61.7971C71.9368 62.5293 69.1845 61.806 68.0783 61.353C60.4471 60.8377 53.3359 62.3915 46.3403 64.9099C44.0291 65.7419 41.5085 66.6898 38.9822 67.6765C40.0582 69.4022 42.3474 73.1268 42.9756 74.3488C43.7631 75.8809 44.711 77.4807 44.5427 78.5654C44.3743 79.6501 42.366 81.3037 39.4384 81.4475C36.5109 81.5912 35.6046 79.9978 33.644 77.2155C32.4281 75.4901 30.4394 73.2719 29.0334 71.7817C27.6388 72.3967 26.3598 72.9838 25.2522 73.5227C17.9177 77.0822 10.5339 63.6978 15.2885 59.8081C20.1388 55.6574 28.2357 48.2044 34.1679 41.8244C39.405 36.1921 43.7015 31.2318 45.5742 25.8886C45.4564 22.4718 46.0769 19.6304 48.302 17.9099Z" fill="#F05F2B"/>
<path d="M48.8196 17.537C51.7704 15.8287 60.5451 16.2169 70.407 29.8061C80.2689 43.3952 80.7347 58.615 75.2991 61.4106C69.8634 64.2061 58.1378 57.6833 51.9256 45.5695C49.7892 41.4037 48.0204 37.3939 46.8714 33.7172C46.5842 35.0842 45.0199 37.8355 42.5847 40.2707C40.774 42.0814 21.3802 58.6122 18.344 61.446C15.9336 63.6957 15.4391 66.0009 15.5161 68.3119C12.8283 65.2918 13.7898 61.1071 15.72 59.5077C17.6502 57.9084 26.6393 49.3603 30.1138 46.3271C33.5881 43.2939 41.6356 33.0873 42.6763 31.4018C43.3479 30.314 44.5504 28.5483 45.4468 26.3276C45.3049 22.6528 46.2892 19.6246 48.8196 17.537Z" fill="#FF8D5C"/>
<path d="M58.7075 35.222C59.9506 35.6683 60.9224 36.5248 61.8816 37.7487C63.4585 39.7605 64.8951 42.7022 63.7029 46.413C63.6253 46.3457 63.5456 46.2782 63.4631 46.2111C59.1592 48.0555 53.5558 38.4374 58.7991 35.389L58.7075 35.222Z" fill="#FFB294"/>
<path d="M47.8433 17.3165C52.9506 13.7845 58.6797 17.3834 62.501 20.3478C66.5143 23.5941 69.7655 27.63 72.4566 31.9662C72.6472 32.2749 72.8359 32.5872 73.0223 32.9027C73.0226 32.9033 73.0238 32.9051 73.0242 32.9059C75.6803 37.4782 77.7851 42.4136 78.7979 47.6688C79.6375 52.598 80.1696 59.6192 74.3912 62.4869C74.3806 62.4914 74.3488 62.5037 74.3379 62.5074C72.1122 63.1899 69.9639 62.8236 67.9275 62.0951C66.9362 62.0305 65.9427 62.0003 64.949 62.005C63.5496 62.0115 62.15 62.0869 60.7559 62.2257C60.75 62.2264 60.7441 62.2278 60.7381 62.2284C60.2817 62.2732 59.8239 62.3281 59.3658 62.3907C55.5139 62.9344 51.6875 63.9207 47.9698 65.1405C47.5089 65.2936 47.0501 65.4506 46.5936 65.6124C44.3098 66.4235 42.0242 67.237 39.7369 68.0511C40.5889 69.3901 41.4208 70.7377 42.2378 72.0997C43.1475 73.627 44.0514 75.1524 44.8582 76.7735C45.4543 77.8702 44.9498 79.2745 44.2332 80.0018C43.5157 80.7883 42.6335 81.3027 41.7147 81.6759C39.9234 82.3443 37.5799 82.78 35.7879 81.1175C33.388 78.5509 31.6061 75.5959 29.4539 73.15C29.4442 73.1395 29.417 73.1071 29.4085 73.0958C29.1233 72.7298 28.7796 72.6935 28.2137 72.9388C28.2132 72.9391 28.212 72.9398 28.2115 72.9401C27.3247 73.3427 26.4426 73.7535 25.5713 74.1796C22.4018 75.8595 18.6087 74.1166 16.5711 71.7628C14.4446 69.3798 12.9319 66.3592 13.0494 62.9791C13.1202 61.6872 13.6169 60.2536 14.7066 59.3165L14.8011 59.2381C21.3619 53.5926 27.836 47.7895 33.74 41.5006C36.6724 38.3395 39.5182 35.0915 42.0989 31.6639C43.0861 30.3463 44.0346 28.9966 44.8819 27.607C44.7902 26.2635 44.7887 24.908 44.9437 23.545C45.2129 21.3514 45.8455 18.9061 47.8433 17.3165ZM61.5623 21.5177C57.9092 18.5909 52.545 15.7009 48.7608 18.5033C47.3042 19.6319 46.6655 21.7005 46.4339 23.7164C46.2768 25.0947 46.2927 26.5062 46.4092 27.9164C46.4257 28.1145 46.3626 28.3112 46.2342 28.463C46.1697 28.5392 46.0911 28.6009 46.004 28.6456C45.163 30.0011 44.2463 31.2992 43.2989 32.5641C40.6667 36.0593 37.7957 39.3339 34.8387 42.5221C31.7592 45.8017 28.5447 48.9333 25.2515 51.9742C25.2488 52.1582 25.252 52.3459 25.2603 52.5336C25.5627 57.0025 27.8297 61.4571 31.222 64.5582C31.413 64.731 31.6056 64.8974 31.8045 65.0614C31.8905 65.1323 31.9451 65.2356 31.9571 65.3475C31.969 65.4595 31.9373 65.5711 31.8682 65.6586C31.7991 65.7459 31.6979 65.8025 31.5862 65.8168C31.4746 65.8309 31.3616 65.8017 31.2728 65.7345C31.0568 65.5706 30.847 65.4039 30.6387 65.2303C27.0874 62.2152 24.5658 57.9703 23.8743 53.2369C21.2114 55.661 18.5025 58.0316 15.7764 60.3778C15.7738 60.38 15.7663 60.3864 15.7637 60.3885C15.001 61.001 14.6103 61.9991 14.5462 63.076C14.3954 68.3126 19.6644 75.3007 24.9332 72.8661C25.8233 72.4356 26.7186 72.0237 27.617 71.6212L27.6146 71.6224C28.0425 71.4304 28.5559 71.2862 29.1292 71.3658C29.699 71.4364 30.2362 71.8009 30.5428 72.2179C32.8324 74.8701 34.5591 77.7758 36.7696 80.1698C38.7208 82.1152 44.5908 79.919 43.7222 77.3221C42.9721 75.7722 42.0859 74.2327 41.2034 72.711C40.3664 71.2772 39.5098 69.8521 38.636 68.4427C37.5135 68.8421 36.3908 69.2421 35.2674 69.641C34.8245 69.7984 34.3816 69.956 33.939 70.1136C33.845 70.1471 33.741 70.1453 33.6485 70.1058C33.556 70.0664 33.4829 69.9928 33.4449 69.9007C33.4069 69.8086 33.4068 69.7048 33.4446 69.6117C33.4824 69.5185 33.5553 69.444 33.6456 69.4015C34.0719 69.2008 34.4995 69.0021 34.928 68.8055C38.5868 67.1291 42.3075 65.5915 46.0877 64.2076C46.5557 64.0366 47.0253 63.8736 47.4969 63.7169C51.2993 62.4705 55.1732 61.4687 59.1627 60.9044C59.6036 60.8441 60.0459 60.7911 60.4891 60.7462C60.5005 60.7445 60.5119 60.7422 60.5235 60.7411C61.9905 60.5924 63.4658 60.5118 64.9419 60.505C66.0049 60.5 67.0681 60.5332 68.129 60.6048C68.1793 60.6082 68.3162 60.6399 68.3628 60.659C70.0818 61.3085 72.1651 61.625 73.8277 61.0953C78.267 59.0491 78.2139 52.7022 77.324 47.9466C76.3578 42.9225 74.316 38.1124 71.7288 33.6625L71.7308 33.6656C71.5493 33.3585 71.3659 33.0546 71.1805 32.7542C68.5648 28.536 65.3938 24.6144 61.5623 21.5177ZM36.7147 70.8712C36.8084 70.8079 36.924 70.7838 37.0376 70.8036C37.1513 70.8233 37.2529 70.8858 37.3265 70.9725C37.4318 71.0972 37.5353 71.2208 37.637 71.3434C38.5602 72.4599 39.4286 73.6167 40.2142 74.8451C40.961 76.1095 41.818 77.2555 42.0015 79.0458C41.9977 79.2587 41.9653 79.5235 41.7923 79.7679C41.7246 79.8521 41.6303 79.9143 41.523 79.9366C41.4158 79.959 41.3054 79.9402 41.2144 79.8834C41.1235 79.8266 41.0579 79.7354 41.0311 79.6293C41.0042 79.5231 41.019 79.411 41.065 79.3133C41.0629 79.2842 41.0629 79.214 41.0381 79.1097C40.6982 78.0413 39.7423 76.7973 39.0127 75.6119C38.2437 74.4093 37.4952 73.1767 36.8077 71.9029C36.7322 71.7629 36.6562 71.6207 36.5799 71.4764C36.527 71.3758 36.5071 71.2584 36.5313 71.1456C36.5555 71.0329 36.6209 70.9345 36.7147 70.8712ZM50.6546 19.2716C52.7301 18.1046 55.0798 18.77 56.888 19.6295C58.384 20.3508 59.7233 21.3033 60.9695 22.3456C61.0565 22.4186 61.1124 22.523 61.1238 22.6363C61.1352 22.7496 61.1016 22.8626 61.0301 22.9508C60.9585 23.039 60.8545 23.0954 60.7413 23.1075C60.628 23.1196 60.5145 23.0865 60.4251 23.0165C59.1862 22.047 57.8692 21.1761 56.4632 20.5484C54.7491 19.7789 52.7165 19.3729 51.2469 20.2794C48.0613 22.6079 48.9594 27.8557 49.9095 31.7608C50.9992 35.8874 52.7874 39.8246 54.9559 43.5235C55.1785 43.9017 55.4021 44.2715 55.6321 44.6422C57.7808 48.0923 60.2973 51.3449 63.2703 54.0731C66.1285 56.6159 70.1444 59.5851 73.4114 57.9899C76.5791 55.7956 75.8117 50.4883 74.9056 46.5628C73.8733 42.4064 72.1304 38.4281 69.9947 34.6844C69.6481 34.0793 69.2901 33.4809 68.9207 32.8893C68.0809 31.5445 67.1822 30.2354 66.2215 28.9737C66.1606 28.8938 66.1331 28.7931 66.1456 28.6932C66.158 28.5933 66.2093 28.5024 66.2884 28.4405C66.3675 28.3787 66.4682 28.3507 66.5682 28.3626C66.668 28.3747 66.759 28.4258 66.8218 28.504C67.8301 29.7608 68.7756 31.0683 69.6607 32.4149C70.05 33.0074 70.4275 33.6074 70.7935 34.2147C73.0495 37.974 74.9094 41.9898 76.0496 46.2721C76.9253 50.345 78.4107 55.7801 74.1002 59.1617C69.3335 61.2824 65.3618 57.7003 62.2894 55.1546C59.1653 52.3174 56.573 48.9767 54.3628 45.43C54.1264 45.0491 53.897 44.6688 53.6688 44.2801C51.4455 40.476 49.6309 36.419 48.5481 32.1068C47.7164 28.0135 46.3619 22.5189 50.6546 19.2716ZM46.4376 31.9203C46.5014 31.9054 46.5688 31.9164 46.6255 31.9508C46.6823 31.9851 46.7234 32.0401 46.7427 32.1029C46.8867 32.5711 47.0385 33.0363 47.1971 33.4986C48.5791 37.5044 50.4306 41.3018 52.5586 44.9322C54.8606 48.8357 57.5317 52.5346 60.7095 55.7879C61.0505 56.1354 61.3976 56.4769 61.7513 56.8116C61.822 56.8785 61.8669 56.9699 61.8736 57.0677C61.8803 57.1657 61.8485 57.2622 61.7852 57.336C61.722 57.4098 61.6317 57.4558 61.534 57.4642C61.4362 57.4726 61.3392 57.4425 61.2623 57.3829C60.8687 57.0776 60.4822 56.7625 60.1028 56.4388C56.5637 53.4065 53.6288 49.7022 51.2657 45.6922C49.0787 41.9647 47.4076 37.9097 46.5164 33.6854C46.4144 33.1984 46.3236 32.7095 46.2444 32.2191C46.234 32.1542 46.2465 32.0865 46.2823 32.0306C46.318 31.9747 46.3738 31.9351 46.4376 31.9203ZM54.9358 34.7845C58.6918 33.4861 63.3251 36.0216 64.47 39.9315C65.4419 42.7672 64.9046 45.8935 63.5491 48.3758C63.3704 48.7081 63.1865 49.0164 62.981 49.3338C62.9144 49.4358 62.8126 49.5119 62.6937 49.5431C62.5748 49.5742 62.4491 49.5581 62.3436 49.4979C62.238 49.4377 62.1598 49.3378 62.126 49.2196C62.0923 49.1013 62.1063 48.9746 62.1602 48.8653C62.317 48.547 62.4537 48.2418 62.5862 47.9188C63.5878 45.4931 63.8639 42.7934 63.0501 40.4149C62.0403 37.1709 58.6479 34.9021 55.1106 35.5614C54.7679 35.6155 54.441 35.6856 54.0997 35.7794C54.0189 35.8017 53.9315 35.7952 53.8555 35.7577C53.7795 35.7201 53.721 35.6552 53.6932 35.5763C53.6653 35.4974 53.67 35.41 53.7056 35.3331C53.7412 35.2562 53.8054 35.1963 53.8824 35.1629C54.2307 35.014 54.5706 34.8902 54.9358 34.7845Z" fill="#9E2B08"/>
<path d="M72.7037 21.5487C72.7859 21.5395 72.8685 21.561 72.9385 21.6025C73.1614 21.7355 73.3813 21.879 73.595 22.0287C74.7315 22.8261 75.7143 23.8234 76.5298 24.9306C78.474 27.5868 79.8545 30.6109 80.6468 33.7624C80.7083 34.0103 80.7665 34.261 80.8196 34.5097C80.835 34.5821 80.8257 34.659 80.7894 34.7245C80.7531 34.7901 80.6934 34.839 80.6229 34.8605C80.5523 34.8819 80.4756 34.8745 80.409 34.8403C80.3424 34.806 80.2918 34.7475 80.2642 34.6789C80.1713 34.4478 80.075 34.2152 79.9774 33.9858C78.7273 31.0713 77.1846 28.3132 75.347 25.8012C74.5748 24.7541 73.8088 23.7136 72.9852 22.684C72.8301 22.4904 72.6717 22.2962 72.5123 22.1047C72.4601 22.0423 72.4252 21.9644 72.421 21.8818C72.4167 21.7992 72.4427 21.7191 72.4947 21.6579C72.5467 21.5967 72.6215 21.558 72.7037 21.5487ZM72.4693 26.5151C72.5471 26.5084 72.6254 26.5278 72.6966 26.559C72.8152 26.6132 72.9318 26.6749 73.0447 26.7419C73.6392 27.094 74.1231 27.5648 74.5008 28.0956C75.3977 29.3711 76.0725 30.7753 76.483 32.2831C76.5147 32.4024 76.5446 32.5231 76.5709 32.6418C76.5861 32.7116 76.582 32.7866 76.5523 32.8529C76.5226 32.9193 76.4703 32.9715 76.4053 32.9987C76.3404 33.0259 76.2666 33.0267 76.1986 33.0014C76.1304 32.9761 76.0743 32.9262 76.0352 32.8664C75.9712 32.7696 75.9054 32.6708 75.8394 32.5729C74.9957 31.3405 74.139 30.1349 73.303 28.946C72.9507 28.4512 72.6625 27.9206 72.3946 27.3571C72.3429 27.25 72.2918 27.1422 72.2415 27.0348C72.2072 26.9651 72.1846 26.8875 72.1878 26.8095C72.1911 26.7316 72.2195 26.6598 72.2703 26.6066C72.3212 26.5535 72.3916 26.5217 72.4693 26.5151Z" fill="#9E2B08"/>
</svg>
