<svg width="96" height="96" viewBox="0 0 96 96" fill="none" xmlns="http://www.w3.org/2000/svg">
<path d="M51.1546 19.6198C54.869 15.4927 61.652 16.8859 63.4389 22.1429L79.0164 67.9717C80.8054 73.235 76.264 78.4767 70.7995 77.4555L22.2109 68.3758C16.6094 67.329 14.3143 60.5539 18.1263 56.3183L51.1546 19.6198Z" fill="#FAB341"/>
<path d="M51.3299 19.0978C54.8717 15.0751 61.4893 16.8667 62.5178 22.1268L69.5463 58.0703C70.808 64.5225 65.6195 70.4211 59.0591 69.9929L23.0226 67.6409C17.4512 67.2772 14.7233 60.6757 18.4128 56.4852L51.3299 19.0978Z" fill="#FFD885"/>
<path d="M47.4373 59.1744C49.3607 58.6525 50.951 59.5802 51.7601 61.3939C48.7002 59.0171 44.9632 63.7616 44.9434 63.7867C44.2263 61.8213 45.3428 59.7563 47.4373 59.1744Z" fill="#F5A031"/>
<path d="M47.7056 39.6734C47.3459 43.8375 46.99 48.0003 46.5796 52.1803C46.5796 52.1803 46.4139 45.6705 47.7056 39.6734Z" fill="#F5A031"/>
<path d="M48.6885 28.8238C49.1828 25.9591 51.4303 25.23 53.5628 25.5448C57.3038 25.191 57.5649 27.9775 57.126 30.097C51.6042 28.4786 48.9636 33.8329 47.7056 39.6734C48.0176 36.0618 48.3326 32.4492 48.6885 28.8238Z" fill="#F5A031"/>
<path d="M23.9983 27.5658C25.7117 27.5371 27.4093 27.6324 29.0911 27.8512C30.773 28.07 32.4394 28.4125 34.0896 28.8787C34.2729 28.9305 34.4563 28.9838 34.6392 29.0387C34.7067 29.059 34.769 29.0987 34.8113 29.1553C34.8536 29.212 34.8728 29.2804 34.8643 29.3475C34.8557 29.4146 34.8199 29.4761 34.7647 29.5201C34.7095 29.5641 34.6393 29.5863 34.5689 29.5887C34.3782 29.5949 34.1876 29.5997 33.9974 29.6029C32.2839 29.6315 30.5859 29.5363 28.9041 29.3175C27.2223 29.0986 25.556 28.7561 23.9058 28.2899C23.7225 28.2381 23.5392 28.1848 23.3562 28.13C23.2888 28.1096 23.2265 28.0702 23.1841 28.0135C23.1418 27.9569 23.1229 27.8882 23.1314 27.8211C23.14 27.754 23.1759 27.6925 23.231 27.6485C23.2862 27.6046 23.3562 27.5823 23.4266 27.5799C23.6173 27.5737 23.808 27.5689 23.9983 27.5658Z" fill="#F5A031"/>
<path d="M31.4349 16.3512C31.5057 16.3528 31.5732 16.3806 31.6277 16.4237C31.7752 16.5405 31.9216 16.6585 32.0667 16.7774C33.373 17.8476 34.585 19.002 35.7022 20.2408C36.8195 21.4797 37.8422 22.8032 38.7703 24.2108C38.8734 24.3671 38.9755 24.5245 39.0762 24.6829C39.1133 24.7415 39.1338 24.8114 39.1277 24.8817C39.1217 24.9518 39.0901 25.0164 39.0389 25.0621C38.9876 25.1077 38.9197 25.1321 38.8489 25.1304C38.7781 25.1288 38.7103 25.101 38.6558 25.0579C38.5084 24.9411 38.362 24.8231 38.2168 24.7042C36.9105 23.634 35.6986 22.4796 34.5813 21.2408C33.4641 20.0019 32.4414 18.6784 31.5132 17.2708C31.4101 17.1145 31.3081 16.9569 31.2073 16.7984C31.1703 16.7399 31.1498 16.6701 31.1558 16.5999C31.1619 16.5298 31.1935 16.465 31.2447 16.4193C31.2959 16.3736 31.3641 16.3495 31.4349 16.3512Z" fill="#F5A031"/>
<path fill-rule="evenodd" clip-rule="evenodd" d="M43.4343 61.6091C43.6732 59.2715 45.7751 57.4974 48.1577 57.729C50.6187 57.9683 52.2526 60.0373 51.999 62.5207C51.8648 63.8341 51.3415 64.9002 50.5017 65.6172C49.6632 66.3329 48.5765 66.6431 47.424 66.5705C44.8828 66.4105 43.1838 64.0614 43.4343 61.6091ZM48.0122 59.2217C47.6957 59.1909 47.3861 59.2158 47.0923 59.2868C46.1963 59.6234 45.5104 60.2449 45.1132 61.0051C45.0183 61.2429 44.9538 61.4964 44.9267 61.7614C44.8639 62.3767 44.9759 62.9622 45.217 63.4655C45.9586 62.6315 48.0992 60.4816 50.2531 60.7514C49.8546 59.9 49.0449 59.3221 48.0122 59.2217Z" fill="#B66A1F"/>
<path fill-rule="evenodd" clip-rule="evenodd" d="M50.2194 25.0859C51.2583 24.1708 52.606 23.8833 54.1176 24.1064C55.7619 24.3491 56.8986 25.2015 57.5127 26.4177C58.1086 27.5982 58.1714 29.0366 57.8835 30.4319C56.3125 38.0464 54.542 45.5752 52.7151 53.1206C52.5245 54.0021 51.9368 54.7165 51.2302 55.1745C50.5165 55.6371 49.617 55.8821 48.7331 55.7517C46.9979 55.4955 45.672 53.8657 45.8325 52.124C46.4222 44.3015 47.0093 37.7726 48.3237 29.1535C48.5939 27.3816 49.2028 25.9816 50.2194 25.0859ZM53.8984 25.5901C52.708 25.4144 51.8401 25.6571 51.2111 26.2112C50.56 26.7849 50.0487 27.7938 49.8069 29.3794C49.4828 31.5044 49.2032 33.5016 48.957 35.4226C50.406 31.7778 52.7295 29.1917 56.4516 29.9306C56.6464 28.829 56.5479 27.836 56.1731 27.0935C55.7939 26.3425 55.0941 25.7665 53.8984 25.5901Z" fill="#B66A1F"/>
<path fill-rule="evenodd" clip-rule="evenodd" d="M48.8401 20.2883C53.8029 13.9831 62.42 15.3622 64.5608 21.8064L79.3591 66.3528C81.5009 72.8002 75.9354 79.1795 69.257 77.9319L69.2563 77.9316L23.2631 69.2878L23.261 69.2873C16.4451 67.9848 13.6377 59.759 18.2351 54.5613L18.2375 54.5586L48.8401 20.2883ZM63.1374 22.279C61.4388 17.166 54.3624 15.6741 50.0046 21.2339C49.9947 21.2465 49.9843 21.2588 49.9736 21.2707L19.3584 55.5549L19.3586 55.5551C15.5321 59.8814 17.8677 66.7276 23.5398 67.8134L69.5324 76.4572C75.0877 77.4951 79.7171 72.1888 77.9355 66.8257L63.1374 22.279Z" fill="#B66A1F"/>
</svg>
