<svg width="96" height="96" viewBox="0 0 96 96" fill="none" xmlns="http://www.w3.org/2000/svg">
<path d="M47.3747 16.75C50.3661 16.75 53.4022 17.7493 56.0034 20.3108C58.3648 22.6357 62.1081 24.871 67.0666 26.4822C73.4272 28.5501 77.2274 29.9126 77.8777 38.8696C78.1752 42.9543 77.9982 48.0991 76.5698 53.5032C75.7355 53.3557 74.8768 53.2788 74.0002 53.2788C65.9 53.2788 59.3335 59.8454 59.3335 67.9456C59.3335 70.3964 59.9349 72.7067 60.9978 74.7373C55.9115 77.8091 50.7168 79.25 47.3747 79.25C41.2863 79.25 29.0487 74.4654 22.5215 63.7544C17.1607 54.9523 16.3884 45.5059 16.872 38.8696C17.5223 29.9166 21.3224 28.5501 27.6831 26.4822C32.6375 24.871 36.3849 22.6357 38.7463 20.3108C41.3475 17.7493 44.3834 16.75 47.3747 16.75Z" fill="#FFC95C"/>
<path d="M47.3747 16C50.5451 16 53.7761 17.0647 56.5298 19.7764C58.788 21.9997 62.42 24.1837 67.2983 25.7688L67.8823 25.9592C70.776 26.9064 73.2791 27.8068 75.1274 29.5461C77.1444 31.4442 78.2934 34.2386 78.6257 38.8149L78.6477 39.1328C78.9169 43.2141 78.7138 48.3043 77.3061 53.6528C76.8207 53.541 76.326 53.4534 75.8235 53.3911C77.245 48.0577 77.4243 42.9698 77.1296 38.9241C76.8116 34.5436 75.7353 32.178 74.0996 30.6387C72.5234 29.1555 70.3472 28.3469 67.4284 27.3892L66.8347 27.1953C61.9537 25.6093 58.1839 23.414 55.7124 21.0723L55.4773 20.8452C53.0286 18.4339 50.187 17.5 47.3747 17.5C44.6065 17.5 41.81 18.405 39.3877 20.7332L39.2724 20.8452C36.8078 23.2718 32.9491 25.5583 27.915 27.1953C24.6956 28.242 22.3316 29.0575 20.6504 30.6401C19.0145 32.18 17.9381 34.5454 17.6201 38.9238C17.1435 45.4634 17.9085 54.7386 23.1618 63.3643L23.312 63.6079C26.4867 68.7033 30.9975 72.414 35.4726 74.8608C40.0318 77.3536 44.4894 78.5 47.3747 78.5C50.2602 78.5 54.7179 77.3546 59.2771 74.8623C59.7402 74.6091 60.2034 74.3417 60.6657 74.0613C60.8758 74.5185 61.1083 74.9631 61.3625 75.3936C60.9075 75.6679 60.4519 75.9297 59.9968 76.1785C55.2833 78.7551 50.5777 80 47.3747 80C44.1717 80 39.4663 78.7541 34.7529 76.177C30.0263 73.5927 25.2267 69.6348 21.8811 64.1448L21.8808 64.1445C16.4126 55.166 15.6333 45.5478 16.124 38.8149C16.4563 34.2406 17.6052 31.4464 19.622 29.5479C21.5936 27.6921 24.31 26.79 27.4511 25.7688C32.3258 24.1836 35.9619 21.9996 38.2199 19.7764C40.9736 17.0647 44.2044 16 47.3747 16Z" fill="#B66A1F"/>
<path d="M21.3735 39.2368C21.4433 39.2417 21.5089 39.2743 21.5571 39.3271C21.6053 39.3801 21.6316 39.4492 21.6357 39.5195C21.6647 40.0032 21.6952 40.4954 21.728 40.9766C21.8589 42.9174 22.0173 44.8273 22.206 46.7363C22.7205 51.953 24.1518 57.0842 26.6592 61.7178C27.357 63.0097 28.1591 64.2502 29.0532 65.4275C29.345 65.8117 29.6467 66.1895 29.9575 66.5601C30.0044 66.616 30.0297 66.688 30.0259 66.7615C30.022 66.8349 29.9896 66.9039 29.9358 66.9531C29.8819 67.0023 29.8105 67.0283 29.737 67.0256C29.6636 67.0229 29.594 66.9916 29.5425 66.9399C29.1945 66.5905 28.8554 66.2311 28.5261 65.8625C27.5171 64.7332 26.5997 63.5146 25.7934 62.2214C22.9155 57.6191 21.2426 52.2872 20.7134 46.8843C20.5175 44.9063 20.558 42.9109 20.8286 40.9443C20.8961 40.4568 20.9785 39.9618 21.0747 39.4805C21.0886 39.4113 21.1241 39.3465 21.1792 39.3008C21.2342 39.2551 21.3037 39.232 21.3735 39.2368Z" fill="#B66A1F"/>
<path d="M65.1299 30.5093C65.1936 30.4755 65.268 30.4676 65.3376 30.4827C65.9405 30.6144 66.5431 30.7565 67.1389 30.9114C68.7834 31.4158 70.5967 31.6532 72.0569 33.2805C72.6182 33.9863 72.8917 34.7623 73.0996 35.5107C73.4107 36.6818 73.545 37.8459 73.6262 39.0046C73.953 43.8353 73.4702 48.7644 72.0857 53.4028C71.6799 53.4557 71.2794 53.525 70.8847 53.6104C72.1377 48.8961 72.5083 43.9565 72.1443 39.1113C72.059 38.0118 71.9226 36.9178 71.6513 35.9014C71.4762 35.254 71.2444 34.621 70.9145 34.1685C70.1324 33.0993 68.3555 32.4706 66.8423 31.7612C66.2873 31.5146 65.724 31.2671 65.1623 31.0173C65.0974 30.9883 65.0424 30.938 65.011 30.873C64.9796 30.8081 64.974 30.7341 64.9961 30.6667C65.0181 30.5995 65.0661 30.5431 65.1299 30.5093Z" fill="#B66A1F"/>
<path d="M48.0789 31.2533C49.7887 31.1749 51.238 32.5046 51.3162 34.2235V34.224L51.2988 34.2379C51.3003 34.2376 51.3157 34.2273 51.3164 34.2279C51.3165 34.2303 51.3167 34.2337 51.3169 34.2379C51.3173 34.2465 51.3177 34.259 51.3184 34.275C51.3198 34.3071 51.3219 34.354 51.3245 34.4149C51.3295 34.5368 51.3367 34.7155 51.3452 34.9454C51.3624 35.4054 51.3853 36.0719 51.4082 36.9039C51.4681 39.0825 51.4995 41.2619 51.502 43.4413C51.5029 44.287 52.1978 44.9697 53.0432 44.9442C54.885 44.8886 56.7262 44.8139 58.5664 44.7196C59.3695 44.6784 60.0093 44.6417 60.4465 44.6153C60.6651 44.6022 60.8334 44.5915 60.9458 44.5843C61.0018 44.5807 61.0442 44.5781 61.072 44.5763C61.0858 44.5754 61.0962 44.5745 61.1028 44.5741C61.106 44.5739 61.1084 44.5739 61.1099 44.5738L61.1113 44.5736C62.8191 44.4578 64.2971 45.7559 64.4124 47.4728C64.5275 49.1895 63.2363 50.6752 61.5286 50.7911H61.5259C61.446 50.7963 61.4929 50.7932 61.5176 50.7916C61.5197 50.7915 61.5217 50.7914 61.5232 50.7914C61.4499 50.7962 61.4901 50.7935 61.5149 50.7919L61.5147 50.7921C61.5063 50.7927 61.4941 50.7933 61.4785 50.7943C61.447 50.7964 61.4006 50.7995 61.3406 50.8033C61.2205 50.811 61.0443 50.8221 60.8174 50.8358C60.3634 50.8631 59.705 50.9008 58.8818 50.943C56.8514 51.047 54.8198 51.1281 52.7876 51.1861C51.9943 51.2088 51.3534 51.8418 51.3176 52.6346C51.1842 55.5942 50.9645 58.5774 50.6157 61.2843C50.3958 62.9907 48.8415 64.1947 47.1441 63.9737C45.4466 63.7527 44.2485 62.1902 44.4683 60.4837C44.7729 58.1196 44.9739 55.4922 45.1023 52.8368C45.1433 51.9894 44.4659 51.2842 43.6177 51.2735C40.5227 51.2348 37.3726 51.1145 34.4971 50.8597C32.792 50.7087 31.5314 49.1966 31.6816 47.4825C31.832 45.7684 33.336 44.5012 35.041 44.6522C37.768 44.8938 40.7964 45.0085 43.8027 45.044C44.6299 45.0538 45.3038 44.3857 45.3032 43.5585C45.3018 41.3974 45.2713 39.2365 45.2119 37.0763C45.1896 36.2664 45.1673 35.6204 45.1509 35.1788C45.1427 34.9582 45.1358 34.7884 45.1311 34.6749C45.1288 34.6183 45.127 34.5755 45.1257 34.5475C45.1251 34.5336 45.1246 34.5231 45.1243 34.5165C45.1241 34.5132 45.1243 34.5106 45.1243 34.5091L45.124 34.5079L45.1213 34.4276C45.0873 32.7437 46.3956 31.3305 48.0789 31.2533Z" fill="#F5A031"/>
<path d="M61.5244 50.7914H61.5232C61.5238 50.7913 61.5243 50.7912 61.5249 50.7911L61.5244 50.7914Z" fill="#F5A031"/>
<path d="M24.1292 22.8941C24.2225 22.8699 24.323 22.8785 24.4099 22.9227C24.4967 22.9669 24.5628 23.0422 24.5938 23.1332C24.6247 23.2242 24.6183 23.3242 24.5764 23.4122C24.5346 23.5002 24.4605 23.5683 24.3718 23.6061C24.0715 23.7333 23.782 23.8559 23.4837 23.9815C20.8491 25.1043 18.1488 26.1812 16.4363 28.2147C14.704 30.2321 14.0071 33.0391 13.5628 35.8368C13.5143 36.1473 13.4695 36.4555 13.4268 36.7796C13.4122 36.8887 13.359 36.9907 13.2744 37.0626C13.1899 37.1345 13.0814 37.1708 12.9719 37.1632C12.8625 37.1556 12.7599 37.1047 12.686 37.0218C12.6122 36.9389 12.5736 36.8306 12.5742 36.7206C12.5772 36.3861 12.5844 36.0665 12.5977 35.7428C12.731 32.8472 13.2626 29.6957 15.3259 27.2657C17.4105 24.8315 20.4488 23.9135 23.1936 23.1434C23.5081 23.0572 23.8132 22.9768 24.1292 22.8941Z" fill="#F5A031"/>
<path d="M74 80C80.6274 80 86 74.6274 86 68C86 61.3726 80.6274 56 74 56C67.3726 56 62 61.3726 62 68C62 74.6274 67.3726 80 74 80Z" fill="black"/>
<path d="M73 61.0293C73 60.477 73.4477 60.0293 74 60.0293C74.5523 60.0293 75 60.477 75 61.0293V67.1694L78.3511 68.4263C78.8682 68.6202 79.1302 69.1967 78.9363 69.7139C78.7423 70.2309 78.166 70.4929 77.6489 70.2991L73.6489 68.7991C73.2586 68.6527 73 68.2794 73 67.8625V61.0293Z" fill="white"/>
</svg>
