<svg width="16" height="16" viewBox="0 0 16 16" fill="none" xmlns="http://www.w3.org/2000/svg">
    <path d="M0.5 4C0.5 2.61929 1.61929 1.5 3 1.5H13C14.3807 1.5 15.5 2.61929 15.5 4V12C15.5 13.3807 14.3807 14.5 13 14.5H3C1.61929 14.5 0.5 13.3807 0.5 12V4Z" fill="#DE5833"/>
    <path d="M1 6C1 5.44772 1.44772 5 2 5H14C14.5523 5 15 5.44772 15 6V12C15 13.3807 13.8807 14.5 12.5 14.5H3.5C2.11929 14.5 1 13.3807 1 12V6Z" fill="white"/>
    <path fill-rule="evenodd" clip-rule="evenodd" d="M5 0.5C5 0.223858 4.77614 0 4.5 0C4.22386 0 4 0.223858 4 0.5V1H3C1.34315 1 0 2.34315 0 4V12C0 13.6569 1.34315 15 3 15H13C14.6569 15 16 13.6569 16 12V4C16 2.34315 14.6569 1 13 1H12V0.5C12 0.223858 11.7761 0 11.5 0C11.2239 0 11 0.223858 11 0.5V1H5V0.5ZM11 2.5V2H5V2.5C5 2.77614 4.77614 3 4.5 3C4.22386 3 4 2.77614 4 2.5V2H3C1.89543 2 1 2.89543 1 4V12C1 13.1046 1.89543 14 3 14H13C14.1046 14 15 13.1046 15 12V4C15 2.89543 14.1046 2 13 2H12V2.5C12 2.77614 11.7761 3 11.5 3C11.2239 3 11 2.77614 11 2.5ZM2.5 4C2.22386 4 2 4.22386 2 4.5C2 4.77614 2.22386 5 2.5 5H13.5C13.7761 5 14 4.77614 14 4.5C14 4.22386 13.7761 4 13.5 4H2.5Z" fill="url(#paint0_linear_3992_9292)"/>
    <path fill-rule="evenodd" clip-rule="evenodd" d="M11.3124 6.60958C11.528 6.78209 11.563 7.09674 11.3905 7.31237L7.39045 12.3124C7.30161 12.4234 7.16967 12.4914 7.02767 12.4993C6.88566 12.5071 6.74703 12.4542 6.64646 12.3536L4.64645 10.3536C4.45118 10.1583 4.45118 9.84174 4.64645 9.64648C4.84171 9.45122 5.1583 9.45122 5.35356 9.64648L6.95856 11.2515L10.6096 6.68767C10.7821 6.47204 11.0968 6.43708 11.3124 6.60958Z" fill="#DE5833"/>
    <defs>
        <linearGradient id="paint0_linear_3992_9292" x1="8" y1="0" x2="8" y2="15" gradientUnits="userSpaceOnUse">
            <stop stop-color="#9A3216"/>
            <stop offset="1" stop-color="#551605"/>
        </linearGradient>
    </defs>
</svg>
