<svg xmlns="http://www.w3.org/2000/svg" width="32" height="32" fill="none"><g clip-path="url(#a)"><path fill="url(#b)" d="M15.998 8.124h13.638a15.747 15.747 0 0 0-27.277.002l6.82 11.811.005-.002a7.865 7.865 0 0 1 6.814-11.81Z"/><path fill="url(#c)" d="m22.821 19.936-6.819 11.81A15.746 15.746 0 0 0 29.64 8.125H16.001L16 8.13a7.865 7.865 0 0 1 6.821 11.806Z"/><path fill="url(#d)" d="M9.18 19.94 2.363 8.128a15.746 15.746 0 0 0 13.64 23.621l6.819-11.81-.005-.005a7.865 7.865 0 0 1-13.635.005Z"/><path fill="#fff" d="M16 23.875a7.875 7.875 0 1 0 0-15.75 7.875 7.875 0 0 0 0 15.75Z"/><path fill="#1A73E8" d="M16 22.234a6.234 6.234 0 1 0 0-12.469 6.234 6.234 0 0 0 0 12.47Z"/></g><defs><linearGradient id="b" x1="27.934" x2="14.296" y1="7.142" y2="30.764" gradientUnits="userSpaceOnUse"><stop stop-color="#D93025"/><stop offset="1" stop-color="#EA4335"/></linearGradient><linearGradient id="c" x1="30.533" x2="3.257" y1="10.093" y2="10.093" gradientUnits="userSpaceOnUse"><stop stop-color="#FCC934"/><stop offset="1" stop-color="#FBBC04"/></linearGradient><linearGradient id="d" x1="17.705" x2="4.067" y1="30.767" y2="7.145" gradientUnits="userSpaceOnUse"><stop stop-color="#1E8E3E"/><stop offset="1" stop-color="#34A853"/></linearGradient><clipPath id="a"><path fill="#fff" d="M.25.25h31.5v31.5H.25z"/></clipPath></defs></svg>