<svg fill="none" viewBox="0 0 24 24" xmlns="http://www.w3.org/2000/svg">
  <g clip-path="url(#Magnite_svg__a)">
    <path fill="#7F5CE4" d="M24 12c0 6.627-5.373 12-12 12S0 18.627 0 12 5.373 0 12 0s12 5.373 12 12Z"/>
    <path fill="#fff" fill-opacity=".12" fill-rule="evenodd" d="M24 12c0 6.627-5.373 12-12 12S0 18.627 0 12 5.373 0 12 0s12 5.373 12 12ZM12 23.5c6.351 0 11.5-5.149 11.5-11.5S18.351.5 12 .5.5 5.649.5 12 5.649 23.5 12 23.5Z" clip-rule="evenodd"/>
    <path fill="#fff" d="M9.185 17.886s-.66-9.705-.66-10.981h-.132c.067 1.276.026 10.98.026 10.98H5.5V6h5.876s.572 9.93.572 11.204h.104c0-1.273.572-11.204.572-11.204H18.5v11.886h-2.92s-.041-9.705.027-10.981h-.133c0 1.276-.659 10.98-.659 10.98h-5.63Z"/>
  </g>
  <defs>
    <clipPath id="Magnite_svg__a">
      <path fill="#fff" d="M0 0h24v24H0z"/>
    </clipPath>
  </defs>
</svg>
