<svg fill="none" viewBox="0 0 24 24" xmlns="http://www.w3.org/2000/svg">
  <g clip-path="url(#OneTrust_svg__a)">
    <path fill="#55A05F" d="M24 12c0 6.627-5.373 12-12 12S0 18.627 0 12 5.373 0 12 0s12 5.373 12 12Z"/>
    <path fill="#000" fill-opacity=".12" fill-rule="evenodd" d="M24 12c0 6.627-5.373 12-12 12S0 18.627 0 12 5.373 0 12 0s12 5.373 12 12ZM12 23.5c6.351 0 11.5-5.149 11.5-11.5S18.351.5 12 .5.5 5.649.5 12 5.649 23.5 12 23.5Z" clip-rule="evenodd"/>
    <path fill="#fff" d="M5.995 12.64c0 2.056.945 3.314 2.385 3.314 1.439 0 2.341-1.257 2.341-3.313 0-2.204-.893-3.331-2.341-3.331-1.449 0-2.385 1.127-2.385 3.33Zm6.721 0c0 2.655-1.916 4.511-4.353 4.511S4 15.295 4 12.641c0-2.655 1.952-4.51 4.363-4.51 2.41 0 4.353 1.855 4.353 4.51Zm3.789 2.41c0 .574.207.782.779.782l1.466.009v1.144h-2.089c-1.213 0-1.908-.693-1.908-1.906v-4.136h-.002V9.539h-1.74V8.528c.115 0 .078-.002.237-.006.281-.004.495-.012.642-.024.364-.02.607-.09.728-.211.12-.12.2-.368.242-.744a7.96 7.96 0 0 0 .071-.775c.016-.307.024-.717.024-.768h1.55v2.304h2.245v1.234h-2.245v5.513Z"/>
  </g>
  <defs>
    <clipPath id="OneTrust_svg__a">
      <path fill="#fff" d="M0 0h24v24H0z"/>
    </clipPath>
  </defs>
</svg>
