<svg width="145" height="19" viewBox="0 0 145 19" fill="none" xmlns="http://www.w3.org/2000/svg">
    <path d="M55.0361 5.71318H52.2965L47.3092 10.841V0.585388H45.2019V18.0761H47.3092V12.3161L52.999 18.0059L53.0692 18.0761H55.4575H55.598V17.8654L49.2058 11.5434L55.0361 5.71318Z" fill="#333333"/>
    <path d="M41.5493 15.0556C40.7766 15.8283 39.6527 16.2497 38.3883 16.2497C36.2107 16.2497 34.0332 14.9151 34.0332 11.8244C34.0332 9.22536 35.8595 7.39901 38.3883 7.39901C39.5122 7.39901 40.5658 7.82048 41.4088 8.59317L41.479 8.66341L42.8136 7.25854L42.7434 7.18829C41.479 5.99414 40.0039 5.43219 38.318 5.43219C34.4546 5.43219 31.8556 8.03122 31.8556 11.8244C31.8556 16.2498 35.0868 18.2166 38.318 18.2166H38.3883C40.0741 18.2166 41.6897 17.5844 42.8136 16.3902L42.8839 16.32L41.479 14.9151L41.5493 15.0556Z" fill="#333333"/>
    <path d="M27.2897 12.3161C27.2897 14.5639 25.7444 16.2497 23.5668 16.32C21.2488 16.32 19.8439 14.9151 19.8439 12.5268V5.71313H17.7366V12.5268C17.7366 16.039 19.8439 18.2868 23.1454 18.2868H23.2156C24.8312 18.2868 26.3063 17.5141 27.2897 16.32L27.36 16.1795L27.4302 18.0761H29.3971V5.71313H27.2897V12.3161Z" fill="#333333"/>
    <path d="M6.56779 0.515137H0.175598V18.0761H6.56779C12.679 18.0761 15.3483 13.5805 15.3483 9.15513C15.3483 5.01074 12.6088 0.515137 6.56779 0.515137ZM13.1707 9.0849C13.1707 12.4566 11.1336 15.8283 6.63803 15.8283H2.4234V2.6927H6.56779C11.0634 2.6927 13.1707 5.99417 13.1707 9.0849Z" fill="#333333"/>
    <path d="M121.979 10.4195H127.387V14.4936C126.053 15.6175 124.437 16.2497 122.681 16.2497C117.904 16.2497 115.727 12.8078 115.727 9.43609C115.727 5.99413 117.904 2.2712 122.611 2.2712C124.507 2.2712 126.263 2.97363 127.668 4.23802L127.738 4.30827L129.003 2.83314L128.933 2.76292C127.247 1.07706 124.999 0.234131 122.54 0.234131C119.871 0.234131 117.623 1.07706 116.008 2.76292C114.322 4.44877 113.409 6.83704 113.479 9.50631C113.479 13.6507 115.867 18.4273 122.611 18.4273C122.681 18.4273 122.681 18.4273 122.751 18.4273C125.28 18.4273 127.668 17.3736 129.354 15.477V8.5229H121.908V10.4195H121.979Z" fill="#333333"/>
    <path d="M63.9571 0.515137H57.5649V18.0761H63.9571C70.0683 18.0761 72.7376 13.5805 72.7376 9.15513C72.7376 5.01074 69.9981 0.515137 63.9571 0.515137ZM70.56 9.0849C70.56 12.4566 68.5229 15.8283 64.0273 15.8283H59.8829V2.6927H64.0273C68.4527 2.6927 70.56 5.99417 70.56 9.0849Z" fill="#333333"/>
    <path d="M137.924 5.43219C134.201 5.43219 131.532 8.17171 131.532 11.8946C131.532 15.6176 134.201 18.2868 137.924 18.2868C141.647 18.2868 144.386 15.6176 144.386 11.8946C144.386 8.10147 141.717 5.43219 137.924 5.43219ZM142.279 11.8946C142.279 14.4937 140.453 16.32 137.924 16.32C135.465 16.32 133.639 14.4937 133.639 11.8946C133.639 9.22537 135.395 7.32878 137.994 7.32878C140.453 7.39903 142.279 9.29561 142.279 11.8946Z" fill="#333333"/>
    <path d="M84.679 12.3161C84.679 14.5639 83.1337 16.2497 80.9561 16.32C78.6381 16.32 77.2332 14.9151 77.2332 12.5268V5.71313H75.1259V12.5268C75.1259 16.039 77.2332 18.2868 80.4644 18.2868H80.5346C82.1502 18.2868 83.6254 17.5141 84.6088 16.32L84.679 16.1795L84.7493 18.0761H86.7161V5.71313H84.6088V12.3161H84.679Z" fill="#333333"/>
    <path d="M98.9385 15.0556C98.1658 15.8283 97.0419 16.2497 95.7775 16.2497C93.6 16.2497 91.4224 14.9151 91.4224 11.8244C91.4224 9.22536 93.2488 7.39901 95.7775 7.39901C96.9014 7.39901 97.9551 7.82048 98.798 8.59317L98.8683 8.66341L100.203 7.25854L100.133 7.18829C98.8683 5.99414 97.3932 5.43219 95.7073 5.43219C91.8439 5.43219 89.2449 8.03122 89.2449 11.8244C89.2449 16.2498 92.4761 18.2166 95.7073 18.2166H95.7775C97.4634 18.2166 99.079 17.5844 100.203 16.3902L100.273 16.32L98.8683 14.9151L98.9385 15.0556Z" fill="#333333"/>
    <path d="M112.425 5.71318H109.686L104.699 10.841V0.585388H102.591V18.0761H104.699V12.3161L110.388 18.0059L110.459 18.0761H112.847H112.987V17.8654L106.595 11.5434L112.425 5.71318Z" fill="#333333"/>
</svg>
