<svg fill="none" viewBox="0 0 24 24" xmlns="http://www.w3.org/2000/svg">
  <path fill="#39C" d="M24 12c0 6.627-5.373 12-12 12S0 18.627 0 12 5.373 0 12 0s12 5.373 12 12Z"/>
  <path fill="#fff" fill-opacity=".12" fill-rule="evenodd" d="M12 23.5c6.351 0 11.5-5.149 11.5-11.5S18.351.5 12 .5.5 5.649.5 12 5.649 23.5 12 23.5Zm0 .5c6.627 0 12-5.373 12-12S18.627 0 12 0 0 5.373 0 12s5.373 12 12 12Z" clip-rule="evenodd"/>
  <path fill="#fff" d="m17.101 17.052-1.594-2.986H8.415l-1.54 2.986H4.5L10.994 5h1.883L19.5 17.052h-2.399Zm-5.211-9.7-2.623 5.065h5.337L11.89 7.35Z"/>
</svg>
