<svg fill="none" viewBox="0 0 24 24" xmlns="http://www.w3.org/2000/svg">
  <g clip-path="url(#DeepIntent_svg__a)">
    <path fill="#0E3551" d="M24 12c0 6.627-5.373 12-12 12S0 18.627 0 12 5.373 0 12 0s12 5.373 12 12Z"/>
    <path fill="#fff" fill-opacity=".12" fill-rule="evenodd" d="M24 12c0 6.627-5.373 12-12 12S0 18.627 0 12 5.373 0 12 0s12 5.373 12 12ZM12 23.5c6.351 0 11.5-5.149 11.5-11.5S18.351.5 12 .5.5 5.649.5 12 5.649 23.5 12 23.5Z" clip-rule="evenodd"/>
    <path fill="#F47B20" d="M19.5 8.194h-2.227V5.913h-1.466v2.28h-2.226v1.413h2.226v2.226h1.466V9.607H19.5V8.194Z"/>
    <path fill="#fff" d="M8.584 11.941c-.38 0-.76.054-1.032.217-.271.163-.543.326-.706.598a3.246 3.246 0 0 0-.434.869c-.109.325-.109.706-.109 1.086 0 .38.055.706.109 1.032.109.271.272.543.434.814.218.218.435.435.706.598.272.162.652.217 1.032.217s.706-.055.978-.217c.271-.163.489-.326.706-.598.163-.217.326-.543.38-.869.109-.325.109-.651.109-1.032 0-.38-.055-.706-.109-1.031a4.201 4.201 0 0 0-.38-.87c-.163-.27-.435-.434-.706-.597a2.367 2.367 0 0 0-.978-.217ZM5 14.602c0-.543.054-1.032.217-1.466.163-.435.38-.87.706-1.195.326-.326.652-.597 1.14-.76.435-.217.924-.272 1.521-.272.49 0 .924.109 1.304.272.38.163.651.38.923.706h.054V8.194h1.195v9.992h-.978l-.271-.869h-.054c-.272.38-.598.652-1.032.815a4.08 4.08 0 0 1-1.412.272c-.435 0-.815-.055-1.25-.218-.38-.163-.76-.38-1.085-.706a3.235 3.235 0 0 1-.76-1.14c-.11-.434-.218-.923-.218-1.52v-.218Z"/>
  </g>
  <defs>
    <clipPath id="DeepIntent_svg__a">
      <path fill="#fff" d="M0 0h24v24H0z"/>
    </clipPath>
  </defs>
</svg>
