<svg fill="none" viewBox="0 0 24 24" xmlns="http://www.w3.org/2000/svg">
  <g clip-path="url(#ExoClick_svg__a)">
    <path fill="#fff" d="M24 12c0 6.627-5.373 12-12 12S0 18.627 0 12 5.373 0 12 0s12 5.373 12 12Z"/>
    <path fill="#000" fill-opacity=".12" fill-rule="evenodd" d="M24 12c0 6.627-5.373 12-12 12S0 18.627 0 12 5.373 0 12 0s12 5.373 12 12ZM12 23.5c6.351 0 11.5-5.149 11.5-11.5S18.351.5 12 .5.5 5.649.5 12 5.649 23.5 12 23.5Z" clip-rule="evenodd"/>
    <path fill="#54A245" d="m10.863 16.732-4.285-7.69H8.36l4.228 7.69h-1.725Z"/>
    <path fill="#0072B8" d="m4 17.651 2.976-.9s.342-1.491 1.593-3.33l-.531-.957C6.654 13.844 5.289 15.536 4 17.65ZM15.81 6.65l.531.387s-2.976.773-6.54 3.771l.38.68c1.459-1.49 3.506-2.869 6.464-3.697v.7S17.573 7.46 20 6.613c-1.896-.276-4.19.037-4.19.037Z"/>
  </g>
  <defs>
    <clipPath id="ExoClick_svg__a">
      <path fill="#fff" d="M0 0h24v24H0z"/>
    </clipPath>
  </defs>
</svg>
