<svg fill="none" viewBox="0 0 24 24" xmlns="http://www.w3.org/2000/svg">
  <g clip-path="url(#G_svg__a)">
    <path fill="#FC3" d="M24 12c0 6.627-5.373 12-12 12S0 18.627 0 12 5.373 0 12 0s12 5.373 12 12Z"/>
    <path fill="#000" fill-opacity=".12" fill-rule="evenodd" d="M12 23.5c6.351 0 11.5-5.149 11.5-11.5S18.351.5 12 .5.5 5.649.5 12 5.649 23.5 12 23.5Zm0 .5c6.627 0 12-5.373 12-12S18.627 0 12 0 0 5.373 0 12s5.373 12 12 12Z" clip-rule="evenodd"/>
    <path fill="#fff" d="M11.883 10.767h5.7v7.119c-1.548.53-3.25.794-5.104.794-2.036 0-3.61-.59-4.725-1.77-1.108-1.18-1.662-2.864-1.662-5.05 0-2.131.609-3.79 1.825-4.977 1.216-1.186 2.92-1.78 5.113-1.78.83 0 1.614.079 2.348.235a9.912 9.912 0 0 1 1.933.597l-1.129 2.8c-.951-.47-1.996-.705-3.134-.705-1.042 0-1.849.34-2.421 1.021-.566.675-.85 1.641-.85 2.9 0 1.234.257 2.177.769 2.827.518.644 1.261.967 2.23.967a6.54 6.54 0 0 0 1.464-.154v-2.068h-2.357v-2.756Z"/>
  </g>
  <defs>
    <clipPath id="G_svg__a">
      <path fill="#fff" d="M0 0h24v24H0z"/>
    </clipPath>
  </defs>
</svg>
