<svg fill="none" viewBox="0 0 24 24" xmlns="http://www.w3.org/2000/svg">
  <g clip-path="url(#P_svg__a)">
    <path fill="#449986" d="M24 12c0 6.627-5.373 12-12 12S0 18.627 0 12 5.373 0 12 0s12 5.373 12 12Z"/>
    <path fill="#000" fill-opacity=".12" fill-rule="evenodd" d="M12 23.5c6.351 0 11.5-5.149 11.5-11.5S18.351.5 12 .5.5 5.649.5 12 5.649 23.5 12 23.5Zm0 .5c6.627 0 12-5.373 12-12S18.627 0 12 0 0 5.373 0 12s5.373 12 12 12Z" clip-rule="evenodd"/>
    <path fill="#fff" d="M17.167 9.994c0 1.475-.436 2.617-1.31 3.424-.867.8-2.101 1.2-3.703 1.2H11.15V19H7.583V5.793h4.57c1.669 0 2.921.365 3.759 1.093.837.73 1.255 1.765 1.255 3.108Zm-6.016 1.716h.65c.537 0 .961-.15 1.274-.452.32-.3.479-.716.479-1.246 0-.891-.494-1.337-1.482-1.337h-.92v3.035Z"/>
  </g>
  <defs>
    <clipPath id="P_svg__a">
      <path fill="#fff" d="M0 0h24v24H0z"/>
    </clipPath>
  </defs>
</svg>
