<svg fill="none" viewBox="0 0 24 24" xmlns="http://www.w3.org/2000/svg">
  <g clip-path="url(#J_svg__a)">
    <path fill="#A8C338" d="M24 12c0 6.627-5.373 12-12 12S0 18.627 0 12 5.373 0 12 0s12 5.373 12 12Z"/>
    <path fill="#000" fill-opacity=".12" fill-rule="evenodd" d="M12 23.5c6.351 0 11.5-5.149 11.5-11.5S18.351.5 12 .5.5 5.649.5 12 5.649 23.5 12 23.5Zm0 .5c6.627 0 12-5.373 12-12S18.627 0 12 0 0 5.373 0 12s5.373 12 12 12Z" clip-rule="evenodd"/>
    <path fill="#fff" d="M10.502 19.605a7.593 7.593 0 0 1-1.61-.165v-2.41c.167.03.345.064.534.101.188.042.392.063.612.063.514 0 .88-.154 1.1-.463.22-.31.33-.838.33-1.587V4.516h3.118v10.36c0 1.556-.34 2.732-1.02 3.528-.682.8-1.703 1.201-3.064 1.201Z"/>
  </g>
  <defs>
    <clipPath id="J_svg__a">
      <path fill="#fff" d="M0 0h24v24H0z"/>
    </clipPath>
  </defs>
</svg>
