<svg fill="none" viewBox="0 0 24 24" xmlns="http://www.w3.org/2000/svg">
  <g clip-path="url(#Prospect-One_svg__a)">
    <path fill="#000" d="M24 12c0 6.627-5.373 12-12 12S0 18.627 0 12 5.373 0 12 0s12 5.373 12 12Z"/>
    <path fill="#fff" fill-opacity=".12" fill-rule="evenodd" d="M24 12c0 6.627-5.373 12-12 12S0 18.627 0 12 5.373 0 12 0s12 5.373 12 12ZM12 23.5c6.351 0 11.5-5.149 11.5-11.5S18.351.5 12 .5.5 5.649.5 12 5.649 23.5 12 23.5Z" clip-rule="evenodd"/>
    <path fill="#567301" d="M14.223 8.6a.915.915 0 1 1 1.83 0v7.062a.915.915 0 1 1-1.83 0V8.6Z"/>
    <path fill="#95BF15" d="M12.13 9.908a.915.915 0 1 1 1.831 0v5.754a.915.915 0 1 1-1.83 0V9.908Z"/>
    <path fill="#FDA400" d="M10.039 11.215a.915.915 0 1 1 1.83 0v4.447a.915.915 0 1 1-1.83 0v-4.447Z"/>
    <path fill="#F8533B" d="M7.946 11.739a.915.915 0 1 1 1.83 0v3.922a.915.915 0 1 1-1.83 0V11.74Z"/>
    <path fill="#168699" fill-rule="evenodd" d="M12 18.93a6.93 6.93 0 1 0 0-13.86 6.93 6.93 0 0 0 0 13.86Zm0 1.57a8.5 8.5 0 1 0 0-17 8.5 8.5 0 0 0 0 17Z" clip-rule="evenodd"/>
  </g>
  <defs>
    <clipPath id="Prospect-One_svg__a">
      <path fill="#fff" d="M0 0h24v24H0z"/>
    </clipPath>
  </defs>
</svg>
