<svg fill="none" viewBox="0 0 24 24" xmlns="http://www.w3.org/2000/svg">
  <g clip-path="url(#U_svg__a)">
    <path fill="#3E5FE2" d="M24 12c0 6.627-5.373 12-12 12S0 18.627 0 12 5.373 0 12 0s12 5.373 12 12Z"/>
    <path fill="#000" fill-opacity=".12" fill-rule="evenodd" d="M12 23.5c6.351 0 11.5-5.149 11.5-11.5S18.351.5 12 .5.5 5.649.5 12 5.649 23.5 12 23.5Zm0 .5c6.627 0 12-5.373 12-12S18.627 0 12 0 0 5.373 0 12s5.373 12 12 12Z" clip-rule="evenodd"/>
    <path fill="#fff" d="M17.655 5.793v7.95c0 1.728-.49 3.068-1.472 4.02-.976.945-2.385 1.418-4.228 1.418-1.8 0-3.186-.461-4.155-1.382-.964-.922-1.446-2.247-1.446-3.975v-8.03h3.587v7.75c0 .933.174 1.61.524 2.032.349.422.864.633 1.544.633.729 0 1.256-.208 1.581-.624.331-.421.497-1.108.497-2.06V5.794h3.568Z"/>
  </g>
  <defs>
    <clipPath id="U_svg__a">
      <path fill="#fff" d="M0 0h24v24H0z"/>
    </clipPath>
  </defs>
</svg>
