<svg width="20" height="20" viewBox="0 0 20 20" fill="none" xmlns="http://www.w3.org/2000/svg">
    <path d="M10.604 4.55627C9.67439 4.55627 9.10934 5.3036 9.10934 5.99623C9.10934 6.83469 9.7473 7.1081 10.3123 7.1081C11.3513 7.1081 11.7888 6.32432 11.7888 5.68637C11.7888 4.88437 11.1508 4.55627 10.604 4.55627Z" fill="white"/>
    <path d="M11.1413 8.18192L8.85806 8.55106C8.78817 9.10365 8.68764 9.66256 8.58552 10.2303C8.38843 11.326 8.18542 12.4546 8.18542 13.6339C8.18542 14.8049 8.88572 15.444 9.99318 15.444C11.258 15.444 11.4745 14.6501 11.5235 13.9309C10.475 14.083 10.2447 13.6097 10.416 12.4959C10.5874 11.382 11.1413 8.18192 11.1413 8.18192Z" fill="white"/>
    <path fill-rule="evenodd" clip-rule="evenodd" d="M10 0C4.47715 0 0 4.47715 0 10C0 15.5228 4.47715 20 10 20C15.5228 20 20 15.5228 20 10C20 4.47715 15.5228 0 10 0ZM1.875 10C1.875 5.51269 5.51269 1.875 10 1.875C14.4873 1.875 18.125 5.51269 18.125 10C18.125 14.4873 14.4873 18.125 10 18.125C5.51269 18.125 1.875 14.4873 1.875 10Z" fill="white"/>
</svg>
