<svg fill="none" viewBox="0 0 128 96" xmlns="http://www.w3.org/2000/svg">
  <path fill="#888" d="M16.912 31.049a1.495 1.495 0 0 1 2.114-2.114l1.932 1.932 1.932-1.932a1.495 1.495 0 0 1 2.114 2.114l-1.932 1.932 1.932 1.932a1.495 1.495 0 0 1-2.114 2.114l-1.932-1.933-1.932 1.933a1.494 1.494 0 1 1-2.114-2.114l1.932-1.932zM.582 52.91a1.495 1.495 0 0 1 2.113-2.115l1.292 1.292 1.291-1.292a1.495 1.495 0 1 1 2.114 2.114L6.1 54.2l1.292 1.292a1.495 1.495 0 1 1-2.113 2.114l-1.292-1.292-1.292 1.292a1.495 1.495 0 1 1-2.114-2.114l1.292-1.291zm104.972-15.452a1.496 1.496 0 0 1 2.114-2.114l1.291 1.292 1.292-1.292a1.495 1.495 0 0 1 2.114 2.114l-1.292 1.291 1.292 1.292a1.494 1.494 0 1 1-2.114 2.114l-1.292-1.292-1.291 1.292a1.495 1.495 0 0 1-2.114-2.114l1.292-1.292zM124.5 54c-.825 0-1.5-.675-1.5-1.5s.675-1.5 1.5-1.5 1.5.675 1.5 1.5-.675 1.5-1.5 1.5M24 67c-1.1 0-2-.9-2-2s.9-2 2-2 2 .9 2 2-.9 2-2 2" opacity=".2"/>
  <path fill="red" d="M63.5 70.802c1.945 0 3.484-1.588 3.841-3.5C69.076 58.022 77.218 51 87 51h4.96c2.225 0 4.04-1.774 4.04-4 0-.026-.007-9.022-1.338-14.004a8.02 8.02 0 0 0-5.659-5.658C84.014 26 64 26 64 26s-20.014 0-25.004 1.338a8.01 8.01 0 0 0-5.658 5.658C32 37.986 32 48.401 32 48.401s0 10.416 1.338 15.405a8.01 8.01 0 0 0 5.658 5.658c4.99 1.338 24.504 1.338 24.504 1.338"/>
  <path fill="#fff" d="m57.594 58 16.627-9.598-16.627-9.599z"/>
  <path fill="#EB102D" d="M103 71c0 8.837-7.163 16-16 16s-16-7.163-16-16 7.163-16 16-16 16 7.163 16 16"/>
  <path fill="#fff" d="M89 77.8a2 2 0 1 1-4 0 2 2 0 0 1 4 0m-2.039-4.4c-.706 0-1.334-.49-1.412-1.12l-.942-8.75c-.079-.7.55-1.33 1.412-1.33h1.962c.785 0 1.492.63 1.413 1.33l-.942 8.75c-.157.63-.784 1.12-1.49 1.12Z"/>
  <path fill="#CCC" d="M108.501 59c.298 0 .595.12.823.354.454.468.454 1.23 0 1.698l-2.333 2.4a1.145 1.145 0 0 1-1.65 0 1.226 1.226 0 0 1 0-1.698l2.332-2.4c.228-.234.525-.354.823-.354zm-1.166 10.798h3.499c.641 0 1.166.54 1.166 1.2s-.525 1.2-1.166 1.2h-3.499c-.641 0-1.166-.54-1.166-1.2s.525-1.2 1.166-1.2m-1.982 8.754c.227-.234.525-.354.822-.354h.006c.297 0 .595.12.822.354l2.333 2.4c.454.467.454 1.23 0 1.697a1.146 1.146 0 0 1-1.651 0l-2.332-2.4a1.226 1.226 0 0 1 0-1.697"/>
</svg>
