<svg width="24" height="24" viewBox="0 0 24 24" fill="none" xmlns="http://www.w3.org/2000/svg">
<g clip-path="url(#clip0_3005_39840)">
<path d="M12 1.25C17.9371 1.25 22.75 6.06294 22.75 12C22.75 17.9371 17.9371 22.75 12 22.75C11.5803 22.75 11.1664 22.725 10.7595 22.6773C10.1749 22.6088 9.8398 22.0068 9.87687 21.4195C9.97788 19.8188 9.30326 17.9892 7.91309 16.5127C6.38816 14.8932 4.38736 14.1078 2.67277 14.2813C2.06778 14.3425 1.42442 14.0213 1.34411 13.4185C1.28228 12.9544 1.25 12.481 1.25 12C1.25 6.06294 6.06294 1.25 12 1.25Z" fill="#FEC657"/>
<path d="M7.91309 16.5127L8.45914 15.9986L8.45911 15.9985L7.91309 16.5127ZM2.67277 14.2813L2.59725 13.5351L2.67277 14.2813ZM1.34411 13.4185L0.60068 13.5176L1.34411 13.4185ZM9.87687 21.4195L9.12836 21.3722V21.3722L9.87687 21.4195ZM12 1.25V2C17.5228 2 22 6.47715 22 12H22.75H23.5C23.5 5.64873 18.3513 0.5 12 0.5V1.25ZM22.75 12H22C22 17.5228 17.5228 22 12 22V22.75V23.5C18.3513 23.5 23.5 18.3513 23.5 12H22.75ZM12 22.75V22C11.6101 22 11.2254 21.9768 10.8468 21.9324L10.7595 22.6773L10.6722 23.4222C11.1074 23.4732 11.5505 23.5 12 23.5V22.75ZM9.87687 21.4195L10.6254 21.4667C10.7413 19.6304 9.97061 17.6039 8.45914 15.9986L7.91309 16.5127L7.36703 17.0268C8.6359 18.3745 9.21449 20.0073 9.12836 21.3722L9.87687 21.4195ZM7.91309 16.5127L8.45911 15.9985C6.80405 14.2409 4.5838 13.3341 2.59725 13.5351L2.67277 14.2813L2.74828 15.0275C4.19091 14.8815 5.97226 15.5456 7.36706 17.0268L7.91309 16.5127ZM1.34411 13.4185L2.08754 13.3194C2.03002 12.8877 2 12.4474 2 12H1.25H0.5C0.5 12.5146 0.534533 13.0211 0.60068 13.5176L1.34411 13.4185ZM1.25 12H2C2 6.47715 6.47715 2 12 2V1.25V0.5C5.64873 0.5 0.5 5.64873 0.5 12H1.25ZM2.67277 14.2813L2.59725 13.5351C2.44281 13.5507 2.29482 13.5142 2.19775 13.4559C2.11021 13.4033 2.09231 13.3553 2.08754 13.3194L1.34411 13.4185L0.60068 13.5176C0.676216 14.0845 1.02016 14.4984 1.42562 14.7419C1.82155 14.9796 2.29773 15.0731 2.74828 15.0275L2.67277 14.2813ZM10.7595 22.6773L10.8468 21.9324C10.8105 21.9281 10.764 21.9107 10.7125 21.8321C10.6555 21.745 10.6163 21.6107 10.6254 21.4667L9.87687 21.4195L9.12836 21.3722C9.07683 22.1888 9.54329 23.2899 10.6722 23.4222L10.7595 22.6773Z" fill="#EBA100"/>
<circle cx="12" cy="6" r="1" fill="#C38500"/>
<circle cx="12" cy="12" r="1" fill="#C38500"/>
<circle cx="18" cy="9" r="1" fill="#C38500"/>
<circle cx="18" cy="15" r="1" fill="#C38500"/>
<circle cx="13" cy="18" r="1" fill="#C38500"/>
<circle cx="7" cy="9" r="1" fill="#C38500"/>
</g>
<defs>
<clipPath id="clip0_3005_39840">
<rect width="24" height="24" fill="white"/>
</clipPath>
</defs>
</svg>
