<svg width="64" height="48" viewBox="0 0 64 48" fill="none" xmlns="http://www.w3.org/2000/svg">
<path opacity="0.2" d="M8.456 15.5245C8.31937 15.3836 8.24363 15.1946 8.24514 14.9984C8.24664 14.8021 8.32528 14.6143 8.46405 14.4756C8.60283 14.3368 8.79062 14.2582 8.98688 14.2566C9.18313 14.2551 9.37211 14.3309 9.513 14.4675L10.479 15.4335L11.445 14.4675C11.5859 14.3309 11.7749 14.2551 11.9711 14.2566C12.1674 14.2582 12.3552 14.3368 12.4939 14.4756C12.6327 14.6143 12.7114 14.8021 12.7129 14.9984C12.7144 15.1946 12.6386 15.3836 12.502 15.5245L11.536 16.4905L12.502 17.4565C12.6386 17.5974 12.7144 17.7864 12.7129 17.9826C12.7114 18.1789 12.6327 18.3667 12.4939 18.5055C12.3552 18.6442 12.1674 18.7229 11.9711 18.7244C11.7749 18.7259 11.5859 18.6501 11.445 18.5135L10.479 17.547L9.513 18.5135C9.44359 18.5829 9.3612 18.638 9.27052 18.6755C9.17984 18.7131 9.08265 18.7324 8.9845 18.7324C8.88635 18.7324 8.78916 18.7131 8.69848 18.6755C8.6078 18.638 8.5254 18.5829 8.456 18.5135C8.3866 18.4441 8.33154 18.3617 8.29398 18.271C8.25642 18.1803 8.23709 18.0832 8.23709 17.985C8.23709 17.8869 8.25642 17.7897 8.29398 17.699C8.33154 17.6083 8.3866 17.5259 8.456 17.4565L9.422 16.4905L8.456 15.5245Z" fill="#888888"/>
<path opacity="0.1" d="M0.291001 26.455C0.154303 26.3142 0.0784737 26.1252 0.0798871 25.929C0.0813004 25.7327 0.159843 25.5449 0.298555 25.406C0.437268 25.2672 0.625022 25.1885 0.821278 25.1869C1.01753 25.1853 1.20654 25.2609 1.3475 25.3975L1.9935 26.0435L2.639 25.3975C2.70801 25.3263 2.79049 25.2696 2.88163 25.2306C2.97277 25.1916 3.07075 25.1712 3.16988 25.1704C3.269 25.1696 3.36729 25.1886 3.45902 25.2262C3.55075 25.2638 3.63409 25.3192 3.70418 25.3893C3.77427 25.4594 3.82973 25.5427 3.86731 25.6345C3.90489 25.7262 3.92386 25.8245 3.9231 25.9236C3.92233 26.0227 3.90186 26.1207 3.86288 26.2119C3.82389 26.303 3.76716 26.3855 3.696 26.4545L3.05 27.1L3.696 27.746C3.76847 27.8147 3.82644 27.8972 3.8665 27.9886C3.90657 28.0801 3.9279 28.1786 3.92926 28.2784C3.93061 28.3783 3.91195 28.4774 3.87438 28.5699C3.83681 28.6624 3.78109 28.7464 3.71051 28.817C3.63993 28.8876 3.55592 28.9434 3.46344 28.981C3.37096 29.0186 3.27188 29.0373 3.17205 29.036C3.07222 29.0347 2.97367 29.0134 2.8822 28.9734C2.79073 28.9334 2.70821 28.8754 2.6395 28.803L1.9935 28.157L1.3475 28.803C1.27849 28.8742 1.19602 28.9309 1.10488 28.9699C1.01374 29.0089 0.91575 29.0293 0.816624 29.0301C0.717498 29.0309 0.619211 29.0119 0.527482 28.9743C0.435754 28.9367 0.352417 28.8813 0.282323 28.8112C0.212228 28.7411 0.156775 28.6577 0.119192 28.566C0.0816088 28.4743 0.0626459 28.376 0.063407 28.2769C0.0641682 28.1777 0.0846381 28.0798 0.123625 27.9886C0.162613 27.8975 0.219338 27.815 0.290501 27.746L0.936501 27.1005L0.291001 26.455Z" fill="#888888"/>
<path opacity="0.2" d="M60.342 33.822C60.2109 33.68 60.1398 33.4929 60.1436 33.2996C60.1474 33.1064 60.2259 32.9222 60.3626 32.7856C60.4992 32.6489 60.6834 32.5705 60.8766 32.5666C61.0698 32.5628 61.257 32.6339 61.399 32.765L62.0445 33.411L62.6905 32.765C62.7599 32.6956 62.8423 32.6406 62.933 32.6031C63.0236 32.5656 63.1208 32.5462 63.2189 32.5463C63.3171 32.5463 63.4142 32.5656 63.5049 32.6032C63.5955 32.6408 63.6779 32.6959 63.7472 32.7653C63.8166 32.8347 63.8716 32.917 63.9092 33.0077C63.9467 33.0984 63.966 33.1956 63.966 33.2937C63.966 33.3918 63.9466 33.489 63.909 33.5796C63.8715 33.6703 63.8164 33.7526 63.747 33.822L63.1015 34.4675L63.7475 35.1135C63.8877 35.2537 63.9664 35.4438 63.9664 35.642C63.9664 35.8402 63.8877 36.0303 63.7475 36.1705C63.6073 36.3107 63.4172 36.3894 63.219 36.3894C63.0208 36.3894 62.8307 36.3107 62.6905 36.1705L62.0445 35.5245L61.3985 36.1705C61.3291 36.2399 61.2467 36.2949 61.156 36.3324C61.0654 36.37 60.9682 36.3893 60.8701 36.3892C60.7719 36.3892 60.6748 36.3699 60.5841 36.3323C60.4935 36.2947 60.4111 36.2397 60.3418 36.1703C60.2724 36.1009 60.2174 36.0185 60.1798 35.9278C60.1423 35.8371 60.123 35.74 60.123 35.6418C60.123 35.5437 60.1424 35.4465 60.18 35.3559C60.2175 35.2652 60.2726 35.1829 60.342 35.1135L60.988 34.4675L60.342 33.822ZM52.777 18.729C52.6459 18.587 52.5748 18.3999 52.5786 18.2066C52.5824 18.0134 52.6609 17.8292 52.7976 17.6926C52.9342 17.5559 53.1184 17.4775 53.3116 17.4736C53.5048 17.4698 53.692 17.5409 53.834 17.672L54.4795 18.318L55.1255 17.672C55.2664 17.5354 55.4554 17.4596 55.6516 17.4611C55.8479 17.4626 56.0357 17.5413 56.1744 17.6801C56.3132 17.8188 56.3919 18.0066 56.3934 18.2029C56.3949 18.3991 56.3191 18.5881 56.1825 18.729L55.5365 19.3745L56.1825 20.0205C56.2519 20.0899 56.307 20.1723 56.3445 20.263C56.3821 20.3537 56.4014 20.4509 56.4014 20.549C56.4014 20.6472 56.3821 20.7443 56.3445 20.835C56.307 20.9257 56.2519 21.0081 56.1825 21.0775C56.1131 21.1469 56.0307 21.202 55.94 21.2395C55.8493 21.2771 55.7522 21.2964 55.654 21.2964C55.5558 21.2964 55.4587 21.2771 55.368 21.2395C55.2773 21.202 55.1949 21.1469 55.1255 21.0775L54.4795 20.4315L53.834 21.0775C53.6931 21.2141 53.5041 21.2899 53.3079 21.2884C53.1116 21.2869 52.9238 21.2082 52.7851 21.0695C52.6463 20.9307 52.5676 20.7429 52.5661 20.5466C52.5646 20.3504 52.6404 20.1614 52.777 20.0205L53.423 19.3745L52.777 18.729Z" fill="#888888"/>
<path opacity="0.1" d="M62.25 27C61.8375 27 61.5 26.6625 61.5 26.25C61.5 25.8375 61.8375 25.5 62.25 25.5C62.6625 25.5 63 25.8375 63 26.25C63 26.6625 62.6625 27 62.25 27Z" fill="#888888"/>
<path opacity="0.2" d="M12 33.5C11.45 33.5 11 33.05 11 32.5C11 31.95 11.45 31.5 12 31.5C12.55 31.5 13 31.95 13 32.5C13 33.05 12.55 33.5 12 33.5Z" fill="#888888"/>
<path d="M21 10C20.2044 10 19.4413 10.3161 18.8787 10.8787C18.3161 11.4413 18 12.2044 18 13V35C18 35.7956 18.3161 36.5587 18.8787 37.1213C19.4413 37.6839 20.2044 38 21 38H31.5C32.0304 38 32.5391 37.7893 32.9142 37.4142C33.2893 37.0391 33.5 36.5304 33.5 36V35.5C33.5 29.977 37.977 25.5 43.5 25.5H46C46.5304 25.5 47.0391 25.2893 47.4142 24.9142C47.7893 24.5391 48 24.0304 48 23.5V13C48 12.2044 47.6839 11.4413 47.1213 10.8787C46.5587 10.3161 45.7956 10 45 10H21Z" fill="#AAAAAA"/>
<path d="M19 10C18.2044 10 17.4413 10.3161 16.8787 10.8787C16.3161 11.4413 16 12.2044 16 13V35C16 35.7956 16.3161 36.5587 16.8787 37.1213C17.4413 37.6839 18.2044 38 19 38H31.5C32.0304 38 32.5391 37.7893 32.9142 37.4142C33.2893 37.0391 33.5 36.5304 33.5 36V35.5C33.5 29.977 37.977 25.5 43.5 25.5H46V13C46 12.2044 45.6839 11.4413 45.1213 10.8787C44.5587 10.3161 43.7956 10 43 10H19Z" fill="#F5F5F5"/>
<path d="M16.0155 12.6935C16.0055 12.794 16 12.8965 16 13V35C16 35.7956 16.3161 36.5587 16.8787 37.1213C17.4413 37.6839 18.2044 38 19 38H32C32.3978 38 32.7794 37.842 33.0607 37.5607C33.342 37.2794 33.5 36.8978 33.5 36.5H19C18.6022 36.5 18.2206 36.342 17.9393 36.0607C17.658 35.7794 17.5 35.3978 17.5 35V14H44.5V25.5H46V13C46 12.2044 45.6839 11.4413 45.1213 10.8787C44.5587 10.3161 43.7956 10 43 10H19C18.2574 9.99995 17.5411 10.2753 16.9898 10.7729C16.4385 11.2704 16.0914 11.9548 16.0155 12.6935Z" fill="#DDDDDD"/>
<path d="M40.955 19.6965C41.1353 19.7043 41.3108 19.7572 41.4654 19.8503C41.62 19.9434 41.7488 20.0738 41.84 20.2295C42.1515 20.7575 41.9955 21.446 41.484 21.772L41.3105 21.882C41.0424 22.0525 40.7428 22.1672 40.4294 22.2193C40.116 22.2714 39.7953 22.2597 39.4865 22.185C39.1403 22.0992 38.7802 22.0851 38.4284 22.1436C38.0765 22.202 37.7403 22.3318 37.4405 22.525L32.587 25.615L36.2925 27.975C36.4185 28.0555 36.5495 28.125 36.685 28.182C36.2533 28.584 35.8578 29.0232 35.503 29.4945C35.4758 29.4757 35.4483 29.4574 35.4205 29.4395L30.999 26.625L26.577 29.44C25.9594 29.8359 25.5229 30.4593 25.362 31.175C25.2194 31.8129 24.8312 32.3688 24.2815 32.7225L24.108 32.8325C23.5965 33.154 22.929 32.9935 22.613 32.4655C22.519 32.3073 22.4643 32.1288 22.4535 31.945C22.4427 31.7613 22.4761 31.5777 22.551 31.4095C22.6755 31.1295 22.484 30.8125 22.191 30.8035C22.0106 30.7958 21.835 30.7429 21.6804 30.6498C21.5257 30.5567 21.3968 30.4263 21.3055 30.2705C20.994 29.7425 21.1495 29.054 21.6615 28.728L21.8345 28.618C22.1025 28.4475 22.4022 28.3328 22.7156 28.2807C23.029 28.2286 23.3497 28.2403 23.6585 28.315C24.0048 28.4009 24.365 28.415 24.7169 28.3565C25.0688 28.2981 25.4051 28.1682 25.705 27.975L26.31 27.5895L29.415 25.615L24.5615 22.525C24.2612 22.3329 23.925 22.2037 23.5734 22.1452C23.2217 22.0868 22.8618 22.1003 22.5155 22.185C22.2068 22.2607 21.8859 22.2728 21.5724 22.2207C21.2589 22.1686 20.9592 22.0534 20.6915 21.882L20.518 21.772C20.0065 21.446 19.846 20.757 20.162 20.2295C20.2528 20.0734 20.3815 19.9428 20.5362 19.8496C20.6909 19.7564 20.8666 19.7038 21.047 19.6965C21.341 19.6875 21.532 19.3665 21.4075 19.0905C21.3328 18.9223 21.2994 18.7386 21.3103 18.5549C21.3212 18.3712 21.3759 18.1927 21.47 18.0345C21.786 17.5065 22.453 17.341 22.965 17.667L23.138 17.777C23.6867 18.132 24.0747 18.6876 24.219 19.325C24.3815 20.04 24.8177 20.6628 25.434 21.06L31.003 24.605L36.568 21.06C37.1856 20.6641 37.6222 20.0407 37.783 19.325C37.9258 18.6871 38.3141 18.1311 38.864 17.7775L39.0375 17.6675C39.549 17.346 40.216 17.5065 40.5325 18.0345C40.7235 18.3515 40.7455 18.751 40.5945 19.0905C40.4695 19.3705 40.661 19.6875 40.9545 19.6965H40.955Z" fill="#CCCCCC"/>
<path d="M36.2885 27.9845C36.3735 28.0395 36.462 28.09 36.551 28.1315H36.56C36.1804 28.5904 35.7455 29.0006 35.265 29.3525L34.816 29.068L31 26.639L27.183 29.068L26.7335 29.353C26.2532 29.0009 25.8184 28.5906 25.439 28.1315C25.528 28.0855 25.617 28.0395 25.7015 27.9845L26.3065 27.5985L29.4115 25.6245L24.5585 22.5345C24.3713 22.4182 24.1711 22.3242 23.962 22.2545C24.0955 21.5655 24.3315 20.9095 24.647 20.3075C24.852 20.606 25.119 20.8675 25.43 21.065L31 24.61L36.565 21.065C36.8744 20.8679 37.1408 20.6102 37.348 20.3075C37.6692 20.92 37.9 21.5758 38.033 22.2545C37.8234 22.3225 37.6232 22.4166 37.437 22.5345L32.5835 25.6245L36.2885 27.9845Z" fill="#BCBCBC"/>
<path d="M31.844 17.5H30.1695C26.839 17.5 24.2445 20.776 25.2005 24.4005C25.4015 25.1675 25.8205 25.855 26.361 26.4175L27.486 27.5885C27.7425 27.8577 27.8849 28.2157 27.8835 28.5875V29.266C27.8835 29.67 28.2005 30 28.589 30C28.6662 29.9994 28.7417 29.9768 28.8065 29.9348C28.8713 29.8928 28.9229 29.8332 28.955 29.763C28.9867 29.6924 29.0382 29.6325 29.1031 29.5904C29.1681 29.5484 29.2439 29.526 29.3213 29.526C29.3986 29.526 29.4744 29.5484 29.5394 29.5904C29.6043 29.6325 29.6558 29.6924 29.6875 29.763C29.759 29.907 29.8975 30 30.0535 30H30.268C30.3452 29.9994 30.4207 29.9768 30.4855 29.9348C30.5503 29.8928 30.6019 29.8332 30.634 29.763C30.6658 29.6925 30.7172 29.6328 30.7821 29.5908C30.8471 29.5489 30.9227 29.5266 31 29.5266C31.0773 29.5266 31.1529 29.5489 31.2179 29.5908C31.2828 29.6328 31.3342 29.6925 31.366 29.763C31.4375 29.907 31.576 30 31.732 30H31.9465C32.0237 29.9994 32.0992 29.9768 32.164 29.9348C32.2288 29.8928 32.2804 29.8332 32.3125 29.763C32.3442 29.6924 32.3957 29.6325 32.4606 29.5904C32.5256 29.5484 32.6014 29.526 32.6787 29.526C32.7561 29.526 32.8319 29.5484 32.8969 29.5904C32.9618 29.6325 33.0133 29.6924 33.045 29.763C33.116 29.907 33.255 30 33.411 30C33.7995 30 34.116 29.67 34.116 29.266V28.5875C34.116 28.211 34.2595 27.853 34.5135 27.5885L35.6385 26.4175C36.179 25.855 36.5945 25.1675 36.7995 24.4005C37.755 20.776 35.161 17.5 31.8305 17.5H31.844Z" fill="#CCCCCC"/>
<path fill-rule="evenodd" clip-rule="evenodd" d="M33.1425 25.8265C33.6705 25.8265 34.099 25.3845 34.099 24.839C34.099 24.294 33.6705 23.852 33.1425 23.852C32.614 23.852 32.186 24.294 32.186 24.839C32.186 25.384 32.614 25.8265 33.1425 25.8265ZM28.8365 25.8265C29.3645 25.8265 29.793 25.3845 29.793 24.839C29.793 24.294 29.3645 23.852 28.8365 23.852C28.308 23.852 27.88 24.294 27.88 24.839C27.88 25.384 28.308 25.8265 28.8365 25.8265ZM31.8345 26.827L31.23 25.95H31.2215C31.1954 25.9108 31.16 25.8787 31.1185 25.8565C31.077 25.8342 31.0306 25.8226 30.9835 25.8226C30.9364 25.8226 30.89 25.8342 30.8485 25.8565C30.807 25.8787 30.7716 25.9108 30.7455 25.95L30.1405 26.827C30.0025 27.0245 30.1405 27.3045 30.3805 27.3045H31.5955C31.8355 27.3045 31.973 27.0295 31.8355 26.827H31.8345Z" fill="#F2F2F2"/>
<path d="M35.896 25.673C36.7505 22.1465 34.188 18.983 30.914 18.983H29.245C27.768 18.983 26.438 19.626 25.4995 20.6545C26.3 18.7945 28.107 17.5 30.202 17.5H31.87C35.149 17.5 37.711 20.659 36.8525 24.19C36.6615 24.975 36.2525 25.6865 35.705 26.27C35.7805 26.077 35.8475 25.8795 35.896 25.673Z" fill="#BCBCBC"/>
<path fill-rule="evenodd" clip-rule="evenodd" d="M20.5 12C20.5 11.7348 20.3946 11.4804 20.2071 11.2929C20.0196 11.1054 19.7652 11 19.5 11C19.2348 11 18.9804 11.1054 18.7929 11.2929C18.6054 11.4804 18.5 11.7348 18.5 12C18.5 12.2652 18.6054 12.5196 18.7929 12.7071C18.9804 12.8946 19.2348 13 19.5 13C19.7652 13 20.0196 12.8946 20.2071 12.7071C20.3946 12.5196 20.5 12.2652 20.5 12ZM23.5 12C23.5 11.7348 23.3946 11.4804 23.2071 11.2929C23.0196 11.1054 22.7652 11 22.5 11C22.2348 11 21.9804 11.1054 21.7929 11.2929C21.6054 11.4804 21.5 11.7348 21.5 12C21.5 12.2652 21.6054 12.5196 21.7929 12.7071C21.9804 12.8946 22.2348 13 22.5 13C22.7652 13 23.0196 12.8946 23.2071 12.7071C23.3946 12.5196 23.5 12.2652 23.5 12ZM25.5 11C25.7652 11 26.0196 11.1054 26.2071 11.2929C26.3946 11.4804 26.5 11.7348 26.5 12C26.5 12.2652 26.3946 12.5196 26.2071 12.7071C26.0196 12.8946 25.7652 13 25.5 13C25.2348 13 24.9804 12.8946 24.7929 12.7071C24.6054 12.5196 24.5 12.2652 24.5 12C24.5 11.7348 24.6054 11.4804 24.7929 11.2929C24.9804 11.1054 25.2348 11 25.5 11Z" fill="black" fill-opacity="0.18"/>
<path d="M43.5 43.5C47.9183 43.5 51.5 39.9183 51.5 35.5C51.5 31.0817 47.9183 27.5 43.5 27.5C39.0817 27.5 35.5 31.0817 35.5 35.5C35.5 39.9183 39.0817 43.5 43.5 43.5Z" fill="#EB102D"/>
<path d="M43.5 39.9C44.0523 39.9 44.5 39.4523 44.5 38.9C44.5 38.3477 44.0523 37.9 43.5 37.9C42.9477 37.9 42.5 38.3477 42.5 38.9C42.5 39.4523 42.9477 39.9 43.5 39.9Z" fill="white"/>
<path d="M43.4805 36.7C43.1275 36.7 42.8135 36.455 42.7745 36.14L42.3035 31.765C42.264 31.415 42.5785 31.1 43.0095 31.1H43.9905C44.383 31.1 44.7365 31.415 44.697 31.765L44.226 36.14C44.1475 36.455 43.8335 36.7 43.4805 36.7Z" fill="white"/>
<path d="M54.2505 29.5C54.3995 29.5 54.548 29.56 54.662 29.677C54.889 29.911 54.889 30.292 54.662 30.526L53.4955 31.726C53.4421 31.7815 53.378 31.8257 53.3071 31.8558C53.2363 31.886 53.16 31.9015 53.083 31.9015C53.006 31.9015 52.9297 31.886 52.8589 31.8558C52.788 31.8257 52.7239 31.7815 52.6705 31.726C52.5609 31.6118 52.4997 31.4597 52.4997 31.3015C52.4997 31.1433 52.5609 30.9912 52.6705 30.877L53.8365 29.677C53.9505 29.56 54.099 29.5 54.248 29.5H54.2505ZM53.6675 34.899H55.417C55.7375 34.899 56 35.169 56 35.499C56 35.829 55.7375 36.099 55.417 36.099H53.6675C53.347 36.099 53.0845 35.829 53.0845 35.499C53.0845 35.169 53.347 34.899 53.6675 34.899ZM52.6765 39.276C52.79 39.159 52.939 39.099 53.0875 39.099H53.0905C53.239 39.099 53.388 39.159 53.5015 39.276L54.668 40.476C54.895 40.7095 54.895 41.091 54.668 41.3245C54.6145 41.38 54.5504 41.4242 54.4795 41.4543C54.4086 41.4845 54.3323 41.5 54.2552 41.5C54.1782 41.5 54.1019 41.4845 54.031 41.4543C53.9601 41.4242 53.896 41.38 53.8425 41.3245L52.6765 40.1245C52.5671 40.0104 52.506 39.8584 52.506 39.7002C52.506 39.5421 52.5671 39.3901 52.6765 39.276Z" fill="#CCCCCC"/>
</svg>
