<svg fill="none" viewBox="0 0 24 24" xmlns="http://www.w3.org/2000/svg">
  <path fill="#4CBA3C" d="M21.333 12a9.333 9.333 0 1 1-18.667 0 9.333 9.333 0 0 1 18.667 0"/>
  <path fill="#fff" fill-rule="evenodd" d="M16.859 8.465c.295.29.3.765.009 1.06l-5.571 5.668a.75.75 0 0 1-1.08-.012l-3.096-3.28a.75.75 0 0 1 1.091-1.03l2.56 2.715 5.026-5.112a.75.75 0 0 1 1.061-.009" clip-rule="evenodd"/>
  <path fill="#288419" fill-rule="evenodd" d="M12 3.5a8.5 8.5 0 1 0 0 17 8.5 8.5 0 0 0 0-17M2 12C2 6.477 6.477 2 12 2s10 4.477 10 10-4.477 10-10 10S2 17.523 2 12" clip-rule="evenodd"/>
</svg>
