<svg xmlns="http://www.w3.org/2000/svg" width="96" height="96" fill="none" viewBox="0 0 96 96">
  <path fill="#EEE" d="M47.375 16.75c2.991 0 6.027 1 8.628 3.56 2.362 2.326 6.105 4.561 11.064 6.172 6.36 2.068 10.16 3.43 10.81 12.388.298 4.084.121 9.23-1.307 14.633A14.753 14.753 0 0 0 74 53.28c-8.1 0-14.667 6.566-14.667 14.667 0 2.45.602 4.76 1.665 6.791-5.087 3.072-10.281 4.513-13.623 4.513-6.089 0-18.326-4.785-24.854-15.496-5.36-8.802-6.133-18.248-5.649-24.884.65-8.953 4.45-10.32 10.811-12.388 4.955-1.611 8.702-3.846 11.063-6.171 2.601-2.562 5.637-3.561 8.629-3.561Z"/>
  <path fill="#686868" d="M24.129 22.894a.4.4 0 0 1 .28.029c.087.044.153.12.184.21a.37.37 0 0 1-.017.28.398.398 0 0 1-.205.193l-.888.375c-2.634 1.123-5.335 2.2-7.047 4.234-1.732 2.017-2.43 4.824-2.874 7.622-.048.31-.093.618-.136.943a.45.45 0 0 1-.152.283.422.422 0 0 1-.588-.041.449.449 0 0 1-.112-.301c.003-.335.01-.654.023-.978.133-2.896.665-6.047 2.728-8.477 2.085-2.434 5.123-3.352 7.868-4.123.315-.086.62-.166.936-.249Z"/>
  <path fill="#484848" d="M47.375 16c3.17 0 6.401 1.065 9.155 3.776 2.258 2.224 5.89 4.408 10.768 5.993l.584.19c2.894.947 5.397 1.848 7.245 3.587 2.017 1.898 3.166 4.693 3.499 9.269l.022.318c.269 4.081.066 9.171-1.342 14.52-.485-.112-.98-.2-1.483-.262 1.422-5.333 1.601-10.421 1.307-14.467-.318-4.38-1.395-6.746-3.03-8.285-1.577-1.483-3.753-2.292-6.672-3.25l-.593-.194c-4.881-1.586-8.651-3.781-11.123-6.123l-.235-.227c-2.448-2.411-5.29-3.345-8.102-3.345-2.769 0-5.565.905-7.987 3.233l-.116.112c-2.464 2.427-6.323 4.713-11.357 6.35-3.22 1.047-5.583 1.863-7.265 3.445-1.635 1.54-2.712 3.905-3.03 8.284-.477 6.54.288 15.815 5.542 24.44l.15.244c3.175 5.095 7.685 8.806 12.16 11.253 4.56 2.493 9.017 3.639 11.903 3.639 2.885 0 7.343-1.145 11.902-3.638.463-.253.926-.52 1.389-.8.21.457.442.901.696 1.332-.455.274-.91.536-1.365.784C55.283 78.755 50.577 80 47.375 80c-3.203 0-7.909-1.246-12.622-3.823-4.727-2.584-9.526-6.542-12.872-12.032-5.468-8.979-6.248-18.597-5.757-25.33.332-4.574 1.481-7.369 3.498-9.267 1.972-1.856 4.688-2.758 7.83-3.78 4.874-1.584 8.51-3.768 10.768-5.992C40.974 17.065 44.204 16 47.375 16Z"/>
  <path fill="#484848" d="M47.939 21.002a1.01 1.01 0 0 1 .73.248.98.98 0 0 1 .329.689c.04.816.077 1.638.11 2.456.555 14.746.524 29.47-.477 44.2a43.333 43.333 0 0 1-.26 2.455.376.376 0 0 1-.743-.1c.091-.773.147-1.623.193-2.411.622-14.675.278-29.395-.647-44.04-.055-.812-.112-1.627-.172-2.438a.98.98 0 0 1 .243-.723c.175-.199.426-.32.694-.336ZM21.373 39.237c.07.005.136.037.184.09a.313.313 0 0 1 .079.193 184.89 184.89 0 0 0 .57 7.217c.514 5.216 1.946 10.347 4.453 14.98a28.657 28.657 0 0 0 3.299 4.843.291.291 0 0 1 .068.201.28.28 0 0 1-.483.179 26.568 26.568 0 0 1-3.75-4.718c-2.878-4.603-4.55-9.935-5.08-15.338a25.301 25.301 0 0 1 .362-7.404.312.312 0 0 1 .104-.18.275.275 0 0 1 .195-.063ZM65.13 30.51a.305.305 0 0 1 .208-.027c.603.131 1.205.273 1.8.428 1.645.505 3.459.742 4.919 2.37.561.705.835 1.481 1.043 2.23.31 1.17.445 2.335.526 3.494.327 4.83-.156 9.76-1.54 14.398-.406.053-.807.122-1.201.207 1.253-4.714 1.623-9.654 1.26-14.499-.086-1.1-.222-2.193-.494-3.21-.175-.647-.407-1.28-.736-1.733-.783-1.069-2.56-1.697-4.073-2.407-.555-.246-1.118-.494-1.68-.744a.305.305 0 0 1-.151-.144.276.276 0 0 1-.015-.206.276.276 0 0 1 .134-.158Z"/>
  <path fill="#D83544" d="M86 68c0 6.627-5.373 12-12 12s-12-5.373-12-12 5.373-12 12-12 12 5.373 12 12Z"/>
  <path fill="#fff" d="M74 72a1.333 1.333 0 1 1 0 2.666A1.333 1.333 0 0 1 74 72Zm0-11c.378 0 .739.14.988.39.25.25.37.59.345.943l-.025.367-.45 6.6-.025.367a.844.844 0 0 1-.27.55.826.826 0 0 1-.563.228.826.826 0 0 1-.563-.228.844.844 0 0 1-.27-.55l-.025-.367-.45-6.6-.025-.367a1.199 1.199 0 0 1 .345-.943c.25-.25.61-.39.988-.39Z"/>
</svg>
