<svg fill="none" viewBox="0 0 16 16" xmlns="http://www.w3.org/2000/svg">
  <g fill="rgba(255, 255, 255, 0.84)">
    <path d="M8.938 1a.937.937 0 1 0-1.876 0v3a.937.937 0 1 0 1.875 0V1Zm-.375 11a.562.562 0 1 0-1.126 0v3a.562.562 0 1 0 1.125 0v-3Zm6.812-4a.375.375 0 0 1-.375.375h-3a.375.375 0 0 1 0-.75h3c.207 0 .375.168.375.375M4 8.75a.75.75 0 0 0 0-1.5H1a.75.75 0 0 0 0 1.5zm.062-7.57a.875.875 0 0 1 1.196.32l1.5 2.598a.875.875 0 1 1-1.516.875l-1.5-2.598a.875.875 0 0 1 .32-1.195Zm6.371 10.034a.5.5 0 1 0-.866.5l1.5 2.598a.5.5 0 1 0 .866-.5l-1.5-2.598Zm3.954-6.901a.375.375 0 0 1-.137.512l-2.598 1.5a.375.375 0 1 1-.375-.65l2.598-1.5a.375.375 0 0 1 .512.138M4.88 10.595a.688.688 0 0 0-.688-1.19l-2.598 1.5a.687.687 0 1 0 .688 1.19l2.598-1.5m6.776-8.928c.15.086.201.277.115.427l-1.5 2.598a.313.313 0 0 1-.542-.313l1.5-2.598c.087-.15.278-.2.427-.114Zm-5.115 10.11a.625.625 0 1 0-1.082-.625l-1.5 2.598a.625.625 0 0 0 1.082.625l1.5-2.598Zm7.9-.058a.438.438 0 0 1-.598.16l-2.598-1.5a.438.438 0 1 1 .438-.758l2.598 1.5c.21.12.281.388.16.598M4.13 6.704a.813.813 0 0 0 .812-1.407l-2.598-1.5a.813.813 0 0 0-.812 1.407l2.598 1.5"/>
  </g>
</svg>
