<svg xmlns="http://www.w3.org/2000/svg" width="129" height="96" viewBox="0 0 129 96" fill="none">
    <path opacity="0.2" d="M107.072 34L105.529 33.6C105.243 33.5429 104.957 33.2572 104.9 32.9715L104.5 31.4286C104.386 31.0286 104.043 30.8 103.7 30.8C103.3 30.8 102.957 31.0858 102.9 31.4286L102.5 32.9715C102.443 33.2572 102.157 33.5429 101.872 33.6L100.329 34C99.9288 34.1143 99.7002 34.4572 99.7002 34.8C99.7002 35.2 99.9859 35.5429 100.329 35.6L101.872 36C102.157 36.0572 102.443 36.3429 102.5 36.6286L102.9 38.1715C103.014 38.5715 103.357 38.8 103.7 38.8C104.1 38.8 104.443 38.5143 104.5 38.1715L104.9 36.6286C104.957 36.3429 105.243 36.0572 105.529 36L107.072 35.6C107.472 35.4858 107.7 35.1429 107.7 34.8C107.7 34.4 107.414 34.0572 107.072 34Z" fill="#888888"/>
    <path opacity="0.2" d="M112.5 54C111.4 54 110.5 54.9 110.5 56C110.5 57.1 111.4 58 112.5 58C113.6 58 114.5 57.1 114.5 56C114.5 54.9 113.6 54 112.5 54Z" fill="#888888"/>
    <path opacity="0.2" d="M26.5572 62.8L24.2429 62.2C23.8143 62.1143 23.3857 61.6857 23.3 61.2571L22.7 58.9429C22.5286 58.3429 22.0143 58 21.5 58C20.9 58 20.3857 58.4286 20.3 58.9429L19.7 61.2571C19.6143 61.6857 19.1857 62.1143 18.7571 62.2L16.4428 62.8C15.8428 62.9714 15.5 63.4857 15.5 64C15.5 64.6 15.9286 65.1143 16.4428 65.2L18.7571 65.8C19.1857 65.8857 19.6143 66.3143 19.7 66.7429L20.3 69.0571C20.4714 69.6571 20.9857 70 21.5 70C22.1 70 22.6143 69.5714 22.7 69.0571L23.3 66.7429C23.3857 66.3143 23.8143 65.8857 24.2429 65.8L26.5572 65.2C27.1572 65.0286 27.5 64.5143 27.5 64C27.5 63.4 27.0714 62.8857 26.5572 62.8Z" fill="#888888"/>
    <path opacity="0.2" d="M7.87144 42.2L6.32858 41.8C6.04286 41.7429 5.75713 41.4571 5.69999 41.1714L5.30001 39.6286C5.18573 39.2286 4.84286 39 4.5 39C4.1 39 3.75713 39.2857 3.69999 39.6286L3.30001 41.1714C3.24287 41.4571 2.95714 41.7429 2.67142 41.8L1.12856 42.2C0.728557 42.3143 0.5 42.6571 0.5 43C0.5 43.4 0.7857 43.7429 1.12856 43.8L2.67142 44.2C2.95714 44.2571 3.24287 44.5429 3.30001 44.8286L3.69999 46.3714C3.81427 46.7714 4.15714 47 4.5 47C4.9 47 5.24287 46.7143 5.30001 46.3714L5.69999 44.8286C5.75713 44.5429 6.04286 44.2571 6.32858 44.2L7.87144 43.8C8.27144 43.6857 8.5 43.3429 8.5 43C8.5 42.6 8.2143 42.2571 7.87144 42.2Z" fill="#888888"/>
    <path opacity="0.2" d="M127 45C126.175 45 125.5 45.675 125.5 46.5C125.5 47.325 126.175 48 127 48C127.825 48 128.5 47.325 128.5 46.5C128.5 45.675 127.825 45 127 45Z" fill="#888888"/>
    <path opacity="0.2" d="M23.5 27C22.4 27 21.5 27.9 21.5 29C21.5 30.1 22.4 31 23.5 31C24.6 31 25.5 30.1 25.5 29C25.5 27.9 24.6 27 23.5 27Z" fill="#888888"/>
</svg>