<svg width="128" height="97" viewBox="0 0 128 97" fill="none" xmlns="http://www.w3.org/2000/svg">
    <path opacity="0.2" d="M112.371 40.2999L110.829 40.6999C110.543 40.757 110.257 41.0427 110.2 41.3284L109.8 42.8713C109.686 43.2713 109.343 43.4999 109 43.4999C108.6 43.4999 108.257 43.2142 108.2 42.8713L107.8 41.3284C107.743 41.0427 107.457 40.757 107.171 40.6999L105.629 40.2999C105.229 40.1856 105 39.8427 105 39.4999C105 39.0999 105.286 38.757 105.629 38.6999L107.171 38.2999C107.457 38.2427 107.743 37.957 107.8 37.6713L108.2 36.1284C108.314 35.7284 108.657 35.4999 109 35.4999C109.4 35.4999 109.743 35.7856 109.8 36.1284L110.2 37.6713C110.257 37.957 110.543 38.2427 110.829 38.2999L112.371 38.6999C112.771 38.8142 113 39.157 113 39.4999C113 39.8999 112.714 40.2427 112.371 40.2999Z" fill="#888888"/>
    <path opacity="0.2" d="M26.0572 34.6999L23.7429 35.2999C23.3143 35.3856 22.8857 35.8142 22.8 36.2427L22.2 38.557C22.0286 39.157 21.5143 39.4999 21 39.4999C20.4 39.4999 19.8857 39.0713 19.8 38.557L19.2 36.2427C19.1143 35.8142 18.6857 35.3856 18.2571 35.2999L15.9428 34.6999C15.3428 34.5285 15 34.0142 15 33.4999C15 32.8999 15.4286 32.3856 15.9428 32.2999L18.2571 31.6999C18.6857 31.6142 19.1143 31.1856 19.2 30.757L19.8 28.4427C19.9714 27.8427 20.4857 27.4999 21 27.4999C21.6 27.4999 22.1143 27.9284 22.2 28.4427L22.8 30.757C22.8857 31.1856 23.3143 31.6142 23.7429 31.6999L26.0572 32.2999C26.6572 32.4713 27 32.9856 27 33.4999C27 34.0999 26.5714 34.6142 26.0572 34.6999Z" fill="#888888"/>
    <path opacity="0.2" d="M7.37144 55.2999L5.82858 55.6999C5.54286 55.757 5.25713 56.0427 5.19999 56.3284L4.80001 57.8713C4.68573 58.2713 4.34286 58.4999 4 58.4999C3.6 58.4999 3.25713 58.2142 3.19999 57.8713L2.80001 56.3284C2.74287 56.0427 2.45714 55.757 2.17142 55.6999L0.628558 55.2999C0.228557 55.1856 0 54.8427 0 54.4999C0 54.0999 0.2857 53.757 0.628558 53.6999L2.17142 53.2999C2.45714 53.2427 2.74287 52.957 2.80001 52.6713L3.19999 51.1284C3.31427 50.7284 3.65714 50.4999 4 50.4999C4.4 50.4999 4.74287 50.7856 4.80001 51.1284L5.19999 52.6713C5.25713 52.957 5.54286 53.2427 5.82858 53.2999L7.37144 53.6999C7.77144 53.8142 8 54.157 8 54.4999C8 54.8999 7.7143 55.2427 7.37144 55.2999Z" fill="#888888"/>
    <path opacity="0.2" d="M126.5 52.4999C125.675 52.4999 125 51.8249 125 50.9999C125 50.1749 125.675 49.4999 126.5 49.4999C127.325 49.4999 128 50.1749 128 50.9999C128 51.8249 127.325 52.4999 126.5 52.4999Z" fill="#888888"/>
    <path opacity="0.2" d="M23 70.4999C21.9 70.4999 21 69.5999 21 68.4999C21 67.3999 21.9 66.4999 23 66.4999C24.1 66.4999 25 67.3999 25 68.4999C25 69.5999 24.1 70.4999 23 70.4999Z" fill="#888888"/>
    <path fill-rule="evenodd" clip-rule="evenodd" d="M96 48.5C96 65.0685 82.5685 78.5 66 78.5C65.3279 78.5 64.661 78.4779 64 78.4344V78.5H61V78.0852C46.8114 75.7048 36 63.365 36 48.5C36 33.635 46.8114 21.2952 61 18.9148V18.5H64V18.5656C64.661 18.5221 65.3279 18.5 66 18.5C82.5685 18.5 96 31.9315 96 48.5Z" fill="#2B55CA"/>
    <path d="M62 78.5C78.5685 78.5 92 65.0685 92 48.5C92 31.9315 78.5685 18.5 62 18.5C45.4315 18.5 32 31.9315 32 48.5C32 65.0685 45.4315 78.5 62 78.5Z" fill="#557FF3"/>
    <path d="M62 72.5C75.2548 72.5 86 61.7548 86 48.5C86 35.2452 75.2548 24.5 62 24.5C48.7452 24.5 38 35.2452 38 48.5C38 61.7548 48.7452 72.5 62 72.5Z" fill="#FFF7E0"/>
    <path fill-rule="evenodd" clip-rule="evenodd" d="M64 66.5C64 65.3954 63.1046 64.5 62 64.5C60.8954 64.5 60 65.3954 60 66.5V68.5C60 69.6046 60.8954 70.5 62 70.5C63.1046 70.5 64 69.6046 64 68.5V66.5ZM64 28.5C64 27.3954 63.1046 26.5 62 26.5C60.8954 26.5 60 27.3954 60 28.5V30.5C60 31.6046 60.8954 32.5 62 32.5C63.1046 32.5 64 31.6046 64 30.5V28.5ZM84 48.5C84 49.6046 83.1046 50.5 82 50.5H80C78.8954 50.5 78 49.6046 78 48.5C78 47.3954 78.8954 46.5 80 46.5H82C83.1046 46.5 84 47.3954 84 48.5ZM44 50.5C45.1046 50.5 46 49.6046 46 48.5C46 47.3954 45.1046 46.5 44 46.5H42C40.8954 46.5 40 47.3954 40 48.5C40 49.6046 40.8954 50.5 42 50.5H44ZM73 29.4474C73.9566 29.9997 74.2843 31.2229 73.7321 32.1794L72.7321 33.9115C72.1798 34.8681 70.9566 35.1958 70 34.6435C69.0434 34.0913 68.7157 32.8681 69.268 31.9115L70.268 30.1794C70.8202 29.2229 72.0434 28.8951 73 29.4474ZM54.7321 65.0884C55.2843 64.1318 54.9566 62.9086 54 62.3563C53.0434 61.804 51.8202 62.1318 51.2679 63.0884L50.2679 64.8204C49.7157 65.777 50.0434 67.0002 51 67.5525C51.9566 68.1048 53.1798 67.777 53.7321 66.8204L54.7321 65.0884ZM81.0524 59.5C80.5001 60.4566 79.2769 60.7843 78.3203 60.2321L76.5883 59.2321C75.6317 58.6798 75.3039 57.4566 75.8562 56.5C76.4085 55.5434 77.6317 55.2157 78.5883 55.7679L80.3203 56.7679C81.2769 57.3202 81.6046 58.5434 81.0524 59.5ZM45.4116 41.232C46.3682 41.7843 47.5914 41.4566 48.1437 40.5C48.696 39.5434 48.3682 38.3202 47.4116 37.7679L45.6796 36.7679C44.723 36.2157 43.4998 36.5434 42.9475 37.5C42.3952 38.4566 42.723 39.6798 43.6796 40.232L45.4116 41.232ZM81.0524 37.5C81.6046 38.4566 81.2769 39.6798 80.3203 40.2321L78.5883 41.232C77.6317 41.7843 76.4085 41.4566 75.8562 40.5C75.3039 39.5434 75.6317 38.3202 76.5883 37.7679L78.3203 36.7679C79.2769 36.2157 80.5001 36.5434 81.0524 37.5ZM47.4116 59.2321C48.3682 58.6798 48.696 57.4566 48.1437 56.5C47.5914 55.5434 46.3682 55.2157 45.4116 55.7679L43.6796 56.7679C42.723 57.3202 42.3952 58.5434 42.9475 59.5C43.4998 60.4566 44.723 60.7843 45.6796 60.2321L47.4116 59.2321ZM73 67.5526C72.0434 68.1049 70.8202 67.7771 70.2679 66.8206L69.268 65.0885C68.7157 64.1319 69.0434 62.9087 70 62.3565C70.9566 61.8042 72.1798 62.1319 72.7321 63.0885L73.7321 64.8206C74.2843 65.7771 73.9566 67.0003 73 67.5526ZM51.2679 33.9116C51.8202 34.8682 53.0434 35.196 54 34.6437C54.9566 34.0914 55.2843 32.8682 54.7321 31.9116L53.7321 30.1796C53.1798 29.223 51.9566 28.8952 51 29.4475C50.0434 29.9998 49.7157 31.223 50.2679 32.1796L51.2679 33.9116Z" fill="#FFD65C"/>
    <path fill-rule="evenodd" clip-rule="evenodd" d="M63 72.4795C62.6684 72.4931 62.335 72.5 62 72.5C48.7452 72.5 38 61.7548 38 48.5C38 35.2452 48.7452 24.5 62 24.5C62.335 24.5 62.6684 24.5069 63 24.5205C50.2089 25.0447 40 35.5801 40 48.5C40 61.4199 50.2089 71.9553 63 72.4795Z" fill="#FFE8A3"/>
    <path fill-rule="evenodd" clip-rule="evenodd" d="M62.7761 47.8692C63.1244 48.2978 63.0593 48.9276 62.6306 49.2759L46.6306 62.2761C46.202 62.6244 45.5722 62.5593 45.2239 62.1306C44.8757 61.702 44.9408 61.0722 45.3694 60.7239L61.3694 47.7237C61.7981 47.3754 62.4279 47.4406 62.7761 47.8692Z" fill="#E46F4F"/>
    <path d="M63.8554 50.8569L71.9788 43.3831C72.8093 42.619 72.9115 41.3443 72.2133 40.4576C71.5152 39.5709 70.252 39.3713 69.3144 39.9994L60.1436 46.1428L63.8554 50.8569Z" fill="#3969EF"/>
    <path fill-rule="evenodd" clip-rule="evenodd" d="M63.649 45.9934C63.7261 46.0443 63.8016 46.0992 63.8752 46.158L63.8794 46.1611L63.8792 46.1613C65.1709 47.1989 65.3769 49.0871 64.3393 50.3788C63.3018 51.6706 61.4135 51.8766 60.1217 50.839C60.0442 50.7768 59.9706 50.7115 59.901 50.6434L45.8737 38.2336C45.0352 37.4918 44.9271 36.2221 45.6283 35.3491C46.3294 34.4762 47.5925 34.3079 48.4978 34.9667L63.649 45.9934Z" fill="#2B55CA"/>
</svg>
