<svg width="61" height="60" viewBox="0 0 61 60" fill="none" xmlns="http://www.w3.org/2000/svg">
    <path opacity="0.6" fill-rule="evenodd" clip-rule="evenodd" d="M22.3902 53.6548C22.5693 53.1324 23.1375 52.8562 23.667 53.0131C25.5747 53.5783 27.5842 53.9131 29.6531 53.9852C30.205 54.0044 30.6556 54.4471 30.6592 54.9993L30.6846 58.9992C30.6881 59.5515 30.243 60.0038 29.6909 59.9892C26.93 59.9157 24.2514 59.4678 21.7194 58.6944C21.1912 58.533 20.9133 57.9626 21.0924 57.4401L22.3902 53.6548ZM16.1581 55.21C15.8848 55.6904 15.2727 55.8595 14.802 55.5699C12.4942 54.15 10.3933 52.4265 8.55482 50.4549C8.17806 50.0509 8.22249 49.4178 8.63894 49.0548L11.6543 46.4265C12.0706 46.0637 12.7005 46.1084 13.0804 46.5091C14.4731 47.9781 16.0496 49.2711 17.7732 50.3512C18.2408 50.6443 18.4094 51.2527 18.1365 51.7324L16.1581 55.21ZM9.30043 41.2604C9.5601 41.7483 9.40225 42.3605 8.92541 42.6399L5.47328 44.6624C4.99707 44.9414 4.3833 44.7826 4.11989 44.2976C3.01946 42.2715 2.14564 40.1045 1.53244 37.8305C1.24507 36.7649 1.95388 35.7092 3.03618 35.4927L4.99847 35.1003C6.08241 34.8835 7.12847 35.5907 7.43431 36.653C7.8984 38.2649 8.52688 39.8071 9.30043 41.2604ZM37.2418 59.2394C36.7039 59.3629 36.1787 59.0079 36.0727 58.4664L35.304 54.5398C35.1978 53.9973 35.5525 53.4738 36.0901 53.3455C38.0889 52.8687 39.9907 52.1418 41.7605 51.1998C42.2484 50.9401 42.8606 51.098 43.14 51.5748L45.1625 55.0269C45.4415 55.5031 45.2827 56.1169 44.7977 56.3803C42.4506 57.6551 39.9143 58.6258 37.2418 59.2394ZM49.5549 51.8613C49.9179 52.2777 50.5511 52.3222 50.9551 51.9454C52.9267 50.1069 54.6503 48.0059 56.0701 45.6981C56.3597 45.2274 56.1907 44.6153 55.7103 44.342L52.2327 42.3636C51.7529 42.0907 51.1446 42.2593 50.8515 42.7269C49.7714 44.4505 48.4783 46.0271 47.0093 47.4198C46.6086 47.7997 46.5638 48.4297 46.9266 48.8459L49.5549 51.8613ZM59.1947 38.7806C59.0333 39.3088 58.4629 39.5867 57.9404 39.4076L54.1551 38.1098C53.6327 37.9307 53.3565 37.3626 53.5134 36.8331C54.0786 34.9253 54.4133 32.9158 54.4854 30.8468C54.5047 30.295 54.9473 29.8443 55.4995 29.8408L59.4995 29.8153C60.0518 29.8118 60.5041 30.2569 60.4894 30.809C60.416 33.5699 59.9681 36.2485 59.1947 38.7806ZM58.9666 24.4272C59.5081 24.3211 59.8632 23.796 59.7397 23.2581C59.1259 20.5856 58.1553 18.0493 56.8805 15.7022C56.617 15.2172 56.0033 15.0584 55.5271 15.3374L52.0749 17.3599C51.5981 17.6393 51.4403 18.2515 51.6999 18.7394C52.642 20.5092 53.3689 22.411 53.8457 24.4098C53.974 24.9474 54.4976 25.302 55.04 25.1959L58.9666 24.4272ZM52.4455 9.54481C52.8222 9.94885 52.7778 10.582 52.3614 10.945L49.346 13.5733C48.9297 13.9361 48.2998 13.8913 47.9199 13.4907C46.5272 12.0216 44.9505 10.7285 43.2269 9.64841C42.7592 9.35533 42.5906 8.74699 42.8635 8.26726L44.8419 4.78959C45.1152 4.30924 45.7273 4.14018 46.198 4.42976C48.5059 5.84964 50.607 7.57321 52.4455 9.54481ZM39.9075 2.55959C40.0866 2.03713 39.8087 1.4667 39.2805 1.30535C36.7485 0.53194 34.07 0.0841599 31.3091 0.0106964C30.7569 -0.0039978 30.3119 0.448311 30.3154 1.00064L30.3409 5.00058C30.3444 5.55279 30.795 5.99546 31.3469 6.01469C33.4158 6.08677 35.4253 6.42147 37.333 6.98668C37.8625 7.14355 38.4307 6.86736 38.6098 6.34495L39.9075 2.55959ZM23.7582 0.760498C24.2961 0.636986 24.8213 0.991997 24.9273 1.53358L25.696 5.46017C25.8022 6.00258 25.4476 6.52616 24.91 6.65442C22.9111 7.13129 21.0094 7.8582 19.2395 8.80027C18.7516 9.05994 18.1394 8.90211 17.86 8.42527L15.8375 4.97314C15.5585 4.49694 15.7173 3.88317 16.2023 3.61975C18.5494 2.34493 21.0857 1.37422 23.7582 0.760498ZM11.4452 8.13885C11.0822 7.7224 10.449 7.67798 10.045 8.05475C8.75128 9.26113 7.56438 10.5805 6.5 11.9973L6.5 4.99997C6.5 3.8954 5.60457 2.99997 4.5 2.99997H2.5C1.39543 2.99997 0.5 3.8954 0.5 4.99997L0.5 22C0.5 23.1045 1.39543 24 2.5 24H17.5C18.6046 24 19.5 23.1045 19.5 22V20C19.5 18.8954 18.6046 18 17.5 18H9.71094C10.8729 15.9912 12.3177 14.1665 13.9908 12.5803C14.3915 12.2004 14.4363 11.5705 14.0735 11.1542L11.4452 8.13885ZM37.9614 38.2641L28.6226 32.3792L28.6409 32.3545L28.6214 32.339C27.8841 31.7468 27.5005 30.8774 27.5 29.9999V29.9994C27.5 29.9032 27.5045 29.8069 27.5137 29.7109L28.4048 10.9977C28.4581 9.87931 29.3803 8.99994 30.5 8.99994C31.6196 8.99994 32.5418 9.87931 32.5951 10.9977L33.435 28.6363L40.5302 34.8072C41.3817 35.5478 41.5195 36.8192 40.8464 37.725C40.1732 38.6309 38.9162 38.8657 37.9614 38.2641Z" fill="#888888"/>
</svg>
