<svg width="16" height="16" viewBox="0 0 16 16" fill="none" xmlns="http://www.w3.org/2000/svg">
    <path d="M0.5 4C0.5 2.61929 1.61929 1.5 3 1.5H13C14.3807 1.5 15.5 2.61929 15.5 4V12C15.5 13.3807 14.3807 14.5 13 14.5H3C1.61929 14.5 0.5 13.3807 0.5 12V4Z" fill="#557FF3"/>
    <path d="M1 6C1 5.44772 1.44772 5 2 5H14C14.5523 5 15 5.44772 15 6V12C15 13.3807 13.8807 14.5 12.5 14.5H3.5C2.11929 14.5 1 13.3807 1 12V6Z" fill="white"/>
    <path d="M3 7.5C3 7.22386 3.22386 7 3.5 7H7.5C7.77614 7 8 7.22386 8 7.5V11.5C8 11.7761 7.77614 12 7.5 12H3.5C3.22386 12 3 11.7761 3 11.5V7.5Z" fill="#ADC2FC"/>
    <path fill-rule="evenodd" clip-rule="evenodd" d="M4.5 0C4.77614 0 5 0.223858 5 0.5V1H11V0.5C11 0.223858 11.2239 0 11.5 0C11.7761 0 12 0.223858 12 0.5V1H13C14.6569 1 16 2.34315 16 4V12C16 13.6569 14.6569 15 13 15H3C1.34315 15 0 13.6569 0 12V4C0 2.34315 1.34315 1 3 1H4V0.5C4 0.223858 4.22386 0 4.5 0ZM11 2V2.5C11 2.77614 11.2239 3 11.5 3C11.7761 3 12 2.77614 12 2.5V2H13C14.1046 2 15 2.89543 15 4V12C15 13.1046 14.1046 14 13 14H3C1.89543 14 1 13.1046 1 12V4C1 2.89543 1.89543 2 3 2H4V2.5C4 2.77614 4.22386 3 4.5 3C4.77614 3 5 2.77614 5 2.5V2H11ZM2 4.5C2 4.22386 2.22386 4 2.5 4H13.5C13.7761 4 14 4.22386 14 4.5C14 4.77614 13.7761 5 13.5 5H2.5C2.22386 5 2 4.77614 2 4.5ZM3.5 6.5C2.94772 6.5 2.5 6.94772 2.5 7.5V11.5C2.5 12.0523 2.94772 12.5 3.5 12.5H7.5C8.05228 12.5 8.5 12.0523 8.5 11.5V7.5C8.5 6.94772 8.05228 6.5 7.5 6.5H3.5ZM3.5 7.5H7.5V11.5H3.5V7.5Z" fill="url(#paint0_linear_3992_9339)"/>
    <defs>
        <linearGradient id="paint0_linear_3992_9339" x1="8" y1="0" x2="8" y2="15" gradientUnits="userSpaceOnUse">
            <stop stop-color="#2B55CA"/>
            <stop offset="1" stop-color="#14307E"/>
        </linearGradient>
    </defs>
</svg>
