<svg width="16" height="16" viewBox="0 0 16 16" fill="none" xmlns="http://www.w3.org/2000/svg">
    <g clip-path="url(#clip0_6003_1260)">
        <path fill-rule="evenodd" clip-rule="evenodd" d="M8 15.5C12.1421 15.5 15.5 12.1421 15.5 8C15.5 3.85786 12.1421 0.5 8 0.5C3.85786 0.5 0.5 3.85786 0.5 8C0.5 12.1421 3.85786 15.5 8 15.5Z" fill="url(#paint0_linear_6003_1260)"/>
        <path d="M8 0C12.4183 0 16 3.58172 16 8C16 12.4183 12.4183 16 8 16C3.58172 16 0 12.4183 0 8C1.9329e-07 3.58172 3.58172 1.93277e-07 8 0ZM10.8174 9.8916C9.94281 9.96142 8.99212 10 8 10C7.0077 10 6.05683 9.96145 5.18213 9.8916C5.33507 11.1342 5.6335 12.2335 6.02783 13.0952C6.63286 14.4173 7.36708 15 8 15C8.63292 15 9.36712 14.4173 9.97217 13.0952C10.3665 12.2335 10.6644 11.1342 10.8174 9.8916ZM1.09082 9.12842C1.50931 11.7105 3.34011 13.8188 5.76514 14.6353C5.52168 14.2989 5.30486 13.9181 5.11865 13.5112C4.65148 12.4904 4.31814 11.2104 4.16406 9.79199C3.59308 9.72525 3.06713 9.64448 2.59863 9.55078C2.01239 9.43353 1.49764 9.29237 1.09082 9.12842ZM14.9087 9.12842C14.5019 9.2923 13.9874 9.43357 13.4014 9.55078C12.9327 9.64451 12.4066 9.72524 11.8354 9.79199C11.6815 11.2104 11.349 12.4904 10.8818 13.5112C10.6956 13.9182 10.4784 14.2988 10.2349 14.6353C12.6599 13.8188 14.4902 11.7105 14.9087 9.12842ZM8 1C7.36708 1.00005 6.63286 1.58268 6.02783 2.90479C5.44289 4.18299 5.06787 5.98392 5.06787 8C5.06787 8.29869 5.07685 8.59262 5.09277 8.88086C5.98142 8.95699 6.96412 9 8 9C9.03569 9 10.0182 8.95696 10.9067 8.88086C10.9227 8.59261 10.9321 8.2987 10.9321 8C10.9321 5.98392 10.5571 4.18299 9.97217 2.90479C9.36712 1.58267 8.63292 1 8 1ZM5.76514 1.36426C3.012 2.29113 1.02474 4.88345 1.00049 7.94336C1.00097 7.94384 1.00145 7.94433 1.00195 7.94482C1.04653 7.98836 1.13913 8.05424 1.30322 8.13184C1.62912 8.28592 2.13274 8.43788 2.79492 8.57031C3.18234 8.64779 3.61525 8.71646 4.08545 8.77539C4.0738 8.52002 4.06787 8.26135 4.06787 8C4.06787 5.87397 4.46139 3.92503 5.11865 2.48877C5.30492 2.08175 5.52158 1.70071 5.76514 1.36426ZM10.2349 1.36426C10.4785 1.70076 10.6955 2.08167 10.8818 2.48877C11.5391 3.92501 11.9321 5.87403 11.9321 8C11.9321 8.26135 11.9257 8.52001 11.9141 8.77539C12.3845 8.71644 12.8175 8.64782 13.2051 8.57031C13.8673 8.43788 14.3709 8.28592 14.6968 8.13184C14.8609 8.05424 14.9535 7.98836 14.998 7.94482C14.9985 7.94442 14.9986 7.94376 14.999 7.94336C14.9748 4.88346 12.988 2.29113 10.2349 1.36426Z" fill="url(#paint1_linear_6003_1260)"/>
    </g>
    <defs>
        <linearGradient id="paint0_linear_6003_1260" x1="2" y1="2" x2="14" y2="14" gradientUnits="userSpaceOnUse">
            <stop stop-color="#8FABF9"/>
            <stop offset="1" stop-color="#557FF3"/>
        </linearGradient>
        <linearGradient id="paint1_linear_6003_1260" x1="8" y1="0" x2="8" y2="16" gradientUnits="userSpaceOnUse">
            <stop stop-color="#557FF3"/>
            <stop offset="1" stop-color="#2B55CA"/>
        </linearGradient>
        <clipPath id="clip0_6003_1260">
            <rect width="16" height="16" fill="white"/>
        </clipPath>
    </defs>
</svg>
