<svg width="16" height="16" viewBox="0 0 16 16" fill="none" xmlns="http://www.w3.org/2000/svg">
<g clip-path="url(#clip0_13576_190378)">
<path d="M15.5 8C15.5 12.1421 12.1421 15.5 8 15.5C3.85786 15.5 0.5 12.1421 0.5 8C0.5 3.85786 3.85786 0.5 8 0.5C12.1421 0.5 15.5 3.85786 15.5 8Z" fill="#1074CC"/>
<path d="M15 8C15 4.13401 11.866 1 8 1C4.13401 1 1 4.13401 1 8C1 11.866 4.13401 15 8 15C11.866 15 15 11.866 15 8ZM16 8C16 12.4183 12.4183 16 8 16C3.58172 16 0 12.4183 0 8C0 3.58172 3.58172 0 8 0C12.4183 0 16 3.58172 16 8Z" fill="#045EB2"/>
<path d="M11.9685 3.90235C12.0304 3.95008 12.074 4.0187 12.0868 4.09299C12.1205 4.30176 12.1364 4.51029 12.141 4.71686C12.1537 5.45817 12.0374 6.18126 11.8379 6.87269C11.8372 6.87517 11.8364 6.87795 11.8357 6.88043C11.5306 7.91836 11.1075 8.91652 10.5503 9.83812C10.4938 9.93139 10.4353 10.0237 10.3758 10.1151C10.1545 10.4542 9.91356 10.7805 9.65676 11.0949C9.73385 11.1254 9.81074 11.1569 9.88844 11.1858C10.0076 11.2298 10.1277 11.2728 10.2476 11.3136C10.9254 11.5428 11.6262 11.7307 12.3175 11.7509C12.5199 11.7558 12.7211 11.7442 12.9112 11.708C12.9861 11.6932 13.0664 11.7096 13.1333 11.7511C13.2001 11.7929 13.2486 11.8566 13.2682 11.9305C13.2877 12.0044 13.2774 12.0838 13.2399 12.1532C13.2024 12.2224 13.1406 12.2762 13.0681 12.3004C12.8315 12.3769 12.5909 12.4224 12.3524 12.4493C11.5403 12.535 10.7443 12.4367 9.97873 12.2618C9.84355 12.2304 9.7088 12.1958 9.57541 12.1586C9.34531 12.094 9.11733 12.0222 8.89119 11.9462C8.81772 12.0206 8.7438 12.0946 8.66836 12.1672C8.49841 12.3302 8.32055 12.4867 8.13494 12.635C7.68329 12.9924 7.19064 13.3159 6.61266 13.5197C6.40832 13.5897 6.19042 13.6437 5.95844 13.6568C5.88265 13.6599 5.80634 13.6311 5.74668 13.5802C5.687 13.5291 5.64845 13.4597 5.63987 13.3843C5.63134 13.3091 5.65339 13.2331 5.7 13.1699C5.74671 13.1068 5.81456 13.0613 5.88914 13.0473C6.03834 13.0166 6.19176 12.9546 6.34002 12.8758C6.7624 12.6484 7.14609 12.3021 7.50081 11.9345C7.62061 11.8098 7.73685 11.6807 7.85161 11.5496C7.35259 11.3347 6.86715 11.0902 6.40045 10.8121C6.3361 10.7737 6.27179 10.7346 6.20819 10.6949C5.41139 10.1957 4.6723 9.6043 4.00198 8.93515C3.96877 9.15842 3.94761 9.38322 3.94053 9.60895C3.93966 9.63827 3.93884 9.66755 3.93833 9.69676C3.92645 10.3834 4.01603 11.08 4.29474 11.7113C4.37336 11.889 4.46666 12.0607 4.57603 12.2221C4.619 12.2849 4.63567 12.365 4.62404 12.4427C4.61224 12.5204 4.57321 12.5895 4.51374 12.6366C4.4542 12.6838 4.37769 12.7057 4.2993 12.6995C4.22113 12.693 4.14697 12.6589 4.09575 12.6028C3.94097 12.4308 3.80011 12.2452 3.67481 12.0497C3.23057 11.3568 2.98375 10.5435 2.92555 9.72829C2.92306 9.69361 2.92051 9.6588 2.91869 9.62397C2.88802 9.02485 2.93575 8.42492 3.05569 7.84078C2.71392 7.37 2.41608 6.85565 2.23969 6.26683C2.17096 6.0289 2.12518 5.77663 2.12961 5.51316C2.13183 5.43664 2.16548 5.36194 2.22102 5.30601C2.27671 5.25016 2.34962 5.2172 2.42601 5.21463C2.50239 5.21214 2.57734 5.24021 2.63661 5.29224C2.69565 5.34429 2.73471 5.41629 2.74207 5.49239C2.7617 5.67069 2.8192 5.85396 2.89847 6.03205C3.01688 6.29393 3.17589 6.54343 3.35856 6.78201C3.43043 6.58766 3.51047 6.39636 3.59859 6.20905C3.61934 6.16502 3.64063 6.12082 3.66228 6.07724C4.17335 5.05081 4.93244 4.15809 5.83813 3.46285C5.87067 3.43791 5.90366 3.4132 5.93663 3.38892C6.63939 2.8717 7.45406 2.49415 8.31359 2.32951C8.53841 2.28656 8.76635 2.25854 8.99452 2.24678C9.0707 2.24338 9.14736 2.27181 9.20719 2.32277C9.26709 2.37399 9.30548 2.4439 9.31394 2.51972C9.32235 2.59547 9.30041 2.67195 9.25332 2.73506C9.20616 2.798 9.13743 2.84251 9.06231 2.85594C8.86784 2.89134 8.67586 2.94248 8.48888 3.00637C7.77332 3.25177 7.13261 3.67784 6.57032 4.17708C6.54389 4.20057 6.51719 4.22414 6.49103 4.24801C5.76158 4.91533 5.19655 5.74612 4.76006 6.62309C4.74156 6.66032 4.72302 6.6976 4.705 6.73507C4.54325 7.07187 4.39978 7.41971 4.28205 7.77525C4.33752 7.82699 4.39293 7.87913 4.4493 7.92989C5.17936 8.58522 6.00669 9.1391 6.85027 9.65213C6.90967 9.68817 6.96967 9.72437 7.02931 9.76001C7.53681 10.0625 8.05459 10.3529 8.58472 10.6157C8.85119 10.2406 9.10201 9.8522 9.34426 9.46034C9.39715 9.37462 9.44991 9.28865 9.50215 9.2025C10.0164 8.35223 10.5038 7.47486 10.8673 6.55192C10.8681 6.54981 10.869 6.54762 10.8698 6.54551C11.108 5.93301 11.3338 5.30969 11.4341 4.67465C11.4612 4.49847 11.4773 4.32182 11.4766 4.1489C11.4757 4.07349 11.5062 3.99779 11.5585 3.93965C11.611 3.8815 11.6812 3.84523 11.7562 3.83842C11.8312 3.83166 11.9064 3.85465 11.9685 3.90235Z" fill="#A1D0F7"/>
</g>
<defs>
<clipPath id="clip0_13576_190378">
<rect width="16" height="16" fill="white"/>
</clipPath>
</defs>
</svg>
