<svg width="16" height="16" viewBox="0 0 16 16" fill="none" xmlns="http://www.w3.org/2000/svg">
    <path d="M0.5 4C0.5 2.61929 1.61929 1.5 3 1.5H13C14.3807 1.5 15.5 2.61929 15.5 4V12C15.5 13.3807 14.3807 14.5 13 14.5H3C1.61929 14.5 0.5 13.3807 0.5 12V4Z" fill="#876ECB"/>
    <path d="M1 6C1 5.44772 1.44772 5 2 5H14C14.5523 5 15 5.44772 15 6V12C15 13.3807 13.8807 14.5 12.5 14.5H3.5C2.11929 14.5 1 13.3807 1 12V6Z" fill="white"/>
    <path fill-rule="evenodd" clip-rule="evenodd" d="M5 0.5C5 0.223858 4.77614 0 4.5 0C4.22386 0 4 0.223858 4 0.5V1H3C1.34315 1 0 2.34315 0 4V12C0 13.6569 1.34315 15 3 15H13C14.6569 15 16 13.6569 16 12V4C16 2.34315 14.6569 1 13 1H12V0.5C12 0.223858 11.7761 0 11.5 0C11.2239 0 11 0.223858 11 0.5V1H5V0.5ZM11 2.5V2H5V2.5C5 2.77614 4.77614 3 4.5 3C4.22386 3 4 2.77614 4 2.5V2H3C1.89543 2 1 2.89543 1 4V12C1 13.1046 1.89543 14 3 14H13C14.1046 14 15 13.1046 15 12V4C15 2.89543 14.1046 2 13 2H12V2.5C12 2.77614 11.7761 3 11.5 3C11.2239 3 11 2.77614 11 2.5ZM2.5 4C2.22386 4 2 4.22386 2 4.5C2 4.77614 2.22386 5 2.5 5H13.5C13.7761 5 14 4.77614 14 4.5C14 4.22386 13.7761 4 13.5 4H2.5Z" fill="url(#paint0_linear_3992_9305)"/>
    <path fill-rule="evenodd" clip-rule="evenodd" d="M6.89043 7.31237C7.06294 7.09674 7.02798 6.78209 6.81235 6.60958C6.59672 6.43708 6.28207 6.47204 6.10957 6.68767L4.10957 9.18767C3.96348 9.37028 3.96348 9.62976 4.10957 9.81237L6.10957 12.3124C6.28207 12.528 6.59672 12.563 6.81235 12.3905C7.02798 12.2179 7.06294 11.9033 6.89043 11.6877L5.54031 10H11.5C11.7761 10 12 9.77616 12 9.50002C12 9.22388 11.7761 9.00002 11.5 9.00002H5.54031L6.89043 7.31237Z" fill="#876ECB"/>
    <defs>
        <linearGradient id="paint0_linear_3992_9305" x1="8" y1="0" x2="8" y2="15" gradientUnits="userSpaceOnUse">
            <stop stop-color="#5132A9"/>
            <stop offset="1" stop-color="#2C146F"/>
        </linearGradient>
    </defs>
</svg>
