<svg width="48" height="48" viewBox="0 0 48 48" fill="none" xmlns="http://www.w3.org/2000/svg">
<path d="M46.2507 30C46.3994 30 46.5481 30.06 46.6618 30.177C46.8892 30.4109 46.8892 30.7919 46.6618 31.0258L45.4956 32.2256C45.2682 32.4596 44.898 32.4596 44.6706 32.2256C44.4431 31.9917 44.4431 31.6107 44.6706 31.3768L45.8367 30.177C45.9505 30.06 46.0991 30 46.2478 30H46.2507Z" fill="#CCCCCC"/>
<path d="M45.6676 35.3991H47.4169C47.7376 35.3991 48 35.6691 48 35.999C48 36.329 47.7376 36.5989 47.4169 36.5989H45.6676C45.3469 36.5989 45.0845 36.329 45.0845 35.999C45.0845 35.6691 45.3469 35.3991 45.6676 35.3991Z" fill="#CCCCCC"/>
<path d="M44.6765 39.7759C44.7902 39.6589 44.9389 39.5989 45.0876 39.5989H45.0905C45.2392 39.5989 45.3879 39.6589 45.5016 39.7759L46.6678 40.9757C46.8952 41.2096 46.8952 41.5906 46.6678 41.8245C46.4403 42.0585 46.0701 42.0585 45.8427 41.8245L44.6765 40.6247C44.4491 40.3908 44.4491 40.0098 44.6765 39.7759Z" fill="#CCCCCC"/>
<path d="M10.5 13.0767V20.3459C10.5 36.442 23.9999 38.7497 23.9999 38.7497C23.9999 38.7497 24.6896 38.6318 25.7572 38.2635C25.5889 37.5361 25.4999 36.7783 25.4999 35.9998C25.4999 30.4769 29.9771 25.9998 35.4999 25.9998C35.9546 25.9998 36.4022 26.0301 36.8408 26.0889C37.2587 24.4026 37.4999 22.4974 37.4999 20.3459V13.0767L30.4999 13.4997L24 8.92285L17.7499 13.2497L10.5 13.0767Z" fill="white"/>
<path d="M36.4637 26.0457C36.1465 26.0154 35.8251 25.9999 35.5 25.9999C29.9772 25.9999 25.5 30.477 25.5 35.9999C25.5 36.8796 25.6136 37.7328 25.8269 38.5457L24 39.2979V9.18262L30.5 13.4999L37.2404 13.3365V20.6057C37.2404 22.3399 36.9692 24.202 36.4637 26.0457Z" fill="#F2F2F2"/>
<path d="M21.143 9.39932C21.8906 8.6462 22.9362 8.24741 23.9953 8.25001C25.0545 8.25262 26.0981 8.65658 26.8415 9.41402C28.2088 10.8073 29.4173 11.553 30.6506 11.9354C31.8846 12.3181 33.3555 12.4022 35.3778 12.1448C36.4227 12.0119 37.5035 12.2758 38.3457 12.9085C39.1944 13.5462 39.7381 14.5187 39.7473 15.5993C39.7855 20.08 39.4126 23.6206 38.6112 26.4934C37.8278 26.2372 37.0018 26.0751 36.1465 26.0206C36.8958 23.4396 37.2856 20.1006 37.2474 15.6206C37.2455 15.3916 37.131 15.1229 36.8441 14.9073C36.5507 14.6869 36.1296 14.5693 35.6933 14.6248C33.4633 14.9086 31.6031 14.8482 29.9102 14.3233C28.1903 13.79 26.6392 12.7771 25.0572 11.1651C24.8201 10.9235 24.435 10.7511 23.9892 10.75C23.5433 10.7489 23.1566 10.9195 22.9172 11.1606C21.3593 12.73 19.8301 13.7429 18.1238 14.2882C16.431 14.8292 14.5627 14.9097 12.3047 14.6251C11.8687 14.5701 11.4481 14.688 11.1552 14.9083C10.8688 15.1238 10.7545 15.3923 10.7526 15.6212C10.69 22.9701 11.7791 27.2486 13.7176 30.1475C15.8044 33.268 18.9273 34.8802 22.9224 36.905L23.0138 36.9514L23.0179 36.9535L23.0184 36.9537L23.0211 36.9551L23.0226 36.9559L23.267 37.0797C23.7146 37.3067 24.2855 37.3067 24.7331 37.0797L24.9794 36.9548L24.9803 36.9544L24.9823 36.9534L24.9834 36.9528L24.9884 36.9503L24.9891 36.9499L25.0777 36.905C25.2273 36.8292 25.3756 36.754 25.5227 36.6792C25.5821 37.5641 25.7565 38.4175 26.0313 39.2245L25.8636 39.3095C24.7053 39.8968 23.2946 39.8968 22.1363 39.3094L21.888 39.1836L21.8855 39.1823L21.8838 39.1814L21.8823 39.1806L21.8813 39.1802L21.6574 39.0667C17.8161 37.1201 14.1205 35.2473 11.6394 31.5372C9.28973 28.0234 8.18839 23.1442 8.25266 15.5999C8.26185 14.5201 8.8047 13.5482 9.65232 12.9105C10.4935 12.2777 11.5731 12.0131 12.6174 12.1447C14.653 12.4014 16.1285 12.3013 17.3628 11.9068C18.5928 11.5138 19.7896 10.7627 21.143 9.39932Z" fill="#CACACA"/>
<path fill-rule="evenodd" clip-rule="evenodd" d="M35.5 44C39.9183 44 43.5 40.4183 43.5 36C43.5 31.5817 39.9183 28 35.5 28C31.0817 28 27.5 31.5817 27.5 36C27.5 40.4183 31.0817 44 35.5 44ZM34.7743 36.64C34.8135 36.955 35.1274 37.2 35.4806 37.2C35.8338 37.2 36.1477 36.955 36.2262 36.64L36.6971 32.265C36.7363 31.915 36.3831 31.6 35.9907 31.6H35.0097C34.578 31.6 34.2641 31.915 34.3034 32.265L34.7743 36.64ZM35.5 40.4C36.0523 40.4 36.5 39.9523 36.5 39.4C36.5 38.8477 36.0523 38.4 35.5 38.4C34.9478 38.4 34.5 38.8477 34.5 39.4C34.5 39.9523 34.9478 40.4 35.5 40.4Z" fill="#EB102D"/>
</svg>
