<svg width="1280" height="200" viewBox="0 0 1280 200" fill="none" xmlns="http://www.w3.org/2000/svg">
<g clip-path="url(#clip0_3427_33653)">
<g filter="url(#filter0_nn_3427_33653)">
<path d="M1104.75 232C1159.3 232 1126.21 177.556 1058.74 189.847C1037.38 193.738 1007.79 197.186 993.5 172.5C982.5 153.5 951.381 127.011 919.5 142.5C855.574 173.558 851.328 134.86 823.563 121.182C742 81.0001 661.82 183.899 629.999 228.014C663.236 228.014 669.094 224.375 687.988 232C861.894 232 930.839 232 1104.75 232Z" fill="#C9E3FF"/>
</g>
<path d="M630.5 124.5C569.5 104 475.27 100.221 407.078 113.59C328.924 128.911 306.919 164.04 271.149 188.295C242.089 208 231 240.363 231 255.664C375.599 255.664 867.491 255.353 1003.5 255.353C997.5 196 956 149.715 841 174.5C748.798 194.371 691.5 145 630.5 124.5Z" fill="#4D9DFF"/>
<path d="M514.425 162.229C552.759 158.297 569.036 126.732 522.617 116.72C488.785 109.423 461.238 109.861 428.348 112.75C392.345 115.912 355.355 122.97 316.5 143C289.355 156.994 221.684 204.873 250 214.5C265.677 219.83 299.621 204.081 313.5 210.5C323.282 215.025 340.124 209.573 350.573 212.694C379.183 221.239 416.642 221.866 428.348 220.994C471.552 217.777 493.444 191.563 479.837 182.253C462.544 170.421 481.791 165.576 514.425 162.229Z" fill="#CFEBDA"/>
<path d="M343.85 134.442C320.984 134.863 319.415 147.427 314.791 161.675C338.389 156.119 391.84 143.319 416.87 136.57C407.16 120.744 393.109 115.114 383.636 123.715C374.163 132.316 366.716 134.022 343.85 134.442Z" fill="#CFEBDA"/>
<g filter="url(#filter1_nn_3427_33653)">
<path d="M389.95 124.134C389.361 121.95 388.087 122.294 384.966 124.958L384.395 132.12L390.269 128.213C390.359 127.582 390.421 125.881 389.95 124.134Z" fill="#82B8B9"/>
</g>
<path d="M346.986 137.651C346.924 137.649 346.863 137.669 346.816 137.709C346.769 137.749 346.739 137.805 346.733 137.866C346.727 137.927 346.746 137.988 346.785 138.036C346.824 138.085 346.88 138.116 346.94 138.126C346.94 138.126 346.94 138.126 346.94 138.126C347.265 138.18 347.608 138.226 347.948 138.266C351.029 138.611 354.104 138.667 357.179 138.633C360.164 138.594 363.14 138.418 366.113 138.138C366.45 138.107 366.787 138.074 367.114 138.042C367.167 138.036 367.218 138.013 367.255 137.973C367.292 137.934 367.312 137.882 367.311 137.829C367.31 137.775 367.287 137.725 367.249 137.687C367.211 137.649 367.159 137.627 367.106 137.624C367.106 137.624 367.106 137.624 367.106 137.624C366.776 137.606 366.437 137.59 366.098 137.575C363.114 137.45 360.139 137.422 357.164 137.461C354.098 137.495 351.039 137.626 347.983 137.659C347.646 137.661 347.306 137.658 346.986 137.651Z" fill="#82B8B9"/>
<path d="M351.415 114.187C344.395 121.207 352.99 131.922 359.778 137.58C366.477 138.405 379.924 134.982 385.438 130.661C386.191 125.196 385.127 113.744 378.974 119.451C379.537 116.783 379.583 108.947 376.271 107.485C371.855 105.537 364.506 108.577 366.284 127.932C365.354 123.731 358.176 107.427 351.415 114.187Z" fill="#14735D"/>
<path d="M359.255 138.208C359.603 137.789 359.952 137.371 360.301 136.952C358.532 135.585 356.87 134.067 355.353 132.415C353.666 130.572 352.147 128.559 351.016 126.357C348.917 122.555 348.818 117.551 352.077 114.849C353.738 113.219 355.691 113.306 357.458 114.722C361.256 117.92 363.938 123.176 365.53 128.1C365.729 129.001 367.138 128.781 367.054 127.862C366.62 124.137 366.439 120.387 367.001 116.731C367.408 114.206 368.132 111.673 369.683 109.75C371.17 107.805 373.838 107.005 376.028 108.035C379.043 110.082 378.893 115.5 378.363 119.322C378.223 119.979 378.907 120.365 379.4 119.909C380.41 118.963 381.718 118.179 382.622 118.693C383.572 119.206 384.123 120.674 384.445 122.007C385.069 124.767 385.124 127.75 384.763 130.568L385.018 130.125C379.725 133.86 372.973 135.626 366.479 136.589C364.269 136.871 362.003 137.031 359.878 136.769C359.811 137.31 359.745 137.85 359.678 138.391C362.063 138.65 364.398 138.444 366.689 138.129C373.412 137.033 380.133 135.279 385.858 131.197C385.961 131.116 386.095 130.884 386.113 130.754C386.47 127.726 386.4 124.702 385.708 121.7C385.301 120.25 384.888 118.561 383.206 117.562C381.261 116.66 379.647 118.015 378.549 118.993L379.586 119.58C379.989 117.329 379.958 115.15 379.682 112.939C379.32 110.826 378.953 108.225 376.513 106.936C373.864 105.66 370.441 106.738 368.765 108.998C366.993 111.217 366.266 113.911 365.834 116.547C365.25 120.357 365.272 124.178 365.515 128.003L367.039 127.765C365.528 122.267 363.397 116.97 358.78 112.979C357.685 112.148 356.259 111.435 354.65 111.521C353.04 111.598 351.685 112.521 350.754 113.526C347.028 117.158 347.864 123.003 350.036 126.857C351.226 129.174 352.753 131.274 354.416 133.241C355.914 135.003 357.528 136.656 359.255 138.208ZM360.301 136.952L359.255 138.208C359.339 138.273 359.572 138.379 359.678 138.391L359.878 136.769L360.301 136.952Z" fill="#11604D"/>
<path d="M376.347 121.092C376.391 121.025 376.407 120.941 376.394 120.86C376.38 120.779 376.337 120.707 376.273 120.659C376.209 120.611 376.128 120.59 376.046 120.6C375.964 120.609 375.888 120.648 375.836 120.71C375.836 120.71 375.836 120.71 375.836 120.71C375.681 120.895 375.531 121.087 375.386 121.281C372.814 124.856 371.78 129.253 371.272 133.564C371.245 133.806 371.221 134.049 371.2 134.289C371.173 134.578 371.264 134.86 371.462 135.072C371.659 135.284 371.947 135.41 372.253 135.421C372.559 135.432 372.855 135.327 373.067 135.13C373.28 134.932 373.391 134.658 373.385 134.368C373.385 134.368 373.385 134.368 373.385 134.368C373.38 134.141 373.378 133.91 373.378 133.681C373.409 129.571 373.934 125.295 375.983 121.677C376.098 121.479 376.22 121.283 376.347 121.092Z" fill="#82B8B9"/>
<path d="M371.208 118.449C371.207 118.367 371.174 118.288 371.116 118.229C371.058 118.169 370.981 118.134 370.9 118.131C370.819 118.128 370.74 118.158 370.678 118.213C370.616 118.268 370.577 118.344 370.57 118.425C370.57 118.425 370.57 118.425 370.57 118.425C370.558 118.583 370.549 118.742 370.543 118.901C370.475 121.766 371.132 124.591 372.434 127.217C372.511 127.363 372.592 127.51 372.677 127.653C372.772 127.815 372.926 127.929 373.109 127.968C373.292 128.008 373.49 127.969 373.654 127.863C373.818 127.757 373.934 127.593 373.973 127.41C374.013 127.227 373.972 127.039 373.864 126.886C373.864 126.886 373.864 126.886 373.864 126.886C373.783 126.773 373.703 126.654 373.625 126.532C372.262 124.289 371.372 121.593 371.22 118.899C371.213 118.749 371.209 118.598 371.208 118.449Z" fill="#82B8B9"/>
<path d="M503.254 158.928C503.194 158.943 503.141 158.981 503.108 159.033C503.074 159.086 503.063 159.15 503.076 159.21C503.089 159.271 503.126 159.324 503.178 159.358C503.23 159.393 503.294 159.405 503.355 159.394C503.355 159.394 503.355 159.394 503.355 159.394C503.93 159.293 504.506 159.198 505.082 159.106C510.168 158.321 515.288 157.651 520.372 156.706C520.559 156.672 520.745 156.637 520.93 156.601C526 155.544 531.355 154.064 535.151 150.204C535.555 149.756 535.919 149.268 536.208 148.737C536.233 148.689 536.241 148.633 536.227 148.58C536.214 148.528 536.18 148.482 536.134 148.455C536.087 148.427 536.032 148.418 535.978 148.431C535.925 148.444 535.88 148.477 535.85 148.522C535.85 148.522 535.85 148.522 535.85 148.522C535.537 148.993 535.16 149.421 534.748 149.812C530.904 153.164 525.683 154.415 520.707 155.451C520.526 155.486 520.344 155.52 520.161 155.554C515.093 156.509 510.017 157.362 504.965 158.509C504.394 158.642 503.823 158.781 503.254 158.928Z" fill="#82B8B9"/>
</g>
<defs>
<filter id="filter0_nn_3427_33653" x="630" y="112.055" width="502.102" height="119.945" filterUnits="userSpaceOnUse" color-interpolation-filters="sRGB">
<feFlood flood-opacity="0" result="BackgroundImageFix"/>
<feBlend mode="normal" in="SourceGraphic" in2="BackgroundImageFix" result="shape"/>
<feTurbulence type="fractalNoise" baseFrequency="0.4284854531288147 0.4284854531288147" stitchTiles="stitch" numOctaves="3" result="noise" seed="2151" />
<feComponentTransfer in="noise" result="coloredNoise1">
<feFuncR type="linear" slope="2" intercept="-0.5" />
<feFuncG type="linear" slope="2" intercept="-0.5" />
<feFuncB type="linear" slope="2" intercept="-0.5" />
<feFuncA type="discrete" tableValues="1 1 1 1 1 1 1 1 1 1 1 1 1 1 1 1 1 1 1 1 1 1 1 1 1 1 1 1 1 1 1 1 1 1 1 1 1 1 1 1 1 1 1 1 1 1 1 1 1 1 1 0 0 0 0 0 0 0 0 0 0 0 0 0 0 0 0 0 0 0 0 0 0 0 0 0 0 0 0 0 0 0 0 0 0 0 0 0 0 0 0 0 0 0 0 0 0 0 0 0 "/>
</feComponentTransfer>
<feComposite operator="in" in2="shape" in="coloredNoise1" result="noise1Clipped" />
<feComponentTransfer in="noise1Clipped" result="color1">
<feFuncA type="table" tableValues="0 0.1" />
</feComponentTransfer>
<feMerge result="effect1_noise_3427_33653">
<feMergeNode in="shape" />
<feMergeNode in="color1" />
</feMerge>
<feTurbulence type="fractalNoise" baseFrequency="0.22073492407798767 0.22073492407798767" stitchTiles="stitch" numOctaves="3" result="noise" seed="3494" />
<feColorMatrix in="noise" type="luminanceToAlpha" result="alphaNoise" />
<feComponentTransfer in="alphaNoise" result="coloredNoise1">
<feFuncA type="discrete" tableValues="0 0 0 0 0 0 0 0 0 0 0 0 0 0 0 0 0 1 1 1 1 1 1 1 1 1 1 1 1 1 1 1 0 0 0 0 0 0 0 0 0 0 0 0 0 0 0 0 0 0 0 0 0 0 0 0 0 0 0 0 0 0 0 0 0 0 0 0 0 0 0 0 0 0 0 0 0 0 0 0 0 0 0 0 0 0 0 0 0 0 0 0 0 0 0 0 0 0 0 0 "/>
</feComponentTransfer>
<feComposite operator="in" in2="effect1_noise_3427_33653" in="coloredNoise1" result="noise1Clipped" />
<feFlood flood-color="rgba(255, 255, 255, 0.18)" result="color1Flood" />
<feComposite operator="in" in2="noise1Clipped" in="color1Flood" result="color1" />
<feMerge result="effect2_noise_3427_33653">
<feMergeNode in="effect1_noise_3427_33653" />
<feMergeNode in="color1" />
</feMerge>
</filter>
<filter id="filter1_nn_3427_33653" x="384.395" y="122.702" width="5.93701" height="9.41843" filterUnits="userSpaceOnUse" color-interpolation-filters="sRGB">
<feFlood flood-opacity="0" result="BackgroundImageFix"/>
<feBlend mode="normal" in="SourceGraphic" in2="BackgroundImageFix" result="shape"/>
<feTurbulence type="fractalNoise" baseFrequency="0.4284854531288147 0.4284854531288147" stitchTiles="stitch" numOctaves="3" result="noise" seed="2151" />
<feComponentTransfer in="noise" result="coloredNoise1">
<feFuncR type="linear" slope="2" intercept="-0.5" />
<feFuncG type="linear" slope="2" intercept="-0.5" />
<feFuncB type="linear" slope="2" intercept="-0.5" />
<feFuncA type="discrete" tableValues="1 1 1 1 1 1 1 1 1 1 1 1 1 1 1 1 1 1 1 1 1 1 1 1 1 1 1 1 1 1 1 1 1 1 1 1 1 1 1 1 1 1 1 1 1 1 1 1 1 1 1 0 0 0 0 0 0 0 0 0 0 0 0 0 0 0 0 0 0 0 0 0 0 0 0 0 0 0 0 0 0 0 0 0 0 0 0 0 0 0 0 0 0 0 0 0 0 0 0 0 "/>
</feComponentTransfer>
<feComposite operator="in" in2="shape" in="coloredNoise1" result="noise1Clipped" />
<feComponentTransfer in="noise1Clipped" result="color1">
<feFuncA type="table" tableValues="0 0.1" />
</feComponentTransfer>
<feMerge result="effect1_noise_3427_33653">
<feMergeNode in="shape" />
<feMergeNode in="color1" />
</feMerge>
<feTurbulence type="fractalNoise" baseFrequency="0.22073492407798767 0.22073492407798767" stitchTiles="stitch" numOctaves="3" result="noise" seed="3494" />
<feColorMatrix in="noise" type="luminanceToAlpha" result="alphaNoise" />
<feComponentTransfer in="alphaNoise" result="coloredNoise1">
<feFuncA type="discrete" tableValues="0 0 0 0 0 0 0 0 0 0 0 0 0 0 0 0 0 1 1 1 1 1 1 1 1 1 1 1 1 1 1 1 0 0 0 0 0 0 0 0 0 0 0 0 0 0 0 0 0 0 0 0 0 0 0 0 0 0 0 0 0 0 0 0 0 0 0 0 0 0 0 0 0 0 0 0 0 0 0 0 0 0 0 0 0 0 0 0 0 0 0 0 0 0 0 0 0 0 0 0 "/>
</feComponentTransfer>
<feComposite operator="in" in2="effect1_noise_3427_33653" in="coloredNoise1" result="noise1Clipped" />
<feFlood flood-color="rgba(255, 255, 255, 0.18)" result="color1Flood" />
<feComposite operator="in" in2="noise1Clipped" in="color1Flood" result="color1" />
<feMerge result="effect2_noise_3427_33653">
<feMergeNode in="effect1_noise_3427_33653" />
<feMergeNode in="color1" />
</feMerge>
</filter>
<clipPath id="clip0_3427_33653">
<rect width="1280" height="200" fill="white"/>
</clipPath>
</defs>
</svg>
