<svg fill="none" viewBox="0 0 24 24" xmlns="http://www.w3.org/2000/svg">
  <g clip-path="url(#O_svg__a)">
    <path fill="#47A56C" d="M24 12c0 6.627-5.373 12-12 12S0 18.627 0 12 5.373 0 12 0s12 5.373 12 12Z"/>
    <path fill="#000" fill-opacity=".12" fill-rule="evenodd" d="M12 23.5c6.351 0 11.5-5.149 11.5-11.5S18.351.5 12 .5.5 5.649.5 12 5.649 23.5 12 23.5Zm0 .5c6.627 0 12-5.373 12-12S18.627 0 12 0 0 5.373 0 12s5.373 12 12 12Z" clip-rule="evenodd"/>
    <path fill="#fff" d="M18.414 11.879c0 2.222-.545 3.911-1.635 5.068-1.09 1.156-2.686 1.734-4.788 1.734-2.072 0-3.661-.581-4.77-1.744-1.102-1.162-1.653-2.854-1.653-5.076 0-2.198.548-3.875 1.644-5.032 1.102-1.162 2.701-1.743 4.797-1.743 2.102 0 3.695.575 4.779 1.725 1.084 1.15 1.626 2.84 1.626 5.068Zm-9.088 0c0 2.553.888 3.83 2.665 3.83.903 0 1.572-.31 2.005-.93.44-.62.66-1.587.66-2.9 0-1.319-.223-2.292-.669-2.918-.44-.632-1.099-.948-1.978-.948-1.789 0-2.683 1.288-2.683 3.866Z"/>
  </g>
  <defs>
    <clipPath id="O_svg__a">
      <path fill="#fff" d="M0 0h24v24H0z"/>
    </clipPath>
  </defs>
</svg>
