<svg fill="none" viewBox="0 0 24 24" xmlns="http://www.w3.org/2000/svg">
  <g clip-path="url(#WarnerMedia_svg__a)">
    <path fill="#000" d="M24 12c0 6.627-5.373 12-12 12S0 18.627 0 12 5.373 0 12 0s12 5.373 12 12Z"/>
    <path fill="#fff" fill-opacity=".12" fill-rule="evenodd" d="M24 12c0 6.627-5.373 12-12 12S0 18.627 0 12 5.373 0 12 0s12 5.373 12 12ZM12 23.5c6.351 0 11.5-5.149 11.5-11.5S18.351.5 12 .5.5 5.649.5 12 5.649 23.5 12 23.5Z" clip-rule="evenodd"/>
    <path fill="#fff" d="M12.007 11.08c-.13.745-.324 1.57-.436 2.053l-1.228 5.064H7.461L4.181 6.88h2.65l1.538 5.655c.112.5.324 1.358.486 2.07l1.873-7.725h2.54l1.894 7.73c.177-.72.386-1.57.5-2.072l1.503-5.658h2.655L16.578 18.2h-2.882l-1.253-5.067c-.112-.49-.306-1.308-.436-2.053Z"/>
  </g>
  <defs>
    <clipPath id="WarnerMedia_svg__a">
      <path fill="#fff" d="M0 0h24v24H0z"/>
    </clipPath>
  </defs>
</svg>
