<svg width="24" height="24" viewBox="0 0 24 24" fill="none" xmlns="http://www.w3.org/2000/svg">
<path d="M3 6C3 4.34315 4.34315 3 6 3H18C19.6569 3 21 4.34315 21 6V18C21 19.6569 19.6569 21 18 21H6C4.34315 21 3 19.6569 3 18V6Z" fill="#8FABF9" stroke="#2B55CA" stroke-width="1.5"/>
<path d="M4 15H20V18C20 19.1046 19.1046 20 18 20H6C4.89543 20 4 19.1046 4 18V15Z" fill="#E8EEFF"/>
<path d="M8 15C8 13.3431 9.34315 12 11 12H13C14.6569 12 16 13.3431 16 15V19H8V15Z" fill="#E8EEFF"/>
<mask id="mask0_3150_28617" style="mask-type:alpha" maskUnits="userSpaceOnUse" x="4" y="15" width="16" height="5">
<path d="M4 15H20V18C20 19.1046 19.1046 20 18 20H6C4.89543 20 4 19.1046 4 18V15Z" fill="#E8EEFF"/>
</mask>
<g mask="url(#mask0_3150_28617)">
<rect x="1" y="17" width="6" height="6" rx="1" fill="#F9BE1A" stroke="#E2A412" stroke-width="1.5"/>
<rect x="17" y="17" width="6" height="6" rx="1" fill="#399F29" stroke="#2C8D1D" stroke-width="1.5"/>
</g>
<rect x="10" y="14" width="4" height="4" rx="1" fill="#F05C2B" stroke="#DB3C08" stroke-width="1.5"/>
<path d="M11.5 9.5C11.4923 9.63261 11.5382 9.75979 11.6321 9.85355C11.7258 9.94732 11.8597 10 12 10C12.1403 10 12.2742 9.94732 12.3679 9.85355C12.4618 9.75979 12.5077 9.63261 12.5 9.5C12.4967 9.44167 12.4933 9.38333 12.49 9.325C12.4299 8.275 12.3698 7.225 12.3097 6.175C12.3063 6.11667 12.303 6.05833 12.2997 6C12.2953 5.92494 12.2599 5.85296 12.2038 5.79988C12.1475 5.74681 12.0751 5.71699 12 5.71699C11.9249 5.71699 11.8525 5.74681 11.7962 5.79988C11.7401 5.85296 11.7047 5.92494 11.7003 6C11.697 6.05833 11.6937 6.11667 11.6903 6.175C11.6302 7.225 11.5701 8.275 11.51 9.325C11.5067 9.38333 11.5033 9.44167 11.5 9.5Z" fill="white"/>
<path d="M8.64645 10.8536C8.73124 10.9563 8.85055 11.0168 8.98331 11.0167C9.11576 11.0168 9.25081 10.9563 9.35355 10.8536C9.4563 10.7508 9.51684 10.6158 9.51669 10.4833C9.51684 10.3505 9.4563 10.2312 9.35355 10.1464C9.35355 10.1464 9.35355 10.1464 9.35355 10.1464C9.32619 10.1238 9.29883 10.1012 9.27147 10.0785C8.77897 9.67103 8.28648 9.26352 7.79398 8.85602C7.76662 8.83338 7.73926 8.81074 7.7119 8.7881C7.65586 8.74186 7.5802 8.71942 7.50438 8.72292C7.42839 8.72658 7.35847 8.75587 7.30717 8.80717C7.25587 8.85847 7.22658 8.92839 7.22292 9.00438C7.21942 9.0802 7.24186 9.15586 7.2881 9.2119C7.2881 9.2119 7.2881 9.2119 7.2881 9.2119C7.31074 9.23926 7.33338 9.26662 7.35602 9.29398C7.76352 9.78648 8.17103 10.279 8.57853 10.7715C8.60117 10.7988 8.62381 10.8262 8.64645 10.8536Z" fill="white"/>
<path d="M15.3536 10.8536C15.2688 10.9563 15.1495 11.0168 15.0167 11.0167C14.8842 11.0168 14.7492 10.9563 14.6464 10.8536C14.5437 10.7508 14.4832 10.6158 14.4833 10.4833C14.4832 10.3505 14.5437 10.2312 14.6464 10.1464C14.6464 10.1464 14.6464 10.1464 14.6464 10.1464C14.6738 10.1238 14.7012 10.1012 14.7285 10.0785C15.221 9.67103 15.7135 9.26352 16.206 8.85602C16.2334 8.83338 16.2607 8.81074 16.2881 8.7881C16.3441 8.74186 16.4198 8.71942 16.4956 8.72292C16.5716 8.72658 16.6415 8.75587 16.6928 8.80717C16.7441 8.85847 16.7734 8.92839 16.7771 9.00438C16.7806 9.0802 16.7581 9.15586 16.7119 9.2119C16.7119 9.2119 16.7119 9.2119 16.7119 9.2119C16.6893 9.23926 16.6666 9.26662 16.644 9.29398C16.2365 9.78648 15.829 10.279 15.4215 10.7715C15.3988 10.7988 15.3762 10.8262 15.3536 10.8536Z" fill="white"/>
<path d="M4.5 15.6841L4.4998 18.0027C4.49973 18.8311 5.17127 19.5027 5.99972 19.5028L8.33035 19.5029" stroke="#E8EEFF" stroke-linecap="round"/>
<path d="M19.4995 15.6841L19.4997 18.0027C19.4998 18.8311 18.8282 19.5027 17.9998 19.5028L15.6692 19.5029" stroke="#E8EEFF" stroke-linecap="round"/>
<path d="M10.913 14.7477C10.7792 14.7486 10.6583 14.803 10.5782 14.909C10.4981 15.0144 10.4653 15.1626 10.4857 15.3111C10.5061 15.4597 10.5777 15.5935 10.6833 15.6734C10.789 15.7538 10.9201 15.7736 11.0491 15.7384C11.0491 15.7384 11.0491 15.7384 11.0491 15.7384C11.0852 15.7286 11.1213 15.7188 11.1574 15.709C11.8074 15.5328 12.4574 15.3565 13.1074 15.1803C13.1435 15.1705 13.1796 15.1607 13.2157 15.1509C13.264 15.1377 13.3074 15.1033 13.3368 15.0591C13.3661 15.0147 13.379 14.964 13.3722 14.9145C13.3654 14.8649 13.3393 14.8196 13.299 14.7847C13.2588 14.75 13.2078 14.7287 13.1578 14.729C13.1578 14.729 13.1578 14.729 13.1578 14.729C13.1203 14.7293 13.0829 14.7296 13.0455 14.7299C12.3721 14.7355 11.6986 14.7412 11.0252 14.7468C10.9878 14.7471 10.9504 14.7474 10.913 14.7477Z" fill="#FFC4B0"/>
</svg>
