<svg width="24" height="24" viewBox="0 0 24 24" fill="none" xmlns="http://www.w3.org/2000/svg">
<g clip-path="url(#clip0_3005_39817)">
<circle cx="12" cy="12" r="10" fill="#2373D5" stroke="#0A467B" stroke-width="1.5"/>
<path d="M5.10459 9.31387C5.0046 9.23379 4.87809 9.1902 4.74883 9.19713C4.6196 9.20401 4.49882 9.26016 4.41224 9.35412C4.32565 9.44809 4.27954 9.57305 4.28323 9.70241C4.28687 9.8318 4.34064 9.95433 4.42861 10.0475C4.42861 10.0475 4.42861 10.0475 4.42861 10.0475C4.61901 10.2472 4.82283 10.4366 5.03635 10.6174C6.95599 12.1941 9.21364 13.1218 11.4961 13.8234C13.7904 14.4988 16.1707 14.9145 18.5946 14.8302C18.8666 14.8186 19.138 14.7988 19.4032 14.7687C19.5202 14.7551 19.6309 14.7014 19.7107 14.6131C19.7906 14.5247 19.8331 14.41 19.8288 14.2927C19.8246 14.1754 19.7739 14.064 19.6879 13.9817C19.6019 13.8993 19.4876 13.8537 19.37 13.8487C19.37 13.8487 19.37 13.8487 19.37 13.8487C19.1249 13.837 18.8734 13.818 18.6207 13.7932C16.3666 13.5519 14.1255 12.9977 11.9363 12.3527C9.75901 11.6862 7.57029 10.9261 5.6973 9.73846C5.48941 9.60229 5.29076 9.46103 5.10459 9.31387Z" fill="#77B6E8"/>
<path d="M12.7045 5.05658C12.7948 5.02116 12.8725 4.95583 12.9187 4.86908C12.9649 4.78239 12.9761 4.68222 12.9496 4.58936C12.923 4.49651 12.8605 4.41745 12.7754 4.36833C12.6903 4.31915 12.5898 4.30478 12.4944 4.3225C12.4944 4.3225 12.4944 4.3225 12.4944 4.3225C12.203 4.37913 11.9168 4.46534 11.6385 4.57707C9.1263 5.65683 7.6584 8.13341 6.93407 10.5801C6.22535 13.0576 6.24312 15.8182 7.33353 18.1956C7.45461 18.4576 7.58866 18.7131 7.73577 18.9607C7.79646 19.0618 7.89138 19.1403 8.00505 19.1763C8.11867 19.2123 8.24091 19.2033 8.34598 19.1506C8.45106 19.0979 8.53142 19.0053 8.57049 18.8927C8.60961 18.7801 8.60342 18.657 8.55868 18.5479C8.55868 18.5479 8.55868 18.5479 8.55868 18.5479C8.46178 18.3091 8.37617 18.0667 8.30107 17.8214C7.63206 15.6064 7.78141 13.2155 8.40936 11.0045C9.05858 8.81964 10.1499 6.61519 12.0417 5.39301C12.254 5.26231 12.4744 5.14918 12.7045 5.05658Z" fill="#77B6E8"/>
<path d="M15.5551 5.9589C15.5016 5.87796 15.4757 5.77985 15.4878 5.68232C15.4999 5.58481 15.5484 5.49642 15.6235 5.43577C15.6987 5.37512 15.7953 5.34644 15.8932 5.35523C15.9911 5.36398 16.0815 5.41003 16.1493 5.47941C16.1493 5.47941 16.1493 5.47941 16.1493 5.47941C16.3551 5.69343 16.5395 5.92865 16.7029 6.18018C18.1361 8.50885 17.9114 11.379 17.0959 13.7968C16.2499 16.2309 14.6468 18.4784 12.3869 19.7953C12.1371 19.9398 11.8805 20.0717 11.6177 20.1895C11.5099 20.2372 11.3871 20.2468 11.2734 20.2109C11.1597 20.1749 11.065 20.0972 11.0094 19.9936C10.9538 19.89 10.9413 19.7681 10.9742 19.6535C11.007 19.5389 11.0828 19.4418 11.1822 19.3784C11.1822 19.3784 11.1822 19.3784 11.1822 19.3784C11.3989 19.2388 11.6084 19.0898 11.8109 18.9325C13.6327 17.5059 14.8864 15.4646 15.6451 13.295C16.3714 11.1345 16.7474 8.7036 15.9036 6.61546C15.8052 6.38641 15.69 6.16703 15.5551 5.9589Z" fill="#77B6E8"/>
<circle cx="18" cy="18" r="6.6" fill="#272520" stroke="#F5F8FF" stroke-width="1.2"/>
<path d="M17.9707 13.8213C19.3513 13.8213 20.4704 14.9408 20.4707 16.3213V17.0371C20.7765 17.1321 20.9998 17.414 21 17.751V20.248C21 20.6628 20.6637 20.9997 20.249 21H15.751C15.3362 20.9999 15 20.6629 15 20.248V17.751C15.0002 17.4353 15.1948 17.1657 15.4707 17.0547V16.3213C15.471 14.9408 16.5902 13.8213 17.9707 13.8213ZM18 18C17.448 18.0001 17.0002 18.448 17 19C17.0002 19.552 17.4479 19.9999 18 20C18.552 19.9998 18.9998 19.552 19 19C18.9998 18.448 18.552 18.0002 18 18ZM17.9707 14.8213C17.1425 14.8213 16.471 15.4931 16.4707 16.3213V17H19.4707V16.3213C19.4704 15.4931 18.799 14.8213 17.9707 14.8213Z" fill="white"/>
</g>
<defs>
<clipPath id="clip0_3005_39817">
<rect width="24" height="24" fill="white"/>
</clipPath>
</defs>
</svg>
