<svg xmlns="http://www.w3.org/2000/svg" width="48" height="48" viewBox="0 0 48 48" fill="none">
    <path d="M25 39C33.2843 39 40 32.2843 40 24C40 15.7157 33.2843 9 25 9C16.7157 9 10 15.7157 10 24C10 32.2843 16.7157 39 25 39Z" fill="#399F29" />
    <path d="M23 9H25V39H23V9Z" fill="#399F29" />
    <path d="M23 39C31.2843 39 38 32.2843 38 24C38 15.7157 31.2843 9 23 9C14.7157 9 8 15.7157 8 24C8 32.2843 14.7157 39 23 39Z" fill="#4CBA3C" />
    <path fill-rule="evenodd" clip-rule="evenodd" d="M25.3389 18.8067C22.6654 17.4255 19.3882 18.4284 17.8588 21.1608L17.8531 21.1668C17.3471 22.0676 17.0999 23.0465 17.0711 24.0193C17.0596 24.5358 16.7434 24.9802 16.2662 25.1123L14.3631 25.6348C14.0296 25.7249 13.7019 25.4786 13.6674 25.1183C13.4892 23.1726 13.8686 21.1548 14.8863 19.3412C17.3873 14.8792 22.7862 13.3058 27.1041 15.708C27.2995 15.8161 27.541 15.75 27.6503 15.5518L28.3919 14.2247C28.5759 13.9004 29.0416 13.9664 29.1336 14.3327L30.4215 19.5093C30.479 19.7315 30.3525 19.9657 30.1341 20.0258L25.1952 21.377C24.8445 21.4731 24.557 21.0767 24.741 20.7524L25.4999 19.4012C25.6149 19.1911 25.5459 18.9148 25.3389 18.8067ZM20.2104 29.2678C22.9868 30.649 26.39 29.6462 27.9782 26.9137L27.9842 26.9077C28.5096 26.0069 28.7664 25.028 28.7962 24.0552C28.8082 23.5387 29.1366 23.0943 29.6321 22.9622L31.6084 22.4397C31.9547 22.3497 32.295 22.5959 32.3309 22.9562C32.5159 24.9019 32.1219 26.9197 31.0651 28.7333C28.4678 33.1953 22.8614 34.7687 18.3774 32.3666C18.1744 32.2585 17.9236 32.3245 17.8102 32.5227L17.04 33.8499C16.8489 34.1742 16.3653 34.1081 16.2698 33.7418L14.9323 28.5652C14.8726 28.343 15.004 28.1088 15.2309 28.0487L20.3597 26.6975C20.7239 26.6015 21.0224 26.9978 20.8313 27.3221L20.0432 28.6733C19.9238 28.8835 19.9955 29.1597 20.2104 29.2678Z" fill="white" />
</svg>
