<svg fill="none" viewBox="0 0 128 96" xmlns="http://www.w3.org/2000/svg">
  <title>Set as Default Browser</title>
  <path fill="#888" d="m105.629 38.2 1.542-.4a.875.875 0 0 0 .629-.629l.4-1.543A.84.84 0 0 1 109 35c.4 0 .743.286.8.628l.4 1.543a.875.875 0 0 0 .629.629l1.542.4c.4.114.629.457.629.8 0 .4-.286.743-.629.8l-1.542.4a.875.875 0 0 0-.629.628l-.4 1.543a.84.84 0 0 1-.8.629c-.4 0-.743-.286-.8-.629l-.4-1.543a.875.875 0 0 0-.629-.628l-1.542-.4A.842.842 0 0 1 105 39c0-.4.286-.743.629-.8m-89.686-6.4 2.314-.6c.429-.086.857-.514.943-.943l.6-2.314c.171-.6.686-.943 1.2-.943.6 0 1.114.428 1.2.943l.6 2.314c.086.429.514.857.943.943l2.314.6c.6.171.943.686.943 1.2 0 .6-.429 1.114-.943 1.2l-2.314.6c-.429.086-.857.514-.943.943l-.6 2.314c-.171.6-.686.943-1.2.943-.6 0-1.114-.429-1.2-.943l-.6-2.314c-.086-.429-.514-.857-.943-.943l-2.314-.6c-.6-.172-.943-.686-.943-1.2 0-.6.429-1.114.943-1.2ZM.629 53.2l1.542-.4a.876.876 0 0 0 .629-.629l.4-1.543A.841.841 0 0 1 4 50c.4 0 .743.286.8.628l.4 1.543a.876.876 0 0 0 .629.629l1.542.4c.4.114.629.457.629.8 0 .4-.286.743-.629.8l-1.542.4a.875.875 0 0 0-.629.628l-.4 1.543A.841.841 0 0 1 4 58c-.4 0-.743-.286-.8-.629l-.4-1.543a.875.875 0 0 0-.629-.628L.63 54.8A.841.841 0 0 1 0 54c0-.4.286-.743.629-.8ZM126.5 52c-.825 0-1.5-.675-1.5-1.5s.675-1.5 1.5-1.5 1.5.675 1.5 1.5-.675 1.5-1.5 1.5M23 70c-1.1 0-2-.9-2-2s.9-2 2-2 2 .9 2 2-.9 2-2 2" opacity=".2"/>
  <path fill="#E2A412" d="M80.738 52c1.97-.649 4.075-1 6.262-1h2.486c.617-.69.915-1.662.69-2.659l-2.965-13.18a3 3 0 0 0-3.809-2.208L67.92 37.717a3 3 0 0 1-1.831-.021l-1.14-.38a3.001 3.001 0 0 0-1.897 0l-1.15.384a3 3 0 0 1-1.81.027l-15.934-4.78a3 3 0 0 0-3.804 2.285l-2.636 13.18A3 3 0 0 0 40.66 52h40.079Z"/>
  <path fill="#F9BE1A" d="M87 51c-11.046 0-20 8.954-20 20v1a3 3 0 0 1-3 3H45.599a3 3 0 0 1-2.818-1.972L32.486 44.814c-.916-2.512 1.664-4.877 4.087-3.746l6.111 2.851a3 3 0 0 0 3.751-1.034l15.083-22.227c1.19-1.754 3.774-1.754 4.964 0l15.083 22.227a3 3 0 0 0 3.751 1.034l6.11-2.851c2.424-1.131 5.004 1.234 4.088 3.746l-1.538 4.214A3 3 0 0 1 91.158 51z"/>
  <path fill="#FFD65C" d="M45.599 75H64V19.343c-.944 0-1.887.438-2.482 1.315L46.435 42.885a3 3 0 0 1-3.751 1.034l-6.11-2.851c-2.424-1.131-5.004 1.234-4.088 3.746l10.295 28.214A3 3 0 0 0 45.599 75"/>
  <path fill="#21C000" d="M87 87c8.837 0 16-7.163 16-16s-7.163-16-16-16-16 7.163-16 16 7.163 16 16 16"/>
  <path fill="#fff" d="M95.885 68.31c.52-.52.52-1.365 0-1.885l-1.859-1.86a1.333 1.333 0 0 0-1.885 0l-6.538 6.54c-.52.52-1.365.52-1.885 0l-1.86-1.86a1.333 1.333 0 0 0-1.884 0l-1.86 1.86c-.52.52-.52 1.364 0 1.885l5.604 5.602c.52.52 1.364.52 1.885 0z"/>
  <path fill="#CCC" d="M108.501 59c.298 0 .595.12.823.354.454.468.454 1.23 0 1.698l-2.333 2.4a1.145 1.145 0 0 1-1.65 0 1.226 1.226 0 0 1 0-1.698l2.332-2.4c.228-.234.525-.354.823-.354h.005Zm-1.166 10.798h3.499c.641 0 1.166.54 1.166 1.2 0 .66-.525 1.2-1.166 1.2h-3.499c-.641 0-1.166-.54-1.166-1.2 0-.66.525-1.2 1.166-1.2m-1.982 8.754c.227-.234.525-.354.822-.354h.006c.297 0 .595.12.822.354l2.333 2.4c.454.467.454 1.23 0 1.697a1.146 1.146 0 0 1-1.651 0l-2.332-2.4a1.226 1.226 0 0 1 0-1.697Z"/>
</svg>