<svg width="96" height="96" viewBox="0 0 96 96" fill="none" xmlns="http://www.w3.org/2000/svg">
<path d="M75.5234 67.4495L30.2799 73.7004L16.6979 41.4034C15.805 39.28 18.0158 37.1801 20.0899 38.1814L30.5402 43.2265C31.7742 43.8222 33.2583 43.3129 33.8673 42.0847L43.8269 21.9987C44.6108 20.4178 46.7408 20.1235 47.9224 21.4329L62.9393 38.0724C63.856 39.0882 65.4193 39.1775 66.4467 38.2729L75.3185 30.4615C77.0348 28.9503 79.7102 30.3447 79.4538 32.6168L75.5234 67.4495Z" fill="#FFC95C"/>
<path d="M20.1667 43.5C18.4506 40.2586 19.5833 38.5 21.6667 39.4167C21.1111 38.7778 19.2567 37.6772 17.79 38.4105C16.3233 39.1438 16.4011 40.4938 16.6233 41.0772C20.5678 50.3827 28.8233 69.9605 30.29 73.8272C31.2233 71.6938 35.29 70.3272 37.2067 69.9105C31.9011 62.2716 21.6667 46.3333 20.1667 43.5Z" fill="#FFD885"/>
<path d="M52.3214 66.4299C64.7544 64.7122 75.0871 65.1629 75.4 67.4365C75.713 69.7102 65.8875 72.9458 53.4545 74.6636C41.0215 76.3813 30.6888 75.9307 30.3759 73.657C30.2828 72.9802 31.0455 72.0313 32.5502 71.2495C33.6485 70.6789 35.1194 70.0976 36.8859 69.5313C40.8302 68.2667 46.2903 67.2632 52.3214 66.4299ZM29.2597 50.4146C29.2751 49.2383 30.4686 48.4464 31.5556 48.8911L32.9572 49.4646C33.6549 49.7501 34.0737 50.4694 33.9784 51.2185L33.8246 52.4282C33.6988 53.417 32.741 54.0758 31.7748 53.8384L30.5077 53.5271C29.7556 53.3423 29.2302 52.6623 29.2404 51.8865L29.2597 50.4146ZM67.5507 44.4402C68.5025 43.7509 69.8499 44.239 70.142 45.3787L70.5072 46.804C70.6997 47.555 70.3498 48.3393 69.6627 48.6965L68.505 49.2984C67.6216 49.7577 66.5349 49.3434 66.1796 48.4119L65.7453 47.2732C65.4764 46.5682 65.7138 45.7707 66.3241 45.3286L67.5507 44.4402ZM45.4108 33.9954C46.1947 32.4146 48.3246 32.1201 49.5062 33.4295L49.9069 33.8733C49.6698 33.8832 49.4675 33.9654 49.3349 34.125C48.984 34.5473 48.7051 36.3299 49.3871 36.8987C50.0692 37.4674 51.454 36.6073 51.8048 36.1851C51.836 36.1476 51.8619 36.1068 51.8834 36.0637L52.5258 36.7754C53.304 37.6378 53.3853 38.9231 52.7221 39.8775L50.4765 43.1084C49.6231 44.3362 47.8906 44.546 46.7699 43.5574L43.9625 41.0808C43.115 40.333 42.875 39.1089 43.3773 38.0957L45.4108 33.9954Z" fill="#F5A031"/>
<path d="M43.1546 21.6653C44.1734 19.611 46.9422 19.2277 48.4788 20.9302L63.4957 37.5699C64.137 38.2805 65.2313 38.3435 65.9508 37.71L74.7931 29.9244C77.0277 27.9568 80.5103 29.7789 80.1681 32.7357L80.1683 32.7359L76.2452 67.8336C76.2301 67.9686 76.1796 68.091 76.1046 68.1932C75.7905 69.0487 75.134 69.3423 74.6612 69.7159C74.0344 70.128 73.3913 70.4481 72.7411 70.742C71.4462 71.3208 70.1299 71.7778 68.797 72.1944C63.7999 73.7225 58.6787 74.6031 53.5426 75.3021L53.5477 75.3013C52.7109 75.4188 51.8792 75.5179 51.0467 75.6136C48.8031 75.8675 46.5619 76.0997 44.3009 76.2515C41.8792 76.4078 39.4557 76.4876 37.0128 76.3712C34.7023 76.1044 32.4257 76.4993 29.9774 74.5191C29.8991 74.4182 29.8253 74.2976 29.7667 74.1636C29.6923 74.0939 29.6306 74.008 29.5885 73.908L16.0094 41.6966V41.6961C14.8479 38.9362 17.7212 36.2052 20.4183 37.5071L30.8661 42.5508C31.7295 42.9677 32.7684 42.6115 33.1949 41.7513L43.1546 21.6653ZM47.3653 21.9354C46.5387 21.0195 45.0477 21.2246 44.4986 22.3319L34.5389 42.4178C33.7474 44.014 31.8185 44.6763 30.214 43.9017L19.7662 38.858C18.3147 38.1573 16.7666 39.6273 17.3917 41.1138L27.6624 65.4776C28.0482 65.1409 28.4562 64.8284 28.8665 64.5359C32.8887 61.7633 37.5059 60.1028 42.1668 58.8946C45.0789 58.1557 48.0346 57.6042 51.0096 57.2032C55.7634 56.5789 60.5635 56.0457 65.4237 56.2784C66.131 56.3164 66.8388 56.3747 67.5445 56.4608C67.7082 56.4808 67.8582 56.5641 67.961 56.6934C68.0638 56.8227 68.1111 56.9875 68.0926 57.1514C68.0741 57.3153 67.9913 57.4654 67.8624 57.5687C67.7334 57.672 67.5687 57.7199 67.4046 57.7032C66.7299 57.6344 66.0488 57.5913 65.3653 57.567C60.6638 57.4255 55.9211 58.0053 51.21 58.6588C48.2858 59.0735 45.3857 59.6251 42.535 60.3484C37.9741 61.5299 33.4266 62.9715 29.3746 65.3133C28.8971 65.5986 28.4214 65.9078 27.9837 66.2398L30.4234 72.0272C30.6796 71.8161 30.9569 71.663 31.1866 71.4976C31.8274 71.1191 32.4872 70.8619 33.1585 70.6529C33.2682 70.6196 33.3885 70.6201 33.4967 70.6634C33.6047 70.7066 33.6915 70.7878 33.7389 70.8912C33.7862 70.9946 33.791 71.1134 33.753 71.2234C33.7151 71.3336 33.6368 71.4249 33.5399 71.4861C32.9742 71.846 32.4201 72.2082 31.9337 72.5933C31.6929 72.7849 31.4681 72.9859 31.3067 73.1795C31.1394 73.3705 31.0877 73.5522 31.1004 73.556C31.1005 73.5572 31.1008 73.5583 31.1009 73.5594C31.1023 73.5663 31.104 73.5836 31.138 73.6287C32.2443 74.5873 34.9808 74.7868 37.0865 74.9197C39.451 75.0404 41.8358 75.0119 44.2252 74.9026C46.4474 74.7957 48.681 74.6042 50.9024 74.3526C51.7258 74.2579 52.551 74.1553 53.3624 74.034C53.3634 74.0338 53.3663 74.0334 53.3673 74.0333C58.4447 73.2975 63.4898 72.2604 68.3538 70.7701C69.6484 70.3654 70.9222 69.9209 72.129 69.3809C72.7327 69.1087 73.3216 68.8115 73.8372 68.4715C74.2899 68.2015 74.7264 67.7163 74.764 67.5811L74.7662 67.5616C74.7657 67.5566 74.7645 67.5526 74.7616 67.5499C74.7616 67.5479 74.7614 67.5468 74.7613 67.5457C74.7618 67.5442 74.7575 67.5123 74.7 67.4473C74.641 67.3801 74.5357 67.297 74.4173 67.2242C74.1701 67.0711 73.8442 66.9354 73.5177 66.8231C72.8481 66.5948 72.1152 66.4315 71.38 66.2991C69.9025 66.038 68.3795 65.8987 66.8475 65.8677C62.022 65.791 57.1797 66.194 52.3763 66.8282C48.4838 67.3517 44.6081 68.0416 40.7989 68.9849C39.3218 69.353 37.8491 69.7624 36.4076 70.2391C36.3244 70.2666 36.2334 70.26 36.1549 70.2208C36.0763 70.1815 36.0165 70.1129 35.9886 70.0298C35.9607 69.9468 35.9669 69.8561 36.0057 69.7774C36.0446 69.6987 36.113 69.6382 36.1959 69.6099C37.6546 69.1128 39.1386 68.6863 40.6258 68.3021C44.4603 67.3175 48.3533 66.5922 52.2662 66.0316C57.0966 65.3519 61.9613 64.8998 66.8602 64.9219C68.4181 64.9363 69.9709 64.9411 71.5431 65.0823C72.3286 65.1564 73.1217 65.2603 73.9281 65.4776C74.2616 65.5699 74.6073 65.6827 74.9569 65.8541L75.672 59.4564C75.6446 59.4412 75.6177 59.4247 75.5921 59.4058C75.5534 59.3757 75.5071 59.3436 75.4583 59.3133C74.8789 58.9655 74.0398 58.731 73.2489 58.4952C72.7521 58.3497 72.2591 58.1449 71.7586 57.9642C71.6857 57.9379 71.6138 57.9121 71.5401 57.887C71.4574 57.8586 71.3853 57.7937 71.3385 57.7132C71.2918 57.6323 71.274 57.5425 71.2906 57.4568C71.3073 57.3712 71.3572 57.2944 71.4308 57.2369C71.5043 57.1797 71.5956 57.1464 71.6829 57.1509C71.7611 57.1553 71.838 57.1586 71.9161 57.1619C72.4515 57.1843 72.994 57.1888 73.5255 57.2759C74.2883 57.4118 75.0379 57.5408 75.8487 57.8741L78.6776 32.5694L78.6781 32.5655C78.8642 30.9728 76.9886 29.9898 75.7843 31.0501L66.942 38.8358C65.6066 40.0115 63.5742 39.8956 62.3822 38.5748L47.3653 21.9354ZM44.9041 33.7442C45.6625 32.239 47.7069 31.7285 49.025 32.5821C49.3022 32.7518 49.5446 32.9682 49.744 33.2149C49.8756 33.3799 50.0071 33.5452 50.1383 33.7105C50.1832 33.7672 50.2073 33.8388 50.2027 33.9117C50.1981 33.9846 50.1655 34.0525 50.1119 34.1009C50.0583 34.1493 49.9874 34.1748 49.9144 34.1719C49.8414 34.169 49.7726 34.1377 49.7208 34.0872C49.5697 33.9398 49.4188 33.7922 49.2682 33.6444C49.0894 33.4718 48.8872 33.333 48.6693 33.2322C47.6209 32.728 46.3047 33.2627 45.9171 34.2464C45.2938 35.6401 44.6571 37.0272 44.0069 38.4075C43.666 39.1209 43.867 40.0259 44.4561 40.5215C44.8137 40.8331 45.1703 41.1458 45.526 41.4595C46.106 41.9713 46.6835 42.486 47.2584 43.0035C47.9838 43.7034 49.3211 43.5949 49.9361 42.733C50.7149 41.6771 51.5027 40.6273 52.2996 39.584C52.7692 38.9979 52.8766 38.1117 52.5164 37.389C52.4501 37.2534 52.3687 37.1239 52.2738 37.003C52.0765 36.7565 51.8795 36.5094 51.6832 36.262C51.6382 36.2053 51.6141 36.1333 51.6187 36.0604C51.6234 35.9875 51.656 35.9195 51.7096 35.8712C51.7632 35.8228 51.8341 35.7975 51.9071 35.8004C51.9801 35.8032 52.0491 35.8343 52.1009 35.8848C52.327 36.1054 52.5526 36.3265 52.7777 36.5479C52.9201 36.69 53.0482 36.8484 53.1583 37.0196C53.7556 37.927 53.7711 39.215 53.1444 40.1712C52.4443 41.2818 51.735 42.386 51.0167 43.4839C50.0594 45.0302 47.6552 45.375 46.2811 44.1114C45.696 43.6055 45.1135 43.0967 44.5335 42.585C44.1779 42.2713 43.8231 41.9561 43.4693 41.6402C42.3881 40.7063 42.0822 39.0262 42.7479 37.7838C43.4531 36.4307 44.172 35.084 44.9041 33.7442Z" fill="#B66A1F"/>
<path d="M69.373 25.0773C70.1731 24.7385 71.0226 24.5161 71.9214 24.4105C72.0212 24.3988 72.1218 24.3884 72.2229 24.3795C72.2894 24.374 72.3586 24.3815 72.4195 24.4104C72.4804 24.4392 72.5279 24.4865 72.5529 24.5453C72.5778 24.6043 72.5789 24.6717 72.5572 24.7355C72.5355 24.7994 72.4925 24.854 72.4422 24.8979C72.3655 24.9643 72.2882 25.0293 72.2103 25.0928C71.5089 25.6648 70.758 26.1204 69.9579 26.4592C69.1578 26.798 68.3083 27.0201 67.4095 27.1257C67.3096 27.1375 67.2091 27.1479 67.108 27.1567C67.0415 27.1623 66.9723 27.1549 66.9114 27.1261C66.8505 27.0972 66.8029 27.0498 66.778 26.9909C66.7531 26.932 66.752 26.8648 66.7737 26.801C66.7954 26.7371 66.8383 26.6822 66.8887 26.6383C66.9653 26.5719 67.0426 26.5067 67.1205 26.4432C67.8219 25.8712 68.5729 25.4161 69.373 25.0773ZM65.4287 12.8672C65.496 12.8474 65.567 12.853 65.6277 12.8835C65.6883 12.914 65.735 12.9678 65.7593 13.0336C65.7835 13.0995 65.7827 13.1718 65.7639 13.2381C65.7183 13.3981 65.6713 13.5576 65.623 13.7161C65.1877 15.1432 64.6394 16.5133 63.9781 17.8266C63.3168 19.1399 62.5425 20.3965 61.6551 21.596C61.5566 21.7293 61.4565 21.8619 61.3551 21.9938C61.313 22.0484 61.2553 22.0922 61.1879 22.1119C61.1206 22.1316 61.0498 22.1261 60.9891 22.0955C60.9285 22.065 60.8816 22.0115 60.8574 21.9457C60.8331 21.8798 60.8341 21.8073 60.8529 21.7409C60.8985 21.5809 60.9456 21.4217 60.9939 21.2631C61.4292 19.8361 61.9772 18.4658 62.6385 17.1525C63.2998 15.8392 64.0742 14.5828 64.9615 13.3833C65.0601 13.2501 65.1601 13.1174 65.2615 12.9856C65.3037 12.9309 65.3613 12.887 65.4287 12.8672ZM52.4034 13.9329C52.4524 13.8889 52.512 13.8637 52.5737 13.8626C52.6353 13.8616 52.6959 13.8847 52.7463 13.927C52.7967 13.9694 52.8325 14.0274 52.8585 14.0881C52.8909 14.165 52.922 14.242 52.9514 14.319C53.2156 15.0121 53.3533 15.7076 53.3648 16.405C53.3763 17.1024 53.2614 17.8022 53.02 18.5038C52.9932 18.5817 52.9648 18.6596 52.9348 18.7375C52.9109 18.799 52.8769 18.8581 52.828 18.9022C52.779 18.9462 52.7194 18.9717 52.6578 18.9727C52.5961 18.9737 52.5358 18.9506 52.4854 18.9082C52.4349 18.8659 52.3988 18.8077 52.3729 18.747C52.3404 18.6701 52.3094 18.5931 52.28 18.5161C52.0158 17.823 51.8781 17.1277 51.8666 16.4303C51.8552 15.7329 51.97 15.0331 52.2114 14.3315C52.2382 14.2536 52.2667 14.1757 52.2966 14.0978C52.3205 14.0363 52.3544 13.9769 52.4034 13.9329Z" fill="#B66A1F"/>
</svg>
