<svg width="96" height="96" viewBox="0 0 96 96" fill="none" xmlns="http://www.w3.org/2000/svg">
<path d="M65.4841 20.5313C69.6127 20.531 72.9594 23.8776 72.9592 28.0061L72.9573 55.8936C73.8364 56.4436 74.4459 57.396 74.5137 58.51L74.8157 63.4797C74.9269 65.3112 73.5326 66.8861 71.7012 66.9976L71.0908 67.0344C69.7209 68.5888 67.7156 69.5699 65.481 69.5701L23.9204 69.5728C19.7919 69.573 16.4451 66.2262 16.4453 62.0977L16.4475 28.0098C16.4478 23.8811 19.795 20.5339 23.9236 20.5337L65.4841 20.5313Z" fill="#4397E0"/>
<path fill-rule="evenodd" clip-rule="evenodd" d="M69.1605 23.7484C73.2815 23.4979 76.8252 26.6355 77.0758 30.7564L79.1446 64.7814C79.3952 68.9023 76.2575 72.4463 72.1366 72.6969L30.6522 75.2191C26.5313 75.4696 22.9875 72.332 22.7369 68.211L20.6683 34.1861C20.4178 30.0651 23.5554 26.5212 27.6764 26.2706L69.1605 23.7484ZM38.2555 60.6564C38.1441 58.8249 36.5691 57.4306 34.7377 57.5419L29.6378 57.8519C27.8063 57.9633 26.4117 59.5382 26.5231 61.3697L26.829 66.3988C26.9403 68.2303 28.5153 69.6248 30.3468 69.5135L35.4466 69.2035C37.2781 69.0921 38.6724 67.5171 38.5611 65.6856L38.2555 60.6564ZM74.515 58.5082C74.4036 56.6767 72.8284 55.2823 70.9969 55.3937L65.9571 55.7001C64.1256 55.8114 62.7311 57.3864 62.8424 59.2179L63.1446 64.1876C63.2561 66.0191 64.8312 67.4135 66.6627 67.3021L71.7025 66.9957C73.534 66.8843 74.9283 65.3094 74.817 63.4779L74.515 58.5082Z" fill="#A1D0F7"/>
<path d="M74.5644 64.9648C75.1075 65.3822 75.4742 66.0229 75.519 66.7603C75.6012 68.1119 74.5721 69.2742 73.2204 69.3564L28.8703 72.053C27.5187 72.1351 26.3563 71.106 26.2741 69.7544C26.2242 68.9326 26.5855 68.1811 27.1799 67.6995C27.7608 68.8452 28.9821 69.5975 30.3459 69.5146L35.4458 69.2046C36.9794 69.1113 38.2063 67.9915 38.4995 66.5544L63.3103 65.0459C63.7764 66.4352 65.1293 67.3964 66.6618 67.3032L71.7016 66.9968C73.007 66.9174 74.0901 66.0942 74.5644 64.9648Z" fill="#CBEAFF"/>
<path d="M41.0008 43.3665C41.3067 41.093 43.3983 39.4938 45.6724 39.7945L59.0754 41.5668C61.3495 41.8675 62.9451 43.9543 62.6393 46.2277L60.8527 59.506C60.5468 61.7795 58.4553 63.3787 56.1811 63.078L42.7782 61.3057C40.504 61.005 38.9084 58.9182 39.2143 56.6447L41.0008 43.3665Z" fill="#F05F2B"/>
<path d="M57.5593 52.3138C58.0481 48.6809 55.4816 45.3354 51.8151 44.8505C48.1485 44.3657 44.7871 46.9273 44.2982 50.5603C43.8094 54.1933 46.3761 57.5388 50.0427 58.0236C53.7093 58.5084 57.0705 55.9468 57.5593 52.3138ZM59.6947 52.5962C59.0462 57.4164 54.5923 60.7961 49.7557 60.1566C44.919 59.5171 41.5142 55.0982 42.1628 50.2779C42.8114 45.4577 47.2654 42.0782 52.102 42.7177C56.9386 43.3573 60.3432 47.7759 59.6947 52.5962Z" fill="#FFB294"/>
<path d="M16.7783 27.9343C16.8509 27.9343 16.9208 27.9634 16.9731 28.0146C17.0254 28.0659 17.0555 28.1355 17.0596 28.208C17.0908 28.7732 17.1204 29.3386 17.1484 29.9038C17.4012 34.9916 17.5274 40.0797 17.5271 45.1675C17.5268 50.2552 17.4002 55.3431 17.1467 60.4309C17.1186 60.9961 17.0887 61.5615 17.0574 62.1267C17.0533 62.1992 17.0233 62.269 16.9709 62.3203C16.9186 62.3716 16.8486 62.4004 16.7761 62.4004C16.7036 62.4004 16.6336 62.3716 16.5813 62.3203C16.529 62.269 16.4989 62.1992 16.4949 62.1267C16.4637 61.5615 16.4341 60.9961 16.406 60.4309C16.1532 55.3431 16.027 50.255 16.0273 45.1672C16.0277 40.0795 16.1545 34.9918 16.408 29.9041C16.4361 29.3388 16.4658 28.7733 16.4971 28.208C16.5011 28.1355 16.5313 28.0659 16.5835 28.0146C16.6358 27.9634 16.7058 27.9343 16.7783 27.9343Z" fill="#1074CC"/>
<path d="M64.6033 34.6394C64.6711 34.646 64.7327 34.6756 64.7764 34.7236C64.82 34.7716 64.8436 34.8355 64.8438 34.9036C64.8439 34.9717 64.8204 35.0381 64.7852 35.0955C64.7257 35.1917 64.6651 35.2869 64.6035 35.3809C64.0497 36.2261 63.4105 36.9779 62.6865 37.6362C61.9625 38.2945 61.1534 38.8593 60.2593 39.3306C60.1599 39.3829 60.0592 39.4343 59.9578 39.4844C59.8973 39.514 59.8291 39.5313 59.7612 39.5247C59.6934 39.5181 59.6318 39.4886 59.5881 39.4407C59.5445 39.3927 59.5212 39.3286 59.521 39.2605C59.5208 39.1924 59.5444 39.1262 59.5796 39.0688C59.639 38.9727 59.6995 38.8776 59.761 38.7837C60.3149 37.9384 60.9542 37.1867 61.6782 36.5283C62.4023 35.87 63.2112 35.3048 64.1055 34.8335C64.2048 34.7811 64.3053 34.73 64.4067 34.6799C64.4672 34.6503 64.5354 34.6328 64.6033 34.6394Z" fill="#1074CC"/>
<path d="M54.7139 28.2717C54.7721 28.2333 54.8409 28.2176 54.9072 28.2285C54.9735 28.2394 55.0335 28.2763 55.0762 28.3313C55.1188 28.3863 55.14 28.4548 55.1433 28.5232C55.1501 28.6723 55.1554 28.8213 55.1592 28.97C55.1928 30.3079 55.1014 31.6254 54.8853 32.9224C54.6691 34.2193 54.3282 35.496 53.8623 36.752C53.8106 36.8914 53.7572 37.0307 53.7024 37.1697C53.6771 37.2334 53.6347 37.2916 53.5764 37.3301C53.5182 37.3685 53.4494 37.3844 53.3831 37.3735C53.3168 37.3626 53.2567 37.3255 53.2141 37.2705C53.1715 37.2155 53.1505 37.1468 53.1472 37.0784C53.1404 36.9293 53.1351 36.7804 53.1313 36.6318C53.0977 35.2939 53.1891 33.9764 53.4053 32.6794C53.6214 31.3825 53.9623 30.1058 54.4282 28.8499C54.48 28.7104 54.5333 28.5711 54.5881 28.4321C54.6134 28.3684 54.6556 28.3102 54.7139 28.2717Z" fill="#1074CC"/>
<path d="M44.2466 20.0293C50.2069 20.0289 56.1674 20.155 62.1277 20.4077C62.7899 20.4358 63.4523 20.4656 64.1145 20.4968C64.1873 20.5003 64.2574 20.5302 64.3088 20.5825C64.3603 20.6349 64.3892 20.7053 64.3892 20.7781C64.3891 20.8509 64.3601 20.9208 64.3086 20.9731C64.2571 21.0255 64.1871 21.0556 64.1143 21.0591C63.4521 21.0904 62.7898 21.1203 62.1277 21.1484C56.1673 21.4019 50.2067 21.5287 44.2463 21.5291C38.2861 21.5294 32.3257 21.4034 26.3655 21.1506C25.7032 21.1226 25.0409 21.0927 24.3787 21.0615C24.3059 21.0581 24.2358 21.0282 24.1843 20.9758C24.1329 20.9235 24.104 20.8533 24.104 20.7805C24.104 20.7077 24.1329 20.6376 24.1843 20.5852C24.2358 20.5328 24.3058 20.5025 24.3787 20.499C25.0409 20.4677 25.7032 20.4381 26.3655 20.4099C32.3258 20.1564 38.2863 20.0297 44.2466 20.0293Z" fill="#1074CC"/>
<path fill-rule="evenodd" clip-rule="evenodd" d="M69.1131 22.9998C73.6475 22.7241 77.5469 26.1765 77.8226 30.711L79.8912 64.7359C80.1668 69.2703 76.7146 73.1696 72.1802 73.4454L30.6961 75.9676C26.1617 76.2433 22.2621 72.7908 21.9864 68.2564L19.9178 34.2315C19.6421 29.697 23.0945 25.7977 27.629 25.522L69.1131 22.9998ZM76.3252 30.802C76.0998 27.0945 72.9117 24.2715 69.2041 24.4969L27.72 27.0191C24.0125 27.2445 21.1897 30.4329 21.4151 34.1404L23.4837 68.1653C23.7091 71.8729 26.8975 74.6957 30.605 74.4703L72.0892 71.948C75.7967 71.7226 78.6193 68.5342 78.3938 64.8267L76.3252 30.802Z" fill="#045EB2"/>
</svg>
