<svg fill="none" viewBox="0 0 96 96" xmlns="http://www.w3.org/2000/svg">
  <path fill="#DE5833" d="M63.44 18.428c.804-3.21 5.25-3.31 6.28-.3l.09.3 1.017 4.072a4.018 4.018 0 0 0 2.923 2.922l4.071 1.018c3.315.829 3.315 5.54 0 6.37l-1.485.37A31.857 31.857 0 0 1 80 48.057c0 17.673-14.327 32-32 32-17.673 0-32-14.327-32-32 0-17.673 14.327-32 32-32a31.857 31.857 0 0 1 15.089 3.776l.351-1.405Z"/>
  <path fill="#DDD" fill-rule="evenodd" d="M52.5 71.875c0-.25.061-.307-.733-1.891-2.112-4.23-4.235-10.192-3.27-14.037.176-.699-1.989-25.872-3.52-26.683-1.7-.907-3.794-2.345-5.709-2.665-.971-.155-2.245-.082-3.24.052-.178.024-.185.342-.016.4.654.221 1.448.606 1.915 1.187.089.11-.03.283-.171.288-.441.017-1.241.202-2.296 1.098-.123.104-.021.296.136.265 2.268-.449 4.585-.227 5.95 1.013.089.08.042.225-.073.257-11.847 3.22-9.502 13.525-6.348 26.172 2.822 11.316 4.44 16.563 4.824 17.816.033.106.108.19.213.23C44.225 76.955 52.5 75.263 52.5 72.5v-.625Z" clip-rule="evenodd"/>
  <path fill="#fff" fill-rule="evenodd" d="M41.145 73.993c-.683-2.546-3.08-9.776-5.321-18.96l-.224-.914-.002-.008c-2.712-11.078-4.927-20.126 7.214-22.968.111-.027.165-.16.092-.246-1.393-1.653-4.003-2.194-7.302-1.056-.136.046-.253-.09-.17-.206.648-.892 1.912-1.577 2.536-1.878.13-.062.122-.251-.015-.294a13.937 13.937 0 0 0-1.886-.45c-.184-.03-.201-.347-.016-.372 4.678-.629 9.563.776 12.014 3.863.024.03.057.05.093.058 8.977 1.927 9.62 16.117 8.585 16.763-.204.128-.857.055-1.719-.042-3.492-.39-10.409-1.164-4.7 9.474.056.105-.019.244-.136.262-3.208.5.877 10.518 3.906 17.162 1.17 2.569-12.177 2.694-12.95-.188Z" clip-rule="evenodd"/>
  <path fill="#3CA82B" d="M58.14 61.349c-.683-.317-3.31 1.568-5.054 3.014-.365-.516-1.052-.89-2.602-.62-1.357.235-2.106.562-2.44 1.126-2.142-.812-5.744-2.065-6.614-.855-.952 1.323.237 7.58 1.5 8.393.66.424 3.816-1.604 5.464-3.003.266.375.694.59 1.574.569 1.33-.031 3.489-.34 3.824-.96a.688.688 0 0 0 .053-.133c1.694.633 4.675 1.303 5.34 1.203 1.736-.261-.241-8.362-1.045-8.734Z"/>
  <path fill="#4CBA3C" d="M53.245 64.548a2.6 2.6 0 0 1 .179.4c.241.676.635 2.824.337 3.355-.297.53-2.23.787-3.422.808-1.191.02-1.46-.416-1.701-1.091-.193-.54-.288-1.81-.286-2.538-.049-1.079.345-1.458 2.167-1.752 1.348-.219 2.06.035 2.472.47 1.914-1.43 5.108-3.445 5.419-3.077 1.553 1.837 1.75 6.21 1.413 7.97-.11.575-5.252-.57-5.252-1.19 0-2.576-.669-3.283-1.326-3.355Zm-11.265-.804c.421-.667 3.837.162 5.712.996 0 0-.385 1.746.228 3.803.18.601-4.314 3.278-4.9 2.818-.678-.533-1.925-6.216-1.04-7.617Z"/>
  <path fill="#FC3" fill-rule="evenodd" d="M43.634 50.203c.277-1.201 1.564-3.466 6.161-3.41 2.324-.01 5.21-.002 7.125-.22a25.624 25.624 0 0 0 6.363-1.547c1.99-.759 2.696-.59 2.943-.135.273.499-.048 1.36-.743 2.154-1.329 1.516-3.716 2.69-7.933 3.038-4.217.349-7.01-.782-8.213 1.06-.518.794-.117 2.666 3.96 3.255 5.511.795 10.037-.958 10.596.1.559 1.06-2.662 3.215-8.181 3.26-5.52.045-8.967-1.933-10.19-2.916-1.551-1.247-2.245-3.066-1.888-4.639Z" clip-rule="evenodd"/>
  <g fill="#14307E" opacity=".8">
    <path d="M50.663 37.063c.308-.504.991-.893 2.108-.893s1.643.445 2.007.94c.074.101-.038.22-.153.17l-.084-.036c-.408-.179-.91-.398-1.77-.41-.919-.013-1.499.217-1.864.416-.123.066-.316-.067-.243-.187Zm-12.578.645c1.085-.453 1.938-.394 2.54-.252.127.03.216-.106.114-.188-.468-.378-1.515-.846-2.88-.337-1.218.454-1.793 1.398-1.796 2.019 0 .146.3.158.378.034.21-.334.56-.822 1.644-1.276Z"/>
    <path fill-rule="evenodd" d="M53.72 43.96a1.735 1.735 0 0 1-1.737-1.73c0-.956.778-1.731 1.737-1.731.96 0 1.737.775 1.737 1.73s-.778 1.73-1.737 1.73Zm1.224-2.304a.45.45 0 0 0-.9 0 .45.45 0 0 0 .9 0Zm-12.732 1.771a2.021 2.021 0 0 1-2.025 2.018 2.022 2.022 0 0 1-2.025-2.018c0-1.115.908-2.019 2.025-2.019s2.025.904 2.025 2.019Zm-.597-.67a.523.523 0 0 0-1.049 0 .524.524 0 0 0 1.049 0Z" clip-rule="evenodd"/>
  </g>
  <path fill="#fff" d="M48 18.5a29.364 29.364 0 0 1 14.319 3.704.215.215 0 0 1 .104.24c-.077.308-.19.602-.334.877-.397.761-1.376.84-2.146.46A26.883 26.883 0 0 0 48 21c-14.678 0-26.621 11.713-26.991 26.303L21 48c0 14.911 12.088 27 27 27s27-12.09 27-27c0-4.203-.961-8.18-2.674-11.727-.364-.753-.294-1.703.437-2.111a4.02 4.02 0 0 1 .987-.392.11.11 0 0 1 .124.054A29.364 29.364 0 0 1 77.5 48c0 16.292-13.208 29.5-29.5 29.5S18.5 64.292 18.5 48c0-16.293 13.208-29.5 29.5-29.5Z"/>
  <path fill="#fff" d="M65.866 18.978c.198-.79 1.32-.79 1.518 0l1.017 4.07a6.518 6.518 0 0 0 4.743 4.743l4.07 1.018c.79.198.79 1.32 0 1.518l-4.07 1.017a6.518 6.518 0 0 0-4.743 4.743l-1.017 4.07c-.198.79-1.32.79-1.518 0l-1.017-4.07a6.518 6.518 0 0 0-4.743-4.743l-4.07-1.017c-.79-.198-.79-1.32 0-1.518l4.07-1.018a6.518 6.518 0 0 0 4.742-4.742l1.018-4.07Z"/>
</svg>
