<svg width="96" height="96" viewBox="0 0 96 96" fill="none" xmlns="http://www.w3.org/2000/svg">
<g clip-path="url(#clip0_3038_1070)">
<path fill-rule="evenodd" clip-rule="evenodd" d="M47.9999 96C74.5095 96 95.9999 74.5096 95.9999 48C95.9999 21.4903 74.5095 -6.10352e-05 47.9999 -6.10352e-05C21.4902 -6.10352e-05 -0.00012207 21.4903 -0.00012207 48C-0.00012207 74.5096 21.4902 96 47.9999 96Z" fill="#542369"/>
<path fill-rule="evenodd" clip-rule="evenodd" d="M51.3165 82.3213C51.3165 81.9463 51.4085 81.8607 50.2165 79.4847C47.0485 73.1407 43.8645 64.1967 45.3125 58.4287C45.5765 57.3807 42.3285 19.6207 40.0325 18.4047C37.4805 17.0447 34.3405 14.8873 31.4685 14.4073C30.0114 14.1742 28.1008 14.2846 26.6072 14.4857C26.3417 14.5215 26.3307 14.9986 26.5844 15.0846C27.565 15.4168 28.7557 15.9936 29.4574 16.8657C29.5902 17.0308 29.4119 17.2904 29.2002 17.2982C28.5388 17.3228 27.3388 17.6 25.7556 18.9447C25.5725 19.1003 25.7246 19.389 25.9603 19.3424C29.3627 18.6693 32.8375 19.0009 34.8852 20.8622C35.0181 20.983 34.9486 21.1997 34.7754 21.2468C17.0047 26.0761 20.5226 41.5344 25.2533 60.5046C29.4672 77.4021 31.0529 82.8483 31.5529 84.5075C31.6013 84.6682 31.7142 84.7955 31.8702 84.8576C37.9874 87.2937 51.3165 87.4017 51.3165 83.2588V82.3213Z" fill="#DDDDDD"/>
<path d="M53.7539 85.8838C51.5977 86.7275 47.3789 87.1025 44.9414 87.1025C41.3679 87.1025 36.2227 86.54 34.3477 85.6963C33.1897 82.1327 29.7241 71.0857 26.302 57.0576C26.19 56.5985 26.0781 56.1417 25.9668 55.6871L25.964 55.6757C21.8958 39.0586 18.573 25.4863 36.7843 21.2225C36.9508 21.1835 37.0322 20.9845 36.922 20.8537C34.8325 18.3749 30.9182 17.5624 25.9686 19.27C25.7656 19.34 25.5894 19.1353 25.7155 18.9615C26.686 17.6237 28.5827 16.5951 29.5191 16.1441C29.7127 16.0509 29.7009 15.7676 29.4959 15.7034C28.8834 15.5117 27.8406 15.2183 26.6675 15.0289C26.39 14.9841 26.365 14.5085 26.6436 14.471C33.6604 13.527 40.9877 15.6336 44.6646 20.2653C44.6992 20.3089 44.7493 20.3394 44.8037 20.3511C58.2683 23.2427 59.2324 44.5273 57.6813 45.4968C57.3755 45.6879 56.3955 45.5782 55.1028 45.4336C49.8637 44.8474 39.4893 43.6867 48.0516 59.6441C48.1362 59.8017 48.0242 60.0103 47.8475 60.0378C43.019 60.7885 49.2065 75.9177 53.7539 85.8838Z" fill="white"/>
<path d="M59.7766 66.5323C58.7516 66.0573 54.8103 68.8838 52.1945 71.0535C51.6477 70.28 50.617 69.7177 48.2917 70.122C46.2566 70.4759 45.1331 70.9666 44.6318 71.8125C41.4197 70.5947 36.0158 68.7152 34.7103 70.5304C33.2833 72.5145 35.0669 81.9007 36.9623 83.1194C37.9519 83.7557 42.6852 80.7132 45.157 78.6152C45.5558 79.1771 46.1978 79.4987 47.5178 79.4681C49.5139 79.4218 52.7516 78.9572 53.2542 78.0276C53.2847 77.9711 53.311 77.9043 53.3333 77.8283C55.8739 78.7779 60.3454 79.7828 61.3444 79.6327C63.9475 79.2418 60.9817 67.0907 59.7766 66.5323Z" fill="#3CA82B"/>
<path d="M52.4341 71.3312C52.5419 71.5234 52.6286 71.7261 52.7022 71.9322C53.0644 72.9451 53.6545 76.1676 53.2083 76.9635C52.762 77.7594 49.8637 78.1438 48.0758 78.1747C46.2878 78.2055 45.8854 77.5516 45.5232 76.5387C45.2334 75.7284 45.0908 73.8232 45.0943 72.7323C45.0209 71.1142 45.6122 70.5454 48.3448 70.1032C50.3669 69.7759 51.4361 70.1565 52.0532 70.8079C54.9242 68.6651 59.7143 65.6412 60.1814 66.1939C62.511 68.9495 62.8055 75.5093 62.301 78.1485C62.1361 79.0113 54.4224 77.2937 54.4224 76.3632C54.4224 72.4995 53.4198 71.4396 52.4341 71.3312Z" fill="#4CBA3C"/>
<path d="M35.5368 70.1246C36.1686 69.1247 41.2919 70.3682 44.1042 71.6198C44.1042 71.6198 43.5263 74.238 44.4464 77.3227C44.7155 78.225 37.9762 82.241 37.0965 81.5501C36.0799 80.7515 34.2089 72.2263 35.5368 70.1246Z" fill="#4CBA3C"/>
<g opacity="0.9">
<path d="M48.5617 30.104C49.0235 29.3479 50.0476 28.7642 51.7234 28.7642C53.3992 28.7642 54.1876 29.431 54.7334 30.1747C54.8444 30.3259 54.6762 30.504 54.504 30.4295C54.4626 30.4116 54.4207 30.3933 54.378 30.3747C53.7652 30.107 53.0126 29.7783 51.7234 29.76C50.3445 29.7404 49.4751 30.0857 48.9276 30.3834C48.7431 30.4836 48.4523 30.2832 48.5617 30.104Z" fill="#0B2059"/>
<path d="M29.6946 31.0715C31.3219 30.3914 32.6008 30.4793 33.5049 30.6932C33.6953 30.7382 33.8276 30.5334 33.6753 30.4106C32.9736 29.8445 31.403 29.1418 29.3546 29.9057C27.5273 30.587 26.666 32.0027 26.661 32.9334C26.6598 33.1528 27.111 33.1714 27.2278 32.9857C27.5431 32.484 28.0673 31.7515 29.6946 31.0715Z" fill="#0B2059"/>
<path fill-rule="evenodd" clip-rule="evenodd" d="M53.1469 40.4486C51.7082 40.4486 50.5413 39.2849 50.5413 37.8526C50.5413 36.4204 51.7082 35.2567 53.1469 35.2567C54.5855 35.2567 55.7524 36.4204 55.7524 37.8526C55.7524 39.2849 54.5855 40.4486 53.1469 40.4486ZM54.9819 36.9927C54.9819 36.6218 54.6782 36.3213 54.3074 36.3213C53.9365 36.3213 53.636 36.6218 53.6328 36.9927C53.6328 37.3635 53.9365 37.664 54.3074 37.664C54.6814 37.664 54.9819 37.3635 54.9819 36.9927Z" fill="#0B2059"/>
<path fill-rule="evenodd" clip-rule="evenodd" d="M35.884 39.6492C35.884 41.3212 34.5253 42.6767 32.8469 42.6767C31.1717 42.6767 29.8099 41.3212 29.8099 39.6492C29.8099 37.9772 31.1717 36.6217 32.8469 36.6217C34.5221 36.6217 35.884 37.9772 35.884 39.6492ZM34.9889 38.6454C34.9889 38.2138 34.6372 37.8621 34.2024 37.8621C33.7708 37.8621 33.4192 38.2106 33.416 38.6454C33.416 39.077 33.7676 39.4286 34.2024 39.4286C34.6372 39.4286 34.9889 39.077 34.9889 38.6454Z" fill="#0B2059"/>
</g>
<path fill-rule="evenodd" clip-rule="evenodd" d="M60.9809 26.5651C55.031 21.0294 28.7327 23.6174 22.3036 30.6719C20.779 32.3449 20.1827 34.4887 20.2635 36.7607C19.0345 38.5837 18.6012 40.4458 18.7499 41.4374C19.0311 43.3124 22.0311 46.1249 22.0311 46.1249C22.1979 45.783 22.4854 45.2549 22.9199 44.7059C25.0002 48.0216 28.0322 50.6607 31.0311 51.2812C34.4202 51.9824 40.147 48.8349 43.1375 46.2974L59.6849 45.7967C62.2767 42.4579 63.6723 29.0693 60.9809 26.5651ZM24.8608 31.0935C30.1552 24.2706 54.5856 22.3885 59.9896 27.3861C62.4342 29.6467 61.1666 41.7336 58.8126 44.7478L43.7833 45.1999C41.0671 47.4907 36.4495 49.4501 33.3713 48.817C28.6314 47.8422 22.054 34.7106 24.8608 31.0935Z" fill="url(#paint0_linear_3038_1070)"/>
<path opacity="0.6" d="M59.9896 27.3861C54.5856 22.3885 30.1552 24.2706 24.8607 31.0935C22.0539 34.7106 28.6314 47.8422 33.3713 48.817C36.4495 49.4501 41.0671 47.4907 43.7832 45.1999L58.8126 44.7478C61.1666 41.7336 62.4342 29.6467 59.9896 27.3861Z" fill="url(#paint1_linear_3038_1070)"/>
<path fill-rule="evenodd" clip-rule="evenodd" d="M24.8608 31.0935C30.1553 24.2706 54.5857 22.3885 59.9897 27.3861C62.4342 29.6467 61.1666 41.7336 58.8126 44.7478L58.2364 44.7652C60.2839 40.9984 60.8968 30.1612 58.5935 28.0312C53.1895 23.0336 30.7008 24.9583 25.4063 31.7812C22.5995 35.3983 29.1039 47.0251 33.8438 47.9999C35.4434 48.3289 37.9128 47.3286 39.9159 46.5172C41.5159 45.869 42.8185 45.3414 43.143 45.7078C40.3846 47.7695 36.2192 49.4027 33.3714 48.817C28.6315 47.8422 22.054 34.7106 24.8608 31.0935Z" fill="white"/>
<path fill-rule="evenodd" clip-rule="evenodd" d="M38.0181 49.8137C38.4327 48.0112 40.3636 44.6146 47.2589 44.6971C50.7449 44.6826 55.0751 44.6956 57.946 44.3695C62.2129 43.8848 65.3801 42.8527 67.4906 42.0482C70.4755 40.9095 71.5347 41.1634 71.9061 41.8448C72.3141 42.5935 71.8333 43.8863 70.7904 45.0763C68.7982 47.3495 65.2169 49.1109 58.8917 49.6337C52.5666 50.1565 48.3762 48.4598 46.5724 51.2222C45.7944 52.4135 46.3959 55.2215 52.5127 56.1057C60.7784 57.2986 67.5669 54.6683 68.4057 56.2569C69.2445 57.8454 64.4128 61.0775 56.1337 61.1452C47.8546 61.2128 42.6834 58.2465 40.8495 56.772C38.5229 54.9013 37.4817 52.173 38.0181 49.8137Z" fill="#FFCC33"/>
<path fill-rule="evenodd" clip-rule="evenodd" d="M47.9999 88.3124C70.2639 88.3124 88.3124 70.2639 88.3124 47.9999C88.3124 25.736 70.2639 7.68744 47.9999 7.68744C25.7359 7.68744 7.68738 25.736 7.68738 47.9999C7.68738 70.2639 25.7359 88.3124 47.9999 88.3124ZM47.9999 92.0624C72.3349 92.0624 92.0624 72.335 92.0624 47.9999C92.0624 23.6649 72.3349 3.93744 47.9999 3.93744C23.6648 3.93744 3.93738 23.6649 3.93738 47.9999C3.93738 72.335 23.6648 92.0624 47.9999 92.0624Z" fill="white"/>
<path d="M71.6249 55.1249H80.9999V70.8749H71.6249V55.1249Z" fill="url(#paint2_linear_3038_1070)"/>
<path opacity="0.5" d="M72.5624 56.6249H79.8749V70.6874H72.5624V56.6249Z" fill="#557FF3"/>
<path d="M72.5624 60.7499H79.8749V71.2499H72.5624V60.7499Z" fill="#96E38A"/>
<path d="M83.9107 68.6894C76.7501 81.0913 63.3497 89.4375 47.9999 89.4375C41.2416 89.4375 34.8611 87.8195 29.2247 84.9498C29.5952 81.7411 30.5635 79.2056 31.7515 77.9062C32.3008 78.5401 32.7784 79.114 33.2107 79.6335C36.6144 83.7238 37.2077 84.4367 47.8915 84.4367C57.7249 84.4367 65.6134 76.2803 69.8403 69.9595C69.2515 68.9062 69.6265 66.0937 71.689 66.0937C71.689 67.5831 73.6351 69.149 76.2827 68.5312C79.0952 67.875 81.064 66.0937 81.064 64.875C83.0985 64.875 83.8666 66.4938 83.9107 68.6894Z" fill="white"/>
<path d="M79.8749 60.8437C79.8749 61.3097 78.2379 61.6874 76.2186 61.6874C74.1993 61.6874 72.5624 61.3097 72.5624 60.8437C72.5624 60.3777 74.1993 59.9999 76.2186 59.9999C78.2379 59.9999 79.8749 60.3777 79.8749 60.8437Z" fill="#D3FFCC"/>
<path d="M80.9999 57.6562C80.9999 58.5364 78.9012 59.2499 76.3124 59.2499C73.7235 59.2499 71.6249 58.5364 71.6249 57.6562C71.6249 56.776 73.7235 56.0624 76.3124 56.0624C78.9012 56.0624 80.9999 56.776 80.9999 57.6562Z" fill="url(#paint3_linear_3038_1070)" fill-opacity="0.5"/>
<path d="M82.6874 56.0624C82.6874 57.2015 79.7912 58.1249 76.2186 58.1249C72.646 58.1249 69.7499 57.2015 69.7499 56.0624C69.7499 54.9234 72.646 53.9999 76.2186 53.9999C79.7912 53.9999 82.6874 54.9234 82.6874 56.0624Z" fill="url(#paint4_linear_3038_1070)"/>
<path d="M80.8124 55.4062C80.8124 55.7686 78.7557 56.0624 76.2186 56.0624C73.6816 56.0624 71.6249 55.7686 71.6249 55.4062C71.6249 55.0438 73.6816 54.7499 76.2186 54.7499C78.7557 54.7499 80.8124 55.0438 80.8124 55.4062Z" fill="#8FABF9"/>
<path d="M80.8124 55.4062C80.8124 55.7686 78.7557 56.0624 76.2186 56.0624C73.6816 56.0624 71.6249 55.7686 71.6249 55.4062C71.6249 55.0438 73.6816 54.7499 76.2186 54.7499C78.7557 54.7499 80.8124 55.0438 80.8124 55.4062Z" fill="url(#paint5_linear_3038_1070)"/>
<path d="M36.8102 86.7392C31.4983 85.2076 26.6371 82.6131 22.4715 79.2009C24.1986 76.8519 26.3599 74.7214 27.9198 74.6601C30.2497 74.5686 34.2296 81.484 36.8102 86.7392Z" fill="#DDDDDD"/>
<path d="M38.0184 88.2274C32.9099 86.964 28.175 84.753 24.0109 81.7915C24.9624 79.0353 26.6662 75.6885 28.862 75.6022C31.2736 75.5075 35.4529 82.9195 38.0184 88.2274Z" fill="white"/>
<path d="M57.3749 81.9374C57.366 81.9437 57.3564 81.9502 57.346 81.9569C55.298 83.3366 49.7636 86.3705 43.5703 86.61C35.7922 86.9108 35.6249 82.5715 35.6249 82.5715C38.2199 84.8902 41.3262 85.504 45.5882 85.3034C48.9623 85.1447 56.3659 82.5931 57.346 81.9569C57.3557 81.9504 57.3653 81.9439 57.3749 81.9374Z" fill="#DDDDDD"/>
<path opacity="0.4" d="M80.7075 39.885C80.7075 40.8915 79.8915 41.7075 78.8849 41.7075C77.8784 41.7075 77.0624 40.8915 77.0624 39.885C77.0624 38.8784 77.8784 38.0624 78.8849 38.0624C79.8915 38.0624 80.7075 38.8784 80.7075 39.885Z" fill="#D3FFCC"/>
<path d="M81.1141 48.0571C81.1141 49.5383 79.9133 50.7392 78.432 50.7392C76.9507 50.7392 75.7499 49.5383 75.7499 48.0571C75.7499 46.5758 76.9507 45.3749 78.432 45.3749C79.9133 45.3749 81.1141 46.5758 81.1141 48.0571Z" fill="url(#paint6_radial_3038_1070)"/>
<path opacity="0.4" d="M74.4945 36.216C74.4945 36.9566 73.8941 37.5571 73.1534 37.5571C72.4128 37.5571 71.8124 36.9566 71.8124 36.216C71.8124 35.4754 72.4128 34.8749 73.1534 34.8749C73.8941 34.8749 74.4945 35.4754 74.4945 36.216Z" fill="#D3FFCC"/>
<path d="M74.5164 51.7894C74.5164 52.329 74.0789 52.7664 73.5394 52.7664C72.9998 52.7664 72.5624 52.329 72.5624 51.7894C72.5624 51.2499 72.9998 50.8124 73.5394 50.8124C74.0789 50.8124 74.5164 51.2499 74.5164 51.7894Z" fill="#D3FFCC"/>
<path d="M77.3289 30.9769C77.3289 31.5165 76.8914 31.9539 76.3519 31.9539C75.8123 31.9539 75.3749 31.5165 75.3749 30.9769C75.3749 30.4374 75.8123 29.9999 76.3519 29.9999C76.8914 29.9999 77.3289 30.4374 77.3289 30.9769Z" fill="#D3FFCC"/>
</g>
<defs>
<linearGradient id="paint0_linear_3038_1070" x1="42.0744" y1="30.8551" x2="42.0744" y2="52.1157" gradientUnits="userSpaceOnUse">
<stop offset="0.53999" stop-color="#7D9AE8"/>
<stop offset="1" stop-color="#4CBA3C"/>
</linearGradient>
<linearGradient id="paint1_linear_3038_1070" x1="44.0194" y1="30.9465" x2="44.0194" y2="49.5817" gradientUnits="userSpaceOnUse">
<stop offset="0.28125" stop-color="#CCDAFF"/>
<stop offset="1" stop-color="#D3FFCC"/>
</linearGradient>
<linearGradient id="paint2_linear_3038_1070" x1="76.3124" y1="58.999" x2="76.3124" y2="63.7855" gradientUnits="userSpaceOnUse">
<stop stop-color="#CCDAFF"/>
<stop offset="1" stop-color="#D3FFCC"/>
</linearGradient>
<linearGradient id="paint3_linear_3038_1070" x1="68.7595" y1="52.997" x2="83.6128" y2="60.7027" gradientUnits="userSpaceOnUse">
<stop stop-color="#557FF3"/>
<stop offset="1" stop-color="#4CBA3C"/>
</linearGradient>
<linearGradient id="paint4_linear_3038_1070" x1="76.2186" y1="53.9999" x2="76.2186" y2="58.1249" gradientUnits="userSpaceOnUse">
<stop stop-color="#D3FFCC"/>
<stop offset="1" stop-color="#CCDAFF"/>
</linearGradient>
<linearGradient id="paint5_linear_3038_1070" x1="76.2186" y1="54.7499" x2="76.2186" y2="57.0251" gradientUnits="userSpaceOnUse">
<stop stop-color="#8FABF9"/>
<stop offset="1" stop-color="#B3F1AA" stop-opacity="0"/>
</linearGradient>
<radialGradient id="paint6_radial_3038_1070" cx="0" cy="0" r="1" gradientUnits="userSpaceOnUse" gradientTransform="translate(78.6469 45.231) rotate(63.7978) scale(5.05976)">
<stop stop-color="#B3F1AA" stop-opacity="0.4"/>
<stop offset="1" stop-color="#B3F1AA"/>
</radialGradient>
<clipPath id="clip0_3038_1070">
<rect width="96" height="96" fill="white"/>
</clipPath>
</defs>
</svg>
