<svg width="16" height="16" viewBox="0 0 16 16" fill="none" xmlns="http://www.w3.org/2000/svg">
<path d="M7.98442 15.3594C9.40066 15.3594 12.5382 13.8718 14.1101 11.3431C15.4021 9.26575 15.4621 7.41232 15.3456 5.8452C15.189 3.73132 14.2739 3.40981 12.7421 2.92177C11.548 2.54154 10.6466 2.01404 10.0779 1.46535C9.45152 0.860838 8.72039 0.625 8.00003 0.625C7.27966 0.625 6.54853 0.860838 5.92212 1.46535C5.35347 2.01404 4.45105 2.54154 3.25795 2.92177C1.72619 3.40981 0.811052 3.73229 0.65445 5.8452C0.537978 7.41136 0.598942 9.26575 1.88992 11.3431C3.46181 13.8708 6.56818 15.3594 7.98442 15.3594Z" fill="#269B61"/>
<path d="M8.15479 0.628784C8.82452 0.660715 9.49651 0.903945 10.0781 1.46521C10.6468 2.01388 11.5482 2.54153 12.7422 2.92175C14.2739 3.40978 15.1891 3.73132 15.3457 5.84509C15.4622 7.41221 15.4023 9.26584 14.1104 11.3431C12.5674 13.8253 9.51572 15.3027 8.06445 15.3563C8.31409 12.8429 8.44727 10.2108 8.44727 7.49988C8.44726 5.141 8.34533 2.84199 8.15479 0.628784Z" fill="#38B26A"/>
<path d="M7.99963 0.000488281C8.84782 0.000488281 9.71932 0.282471 10.4576 0.996582C10.9659 1.48815 11.8075 1.99201 12.9674 2.3623H12.9679C13.719 2.60218 14.4572 2.8366 15.0006 3.33887C15.576 3.87077 15.8736 4.63436 15.9581 5.77734C16.0804 7.42675 16.0198 9.43474 14.63 11.6748C13.7792 13.0467 12.5166 14.1202 11.2911 14.8501C10.081 15.5708 8.83274 15.9995 7.98401 15.9995C7.13452 15.9994 5.89384 15.5702 4.69153 14.8491C3.5499 14.1644 2.37644 13.1779 1.53381 11.9282L1.36975 11.6748C-0.0188653 9.43495 -0.0811753 7.42594 0.0411367 5.77734C0.125672 4.63487 0.423468 3.87134 0.998656 3.33936C1.54212 2.83682 2.28051 2.60227 3.03186 2.3623C4.19126 1.99193 5.03386 1.48814 5.54211 0.996582C6.28035 0.282495 7.15151 0.000567495 7.99963 0.000488281ZM7.99963 1.00049C7.38493 1.00057 6.77123 1.19901 6.23743 1.71533H6.23694C5.59019 2.3408 4.59986 2.91122 3.33606 3.31494C2.53209 3.57171 2.02766 3.74985 1.67786 4.07324C1.35995 4.36722 1.11324 4.84367 1.0387 5.85156C0.92446 7.39137 0.986308 9.15837 2.21936 11.1475C2.96549 12.3502 4.08761 13.3211 5.20569 13.9917C6.33909 14.6714 7.39522 14.9994 7.98401 14.9995C8.57352 14.9995 9.63789 14.6711 10.7794 13.9912C11.9057 13.3204 13.0344 12.3496 13.7799 11.1475C15.0141 9.15837 15.0753 7.39266 14.9611 5.85156C14.8865 4.84323 14.6397 4.36706 14.3219 4.07324C13.9721 3.75002 13.4677 3.57174 12.6637 3.31494C11.4779 2.93641 10.5339 2.41142 9.88782 1.83203L9.76233 1.71533C9.22844 1.19898 8.61442 1.00049 7.99963 1.00049Z" fill="#006B4B"/>
<path d="M10.7524 6.06341C10.9934 5.81645 11.3891 5.81165 11.6361 6.05267C11.8832 6.29379 11.888 6.68946 11.6469 6.93646L7.75187 10.9262C7.40047 11.2862 6.82591 11.2995 6.45842 10.956L4.37297 9.00629C4.12089 8.77056 4.10749 8.37512 4.34318 8.12298C4.57888 7.87095 4.97435 7.85761 5.22648 8.0932L7.07902 9.82513L10.7524 6.06341Z" fill="#006B4B"/>
<path d="M10.7524 5.43841C10.9934 5.19145 11.3891 5.18665 11.6361 5.42767C11.8832 5.66879 11.888 6.06446 11.6469 6.31146L7.54679 10.5117C7.30934 10.7547 6.92103 10.7637 6.67277 10.5317L4.37297 8.38129C4.12089 8.14556 4.10749 7.75012 4.34318 7.49798C4.57888 7.24595 4.97435 7.23261 5.22648 7.4682L7.07902 9.20062L10.7524 5.43841Z" fill="white"/>
</svg>
