<svg width="20" height="21" viewBox="0 0 20 21" fill="none" xmlns="http://www.w3.org/2000/svg">
    <path
            d="M10 18.625C10.2513 18.625 10.5025 18.5679 10.7275 18.4539L10.9205 18.356C13.1295 17.2364 15.056 16.26 16.3439 14.334C17.5454 12.5373 18.1591 9.97154 18.1235 5.79868C18.1204 5.43176 17.936 5.08397 17.6178 4.84494C17.2997 4.60591 16.8789 4.49903 16.4639 4.55183C15.2725 4.70343 14.3392 4.66294 13.5192 4.40866C12.6918 4.1521 11.9186 3.65939 11.0923 2.81742C10.8185 2.53847 10.4201 2.37713 10 2.375V18.625Z"
            fill="#876ECB"/>
    <path
            d="M10 18.625C9.74874 18.625 9.49748 18.5679 9.2725 18.4539L9.07949 18.356C6.87045 17.2364 4.94397 16.26 3.65607 14.334C2.45459 12.5373 1.84089 9.97154 1.87646 5.79868C1.87959 5.43176 2.064 5.08397 2.38216 4.84494C2.70033 4.60591 3.12112 4.49903 3.53611 4.55183C4.7275 4.70343 5.66076 4.66294 6.4808 4.40866C7.30822 4.1521 8.08137 3.65939 8.90771 2.81742C9.18147 2.53847 9.57994 2.37713 10 2.375V18.625Z"
            fill="#C7B9EE"/>
    <path fill-rule="evenodd" clip-rule="evenodd"
          d="M10 2.375C10.3452 2.375 10.625 2.65482 10.625 3V18.625C10.625 18.9702 10.3452 19.25 10 19.25C9.65482 19.25 9.375 18.9702 9.375 18.625V3C9.375 2.65482 9.65482 2.375 10 2.375Z"
          fill="#5132A9"/>
    <path fill-rule="evenodd" clip-rule="evenodd"
          d="M9.02372 2.03265C8.7492 2.18081 8.49158 2.37318 8.30643 2.55969C7.57073 3.30083 7.04408 3.55894 6.30382 3.79551C5.59839 4.02095 4.75975 4.07644 3.61237 3.9318C3.04558 3.86035 2.46049 4.00421 2.0057 4.34634C1.54767 4.69091 1.25642 5.21431 1.25148 5.79367C1.21552 10.0152 1.83228 12.7311 3.13653 14.6815C4.51572 16.7439 6.57089 17.7854 8.72867 18.8789L8.79689 18.9135L8.98981 19.0113C8.98983 19.0113 8.98978 19.0113 8.98981 19.0113C9.6174 19.3295 10.3825 19.3296 11.0101 19.0113C11.0101 19.0113 11.0101 19.0114 11.0101 19.0113L11.2713 18.8789C13.4291 17.7854 15.4843 16.7439 16.8635 14.6815C18.1677 12.7311 18.7845 10.0151 18.7485 5.79337C18.7436 5.21354 18.4519 4.68981 17.9932 4.34527C17.5379 4.00316 16.9522 3.85968 16.385 3.93185C15.2456 4.07684 14.4096 4.03042 13.7043 3.81172C12.967 3.58311 12.4438 3.32413 11.6961 2.56222C11.5098 2.3724 11.2504 2.17986 10.9759 2.03236C10.7113 1.89018 10.3608 1.75089 10.0015 1.75C9.63948 1.74911 9.28757 1.89025 9.02372 2.03265ZM9.61741 3.13266C9.80402 3.03195 9.93886 2.99985 9.99846 3C10.0609 3.00015 10.198 3.03341 10.3843 3.13349C10.5607 3.22826 10.7155 3.3477 10.8039 3.43778C11.7089 4.35982 12.4165 4.72113 13.3341 5.00564C14.2689 5.29549 15.2994 5.33006 16.5428 5.17185C16.8056 5.13841 17.0615 5.20871 17.2424 5.34466C17.4201 5.47817 17.4972 5.65002 17.4986 5.80403C17.5337 9.92805 16.9231 12.3437 15.8244 13.9866C14.6423 15.7543 12.8734 16.6655 10.638 17.7985L10.4449 17.8964C10.1726 18.0345 9.82743 18.0345 9.55515 17.8964L9.36208 17.7986C7.12665 16.6656 5.35768 15.7543 4.17561 13.9866C3.07695 12.3437 2.46631 9.92816 2.50144 5.80431C2.50275 5.65042 2.57973 5.47872 2.75716 5.34525C2.93782 5.20933 3.19337 5.13887 3.45604 5.17199C4.71457 5.33064 5.74964 5.28489 6.68433 4.98619C7.58941 4.69695 8.29797 4.34254 9.19357 3.44031C9.28492 3.34828 9.44147 3.22762 9.61741 3.13266Z"
          fill="#5132A9"/>
</svg>
