<svg width="20" height="20" viewBox="0 0 20 20" fill="none" xmlns="http://www.w3.org/2000/svg">
    <path fill-rule="evenodd" clip-rule="evenodd" d="M10.8334 12.0833C10.8334 10.4725 12.1392 9.16663 13.75 9.16663C15.3609 9.16663 16.6667 10.4725 16.6667 12.0833V14.375C16.6667 15.9858 15.3609 17.2916 13.75 17.2916C12.1392 17.2916 10.8334 15.9858 10.8334 14.375V12.0833ZM13.75 10.4166C12.8296 10.4166 12.0834 11.1628 12.0834 12.0833V14.375C12.0834 15.2954 12.8296 16.0416 13.75 16.0416C14.6705 16.0416 15.4167 15.2954 15.4167 14.375V12.0833C15.4167 11.1628 14.6705 10.4166 13.75 10.4166Z" fill="#888888"/>
    <path d="M9.79163 14.7917C9.79163 14.3315 10.1647 13.9584 10.625 13.9584H16.875C17.3352 13.9584 17.7083 14.3315 17.7083 14.7917V16.875C17.7083 17.3353 17.3352 17.7084 16.875 17.7084H10.625C10.1647 17.7084 9.79163 17.3353 9.79163 16.875V14.7917Z" fill="#FFCC33"/>
    <path fill-rule="evenodd" clip-rule="evenodd" d="M9.16663 14.7917C9.16663 13.9863 9.81954 13.3334 10.625 13.3334H16.875C17.6804 13.3334 18.3333 13.9863 18.3333 14.7917V16.875C18.3333 17.6805 17.6804 18.3334 16.875 18.3334H10.625C9.81954 18.3334 9.16663 17.6805 9.16663 16.875V14.7917ZM10.625 14.5834C10.5099 14.5834 10.4166 14.6766 10.4166 14.7917V16.875C10.4166 16.9901 10.5099 17.0834 10.625 17.0834H16.875C16.99 17.0834 17.0833 16.9901 17.0833 16.875V14.7917C17.0833 14.6766 16.99 14.5834 16.875 14.5834H10.625Z" fill="#C18010"/>
    <path d="M8.45921 17.625C8.37784 17.39 8.33364 17.1376 8.33364 16.8749V14.7916C8.33364 13.7426 9.03843 12.8583 10.0003 12.5862V12.0833C10.0003 10.0122 11.6792 8.33328 13.7503 8.33328C15.816 8.33328 17.4917 10.0036 17.5003 12.0673C17.6813 11.409 17.778 10.7157 17.778 9.99992C17.778 5.70439 14.2958 2.22217 10.0003 2.22217C5.70475 2.22217 2.22253 5.70439 2.22253 9.99992C2.22253 13.7678 4.90186 16.91 8.45921 17.625Z" fill="#8FABF9"/>
    <path d="M8.34272 17.0804C7.24581 15.7234 6.5003 13.0617 6.5003 10C6.5003 6.34418 7.56329 3.25844 9.01826 2.28369C5.18633 2.76647 2.22253 6.03714 2.22253 10C2.22253 13.768 4.90187 16.9101 8.45922 17.6251C8.39929 17.452 8.35951 17.2695 8.34272 17.0804Z" fill="#ADC2FC"/>
    <path d="M13.4159 8.34804C13.5259 8.33832 13.6374 8.33336 13.7499 8.33336C15.6709 8.33336 17.2544 9.77768 17.474 11.6396C17.5841 11.111 17.6421 10.5625 17.6421 10C17.6421 6.03714 14.7638 2.76647 11.0425 2.28369C12.2366 3.10746 13.1589 5.43893 13.4159 8.34804Z" fill="#7295F6"/>
    <path fill-rule="evenodd" clip-rule="evenodd" d="M9.99996 1.59717C5.39759 1.59717 1.66663 5.32813 1.66663 9.9305C1.66663 13.8696 4.39971 17.1704 8.07301 18.0399C8.3213 18.0987 8.51627 17.8095 8.43939 17.5662C8.37047 17.3481 8.33329 17.1159 8.33329 16.8749V15.6238C8.24478 15.4696 8.15771 15.3012 8.07274 15.1181C7.51261 13.9108 7.13709 12.2361 7.08862 10.3472H10.4252C10.6818 9.85665 11.0439 9.42997 11.4812 9.09717H7.10475C7.19381 7.37906 7.55415 5.86067 8.07274 4.74293C8.6946 3.40262 9.42841 2.85289 10.0253 2.84721C10.0352 2.84725 10.0451 2.8473 10.055 2.84738C10.6499 2.85962 11.3786 3.41079 11.9966 4.74293C12.4466 5.71286 12.7775 6.98448 12.9153 8.4265C13.1837 8.36549 13.4631 8.33328 13.75 8.33328C13.89 8.33328 14.0281 8.34095 14.1642 8.35589C14.0179 6.776 13.6545 5.34618 13.1305 4.21684C12.9927 3.91973 12.8387 3.63387 12.669 3.36724C15.0122 4.32108 16.7296 6.49327 17.0348 9.09717H16.0187C16.9189 9.78214 17.5 10.8648 17.5 12.0833V12.432C17.5 12.5232 17.5616 12.6027 17.6475 12.6334C17.7612 12.6741 17.8904 12.6208 17.9277 12.5059C18.191 11.6949 18.3333 10.8293 18.3333 9.9305C18.3333 5.35289 14.6424 1.63734 10.0742 1.59749C10.061 1.59728 10.0479 1.59717 10.0347 1.59717C10.0307 1.59717 10.0266 1.59718 10.0226 1.5972C10.0151 1.59718 10.0075 1.59717 9.99996 1.59717ZM7.42423 3.33003C5.03344 4.2637 3.27432 6.45883 2.96513 9.09717H5.85321C5.94322 7.22425 6.33404 5.52039 6.93884 4.21684C7.08313 3.90586 7.2451 3.60721 7.42423 3.33003ZM7.42423 16.531C4.90865 15.5486 3.0924 13.1696 2.92868 10.3472H5.83825C5.88678 12.3835 6.28948 14.2446 6.93884 15.6442C7.08313 15.9551 7.2451 16.2538 7.42423 16.531Z" fill="#1E42A4"/>
</svg>
