<svg width="24" height="24" viewBox="0 0 24 24" fill="none" xmlns="http://www.w3.org/2000/svg">
    <path d="M12 21.3337C12.2886 21.3337 12.5773 21.2681 12.8357 21.1371L13.0574 21.0247C15.595 19.7386 17.808 18.6169 19.2874 16.4046C20.6675 14.3407 21.3725 11.3933 21.3317 6.59984C21.3281 6.17835 21.1162 5.77884 20.7507 5.50426C20.3853 5.22968 19.9019 5.1069 19.4252 5.16756C18.0566 5.3417 16.9846 5.29519 16.0426 5.0031C15.0921 4.70838 14.204 4.1424 13.2547 3.17521C12.9403 2.85478 12.4825 2.66944 12 2.66699V21.3337Z" fill="#FFD65C"/>
    <path d="M12 21.3337C11.7114 21.3337 11.4227 21.2681 11.1643 21.1371L10.9426 21.0247C8.40503 19.7386 6.19205 18.6169 4.71261 16.4046C3.33245 14.3407 2.62748 11.3933 2.66835 6.59984C2.67194 6.17835 2.88377 5.77884 3.24926 5.50426C3.61473 5.22968 4.09811 5.1069 4.57481 5.16756C5.94339 5.3417 7.01544 5.29519 7.95744 5.0031C8.9079 4.70838 9.79603 4.1424 10.7453 3.17521C11.0597 2.85478 11.5175 2.66944 12 2.66699V21.3337Z" fill="#FFF0C2"/>
    <path d="M12 7.66667C12.3682 7.66667 12.6667 7.96514 12.6667 8.33333V11.3333H15.6667C16.0349 11.3333 16.3333 11.6318 16.3333 12C16.3333 12.3682 16.0349 12.6667 15.6667 12.6667H12.6667V15.6667C12.6667 16.0349 12.3682 16.3333 12 16.3333C11.6318 16.3333 11.3333 16.0349 11.3333 15.6667V12.6667H8.33334C7.96515 12.6667 7.66667 12.3682 7.66667 12C7.66667 11.6318 7.96515 11.3333 8.33334 11.3333H11.3333V8.33333C11.3333 7.96514 11.6318 7.66667 12 7.66667Z" fill="#92540C"/>
    <path fill-rule="evenodd" clip-rule="evenodd" d="M10.2111 2.71917C10.6783 2.24845 11.3329 1.99837 11.9969 2.00001C12.6609 2.00164 13.3142 2.25495 13.7788 2.72836C14.6552 3.6213 15.4326 4.10208 16.2286 4.34892C17.0245 4.59571 17.9702 4.64891 19.2642 4.48426C19.9193 4.40091 20.5962 4.5665 21.1231 4.96232C21.6539 5.36107 21.9926 5.96814 21.9983 6.64136C22.0393 11.4506 21.337 14.5519 19.8458 16.7818C18.27 19.1383 15.9223 20.328 13.4685 21.5715L13.3871 21.6128C12.4711 22.0771 11.5479 22.0867 10.613 21.6128L10.5315 21.5715C8.07772 20.328 5.73002 19.1383 4.15423 16.7818C2.66308 14.552 1.96073 11.4507 2.00169 6.64169C2.00742 5.96902 2.34559 5.36234 2.87568 4.96356C3.40188 4.56771 4.07812 4.40168 4.73275 4.4842C6.03557 4.64844 6.98428 4.58496 7.78033 4.33056C8.57404 4.07692 9.34385 3.5928 10.2111 2.71917ZM11.9932 3.5C11.6972 3.49927 11.4379 3.61241 11.2756 3.77592C10.2857 4.7732 9.31641 5.41441 8.23694 5.75938C7.16579 6.10169 5.98136 6.15347 4.54514 5.97242C4.25546 5.9359 3.97468 6.01386 3.77743 6.16225C3.58407 6.30771 3.50302 6.49236 3.50164 6.65447C3.46167 11.3463 4.15667 14.0871 5.40113 15.948C6.74036 17.9507 8.74452 18.9841 11.2911 20.2748C11.7947 20.5301 12.214 20.5257 12.7089 20.2748C15.2554 18.9841 17.2596 17.9507 18.5989 15.948C19.8434 14.087 20.5384 11.3462 20.4984 6.65414C20.497 6.49191 20.4158 6.3071 20.2221 6.16159C20.0246 6.01316 19.7434 5.93538 19.4536 5.97226C18.0349 6.15278 16.8556 6.11379 15.7843 5.78162C14.6964 5.44428 13.7134 4.80321 12.7083 3.77904C12.5474 3.61513 12.2892 3.50073 11.9932 3.5Z" fill="#92540C"/>
</svg>
