<svg width="32" height="32" viewBox="0 0 32 32" fill="none" xmlns="http://www.w3.org/2000/svg">
    <path fill-rule="evenodd" clip-rule="evenodd" d="M1 16C1 7.71573 7.71573 1 16 1C24.2843 1 31 7.71573 31 16C31 16.0648 30.9996 16.1295 30.9988 16.1941C30.9996 16.2126 31 16.2313 31 16.25C31 16.284 30.9986 16.3177 30.996 16.3511C30.8094 24.4732 24.1669 31 16 31C7.83308 31 1.19057 24.4732 1.00403 16.3511C1.00136 16.3177 1 16.284 1 16.25C1 16.2313 1.00041 16.2126 1.00123 16.1941C1.00041 16.1295 1 16.0648 1 16ZM3.58907 17.5C4.12835 22.0093 7.06824 25.781 11.0941 27.5006C10.8572 27.0971 10.6399 26.674 10.4426 26.24C9.37903 23.9001 8.69388 20.8489 8.53532 17.5H3.58907ZM8.51564 15H3.53942C3.91376 10.2707 6.92031 6.28219 11.0941 4.49944C10.8572 4.90292 10.6399 5.326 10.4426 5.76003C9.32633 8.21588 8.62691 11.4552 8.51564 15ZM11.0383 17.5C11.1951 20.5456 11.8216 23.2322 12.7185 25.2055C13.8114 27.6098 15.0657 28.5 16 28.5C16.9343 28.5 18.1886 27.6098 19.2815 25.2055C20.1784 23.2322 20.8049 20.5456 20.9617 17.5H11.0383ZM20.983 15H11.017C11.1277 11.7487 11.7728 8.87511 12.7185 6.79454C13.8114 4.39021 15.0657 3.5 16 3.5C16.9343 3.5 18.1886 4.39021 19.2815 6.79454C20.2272 8.87511 20.8723 11.7487 20.983 15ZM23.4647 17.5C23.3061 20.8489 22.621 23.9001 21.5574 26.24C21.3601 26.674 21.1428 27.0971 20.9059 27.5006C24.9318 25.781 27.8717 22.0093 28.4109 17.5H23.4647ZM28.4606 15H23.4844C23.3731 11.4552 22.6737 8.21588 21.5574 5.76003C21.3601 5.326 21.1428 4.90291 20.9059 4.49944C25.0797 6.28219 28.0862 10.2707 28.4606 15Z" fill="white" fill-opacity="0.84"/>
</svg>
