<svg width="1280" height="200" viewBox="0 0 1280 200" fill="none" xmlns="http://www.w3.org/2000/svg">
<g clip-path="url(#clip0_3427_33639)">
<path d="M474.308 202.023C472.628 193.645 484.008 186.17 497.177 189.55C516.581 175.921 540.54 181.789 538.294 202.023H474.308Z" fill="#CFEBDA"/>
<path d="M522.707 182.817C522.789 182.812 522.868 182.778 522.926 182.719C522.984 182.66 523.016 182.581 523.016 182.499C523.016 182.417 522.984 182.338 522.926 182.279C522.868 182.22 522.789 182.186 522.707 182.181C522.707 182.181 522.707 182.181 522.707 182.181C522.171 182.15 521.645 182.13 521.113 182.119C516.257 182.021 511.35 182.766 506.726 184.367C502.267 185.939 497.94 188.219 494.601 191.655C494.228 192.055 493.882 192.466 493.574 192.914C493.533 192.973 493.515 193.046 493.524 193.117C493.534 193.189 493.571 193.254 493.627 193.298C493.683 193.342 493.755 193.362 493.827 193.354C493.899 193.346 493.964 193.31 494.012 193.257C494.012 193.257 494.012 193.257 494.012 193.257C494.35 192.881 494.723 192.535 495.12 192.198C498.669 189.306 502.93 187.363 507.237 185.844C511.706 184.299 516.378 183.332 521.139 182.929C521.661 182.885 522.178 182.848 522.707 182.817Z" fill="#82B8B9"/>
<g filter="url(#filter0_nn_3427_33639)">
<path d="M582.969 179.434C498.055 153.246 420.469 185.934 426.469 235.934C574.969 243.434 889.069 258.434 957.469 258.434C1010.97 219.434 980.738 197.441 946.969 200.934C901.969 205.589 884.469 186.934 872.969 173.934C859.743 158.983 847.978 137.892 821.469 132.434C770.469 121.934 741.771 147.73 707.469 165.434C660.969 189.434 636.469 195.934 582.969 179.434Z" fill="#C9E3FF"/>
</g>
<path d="M743.716 189.542C724.966 193.142 727.915 196.906 685.949 205.227L763.476 210.792C764.682 203.677 766.754 185.119 743.716 189.542Z" fill="#4D9DFF"/>
<g filter="url(#filter1_nn_3427_33639)">
<path d="M448.236 186.68C445.525 183.427 438.476 178.469 433.441 176.997L431.582 189.623C433.622 189.469 439.808 188.663 448.236 186.68Z" fill="#82B8B9"/>
</g>
<g filter="url(#filter2_nn_3427_33639)">
<path d="M908.9 192.336C901.75 190.955 902.075 181.517 906.664 179.205C909.703 177.673 914.373 177.97 916.067 183.008C917.761 188.046 913.99 193.32 908.9 192.336Z" fill="#C9E3FF"/>
</g>
<path d="M434.143 188C465.143 181.5 495.643 185.5 500.143 206.5H339.643C342.809 200 355.243 188.7 373.643 181.5C396.643 172.5 452.143 170 434.143 188Z" fill="#CFEBDA"/>
<g filter="url(#filter3_nn_3427_33639)">
<path d="M427.136 179.078C427.636 180.578 425.643 182.5 419.143 186C416.643 183 413.736 176.478 418.136 176.078C423.636 175.578 426.636 177.578 427.136 179.078Z" fill="#82B8B9"/>
</g>
<path d="M384.189 160.486C383.689 151.486 392.689 154.986 396.689 161.986L400.189 181.486C398.022 181.986 392.289 182.986 386.689 182.986C379.689 178.486 373.189 173.986 375.689 169.486C377.585 166.072 383.544 170.65 384.689 169.486C386.392 167.754 384.488 165.869 384.189 160.486Z" fill="#14735D"/>
<path d="M383.373 160.532C383.917 160.501 384.46 160.471 385.004 160.441C384.848 159.028 384.906 157.555 385.645 156.562C386.438 155.44 388.183 155.484 389.617 156.088C392.405 157.267 394.502 159.821 395.847 162.467L395.735 162.157C395.917 163.58 396.118 164.999 396.371 166.409C397.285 171.499 398.549 176.526 399.574 181.597L400.048 180.878C399.128 181.11 398.181 181.297 397.231 181.456C393.743 182.029 390.209 182.385 386.689 182.385L387.014 182.48C384.379 180.77 381.731 179.053 379.4 177.037C377.167 175.111 374.759 172.282 376.278 169.814C376.844 168.665 378.385 168.761 379.858 169.197C380.601 169.408 381.345 169.689 382.129 169.959C382.524 170.092 382.924 170.227 383.378 170.326C383.817 170.371 384.392 170.672 385.215 170.004C385.965 169.348 386.261 168.062 386.109 167.201C386.001 166.31 385.782 165.545 385.616 164.778C385.285 163.334 385.069 161.904 385.004 160.441C384.46 160.471 383.917 160.501 383.373 160.532C383.47 162.091 383.735 163.643 384.103 165.131C384.459 166.706 385.057 168.216 384.162 168.968C384.236 168.905 384.232 168.946 384.115 168.946C384.005 168.951 383.843 168.931 383.675 168.898C383.337 168.829 382.963 168.714 382.587 168.591C381.832 168.344 381.055 168.061 380.233 167.839C379.413 167.624 378.54 167.433 377.572 167.533C376.607 167.599 375.543 168.26 375.099 169.159C374.147 170.731 374.413 172.878 375.307 174.304C376.176 175.79 377.359 176.931 378.576 177.989C381.028 180.075 383.711 181.784 386.363 183.492C386.43 183.535 386.61 183.588 386.689 183.588C390.299 183.572 393.878 183.204 397.425 182.621C398.393 182.459 399.355 182.295 400.329 182.095C400.655 182.012 400.87 181.705 400.803 181.376C400.001 176.266 399.438 171.113 398.525 166.023C398.272 164.613 397.967 163.212 397.643 161.815C397.627 161.747 397.568 161.564 397.53 161.505C395.685 158.673 393.133 156.391 390.026 155.067C388.461 154.409 386.097 154.092 384.681 155.768C383.505 157.213 383.393 158.933 383.373 160.532ZM385.004 160.441L383.373 160.532L385.004 160.441V160.441Z" fill="#11604D"/>
<path d="M399.942 149.706C390.947 153.901 389.462 168.182 394.143 184.594C398.447 185.301 410.532 192.094 419.538 184.926C428.112 167.613 417.807 163.636 410.532 170.921C412.381 162.61 408.936 145.51 399.942 149.706Z" fill="#14735D"/>
<path d="M393.357 184.818C393.881 184.668 394.405 184.519 394.929 184.37C394.296 182.456 393.752 180.512 393.314 178.545C392.826 176.354 392.468 174.125 392.276 171.891C391.785 165.801 392.704 159.332 395.94 154.535C397.08 152.876 398.573 151.507 400.368 150.619C402.8 149.226 405.535 150.307 407.109 152.791C408.72 155.177 409.598 158.145 410.055 161.092C410.525 164.311 410.616 167.656 409.95 170.792C409.808 171.427 410.493 171.803 410.953 171.342C412.588 169.711 414.652 168.394 416.863 168.108C419.087 167.754 421.207 169.039 421.799 171.21C422.961 175.597 420.978 180.411 418.937 184.629L419.12 184.402C413.888 188.697 406.47 187.777 400.204 185.638C398.267 185.035 396.46 184.244 394.275 183.788C394.187 184.325 394.099 184.862 394.011 185.4C395.81 185.742 397.785 186.533 399.734 187.119C406.118 189.219 414.227 190.229 419.955 185.451C420.005 185.411 420.11 185.281 420.139 185.224C422.172 180.841 424.325 175.993 422.985 170.83C422.328 168.203 419.318 166.402 416.712 166.905C414.099 167.262 411.876 168.741 410.11 170.5L411.113 171.051C411.818 167.678 411.707 164.259 411.223 160.916C410.739 157.855 410.01 154.77 408.362 151.984C407.52 150.607 406.375 149.262 404.7 148.557C403.019 147.831 401.061 148.087 399.516 148.792C397.341 149.737 395.463 151.356 394.139 153.293C390.379 159.011 390.713 165.819 391.18 171.984C391.375 174.265 391.691 176.538 392.09 178.79C392.448 180.81 392.875 182.819 393.357 184.818ZM394.929 184.37L393.357 184.818C393.444 185.079 393.739 185.357 394.011 185.4L394.275 183.788L394.929 184.37Z" fill="#11604D"/>
<path d="M404.423 163.153C404.461 163.079 404.468 162.993 404.444 162.912C404.419 162.832 404.365 162.765 404.292 162.726C404.22 162.686 404.134 162.677 404.053 162.699C403.973 162.722 403.904 162.775 403.863 162.847C403.863 162.847 403.863 162.847 403.863 162.847C403.66 163.202 403.474 163.574 403.303 163.955C400.704 170.79 399.976 178.742 403.671 185.633C403.908 186.002 404.171 186.358 404.461 186.692C404.601 186.854 404.798 186.952 405.011 186.963C405.224 186.974 405.436 186.898 405.598 186.752C405.759 186.606 405.858 186.404 405.869 186.191C405.88 185.978 405.803 185.771 405.657 185.616C405.657 185.616 405.657 185.616 405.657 185.616C405.412 185.355 405.182 185.069 404.968 184.765C401.452 178.923 401.651 170.832 403.934 164.224C404.083 163.854 404.246 163.494 404.423 163.153Z" fill="#82B8B9"/>
<path d="M414.498 177.493C414.577 177.497 414.654 177.468 414.714 177.415C414.773 177.362 414.809 177.289 414.815 177.211C414.821 177.133 414.795 177.055 414.744 176.994C414.693 176.933 414.62 176.894 414.542 176.886C414.542 176.886 414.542 176.886 414.542 176.886C414.32 176.863 414.105 176.851 413.881 176.847C409.762 176.795 406.484 179.868 404.214 182.92C404.085 183.092 403.955 183.27 403.834 183.437C403.727 183.583 403.685 183.764 403.718 183.942C403.752 184.119 403.858 184.279 404.012 184.384C404.166 184.489 404.353 184.53 404.531 184.497C404.709 184.463 404.862 184.358 404.959 184.206C405.07 184.032 405.185 183.854 405.298 183.681C407.295 180.637 410.148 177.666 413.889 177.494C414.094 177.485 414.292 177.485 414.498 177.493Z" fill="#82B8B9"/>
<path d="M411.194 171.114C411.331 170.995 411.411 170.83 411.411 170.649C411.411 170.469 411.331 170.287 411.194 170.15C411.057 170.013 410.875 169.932 410.694 169.933C410.514 169.933 410.348 170.013 410.23 170.15C410.23 170.15 410.23 170.15 410.23 170.15C410.173 170.216 410.116 170.282 410.06 170.348C409.051 171.546 408.129 172.785 407.345 174.147C407.301 174.225 407.259 174.303 407.218 174.384C407.184 174.453 407.18 174.536 407.202 174.612C407.225 174.688 407.274 174.752 407.34 174.791C407.406 174.83 407.485 174.841 407.563 174.824C407.641 174.807 407.71 174.763 407.754 174.7C407.754 174.7 407.754 174.7 407.754 174.7C407.799 174.636 407.846 174.572 407.897 174.506C408.815 173.343 409.893 172.262 411.007 171.277C411.069 171.222 411.131 171.168 411.194 171.114Z" fill="#11604D"/>
</g>
<defs>
<filter id="filter0_nn_3427_33639" x="426.143" y="130" width="560.474" height="128.434" filterUnits="userSpaceOnUse" color-interpolation-filters="sRGB">
<feFlood flood-opacity="0" result="BackgroundImageFix"/>
<feBlend mode="normal" in="SourceGraphic" in2="BackgroundImageFix" result="shape"/>
<feTurbulence type="fractalNoise" baseFrequency="0.4284854531288147 0.4284854531288147" stitchTiles="stitch" numOctaves="3" result="noise" seed="2151" />
<feComponentTransfer in="noise" result="coloredNoise1">
<feFuncR type="linear" slope="2" intercept="-0.5" />
<feFuncG type="linear" slope="2" intercept="-0.5" />
<feFuncB type="linear" slope="2" intercept="-0.5" />
<feFuncA type="discrete" tableValues="1 1 1 1 1 1 1 1 1 1 1 1 1 1 1 1 1 1 1 1 1 1 1 1 1 1 1 1 1 1 1 1 1 1 1 1 1 1 1 1 1 1 1 1 1 1 1 1 1 1 1 0 0 0 0 0 0 0 0 0 0 0 0 0 0 0 0 0 0 0 0 0 0 0 0 0 0 0 0 0 0 0 0 0 0 0 0 0 0 0 0 0 0 0 0 0 0 0 0 0 "/>
</feComponentTransfer>
<feComposite operator="in" in2="shape" in="coloredNoise1" result="noise1Clipped" />
<feComponentTransfer in="noise1Clipped" result="color1">
<feFuncA type="table" tableValues="0 0.1" />
</feComponentTransfer>
<feMerge result="effect1_noise_3427_33639">
<feMergeNode in="shape" />
<feMergeNode in="color1" />
</feMerge>
<feTurbulence type="fractalNoise" baseFrequency="0.22073492407798767 0.22073492407798767" stitchTiles="stitch" numOctaves="3" result="noise" seed="3494" />
<feColorMatrix in="noise" type="luminanceToAlpha" result="alphaNoise" />
<feComponentTransfer in="alphaNoise" result="coloredNoise1">
<feFuncA type="discrete" tableValues="0 0 0 0 0 0 0 0 0 0 0 0 0 0 0 0 0 1 1 1 1 1 1 1 1 1 1 1 1 1 1 1 0 0 0 0 0 0 0 0 0 0 0 0 0 0 0 0 0 0 0 0 0 0 0 0 0 0 0 0 0 0 0 0 0 0 0 0 0 0 0 0 0 0 0 0 0 0 0 0 0 0 0 0 0 0 0 0 0 0 0 0 0 0 0 0 0 0 0 0 "/>
</feComponentTransfer>
<feComposite operator="in" in2="effect1_noise_3427_33639" in="coloredNoise1" result="noise1Clipped" />
<feFlood flood-color="rgba(255, 255, 255, 0.18)" result="color1Flood" />
<feComposite operator="in" in2="noise1Clipped" in="color1Flood" result="color1" />
<feMerge result="effect2_noise_3427_33639">
<feMergeNode in="effect1_noise_3427_33639" />
<feMergeNode in="color1" />
</feMerge>
</filter>
<filter id="filter1_nn_3427_33639" x="431.582" y="176.997" width="16.6543" height="12.6262" filterUnits="userSpaceOnUse" color-interpolation-filters="sRGB">
<feFlood flood-opacity="0" result="BackgroundImageFix"/>
<feBlend mode="normal" in="SourceGraphic" in2="BackgroundImageFix" result="shape"/>
<feTurbulence type="fractalNoise" baseFrequency="0.4284854531288147 0.4284854531288147" stitchTiles="stitch" numOctaves="3" result="noise" seed="2151" />
<feComponentTransfer in="noise" result="coloredNoise1">
<feFuncR type="linear" slope="2" intercept="-0.5" />
<feFuncG type="linear" slope="2" intercept="-0.5" />
<feFuncB type="linear" slope="2" intercept="-0.5" />
<feFuncA type="discrete" tableValues="1 1 1 1 1 1 1 1 1 1 1 1 1 1 1 1 1 1 1 1 1 1 1 1 1 1 1 1 1 1 1 1 1 1 1 1 1 1 1 1 1 1 1 1 1 1 1 1 1 1 1 0 0 0 0 0 0 0 0 0 0 0 0 0 0 0 0 0 0 0 0 0 0 0 0 0 0 0 0 0 0 0 0 0 0 0 0 0 0 0 0 0 0 0 0 0 0 0 0 0 "/>
</feComponentTransfer>
<feComposite operator="in" in2="shape" in="coloredNoise1" result="noise1Clipped" />
<feComponentTransfer in="noise1Clipped" result="color1">
<feFuncA type="table" tableValues="0 0.1" />
</feComponentTransfer>
<feMerge result="effect1_noise_3427_33639">
<feMergeNode in="shape" />
<feMergeNode in="color1" />
</feMerge>
<feTurbulence type="fractalNoise" baseFrequency="0.22073492407798767 0.22073492407798767" stitchTiles="stitch" numOctaves="3" result="noise" seed="3494" />
<feColorMatrix in="noise" type="luminanceToAlpha" result="alphaNoise" />
<feComponentTransfer in="alphaNoise" result="coloredNoise1">
<feFuncA type="discrete" tableValues="0 0 0 0 0 0 0 0 0 0 0 0 0 0 0 0 0 1 1 1 1 1 1 1 1 1 1 1 1 1 1 1 0 0 0 0 0 0 0 0 0 0 0 0 0 0 0 0 0 0 0 0 0 0 0 0 0 0 0 0 0 0 0 0 0 0 0 0 0 0 0 0 0 0 0 0 0 0 0 0 0 0 0 0 0 0 0 0 0 0 0 0 0 0 0 0 0 0 0 0 "/>
</feComponentTransfer>
<feComposite operator="in" in2="effect1_noise_3427_33639" in="coloredNoise1" result="noise1Clipped" />
<feFlood flood-color="rgba(255, 255, 255, 0.18)" result="color1Flood" />
<feComposite operator="in" in2="noise1Clipped" in="color1Flood" result="color1" />
<feMerge result="effect2_noise_3427_33639">
<feMergeNode in="effect1_noise_3427_33639" />
<feMergeNode in="color1" />
</feMerge>
</filter>
<filter id="filter2_nn_3427_33639" x="903.351" y="178.39" width="13.1274" height="14.0653" filterUnits="userSpaceOnUse" color-interpolation-filters="sRGB">
<feFlood flood-opacity="0" result="BackgroundImageFix"/>
<feBlend mode="normal" in="SourceGraphic" in2="BackgroundImageFix" result="shape"/>
<feTurbulence type="fractalNoise" baseFrequency="0.57101225852966309 0.57101225852966309" stitchTiles="stitch" numOctaves="3" result="noise" seed="2151" />
<feComponentTransfer in="noise" result="coloredNoise1">
<feFuncR type="linear" slope="2" intercept="-0.5" />
<feFuncG type="linear" slope="2" intercept="-0.5" />
<feFuncB type="linear" slope="2" intercept="-0.5" />
<feFuncA type="discrete" tableValues="1 1 1 1 1 1 1 1 1 1 1 1 1 1 1 1 1 1 1 1 1 1 1 1 1 1 1 1 1 1 1 1 1 1 1 1 1 1 1 1 1 1 1 1 1 1 1 1 1 1 1 0 0 0 0 0 0 0 0 0 0 0 0 0 0 0 0 0 0 0 0 0 0 0 0 0 0 0 0 0 0 0 0 0 0 0 0 0 0 0 0 0 0 0 0 0 0 0 0 0 "/>
</feComponentTransfer>
<feComposite operator="in" in2="shape" in="coloredNoise1" result="noise1Clipped" />
<feComponentTransfer in="noise1Clipped" result="color1">
<feFuncA type="table" tableValues="0 0.1" />
</feComponentTransfer>
<feMerge result="effect1_noise_3427_33639">
<feMergeNode in="shape" />
<feMergeNode in="color1" />
</feMerge>
<feTurbulence type="fractalNoise" baseFrequency="0.29415783286094666 0.29415783286094666" stitchTiles="stitch" numOctaves="3" result="noise" seed="3494" />
<feColorMatrix in="noise" type="luminanceToAlpha" result="alphaNoise" />
<feComponentTransfer in="alphaNoise" result="coloredNoise1">
<feFuncA type="discrete" tableValues="0 0 0 0 0 0 0 0 0 0 0 0 0 0 0 0 0 1 1 1 1 1 1 1 1 1 1 1 1 1 1 1 0 0 0 0 0 0 0 0 0 0 0 0 0 0 0 0 0 0 0 0 0 0 0 0 0 0 0 0 0 0 0 0 0 0 0 0 0 0 0 0 0 0 0 0 0 0 0 0 0 0 0 0 0 0 0 0 0 0 0 0 0 0 0 0 0 0 0 0 "/>
</feComponentTransfer>
<feComposite operator="in" in2="effect1_noise_3427_33639" in="coloredNoise1" result="noise1Clipped" />
<feFlood flood-color="rgba(255, 255, 255, 0.18)" result="color1Flood" />
<feComposite operator="in" in2="noise1Clipped" in="color1Flood" result="color1" />
<feMerge result="effect2_noise_3427_33639">
<feMergeNode in="effect1_noise_3427_33639" />
<feMergeNode in="color1" />
</feMerge>
</filter>
<filter id="filter3_nn_3427_33639" x="415.861" y="176" width="11.3477" height="10" filterUnits="userSpaceOnUse" color-interpolation-filters="sRGB">
<feFlood flood-opacity="0" result="BackgroundImageFix"/>
<feBlend mode="normal" in="SourceGraphic" in2="BackgroundImageFix" result="shape"/>
<feTurbulence type="fractalNoise" baseFrequency="0.4284854531288147 0.4284854531288147" stitchTiles="stitch" numOctaves="3" result="noise" seed="2151" />
<feComponentTransfer in="noise" result="coloredNoise1">
<feFuncR type="linear" slope="2" intercept="-0.5" />
<feFuncG type="linear" slope="2" intercept="-0.5" />
<feFuncB type="linear" slope="2" intercept="-0.5" />
<feFuncA type="discrete" tableValues="1 1 1 1 1 1 1 1 1 1 1 1 1 1 1 1 1 1 1 1 1 1 1 1 1 1 1 1 1 1 1 1 1 1 1 1 1 1 1 1 1 1 1 1 1 1 1 1 1 1 1 0 0 0 0 0 0 0 0 0 0 0 0 0 0 0 0 0 0 0 0 0 0 0 0 0 0 0 0 0 0 0 0 0 0 0 0 0 0 0 0 0 0 0 0 0 0 0 0 0 "/>
</feComponentTransfer>
<feComposite operator="in" in2="shape" in="coloredNoise1" result="noise1Clipped" />
<feComponentTransfer in="noise1Clipped" result="color1">
<feFuncA type="table" tableValues="0 0.1" />
</feComponentTransfer>
<feMerge result="effect1_noise_3427_33639">
<feMergeNode in="shape" />
<feMergeNode in="color1" />
</feMerge>
<feTurbulence type="fractalNoise" baseFrequency="0.22073492407798767 0.22073492407798767" stitchTiles="stitch" numOctaves="3" result="noise" seed="3494" />
<feColorMatrix in="noise" type="luminanceToAlpha" result="alphaNoise" />
<feComponentTransfer in="alphaNoise" result="coloredNoise1">
<feFuncA type="discrete" tableValues="0 0 0 0 0 0 0 0 0 0 0 0 0 0 0 0 0 1 1 1 1 1 1 1 1 1 1 1 1 1 1 1 0 0 0 0 0 0 0 0 0 0 0 0 0 0 0 0 0 0 0 0 0 0 0 0 0 0 0 0 0 0 0 0 0 0 0 0 0 0 0 0 0 0 0 0 0 0 0 0 0 0 0 0 0 0 0 0 0 0 0 0 0 0 0 0 0 0 0 0 "/>
</feComponentTransfer>
<feComposite operator="in" in2="effect1_noise_3427_33639" in="coloredNoise1" result="noise1Clipped" />
<feFlood flood-color="rgba(255, 255, 255, 0.18)" result="color1Flood" />
<feComposite operator="in" in2="noise1Clipped" in="color1Flood" result="color1" />
<feMerge result="effect2_noise_3427_33639">
<feMergeNode in="effect1_noise_3427_33639" />
<feMergeNode in="color1" />
</feMerge>
</filter>
<clipPath id="clip0_3427_33639">
<rect width="1280" height="200" fill="white"/>
</clipPath>
</defs>
</svg>
