<svg width="1280" height="200" viewBox="0 0 1280 200" fill="none" xmlns="http://www.w3.org/2000/svg">
<g clip-path="url(#clip0_3427_33744)">
<g filter="url(#filter0_nn_3427_33744)">
<path d="M924.691 180.319C980.495 169.039 1035.69 194.903 1035.69 231.078C887.191 238.578 523.689 261.434 455.289 261.434C401.789 222.434 432.021 200.441 465.789 203.934C554.325 213.093 584.47 93.4468 689.787 147.804C723.452 165.18 746.563 213.317 815.076 210.742C847.289 210.742 879.517 189.45 924.691 180.319Z" fill="#C9E3FF"/>
</g>
<g filter="url(#filter1_nn_3427_33744)">
<path d="M627.374 202.748C627.191 198.185 629.016 186.322 635.586 176.285L670.627 202.748H627.374Z" fill="#82B8B9"/>
</g>
<path d="M808.716 182.124C786.519 179.098 674.795 154.669 640.783 171.028C615.783 183.053 678.538 206.17 687.516 211.577L948.996 205.875C948.138 204.112 934.422 196.375 924.574 191.451C901.103 179.716 882.678 178.213 866.545 184.769C849.893 191.537 833.879 185.556 808.716 182.124Z" fill="#CFEBDA"/>
<g filter="url(#filter2_nn_3427_33744)">
<path d="M707.06 177.805C705.964 176.455 706.048 171.772 711.49 172.869L717.439 179.07C715.582 178.747 710.908 178.041 707.06 177.805Z" fill="#82B8B9"/>
</g>
<path d="M747.721 149.149C741.03 141.218 723.556 152.743 731.208 162.383C727.769 160.827 720.069 157.111 722.676 167.2C713.314 161.774 709.829 172.742 713.834 178.082C726.041 181.422 738.896 174.915 749.047 180.264C749.727 174.28 753.574 156.086 747.721 149.149Z" fill="#14735D"/>
<path d="M730.568 162.891C730.995 162.552 731.422 162.213 731.848 161.875C730.478 160.312 729.724 158.294 730.012 156.242C730.312 153.957 731.732 151.861 733.534 150.315C737.33 146.953 744.002 145.899 746.933 149.814C747.717 150.803 748.277 152.005 748.699 153.278C751.083 161.59 749.705 170.939 748.497 179.887C748.484 179.994 748.472 180.097 748.46 180.197L749.322 179.741C737.717 174.171 725.311 180.852 714.005 177.458L714.352 177.694C712.483 175.148 712.352 171.275 714.025 168.631C715.702 165.768 719.559 166.062 722.309 167.833C722.939 168.201 723.565 167.724 723.385 167.017C722.729 164.532 722.375 160.992 724.887 161.192C726.809 161.217 728.875 162.213 730.872 163.127C731.096 162.631 731.321 162.134 731.545 161.638C729.504 160.76 727.434 159.673 724.851 159.639C724.053 159.654 723.079 159.894 722.407 160.598C721.732 161.299 721.512 162.185 721.431 162.962C721.298 164.555 721.609 165.973 721.967 167.383L723.043 166.567C721.461 165.668 719.68 164.956 717.725 165.03C715.768 165.069 713.866 166.259 712.874 167.888C710.896 171.157 711.091 175.403 713.316 178.471C713.378 178.552 713.565 178.68 713.663 178.707C725.597 182.078 738.04 175.485 748.772 180.786C749.18 181.001 749.582 180.788 749.634 180.33C749.645 180.234 749.657 180.134 749.669 180.031C750.83 171.116 753.395 161.966 750.776 152.589C750.293 151.134 749.581 149.696 748.51 148.484C743.955 143.535 736.797 146.022 732.817 149.48C730.876 151.156 729.248 153.385 728.778 156.052C728.333 158.447 729.114 160.971 730.568 162.891ZM731.848 161.875L730.568 162.891L731.545 161.638L730.872 163.127C731.705 163.51 732.411 162.6 731.848 161.875Z" fill="#11604D"/>
<path d="M753.635 179.072C754.501 179.136 756.928 179.226 759.7 179.072C760.286 176.816 761.645 172.425 761.404 170.392C761.404 163.221 756.743 161.339 755.219 169.316L753.635 179.072Z" fill="#14735D"/>
<path d="M759.746 179.888C759.715 179.344 759.685 178.8 759.655 178.256C759.023 178.375 758.385 178.463 757.746 178.521C757.033 178.585 756.316 178.611 755.601 178.599C754.956 178.587 754.304 178.508 753.686 178.386L754.314 179.182C754.686 177.895 755.141 176.622 755.354 175.309C755.669 173.37 755.709 171.386 755.883 169.424L755.879 169.442C755.956 168.782 756.077 168.149 756.276 167.54C756.778 165.785 758.245 163.815 759.36 165.168C760.475 166.414 760.753 168.506 760.738 170.392C760.738 170.408 760.741 170.455 760.743 170.47C760.821 172.485 760.071 174.811 759.458 176.993C759.277 177.613 759.09 178.232 758.91 178.867C759.437 179.003 759.964 179.14 760.491 179.277C760.638 178.66 760.8 178.031 760.957 177.401C761.481 175.121 762.212 172.94 762.065 170.313L762.069 170.392C761.997 168.326 761.821 166.117 760.227 164.312C759.809 163.888 759.19 163.507 758.467 163.519C757.742 163.529 757.151 163.91 756.735 164.321C755.904 165.169 755.493 166.174 755.154 167.171C754.934 167.841 754.74 168.502 754.558 169.19C754.558 169.194 754.556 169.205 754.555 169.209C754.1 171.125 753.509 173.019 753.194 174.958C752.981 176.271 753.01 177.623 752.955 178.962C752.938 179.385 753.161 179.778 753.584 179.758C754.266 179.727 754.921 179.687 755.582 179.699C756.312 179.711 757.04 179.734 757.771 179.769C758.426 179.8 759.084 179.84 759.746 179.888ZM759.655 178.256L759.746 179.888C760.067 179.828 760.416 179.595 760.491 179.277L758.91 178.867L759.655 178.256Z" fill="#11604D"/>
<path d="M755.58 166.711C753.998 159.998 746.493 156.623 745.816 165.009C745.196 170.16 745.633 176.163 746.319 179.512C751.629 181.451 754.364 182.264 756.34 180.49C756.614 178.134 756.845 172.081 755.58 166.711Z" fill="#14735D"/>
<path d="M745.001 164.943C745.544 164.987 746.087 165.031 746.63 165.075C746.618 164.197 746.705 163.336 746.979 162.544C747.278 161.671 747.85 160.927 748.646 160.693C751.078 160.166 752.943 163.002 753.902 165.164C754.163 165.74 754.385 166.336 754.56 166.951C755.35 169.788 755.942 172.796 755.964 175.822C755.969 177.359 755.917 178.918 755.748 180.421L755.942 180.046C753.549 182.055 749.707 179.929 746.542 178.902L746.956 179.381C746.266 175.606 746.128 171.663 746.359 167.81C746.419 166.904 746.505 166 746.627 165.107C746.086 165.042 745.545 164.977 745.004 164.912C744.906 165.851 744.843 166.792 744.807 167.731C744.681 171.726 744.9 175.695 745.682 179.642C745.721 179.825 745.92 180.06 746.096 180.122C747.763 180.71 749.423 181.318 751.189 181.747C752.872 182.162 755.183 182.42 756.738 180.933C756.817 180.863 756.92 180.663 756.932 180.559C757.103 178.97 757.15 177.393 757.145 175.816C757.121 172.728 757.198 169.597 756.599 166.471C756.45 165.711 756.215 164.966 755.894 164.259C754.591 161.542 751.769 158.895 748.323 159.64C747.105 160.004 746.288 161.047 745.824 162.07C745.395 163.009 745.167 163.968 745.001 164.943ZM746.63 165.075L745.001 164.943L745.004 164.912L746.627 165.107C746.628 165.1 746.629 165.081 746.63 165.075Z" fill="#11604D"/>
<path d="M738.391 160.24C738.429 160.171 738.439 160.089 738.418 160.012C738.396 159.935 738.347 159.869 738.278 159.829C738.21 159.789 738.129 159.778 738.051 159.798C737.974 159.817 737.907 159.866 737.865 159.933C737.865 159.933 737.865 159.933 737.865 159.933C737.708 160.19 737.563 160.448 737.424 160.714C735.033 165.587 735.295 171.425 737.746 176.398C737.918 176.68 738.09 176.95 738.387 177.235C738.519 177.359 738.693 177.425 738.873 177.416C739.054 177.407 739.226 177.324 739.35 177.187C739.474 177.051 739.54 176.871 739.531 176.691C739.522 176.51 739.439 176.343 739.303 176.225C739.169 176.112 739.012 175.912 738.87 175.697C736.513 171.425 735.912 165.658 738.005 161C738.125 160.741 738.252 160.49 738.391 160.24Z" fill="#82B8B9"/>
<path d="M715.109 179.238C715.189 179.24 715.269 179.217 715.334 179.167C715.398 179.118 715.441 179.047 715.452 178.968C715.464 178.889 715.445 178.809 715.398 178.742C715.351 178.676 715.281 178.63 715.204 178.608V178.608C714.963 178.541 714.713 178.473 714.472 178.407C712.239 177.798 710.003 177.258 707.756 176.792C705.58 176.327 703.363 176.003 701.211 175.558C700.973 175.504 700.735 175.446 700.526 175.37C700.461 175.345 700.388 175.34 700.321 175.361C700.253 175.382 700.197 175.427 700.163 175.487C700.13 175.548 700.121 175.619 700.139 175.688C700.157 175.756 700.2 175.815 700.256 175.857C700.256 175.857 700.256 175.857 700.256 175.857C700.49 176.023 700.719 176.144 700.955 176.264C703.052 177.261 705.233 177.85 707.437 178.322C709.711 178.794 712.018 179.091 714.345 179.207C714.597 179.219 714.857 179.23 715.109 179.238Z" fill="#82B8B9"/>
</g>
<defs>
<filter id="filter0_nn_3427_33744" x="426.142" y="133.583" width="609.55" height="127.851" filterUnits="userSpaceOnUse" color-interpolation-filters="sRGB">
<feFlood flood-opacity="0" result="BackgroundImageFix"/>
<feBlend mode="normal" in="SourceGraphic" in2="BackgroundImageFix" result="shape"/>
<feTurbulence type="fractalNoise" baseFrequency="0.4284854531288147 0.4284854531288147" stitchTiles="stitch" numOctaves="3" result="noise" seed="2151" />
<feComponentTransfer in="noise" result="coloredNoise1">
<feFuncR type="linear" slope="2" intercept="-0.5" />
<feFuncG type="linear" slope="2" intercept="-0.5" />
<feFuncB type="linear" slope="2" intercept="-0.5" />
<feFuncA type="discrete" tableValues="1 1 1 1 1 1 1 1 1 1 1 1 1 1 1 1 1 1 1 1 1 1 1 1 1 1 1 1 1 1 1 1 1 1 1 1 1 1 1 1 1 1 1 1 1 1 1 1 1 1 1 0 0 0 0 0 0 0 0 0 0 0 0 0 0 0 0 0 0 0 0 0 0 0 0 0 0 0 0 0 0 0 0 0 0 0 0 0 0 0 0 0 0 0 0 0 0 0 0 0 "/>
</feComponentTransfer>
<feComposite operator="in" in2="shape" in="coloredNoise1" result="noise1Clipped" />
<feComponentTransfer in="noise1Clipped" result="color1">
<feFuncA type="table" tableValues="0 0.1" />
</feComponentTransfer>
<feMerge result="effect1_noise_3427_33744">
<feMergeNode in="shape" />
<feMergeNode in="color1" />
</feMerge>
<feTurbulence type="fractalNoise" baseFrequency="0.22073492407798767 0.22073492407798767" stitchTiles="stitch" numOctaves="3" result="noise" seed="3494" />
<feColorMatrix in="noise" type="luminanceToAlpha" result="alphaNoise" />
<feComponentTransfer in="alphaNoise" result="coloredNoise1">
<feFuncA type="discrete" tableValues="0 0 0 0 0 0 0 0 0 0 0 0 0 0 0 0 0 1 1 1 1 1 1 1 1 1 1 1 1 1 1 1 0 0 0 0 0 0 0 0 0 0 0 0 0 0 0 0 0 0 0 0 0 0 0 0 0 0 0 0 0 0 0 0 0 0 0 0 0 0 0 0 0 0 0 0 0 0 0 0 0 0 0 0 0 0 0 0 0 0 0 0 0 0 0 0 0 0 0 0 "/>
</feComponentTransfer>
<feComposite operator="in" in2="effect1_noise_3427_33744" in="coloredNoise1" result="noise1Clipped" />
<feFlood flood-color="rgba(255, 255, 255, 0.18)" result="color1Flood" />
<feComposite operator="in" in2="noise1Clipped" in="color1Flood" result="color1" />
<feMerge result="effect2_noise_3427_33744">
<feMergeNode in="effect1_noise_3427_33744" />
<feMergeNode in="color1" />
</feMerge>
</filter>
<filter id="filter1_nn_3427_33744" x="627.361" y="176.285" width="43.2656" height="26.4634" filterUnits="userSpaceOnUse" color-interpolation-filters="sRGB">
<feFlood flood-opacity="0" result="BackgroundImageFix"/>
<feBlend mode="normal" in="SourceGraphic" in2="BackgroundImageFix" result="shape"/>
<feTurbulence type="fractalNoise" baseFrequency="0.4284854531288147 0.4284854531288147" stitchTiles="stitch" numOctaves="3" result="noise" seed="2151" />
<feComponentTransfer in="noise" result="coloredNoise1">
<feFuncR type="linear" slope="2" intercept="-0.5" />
<feFuncG type="linear" slope="2" intercept="-0.5" />
<feFuncB type="linear" slope="2" intercept="-0.5" />
<feFuncA type="discrete" tableValues="1 1 1 1 1 1 1 1 1 1 1 1 1 1 1 1 1 1 1 1 1 1 1 1 1 1 1 1 1 1 1 1 1 1 1 1 1 1 1 1 1 1 1 1 1 1 1 1 1 1 1 0 0 0 0 0 0 0 0 0 0 0 0 0 0 0 0 0 0 0 0 0 0 0 0 0 0 0 0 0 0 0 0 0 0 0 0 0 0 0 0 0 0 0 0 0 0 0 0 0 "/>
</feComponentTransfer>
<feComposite operator="in" in2="shape" in="coloredNoise1" result="noise1Clipped" />
<feComponentTransfer in="noise1Clipped" result="color1">
<feFuncA type="table" tableValues="0 0.1" />
</feComponentTransfer>
<feMerge result="effect1_noise_3427_33744">
<feMergeNode in="shape" />
<feMergeNode in="color1" />
</feMerge>
<feTurbulence type="fractalNoise" baseFrequency="0.22073492407798767 0.22073492407798767" stitchTiles="stitch" numOctaves="3" result="noise" seed="3494" />
<feColorMatrix in="noise" type="luminanceToAlpha" result="alphaNoise" />
<feComponentTransfer in="alphaNoise" result="coloredNoise1">
<feFuncA type="discrete" tableValues="0 0 0 0 0 0 0 0 0 0 0 0 0 0 0 0 0 1 1 1 1 1 1 1 1 1 1 1 1 1 1 1 0 0 0 0 0 0 0 0 0 0 0 0 0 0 0 0 0 0 0 0 0 0 0 0 0 0 0 0 0 0 0 0 0 0 0 0 0 0 0 0 0 0 0 0 0 0 0 0 0 0 0 0 0 0 0 0 0 0 0 0 0 0 0 0 0 0 0 0 "/>
</feComponentTransfer>
<feComposite operator="in" in2="effect1_noise_3427_33744" in="coloredNoise1" result="noise1Clipped" />
<feFlood flood-color="rgba(255, 255, 255, 0.18)" result="color1Flood" />
<feComposite operator="in" in2="noise1Clipped" in="color1Flood" result="color1" />
<feMerge result="effect2_noise_3427_33744">
<feMergeNode in="effect1_noise_3427_33744" />
<feMergeNode in="color1" />
</feMerge>
</filter>
<filter id="filter2_nn_3427_33744" x="706.505" y="172.704" width="10.9336" height="6.3667" filterUnits="userSpaceOnUse" color-interpolation-filters="sRGB">
<feFlood flood-opacity="0" result="BackgroundImageFix"/>
<feBlend mode="normal" in="SourceGraphic" in2="BackgroundImageFix" result="shape"/>
<feTurbulence type="fractalNoise" baseFrequency="0.4284854531288147 0.4284854531288147" stitchTiles="stitch" numOctaves="3" result="noise" seed="2151" />
<feComponentTransfer in="noise" result="coloredNoise1">
<feFuncR type="linear" slope="2" intercept="-0.5" />
<feFuncG type="linear" slope="2" intercept="-0.5" />
<feFuncB type="linear" slope="2" intercept="-0.5" />
<feFuncA type="discrete" tableValues="1 1 1 1 1 1 1 1 1 1 1 1 1 1 1 1 1 1 1 1 1 1 1 1 1 1 1 1 1 1 1 1 1 1 1 1 1 1 1 1 1 1 1 1 1 1 1 1 1 1 1 0 0 0 0 0 0 0 0 0 0 0 0 0 0 0 0 0 0 0 0 0 0 0 0 0 0 0 0 0 0 0 0 0 0 0 0 0 0 0 0 0 0 0 0 0 0 0 0 0 "/>
</feComponentTransfer>
<feComposite operator="in" in2="shape" in="coloredNoise1" result="noise1Clipped" />
<feComponentTransfer in="noise1Clipped" result="color1">
<feFuncA type="table" tableValues="0 0.1" />
</feComponentTransfer>
<feMerge result="effect1_noise_3427_33744">
<feMergeNode in="shape" />
<feMergeNode in="color1" />
</feMerge>
<feTurbulence type="fractalNoise" baseFrequency="0.22073492407798767 0.22073492407798767" stitchTiles="stitch" numOctaves="3" result="noise" seed="3494" />
<feColorMatrix in="noise" type="luminanceToAlpha" result="alphaNoise" />
<feComponentTransfer in="alphaNoise" result="coloredNoise1">
<feFuncA type="discrete" tableValues="0 0 0 0 0 0 0 0 0 0 0 0 0 0 0 0 0 1 1 1 1 1 1 1 1 1 1 1 1 1 1 1 0 0 0 0 0 0 0 0 0 0 0 0 0 0 0 0 0 0 0 0 0 0 0 0 0 0 0 0 0 0 0 0 0 0 0 0 0 0 0 0 0 0 0 0 0 0 0 0 0 0 0 0 0 0 0 0 0 0 0 0 0 0 0 0 0 0 0 0 "/>
</feComponentTransfer>
<feComposite operator="in" in2="effect1_noise_3427_33744" in="coloredNoise1" result="noise1Clipped" />
<feFlood flood-color="rgba(255, 255, 255, 0.18)" result="color1Flood" />
<feComposite operator="in" in2="noise1Clipped" in="color1Flood" result="color1" />
<feMerge result="effect2_noise_3427_33744">
<feMergeNode in="effect1_noise_3427_33744" />
<feMergeNode in="color1" />
</feMerge>
</filter>
<clipPath id="clip0_3427_33744">
<rect width="1280" height="200" fill="white"/>
</clipPath>
</defs>
</svg>
