<svg width="1280" height="200" viewBox="0 0 1280 200" fill="none" xmlns="http://www.w3.org/2000/svg">
<g clip-path="url(#clip0_3427_33618)">
<path d="M104.947 202.023C103.266 193.645 114.646 186.17 127.815 189.55C147.219 175.921 171.179 181.789 168.933 202.023H104.947Z" fill="#CFEBDA"/>
<g filter="url(#filter0_nn_3427_33618)">
<path d="M156.767 200.739C152.059 193.3 151.023 184.637 156.296 184.919C161.117 186.049 166.027 195.937 167.879 200.739H156.767Z" fill="#82B8B9"/>
</g>
<path d="M153.346 182.817C153.428 182.812 153.506 182.778 153.564 182.719C153.622 182.66 153.655 182.581 153.655 182.499C153.655 182.417 153.622 182.338 153.564 182.279C153.506 182.22 153.428 182.186 153.346 182.181C153.346 182.181 153.346 182.181 153.346 182.181C152.81 182.15 152.284 182.13 151.752 182.119C146.896 182.021 141.989 182.766 137.365 184.367C132.905 185.939 128.579 188.219 125.24 191.655C124.867 192.055 124.521 192.466 124.212 192.914C124.172 192.973 124.153 193.046 124.163 193.117C124.173 193.189 124.209 193.254 124.266 193.298C124.322 193.342 124.394 193.362 124.465 193.354C124.537 193.346 124.603 193.31 124.651 193.257C124.651 193.257 124.651 193.257 124.651 193.257C124.989 192.881 125.362 192.535 125.758 192.198C129.307 189.306 133.569 187.363 137.876 185.844C142.344 184.299 147.016 183.332 151.778 182.929C152.299 182.885 152.817 182.848 153.346 182.817Z" fill="#82B8B9"/>
<g filter="url(#filter1_nn_3427_33618)">
<path d="M194.168 172.506C203.956 196.498 211.622 202.183 232.195 217.386C448.257 221.589 651.865 217.386 717.129 217.386C635.416 196.525 600.421 134.84 539.325 165.82C498.184 186.682 444.369 175.113 397.859 131.026C356.772 92.0793 286.045 54.478 222.438 99.0042C198.342 115.872 183.857 147.232 194.168 172.506Z" fill="#C9E3FF"/>
</g>
<path d="M323.461 191.678C305.955 181.303 267.792 167.363 232.779 171.253L223.053 191.678C242.829 193.299 285.854 195.568 323.461 191.678Z" fill="#4D9DFF"/>
<path d="M480.464 205.139C480.596 205.262 480.675 205.433 480.681 205.614C480.688 205.794 480.622 205.97 480.499 206.103C480.376 206.235 480.205 206.313 480.025 206.32C479.844 206.326 479.668 206.261 479.536 206.138C479.536 206.138 479.536 206.138 479.536 206.138C477.858 204.576 476.201 203.059 474.545 201.574C461.718 190.187 444.338 175.117 427.36 186.049C421.796 188.703 416.305 191.943 409.93 192.936C403.402 194.209 397.004 190.018 393.635 184.771C393.586 184.701 393.536 184.631 393.486 184.562C387.707 176.007 375.443 178.142 366.984 182.373C364.961 183.34 362.993 184.439 361.087 185.637C361.039 185.667 360.981 185.677 360.925 185.665C360.869 185.652 360.821 185.619 360.79 185.571C360.76 185.524 360.749 185.466 360.761 185.41C360.772 185.354 360.805 185.305 360.853 185.274C360.853 185.274 360.853 185.274 360.853 185.274C362.742 184.023 364.694 182.861 366.711 181.823C374.998 177.339 388.025 174.42 394.531 183.806C394.585 183.881 394.638 183.956 394.692 184.032C398.017 189.099 403.685 192.786 409.749 191.642C415.728 190.72 421.201 187.541 426.78 184.862C444.389 173.501 462.776 189.254 475.452 200.562C477.116 202.052 478.78 203.575 480.464 205.139Z" fill="#77B6E8"/>
<g filter="url(#filter2_nn_3427_33618)">
<path d="M424.561 146.627C420.221 145.788 420.418 140.06 423.204 138.655C425.049 137.726 427.884 137.906 428.912 140.965C429.941 144.023 427.651 147.224 424.561 146.627Z" fill="#C9E3FF"/>
</g>
<path d="M219.871 167.861C222.474 162.897 241.425 156.084 246.112 167.861C250.314 178.42 239.045 193.601 228.339 204.464L166.026 201.239C161.709 196.927 153.353 183.803 152.525 171.361C151.698 158.919 159.364 147.919 168.349 159.893C166.319 152.406 176.51 135.793 191.742 137.335C207.442 138.925 217.832 147.94 219.871 167.861Z" fill="#14735D"/>
<path d="M245.353 168.163C245.859 167.962 246.365 167.76 246.871 167.559C245.066 162.631 239.431 160.354 234.703 160.727C229.354 161.092 223.996 162.714 220.036 166.659C219.792 166.946 219.561 167.265 219.383 167.605L220.419 167.805C219.832 153.954 210.663 138.644 195.586 136.782C194.342 136.548 193.108 136.376 191.851 136.253C178.719 135.001 166.441 147.01 167.677 160.075L168.906 159.475C167.123 157.212 165 154.905 161.888 154.232C158.634 153.522 155.791 156.04 154.445 158.531C152.25 162.485 151.675 167.019 151.934 171.4C152.975 182.699 158.149 193.203 165.593 201.672C165.671 201.75 165.884 201.844 165.994 201.85C186.764 202.944 207.534 204.051 228.302 205.171C228.457 205.179 228.734 205.071 228.843 204.961C235.489 198.143 241.857 190.766 245.745 181.836C247.56 177.476 248.739 172.321 246.871 167.559C246.365 167.76 245.859 167.962 245.353 168.163C247.014 172.275 246.039 177.046 244.309 181.241C240.634 189.834 234.381 197.206 227.835 203.968L228.376 203.758C207.602 202.727 186.829 201.684 166.057 200.628L166.458 200.806C159.29 192.705 154.09 182.187 153.116 171.322C152.858 167.129 153.443 162.751 155.469 159.12C156.746 156.794 159.116 154.849 161.649 155.45C164.158 156.002 166.163 158.116 167.792 160.311C168.274 160.951 169.233 160.484 169.021 159.711C168.117 148.259 180.104 136.98 191.632 138.418C192.831 138.543 194.004 138.711 195.181 138.932C209.174 140.636 218.524 154.041 219.322 167.917C219.384 168.512 220.081 168.647 220.359 168.117C220.487 167.87 220.67 167.612 220.874 167.371C224.354 163.864 229.743 162.18 234.742 161.975C239.256 161.75 243.941 163.883 245.353 168.163ZM246.871 167.559L245.353 168.163L246.871 167.559V167.559Z" fill="#11604D"/>
<path d="M193.351 148.023C193.38 147.945 193.378 147.858 193.345 147.781C193.311 147.704 193.249 147.644 193.172 147.613C193.095 147.582 193.009 147.582 192.931 147.615C192.854 147.647 192.791 147.708 192.759 147.784C192.759 147.784 192.759 147.784 192.759 147.784C192.451 148.514 192.164 149.268 191.905 150.022C187.678 163.696 188.432 179.245 195.834 192.035C196.279 192.731 196.757 193.41 197.267 194.056C197.446 194.284 197.708 194.43 197.996 194.46C198.285 194.489 198.576 194.401 198.805 194.215C199.034 194.028 199.18 193.761 199.21 193.472C199.239 193.184 199.15 192.898 198.963 192.676C198.963 192.676 198.963 192.676 198.963 192.676C198.483 192.106 198.025 191.5 197.593 190.871C190.26 179.189 188.836 163.744 192.586 150.243C192.815 149.496 193.072 148.748 193.351 148.023Z" fill="#82B8B9"/>
<path d="M268.648 186.88C240.716 182.224 207.208 184.166 182.025 201.942C235.384 202.956 348.469 201.942 381.988 201.942C370.68 175.105 359.692 169.038 333.617 172.696C308.464 176.225 296.581 191.535 268.648 186.88Z" fill="#CFEBDA"/>
<path d="M376.509 190.735C376.556 190.803 376.628 190.852 376.711 190.868C376.793 190.885 376.878 190.869 376.947 190.823C377.017 190.777 377.066 190.705 377.083 190.624C377.101 190.542 377.085 190.456 377.041 190.385C377.041 190.385 377.041 190.385 377.041 190.385C376.385 189.331 375.734 188.317 375.038 187.289C369.378 177.465 357.982 171.346 346.697 171.184C346.356 171.158 346.01 171.134 345.66 171.112C334.822 170.973 324.694 174.393 314.757 177.77C313.603 178.183 312.455 178.607 311.312 179.046C311.244 179.072 311.188 179.123 311.157 179.189C311.125 179.255 311.121 179.331 311.145 179.4C311.17 179.468 311.22 179.525 311.286 179.557C311.352 179.588 311.427 179.593 311.497 179.571C311.497 179.571 311.497 179.571 311.497 179.571C312.658 179.198 313.823 178.836 314.992 178.482C325.01 175.61 335.314 172.506 345.56 172.671C345.904 172.693 346.244 172.717 346.58 172.742C357.724 173.002 368.206 178.283 374.377 187.757C375.111 188.744 375.806 189.719 376.509 190.735Z" fill="#82B8B9"/>
<path d="M218.737 170.459C218.763 170.383 218.765 170.299 218.737 170.222C218.709 170.146 218.654 170.084 218.582 170.049C218.51 170.014 218.427 170.009 218.349 170.034C218.272 170.059 218.207 170.112 218.163 170.18C218.163 170.18 218.163 170.18 218.163 170.18C218.026 170.394 217.889 170.61 217.754 170.828C216.412 172.988 215.233 175.263 214.338 177.665C213.616 179.605 213.075 181.626 212.79 183.687C212.754 183.943 212.723 184.199 212.696 184.456C212.683 184.579 212.711 184.705 212.782 184.808C212.853 184.911 212.96 184.982 213.081 185.007C213.202 185.031 213.328 185.006 213.433 184.939C213.539 184.871 213.614 184.766 213.649 184.647C213.649 184.647 213.649 184.647 213.649 184.647C213.722 184.407 213.795 184.167 213.87 183.927C214.474 182.002 215.151 180.115 215.853 178.229C216.721 175.897 217.629 173.566 218.482 171.179C218.568 170.939 218.654 170.698 218.737 170.459Z" fill="#82B8B9"/>
<path d="M177.839 167.819C177.793 167.751 177.72 167.704 177.638 167.687C177.556 167.671 177.472 167.686 177.403 167.731C177.334 167.775 177.285 167.846 177.266 167.927C177.247 168.009 177.261 168.094 177.303 168.165C177.303 168.165 177.303 168.165 177.303 168.165C177.468 168.435 177.646 168.708 177.827 168.972C181.233 173.644 185.586 177.442 190.553 180.516C190.835 180.677 191.138 180.839 191.436 180.983C191.631 181.078 191.854 181.089 192.057 181.013C192.26 180.936 192.426 180.777 192.517 180.574C192.609 180.372 192.618 180.142 192.541 179.939C192.465 179.736 192.309 179.577 192.109 179.493C192.109 179.493 192.109 179.493 192.109 179.493C191.848 179.385 191.57 179.253 191.304 179.12C186.483 176.485 181.893 172.904 178.384 168.568C178.196 168.323 178.011 168.069 177.839 167.819Z" fill="#82B8B9"/>
<path d="M829.573 182.247C807.386 176.701 802.601 188.423 794.427 200.976C818.657 201.754 873.598 203.311 899.521 203.311C894.266 185.504 882.165 176.409 870.78 182.248C859.395 188.086 851.76 187.794 829.573 182.247Z" fill="#CFEBDA"/>
<g filter="url(#filter3_nn_3427_33618)">
<path d="M876.767 184.296C876.766 182.034 875.447 182.034 871.74 183.793L869.324 190.56L876.013 188.317C876.264 187.731 876.767 186.106 876.767 184.296Z" fill="#82B8B9"/>
</g>
<path d="M842.15 164.66C833.544 169.61 839.054 182.193 844.134 189.423C850.388 191.963 864.262 192.159 870.711 189.423C872.86 184.342 874.815 173.008 867.389 176.917C868.627 174.488 870.711 166.933 867.893 164.66C864.137 161.629 856.25 162.651 852.928 181.802C853.123 177.503 850.438 159.893 842.15 164.66Z" fill="#14735D"/>
<path d="M843.466 189.893C843.911 189.58 844.357 189.267 844.803 188.953C843.451 187.173 842.242 185.274 841.207 183.284C840.058 181.066 839.115 178.727 838.596 176.306C837.559 172.088 838.767 167.231 842.616 165.471C844.645 164.329 846.508 164.922 847.845 166.75C850.68 170.826 851.901 176.599 852.156 181.767C852.114 182.689 853.531 182.844 853.689 181.934C854.241 178.225 855.042 174.558 856.536 171.174C857.587 168.842 858.945 166.584 860.943 165.131C862.886 163.641 865.67 163.563 867.516 165.128C869.893 167.889 868.339 173.081 866.832 176.633C866.526 177.231 867.085 177.782 867.68 177.47C868.902 176.819 870.368 176.403 871.107 177.135C871.891 177.878 872.042 179.438 872.005 180.809C871.889 183.636 871.165 186.531 870.084 189.158L870.445 188.796C864.363 191.024 857.383 190.971 850.862 190.211C848.655 189.908 846.426 189.472 844.442 188.666C844.237 189.171 844.032 189.675 843.827 190.18C846.062 191.052 848.371 191.46 850.664 191.752C857.441 192.444 864.387 192.5 870.977 190.05C871.097 189.998 871.287 189.809 871.338 189.688C872.472 186.858 873.191 183.92 873.305 180.842C873.289 179.335 873.33 177.597 871.966 176.195C870.323 174.818 868.412 175.706 867.098 176.363L867.946 177.201C868.921 175.132 869.459 173.02 869.767 170.814C869.967 168.679 870.291 166.072 868.271 164.192C866.045 162.271 862.459 162.421 860.252 164.166C857.964 165.847 856.561 168.26 855.457 170.692C853.902 174.218 852.928 177.914 852.167 181.67L853.7 181.837C853.673 176.135 852.994 170.466 849.575 165.411C848.735 164.323 847.544 163.264 845.968 162.928C844.393 162.583 842.844 163.121 841.684 163.849C837.14 166.386 836.427 172.247 837.52 176.534C838.066 179.08 838.994 181.505 840.087 183.838C841.074 185.929 842.203 187.946 843.466 189.893ZM844.803 188.953L843.466 189.893C843.531 189.978 843.727 190.14 843.827 190.18L844.442 188.666L844.803 188.953Z" fill="#11604D"/>
<path d="M831.793 186.087C831.715 186.065 831.631 186.071 831.557 186.106C831.483 186.141 831.425 186.202 831.397 186.278C831.369 186.354 831.371 186.438 831.404 186.513C831.437 186.588 831.497 186.648 831.57 186.683C831.57 186.683 831.57 186.683 831.57 186.683C831.868 186.827 832.186 186.968 832.502 187.102C835.375 188.299 838.323 189.185 841.303 189.953C844.197 190.692 847.125 191.265 850.084 191.702C850.419 191.752 850.755 191.801 851.081 191.846C851.151 191.856 851.224 191.843 851.284 191.805C851.345 191.767 851.388 191.708 851.405 191.64C851.422 191.572 851.411 191.499 851.375 191.438C851.34 191.376 851.282 191.33 851.215 191.306C851.215 191.306 851.215 191.306 851.215 191.306C850.904 191.194 850.582 191.083 850.261 190.973C847.428 190.009 844.572 189.175 841.69 188.439C838.723 187.674 835.73 187.035 832.758 186.333C832.431 186.254 832.102 186.17 831.793 186.087Z" fill="#82B8B9"/>
<path d="M864.425 177.817C864.485 177.765 864.523 177.688 864.53 177.606C864.538 177.524 864.516 177.443 864.466 177.38C864.417 177.317 864.344 177.276 864.262 177.264C864.181 177.252 864.097 177.269 864.032 177.315C864.032 177.315 864.032 177.315 864.032 177.315C863.834 177.454 863.639 177.6 863.448 177.75C860.034 180.532 857.891 184.508 856.278 188.538C856.189 188.764 856.103 188.993 856.02 189.219C855.919 189.492 855.933 189.787 856.069 190.044C856.204 190.3 856.45 190.496 856.742 190.587C857.035 190.677 857.348 190.653 857.604 190.517C857.861 190.382 858.039 190.146 858.109 189.864C858.109 189.864 858.109 189.864 858.109 189.864C858.164 189.644 858.221 189.421 858.281 189.199C859.381 185.24 861.001 181.248 863.921 178.287C864.084 178.126 864.253 177.969 864.425 177.817Z" fill="#82B8B9"/>
<path d="M860.152 173.927C860.172 173.849 860.16 173.764 860.12 173.691C860.08 173.619 860.015 173.565 859.937 173.541C859.86 173.517 859.776 173.524 859.702 173.562C859.628 173.599 859.57 173.662 859.542 173.739C859.542 173.739 859.542 173.739 859.542 173.739C859.489 173.888 859.439 174.04 859.392 174.191C858.581 176.94 858.48 179.838 859.053 182.713C859.089 182.874 859.129 183.037 859.174 183.197C859.223 183.378 859.343 183.528 859.509 183.614C859.676 183.699 859.876 183.713 860.062 183.654C860.248 183.594 860.403 183.466 860.489 183.3C860.575 183.133 860.584 182.941 860.519 182.765C860.519 182.765 860.519 182.765 860.519 182.765C860.471 182.636 860.425 182.499 860.382 182.361C859.649 179.84 859.492 177.006 860.046 174.365C860.078 174.219 860.114 174.072 860.152 173.927Z" fill="#82B8B9"/>
</g>
<defs>
<filter id="filter0_nn_3427_33618" x="152.768" y="184.913" width="15.1118" height="15.8266" filterUnits="userSpaceOnUse" color-interpolation-filters="sRGB">
<feFlood flood-opacity="0" result="BackgroundImageFix"/>
<feBlend mode="normal" in="SourceGraphic" in2="BackgroundImageFix" result="shape"/>
<feTurbulence type="fractalNoise" baseFrequency="0.4284854531288147 0.4284854531288147" stitchTiles="stitch" numOctaves="3" result="noise" seed="2151" />
<feComponentTransfer in="noise" result="coloredNoise1">
<feFuncR type="linear" slope="2" intercept="-0.5" />
<feFuncG type="linear" slope="2" intercept="-0.5" />
<feFuncB type="linear" slope="2" intercept="-0.5" />
<feFuncA type="discrete" tableValues="1 1 1 1 1 1 1 1 1 1 1 1 1 1 1 1 1 1 1 1 1 1 1 1 1 1 1 1 1 1 1 1 1 1 1 1 1 1 1 1 1 1 1 1 1 1 1 1 1 1 1 0 0 0 0 0 0 0 0 0 0 0 0 0 0 0 0 0 0 0 0 0 0 0 0 0 0 0 0 0 0 0 0 0 0 0 0 0 0 0 0 0 0 0 0 0 0 0 0 0 "/>
</feComponentTransfer>
<feComposite operator="in" in2="shape" in="coloredNoise1" result="noise1Clipped" />
<feComponentTransfer in="noise1Clipped" result="color1">
<feFuncA type="table" tableValues="0 0.1" />
</feComponentTransfer>
<feMerge result="effect1_noise_3427_33618">
<feMergeNode in="shape" />
<feMergeNode in="color1" />
</feMerge>
<feTurbulence type="fractalNoise" baseFrequency="0.22073492407798767 0.22073492407798767" stitchTiles="stitch" numOctaves="3" result="noise" seed="3494" />
<feColorMatrix in="noise" type="luminanceToAlpha" result="alphaNoise" />
<feComponentTransfer in="alphaNoise" result="coloredNoise1">
<feFuncA type="discrete" tableValues="0 0 0 0 0 0 0 0 0 0 0 0 0 0 0 0 0 1 1 1 1 1 1 1 1 1 1 1 1 1 1 1 0 0 0 0 0 0 0 0 0 0 0 0 0 0 0 0 0 0 0 0 0 0 0 0 0 0 0 0 0 0 0 0 0 0 0 0 0 0 0 0 0 0 0 0 0 0 0 0 0 0 0 0 0 0 0 0 0 0 0 0 0 0 0 0 0 0 0 0 "/>
</feComponentTransfer>
<feComposite operator="in" in2="effect1_noise_3427_33618" in="coloredNoise1" result="noise1Clipped" />
<feFlood flood-color="rgba(255, 255, 255, 0.18)" result="color1Flood" />
<feComposite operator="in" in2="noise1Clipped" in="color1Flood" result="color1" />
<feMerge result="effect2_noise_3427_33618">
<feMergeNode in="effect1_noise_3427_33618" />
<feMergeNode in="color1" />
</feMerge>
</filter>
<filter id="filter1_nn_3427_33618" x="190.801" y="78.8408" width="526.328" height="140.413" filterUnits="userSpaceOnUse" color-interpolation-filters="sRGB">
<feFlood flood-opacity="0" result="BackgroundImageFix"/>
<feBlend mode="normal" in="SourceGraphic" in2="BackgroundImageFix" result="shape"/>
<feTurbulence type="fractalNoise" baseFrequency="0.4284854531288147 0.4284854531288147" stitchTiles="stitch" numOctaves="3" result="noise" seed="2151" />
<feComponentTransfer in="noise" result="coloredNoise1">
<feFuncR type="linear" slope="2" intercept="-0.5" />
<feFuncG type="linear" slope="2" intercept="-0.5" />
<feFuncB type="linear" slope="2" intercept="-0.5" />
<feFuncA type="discrete" tableValues="1 1 1 1 1 1 1 1 1 1 1 1 1 1 1 1 1 1 1 1 1 1 1 1 1 1 1 1 1 1 1 1 1 1 1 1 1 1 1 1 1 1 1 1 1 1 1 1 1 1 1 0 0 0 0 0 0 0 0 0 0 0 0 0 0 0 0 0 0 0 0 0 0 0 0 0 0 0 0 0 0 0 0 0 0 0 0 0 0 0 0 0 0 0 0 0 0 0 0 0 "/>
</feComponentTransfer>
<feComposite operator="in" in2="shape" in="coloredNoise1" result="noise1Clipped" />
<feComponentTransfer in="noise1Clipped" result="color1">
<feFuncA type="table" tableValues="0 0.1" />
</feComponentTransfer>
<feMerge result="effect1_noise_3427_33618">
<feMergeNode in="shape" />
<feMergeNode in="color1" />
</feMerge>
<feTurbulence type="fractalNoise" baseFrequency="0.22073492407798767 0.22073492407798767" stitchTiles="stitch" numOctaves="3" result="noise" seed="3494" />
<feColorMatrix in="noise" type="luminanceToAlpha" result="alphaNoise" />
<feComponentTransfer in="alphaNoise" result="coloredNoise1">
<feFuncA type="discrete" tableValues="0 0 0 0 0 0 0 0 0 0 0 0 0 0 0 0 0 1 1 1 1 1 1 1 1 1 1 1 1 1 1 1 0 0 0 0 0 0 0 0 0 0 0 0 0 0 0 0 0 0 0 0 0 0 0 0 0 0 0 0 0 0 0 0 0 0 0 0 0 0 0 0 0 0 0 0 0 0 0 0 0 0 0 0 0 0 0 0 0 0 0 0 0 0 0 0 0 0 0 0 "/>
</feComponentTransfer>
<feComposite operator="in" in2="effect1_noise_3427_33618" in="coloredNoise1" result="noise1Clipped" />
<feFlood flood-color="rgba(255, 255, 255, 0.18)" result="color1Flood" />
<feComposite operator="in" in2="noise1Clipped" in="color1Flood" result="color1" />
<feMerge result="effect2_noise_3427_33618">
<feMergeNode in="effect1_noise_3427_33618" />
<feMergeNode in="color1" />
</feMerge>
</filter>
<filter id="filter2_nn_3427_33618" x="421.193" y="138.161" width="7.96875" height="8.53827" filterUnits="userSpaceOnUse" color-interpolation-filters="sRGB">
<feFlood flood-opacity="0" result="BackgroundImageFix"/>
<feBlend mode="normal" in="SourceGraphic" in2="BackgroundImageFix" result="shape"/>
<feTurbulence type="fractalNoise" baseFrequency="0.57101225852966309 0.57101225852966309" stitchTiles="stitch" numOctaves="3" result="noise" seed="2151" />
<feComponentTransfer in="noise" result="coloredNoise1">
<feFuncR type="linear" slope="2" intercept="-0.5" />
<feFuncG type="linear" slope="2" intercept="-0.5" />
<feFuncB type="linear" slope="2" intercept="-0.5" />
<feFuncA type="discrete" tableValues="1 1 1 1 1 1 1 1 1 1 1 1 1 1 1 1 1 1 1 1 1 1 1 1 1 1 1 1 1 1 1 1 1 1 1 1 1 1 1 1 1 1 1 1 1 1 1 1 1 1 1 0 0 0 0 0 0 0 0 0 0 0 0 0 0 0 0 0 0 0 0 0 0 0 0 0 0 0 0 0 0 0 0 0 0 0 0 0 0 0 0 0 0 0 0 0 0 0 0 0 "/>
</feComponentTransfer>
<feComposite operator="in" in2="shape" in="coloredNoise1" result="noise1Clipped" />
<feComponentTransfer in="noise1Clipped" result="color1">
<feFuncA type="table" tableValues="0 0.1" />
</feComponentTransfer>
<feMerge result="effect1_noise_3427_33618">
<feMergeNode in="shape" />
<feMergeNode in="color1" />
</feMerge>
<feTurbulence type="fractalNoise" baseFrequency="0.29415783286094666 0.29415783286094666" stitchTiles="stitch" numOctaves="3" result="noise" seed="3494" />
<feColorMatrix in="noise" type="luminanceToAlpha" result="alphaNoise" />
<feComponentTransfer in="alphaNoise" result="coloredNoise1">
<feFuncA type="discrete" tableValues="0 0 0 0 0 0 0 0 0 0 0 0 0 0 0 0 0 1 1 1 1 1 1 1 1 1 1 1 1 1 1 1 0 0 0 0 0 0 0 0 0 0 0 0 0 0 0 0 0 0 0 0 0 0 0 0 0 0 0 0 0 0 0 0 0 0 0 0 0 0 0 0 0 0 0 0 0 0 0 0 0 0 0 0 0 0 0 0 0 0 0 0 0 0 0 0 0 0 0 0 "/>
</feComponentTransfer>
<feComposite operator="in" in2="effect1_noise_3427_33618" in="coloredNoise1" result="noise1Clipped" />
<feFlood flood-color="rgba(255, 255, 255, 0.18)" result="color1Flood" />
<feComposite operator="in" in2="noise1Clipped" in="color1Flood" result="color1" />
<feMerge result="effect2_noise_3427_33618">
<feMergeNode in="effect1_noise_3427_33618" />
<feMergeNode in="color1" />
</feMerge>
</filter>
<filter id="filter3_nn_3427_33618" x="869.324" y="182.531" width="7.44238" height="8.02956" filterUnits="userSpaceOnUse" color-interpolation-filters="sRGB">
<feFlood flood-opacity="0" result="BackgroundImageFix"/>
<feBlend mode="normal" in="SourceGraphic" in2="BackgroundImageFix" result="shape"/>
<feTurbulence type="fractalNoise" baseFrequency="0.4284854531288147 0.4284854531288147" stitchTiles="stitch" numOctaves="3" result="noise" seed="2151" />
<feComponentTransfer in="noise" result="coloredNoise1">
<feFuncR type="linear" slope="2" intercept="-0.5" />
<feFuncG type="linear" slope="2" intercept="-0.5" />
<feFuncB type="linear" slope="2" intercept="-0.5" />
<feFuncA type="discrete" tableValues="1 1 1 1 1 1 1 1 1 1 1 1 1 1 1 1 1 1 1 1 1 1 1 1 1 1 1 1 1 1 1 1 1 1 1 1 1 1 1 1 1 1 1 1 1 1 1 1 1 1 1 0 0 0 0 0 0 0 0 0 0 0 0 0 0 0 0 0 0 0 0 0 0 0 0 0 0 0 0 0 0 0 0 0 0 0 0 0 0 0 0 0 0 0 0 0 0 0 0 0 "/>
</feComponentTransfer>
<feComposite operator="in" in2="shape" in="coloredNoise1" result="noise1Clipped" />
<feComponentTransfer in="noise1Clipped" result="color1">
<feFuncA type="table" tableValues="0 0.1" />
</feComponentTransfer>
<feMerge result="effect1_noise_3427_33618">
<feMergeNode in="shape" />
<feMergeNode in="color1" />
</feMerge>
<feTurbulence type="fractalNoise" baseFrequency="0.22073492407798767 0.22073492407798767" stitchTiles="stitch" numOctaves="3" result="noise" seed="3494" />
<feColorMatrix in="noise" type="luminanceToAlpha" result="alphaNoise" />
<feComponentTransfer in="alphaNoise" result="coloredNoise1">
<feFuncA type="discrete" tableValues="0 0 0 0 0 0 0 0 0 0 0 0 0 0 0 0 0 1 1 1 1 1 1 1 1 1 1 1 1 1 1 1 0 0 0 0 0 0 0 0 0 0 0 0 0 0 0 0 0 0 0 0 0 0 0 0 0 0 0 0 0 0 0 0 0 0 0 0 0 0 0 0 0 0 0 0 0 0 0 0 0 0 0 0 0 0 0 0 0 0 0 0 0 0 0 0 0 0 0 0 "/>
</feComponentTransfer>
<feComposite operator="in" in2="effect1_noise_3427_33618" in="coloredNoise1" result="noise1Clipped" />
<feFlood flood-color="rgba(255, 255, 255, 0.18)" result="color1Flood" />
<feComposite operator="in" in2="noise1Clipped" in="color1Flood" result="color1" />
<feMerge result="effect2_noise_3427_33618">
<feMergeNode in="effect1_noise_3427_33618" />
<feMergeNode in="color1" />
</feMerge>
</filter>
<clipPath id="clip0_3427_33618">
<rect width="1280" height="200" fill="white"/>
</clipPath>
</defs>
</svg>
