<svg fill="none" viewBox="0 0 432 208" xmlns="http://www.w3.org/2000/svg">
  <g clip-path="url(#Toggle-Search-1_svg__a)">
    <rect width="432" height="208" fill="#06092d" rx="8"/>
    <path fill="#fff" d="M25.235 142c.824 0 1.53.588 1.648 1.294l.823 3.177c.118.588.706 1.176 1.294 1.294l3.177.823c.823.235 1.294.942 1.294 1.647 0 .824-.588 1.53-1.294 1.648l-3.177.823c-.588.118-1.176.706-1.294 1.294l-.823 3.177c-.235.823-.942 1.294-1.648 1.294-.823 0-1.53-.588-1.647-1.294L22.765 154c-.118-.588-.706-1.176-1.294-1.294l-3.177-.823c-.824-.235-1.294-.942-1.294-1.648 0-.823.588-1.529 1.294-1.647l3.177-.823c.588-.118 1.176-.706 1.294-1.294l.823-3.177c.235-.823.941-1.294 1.647-1.294m392-4c.824 0 1.53.588 1.648 1.294l.823 3.177c.118.588.706 1.176 1.294 1.294l3.177.823c.823.235 1.294.942 1.294 1.647 0 .824-.588 1.53-1.294 1.648l-3.177.823c-.588.118-1.176.706-1.294 1.294l-.823 3.177c-.235.823-.942 1.294-1.648 1.294-.823 0-1.529-.588-1.647-1.294l-.823-3.177c-.118-.588-.706-1.176-1.294-1.294l-3.177-.823c-.824-.235-1.294-.942-1.294-1.648 0-.823.588-1.529 1.294-1.647l3.177-.823c.588-.118 1.176-.706 1.294-1.294l.823-3.177c.235-.823.942-1.294 1.647-1.294m-10.147-15a3.1 3.1 0 0 1 3.089 3.088 3.1 3.1 0 0 1-3.089 3.089 3.1 3.1 0 0 1-3.088-3.089 3.1 3.1 0 0 1 3.088-3.088M7.5 122c1.375 0 2.5 1.125 2.5 2.5S8.875 127 7.5 127a2.507 2.507 0 0 1-2.5-2.5c0-1.375 1.125-2.5 2.5-2.5M20 106.25c.5 0 .928.357 1 .785l.5 1.929c.071.357.429.715.786.786l1.928.5c.5.143.786.571.786 1 0 .5-.358.929-.786 1l-1.928.5c-.357.071-.714.428-.786.785l-.5 1.929c-.143.5-.571.786-1 .786-.5 0-.929-.358-1-.786l-.5-1.929c-.072-.357-.43-.714-.786-.785l-1.928-.5a1.05 1.05 0 0 1-.786-1c0-.5.358-.929.786-1l1.928-.5c.357-.071.715-.429.786-.786l.5-1.929a1.05 1.05 0 0 1 1-.785M426.875 98a1.88 1.88 0 0 1 1.875 1.875 1.88 1.88 0 0 1-1.875 1.875A1.88 1.88 0 0 1 425 99.875 1.88 1.88 0 0 1 426.875 98M405.5 82c.75 0 1.393.536 1.5 1.179l.75 2.892c.107.536.643 1.072 1.179 1.179l2.892.75c.75.214 1.179.857 1.179 1.5 0 .75-.536 1.393-1.179 1.5l-2.892.75c-.536.107-1.072.643-1.179 1.179L407 95.82c-.214.75-.857 1.179-1.5 1.179-.75 0-1.393-.536-1.5-1.179l-.75-2.892c-.107-.536-.643-1.072-1.179-1.179l-2.892-.75c-.75-.214-1.179-.857-1.179-1.5 0-.75.536-1.393 1.179-1.5l2.892-.75c.536-.107 1.072-.643 1.179-1.179l.75-2.892c.214-.75.857-1.179 1.5-1.179m-393-14c1.375 0 2.5 1.125 2.5 2.5S13.875 73 12.5 73a2.507 2.507 0 0 1-2.5-2.5c0-1.375 1.125-2.5 2.5-2.5M417 61c.5 0 .929.358 1 .786l.5 1.928c.071.357.429.715.786.786l1.928.5c.5.143.786.571.786 1 0 .5-.358.929-.786 1l-1.928.5c-.357.071-.715.429-.786.786l-.5 1.928c-.143.5-.571.786-1 .786-.5 0-.929-.358-1-.786l-.5-1.928c-.071-.357-.429-.715-.786-.786l-1.928-.5a1.05 1.05 0 0 1-.786-1c0-.5.358-.929.786-1l1.928-.5c.357-.071.715-.429.786-.786l.5-1.928c.143-.5.571-.786 1-.786M27.5 45c.75 0 1.393.536 1.5 1.179l.75 2.892c.107.536.643 1.072 1.179 1.179l2.892.75c.75.214 1.179.857 1.179 1.5 0 .75-.536 1.393-1.179 1.5l-2.892.75c-.536.107-1.072.643-1.179 1.179L29 58.82c-.214.75-.857 1.179-1.5 1.179-.75 0-1.393-.536-1.5-1.179l-.75-2.892c-.107-.536-.643-1.072-1.179-1.179L21.18 54c-.75-.214-1.179-.857-1.179-1.5 0-.75.536-1.393 1.179-1.5l2.892-.75c.536-.107 1.072-.643 1.179-1.179L26 46.18c.214-.75.857-1.179 1.5-1.179" opacity=".1"/>
    <path fill="#282828" d="M32 30a8 8 0 0 1 8-8h352a8 8 0 0 1 8 8v178H32z"/>
    <path fill="#3c3c3c" d="M400 30a8 8 0 0 0-8-8v-2c5.523 0 10 4.477 10 10v180H30V30c0-5.523 4.477-10 10-10v2a8 8 0 0 0-8 8v178h368zm-8-10v2H40v-2z"/>
    <path fill="#050505" d="M32 30a8 8 0 0 1 8-8h352a8 8 0 0 1 8 8v50H32z"/>
    <path fill="#333" d="M166 37a8 8 0 0 0 8 8h75a8 8 0 0 1 8 8v3a8 8 0 0 1-8 8H55a8 8 0 0 1-8-8v-3a8 8 0 0 1 8-8h3a8 8 0 0 0 8-8v-5a8 8 0 0 1 8-8h84a8 8 0 0 1 8 8z"/>
    <path fill="#333" d="M32 53a8 8 0 0 1 8-8h352a8 8 0 0 1 8 8v28H32z"/>
    <path fill="#3d3d3d" d="M90 57a8 8 0 0 1 8-8h236a8 8 0 0 1 8 8v12a8 8 0 0 1-8 8H98a8 8 0 0 1-8-8z"/>
    <path fill="#adc2fc" d="M88 69V57c0-5.523 4.477-10 10-10v2a8 8 0 0 0-8 8v12l.01.412a8 8 0 0 0 7.578 7.577L98 77h236l.412-.01A8 8 0 0 0 342 69V57a8 8 0 0 0-8-8v-2c5.523 0 10 4.477 10 10v12c0 5.523-4.477 10-10 10H98c-5.35 0-9.72-4.202-9.987-9.485zm246-22v2H98v-2z"/>
    <path fill="#8fabf9" d="M327.25 57a5.25 5.25 0 0 1 4.049 8.592l2.555 2.555.064.078a.502.502 0 0 1-.693.693l-.079-.065-2.554-2.554A5.25 5.25 0 1 1 327.25 57m0 1a4.25 4.25 0 1 0 0 8.5 4.25 4.25 0 0 0 0-8.5"/>
    <path fill="#fff" fill-opacity=".24" d="M49.86 58.267a.469.469 0 0 0-.664-.663l-3.983 3.987a1.594 1.594 0 0 0 0 2.253l3.983 3.986a.469.469 0 0 0 .663-.663l-3.979-3.981h9.65a.469.469 0 0 0 0-.938h-9.65zm326.89.702c0-.26.21-.469.469-.469h9.562a.469.469 0 1 1 0 .938h-9.562a.47.47 0 0 1-.469-.47m0 3.751c0-.26.21-.469.469-.469h9.562a.469.469 0 1 1 0 .938h-9.562a.47.47 0 0 1-.469-.47m.469 3.282a.469.469 0 1 0 0 .938h9.562a.469.469 0 1 0 0-.938z"/>
  </g>
  <defs>
    <clipPath id="Toggle-Search-1_svg__a">
      <rect width="432" height="208" fill="#fff" rx="8"/>
    </clipPath>
  </defs>
</svg>
