<svg width="919" height="364" viewBox="0 0 919 364" fill="none" xmlns="http://www.w3.org/2000/svg">
    <path opacity="0.24" d="M160.629 5.2L162.171 4.8C162.457 4.74286 162.743 4.45714 162.8 4.17143L163.2 2.62857C163.314 2.22857 163.657 2 164 2C164.4 2 164.743 2.28571 164.8 2.62857L165.2 4.17143C165.257 4.45714 165.543 4.74286 165.829 4.8L167.371 5.2C167.771 5.31429 168 5.65714 168 6C168 6.4 167.714 6.74286 167.371 6.8L165.829 7.2C165.543 7.25714 165.257 7.54286 165.2 7.82857L164.8 9.37143C164.686 9.77143 164.343 10 164 10C163.6 10 163.257 9.71429 163.2 9.37143L162.8 7.82857C162.743 7.54286 162.457 7.25714 162.171 7.2L160.629 6.8C160.229 6.68572 160 6.34286 160 6C160 5.6 160.286 5.25714 160.629 5.2Z" fill="#8FABF9"/>
    <path opacity="0.24" d="M500.471 360.4L501.629 360.1C501.843 360.057 502.057 359.843 502.1 359.629L502.4 358.471C502.486 358.171 502.743 358 503 358C503.3 358 503.557 358.214 503.6 358.471L503.9 359.629C503.943 359.843 504.157 360.057 504.371 360.1L505.529 360.4C505.829 360.486 506 360.743 506 361C506 361.3 505.786 361.557 505.529 361.6L504.371 361.9C504.157 361.943 503.943 362.157 503.9 362.371L503.6 363.529C503.514 363.829 503.257 364 503 364C502.7 364 502.443 363.786 502.4 363.529L502.1 362.371C502.057 362.157 501.843 361.943 501.629 361.9L500.471 361.6C500.171 361.514 500 361.257 500 361C500 360.7 500.214 360.443 500.471 360.4Z" fill="#8FABF9"/>
    <path opacity="0.24" d="M0.471418 31.4L1.62857 31.1C1.84285 31.0571 2.05715 30.8429 2.10001 30.6286L2.39999 29.4714C2.4857 29.1714 2.74286 29 3 29C3.3 29 3.55715 29.2143 3.60001 29.4714L3.89999 30.6286C3.94285 30.8429 4.15715 31.0571 4.37143 31.1L5.52858 31.4C5.82858 31.4857 6 31.7429 6 32C6 32.3 5.78572 32.5571 5.52858 32.6L4.37143 32.9C4.15715 32.9429 3.94285 33.1571 3.89999 33.3714L3.60001 34.5286C3.5143 34.8286 3.25714 35 3 35C2.7 35 2.44285 34.7857 2.39999 34.5286L2.10001 33.3714C2.05715 33.1571 1.84285 32.9429 1.62857 32.9L0.471418 32.6C0.171418 32.5143 0 32.2571 0 32C0 31.7 0.214275 31.4429 0.471418 31.4Z" fill="#8FABF9"/>
    <path opacity="0.56" d="M373.629 19.2L375.171 18.8C375.457 18.7429 375.743 18.4571 375.8 18.1714L376.2 16.6286C376.314 16.2286 376.657 16 377 16C377.4 16 377.743 16.2857 377.8 16.6286L378.2 18.1714C378.257 18.4571 378.543 18.7429 378.829 18.8L380.371 19.2C380.771 19.3143 381 19.6571 381 20C381 20.4 380.714 20.7429 380.371 20.8L378.829 21.2C378.543 21.2571 378.257 21.5429 378.2 21.8286L377.8 23.3714C377.686 23.7714 377.343 24 377 24C376.6 24 376.257 23.7143 376.2 23.3714L375.8 21.8286C375.743 21.5429 375.457 21.2571 375.171 21.2L373.629 20.8C373.229 20.6857 373 20.3429 373 20C373 19.6 373.286 19.2571 373.629 19.2Z" fill="#8FABF9"/>
    <path opacity="0.24" d="M504.786 4L506.714 3.5C507.071 3.42857 507.429 3.07143 507.5 2.71429L508 0.785713C508.143 0.285713 508.571 0 509 0C509.5 0 509.929 0.357142 510 0.785713L510.5 2.71429C510.571 3.07143 510.929 3.42857 511.286 3.5L513.214 4C513.714 4.14286 514 4.57143 514 5C514 5.5 513.643 5.92857 513.214 6L511.286 6.5C510.929 6.57143 510.571 6.92857 510.5 7.28571L510 9.21429C509.857 9.71429 509.429 10 509 10C508.5 10 508.071 9.64286 508 9.21429L507.5 7.28571C507.429 6.92857 507.071 6.57143 506.714 6.5L504.786 6C504.286 5.85714 504 5.42857 504 5C504 4.5 504.357 4.07143 504.786 4Z" fill="#8FABF9"/>
    <path opacity="0.36" d="M470.629 162.2L472.171 161.8C472.457 161.743 472.743 161.457 472.8 161.171L473.2 159.629C473.314 159.229 473.657 159 474 159C474.4 159 474.743 159.286 474.8 159.629L475.2 161.171C475.257 161.457 475.543 161.743 475.829 161.8L477.371 162.2C477.771 162.314 478 162.657 478 163C478 163.4 477.714 163.743 477.371 163.8L475.829 164.2C475.543 164.257 475.257 164.543 475.2 164.829L474.8 166.371C474.686 166.771 474.343 167 474 167C473.6 167 473.257 166.714 473.2 166.371L472.8 164.829C472.743 164.543 472.457 164.257 472.171 164.2L470.629 163.8C470.229 163.686 470 163.343 470 163C470 162.6 470.286 162.257 470.629 162.2Z" fill="#8FABF9"/>
    <path opacity="0.36" d="M391 51C389.9 51 389 50.1 389 49C389 47.9 389.9 47 391 47C392.1 47 393 47.9 393 49C393 50.1 392.1 51 391 51Z" fill="#8FABF9"/>
    <path opacity="0.36" d="M262 82C260.9 82 260 81.1 260 80C260 78.9 260.9 78 262 78C263.1 78 264 78.9 264 80C264 81.1 263.1 82 262 82Z" fill="#8FABF9"/>
    <path opacity="0.36" d="M308 36C306.9 36 306 35.1 306 34C306 32.9 306.9 32 308 32C309.1 32 310 32.9 310 34C310 35.1 309.1 36 308 36Z" fill="#8FABF9"/>
    <path opacity="0.36" d="M362 150C360.9 150 360 149.1 360 148C360 146.9 360.9 146 362 146C363.1 146 364 146.9 364 148C364 149.1 363.1 150 362 150Z" fill="#8FABF9"/>
    <path opacity="0.56" d="M745.943 18.8L748.257 18.2C748.686 18.1143 749.114 17.6857 749.2 17.2571L749.8 14.9429C749.971 14.3429 750.486 14 751 14C751.6 14 752.114 14.4286 752.2 14.9429L752.8 17.2571C752.886 17.6857 753.314 18.1143 753.743 18.2L756.057 18.8C756.657 18.9714 757 19.4857 757 20C757 20.6 756.571 21.1143 756.057 21.2L753.743 21.8C753.314 21.8857 752.886 22.3143 752.8 22.7429L752.2 25.0571C752.029 25.6571 751.514 26 751 26C750.4 26 749.886 25.5714 749.8 25.0571L749.2 22.7429C749.114 22.3143 748.686 21.8857 748.257 21.8L745.943 21.2C745.343 21.0286 745 20.5143 745 20C745 19.4 745.429 18.8857 745.943 18.8Z" fill="#8FABF9"/>
    <path opacity="0.56" d="M608.943 37.8L611.257 37.2C611.686 37.1143 612.114 36.6857 612.2 36.2571L612.8 33.9429C612.971 33.3429 613.486 33 614 33C614.6 33 615.114 33.4286 615.2 33.9429L615.8 36.2571C615.886 36.6857 616.314 37.1143 616.743 37.2L619.057 37.8C619.657 37.9714 620 38.4857 620 39C620 39.6 619.571 40.1143 619.057 40.2L616.743 40.8C616.314 40.8857 615.886 41.3143 615.8 41.7429L615.2 44.0571C615.029 44.6571 614.514 45 614 45C613.4 45 612.886 44.5714 612.8 44.0571L612.2 41.7429C612.114 41.3143 611.686 40.8857 611.257 40.8L608.943 40.2C608.343 40.0286 608 39.5143 608 39C608 38.4 608.429 37.8857 608.943 37.8Z" fill="#8FABF9"/>
    <path opacity="0.56" d="M895.943 137.8L898.257 137.2C898.686 137.114 899.114 136.686 899.2 136.257L899.8 133.943C899.971 133.343 900.486 133 901 133C901.6 133 902.114 133.429 902.2 133.943L902.8 136.257C902.886 136.686 903.314 137.114 903.743 137.2L906.057 137.8C906.657 137.971 907 138.486 907 139C907 139.6 906.571 140.114 906.057 140.2L903.743 140.8C903.314 140.886 902.886 141.314 902.8 141.743L902.2 144.057C902.029 144.657 901.514 145 901 145C900.4 145 899.886 144.571 899.8 144.057L899.2 141.743C899.114 141.314 898.686 140.886 898.257 140.8L895.943 140.2C895.343 140.029 895 139.514 895 139C895 138.4 895.429 137.886 895.943 137.8Z" fill="#8FABF9"/>
    <path opacity="0.36" d="M907.629 29.2L909.171 28.8C909.457 28.7429 909.743 28.4571 909.8 28.1714L910.2 26.6286C910.314 26.2286 910.657 26 911 26C911.4 26 911.743 26.2857 911.8 26.6286L912.2 28.1714C912.257 28.4571 912.543 28.7429 912.829 28.8L914.371 29.2C914.771 29.3143 915 29.6571 915 30C915 30.4 914.714 30.7429 914.371 30.8L912.829 31.2C912.543 31.2571 912.257 31.5429 912.2 31.8286L911.8 33.3714C911.686 33.7714 911.343 34 911 34C910.6 34 910.257 33.7143 910.2 33.3714L909.8 31.8286C909.743 31.5429 909.457 31.2571 909.171 31.2L907.629 30.8C907.229 30.6857 907 30.3429 907 30C907 29.6 907.286 29.2571 907.629 29.2Z" fill="#8FABF9"/>
    <path opacity="0.36" d="M737.629 165.2L739.171 164.8C739.457 164.743 739.743 164.457 739.8 164.171L740.2 162.629C740.314 162.229 740.657 162 741 162C741.4 162 741.743 162.286 741.8 162.629L742.2 164.171C742.257 164.457 742.543 164.743 742.829 164.8L744.371 165.2C744.771 165.314 745 165.657 745 166C745 166.4 744.714 166.743 744.371 166.8L742.829 167.2C742.543 167.257 742.257 167.543 742.2 167.829L741.8 169.371C741.686 169.771 741.343 170 741 170C740.6 170 740.257 169.714 740.2 169.371L739.8 167.829C739.743 167.543 739.457 167.257 739.171 167.2L737.629 166.8C737.229 166.686 737 166.343 737 166C737 165.6 737.286 165.257 737.629 165.2Z" fill="#8FABF9"/>
    <path opacity="0.36" d="M621.629 189.2L623.171 188.8C623.457 188.743 623.743 188.457 623.8 188.171L624.2 186.629C624.314 186.229 624.657 186 625 186C625.4 186 625.743 186.286 625.8 186.629L626.2 188.171C626.257 188.457 626.543 188.743 626.829 188.8L628.371 189.2C628.771 189.314 629 189.657 629 190C629 190.4 628.714 190.743 628.371 190.8L626.829 191.2C626.543 191.257 626.257 191.543 626.2 191.829L625.8 193.371C625.686 193.771 625.343 194 625 194C624.6 194 624.257 193.714 624.2 193.371L623.8 191.829C623.743 191.543 623.457 191.257 623.171 191.2L621.629 190.8C621.229 190.686 621 190.343 621 190C621 189.6 621.286 189.257 621.629 189.2Z" fill="#8FABF9"/>
    <path opacity="0.56" d="M824 85C822.9 85 822 84.1 822 83C822 81.9 822.9 81 824 81C825.1 81 826 81.9 826 83C826 84.1 825.1 85 824 85Z" fill="#8FABF9"/>
    <path opacity="0.36" d="M719 42C717.9 42 717 41.1 717 40C717 38.9 717.9 38 719 38C720.1 38 721 38.9 721 40C721 41.1 720.1 42 719 42Z" fill="#8FABF9"/>
    <path opacity="0.36" d="M844 167C842.9 167 842 166.1 842 165C842 163.9 842.9 163 844 163C845.1 163 846 163.9 846 165C846 166.1 845.1 167 844 167Z" fill="#8FABF9"/>
    <path opacity="0.36" d="M917 310C915.9 310 915 309.1 915 308C915 306.9 915.9 306 917 306C918.1 306 919 306.9 919 308C919 309.1 918.1 310 917 310Z" fill="#8FABF9"/>
    <path opacity="0.36" d="M367 310C365.9 310 365 309.1 365 308C365 306.9 365.9 306 367 306C368.1 306 369 306.9 369 308C369 309.1 368.1 310 367 310Z" fill="#8FABF9"/>
    <path opacity="0.36" d="M163 103C161.9 103 161 102.1 161 101C161 99.9 161.9 99 163 99C164.1 99 165 99.9 165 101C165 102.1 164.1 103 163 103Z" fill="#8FABF9"/>
    <path opacity="0.36" d="M589 231C587.9 231 587 230.1 587 229C587 227.9 587.9 227 589 227C590.1 227 591 227.9 591 229C591 230.1 590.1 231 589 231Z" fill="#8FABF9"/>
    <path opacity="0.36" d="M547 127C545.9 127 545 126.1 545 125C545 123.9 545.9 123 547 123C548.1 123 549 123.9 549 125C549 126.1 548.1 127 547 127Z" fill="#8FABF9"/>
</svg>
