<svg width="96" height="96" viewBox="0 0 96 96" fill="none" xmlns="http://www.w3.org/2000/svg">
<path d="M15.834 38.5802C15.834 30.8459 15.834 26.9787 17.2913 24.004C18.6866 21.1558 20.9898 18.8526 23.838 17.4573C26.8127 16 30.6799 16 38.4142 16H57.2538C64.9881 16 68.8553 16 71.83 17.4573C74.6782 18.8526 76.9814 21.1558 78.3767 24.004C79.834 26.9787 79.834 30.8459 79.834 38.5802V57.4198C79.834 65.1541 79.834 69.0213 78.3767 71.996C76.9814 74.8442 74.6782 77.1474 71.83 78.5427C68.8553 80 64.9881 80 57.2538 80H38.4142C30.6799 80 26.8127 80 23.838 78.5427C20.9898 77.1474 18.6866 74.8442 17.2913 71.996C15.834 69.0213 15.834 65.1541 15.834 57.4198V38.5802Z" fill="#F05F2B"/>
<path fill-rule="evenodd" clip-rule="evenodd" d="M54.63 74.8837C53.3628 72.4201 52.1512 70.1534 51.399 68.654C49.3998 64.6506 47.3905 59.0064 48.3043 55.3665C48.4709 54.7052 46.4212 30.8765 44.9723 30.1092C43.3619 29.2509 41.3804 27.8895 39.568 27.5866C38.6485 27.4395 37.4428 27.5092 36.5002 27.6361C36.3327 27.6587 36.3258 27.9598 36.4859 28.014C37.1047 28.2236 37.856 28.5876 38.2989 29.138C38.3827 29.2422 38.2702 29.406 38.1366 29.4109C37.7192 29.4264 36.9619 29.6014 35.9629 30.45C35.8473 30.5481 35.9433 30.7304 36.092 30.7009C38.2391 30.2761 40.4319 30.4854 41.7241 31.66C41.808 31.7362 41.7641 31.873 41.6548 31.9027C30.4406 34.9502 32.6605 44.7053 35.6459 56.6765C38.4587 67.9561 39.7929 72.4048 39.9537 72.9329C39.9645 72.9684 39.9843 72.9957 40.0168 73.0135C42.3282 74.282 54.4812 75.0521 53.9659 73.5997L54.63 74.8837Z" fill="#DDDDDD"/>
<path fill-rule="evenodd" clip-rule="evenodd" d="M75.639 47.8449C75.639 63.2016 63.1899 75.6507 47.8332 75.6507C32.4764 75.6507 20.0273 63.2016 20.0273 47.8449C20.0273 32.4882 32.4764 20.0391 47.8332 20.0391C63.1899 20.0391 75.639 32.4882 75.639 47.8449ZM41.3498 72.4268C40.5064 69.806 38.3522 62.8841 36.3073 54.5018C36.2366 54.2121 36.1661 53.9238 36.0958 53.6369L36.0941 53.6297C33.5268 43.1434 31.4299 34.5786 42.9223 31.8879C43.0273 31.8633 43.0787 31.7377 43.0092 31.6552C41.6906 30.0909 39.2204 29.5782 36.097 30.6557C35.9689 30.6999 35.8576 30.5707 35.9372 30.461C36.5497 29.6168 37.7466 28.9677 38.3375 28.6832C38.4596 28.6243 38.4522 28.4455 38.3228 28.405C37.9363 28.284 37.2783 28.0989 36.538 27.9794C36.3629 27.9511 36.3471 27.651 36.5229 27.6273C40.9509 27.0316 45.5748 28.361 47.8951 31.2838C47.917 31.3114 47.9486 31.3306 47.9829 31.338C56.4798 33.1627 57.0882 46.5945 56.1094 47.2063C55.9164 47.3269 55.298 47.2577 54.4822 47.1664C51.1761 46.7965 44.6292 46.064 50.0325 56.134C50.0859 56.2334 50.0153 56.3651 49.9037 56.3824C46.9019 56.8492 50.765 66.3046 53.6241 72.5985C64.8709 69.9777 73.2494 59.8897 73.2494 47.8449C73.2494 33.8079 61.8702 22.4286 47.8332 22.4286C33.7962 22.4286 22.4169 33.8079 22.4169 47.8449C22.4169 59.6412 30.4533 69.5606 41.3498 72.4268Z" fill="white"/>
<path d="M57.4314 60.4806C56.7846 60.1809 54.2974 61.9645 52.6467 63.3337C52.3017 62.8456 51.6512 62.4908 50.1838 62.7459C48.8996 62.9692 48.1906 63.2789 47.8742 63.8127C45.8472 63.0442 42.4371 61.8582 41.6132 63.0036C40.7127 64.2557 41.8383 70.1789 43.0343 70.948C43.6588 71.3495 46.6458 69.4296 48.2057 68.1056C48.4573 68.4602 48.8625 68.6631 49.6954 68.6438C50.9551 68.6146 52.9983 68.3214 53.3154 67.7348C53.3346 67.6991 53.3512 67.657 53.3654 67.609C54.9686 68.2082 57.7903 68.8424 58.4208 68.7477C60.0635 68.501 58.1919 60.833 57.4314 60.4806Z" fill="#33A055"/>
<path d="M52.7988 63.5093C52.8669 63.6306 52.9216 63.7585 52.9681 63.8886C53.1966 64.5278 53.569 66.5613 53.2874 67.0636C53.0058 67.5659 51.1768 67.8085 50.0485 67.8279C48.9202 67.8474 48.6662 67.4348 48.4377 66.7956C48.2548 66.2842 48.1648 65.0819 48.167 64.3935C48.1207 63.3724 48.4938 63.0134 50.2182 62.7344C51.4944 62.5279 52.169 62.7681 52.5585 63.1791C54.3702 61.8269 57.393 59.9187 57.6878 60.2674C59.1579 62.0064 59.3437 66.146 59.0254 67.8114C58.9213 68.3559 54.0536 67.272 54.0536 66.6848C54.0536 64.2466 53.4209 63.5777 52.7988 63.5093Z" fill="#39B25E"/>
<path d="M42.1357 62.7479C42.5344 62.1169 45.7675 62.9016 47.5422 63.6914C47.5422 63.6914 47.1776 65.3437 47.7582 67.2903C47.928 67.8597 43.6751 70.394 43.12 69.958C42.4785 69.4541 41.2977 64.0742 42.1357 62.7479Z" fill="#39B25E"/>
<path fill-rule="evenodd" clip-rule="evenodd" d="M43.7007 49.9305C43.9623 48.793 45.1808 46.6496 49.5322 46.7016C51.732 46.6925 54.4646 46.7007 56.2763 46.4949C58.9689 46.189 60.9676 45.5377 62.2995 45.0301C64.1831 44.3114 64.8515 44.4717 65.0859 44.9017C65.3434 45.3741 65.0399 46.19 64.3818 46.9409C63.1246 48.3754 60.8646 49.487 56.8731 49.8169C52.8816 50.1468 50.2372 49.0761 49.0989 50.8193C48.608 51.5711 48.9875 53.3431 52.8476 53.9011C58.0637 54.6539 62.3476 52.994 62.8769 53.9965C63.4062 54.9989 60.3572 57.0386 55.1326 57.0813C49.908 57.124 46.6447 55.252 45.4875 54.3215C44.0192 53.141 43.3622 51.4193 43.7007 49.9305Z" fill="#FFC95C"/>
<g opacity="0.8">
<path d="M50.3538 37.492C50.6452 37.0148 51.2914 36.6465 52.349 36.6465C53.4065 36.6465 53.904 37.0673 54.2485 37.5366C54.3185 37.632 54.2124 37.7444 54.1037 37.6974C54.0776 37.6861 54.0511 37.6745 54.0242 37.6628C53.6374 37.4939 53.1625 37.2864 52.349 37.2749C51.4788 37.2625 50.9302 37.4804 50.5847 37.6683C50.4682 37.7315 50.2847 37.6051 50.3538 37.492Z" fill="#034180"/>
<path d="M38.4476 38.1025C39.4745 37.6733 40.2816 37.7288 40.8521 37.8638C40.9722 37.8922 41.0557 37.7629 40.9597 37.6854C40.5168 37.3282 39.5257 36.8848 38.233 37.3668C37.0799 37.7968 36.5364 38.6901 36.5332 39.2775C36.5324 39.4159 36.8172 39.4277 36.8909 39.3105C37.0899 38.9939 37.4207 38.5316 38.4476 38.1025Z" fill="#034180"/>
<path fill-rule="evenodd" clip-rule="evenodd" d="M53.2473 44.02C52.3394 44.02 51.603 43.2856 51.603 42.3818C51.603 41.478 52.3394 40.7436 53.2473 40.7436C54.1551 40.7436 54.8915 41.478 54.8915 42.3818C54.8915 43.2856 54.1551 44.02 53.2473 44.02ZM54.4053 41.8391C54.4053 41.6051 54.2136 41.4154 53.9796 41.4154C53.7456 41.4154 53.5559 41.6051 53.5539 41.8391C53.5539 42.0731 53.7456 42.2628 53.9796 42.2628C54.2156 42.2628 54.4053 42.0731 54.4053 41.8391Z" fill="#034180"/>
<path fill-rule="evenodd" clip-rule="evenodd" d="M42.3535 43.5155C42.3535 44.5707 41.496 45.4261 40.4369 45.4261C39.3798 45.4261 38.5203 44.5707 38.5203 43.5155C38.5203 42.4604 39.3798 41.605 40.4369 41.605C41.494 41.605 42.3535 42.4604 42.3535 43.5155ZM41.7886 42.882C41.7886 42.6097 41.5667 42.3878 41.2923 42.3878C41.0199 42.3878 40.798 42.6077 40.796 42.882C40.796 43.1544 41.0179 43.3763 41.2923 43.3763C41.5667 43.3763 41.7886 43.1544 41.7886 42.882Z" fill="#034180"/>
</g>
</svg>
