<svg width="96" height="96" viewBox="0 0 96 96" fill="none" xmlns="http://www.w3.org/2000/svg">
<path d="M48.0002 16.791C65.2699 16.7911 79.2698 30.7638 79.2698 48C79.2698 50.0672 79.0676 52.0874 78.6833 54.0422C77.2129 53.5472 75.6381 53.2788 74.0007 53.2788C65.9006 53.2788 59.334 59.8454 59.334 67.9456C59.334 70.9336 60.2277 73.7128 61.7622 76.0308C57.6094 78.0655 52.9387 79.2087 48.0002 79.2087C30.7305 79.2087 16.7305 65.2362 16.7305 48C16.7305 30.7638 30.7305 16.791 48.0002 16.791Z" fill="#C5C5C5"/>
<path d="M33.5635 40.8911C33.5635 32.7467 40.3338 26.1812 48.562 26.492C56.3147 26.7863 62.4871 33.2444 62.4375 40.9854C62.406 45.8925 59.9163 50.2178 56.136 52.7954C55.2183 53.422 55.4054 54.8109 56.4556 55.178C58.7394 55.9766 60.8751 57.0894 62.8103 58.4649C60.6421 61.0215 59.3345 64.3312 59.3345 67.9461C59.3345 70.9342 60.2282 73.7135 61.7627 76.0315C57.6103 78.0664 52.9394 79.2095 48.0005 79.2095C38.7336 79.2095 30.4076 75.187 24.6841 68.7935C27.545 62.4512 32.929 57.4876 39.5586 55.1729C40.6054 54.8074 40.7859 53.4253 39.8699 52.8003C36.0631 50.2062 33.5635 45.8396 33.5635 40.8911Z" fill="#888888"/>
<path d="M14.9131 59.7984C14.9817 59.7751 15.0574 59.7798 15.1245 59.811C15.1917 59.8424 15.2442 59.8983 15.2759 59.9641C15.3539 60.1267 15.4325 60.2885 15.5115 60.45C16.5136 62.4997 17.5877 64.4704 18.7375 66.3965C19.2183 67.2016 19.6495 68.0367 20.042 68.918C20.1159 69.084 20.1887 69.2518 20.26 69.4212C20.2909 69.4946 20.3044 69.577 20.2888 69.6565C20.2732 69.736 20.2304 69.8057 20.1677 69.8518C20.105 69.8979 20.0258 69.9178 19.9453 69.9089C19.8647 69.9001 19.7902 69.8625 19.7292 69.811C19.5869 69.6897 19.448 69.5649 19.3127 69.437C18.5948 68.7582 17.9775 67.9887 17.4765 67.1497C16.2774 65.1429 15.3844 62.9521 14.8467 60.6873C14.8042 60.5088 14.7641 60.33 14.7261 60.1506C14.7111 60.0792 14.7187 60.003 14.7529 59.9373C14.7871 59.8715 14.8444 59.8217 14.9131 59.7984Z" fill="#888888"/>
<path d="M65.3071 22.0044C73.7242 27.5961 79.2705 37.1509 79.2705 48.0003C79.2705 50.0676 79.0684 52.0879 78.6841 54.043C77.4566 53.6297 76.1566 53.3744 74.8081 53.3013C75.4755 50.764 75.8313 48.1007 75.8313 45.355C75.8313 36.0631 71.7628 27.7201 65.3071 22.0044Z" fill="#888888"/>
<path d="M69.2265 19.936C69.3061 19.9183 69.3895 19.9302 69.4636 19.9607C69.6549 20.0405 69.844 20.1251 70.0305 20.2141C71.0204 20.6864 71.9399 21.2869 72.7649 21.9963C73.4913 22.621 74.1821 23.2869 74.8325 23.9888C75.9496 25.1941 76.9476 26.507 77.8059 27.8994C77.9128 28.0729 78.0178 28.2477 78.1203 28.4236C78.1572 28.487 78.1732 28.5624 78.1606 28.6358C78.148 28.7091 78.1083 28.7741 78.0495 28.8174C77.9908 28.8606 77.9167 28.8792 77.843 28.8694C77.7692 28.8596 77.7022 28.8219 77.6526 28.7678C77.517 28.6201 77.3809 28.4731 77.2444 28.3269C76.1491 27.1543 75.0232 26.0316 73.865 24.9524C73.1903 24.3238 72.5048 23.7096 71.8074 23.1099C71.0152 22.4288 70.2556 21.7102 69.5102 20.9424C69.3698 20.7978 69.2297 20.6514 69.0901 20.5032C69.0351 20.4448 68.9941 20.3711 68.9824 20.2903C68.9707 20.2096 68.9883 20.1288 69.0329 20.064C69.0776 19.9992 69.1469 19.9538 69.2265 19.936Z" fill="#888888"/>
<path d="M48.0002 16.041C65.6828 16.0411 80.0198 30.3482 80.0198 48C80.0198 50.1577 79.8049 52.2653 79.3965 54.303C78.9298 54.1183 78.4514 53.9571 77.9626 53.8203C78.328 51.9363 78.5198 49.9905 78.5198 48C78.5198 31.1794 64.8571 17.5411 48.0002 17.541C31.1433 17.541 17.4805 31.1794 17.4805 48C17.4805 58.966 23.2879 68.579 32.0012 73.9426C35.8456 75.6282 40.0946 76.5635 44.5618 76.5635C50.1956 76.5635 55.4813 75.076 60.0466 72.4736C60.5383 73.99 61.2707 75.3979 62.198 76.6528C57.9192 78.769 53.0988 79.9587 48.0002 79.9587C30.3177 79.9587 15.9805 65.6518 15.9805 48C15.9805 30.3482 30.3177 16.041 48.0002 16.041Z" fill="#484848"/>
<path d="M35.7915 31.874C38.7044 27.8892 43.7046 25.5562 48.5859 25.8823C51.4209 26.0378 54.1846 27.0481 56.4299 28.7178C57.3795 29.4207 58.2398 30.2364 58.9878 31.1389C59.0345 31.1954 59.0589 31.2678 59.0542 31.3413C59.0495 31.4149 59.0161 31.4835 58.9614 31.5322C58.9068 31.5809 58.8348 31.606 58.7612 31.6023C58.6876 31.5985 58.6186 31.566 58.5679 31.5132C57.7866 30.6996 56.9144 29.9803 55.9753 29.373C53.7525 27.9308 51.1481 27.1402 48.5398 27.1008C44.0394 26.9899 39.6276 29.182 36.9961 32.7683C35.2601 35.0955 34.2987 37.981 34.293 40.8906C34.2352 45.3437 36.5241 49.7406 40.2175 52.2915C41.5201 53.0903 41.1985 55.3229 39.75 55.719C35.5186 57.1276 31.6633 59.6939 28.698 63.0803C27.9504 63.9326 27.2584 64.8356 26.6287 65.7822C26.5878 65.8436 26.5247 65.8874 26.4524 65.9033C26.3801 65.9192 26.3045 65.9062 26.2422 65.8667C26.1799 65.8272 26.1356 65.7644 26.1191 65.6921C26.1027 65.6199 26.1154 65.5441 26.1536 65.481C26.7549 64.4863 27.4252 63.5317 28.1582 62.6257C31.0641 59.0261 34.9786 56.2156 39.3687 54.626C39.9456 54.4438 40.0251 53.5925 39.5242 53.3083C35.4398 50.6316 32.8142 45.8186 32.8352 40.8906C32.8107 37.676 33.8651 34.4541 35.7915 31.874Z" fill="#484848"/>
<path d="M60.948 34.5298C61.0146 34.4983 61.0912 34.4945 61.1611 34.519C61.2311 34.5436 61.2887 34.5946 61.321 34.6609C61.6485 35.3335 61.9247 36.032 62.1455 36.7483C62.5678 38.1168 62.7858 39.5507 62.7915 40.9871C62.8302 44.9526 61.1623 48.912 58.2854 51.6912C57.7105 52.2512 57.0921 52.7676 56.436 53.2334C55.8958 53.5873 56.0731 54.4797 56.6528 54.6145C59.008 55.3774 61.2646 56.4863 63.3035 57.9121C62.9669 58.2708 62.6481 58.6462 62.3486 59.0374C60.4787 57.6811 58.4348 56.558 56.2595 55.74C54.8104 55.2936 54.5659 53.0939 55.8372 52.3557C56.4636 51.9471 57.0571 51.486 57.6084 50.9775C60.3679 48.4543 62.0379 44.7602 62.0847 40.9824C62.1094 39.6148 61.9324 38.2421 61.5576 36.9224C61.3617 36.2316 61.1122 35.5551 60.8125 34.9011C60.7818 34.8341 60.7791 34.7571 60.8044 34.6875C60.8299 34.6179 60.8814 34.5613 60.948 34.5298Z" fill="#484848"/>
<path d="M74 80C80.6274 80 86 74.6274 86 68C86 61.3726 80.6274 56 74 56C67.3726 56 62 61.3726 62 68C62 74.6274 67.3726 80 74 80Z" fill="#39B25E"/>
<path d="M78.5401 63.4197C78.8768 62.982 79.5047 62.8999 79.9424 63.2366C80.3802 63.5734 80.462 64.2012 80.1253 64.639L73.959 72.6551C73.314 73.4936 72.0611 73.5269 71.3726 72.7237L67.9068 68.6802C67.5474 68.2609 67.5959 67.6295 68.0152 67.2701C68.4345 66.9107 69.0659 66.9592 69.4253 67.3785L72.6241 71.1104L78.5401 63.4197Z" fill="white"/>
</svg>
