<svg width="96" height="96" viewBox="0 0 96 96" fill="none" xmlns="http://www.w3.org/2000/svg">
<path d="M51.1648 19.5049C54.8791 15.3778 61.662 16.7709 63.4489 22.0278L74.0322 53.1638C74.0249 53.1638 74.0175 53.1638 74.0102 53.1638C65.9101 53.1639 59.3437 59.7304 59.3437 67.8305C59.3437 70.6905 60.1624 73.3592 61.5781 75.6152L22.2212 68.2607C16.6197 67.214 14.3245 60.439 18.1364 56.2033L51.1648 19.5049Z" fill="#D83544"/>
<path d="M51.3401 18.9827C54.8818 14.96 61.4995 16.7517 62.528 22.0118L68.8054 54.1141C63.2746 56.214 59.3437 61.5632 59.3437 67.8304C59.3437 68.5316 59.3929 69.2213 59.488 69.8963C59.3491 69.8929 59.2095 69.8869 59.0693 69.8777L23.0329 67.5257C17.4615 67.162 14.7336 60.5607 18.4231 56.3702L51.3401 18.9827Z" fill="#F06565"/>
<path d="M47.4473 59.0599C49.3707 58.538 50.961 59.4657 51.7701 61.2794C48.7103 58.9026 44.9732 63.6471 44.9534 63.6722C44.2363 61.7068 45.3528 59.6418 47.4473 59.0599Z" fill="#CA2B3D"/>
<path d="M47.7156 39.5589C47.3559 43.7229 47.0001 47.8858 46.5896 52.0658C46.5896 52.0658 46.4239 45.556 47.7156 39.5589Z" fill="#CA2B3D"/>
<path d="M48.6985 28.7093C49.1928 25.8446 51.4403 25.1155 53.5728 25.4303C57.3138 25.0765 57.5749 27.863 57.136 29.9825C51.6142 28.3641 48.9736 33.7184 47.7156 39.5589C48.0276 35.9473 48.3426 32.3347 48.6985 28.7093Z" fill="#CA2B3D"/>
<path d="M24.0083 27.4512C25.7217 27.4226 27.4194 27.5179 29.1011 27.7366C30.783 27.9555 32.4494 28.298 34.0997 28.7642C34.283 28.816 34.4663 28.8693 34.6492 28.9241C34.7167 28.9445 34.779 28.9842 34.8213 29.0408C34.8636 29.0975 34.8829 29.1659 34.8743 29.233C34.8657 29.3001 34.8299 29.3616 34.7747 29.4056C34.7195 29.4496 34.6493 29.4718 34.5789 29.4742C34.3882 29.4804 34.1976 29.4852 34.0074 29.4884C32.294 29.517 30.5959 29.4218 28.9141 29.203C27.2323 28.9841 25.566 28.6416 23.9158 28.1754C23.7325 28.1236 23.5492 28.0703 23.3663 28.0155C23.2988 27.9951 23.2365 27.9557 23.1941 27.899C23.1518 27.8424 23.1329 27.7737 23.1414 27.7066C23.15 27.6395 23.1859 27.578 23.241 27.534C23.2962 27.4901 23.3662 27.4678 23.4366 27.4654C23.6273 27.4592 23.818 27.4544 24.0083 27.4512Z" fill="#CA2B3D"/>
<path d="M31.4449 16.2366C31.5157 16.2383 31.5832 16.2661 31.6377 16.3092C31.7852 16.426 31.9316 16.544 32.0767 16.6629C33.383 17.7331 34.595 18.8875 35.7122 20.1263C36.8295 21.3652 37.8522 22.6887 38.7803 24.0963C38.8834 24.2526 38.9855 24.41 39.0862 24.5684C39.1233 24.627 39.1438 24.6969 39.1377 24.7672C39.1317 24.8373 39.1001 24.9019 39.0489 24.9476C38.9976 24.9932 38.9297 25.0176 38.8589 25.0159C38.7881 25.0143 38.7203 24.9865 38.6658 24.9434C38.5184 24.8266 38.372 24.7086 38.2269 24.5897C36.9205 23.5195 35.7086 22.3651 34.5914 21.1263C33.4741 19.8874 32.4514 18.5639 31.5232 17.1563C31.4201 17 31.3181 16.8424 31.2173 16.6839C31.1803 16.6254 31.1598 16.5556 31.1658 16.4854C31.1719 16.4153 31.2035 16.3505 31.2547 16.3048C31.306 16.2591 31.3741 16.235 31.4449 16.2366Z" fill="#CA2B3D"/>
<path d="M48.8501 20.1733C53.8129 13.8681 62.43 15.2472 64.5708 21.6914L75.0376 53.1994C74.6982 53.1759 74.3556 53.1638 74.0102 53.1638C73.8222 53.1638 73.635 53.1673 73.4487 53.1743L63.1474 22.164C61.4488 17.051 54.3724 15.5591 50.0146 21.1189C50.0047 21.1315 49.9943 21.1438 49.9836 21.1557L19.3684 55.4399L19.3686 55.4402C15.5421 59.7664 17.8777 66.6126 23.5498 67.6985L61.0759 74.7509C61.3995 75.3545 61.7641 75.9329 62.166 76.4822L23.2732 69.1728L23.271 69.1723C16.4551 67.8698 13.6477 59.644 18.2451 54.4463L18.2475 54.4436L48.8501 20.1733Z" fill="#A02231"/>
<path fill-rule="evenodd" clip-rule="evenodd" d="M43.4443 61.4941C43.6832 59.1565 45.7851 57.3824 48.1677 57.614C50.6287 57.8534 52.2626 59.9223 52.009 62.4057C51.8748 63.7191 51.3515 64.7853 50.5117 65.5022C49.6733 66.2179 48.5865 66.528 47.434 66.4555C44.8928 66.2955 43.1938 63.9464 43.4443 61.4941ZM48.0222 59.1067C47.7057 59.0759 47.3961 59.1009 47.1023 59.1718C46.2064 59.5084 45.5204 60.1299 45.1233 60.8901C45.0283 61.1279 44.9638 61.3814 44.9367 61.6465C44.8739 62.2617 44.986 62.8473 45.227 63.3506C45.9686 62.5165 48.1092 60.3666 50.2631 60.6364C49.8646 59.785 49.0549 59.2071 48.0222 59.1067Z" fill="#A02231"/>
<path fill-rule="evenodd" clip-rule="evenodd" d="M50.2295 24.9709C51.2683 24.0558 52.616 23.7683 54.1277 23.9914C55.7719 24.2341 56.9086 25.0865 57.5227 26.3027C58.1186 27.4832 58.1814 28.9217 57.8935 30.3169C56.3225 37.9314 54.552 45.4602 52.7251 53.0056C52.5345 53.8871 51.9468 54.6015 51.2402 55.0595C50.5266 55.5221 49.627 55.7671 48.7431 55.6367C47.008 55.3805 45.682 53.7507 45.8425 52.009C46.4322 44.1865 47.0193 37.6576 48.3337 29.0385C48.604 27.2666 49.2129 25.8666 50.2295 24.9709ZM53.9084 25.4751C52.718 25.2994 51.8501 25.5421 51.2212 26.0962C50.57 26.6699 50.0587 27.6788 49.8169 29.2644C49.4928 31.3894 49.2132 33.3866 48.967 35.3076C50.416 31.6628 52.7395 29.0767 56.4616 29.8156C56.6564 28.7141 56.5579 27.721 56.1831 26.9785C55.8039 26.2275 55.1041 25.6516 53.9084 25.4751Z" fill="#A02231"/>
<path d="M74.01 79.885C80.6374 79.885 86.01 74.5124 86.01 67.885C86.01 61.2576 80.6374 55.885 74.01 55.885C67.3826 55.885 62.01 61.2576 62.01 67.885C62.01 74.5124 67.3826 79.885 74.01 79.885Z" fill="black"/>
<path d="M81.01 66.9384C81.5623 66.9384 82.01 67.3861 82.01 67.9384C82.01 72.3022 78.4628 75.8348 74.0933 75.8348C72.8845 75.8348 71.7372 75.564 70.7107 75.0795L70.9043 75.4667C71.1512 75.9607 70.951 76.5614 70.457 76.8082C69.9631 77.055 69.3625 76.8544 69.1155 76.3605L67.782 73.694C67.768 73.666 67.7558 73.6376 67.7446 73.609C67.7395 73.596 67.7347 73.5829 67.7302 73.5697C67.603 73.1985 67.707 72.7908 67.9832 72.5255C67.995 72.5142 68.0071 72.5031 68.0195 72.4923C68.0444 72.4707 68.0706 72.4501 68.0979 72.4308C68.1389 72.4018 68.1827 72.3756 68.229 72.3524L70.8958 71.0192C71.3897 70.7722 71.9904 70.9725 72.2375 71.4664C72.4847 71.9604 72.2847 72.561 71.7908 72.808L71.2195 73.0934C72.0696 73.5653 73.0484 73.8348 74.0933 73.8348C77.3637 73.8348 80.01 71.1921 80.01 67.9384C80.0101 67.3861 80.4578 66.9384 81.01 66.9384Z" fill="white"/>
<path d="M77.5737 58.9305C78.0706 58.6899 78.6689 58.8975 78.9099 59.3944L80.2434 62.1447C80.2542 62.1669 80.2637 62.1896 80.2727 62.2123C80.2754 62.2189 80.278 62.2256 80.2805 62.2323C80.2831 62.2393 80.2854 62.2463 80.2878 62.2533C80.2914 62.2634 80.2949 62.2734 80.2981 62.2836C80.2995 62.288 80.3009 62.2925 80.3022 62.297C80.3055 62.3078 80.3087 62.3186 80.3115 62.3295C80.3132 62.336 80.3146 62.3425 80.3162 62.349C80.3186 62.359 80.3209 62.369 80.323 62.379C80.355 62.5337 80.3489 62.6909 80.3093 62.8387C80.3078 62.8444 80.3063 62.8502 80.3047 62.8558C80.2977 62.8803 80.2896 62.9045 80.2808 62.9283C80.2784 62.9347 80.2762 62.9411 80.2737 62.9474C80.2582 62.9866 80.2403 63.0248 80.22 63.0619C80.2176 63.0661 80.2153 63.0704 80.2129 63.0746C80.1996 63.0979 80.1853 63.1207 80.1702 63.1429C80.1665 63.1483 80.1629 63.1537 80.1592 63.1591C80.1446 63.1797 80.129 63.1998 80.1128 63.2194C80.1084 63.2247 80.1039 63.23 80.0994 63.2352C80.0706 63.2684 80.0397 63.3 80.0063 63.3295C80.0035 63.3319 80.0006 63.3343 79.9978 63.3368C79.9501 63.378 79.898 63.4151 79.8416 63.4474C79.8391 63.4488 79.8365 63.4501 79.834 63.4515C79.8239 63.4572 79.8138 63.4628 79.8035 63.4681C79.7993 63.4703 79.7952 63.4726 79.791 63.4747L77.1245 64.808C76.6307 65.0549 76.03 64.8548 75.7827 64.361C75.5355 63.867 75.7352 63.2661 76.229 63.0192L76.8408 62.713C76.8291 62.7075 76.8173 62.7021 76.8057 62.6962C75.9944 62.2783 75.0729 62.0419 74.0933 62.0419C70.7831 62.0419 68.0101 64.6788 68.01 67.8937C68.01 68.446 67.5623 68.8937 67.01 68.8937C66.4577 68.8937 66.01 68.446 66.01 67.8937C66.0101 63.491 69.7636 60.0419 74.0933 60.0419C75.2474 60.0419 76.3461 60.2892 77.3372 60.7338L77.1104 60.266C76.8695 59.769 77.0769 59.1712 77.5737 58.9305Z" fill="white"/>
</svg>
