<svg fill="none" viewBox="0 0 96 96" xmlns="http://www.w3.org/2000/svg">
  <path fill="#fff" d="M71 51c-11.046 0-20 8.954-20 20v5.95c-1.84.602-3 .8-3 .8s-27-4.616-27-36.808V26.404l14 .846 13-9.154 12.5 8.654 14.5-.346v14.538c0 3.707-.358 7.048-.992 10.058z"/>
  <path fill="#F2F2F2" d="M71 51c-11.046 0-20 8.954-20 20v4.995l-3 1.236V17l13 8.634 13.48-.326v14.538c0 3.554-.569 7.377-1.629 11.154z"/>
  <path fill="#CACACA" d="M72.472 51c1.382-5.071 2.096-11.566 2.023-20.162-.005-.54-.266-1.035-.86-1.443a3.38 3.38 0 0 0-2.244-.549c-4.516.57-8.253.408-11.639-.674-3.412-1.09-6.47-3.116-9.587-6.255-1.086-1.094-3.203-1.088-4.28.01-3.163 3.223-6.266 5.25-9.705 6.316-3.386 1.05-7.107 1.17-11.567.603a3.38 3.38 0 0 0-2.247.547c-.595.408-.856.903-.86 1.444-.126 14.699 2.052 23.256 5.93 29.054 4.173 6.241 10.419 9.465 18.409 13.515l.689.35a3.33 3.33 0 0 0 2.932 0l.69-.35.844-.428v3.507c0 1.238-.76 2.401-1.989 2.55a8.3 8.3 0 0 1-4.738-.82l-.958-.486c-7.683-3.893-15.074-7.638-20.036-15.059-4.7-7.027-6.902-16.786-6.774-31.875.021-2.47 1.354-4.373 3.031-5.525a8.37 8.37 0 0 1 5.708-1.384c4.045.515 6.987.346 9.455-.419s4.883-2.256 7.618-5.043c3.033-3.09 8.352-3.097 11.397-.03 2.707 2.728 5.1 4.23 7.56 5.016 2.469.789 5.42.989 9.491.476a8.37 8.37 0 0 1 5.703 1.388c1.675 1.152 3.006 3.055 3.027 5.522.06 7.038-.388 12.916-1.359 17.898-.265 1.36-1.478 2.306-2.863 2.306h-2.8Z"/>
  <circle cx="71" cy="71" r="16" fill="#EB102D"/>
  <path fill="#fff" d="M73 77.8a2 2 0 1 1-4 0 2 2 0 0 1 4 0m-2.039-4.4c-.706 0-1.334-.49-1.412-1.12l-.942-8.75c-.079-.7.55-1.33 1.412-1.33h1.962c.785 0 1.492.63 1.413 1.33l-.942 8.75c-.157.63-.784 1.12-1.49 1.12Z"/>
  <path fill="#CCC" d="M92.501 59c.298 0 .595.12.823.354.454.468.454 1.23 0 1.698l-2.333 2.4a1.145 1.145 0 0 1-1.65 0 1.227 1.227 0 0 1 0-1.698l2.333-2.4c.227-.234.524-.354.822-.354zm-1.166 10.798h3.499c.641 0 1.166.54 1.166 1.2s-.525 1.2-1.166 1.2h-3.499c-.641 0-1.166-.54-1.166-1.2s.525-1.2 1.166-1.2m-1.982 8.754c.227-.234.525-.354.822-.354h.006c.297 0 .595.12.822.354l2.332 2.4c.455.467.455 1.23 0 1.697a1.145 1.145 0 0 1-1.65 0l-2.332-2.4a1.227 1.227 0 0 1 0-1.697"/>
</svg>