<svg width="16" height="16" viewBox="0 0 16 16" fill="none" xmlns="http://www.w3.org/2000/svg">
    <path d="M0.5 4C0.5 2.61929 1.61929 1.5 3 1.5H13C14.3807 1.5 15.5 2.61929 15.5 4V12C15.5 13.3807 14.3807 14.5 13 14.5H3C1.61929 14.5 0.5 13.3807 0.5 12V4Z" fill="#63C853"/>
    <path d="M1 6C1 5.44772 1.44772 5 2 5H14C14.5523 5 15 5.44772 15 6V12C15 13.3807 13.8807 14.5 12.5 14.5H3.5C2.11929 14.5 1 13.3807 1 12V6Z" fill="white"/>
    <path fill-rule="evenodd" clip-rule="evenodd" d="M4.5 0C4.77614 0 5 0.223858 5 0.5V1H11V0.5C11 0.223858 11.2239 0 11.5 0C11.7761 0 12 0.223858 12 0.5V1H13C14.6569 1 16 2.34315 16 4V12C16 13.6569 14.6569 15 13 15H3C1.34315 15 0 13.6569 0 12V4C0 2.34315 1.34315 1 3 1H4V0.5C4 0.223858 4.22386 0 4.5 0ZM11 2V2.5C11 2.77614 11.2239 3 11.5 3C11.7761 3 12 2.77614 12 2.5V2H13C14.1046 2 15 2.89543 15 4V12C15 13.1046 14.1046 14 13 14H3C1.89543 14 1 13.1046 1 12V4C1 2.89543 1.89543 2 3 2H4V2.5C4 2.77614 4.22386 3 4.5 3C4.77614 3 5 2.77614 5 2.5V2H11ZM2 4.5C2 4.22386 2.22386 4 2.5 4H13.5C13.7761 4 14 4.22386 14 4.5C14 4.77614 13.7761 5 13.5 5H2.5C2.22386 5 2 4.77614 2 4.5ZM3 6.5C2.72386 6.5 2.5 6.72386 2.5 7C2.5 7.27614 2.72386 7.5 3 7.5C3.27614 7.5 3.5 7.27614 3.5 7C3.5 6.72386 3.27614 6.5 3 6.5ZM3 9C2.72386 9 2.5 9.22386 2.5 9.5C2.5 9.77614 2.72386 10 3 10C3.27614 10 3.5 9.77614 3.5 9.5C3.5 9.22386 3.27614 9 3 9ZM2.5 12C2.5 11.7239 2.72386 11.5 3 11.5C3.27614 11.5 3.5 11.7239 3.5 12C3.5 12.2761 3.27614 12.5 3 12.5C2.72386 12.5 2.5 12.2761 2.5 12ZM8 6.5C7.72386 6.5 7.5 6.72386 7.5 7C7.5 7.27614 7.72386 7.5 8 7.5C8.27614 7.5 8.5 7.27614 8.5 7C8.5 6.72386 8.27614 6.5 8 6.5ZM7.5 9.5C7.5 9.22386 7.72386 9 8 9C8.27614 9 8.5 9.22386 8.5 9.5C8.5 9.77614 8.27614 10 8 10C7.72386 10 7.5 9.77614 7.5 9.5ZM8 11.5C7.72386 11.5 7.5 11.7239 7.5 12C7.5 12.2761 7.72386 12.5 8 12.5C8.27614 12.5 8.5 12.2761 8.5 12C8.5 11.7239 8.27614 11.5 8 11.5ZM5 7C5 6.72386 5.22386 6.5 5.5 6.5C5.77614 6.5 6 6.72386 6 7C6 7.27614 5.77614 7.5 5.5 7.5C5.22386 7.5 5 7.27614 5 7ZM5.5 9C5.22386 9 5 9.22386 5 9.5C5 9.77614 5.22386 10 5.5 10C5.77614 10 6 9.77614 6 9.5C6 9.22386 5.77614 9 5.5 9ZM5 12C5 11.7239 5.22386 11.5 5.5 11.5C5.77614 11.5 6 11.7239 6 12C6 12.2761 5.77614 12.5 5.5 12.5C5.22386 12.5 5 12.2761 5 12ZM10.5 6.5C10.2239 6.5 10 6.72386 10 7C10 7.27614 10.2239 7.5 10.5 7.5C10.7761 7.5 11 7.27614 11 7C11 6.72386 10.7761 6.5 10.5 6.5ZM10 9.5C10 9.22386 10.2239 9 10.5 9C10.7761 9 11 9.22386 11 9.5C11 9.77614 10.7761 10 10.5 10C10.2239 10 10 9.77614 10 9.5ZM13 6.5C12.7239 6.5 12.5 6.72386 12.5 7C12.5 7.27614 12.7239 7.5 13 7.5C13.2761 7.5 13.5 7.27614 13.5 7C13.5 6.72386 13.2761 6.5 13 6.5ZM12.5 9.5C12.5 9.22386 12.7239 9 13 9C13.2761 9 13.5 9.22386 13.5 9.5C13.5 9.77614 13.2761 10 13 10C12.7239 10 12.5 9.77614 12.5 9.5Z" fill="url(#paint0_linear_3992_9352)"/>
    <defs>
        <linearGradient id="paint0_linear_3992_9352" x1="8" y1="0" x2="8" y2="15" gradientUnits="userSpaceOnUse">
            <stop stop-color="#288419"/>
            <stop offset="1" stop-color="#0F4E05"/>
        </linearGradient>
    </defs>
</svg>
